%TF.GenerationSoftware,KiCad,Pcbnew,10.0.6*%
%TF.CreationDate,2026-09-25T10:03:13-04:00*%
%TF.ProjectId,qurannode,71757261-6e6e-46f6-9465-2e6b69636164,rev?*%
%TF.SameCoordinates,Original*%
%TF.FileFunction,Drillmap*%
%TF.FilePolarity,Positive*%
%FSLAX45Y45*%
G04 Gerber Fmt 4.5, Leading zero omitted, Abs format (unit mm)*
G04 Created by KiCad (PCBNEW 10.0.6) date 2026-09-25 10:03:13*
%MOMM*%
%LPD*%
G01*
G04 APERTURE LIST*
%ADD10C,0.100000*%
%ADD11C,0.200000*%
%ADD12C,0.150000*%
G04 APERTURE END LIST*
D10*
X0Y-200000D02*
X6800Y-148200D01*
X0Y-14800000D02*
X0Y-200000D01*
X6800Y-148200D02*
X26800Y-100000D01*
X6800Y-14851800D02*
X0Y-14800000D01*
X26800Y-100000D02*
X58600Y-58600D01*
X26800Y-14900000D02*
X6800Y-14851800D01*
X58600Y-58600D02*
X100000Y-26800D01*
X58600Y-14941400D02*
X26800Y-14900000D01*
X100000Y-26800D02*
X148200Y-6800D01*
X100000Y-14973200D02*
X58600Y-14941400D01*
X148200Y-6800D02*
X200000Y0D01*
X148200Y-14993200D02*
X100000Y-14973200D01*
X200000Y0D02*
X6080000Y0D01*
X200000Y-15000000D02*
X148200Y-14993200D01*
X6080000Y0D02*
X6131800Y-6800D01*
X6080000Y-15000000D02*
X200000Y-15000000D01*
X6131800Y-6800D02*
X6180000Y-26800D01*
X6131800Y-14993200D02*
X6080000Y-15000000D01*
X6180000Y-26800D02*
X6221400Y-58600D01*
X6180000Y-14973200D02*
X6131800Y-14993200D01*
X6221400Y-58600D02*
X6253200Y-100000D01*
X6221400Y-14941400D02*
X6180000Y-14973200D01*
X6253200Y-100000D02*
X6273200Y-148200D01*
X6253200Y-14900000D02*
X6221400Y-14941400D01*
X6273200Y-148200D02*
X6280000Y-200000D01*
X6273200Y-14851800D02*
X6253200Y-14900000D01*
X6280000Y-200000D02*
X6280000Y-14800000D01*
X6280000Y-14800000D02*
X6273200Y-14851800D01*
D11*
D10*
X1240000Y-4764000D02*
X1260000Y-4784000D01*
X1260000Y-4764000D02*
X1240000Y-4784000D01*
X1240000Y-4904000D02*
X1260000Y-4924000D01*
X1260000Y-4904000D02*
X1240000Y-4924000D01*
X1310000Y-4694000D02*
X1330000Y-4714000D01*
X1330000Y-4694000D02*
X1310000Y-4714000D01*
X1310000Y-4834000D02*
X1330000Y-4854000D01*
X1330000Y-4834000D02*
X1310000Y-4854000D01*
X1310000Y-4974000D02*
X1330000Y-4994000D01*
X1330000Y-4974000D02*
X1310000Y-4994000D01*
X1380000Y-4764000D02*
X1400000Y-4784000D01*
X1400000Y-4764000D02*
X1380000Y-4784000D01*
X1380000Y-4904000D02*
X1400000Y-4924000D01*
X1400000Y-4904000D02*
X1380000Y-4924000D01*
X1450000Y-4694000D02*
X1470000Y-4714000D01*
X1470000Y-4694000D02*
X1450000Y-4714000D01*
X1450000Y-4834000D02*
X1470000Y-4854000D01*
X1470000Y-4834000D02*
X1450000Y-4854000D01*
X1450000Y-4974000D02*
X1470000Y-4994000D01*
X1470000Y-4974000D02*
X1450000Y-4994000D01*
X1520000Y-4764000D02*
X1540000Y-4784000D01*
X1540000Y-4764000D02*
X1520000Y-4784000D01*
X1520000Y-4904000D02*
X1540000Y-4924000D01*
X1540000Y-4904000D02*
X1520000Y-4924000D01*
X245780Y-10507400D02*
G75*
G02*
X215780Y-10507400I-15000J0D01*
G01*
X215780Y-10507400D02*
G75*
G02*
X245780Y-10507400I15000J0D01*
G01*
X376030Y-11424280D02*
G75*
G02*
X346030Y-11424280I-15000J0D01*
G01*
X346030Y-11424280D02*
G75*
G02*
X376030Y-11424280I15000J0D01*
G01*
X399350Y-11532880D02*
G75*
G02*
X369350Y-11532880I-15000J0D01*
G01*
X369350Y-11532880D02*
G75*
G02*
X399350Y-11532880I15000J0D01*
G01*
X503320Y-10649270D02*
G75*
G02*
X473320Y-10649270I-15000J0D01*
G01*
X473320Y-10649270D02*
G75*
G02*
X503320Y-10649270I15000J0D01*
G01*
X599320Y-10649200D02*
G75*
G02*
X569320Y-10649200I-15000J0D01*
G01*
X569320Y-10649200D02*
G75*
G02*
X599320Y-10649200I15000J0D01*
G01*
X683950Y-11674620D02*
G75*
G02*
X653950Y-11674620I-15000J0D01*
G01*
X653950Y-11674620D02*
G75*
G02*
X683950Y-11674620I15000J0D01*
G01*
X748010Y-12341780D02*
G75*
G02*
X718010Y-12341780I-15000J0D01*
G01*
X718010Y-12341780D02*
G75*
G02*
X748010Y-12341780I15000J0D01*
G01*
X785040Y-13060030D02*
G75*
G02*
X755040Y-13060030I-15000J0D01*
G01*
X755040Y-13060030D02*
G75*
G02*
X785040Y-13060030I15000J0D01*
G01*
X785500Y-11269410D02*
G75*
G02*
X755500Y-11269410I-15000J0D01*
G01*
X755500Y-11269410D02*
G75*
G02*
X785500Y-11269410I15000J0D01*
G01*
X788380Y-10445550D02*
G75*
G02*
X758380Y-10445550I-15000J0D01*
G01*
X758380Y-10445550D02*
G75*
G02*
X788380Y-10445550I15000J0D01*
G01*
X800480Y-4200240D02*
G75*
G02*
X770480Y-4200240I-15000J0D01*
G01*
X770480Y-4200240D02*
G75*
G02*
X800480Y-4200240I15000J0D01*
G01*
X801970Y-4046090D02*
G75*
G02*
X771970Y-4046090I-15000J0D01*
G01*
X771970Y-4046090D02*
G75*
G02*
X801970Y-4046090I15000J0D01*
G01*
X807510Y-12548260D02*
G75*
G02*
X777510Y-12548260I-15000J0D01*
G01*
X777510Y-12548260D02*
G75*
G02*
X807510Y-12548260I15000J0D01*
G01*
X816590Y-5207990D02*
G75*
G02*
X786590Y-5207990I-15000J0D01*
G01*
X786590Y-5207990D02*
G75*
G02*
X816590Y-5207990I15000J0D01*
G01*
X825070Y-11850320D02*
G75*
G02*
X795070Y-11850320I-15000J0D01*
G01*
X795070Y-11850320D02*
G75*
G02*
X825070Y-11850320I15000J0D01*
G01*
X827580Y-5423510D02*
G75*
G02*
X797580Y-5423510I-15000J0D01*
G01*
X797580Y-5423510D02*
G75*
G02*
X827580Y-5423510I15000J0D01*
G01*
X839500Y-4848750D02*
G75*
G02*
X809500Y-4848750I-15000J0D01*
G01*
X809500Y-4848750D02*
G75*
G02*
X839500Y-4848750I15000J0D01*
G01*
X845810Y-6048850D02*
G75*
G02*
X815810Y-6048850I-15000J0D01*
G01*
X815810Y-6048850D02*
G75*
G02*
X845810Y-6048850I15000J0D01*
G01*
X859800Y-4950270D02*
G75*
G02*
X829800Y-4950270I-15000J0D01*
G01*
X829800Y-4950270D02*
G75*
G02*
X859800Y-4950270I15000J0D01*
G01*
X871100Y-5075530D02*
G75*
G02*
X841100Y-5075530I-15000J0D01*
G01*
X841100Y-5075530D02*
G75*
G02*
X871100Y-5075530I15000J0D01*
G01*
X957280Y-11697960D02*
G75*
G02*
X927280Y-11697960I-15000J0D01*
G01*
X927280Y-11697960D02*
G75*
G02*
X957280Y-11697960I15000J0D01*
G01*
X957740Y-4676480D02*
G75*
G02*
X927740Y-4676480I-15000J0D01*
G01*
X927740Y-4676480D02*
G75*
G02*
X957740Y-4676480I15000J0D01*
G01*
X962200Y-5969470D02*
G75*
G02*
X932200Y-5969470I-15000J0D01*
G01*
X932200Y-5969470D02*
G75*
G02*
X962200Y-5969470I15000J0D01*
G01*
X964220Y-10436840D02*
G75*
G02*
X934220Y-10436840I-15000J0D01*
G01*
X934220Y-10436840D02*
G75*
G02*
X964220Y-10436840I15000J0D01*
G01*
X1020170Y-13911060D02*
G75*
G02*
X990170Y-13911060I-15000J0D01*
G01*
X990170Y-13911060D02*
G75*
G02*
X1020170Y-13911060I15000J0D01*
G01*
X1051190Y-8611030D02*
G75*
G02*
X1021190Y-8611030I-15000J0D01*
G01*
X1021190Y-8611030D02*
G75*
G02*
X1051190Y-8611030I15000J0D01*
G01*
X1078670Y-13179810D02*
G75*
G02*
X1048670Y-13179810I-15000J0D01*
G01*
X1048670Y-13179810D02*
G75*
G02*
X1078670Y-13179810I15000J0D01*
G01*
X1081240Y-10550520D02*
G75*
G02*
X1051240Y-10550520I-15000J0D01*
G01*
X1051240Y-10550520D02*
G75*
G02*
X1081240Y-10550520I15000J0D01*
G01*
X1095320Y-12608680D02*
G75*
G02*
X1065320Y-12608680I-15000J0D01*
G01*
X1065320Y-12608680D02*
G75*
G02*
X1095320Y-12608680I15000J0D01*
G01*
X1114540Y-12259090D02*
G75*
G02*
X1084540Y-12259090I-15000J0D01*
G01*
X1084540Y-12259090D02*
G75*
G02*
X1114540Y-12259090I15000J0D01*
G01*
X1115340Y-11886200D02*
G75*
G02*
X1085340Y-11886200I-15000J0D01*
G01*
X1085340Y-11886200D02*
G75*
G02*
X1115340Y-11886200I15000J0D01*
G01*
X1120590Y-10362650D02*
G75*
G02*
X1090590Y-10362650I-15000J0D01*
G01*
X1090590Y-10362650D02*
G75*
G02*
X1120590Y-10362650I15000J0D01*
G01*
X1127190Y-10945560D02*
G75*
G02*
X1097190Y-10945560I-15000J0D01*
G01*
X1097190Y-10945560D02*
G75*
G02*
X1127190Y-10945560I15000J0D01*
G01*
X1131600Y-6366720D02*
G75*
G02*
X1101600Y-6366720I-15000J0D01*
G01*
X1101600Y-6366720D02*
G75*
G02*
X1131600Y-6366720I15000J0D01*
G01*
X1134570Y-11676300D02*
G75*
G02*
X1104570Y-11676300I-15000J0D01*
G01*
X1104570Y-11676300D02*
G75*
G02*
X1134570Y-11676300I15000J0D01*
G01*
X1193260Y-681160D02*
G75*
G02*
X1163260Y-681160I-15000J0D01*
G01*
X1163260Y-681160D02*
G75*
G02*
X1193260Y-681160I15000J0D01*
G01*
X1237460Y-11756240D02*
G75*
G02*
X1207460Y-11756240I-15000J0D01*
G01*
X1207460Y-11756240D02*
G75*
G02*
X1237460Y-11756240I15000J0D01*
G01*
X1414760Y-11063410D02*
G75*
G02*
X1384760Y-11063410I-15000J0D01*
G01*
X1384760Y-11063410D02*
G75*
G02*
X1414760Y-11063410I15000J0D01*
G01*
X1439870Y-12299060D02*
G75*
G02*
X1409870Y-12299060I-15000J0D01*
G01*
X1409870Y-12299060D02*
G75*
G02*
X1439870Y-12299060I15000J0D01*
G01*
X1440170Y-10960130D02*
G75*
G02*
X1410170Y-10960130I-15000J0D01*
G01*
X1410170Y-10960130D02*
G75*
G02*
X1440170Y-10960130I15000J0D01*
G01*
X1467110Y-142750D02*
G75*
G02*
X1437110Y-142750I-15000J0D01*
G01*
X1437110Y-142750D02*
G75*
G02*
X1467110Y-142750I15000J0D01*
G01*
X1473200Y-10358720D02*
G75*
G02*
X1443200Y-10358720I-15000J0D01*
G01*
X1443200Y-10358720D02*
G75*
G02*
X1473200Y-10358720I15000J0D01*
G01*
X1473840Y-5651520D02*
G75*
G02*
X1443840Y-5651520I-15000J0D01*
G01*
X1443840Y-5651520D02*
G75*
G02*
X1473840Y-5651520I15000J0D01*
G01*
X1487210Y-11938580D02*
G75*
G02*
X1457210Y-11938580I-15000J0D01*
G01*
X1457210Y-11938580D02*
G75*
G02*
X1487210Y-11938580I15000J0D01*
G01*
X1589740Y-5562000D02*
G75*
G02*
X1559740Y-5562000I-15000J0D01*
G01*
X1559740Y-5562000D02*
G75*
G02*
X1589740Y-5562000I15000J0D01*
G01*
X1590640Y-14854530D02*
G75*
G02*
X1560640Y-14854530I-15000J0D01*
G01*
X1560640Y-14854530D02*
G75*
G02*
X1590640Y-14854530I15000J0D01*
G01*
X1611060Y-10822420D02*
G75*
G02*
X1581060Y-10822420I-15000J0D01*
G01*
X1581060Y-10822420D02*
G75*
G02*
X1611060Y-10822420I15000J0D01*
G01*
X1612420Y-12427030D02*
G75*
G02*
X1582420Y-12427030I-15000J0D01*
G01*
X1582420Y-12427030D02*
G75*
G02*
X1612420Y-12427030I15000J0D01*
G01*
X1661740Y-7723900D02*
G75*
G02*
X1631740Y-7723900I-15000J0D01*
G01*
X1631740Y-7723900D02*
G75*
G02*
X1661740Y-7723900I15000J0D01*
G01*
X1672730Y-5592910D02*
G75*
G02*
X1642730Y-5592910I-15000J0D01*
G01*
X1642730Y-5592910D02*
G75*
G02*
X1672730Y-5592910I15000J0D01*
G01*
X1696160Y-12766580D02*
G75*
G02*
X1666160Y-12766580I-15000J0D01*
G01*
X1666160Y-12766580D02*
G75*
G02*
X1696160Y-12766580I15000J0D01*
G01*
X1702860Y-12449200D02*
G75*
G02*
X1672860Y-12449200I-15000J0D01*
G01*
X1672860Y-12449200D02*
G75*
G02*
X1702860Y-12449200I15000J0D01*
G01*
X1707060Y-10669270D02*
G75*
G02*
X1677060Y-10669270I-15000J0D01*
G01*
X1677060Y-10669270D02*
G75*
G02*
X1707060Y-10669270I15000J0D01*
G01*
X1719050Y-1616720D02*
G75*
G02*
X1689050Y-1616720I-15000J0D01*
G01*
X1689050Y-1616720D02*
G75*
G02*
X1719050Y-1616720I15000J0D01*
G01*
X1723350Y-10482100D02*
G75*
G02*
X1693350Y-10482100I-15000J0D01*
G01*
X1693350Y-10482100D02*
G75*
G02*
X1723350Y-10482100I15000J0D01*
G01*
X1750860Y-11701020D02*
G75*
G02*
X1720860Y-11701020I-15000J0D01*
G01*
X1720860Y-11701020D02*
G75*
G02*
X1750860Y-11701020I15000J0D01*
G01*
X1753920Y-5560220D02*
G75*
G02*
X1723920Y-5560220I-15000J0D01*
G01*
X1723920Y-5560220D02*
G75*
G02*
X1753920Y-5560220I15000J0D01*
G01*
X1817000Y-11001260D02*
G75*
G02*
X1787000Y-11001260I-15000J0D01*
G01*
X1787000Y-11001260D02*
G75*
G02*
X1817000Y-11001260I15000J0D01*
G01*
X1817070Y-11237610D02*
G75*
G02*
X1787070Y-11237610I-15000J0D01*
G01*
X1787070Y-11237610D02*
G75*
G02*
X1817070Y-11237610I15000J0D01*
G01*
X1907980Y-6038120D02*
G75*
G02*
X1877980Y-6038120I-15000J0D01*
G01*
X1877980Y-6038120D02*
G75*
G02*
X1907980Y-6038120I15000J0D01*
G01*
X1917060Y-11370750D02*
G75*
G02*
X1887060Y-11370750I-15000J0D01*
G01*
X1887060Y-11370750D02*
G75*
G02*
X1917060Y-11370750I15000J0D01*
G01*
X1918750Y-13602260D02*
G75*
G02*
X1888750Y-13602260I-15000J0D01*
G01*
X1888750Y-13602260D02*
G75*
G02*
X1918750Y-13602260I15000J0D01*
G01*
X1918750Y-14319570D02*
G75*
G02*
X1888750Y-14319570I-15000J0D01*
G01*
X1888750Y-14319570D02*
G75*
G02*
X1918750Y-14319570I15000J0D01*
G01*
X1925610Y-12511590D02*
G75*
G02*
X1895610Y-12511590I-15000J0D01*
G01*
X1895610Y-12511590D02*
G75*
G02*
X1925610Y-12511590I15000J0D01*
G01*
X1955000Y-7794500D02*
G75*
G02*
X1925000Y-7794500I-15000J0D01*
G01*
X1925000Y-7794500D02*
G75*
G02*
X1955000Y-7794500I15000J0D01*
G01*
X1960150Y-13275130D02*
G75*
G02*
X1930150Y-13275130I-15000J0D01*
G01*
X1930150Y-13275130D02*
G75*
G02*
X1960150Y-13275130I15000J0D01*
G01*
X2029850Y-12528380D02*
G75*
G02*
X1999850Y-12528380I-15000J0D01*
G01*
X1999850Y-12528380D02*
G75*
G02*
X2029850Y-12528380I15000J0D01*
G01*
X2038330Y-13840590D02*
G75*
G02*
X2008330Y-13840590I-15000J0D01*
G01*
X2008330Y-13840590D02*
G75*
G02*
X2038330Y-13840590I15000J0D01*
G01*
X2038470Y-14183460D02*
G75*
G02*
X2008470Y-14183460I-15000J0D01*
G01*
X2008470Y-14183460D02*
G75*
G02*
X2038470Y-14183460I15000J0D01*
G01*
X2064960Y-13962330D02*
G75*
G02*
X2034960Y-13962330I-15000J0D01*
G01*
X2034960Y-13962330D02*
G75*
G02*
X2064960Y-13962330I15000J0D01*
G01*
X2069400Y-13663750D02*
G75*
G02*
X2039400Y-13663750I-15000J0D01*
G01*
X2039400Y-13663750D02*
G75*
G02*
X2069400Y-13663750I15000J0D01*
G01*
X2074830Y-11060290D02*
G75*
G02*
X2044830Y-11060290I-15000J0D01*
G01*
X2044830Y-11060290D02*
G75*
G02*
X2074830Y-11060290I15000J0D01*
G01*
X2075960Y-10708910D02*
G75*
G02*
X2045960Y-10708910I-15000J0D01*
G01*
X2045960Y-10708910D02*
G75*
G02*
X2075960Y-10708910I15000J0D01*
G01*
X2087140Y-1532160D02*
G75*
G02*
X2057140Y-1532160I-15000J0D01*
G01*
X2057140Y-1532160D02*
G75*
G02*
X2087140Y-1532160I15000J0D01*
G01*
X2120740Y-10451950D02*
G75*
G02*
X2090740Y-10451950I-15000J0D01*
G01*
X2090740Y-10451950D02*
G75*
G02*
X2120740Y-10451950I15000J0D01*
G01*
X2163400Y-12780220D02*
G75*
G02*
X2133400Y-12780220I-15000J0D01*
G01*
X2133400Y-12780220D02*
G75*
G02*
X2163400Y-12780220I15000J0D01*
G01*
X2216740Y-10299220D02*
G75*
G02*
X2186740Y-10299220I-15000J0D01*
G01*
X2186740Y-10299220D02*
G75*
G02*
X2216740Y-10299220I15000J0D01*
G01*
X2240630Y-12224530D02*
G75*
G02*
X2210630Y-12224530I-15000J0D01*
G01*
X2210630Y-12224530D02*
G75*
G02*
X2240630Y-12224530I15000J0D01*
G01*
X2252810Y-10739600D02*
G75*
G02*
X2222810Y-10739600I-15000J0D01*
G01*
X2222810Y-10739600D02*
G75*
G02*
X2252810Y-10739600I15000J0D01*
G01*
X2261270Y-11138970D02*
G75*
G02*
X2231270Y-11138970I-15000J0D01*
G01*
X2231270Y-11138970D02*
G75*
G02*
X2261270Y-11138970I15000J0D01*
G01*
X2272340Y-13666470D02*
G75*
G02*
X2242340Y-13666470I-15000J0D01*
G01*
X2242340Y-13666470D02*
G75*
G02*
X2272340Y-13666470I15000J0D01*
G01*
X2272380Y-11323750D02*
G75*
G02*
X2242380Y-11323750I-15000J0D01*
G01*
X2242380Y-11323750D02*
G75*
G02*
X2272380Y-11323750I15000J0D01*
G01*
X2278650Y-12863820D02*
G75*
G02*
X2248650Y-12863820I-15000J0D01*
G01*
X2248650Y-12863820D02*
G75*
G02*
X2278650Y-12863820I15000J0D01*
G01*
X2293350Y-11801840D02*
G75*
G02*
X2263350Y-11801840I-15000J0D01*
G01*
X2263350Y-11801840D02*
G75*
G02*
X2293350Y-11801840I15000J0D01*
G01*
X2296510Y-4867260D02*
G75*
G02*
X2266510Y-4867260I-15000J0D01*
G01*
X2266510Y-4867260D02*
G75*
G02*
X2296510Y-4867260I15000J0D01*
G01*
X2307880Y-4946560D02*
G75*
G02*
X2277880Y-4946560I-15000J0D01*
G01*
X2277880Y-4946560D02*
G75*
G02*
X2307880Y-4946560I15000J0D01*
G01*
X2322700Y-1532140D02*
G75*
G02*
X2292700Y-1532140I-15000J0D01*
G01*
X2292700Y-1532140D02*
G75*
G02*
X2322700Y-1532140I15000J0D01*
G01*
X2324310Y-14086910D02*
G75*
G02*
X2294310Y-14086910I-15000J0D01*
G01*
X2294310Y-14086910D02*
G75*
G02*
X2324310Y-14086910I15000J0D01*
G01*
X2333100Y-13777030D02*
G75*
G02*
X2303100Y-13777030I-15000J0D01*
G01*
X2303100Y-13777030D02*
G75*
G02*
X2333100Y-13777030I15000J0D01*
G01*
X2368830Y-13186430D02*
G75*
G02*
X2338830Y-13186430I-15000J0D01*
G01*
X2338830Y-13186430D02*
G75*
G02*
X2368830Y-13186430I15000J0D01*
G01*
X2371840Y-13927500D02*
G75*
G02*
X2341840Y-13927500I-15000J0D01*
G01*
X2341840Y-13927500D02*
G75*
G02*
X2371840Y-13927500I15000J0D01*
G01*
X2485590Y-12159900D02*
G75*
G02*
X2455590Y-12159900I-15000J0D01*
G01*
X2455590Y-12159900D02*
G75*
G02*
X2485590Y-12159900I15000J0D01*
G01*
X2491250Y-13601820D02*
G75*
G02*
X2461250Y-13601820I-15000J0D01*
G01*
X2461250Y-13601820D02*
G75*
G02*
X2491250Y-13601820I15000J0D01*
G01*
X2491250Y-14317840D02*
G75*
G02*
X2461250Y-14317840I-15000J0D01*
G01*
X2461250Y-14317840D02*
G75*
G02*
X2491250Y-14317840I15000J0D01*
G01*
X2541880Y-1530450D02*
G75*
G02*
X2511880Y-1530450I-15000J0D01*
G01*
X2511880Y-1530450D02*
G75*
G02*
X2541880Y-1530450I15000J0D01*
G01*
X2554190Y-4692020D02*
G75*
G02*
X2524190Y-4692020I-15000J0D01*
G01*
X2524190Y-4692020D02*
G75*
G02*
X2554190Y-4692020I15000J0D01*
G01*
X2575600Y-5156260D02*
G75*
G02*
X2545600Y-5156260I-15000J0D01*
G01*
X2545600Y-5156260D02*
G75*
G02*
X2575600Y-5156260I15000J0D01*
G01*
X2576170Y-12435000D02*
G75*
G02*
X2546170Y-12435000I-15000J0D01*
G01*
X2546170Y-12435000D02*
G75*
G02*
X2576170Y-12435000I15000J0D01*
G01*
X2610000Y-4003210D02*
G75*
G02*
X2580000Y-4003210I-15000J0D01*
G01*
X2580000Y-4003210D02*
G75*
G02*
X2610000Y-4003210I15000J0D01*
G01*
X2610430Y-13732500D02*
G75*
G02*
X2580430Y-13732500I-15000J0D01*
G01*
X2580430Y-13732500D02*
G75*
G02*
X2610430Y-13732500I15000J0D01*
G01*
X2613880Y-4526130D02*
G75*
G02*
X2583880Y-4526130I-15000J0D01*
G01*
X2583880Y-4526130D02*
G75*
G02*
X2613880Y-4526130I15000J0D01*
G01*
X2665160Y-10553040D02*
G75*
G02*
X2635160Y-10553040I-15000J0D01*
G01*
X2635160Y-10553040D02*
G75*
G02*
X2665160Y-10553040I15000J0D01*
G01*
X2669840Y-13788330D02*
G75*
G02*
X2639840Y-13788330I-15000J0D01*
G01*
X2639840Y-13788330D02*
G75*
G02*
X2669840Y-13788330I15000J0D01*
G01*
X2670060Y-12706910D02*
G75*
G02*
X2640060Y-12706910I-15000J0D01*
G01*
X2640060Y-12706910D02*
G75*
G02*
X2670060Y-12706910I15000J0D01*
G01*
X2671630Y-11682300D02*
G75*
G02*
X2641630Y-11682300I-15000J0D01*
G01*
X2641630Y-11682300D02*
G75*
G02*
X2671630Y-11682300I15000J0D01*
G01*
X2777660Y-13464950D02*
G75*
G02*
X2747660Y-13464950I-15000J0D01*
G01*
X2747660Y-13464950D02*
G75*
G02*
X2777660Y-13464950I15000J0D01*
G01*
X2792600Y-12546810D02*
G75*
G02*
X2762600Y-12546810I-15000J0D01*
G01*
X2762600Y-12546810D02*
G75*
G02*
X2792600Y-12546810I15000J0D01*
G01*
X2796350Y-13963970D02*
G75*
G02*
X2766350Y-13963970I-15000J0D01*
G01*
X2766350Y-13963970D02*
G75*
G02*
X2796350Y-13963970I15000J0D01*
G01*
X2800000Y-1520020D02*
G75*
G02*
X2770000Y-1520020I-15000J0D01*
G01*
X2770000Y-1520020D02*
G75*
G02*
X2800000Y-1520020I15000J0D01*
G01*
X2834690Y-124250D02*
G75*
G02*
X2804690Y-124250I-15000J0D01*
G01*
X2804690Y-124250D02*
G75*
G02*
X2834690Y-124250I15000J0D01*
G01*
X2834810Y-1217760D02*
G75*
G02*
X2804810Y-1217760I-15000J0D01*
G01*
X2804810Y-1217760D02*
G75*
G02*
X2834810Y-1217760I15000J0D01*
G01*
X2879660Y-13462740D02*
G75*
G02*
X2849660Y-13462740I-15000J0D01*
G01*
X2849660Y-13462740D02*
G75*
G02*
X2879660Y-13462740I15000J0D01*
G01*
X2921660Y-10399120D02*
G75*
G02*
X2891660Y-10399120I-15000J0D01*
G01*
X2891660Y-10399120D02*
G75*
G02*
X2921660Y-10399120I15000J0D01*
G01*
X2943210Y-1664460D02*
G75*
G02*
X2913210Y-1664460I-15000J0D01*
G01*
X2913210Y-1664460D02*
G75*
G02*
X2943210Y-1664460I15000J0D01*
G01*
X2945100Y-6054620D02*
G75*
G02*
X2915100Y-6054620I-15000J0D01*
G01*
X2915100Y-6054620D02*
G75*
G02*
X2945100Y-6054620I15000J0D01*
G01*
X3012330Y-11862230D02*
G75*
G02*
X2982330Y-11862230I-15000J0D01*
G01*
X2982330Y-11862230D02*
G75*
G02*
X3012330Y-11862230I15000J0D01*
G01*
X3017660Y-10399510D02*
G75*
G02*
X2987660Y-10399510I-15000J0D01*
G01*
X2987660Y-10399510D02*
G75*
G02*
X3017660Y-10399510I15000J0D01*
G01*
X3104550Y-726260D02*
G75*
G02*
X3074550Y-726260I-15000J0D01*
G01*
X3074550Y-726260D02*
G75*
G02*
X3104550Y-726260I15000J0D01*
G01*
X3179190Y-10117210D02*
G75*
G02*
X3149190Y-10117210I-15000J0D01*
G01*
X3149190Y-10117210D02*
G75*
G02*
X3179190Y-10117210I15000J0D01*
G01*
X3327960Y-10386380D02*
G75*
G02*
X3297960Y-10386380I-15000J0D01*
G01*
X3297960Y-10386380D02*
G75*
G02*
X3327960Y-10386380I15000J0D01*
G01*
X3332950Y-12182230D02*
G75*
G02*
X3302950Y-12182230I-15000J0D01*
G01*
X3302950Y-12182230D02*
G75*
G02*
X3332950Y-12182230I15000J0D01*
G01*
X3386000Y-478560D02*
G75*
G02*
X3356000Y-478560I-15000J0D01*
G01*
X3356000Y-478560D02*
G75*
G02*
X3386000Y-478560I15000J0D01*
G01*
X3407170Y-726260D02*
G75*
G02*
X3377170Y-726260I-15000J0D01*
G01*
X3377170Y-726260D02*
G75*
G02*
X3407170Y-726260I15000J0D01*
G01*
X3423960Y-10231480D02*
G75*
G02*
X3393960Y-10231480I-15000J0D01*
G01*
X3393960Y-10231480D02*
G75*
G02*
X3423960Y-10231480I15000J0D01*
G01*
X3448020Y-12508430D02*
G75*
G02*
X3418020Y-12508430I-15000J0D01*
G01*
X3418020Y-12508430D02*
G75*
G02*
X3448020Y-12508430I15000J0D01*
G01*
X3455000Y-11034110D02*
G75*
G02*
X3425000Y-11034110I-15000J0D01*
G01*
X3425000Y-11034110D02*
G75*
G02*
X3455000Y-11034110I15000J0D01*
G01*
X3459840Y-11738110D02*
G75*
G02*
X3429840Y-11738110I-15000J0D01*
G01*
X3429840Y-11738110D02*
G75*
G02*
X3459840Y-11738110I15000J0D01*
G01*
X3484970Y-13463380D02*
G75*
G02*
X3454970Y-13463380I-15000J0D01*
G01*
X3454970Y-13463380D02*
G75*
G02*
X3484970Y-13463380I15000J0D01*
G01*
X3521790Y-13102010D02*
G75*
G02*
X3491790Y-13102010I-15000J0D01*
G01*
X3491790Y-13102010D02*
G75*
G02*
X3521790Y-13102010I15000J0D01*
G01*
X3561110Y-10739600D02*
G75*
G02*
X3531110Y-10739600I-15000J0D01*
G01*
X3531110Y-10739600D02*
G75*
G02*
X3561110Y-10739600I15000J0D01*
G01*
X3579910Y-10955480D02*
G75*
G02*
X3549910Y-10955480I-15000J0D01*
G01*
X3549910Y-10955480D02*
G75*
G02*
X3579910Y-10955480I15000J0D01*
G01*
X3620590Y-7499830D02*
G75*
G02*
X3590590Y-7499830I-15000J0D01*
G01*
X3590590Y-7499830D02*
G75*
G02*
X3620590Y-7499830I15000J0D01*
G01*
X3679170Y-12709200D02*
G75*
G02*
X3649170Y-12709200I-15000J0D01*
G01*
X3649170Y-12709200D02*
G75*
G02*
X3679170Y-12709200I15000J0D01*
G01*
X3688010Y-4064460D02*
G75*
G02*
X3658010Y-4064460I-15000J0D01*
G01*
X3658010Y-4064460D02*
G75*
G02*
X3688010Y-4064460I15000J0D01*
G01*
X3696920Y-10445090D02*
G75*
G02*
X3666920Y-10445090I-15000J0D01*
G01*
X3666920Y-10445090D02*
G75*
G02*
X3696920Y-10445090I15000J0D01*
G01*
X3710540Y-13320080D02*
G75*
G02*
X3680540Y-13320080I-15000J0D01*
G01*
X3680540Y-13320080D02*
G75*
G02*
X3710540Y-13320080I15000J0D01*
G01*
X3777580Y-9295950D02*
G75*
G02*
X3747580Y-9295950I-15000J0D01*
G01*
X3747580Y-9295950D02*
G75*
G02*
X3777580Y-9295950I15000J0D01*
G01*
X3846720Y-13614440D02*
G75*
G02*
X3816720Y-13614440I-15000J0D01*
G01*
X3816720Y-13614440D02*
G75*
G02*
X3846720Y-13614440I15000J0D01*
G01*
X3939090Y-11320230D02*
G75*
G02*
X3909090Y-11320230I-15000J0D01*
G01*
X3909090Y-11320230D02*
G75*
G02*
X3939090Y-11320230I15000J0D01*
G01*
X3939500Y-6080120D02*
G75*
G02*
X3909500Y-6080120I-15000J0D01*
G01*
X3909500Y-6080120D02*
G75*
G02*
X3939500Y-6080120I15000J0D01*
G01*
X3959250Y-11413050D02*
G75*
G02*
X3929250Y-11413050I-15000J0D01*
G01*
X3929250Y-11413050D02*
G75*
G02*
X3959250Y-11413050I15000J0D01*
G01*
X3962390Y-10924720D02*
G75*
G02*
X3932390Y-10924720I-15000J0D01*
G01*
X3932390Y-10924720D02*
G75*
G02*
X3962390Y-10924720I15000J0D01*
G01*
X3985080Y-11696060D02*
G75*
G02*
X3955080Y-11696060I-15000J0D01*
G01*
X3955080Y-11696060D02*
G75*
G02*
X3985080Y-11696060I15000J0D01*
G01*
X3990050Y-7538850D02*
G75*
G02*
X3960050Y-7538850I-15000J0D01*
G01*
X3960050Y-7538850D02*
G75*
G02*
X3990050Y-7538850I15000J0D01*
G01*
X4080830Y-10496430D02*
G75*
G02*
X4050830Y-10496430I-15000J0D01*
G01*
X4050830Y-10496430D02*
G75*
G02*
X4080830Y-10496430I15000J0D01*
G01*
X4091770Y-12232820D02*
G75*
G02*
X4061770Y-12232820I-15000J0D01*
G01*
X4061770Y-12232820D02*
G75*
G02*
X4091770Y-12232820I15000J0D01*
G01*
X4185270Y-11157150D02*
G75*
G02*
X4155270Y-11157150I-15000J0D01*
G01*
X4155270Y-11157150D02*
G75*
G02*
X4185270Y-11157150I15000J0D01*
G01*
X4228590Y-4018750D02*
G75*
G02*
X4198590Y-4018750I-15000J0D01*
G01*
X4198590Y-4018750D02*
G75*
G02*
X4228590Y-4018750I15000J0D01*
G01*
X4246350Y-5410960D02*
G75*
G02*
X4216350Y-5410960I-15000J0D01*
G01*
X4216350Y-5410960D02*
G75*
G02*
X4246350Y-5410960I15000J0D01*
G01*
X4251850Y-13588100D02*
G75*
G02*
X4221850Y-13588100I-15000J0D01*
G01*
X4221850Y-13588100D02*
G75*
G02*
X4251850Y-13588100I15000J0D01*
G01*
X4273500Y-13668750D02*
G75*
G02*
X4243500Y-13668750I-15000J0D01*
G01*
X4243500Y-13668750D02*
G75*
G02*
X4273500Y-13668750I15000J0D01*
G01*
X4288630Y-11863090D02*
G75*
G02*
X4258630Y-11863090I-15000J0D01*
G01*
X4258630Y-11863090D02*
G75*
G02*
X4288630Y-11863090I15000J0D01*
G01*
X4301470Y-5229470D02*
G75*
G02*
X4271470Y-5229470I-15000J0D01*
G01*
X4271470Y-5229470D02*
G75*
G02*
X4301470Y-5229470I15000J0D01*
G01*
X4308100Y-10760120D02*
G75*
G02*
X4278100Y-10760120I-15000J0D01*
G01*
X4278100Y-10760120D02*
G75*
G02*
X4308100Y-10760120I15000J0D01*
G01*
X4346120Y-6251470D02*
G75*
G02*
X4316120Y-6251470I-15000J0D01*
G01*
X4316120Y-6251470D02*
G75*
G02*
X4346120Y-6251470I15000J0D01*
G01*
X4355000Y-6445740D02*
G75*
G02*
X4325000Y-6445740I-15000J0D01*
G01*
X4325000Y-6445740D02*
G75*
G02*
X4355000Y-6445740I15000J0D01*
G01*
X4355000Y-8383520D02*
G75*
G02*
X4325000Y-8383520I-15000J0D01*
G01*
X4325000Y-8383520D02*
G75*
G02*
X4355000Y-8383520I15000J0D01*
G01*
X4363460Y-11588610D02*
G75*
G02*
X4333460Y-11588610I-15000J0D01*
G01*
X4333460Y-11588610D02*
G75*
G02*
X4363460Y-11588610I15000J0D01*
G01*
X4369120Y-14217030D02*
G75*
G02*
X4339120Y-14217030I-15000J0D01*
G01*
X4339120Y-14217030D02*
G75*
G02*
X4369120Y-14217030I15000J0D01*
G01*
X4375270Y-11156760D02*
G75*
G02*
X4345270Y-11156760I-15000J0D01*
G01*
X4345270Y-11156760D02*
G75*
G02*
X4375270Y-11156760I15000J0D01*
G01*
X4415320Y-13944920D02*
G75*
G02*
X4385320Y-13944920I-15000J0D01*
G01*
X4385320Y-13944920D02*
G75*
G02*
X4415320Y-13944920I15000J0D01*
G01*
X4434840Y-6753730D02*
G75*
G02*
X4404840Y-6753730I-15000J0D01*
G01*
X4404840Y-6753730D02*
G75*
G02*
X4434840Y-6753730I15000J0D01*
G01*
X4459130Y-14238080D02*
G75*
G02*
X4429130Y-14238080I-15000J0D01*
G01*
X4429130Y-14238080D02*
G75*
G02*
X4459130Y-14238080I15000J0D01*
G01*
X4513790Y-7595360D02*
G75*
G02*
X4483790Y-7595360I-15000J0D01*
G01*
X4483790Y-7595360D02*
G75*
G02*
X4513790Y-7595360I15000J0D01*
G01*
X4540940Y-13456910D02*
G75*
G02*
X4510940Y-13456910I-15000J0D01*
G01*
X4510940Y-13456910D02*
G75*
G02*
X4540940Y-13456910I15000J0D01*
G01*
X4585180Y-6224160D02*
G75*
G02*
X4555180Y-6224160I-15000J0D01*
G01*
X4555180Y-6224160D02*
G75*
G02*
X4585180Y-6224160I15000J0D01*
G01*
X4593850Y-10649030D02*
G75*
G02*
X4563850Y-10649030I-15000J0D01*
G01*
X4563850Y-10649030D02*
G75*
G02*
X4593850Y-10649030I15000J0D01*
G01*
X4623750Y-13917140D02*
G75*
G02*
X4593750Y-13917140I-15000J0D01*
G01*
X4593750Y-13917140D02*
G75*
G02*
X4623750Y-13917140I15000J0D01*
G01*
X4655000Y-2787830D02*
G75*
G02*
X4625000Y-2787830I-15000J0D01*
G01*
X4625000Y-2787830D02*
G75*
G02*
X4655000Y-2787830I15000J0D01*
G01*
X4655000Y-12212150D02*
G75*
G02*
X4625000Y-12212150I-15000J0D01*
G01*
X4625000Y-12212150D02*
G75*
G02*
X4655000Y-12212150I15000J0D01*
G01*
X4711560Y-5051720D02*
G75*
G02*
X4681560Y-5051720I-15000J0D01*
G01*
X4681560Y-5051720D02*
G75*
G02*
X4711560Y-5051720I15000J0D01*
G01*
X4724720Y-6412280D02*
G75*
G02*
X4694720Y-6412280I-15000J0D01*
G01*
X4694720Y-6412280D02*
G75*
G02*
X4724720Y-6412280I15000J0D01*
G01*
X4769660Y-11328150D02*
G75*
G02*
X4739660Y-11328150I-15000J0D01*
G01*
X4739660Y-11328150D02*
G75*
G02*
X4769660Y-11328150I15000J0D01*
G01*
X4772500Y-14010530D02*
G75*
G02*
X4742500Y-14010530I-15000J0D01*
G01*
X4742500Y-14010530D02*
G75*
G02*
X4772500Y-14010530I15000J0D01*
G01*
X4846670Y-5974300D02*
G75*
G02*
X4816670Y-5974300I-15000J0D01*
G01*
X4816670Y-5974300D02*
G75*
G02*
X4846670Y-5974300I15000J0D01*
G01*
X4856490Y-9294650D02*
G75*
G02*
X4826490Y-9294650I-15000J0D01*
G01*
X4826490Y-9294650D02*
G75*
G02*
X4856490Y-9294650I15000J0D01*
G01*
X4875000Y-14258410D02*
G75*
G02*
X4845000Y-14258410I-15000J0D01*
G01*
X4845000Y-14258410D02*
G75*
G02*
X4875000Y-14258410I15000J0D01*
G01*
X4901330Y-6974230D02*
G75*
G02*
X4871330Y-6974230I-15000J0D01*
G01*
X4871330Y-6974230D02*
G75*
G02*
X4901330Y-6974230I15000J0D01*
G01*
X4943590Y-6100470D02*
G75*
G02*
X4913590Y-6100470I-15000J0D01*
G01*
X4913590Y-6100470D02*
G75*
G02*
X4943590Y-6100470I15000J0D01*
G01*
X4955000Y-3671360D02*
G75*
G02*
X4925000Y-3671360I-15000J0D01*
G01*
X4925000Y-3671360D02*
G75*
G02*
X4955000Y-3671360I15000J0D01*
G01*
X4985750Y-11598160D02*
G75*
G02*
X4955750Y-11598160I-15000J0D01*
G01*
X4955750Y-11598160D02*
G75*
G02*
X4985750Y-11598160I15000J0D01*
G01*
X5036600Y-6357840D02*
G75*
G02*
X5006600Y-6357840I-15000J0D01*
G01*
X5006600Y-6357840D02*
G75*
G02*
X5036600Y-6357840I15000J0D01*
G01*
X5050450Y-7558950D02*
G75*
G02*
X5020450Y-7558950I-15000J0D01*
G01*
X5020450Y-7558950D02*
G75*
G02*
X5050450Y-7558950I15000J0D01*
G01*
X5091370Y-6857480D02*
G75*
G02*
X5061370Y-6857480I-15000J0D01*
G01*
X5061370Y-6857480D02*
G75*
G02*
X5091370Y-6857480I15000J0D01*
G01*
X5226340Y-11281770D02*
G75*
G02*
X5196340Y-11281770I-15000J0D01*
G01*
X5196340Y-11281770D02*
G75*
G02*
X5226340Y-11281770I15000J0D01*
G01*
X5237660Y-13950590D02*
G75*
G02*
X5207660Y-13950590I-15000J0D01*
G01*
X5207660Y-13950590D02*
G75*
G02*
X5237660Y-13950590I15000J0D01*
G01*
X5264340Y-12170700D02*
G75*
G02*
X5234340Y-12170700I-15000J0D01*
G01*
X5234340Y-12170700D02*
G75*
G02*
X5264340Y-12170700I15000J0D01*
G01*
X5856340Y-11281770D02*
G75*
G02*
X5826340Y-11281770I-15000J0D01*
G01*
X5826340Y-11281770D02*
G75*
G02*
X5856340Y-11281770I15000J0D01*
G01*
X5896260Y-12132670D02*
G75*
G02*
X5866260Y-12132670I-15000J0D01*
G01*
X5866260Y-12132670D02*
G75*
G02*
X5896260Y-12132670I15000J0D01*
G01*
X579690Y-11386610D02*
X579690Y-11416610D01*
X564690Y-11401610D02*
X594690Y-11401610D01*
X579690Y-11471610D02*
X579690Y-11501610D01*
X564690Y-11486610D02*
X594690Y-11486610D01*
X579690Y-11556610D02*
X579690Y-11586610D01*
X564690Y-11571610D02*
X594690Y-11571610D01*
X669690Y-11386610D02*
X669690Y-11416610D01*
X654690Y-11401610D02*
X684690Y-11401610D01*
X669690Y-11471610D02*
X669690Y-11501610D01*
X654690Y-11486610D02*
X684690Y-11486610D01*
X669690Y-11556610D02*
X669690Y-11586610D01*
X654690Y-11571610D02*
X684690Y-11571610D01*
X4129213Y-14440463D02*
X4129213Y-14398037D01*
X4086787Y-14398037D01*
X4086787Y-14440463D01*
X4129213Y-14440463D01*
X4078000Y-14364250D02*
X4078000Y-14474250D01*
X4138000Y-14474250D02*
G75*
G02*
X4078000Y-14474250I-30000J0D01*
G01*
X4138000Y-14474250D02*
X4138000Y-14364250D01*
X4138000Y-14364250D02*
G75*
G03*
X4078000Y-14364250I-30000J0D01*
G01*
X4129213Y-14858463D02*
X4129213Y-14816037D01*
X4086787Y-14816037D01*
X4086787Y-14858463D01*
X4129213Y-14858463D01*
X4078000Y-14807250D02*
X4078000Y-14867250D01*
X4138000Y-14867250D02*
G75*
G02*
X4078000Y-14867250I-30000J0D01*
G01*
X4138000Y-14867250D02*
X4138000Y-14807250D01*
X4138000Y-14807250D02*
G75*
G03*
X4078000Y-14807250I-30000J0D01*
G01*
X4993213Y-14440463D02*
X4993213Y-14398037D01*
X4950787Y-14398037D01*
X4950787Y-14440463D01*
X4993213Y-14440463D01*
X4942000Y-14364250D02*
X4942000Y-14474250D01*
X5002000Y-14474250D02*
G75*
G02*
X4942000Y-14474250I-30000J0D01*
G01*
X5002000Y-14474250D02*
X5002000Y-14364250D01*
X5002000Y-14364250D02*
G75*
G03*
X4942000Y-14364250I-30000J0D01*
G01*
X4993213Y-14858463D02*
X4993213Y-14816037D01*
X4950787Y-14816037D01*
X4950787Y-14858463D01*
X4993213Y-14858463D01*
X4942000Y-14807250D02*
X4942000Y-14867250D01*
X5002000Y-14867250D02*
G75*
G02*
X4942000Y-14867250I-30000J0D01*
G01*
X5002000Y-14867250D02*
X5002000Y-14807250D01*
X5002000Y-14807250D02*
G75*
G03*
X4942000Y-14807250I-30000J0D01*
G01*
X2840000Y-11197500D02*
X2877500Y-11160000D01*
X2840000Y-11122500D01*
X2802500Y-11160000D01*
X2840000Y-11197500D01*
X3040000Y-11197500D02*
X3077500Y-11160000D01*
X3040000Y-11122500D01*
X3002500Y-11160000D01*
X3040000Y-11197500D01*
X4640000Y-1597500D02*
X4677500Y-1560000D01*
X4640000Y-1522500D01*
X4602500Y-1560000D01*
X4640000Y-1597500D01*
X4840000Y-1597500D02*
X4877500Y-1560000D01*
X4840000Y-1522500D01*
X4802500Y-1560000D01*
X4840000Y-1597500D01*
X1439000Y-9040000D02*
X1539000Y-9140000D01*
X1539000Y-9040000D02*
X1439000Y-9140000D01*
X1539000Y-9090000D02*
G75*
G02*
X1439000Y-9090000I-50000J0D01*
G01*
X1439000Y-9090000D02*
G75*
G02*
X1539000Y-9090000I50000J0D01*
G01*
X1693000Y-9040000D02*
X1793000Y-9140000D01*
X1793000Y-9040000D02*
X1693000Y-9140000D01*
X1793000Y-9090000D02*
G75*
G02*
X1693000Y-9090000I-50000J0D01*
G01*
X1693000Y-9090000D02*
G75*
G02*
X1793000Y-9090000I50000J0D01*
G01*
X1947000Y-9040000D02*
X2047000Y-9140000D01*
X2047000Y-9040000D02*
X1947000Y-9140000D01*
X2047000Y-9090000D02*
G75*
G02*
X1947000Y-9090000I-50000J0D01*
G01*
X1947000Y-9090000D02*
G75*
G02*
X2047000Y-9090000I50000J0D01*
G01*
X2201000Y-9040000D02*
X2301000Y-9140000D01*
X2301000Y-9040000D02*
X2201000Y-9140000D01*
X2301000Y-9090000D02*
G75*
G02*
X2201000Y-9090000I-50000J0D01*
G01*
X2201000Y-9090000D02*
G75*
G02*
X2301000Y-9090000I50000J0D01*
G01*
X2455000Y-9040000D02*
X2555000Y-9140000D01*
X2555000Y-9040000D02*
X2455000Y-9140000D01*
X2555000Y-9090000D02*
G75*
G02*
X2455000Y-9090000I-50000J0D01*
G01*
X2455000Y-9090000D02*
G75*
G02*
X2555000Y-9090000I50000J0D01*
G01*
X2709000Y-9040000D02*
X2809000Y-9140000D01*
X2809000Y-9040000D02*
X2709000Y-9140000D01*
X2809000Y-9090000D02*
G75*
G02*
X2709000Y-9090000I-50000J0D01*
G01*
X2709000Y-9090000D02*
G75*
G02*
X2809000Y-9090000I50000J0D01*
G01*
X2963000Y-9040000D02*
X3063000Y-9140000D01*
X3063000Y-9040000D02*
X2963000Y-9140000D01*
X3063000Y-9090000D02*
G75*
G02*
X2963000Y-9090000I-50000J0D01*
G01*
X2963000Y-9090000D02*
G75*
G02*
X3063000Y-9090000I50000J0D01*
G01*
X3217000Y-9040000D02*
X3317000Y-9140000D01*
X3317000Y-9040000D02*
X3217000Y-9140000D01*
X3317000Y-9090000D02*
G75*
G02*
X3217000Y-9090000I-50000J0D01*
G01*
X3217000Y-9090000D02*
G75*
G02*
X3317000Y-9090000I50000J0D01*
G01*
X3471000Y-9040000D02*
X3571000Y-9140000D01*
X3571000Y-9040000D02*
X3471000Y-9140000D01*
X3571000Y-9090000D02*
G75*
G02*
X3471000Y-9090000I-50000J0D01*
G01*
X3471000Y-9090000D02*
G75*
G02*
X3571000Y-9090000I50000J0D01*
G01*
X3725000Y-9040000D02*
X3825000Y-9140000D01*
X3825000Y-9040000D02*
X3725000Y-9140000D01*
X3825000Y-9090000D02*
G75*
G02*
X3725000Y-9090000I-50000J0D01*
G01*
X3725000Y-9090000D02*
G75*
G02*
X3825000Y-9090000I50000J0D01*
G01*
X3979000Y-9040000D02*
X4079000Y-9140000D01*
X4079000Y-9040000D02*
X3979000Y-9140000D01*
X4079000Y-9090000D02*
G75*
G02*
X3979000Y-9090000I-50000J0D01*
G01*
X3979000Y-9090000D02*
G75*
G02*
X4079000Y-9090000I50000J0D01*
G01*
X4233000Y-9040000D02*
X4333000Y-9140000D01*
X4333000Y-9040000D02*
X4233000Y-9140000D01*
X4333000Y-9090000D02*
G75*
G02*
X4233000Y-9090000I-50000J0D01*
G01*
X4233000Y-9090000D02*
G75*
G02*
X4333000Y-9090000I50000J0D01*
G01*
X4487000Y-9040000D02*
X4587000Y-9140000D01*
X4587000Y-9040000D02*
X4487000Y-9140000D01*
X4587000Y-9090000D02*
G75*
G02*
X4487000Y-9090000I-50000J0D01*
G01*
X4487000Y-9090000D02*
G75*
G02*
X4587000Y-9090000I50000J0D01*
G01*
X4741000Y-9040000D02*
X4841000Y-9140000D01*
X4841000Y-9040000D02*
X4741000Y-9140000D01*
X4841000Y-9090000D02*
G75*
G02*
X4741000Y-9090000I-50000J0D01*
G01*
X4741000Y-9090000D02*
G75*
G02*
X4841000Y-9090000I50000J0D01*
G01*
X915000Y-10538700D02*
X965000Y-10588700D01*
X965000Y-10538700D02*
X915000Y-10588700D01*
X940000Y-10538700D02*
X940000Y-10588700D01*
X915000Y-10563700D02*
X965000Y-10563700D01*
X4218500Y-14436750D02*
X4283500Y-14501750D01*
X4283500Y-14436750D02*
X4218500Y-14501750D01*
X4273981Y-14492231D02*
X4273981Y-14446269D01*
X4228019Y-14446269D01*
X4228019Y-14492231D01*
X4273981Y-14492231D01*
X4796500Y-14436750D02*
X4861500Y-14501750D01*
X4861500Y-14436750D02*
X4796500Y-14501750D01*
X4851981Y-14492231D02*
X4851981Y-14446269D01*
X4806019Y-14446269D01*
X4806019Y-14492231D01*
X4851981Y-14492231D01*
D12*
X965000Y-14030000D02*
X1115000Y-14180000D01*
X1115000Y-14030000D02*
X965000Y-14180000D01*
X1040000Y-14180000D02*
X1115000Y-14105000D01*
X1040000Y-14030000D01*
X965000Y-14105000D01*
X1040000Y-14180000D01*
D11*
X255777Y-15316484D02*
X255777Y-15116484D01*
X255777Y-15116484D02*
X303396Y-15116484D01*
X303396Y-15116484D02*
X331967Y-15126008D01*
X331967Y-15126008D02*
X351015Y-15145055D01*
X351015Y-15145055D02*
X360539Y-15164103D01*
X360539Y-15164103D02*
X370062Y-15202198D01*
X370062Y-15202198D02*
X370062Y-15230769D01*
X370062Y-15230769D02*
X360539Y-15268865D01*
X360539Y-15268865D02*
X351015Y-15287912D01*
X351015Y-15287912D02*
X331967Y-15306960D01*
X331967Y-15306960D02*
X303396Y-15316484D01*
X303396Y-15316484D02*
X255777Y-15316484D01*
X455777Y-15316484D02*
X455777Y-15183150D01*
X455777Y-15221246D02*
X465301Y-15202198D01*
X465301Y-15202198D02*
X474824Y-15192674D01*
X474824Y-15192674D02*
X493872Y-15183150D01*
X493872Y-15183150D02*
X512920Y-15183150D01*
X579586Y-15316484D02*
X579586Y-15183150D01*
X579586Y-15116484D02*
X570063Y-15126008D01*
X570063Y-15126008D02*
X579586Y-15135531D01*
X579586Y-15135531D02*
X589110Y-15126008D01*
X589110Y-15126008D02*
X579586Y-15116484D01*
X579586Y-15116484D02*
X579586Y-15135531D01*
X703396Y-15316484D02*
X684348Y-15306960D01*
X684348Y-15306960D02*
X674824Y-15287912D01*
X674824Y-15287912D02*
X674824Y-15116484D01*
X808158Y-15316484D02*
X789110Y-15306960D01*
X789110Y-15306960D02*
X779586Y-15287912D01*
X779586Y-15287912D02*
X779586Y-15116484D01*
X1036729Y-15316484D02*
X1036729Y-15116484D01*
X1036729Y-15116484D02*
X1103396Y-15259341D01*
X1103396Y-15259341D02*
X1170063Y-15116484D01*
X1170063Y-15116484D02*
X1170063Y-15316484D01*
X1351015Y-15316484D02*
X1351015Y-15211722D01*
X1351015Y-15211722D02*
X1341491Y-15192674D01*
X1341491Y-15192674D02*
X1322444Y-15183150D01*
X1322444Y-15183150D02*
X1284348Y-15183150D01*
X1284348Y-15183150D02*
X1265301Y-15192674D01*
X1351015Y-15306960D02*
X1331967Y-15316484D01*
X1331967Y-15316484D02*
X1284348Y-15316484D01*
X1284348Y-15316484D02*
X1265301Y-15306960D01*
X1265301Y-15306960D02*
X1255777Y-15287912D01*
X1255777Y-15287912D02*
X1255777Y-15268865D01*
X1255777Y-15268865D02*
X1265301Y-15249817D01*
X1265301Y-15249817D02*
X1284348Y-15240293D01*
X1284348Y-15240293D02*
X1331967Y-15240293D01*
X1331967Y-15240293D02*
X1351015Y-15230769D01*
X1446253Y-15183150D02*
X1446253Y-15383150D01*
X1446253Y-15192674D02*
X1465301Y-15183150D01*
X1465301Y-15183150D02*
X1503396Y-15183150D01*
X1503396Y-15183150D02*
X1522443Y-15192674D01*
X1522443Y-15192674D02*
X1531967Y-15202198D01*
X1531967Y-15202198D02*
X1541491Y-15221246D01*
X1541491Y-15221246D02*
X1541491Y-15278388D01*
X1541491Y-15278388D02*
X1531967Y-15297436D01*
X1531967Y-15297436D02*
X1522443Y-15306960D01*
X1522443Y-15306960D02*
X1503396Y-15316484D01*
X1503396Y-15316484D02*
X1465301Y-15316484D01*
X1465301Y-15316484D02*
X1446253Y-15306960D01*
X1627205Y-15297436D02*
X1636729Y-15306960D01*
X1636729Y-15306960D02*
X1627205Y-15316484D01*
X1627205Y-15316484D02*
X1617682Y-15306960D01*
X1617682Y-15306960D02*
X1627205Y-15297436D01*
X1627205Y-15297436D02*
X1627205Y-15316484D01*
X1627205Y-15192674D02*
X1636729Y-15202198D01*
X1636729Y-15202198D02*
X1627205Y-15211722D01*
X1627205Y-15211722D02*
X1617682Y-15202198D01*
X1617682Y-15202198D02*
X1627205Y-15192674D01*
X1627205Y-15192674D02*
X1627205Y-15211722D01*
D10*
X-25000Y-15635000D02*
X-5000Y-15655000D01*
X-5000Y-15635000D02*
X-25000Y-15655000D01*
D11*
X293872Y-15536484D02*
X312920Y-15536484D01*
X312920Y-15536484D02*
X331967Y-15546008D01*
X331967Y-15546008D02*
X341491Y-15555531D01*
X341491Y-15555531D02*
X351015Y-15574579D01*
X351015Y-15574579D02*
X360539Y-15612674D01*
X360539Y-15612674D02*
X360539Y-15660293D01*
X360539Y-15660293D02*
X351015Y-15698388D01*
X351015Y-15698388D02*
X341491Y-15717436D01*
X341491Y-15717436D02*
X331967Y-15726960D01*
X331967Y-15726960D02*
X312920Y-15736484D01*
X312920Y-15736484D02*
X293872Y-15736484D01*
X293872Y-15736484D02*
X274824Y-15726960D01*
X274824Y-15726960D02*
X265301Y-15717436D01*
X265301Y-15717436D02*
X255777Y-15698388D01*
X255777Y-15698388D02*
X246253Y-15660293D01*
X246253Y-15660293D02*
X246253Y-15612674D01*
X246253Y-15612674D02*
X255777Y-15574579D01*
X255777Y-15574579D02*
X265301Y-15555531D01*
X265301Y-15555531D02*
X274824Y-15546008D01*
X274824Y-15546008D02*
X293872Y-15536484D01*
X446253Y-15717436D02*
X455777Y-15726960D01*
X455777Y-15726960D02*
X446253Y-15736484D01*
X446253Y-15736484D02*
X436729Y-15726960D01*
X436729Y-15726960D02*
X446253Y-15717436D01*
X446253Y-15717436D02*
X446253Y-15736484D01*
X531967Y-15555531D02*
X541491Y-15546008D01*
X541491Y-15546008D02*
X560539Y-15536484D01*
X560539Y-15536484D02*
X608158Y-15536484D01*
X608158Y-15536484D02*
X627205Y-15546008D01*
X627205Y-15546008D02*
X636729Y-15555531D01*
X636729Y-15555531D02*
X646253Y-15574579D01*
X646253Y-15574579D02*
X646253Y-15593627D01*
X646253Y-15593627D02*
X636729Y-15622198D01*
X636729Y-15622198D02*
X522443Y-15736484D01*
X522443Y-15736484D02*
X646253Y-15736484D01*
X770062Y-15536484D02*
X789110Y-15536484D01*
X789110Y-15536484D02*
X808158Y-15546008D01*
X808158Y-15546008D02*
X817682Y-15555531D01*
X817682Y-15555531D02*
X827205Y-15574579D01*
X827205Y-15574579D02*
X836729Y-15612674D01*
X836729Y-15612674D02*
X836729Y-15660293D01*
X836729Y-15660293D02*
X827205Y-15698388D01*
X827205Y-15698388D02*
X817682Y-15717436D01*
X817682Y-15717436D02*
X808158Y-15726960D01*
X808158Y-15726960D02*
X789110Y-15736484D01*
X789110Y-15736484D02*
X770062Y-15736484D01*
X770062Y-15736484D02*
X751015Y-15726960D01*
X751015Y-15726960D02*
X741491Y-15717436D01*
X741491Y-15717436D02*
X731967Y-15698388D01*
X731967Y-15698388D02*
X722443Y-15660293D01*
X722443Y-15660293D02*
X722443Y-15612674D01*
X722443Y-15612674D02*
X731967Y-15574579D01*
X731967Y-15574579D02*
X741491Y-15555531D01*
X741491Y-15555531D02*
X751015Y-15546008D01*
X751015Y-15546008D02*
X770062Y-15536484D01*
X960539Y-15536484D02*
X979586Y-15536484D01*
X979586Y-15536484D02*
X998634Y-15546008D01*
X998634Y-15546008D02*
X1008158Y-15555531D01*
X1008158Y-15555531D02*
X1017682Y-15574579D01*
X1017682Y-15574579D02*
X1027205Y-15612674D01*
X1027205Y-15612674D02*
X1027205Y-15660293D01*
X1027205Y-15660293D02*
X1017682Y-15698388D01*
X1017682Y-15698388D02*
X1008158Y-15717436D01*
X1008158Y-15717436D02*
X998634Y-15726960D01*
X998634Y-15726960D02*
X979586Y-15736484D01*
X979586Y-15736484D02*
X960539Y-15736484D01*
X960539Y-15736484D02*
X941491Y-15726960D01*
X941491Y-15726960D02*
X931967Y-15717436D01*
X931967Y-15717436D02*
X922443Y-15698388D01*
X922443Y-15698388D02*
X912920Y-15660293D01*
X912920Y-15660293D02*
X912920Y-15612674D01*
X912920Y-15612674D02*
X922443Y-15574579D01*
X922443Y-15574579D02*
X931967Y-15555531D01*
X931967Y-15555531D02*
X941491Y-15546008D01*
X941491Y-15546008D02*
X960539Y-15536484D01*
X1112920Y-15736484D02*
X1112920Y-15603150D01*
X1112920Y-15622198D02*
X1122444Y-15612674D01*
X1122444Y-15612674D02*
X1141491Y-15603150D01*
X1141491Y-15603150D02*
X1170063Y-15603150D01*
X1170063Y-15603150D02*
X1189110Y-15612674D01*
X1189110Y-15612674D02*
X1198634Y-15631722D01*
X1198634Y-15631722D02*
X1198634Y-15736484D01*
X1198634Y-15631722D02*
X1208158Y-15612674D01*
X1208158Y-15612674D02*
X1227205Y-15603150D01*
X1227205Y-15603150D02*
X1255777Y-15603150D01*
X1255777Y-15603150D02*
X1274825Y-15612674D01*
X1274825Y-15612674D02*
X1284348Y-15631722D01*
X1284348Y-15631722D02*
X1284348Y-15736484D01*
X1379586Y-15736484D02*
X1379586Y-15603150D01*
X1379586Y-15622198D02*
X1389110Y-15612674D01*
X1389110Y-15612674D02*
X1408158Y-15603150D01*
X1408158Y-15603150D02*
X1436729Y-15603150D01*
X1436729Y-15603150D02*
X1455777Y-15612674D01*
X1455777Y-15612674D02*
X1465301Y-15631722D01*
X1465301Y-15631722D02*
X1465301Y-15736484D01*
X1465301Y-15631722D02*
X1474824Y-15612674D01*
X1474824Y-15612674D02*
X1493872Y-15603150D01*
X1493872Y-15603150D02*
X1522443Y-15603150D01*
X1522443Y-15603150D02*
X1541491Y-15612674D01*
X1541491Y-15612674D02*
X1551015Y-15631722D01*
X1551015Y-15631722D02*
X1551015Y-15736484D01*
X1941491Y-15526960D02*
X1770063Y-15784103D01*
X2198634Y-15536484D02*
X2217682Y-15536484D01*
X2217682Y-15536484D02*
X2236729Y-15546008D01*
X2236729Y-15546008D02*
X2246253Y-15555531D01*
X2246253Y-15555531D02*
X2255777Y-15574579D01*
X2255777Y-15574579D02*
X2265301Y-15612674D01*
X2265301Y-15612674D02*
X2265301Y-15660293D01*
X2265301Y-15660293D02*
X2255777Y-15698388D01*
X2255777Y-15698388D02*
X2246253Y-15717436D01*
X2246253Y-15717436D02*
X2236729Y-15726960D01*
X2236729Y-15726960D02*
X2217682Y-15736484D01*
X2217682Y-15736484D02*
X2198634Y-15736484D01*
X2198634Y-15736484D02*
X2179587Y-15726960D01*
X2179587Y-15726960D02*
X2170063Y-15717436D01*
X2170063Y-15717436D02*
X2160539Y-15698388D01*
X2160539Y-15698388D02*
X2151015Y-15660293D01*
X2151015Y-15660293D02*
X2151015Y-15612674D01*
X2151015Y-15612674D02*
X2160539Y-15574579D01*
X2160539Y-15574579D02*
X2170063Y-15555531D01*
X2170063Y-15555531D02*
X2179587Y-15546008D01*
X2179587Y-15546008D02*
X2198634Y-15536484D01*
X2351015Y-15717436D02*
X2360539Y-15726960D01*
X2360539Y-15726960D02*
X2351015Y-15736484D01*
X2351015Y-15736484D02*
X2341491Y-15726960D01*
X2341491Y-15726960D02*
X2351015Y-15717436D01*
X2351015Y-15717436D02*
X2351015Y-15736484D01*
X2484348Y-15536484D02*
X2503396Y-15536484D01*
X2503396Y-15536484D02*
X2522444Y-15546008D01*
X2522444Y-15546008D02*
X2531968Y-15555531D01*
X2531968Y-15555531D02*
X2541491Y-15574579D01*
X2541491Y-15574579D02*
X2551015Y-15612674D01*
X2551015Y-15612674D02*
X2551015Y-15660293D01*
X2551015Y-15660293D02*
X2541491Y-15698388D01*
X2541491Y-15698388D02*
X2531968Y-15717436D01*
X2531968Y-15717436D02*
X2522444Y-15726960D01*
X2522444Y-15726960D02*
X2503396Y-15736484D01*
X2503396Y-15736484D02*
X2484348Y-15736484D01*
X2484348Y-15736484D02*
X2465301Y-15726960D01*
X2465301Y-15726960D02*
X2455777Y-15717436D01*
X2455777Y-15717436D02*
X2446253Y-15698388D01*
X2446253Y-15698388D02*
X2436729Y-15660293D01*
X2436729Y-15660293D02*
X2436729Y-15612674D01*
X2436729Y-15612674D02*
X2446253Y-15574579D01*
X2446253Y-15574579D02*
X2455777Y-15555531D01*
X2455777Y-15555531D02*
X2465301Y-15546008D01*
X2465301Y-15546008D02*
X2484348Y-15536484D01*
X2674825Y-15536484D02*
X2693872Y-15536484D01*
X2693872Y-15536484D02*
X2712920Y-15546008D01*
X2712920Y-15546008D02*
X2722444Y-15555531D01*
X2722444Y-15555531D02*
X2731968Y-15574579D01*
X2731968Y-15574579D02*
X2741491Y-15612674D01*
X2741491Y-15612674D02*
X2741491Y-15660293D01*
X2741491Y-15660293D02*
X2731968Y-15698388D01*
X2731968Y-15698388D02*
X2722444Y-15717436D01*
X2722444Y-15717436D02*
X2712920Y-15726960D01*
X2712920Y-15726960D02*
X2693872Y-15736484D01*
X2693872Y-15736484D02*
X2674825Y-15736484D01*
X2674825Y-15736484D02*
X2655777Y-15726960D01*
X2655777Y-15726960D02*
X2646253Y-15717436D01*
X2646253Y-15717436D02*
X2636729Y-15698388D01*
X2636729Y-15698388D02*
X2627206Y-15660293D01*
X2627206Y-15660293D02*
X2627206Y-15612674D01*
X2627206Y-15612674D02*
X2636729Y-15574579D01*
X2636729Y-15574579D02*
X2646253Y-15555531D01*
X2646253Y-15555531D02*
X2655777Y-15546008D01*
X2655777Y-15546008D02*
X2674825Y-15536484D01*
X2808158Y-15536484D02*
X2941491Y-15536484D01*
X2941491Y-15536484D02*
X2855777Y-15736484D01*
X3027206Y-15736484D02*
X3065301Y-15736484D01*
X3065301Y-15736484D02*
X3084348Y-15726960D01*
X3084348Y-15726960D02*
X3093872Y-15717436D01*
X3093872Y-15717436D02*
X3112920Y-15688865D01*
X3112920Y-15688865D02*
X3122444Y-15650769D01*
X3122444Y-15650769D02*
X3122444Y-15574579D01*
X3122444Y-15574579D02*
X3112920Y-15555531D01*
X3112920Y-15555531D02*
X3103396Y-15546008D01*
X3103396Y-15546008D02*
X3084348Y-15536484D01*
X3084348Y-15536484D02*
X3046253Y-15536484D01*
X3046253Y-15536484D02*
X3027206Y-15546008D01*
X3027206Y-15546008D02*
X3017682Y-15555531D01*
X3017682Y-15555531D02*
X3008158Y-15574579D01*
X3008158Y-15574579D02*
X3008158Y-15622198D01*
X3008158Y-15622198D02*
X3017682Y-15641246D01*
X3017682Y-15641246D02*
X3027206Y-15650769D01*
X3027206Y-15650769D02*
X3046253Y-15660293D01*
X3046253Y-15660293D02*
X3084348Y-15660293D01*
X3084348Y-15660293D02*
X3103396Y-15650769D01*
X3103396Y-15650769D02*
X3112920Y-15641246D01*
X3112920Y-15641246D02*
X3122444Y-15622198D01*
X3198634Y-15536484D02*
X3198634Y-15574579D01*
X3274825Y-15536484D02*
X3274825Y-15574579D01*
X3570063Y-15812674D02*
X3560539Y-15803150D01*
X3560539Y-15803150D02*
X3541491Y-15774579D01*
X3541491Y-15774579D02*
X3531968Y-15755531D01*
X3531968Y-15755531D02*
X3522444Y-15726960D01*
X3522444Y-15726960D02*
X3512920Y-15679341D01*
X3512920Y-15679341D02*
X3512920Y-15641246D01*
X3512920Y-15641246D02*
X3522444Y-15593627D01*
X3522444Y-15593627D02*
X3531968Y-15565055D01*
X3531968Y-15565055D02*
X3541491Y-15546008D01*
X3541491Y-15546008D02*
X3560539Y-15517436D01*
X3560539Y-15517436D02*
X3570063Y-15507912D01*
X3751015Y-15736484D02*
X3636729Y-15736484D01*
X3693872Y-15736484D02*
X3693872Y-15536484D01*
X3693872Y-15536484D02*
X3674825Y-15565055D01*
X3674825Y-15565055D02*
X3655777Y-15584103D01*
X3655777Y-15584103D02*
X3636729Y-15593627D01*
X3827206Y-15555531D02*
X3836729Y-15546008D01*
X3836729Y-15546008D02*
X3855777Y-15536484D01*
X3855777Y-15536484D02*
X3903396Y-15536484D01*
X3903396Y-15536484D02*
X3922444Y-15546008D01*
X3922444Y-15546008D02*
X3931968Y-15555531D01*
X3931968Y-15555531D02*
X3941491Y-15574579D01*
X3941491Y-15574579D02*
X3941491Y-15593627D01*
X3941491Y-15593627D02*
X3931968Y-15622198D01*
X3931968Y-15622198D02*
X3817682Y-15736484D01*
X3817682Y-15736484D02*
X3941491Y-15736484D01*
X4179587Y-15736484D02*
X4179587Y-15536484D01*
X4265301Y-15736484D02*
X4265301Y-15631722D01*
X4265301Y-15631722D02*
X4255777Y-15612674D01*
X4255777Y-15612674D02*
X4236730Y-15603150D01*
X4236730Y-15603150D02*
X4208158Y-15603150D01*
X4208158Y-15603150D02*
X4189110Y-15612674D01*
X4189110Y-15612674D02*
X4179587Y-15622198D01*
X4389111Y-15736484D02*
X4370063Y-15726960D01*
X4370063Y-15726960D02*
X4360539Y-15717436D01*
X4360539Y-15717436D02*
X4351015Y-15698388D01*
X4351015Y-15698388D02*
X4351015Y-15641246D01*
X4351015Y-15641246D02*
X4360539Y-15622198D01*
X4360539Y-15622198D02*
X4370063Y-15612674D01*
X4370063Y-15612674D02*
X4389111Y-15603150D01*
X4389111Y-15603150D02*
X4417682Y-15603150D01*
X4417682Y-15603150D02*
X4436730Y-15612674D01*
X4436730Y-15612674D02*
X4446253Y-15622198D01*
X4446253Y-15622198D02*
X4455777Y-15641246D01*
X4455777Y-15641246D02*
X4455777Y-15698388D01*
X4455777Y-15698388D02*
X4446253Y-15717436D01*
X4446253Y-15717436D02*
X4436730Y-15726960D01*
X4436730Y-15726960D02*
X4417682Y-15736484D01*
X4417682Y-15736484D02*
X4389111Y-15736484D01*
X4570063Y-15736484D02*
X4551015Y-15726960D01*
X4551015Y-15726960D02*
X4541492Y-15707912D01*
X4541492Y-15707912D02*
X4541492Y-15536484D01*
X4722444Y-15726960D02*
X4703396Y-15736484D01*
X4703396Y-15736484D02*
X4665301Y-15736484D01*
X4665301Y-15736484D02*
X4646253Y-15726960D01*
X4646253Y-15726960D02*
X4636730Y-15707912D01*
X4636730Y-15707912D02*
X4636730Y-15631722D01*
X4636730Y-15631722D02*
X4646253Y-15612674D01*
X4646253Y-15612674D02*
X4665301Y-15603150D01*
X4665301Y-15603150D02*
X4703396Y-15603150D01*
X4703396Y-15603150D02*
X4722444Y-15612674D01*
X4722444Y-15612674D02*
X4731968Y-15631722D01*
X4731968Y-15631722D02*
X4731968Y-15650769D01*
X4731968Y-15650769D02*
X4636730Y-15669817D01*
X4808158Y-15726960D02*
X4827206Y-15736484D01*
X4827206Y-15736484D02*
X4865301Y-15736484D01*
X4865301Y-15736484D02*
X4884349Y-15726960D01*
X4884349Y-15726960D02*
X4893873Y-15707912D01*
X4893873Y-15707912D02*
X4893873Y-15698388D01*
X4893873Y-15698388D02*
X4884349Y-15679341D01*
X4884349Y-15679341D02*
X4865301Y-15669817D01*
X4865301Y-15669817D02*
X4836730Y-15669817D01*
X4836730Y-15669817D02*
X4817682Y-15660293D01*
X4817682Y-15660293D02*
X4808158Y-15641246D01*
X4808158Y-15641246D02*
X4808158Y-15631722D01*
X4808158Y-15631722D02*
X4817682Y-15612674D01*
X4817682Y-15612674D02*
X4836730Y-15603150D01*
X4836730Y-15603150D02*
X4865301Y-15603150D01*
X4865301Y-15603150D02*
X4884349Y-15612674D01*
X4960539Y-15812674D02*
X4970063Y-15803150D01*
X4970063Y-15803150D02*
X4989111Y-15774579D01*
X4989111Y-15774579D02*
X4998634Y-15755531D01*
X4998634Y-15755531D02*
X5008158Y-15726960D01*
X5008158Y-15726960D02*
X5017682Y-15679341D01*
X5017682Y-15679341D02*
X5017682Y-15641246D01*
X5017682Y-15641246D02*
X5008158Y-15593627D01*
X5008158Y-15593627D02*
X4998634Y-15565055D01*
X4998634Y-15565055D02*
X4989111Y-15546008D01*
X4989111Y-15546008D02*
X4970063Y-15517436D01*
X4970063Y-15517436D02*
X4960539Y-15507912D01*
D10*
X-5000Y-15909000D02*
G75*
G02*
X-35000Y-15909000I-15000J0D01*
G01*
X-35000Y-15909000D02*
G75*
G02*
X-5000Y-15909000I15000J0D01*
G01*
D11*
X293872Y-15800484D02*
X312920Y-15800484D01*
X312920Y-15800484D02*
X331967Y-15810008D01*
X331967Y-15810008D02*
X341491Y-15819531D01*
X341491Y-15819531D02*
X351015Y-15838579D01*
X351015Y-15838579D02*
X360539Y-15876674D01*
X360539Y-15876674D02*
X360539Y-15924293D01*
X360539Y-15924293D02*
X351015Y-15962388D01*
X351015Y-15962388D02*
X341491Y-15981436D01*
X341491Y-15981436D02*
X331967Y-15990960D01*
X331967Y-15990960D02*
X312920Y-16000484D01*
X312920Y-16000484D02*
X293872Y-16000484D01*
X293872Y-16000484D02*
X274824Y-15990960D01*
X274824Y-15990960D02*
X265301Y-15981436D01*
X265301Y-15981436D02*
X255777Y-15962388D01*
X255777Y-15962388D02*
X246253Y-15924293D01*
X246253Y-15924293D02*
X246253Y-15876674D01*
X246253Y-15876674D02*
X255777Y-15838579D01*
X255777Y-15838579D02*
X265301Y-15819531D01*
X265301Y-15819531D02*
X274824Y-15810008D01*
X274824Y-15810008D02*
X293872Y-15800484D01*
X446253Y-15981436D02*
X455777Y-15990960D01*
X455777Y-15990960D02*
X446253Y-16000484D01*
X446253Y-16000484D02*
X436729Y-15990960D01*
X436729Y-15990960D02*
X446253Y-15981436D01*
X446253Y-15981436D02*
X446253Y-16000484D01*
X522443Y-15800484D02*
X646253Y-15800484D01*
X646253Y-15800484D02*
X579586Y-15876674D01*
X579586Y-15876674D02*
X608158Y-15876674D01*
X608158Y-15876674D02*
X627205Y-15886198D01*
X627205Y-15886198D02*
X636729Y-15895722D01*
X636729Y-15895722D02*
X646253Y-15914769D01*
X646253Y-15914769D02*
X646253Y-15962388D01*
X646253Y-15962388D02*
X636729Y-15981436D01*
X636729Y-15981436D02*
X627205Y-15990960D01*
X627205Y-15990960D02*
X608158Y-16000484D01*
X608158Y-16000484D02*
X551015Y-16000484D01*
X551015Y-16000484D02*
X531967Y-15990960D01*
X531967Y-15990960D02*
X522443Y-15981436D01*
X770062Y-15800484D02*
X789110Y-15800484D01*
X789110Y-15800484D02*
X808158Y-15810008D01*
X808158Y-15810008D02*
X817682Y-15819531D01*
X817682Y-15819531D02*
X827205Y-15838579D01*
X827205Y-15838579D02*
X836729Y-15876674D01*
X836729Y-15876674D02*
X836729Y-15924293D01*
X836729Y-15924293D02*
X827205Y-15962388D01*
X827205Y-15962388D02*
X817682Y-15981436D01*
X817682Y-15981436D02*
X808158Y-15990960D01*
X808158Y-15990960D02*
X789110Y-16000484D01*
X789110Y-16000484D02*
X770062Y-16000484D01*
X770062Y-16000484D02*
X751015Y-15990960D01*
X751015Y-15990960D02*
X741491Y-15981436D01*
X741491Y-15981436D02*
X731967Y-15962388D01*
X731967Y-15962388D02*
X722443Y-15924293D01*
X722443Y-15924293D02*
X722443Y-15876674D01*
X722443Y-15876674D02*
X731967Y-15838579D01*
X731967Y-15838579D02*
X741491Y-15819531D01*
X741491Y-15819531D02*
X751015Y-15810008D01*
X751015Y-15810008D02*
X770062Y-15800484D01*
X960539Y-15800484D02*
X979586Y-15800484D01*
X979586Y-15800484D02*
X998634Y-15810008D01*
X998634Y-15810008D02*
X1008158Y-15819531D01*
X1008158Y-15819531D02*
X1017682Y-15838579D01*
X1017682Y-15838579D02*
X1027205Y-15876674D01*
X1027205Y-15876674D02*
X1027205Y-15924293D01*
X1027205Y-15924293D02*
X1017682Y-15962388D01*
X1017682Y-15962388D02*
X1008158Y-15981436D01*
X1008158Y-15981436D02*
X998634Y-15990960D01*
X998634Y-15990960D02*
X979586Y-16000484D01*
X979586Y-16000484D02*
X960539Y-16000484D01*
X960539Y-16000484D02*
X941491Y-15990960D01*
X941491Y-15990960D02*
X931967Y-15981436D01*
X931967Y-15981436D02*
X922443Y-15962388D01*
X922443Y-15962388D02*
X912920Y-15924293D01*
X912920Y-15924293D02*
X912920Y-15876674D01*
X912920Y-15876674D02*
X922443Y-15838579D01*
X922443Y-15838579D02*
X931967Y-15819531D01*
X931967Y-15819531D02*
X941491Y-15810008D01*
X941491Y-15810008D02*
X960539Y-15800484D01*
X1112920Y-16000484D02*
X1112920Y-15867150D01*
X1112920Y-15886198D02*
X1122444Y-15876674D01*
X1122444Y-15876674D02*
X1141491Y-15867150D01*
X1141491Y-15867150D02*
X1170063Y-15867150D01*
X1170063Y-15867150D02*
X1189110Y-15876674D01*
X1189110Y-15876674D02*
X1198634Y-15895722D01*
X1198634Y-15895722D02*
X1198634Y-16000484D01*
X1198634Y-15895722D02*
X1208158Y-15876674D01*
X1208158Y-15876674D02*
X1227205Y-15867150D01*
X1227205Y-15867150D02*
X1255777Y-15867150D01*
X1255777Y-15867150D02*
X1274825Y-15876674D01*
X1274825Y-15876674D02*
X1284348Y-15895722D01*
X1284348Y-15895722D02*
X1284348Y-16000484D01*
X1379586Y-16000484D02*
X1379586Y-15867150D01*
X1379586Y-15886198D02*
X1389110Y-15876674D01*
X1389110Y-15876674D02*
X1408158Y-15867150D01*
X1408158Y-15867150D02*
X1436729Y-15867150D01*
X1436729Y-15867150D02*
X1455777Y-15876674D01*
X1455777Y-15876674D02*
X1465301Y-15895722D01*
X1465301Y-15895722D02*
X1465301Y-16000484D01*
X1465301Y-15895722D02*
X1474824Y-15876674D01*
X1474824Y-15876674D02*
X1493872Y-15867150D01*
X1493872Y-15867150D02*
X1522443Y-15867150D01*
X1522443Y-15867150D02*
X1541491Y-15876674D01*
X1541491Y-15876674D02*
X1551015Y-15895722D01*
X1551015Y-15895722D02*
X1551015Y-16000484D01*
X1941491Y-15790960D02*
X1770063Y-16048103D01*
X2198634Y-15800484D02*
X2217682Y-15800484D01*
X2217682Y-15800484D02*
X2236729Y-15810008D01*
X2236729Y-15810008D02*
X2246253Y-15819531D01*
X2246253Y-15819531D02*
X2255777Y-15838579D01*
X2255777Y-15838579D02*
X2265301Y-15876674D01*
X2265301Y-15876674D02*
X2265301Y-15924293D01*
X2265301Y-15924293D02*
X2255777Y-15962388D01*
X2255777Y-15962388D02*
X2246253Y-15981436D01*
X2246253Y-15981436D02*
X2236729Y-15990960D01*
X2236729Y-15990960D02*
X2217682Y-16000484D01*
X2217682Y-16000484D02*
X2198634Y-16000484D01*
X2198634Y-16000484D02*
X2179587Y-15990960D01*
X2179587Y-15990960D02*
X2170063Y-15981436D01*
X2170063Y-15981436D02*
X2160539Y-15962388D01*
X2160539Y-15962388D02*
X2151015Y-15924293D01*
X2151015Y-15924293D02*
X2151015Y-15876674D01*
X2151015Y-15876674D02*
X2160539Y-15838579D01*
X2160539Y-15838579D02*
X2170063Y-15819531D01*
X2170063Y-15819531D02*
X2179587Y-15810008D01*
X2179587Y-15810008D02*
X2198634Y-15800484D01*
X2351015Y-15981436D02*
X2360539Y-15990960D01*
X2360539Y-15990960D02*
X2351015Y-16000484D01*
X2351015Y-16000484D02*
X2341491Y-15990960D01*
X2341491Y-15990960D02*
X2351015Y-15981436D01*
X2351015Y-15981436D02*
X2351015Y-16000484D01*
X2484348Y-15800484D02*
X2503396Y-15800484D01*
X2503396Y-15800484D02*
X2522444Y-15810008D01*
X2522444Y-15810008D02*
X2531968Y-15819531D01*
X2531968Y-15819531D02*
X2541491Y-15838579D01*
X2541491Y-15838579D02*
X2551015Y-15876674D01*
X2551015Y-15876674D02*
X2551015Y-15924293D01*
X2551015Y-15924293D02*
X2541491Y-15962388D01*
X2541491Y-15962388D02*
X2531968Y-15981436D01*
X2531968Y-15981436D02*
X2522444Y-15990960D01*
X2522444Y-15990960D02*
X2503396Y-16000484D01*
X2503396Y-16000484D02*
X2484348Y-16000484D01*
X2484348Y-16000484D02*
X2465301Y-15990960D01*
X2465301Y-15990960D02*
X2455777Y-15981436D01*
X2455777Y-15981436D02*
X2446253Y-15962388D01*
X2446253Y-15962388D02*
X2436729Y-15924293D01*
X2436729Y-15924293D02*
X2436729Y-15876674D01*
X2436729Y-15876674D02*
X2446253Y-15838579D01*
X2446253Y-15838579D02*
X2455777Y-15819531D01*
X2455777Y-15819531D02*
X2465301Y-15810008D01*
X2465301Y-15810008D02*
X2484348Y-15800484D01*
X2741491Y-16000484D02*
X2627206Y-16000484D01*
X2684348Y-16000484D02*
X2684348Y-15800484D01*
X2684348Y-15800484D02*
X2665301Y-15829055D01*
X2665301Y-15829055D02*
X2646253Y-15848103D01*
X2646253Y-15848103D02*
X2627206Y-15857627D01*
X2931967Y-16000484D02*
X2817682Y-16000484D01*
X2874825Y-16000484D02*
X2874825Y-15800484D01*
X2874825Y-15800484D02*
X2855777Y-15829055D01*
X2855777Y-15829055D02*
X2836729Y-15848103D01*
X2836729Y-15848103D02*
X2817682Y-15857627D01*
X3046253Y-15886198D02*
X3027206Y-15876674D01*
X3027206Y-15876674D02*
X3017682Y-15867150D01*
X3017682Y-15867150D02*
X3008158Y-15848103D01*
X3008158Y-15848103D02*
X3008158Y-15838579D01*
X3008158Y-15838579D02*
X3017682Y-15819531D01*
X3017682Y-15819531D02*
X3027206Y-15810008D01*
X3027206Y-15810008D02*
X3046253Y-15800484D01*
X3046253Y-15800484D02*
X3084348Y-15800484D01*
X3084348Y-15800484D02*
X3103396Y-15810008D01*
X3103396Y-15810008D02*
X3112920Y-15819531D01*
X3112920Y-15819531D02*
X3122444Y-15838579D01*
X3122444Y-15838579D02*
X3122444Y-15848103D01*
X3122444Y-15848103D02*
X3112920Y-15867150D01*
X3112920Y-15867150D02*
X3103396Y-15876674D01*
X3103396Y-15876674D02*
X3084348Y-15886198D01*
X3084348Y-15886198D02*
X3046253Y-15886198D01*
X3046253Y-15886198D02*
X3027206Y-15895722D01*
X3027206Y-15895722D02*
X3017682Y-15905246D01*
X3017682Y-15905246D02*
X3008158Y-15924293D01*
X3008158Y-15924293D02*
X3008158Y-15962388D01*
X3008158Y-15962388D02*
X3017682Y-15981436D01*
X3017682Y-15981436D02*
X3027206Y-15990960D01*
X3027206Y-15990960D02*
X3046253Y-16000484D01*
X3046253Y-16000484D02*
X3084348Y-16000484D01*
X3084348Y-16000484D02*
X3103396Y-15990960D01*
X3103396Y-15990960D02*
X3112920Y-15981436D01*
X3112920Y-15981436D02*
X3122444Y-15962388D01*
X3122444Y-15962388D02*
X3122444Y-15924293D01*
X3122444Y-15924293D02*
X3112920Y-15905246D01*
X3112920Y-15905246D02*
X3103396Y-15895722D01*
X3103396Y-15895722D02*
X3084348Y-15886198D01*
X3198634Y-15800484D02*
X3198634Y-15838579D01*
X3274825Y-15800484D02*
X3274825Y-15838579D01*
X3570063Y-16076674D02*
X3560539Y-16067150D01*
X3560539Y-16067150D02*
X3541491Y-16038579D01*
X3541491Y-16038579D02*
X3531968Y-16019531D01*
X3531968Y-16019531D02*
X3522444Y-15990960D01*
X3522444Y-15990960D02*
X3512920Y-15943341D01*
X3512920Y-15943341D02*
X3512920Y-15905246D01*
X3512920Y-15905246D02*
X3522444Y-15857627D01*
X3522444Y-15857627D02*
X3531968Y-15829055D01*
X3531968Y-15829055D02*
X3541491Y-15810008D01*
X3541491Y-15810008D02*
X3560539Y-15781436D01*
X3560539Y-15781436D02*
X3570063Y-15771912D01*
X3751015Y-16000484D02*
X3636729Y-16000484D01*
X3693872Y-16000484D02*
X3693872Y-15800484D01*
X3693872Y-15800484D02*
X3674825Y-15829055D01*
X3674825Y-15829055D02*
X3655777Y-15848103D01*
X3655777Y-15848103D02*
X3636729Y-15857627D01*
X3865301Y-15886198D02*
X3846253Y-15876674D01*
X3846253Y-15876674D02*
X3836729Y-15867150D01*
X3836729Y-15867150D02*
X3827206Y-15848103D01*
X3827206Y-15848103D02*
X3827206Y-15838579D01*
X3827206Y-15838579D02*
X3836729Y-15819531D01*
X3836729Y-15819531D02*
X3846253Y-15810008D01*
X3846253Y-15810008D02*
X3865301Y-15800484D01*
X3865301Y-15800484D02*
X3903396Y-15800484D01*
X3903396Y-15800484D02*
X3922444Y-15810008D01*
X3922444Y-15810008D02*
X3931968Y-15819531D01*
X3931968Y-15819531D02*
X3941491Y-15838579D01*
X3941491Y-15838579D02*
X3941491Y-15848103D01*
X3941491Y-15848103D02*
X3931968Y-15867150D01*
X3931968Y-15867150D02*
X3922444Y-15876674D01*
X3922444Y-15876674D02*
X3903396Y-15886198D01*
X3903396Y-15886198D02*
X3865301Y-15886198D01*
X3865301Y-15886198D02*
X3846253Y-15895722D01*
X3846253Y-15895722D02*
X3836729Y-15905246D01*
X3836729Y-15905246D02*
X3827206Y-15924293D01*
X3827206Y-15924293D02*
X3827206Y-15962388D01*
X3827206Y-15962388D02*
X3836729Y-15981436D01*
X3836729Y-15981436D02*
X3846253Y-15990960D01*
X3846253Y-15990960D02*
X3865301Y-16000484D01*
X3865301Y-16000484D02*
X3903396Y-16000484D01*
X3903396Y-16000484D02*
X3922444Y-15990960D01*
X3922444Y-15990960D02*
X3931968Y-15981436D01*
X3931968Y-15981436D02*
X3941491Y-15962388D01*
X3941491Y-15962388D02*
X3941491Y-15924293D01*
X3941491Y-15924293D02*
X3931968Y-15905246D01*
X3931968Y-15905246D02*
X3922444Y-15895722D01*
X3922444Y-15895722D02*
X3903396Y-15886198D01*
X4036729Y-16000484D02*
X4074825Y-16000484D01*
X4074825Y-16000484D02*
X4093872Y-15990960D01*
X4093872Y-15990960D02*
X4103396Y-15981436D01*
X4103396Y-15981436D02*
X4122444Y-15952865D01*
X4122444Y-15952865D02*
X4131968Y-15914769D01*
X4131968Y-15914769D02*
X4131968Y-15838579D01*
X4131968Y-15838579D02*
X4122444Y-15819531D01*
X4122444Y-15819531D02*
X4112920Y-15810008D01*
X4112920Y-15810008D02*
X4093872Y-15800484D01*
X4093872Y-15800484D02*
X4055777Y-15800484D01*
X4055777Y-15800484D02*
X4036729Y-15810008D01*
X4036729Y-15810008D02*
X4027206Y-15819531D01*
X4027206Y-15819531D02*
X4017682Y-15838579D01*
X4017682Y-15838579D02*
X4017682Y-15886198D01*
X4017682Y-15886198D02*
X4027206Y-15905246D01*
X4027206Y-15905246D02*
X4036729Y-15914769D01*
X4036729Y-15914769D02*
X4055777Y-15924293D01*
X4055777Y-15924293D02*
X4093872Y-15924293D01*
X4093872Y-15924293D02*
X4112920Y-15914769D01*
X4112920Y-15914769D02*
X4122444Y-15905246D01*
X4122444Y-15905246D02*
X4131968Y-15886198D01*
X4370063Y-16000484D02*
X4370063Y-15800484D01*
X4455777Y-16000484D02*
X4455777Y-15895722D01*
X4455777Y-15895722D02*
X4446253Y-15876674D01*
X4446253Y-15876674D02*
X4427206Y-15867150D01*
X4427206Y-15867150D02*
X4398634Y-15867150D01*
X4398634Y-15867150D02*
X4379587Y-15876674D01*
X4379587Y-15876674D02*
X4370063Y-15886198D01*
X4579587Y-16000484D02*
X4560539Y-15990960D01*
X4560539Y-15990960D02*
X4551015Y-15981436D01*
X4551015Y-15981436D02*
X4541492Y-15962388D01*
X4541492Y-15962388D02*
X4541492Y-15905246D01*
X4541492Y-15905246D02*
X4551015Y-15886198D01*
X4551015Y-15886198D02*
X4560539Y-15876674D01*
X4560539Y-15876674D02*
X4579587Y-15867150D01*
X4579587Y-15867150D02*
X4608158Y-15867150D01*
X4608158Y-15867150D02*
X4627206Y-15876674D01*
X4627206Y-15876674D02*
X4636730Y-15886198D01*
X4636730Y-15886198D02*
X4646253Y-15905246D01*
X4646253Y-15905246D02*
X4646253Y-15962388D01*
X4646253Y-15962388D02*
X4636730Y-15981436D01*
X4636730Y-15981436D02*
X4627206Y-15990960D01*
X4627206Y-15990960D02*
X4608158Y-16000484D01*
X4608158Y-16000484D02*
X4579587Y-16000484D01*
X4760539Y-16000484D02*
X4741492Y-15990960D01*
X4741492Y-15990960D02*
X4731968Y-15971912D01*
X4731968Y-15971912D02*
X4731968Y-15800484D01*
X4912920Y-15990960D02*
X4893873Y-16000484D01*
X4893873Y-16000484D02*
X4855777Y-16000484D01*
X4855777Y-16000484D02*
X4836730Y-15990960D01*
X4836730Y-15990960D02*
X4827206Y-15971912D01*
X4827206Y-15971912D02*
X4827206Y-15895722D01*
X4827206Y-15895722D02*
X4836730Y-15876674D01*
X4836730Y-15876674D02*
X4855777Y-15867150D01*
X4855777Y-15867150D02*
X4893873Y-15867150D01*
X4893873Y-15867150D02*
X4912920Y-15876674D01*
X4912920Y-15876674D02*
X4922444Y-15895722D01*
X4922444Y-15895722D02*
X4922444Y-15914769D01*
X4922444Y-15914769D02*
X4827206Y-15933817D01*
X4998634Y-15990960D02*
X5017682Y-16000484D01*
X5017682Y-16000484D02*
X5055777Y-16000484D01*
X5055777Y-16000484D02*
X5074825Y-15990960D01*
X5074825Y-15990960D02*
X5084349Y-15971912D01*
X5084349Y-15971912D02*
X5084349Y-15962388D01*
X5084349Y-15962388D02*
X5074825Y-15943341D01*
X5074825Y-15943341D02*
X5055777Y-15933817D01*
X5055777Y-15933817D02*
X5027206Y-15933817D01*
X5027206Y-15933817D02*
X5008158Y-15924293D01*
X5008158Y-15924293D02*
X4998634Y-15905246D01*
X4998634Y-15905246D02*
X4998634Y-15895722D01*
X4998634Y-15895722D02*
X5008158Y-15876674D01*
X5008158Y-15876674D02*
X5027206Y-15867150D01*
X5027206Y-15867150D02*
X5055777Y-15867150D01*
X5055777Y-15867150D02*
X5074825Y-15876674D01*
X5151015Y-16076674D02*
X5160539Y-16067150D01*
X5160539Y-16067150D02*
X5179587Y-16038579D01*
X5179587Y-16038579D02*
X5189111Y-16019531D01*
X5189111Y-16019531D02*
X5198634Y-15990960D01*
X5198634Y-15990960D02*
X5208158Y-15943341D01*
X5208158Y-15943341D02*
X5208158Y-15905246D01*
X5208158Y-15905246D02*
X5198634Y-15857627D01*
X5198634Y-15857627D02*
X5189111Y-15829055D01*
X5189111Y-15829055D02*
X5179587Y-15810008D01*
X5179587Y-15810008D02*
X5160539Y-15781436D01*
X5160539Y-15781436D02*
X5151015Y-15771912D01*
D10*
X-20000Y-16158000D02*
X-20000Y-16188000D01*
X-35000Y-16173000D02*
X-5000Y-16173000D01*
D11*
X293872Y-16064484D02*
X312920Y-16064484D01*
X312920Y-16064484D02*
X331967Y-16074008D01*
X331967Y-16074008D02*
X341491Y-16083531D01*
X341491Y-16083531D02*
X351015Y-16102579D01*
X351015Y-16102579D02*
X360539Y-16140674D01*
X360539Y-16140674D02*
X360539Y-16188293D01*
X360539Y-16188293D02*
X351015Y-16226388D01*
X351015Y-16226388D02*
X341491Y-16245436D01*
X341491Y-16245436D02*
X331967Y-16254960D01*
X331967Y-16254960D02*
X312920Y-16264484D01*
X312920Y-16264484D02*
X293872Y-16264484D01*
X293872Y-16264484D02*
X274824Y-16254960D01*
X274824Y-16254960D02*
X265301Y-16245436D01*
X265301Y-16245436D02*
X255777Y-16226388D01*
X255777Y-16226388D02*
X246253Y-16188293D01*
X246253Y-16188293D02*
X246253Y-16140674D01*
X246253Y-16140674D02*
X255777Y-16102579D01*
X255777Y-16102579D02*
X265301Y-16083531D01*
X265301Y-16083531D02*
X274824Y-16074008D01*
X274824Y-16074008D02*
X293872Y-16064484D01*
X446253Y-16245436D02*
X455777Y-16254960D01*
X455777Y-16254960D02*
X446253Y-16264484D01*
X446253Y-16264484D02*
X436729Y-16254960D01*
X436729Y-16254960D02*
X446253Y-16245436D01*
X446253Y-16245436D02*
X446253Y-16264484D01*
X522443Y-16064484D02*
X646253Y-16064484D01*
X646253Y-16064484D02*
X579586Y-16140674D01*
X579586Y-16140674D02*
X608158Y-16140674D01*
X608158Y-16140674D02*
X627205Y-16150198D01*
X627205Y-16150198D02*
X636729Y-16159722D01*
X636729Y-16159722D02*
X646253Y-16178769D01*
X646253Y-16178769D02*
X646253Y-16226388D01*
X646253Y-16226388D02*
X636729Y-16245436D01*
X636729Y-16245436D02*
X627205Y-16254960D01*
X627205Y-16254960D02*
X608158Y-16264484D01*
X608158Y-16264484D02*
X551015Y-16264484D01*
X551015Y-16264484D02*
X531967Y-16254960D01*
X531967Y-16254960D02*
X522443Y-16245436D01*
X770062Y-16064484D02*
X789110Y-16064484D01*
X789110Y-16064484D02*
X808158Y-16074008D01*
X808158Y-16074008D02*
X817682Y-16083531D01*
X817682Y-16083531D02*
X827205Y-16102579D01*
X827205Y-16102579D02*
X836729Y-16140674D01*
X836729Y-16140674D02*
X836729Y-16188293D01*
X836729Y-16188293D02*
X827205Y-16226388D01*
X827205Y-16226388D02*
X817682Y-16245436D01*
X817682Y-16245436D02*
X808158Y-16254960D01*
X808158Y-16254960D02*
X789110Y-16264484D01*
X789110Y-16264484D02*
X770062Y-16264484D01*
X770062Y-16264484D02*
X751015Y-16254960D01*
X751015Y-16254960D02*
X741491Y-16245436D01*
X741491Y-16245436D02*
X731967Y-16226388D01*
X731967Y-16226388D02*
X722443Y-16188293D01*
X722443Y-16188293D02*
X722443Y-16140674D01*
X722443Y-16140674D02*
X731967Y-16102579D01*
X731967Y-16102579D02*
X741491Y-16083531D01*
X741491Y-16083531D02*
X751015Y-16074008D01*
X751015Y-16074008D02*
X770062Y-16064484D01*
X960539Y-16064484D02*
X979586Y-16064484D01*
X979586Y-16064484D02*
X998634Y-16074008D01*
X998634Y-16074008D02*
X1008158Y-16083531D01*
X1008158Y-16083531D02*
X1017682Y-16102579D01*
X1017682Y-16102579D02*
X1027205Y-16140674D01*
X1027205Y-16140674D02*
X1027205Y-16188293D01*
X1027205Y-16188293D02*
X1017682Y-16226388D01*
X1017682Y-16226388D02*
X1008158Y-16245436D01*
X1008158Y-16245436D02*
X998634Y-16254960D01*
X998634Y-16254960D02*
X979586Y-16264484D01*
X979586Y-16264484D02*
X960539Y-16264484D01*
X960539Y-16264484D02*
X941491Y-16254960D01*
X941491Y-16254960D02*
X931967Y-16245436D01*
X931967Y-16245436D02*
X922443Y-16226388D01*
X922443Y-16226388D02*
X912920Y-16188293D01*
X912920Y-16188293D02*
X912920Y-16140674D01*
X912920Y-16140674D02*
X922443Y-16102579D01*
X922443Y-16102579D02*
X931967Y-16083531D01*
X931967Y-16083531D02*
X941491Y-16074008D01*
X941491Y-16074008D02*
X960539Y-16064484D01*
X1112920Y-16264484D02*
X1112920Y-16131150D01*
X1112920Y-16150198D02*
X1122444Y-16140674D01*
X1122444Y-16140674D02*
X1141491Y-16131150D01*
X1141491Y-16131150D02*
X1170063Y-16131150D01*
X1170063Y-16131150D02*
X1189110Y-16140674D01*
X1189110Y-16140674D02*
X1198634Y-16159722D01*
X1198634Y-16159722D02*
X1198634Y-16264484D01*
X1198634Y-16159722D02*
X1208158Y-16140674D01*
X1208158Y-16140674D02*
X1227205Y-16131150D01*
X1227205Y-16131150D02*
X1255777Y-16131150D01*
X1255777Y-16131150D02*
X1274825Y-16140674D01*
X1274825Y-16140674D02*
X1284348Y-16159722D01*
X1284348Y-16159722D02*
X1284348Y-16264484D01*
X1379586Y-16264484D02*
X1379586Y-16131150D01*
X1379586Y-16150198D02*
X1389110Y-16140674D01*
X1389110Y-16140674D02*
X1408158Y-16131150D01*
X1408158Y-16131150D02*
X1436729Y-16131150D01*
X1436729Y-16131150D02*
X1455777Y-16140674D01*
X1455777Y-16140674D02*
X1465301Y-16159722D01*
X1465301Y-16159722D02*
X1465301Y-16264484D01*
X1465301Y-16159722D02*
X1474824Y-16140674D01*
X1474824Y-16140674D02*
X1493872Y-16131150D01*
X1493872Y-16131150D02*
X1522443Y-16131150D01*
X1522443Y-16131150D02*
X1541491Y-16140674D01*
X1541491Y-16140674D02*
X1551015Y-16159722D01*
X1551015Y-16159722D02*
X1551015Y-16264484D01*
X1941491Y-16054960D02*
X1770063Y-16312103D01*
X2198634Y-16064484D02*
X2217682Y-16064484D01*
X2217682Y-16064484D02*
X2236729Y-16074008D01*
X2236729Y-16074008D02*
X2246253Y-16083531D01*
X2246253Y-16083531D02*
X2255777Y-16102579D01*
X2255777Y-16102579D02*
X2265301Y-16140674D01*
X2265301Y-16140674D02*
X2265301Y-16188293D01*
X2265301Y-16188293D02*
X2255777Y-16226388D01*
X2255777Y-16226388D02*
X2246253Y-16245436D01*
X2246253Y-16245436D02*
X2236729Y-16254960D01*
X2236729Y-16254960D02*
X2217682Y-16264484D01*
X2217682Y-16264484D02*
X2198634Y-16264484D01*
X2198634Y-16264484D02*
X2179587Y-16254960D01*
X2179587Y-16254960D02*
X2170063Y-16245436D01*
X2170063Y-16245436D02*
X2160539Y-16226388D01*
X2160539Y-16226388D02*
X2151015Y-16188293D01*
X2151015Y-16188293D02*
X2151015Y-16140674D01*
X2151015Y-16140674D02*
X2160539Y-16102579D01*
X2160539Y-16102579D02*
X2170063Y-16083531D01*
X2170063Y-16083531D02*
X2179587Y-16074008D01*
X2179587Y-16074008D02*
X2198634Y-16064484D01*
X2351015Y-16245436D02*
X2360539Y-16254960D01*
X2360539Y-16254960D02*
X2351015Y-16264484D01*
X2351015Y-16264484D02*
X2341491Y-16254960D01*
X2341491Y-16254960D02*
X2351015Y-16245436D01*
X2351015Y-16245436D02*
X2351015Y-16264484D01*
X2484348Y-16064484D02*
X2503396Y-16064484D01*
X2503396Y-16064484D02*
X2522444Y-16074008D01*
X2522444Y-16074008D02*
X2531968Y-16083531D01*
X2531968Y-16083531D02*
X2541491Y-16102579D01*
X2541491Y-16102579D02*
X2551015Y-16140674D01*
X2551015Y-16140674D02*
X2551015Y-16188293D01*
X2551015Y-16188293D02*
X2541491Y-16226388D01*
X2541491Y-16226388D02*
X2531968Y-16245436D01*
X2531968Y-16245436D02*
X2522444Y-16254960D01*
X2522444Y-16254960D02*
X2503396Y-16264484D01*
X2503396Y-16264484D02*
X2484348Y-16264484D01*
X2484348Y-16264484D02*
X2465301Y-16254960D01*
X2465301Y-16254960D02*
X2455777Y-16245436D01*
X2455777Y-16245436D02*
X2446253Y-16226388D01*
X2446253Y-16226388D02*
X2436729Y-16188293D01*
X2436729Y-16188293D02*
X2436729Y-16140674D01*
X2436729Y-16140674D02*
X2446253Y-16102579D01*
X2446253Y-16102579D02*
X2455777Y-16083531D01*
X2455777Y-16083531D02*
X2465301Y-16074008D01*
X2465301Y-16074008D02*
X2484348Y-16064484D01*
X2741491Y-16264484D02*
X2627206Y-16264484D01*
X2684348Y-16264484D02*
X2684348Y-16064484D01*
X2684348Y-16064484D02*
X2665301Y-16093055D01*
X2665301Y-16093055D02*
X2646253Y-16112103D01*
X2646253Y-16112103D02*
X2627206Y-16121627D01*
X2931967Y-16264484D02*
X2817682Y-16264484D01*
X2874825Y-16264484D02*
X2874825Y-16064484D01*
X2874825Y-16064484D02*
X2855777Y-16093055D01*
X2855777Y-16093055D02*
X2836729Y-16112103D01*
X2836729Y-16112103D02*
X2817682Y-16121627D01*
X3046253Y-16150198D02*
X3027206Y-16140674D01*
X3027206Y-16140674D02*
X3017682Y-16131150D01*
X3017682Y-16131150D02*
X3008158Y-16112103D01*
X3008158Y-16112103D02*
X3008158Y-16102579D01*
X3008158Y-16102579D02*
X3017682Y-16083531D01*
X3017682Y-16083531D02*
X3027206Y-16074008D01*
X3027206Y-16074008D02*
X3046253Y-16064484D01*
X3046253Y-16064484D02*
X3084348Y-16064484D01*
X3084348Y-16064484D02*
X3103396Y-16074008D01*
X3103396Y-16074008D02*
X3112920Y-16083531D01*
X3112920Y-16083531D02*
X3122444Y-16102579D01*
X3122444Y-16102579D02*
X3122444Y-16112103D01*
X3122444Y-16112103D02*
X3112920Y-16131150D01*
X3112920Y-16131150D02*
X3103396Y-16140674D01*
X3103396Y-16140674D02*
X3084348Y-16150198D01*
X3084348Y-16150198D02*
X3046253Y-16150198D01*
X3046253Y-16150198D02*
X3027206Y-16159722D01*
X3027206Y-16159722D02*
X3017682Y-16169246D01*
X3017682Y-16169246D02*
X3008158Y-16188293D01*
X3008158Y-16188293D02*
X3008158Y-16226388D01*
X3008158Y-16226388D02*
X3017682Y-16245436D01*
X3017682Y-16245436D02*
X3027206Y-16254960D01*
X3027206Y-16254960D02*
X3046253Y-16264484D01*
X3046253Y-16264484D02*
X3084348Y-16264484D01*
X3084348Y-16264484D02*
X3103396Y-16254960D01*
X3103396Y-16254960D02*
X3112920Y-16245436D01*
X3112920Y-16245436D02*
X3122444Y-16226388D01*
X3122444Y-16226388D02*
X3122444Y-16188293D01*
X3122444Y-16188293D02*
X3112920Y-16169246D01*
X3112920Y-16169246D02*
X3103396Y-16159722D01*
X3103396Y-16159722D02*
X3084348Y-16150198D01*
X3198634Y-16064484D02*
X3198634Y-16102579D01*
X3274825Y-16064484D02*
X3274825Y-16102579D01*
X3570063Y-16340674D02*
X3560539Y-16331150D01*
X3560539Y-16331150D02*
X3541491Y-16302579D01*
X3541491Y-16302579D02*
X3531968Y-16283531D01*
X3531968Y-16283531D02*
X3522444Y-16254960D01*
X3522444Y-16254960D02*
X3512920Y-16207341D01*
X3512920Y-16207341D02*
X3512920Y-16169246D01*
X3512920Y-16169246D02*
X3522444Y-16121627D01*
X3522444Y-16121627D02*
X3531968Y-16093055D01*
X3531968Y-16093055D02*
X3541491Y-16074008D01*
X3541491Y-16074008D02*
X3560539Y-16045436D01*
X3560539Y-16045436D02*
X3570063Y-16035912D01*
X3731968Y-16064484D02*
X3693872Y-16064484D01*
X3693872Y-16064484D02*
X3674825Y-16074008D01*
X3674825Y-16074008D02*
X3665301Y-16083531D01*
X3665301Y-16083531D02*
X3646253Y-16112103D01*
X3646253Y-16112103D02*
X3636729Y-16150198D01*
X3636729Y-16150198D02*
X3636729Y-16226388D01*
X3636729Y-16226388D02*
X3646253Y-16245436D01*
X3646253Y-16245436D02*
X3655777Y-16254960D01*
X3655777Y-16254960D02*
X3674825Y-16264484D01*
X3674825Y-16264484D02*
X3712920Y-16264484D01*
X3712920Y-16264484D02*
X3731968Y-16254960D01*
X3731968Y-16254960D02*
X3741491Y-16245436D01*
X3741491Y-16245436D02*
X3751015Y-16226388D01*
X3751015Y-16226388D02*
X3751015Y-16178769D01*
X3751015Y-16178769D02*
X3741491Y-16159722D01*
X3741491Y-16159722D02*
X3731968Y-16150198D01*
X3731968Y-16150198D02*
X3712920Y-16140674D01*
X3712920Y-16140674D02*
X3674825Y-16140674D01*
X3674825Y-16140674D02*
X3655777Y-16150198D01*
X3655777Y-16150198D02*
X3646253Y-16159722D01*
X3646253Y-16159722D02*
X3636729Y-16178769D01*
X3989110Y-16264484D02*
X3989110Y-16064484D01*
X4074825Y-16264484D02*
X4074825Y-16159722D01*
X4074825Y-16159722D02*
X4065301Y-16140674D01*
X4065301Y-16140674D02*
X4046253Y-16131150D01*
X4046253Y-16131150D02*
X4017682Y-16131150D01*
X4017682Y-16131150D02*
X3998634Y-16140674D01*
X3998634Y-16140674D02*
X3989110Y-16150198D01*
X4198634Y-16264484D02*
X4179587Y-16254960D01*
X4179587Y-16254960D02*
X4170063Y-16245436D01*
X4170063Y-16245436D02*
X4160539Y-16226388D01*
X4160539Y-16226388D02*
X4160539Y-16169246D01*
X4160539Y-16169246D02*
X4170063Y-16150198D01*
X4170063Y-16150198D02*
X4179587Y-16140674D01*
X4179587Y-16140674D02*
X4198634Y-16131150D01*
X4198634Y-16131150D02*
X4227206Y-16131150D01*
X4227206Y-16131150D02*
X4246253Y-16140674D01*
X4246253Y-16140674D02*
X4255777Y-16150198D01*
X4255777Y-16150198D02*
X4265301Y-16169246D01*
X4265301Y-16169246D02*
X4265301Y-16226388D01*
X4265301Y-16226388D02*
X4255777Y-16245436D01*
X4255777Y-16245436D02*
X4246253Y-16254960D01*
X4246253Y-16254960D02*
X4227206Y-16264484D01*
X4227206Y-16264484D02*
X4198634Y-16264484D01*
X4379587Y-16264484D02*
X4360539Y-16254960D01*
X4360539Y-16254960D02*
X4351015Y-16235912D01*
X4351015Y-16235912D02*
X4351015Y-16064484D01*
X4531968Y-16254960D02*
X4512920Y-16264484D01*
X4512920Y-16264484D02*
X4474825Y-16264484D01*
X4474825Y-16264484D02*
X4455777Y-16254960D01*
X4455777Y-16254960D02*
X4446253Y-16235912D01*
X4446253Y-16235912D02*
X4446253Y-16159722D01*
X4446253Y-16159722D02*
X4455777Y-16140674D01*
X4455777Y-16140674D02*
X4474825Y-16131150D01*
X4474825Y-16131150D02*
X4512920Y-16131150D01*
X4512920Y-16131150D02*
X4531968Y-16140674D01*
X4531968Y-16140674D02*
X4541492Y-16159722D01*
X4541492Y-16159722D02*
X4541492Y-16178769D01*
X4541492Y-16178769D02*
X4446253Y-16197817D01*
X4617682Y-16254960D02*
X4636730Y-16264484D01*
X4636730Y-16264484D02*
X4674825Y-16264484D01*
X4674825Y-16264484D02*
X4693873Y-16254960D01*
X4693873Y-16254960D02*
X4703396Y-16235912D01*
X4703396Y-16235912D02*
X4703396Y-16226388D01*
X4703396Y-16226388D02*
X4693873Y-16207341D01*
X4693873Y-16207341D02*
X4674825Y-16197817D01*
X4674825Y-16197817D02*
X4646253Y-16197817D01*
X4646253Y-16197817D02*
X4627206Y-16188293D01*
X4627206Y-16188293D02*
X4617682Y-16169246D01*
X4617682Y-16169246D02*
X4617682Y-16159722D01*
X4617682Y-16159722D02*
X4627206Y-16140674D01*
X4627206Y-16140674D02*
X4646253Y-16131150D01*
X4646253Y-16131150D02*
X4674825Y-16131150D01*
X4674825Y-16131150D02*
X4693873Y-16140674D01*
X4770063Y-16340674D02*
X4779587Y-16331150D01*
X4779587Y-16331150D02*
X4798634Y-16302579D01*
X4798634Y-16302579D02*
X4808158Y-16283531D01*
X4808158Y-16283531D02*
X4817682Y-16254960D01*
X4817682Y-16254960D02*
X4827206Y-16207341D01*
X4827206Y-16207341D02*
X4827206Y-16169246D01*
X4827206Y-16169246D02*
X4817682Y-16121627D01*
X4817682Y-16121627D02*
X4808158Y-16093055D01*
X4808158Y-16093055D02*
X4798634Y-16074008D01*
X4798634Y-16074008D02*
X4779587Y-16045436D01*
X4779587Y-16045436D02*
X4770063Y-16035912D01*
D10*
X-13787Y-16458213D02*
X-13787Y-16415787D01*
X-56213Y-16415787D01*
X-56213Y-16458213D01*
X-13787Y-16458213D01*
D11*
X293872Y-16328484D02*
X312920Y-16328484D01*
X312920Y-16328484D02*
X331967Y-16338008D01*
X331967Y-16338008D02*
X341491Y-16347531D01*
X341491Y-16347531D02*
X351015Y-16366579D01*
X351015Y-16366579D02*
X360539Y-16404674D01*
X360539Y-16404674D02*
X360539Y-16452293D01*
X360539Y-16452293D02*
X351015Y-16490388D01*
X351015Y-16490388D02*
X341491Y-16509436D01*
X341491Y-16509436D02*
X331967Y-16518960D01*
X331967Y-16518960D02*
X312920Y-16528484D01*
X312920Y-16528484D02*
X293872Y-16528484D01*
X293872Y-16528484D02*
X274824Y-16518960D01*
X274824Y-16518960D02*
X265301Y-16509436D01*
X265301Y-16509436D02*
X255777Y-16490388D01*
X255777Y-16490388D02*
X246253Y-16452293D01*
X246253Y-16452293D02*
X246253Y-16404674D01*
X246253Y-16404674D02*
X255777Y-16366579D01*
X255777Y-16366579D02*
X265301Y-16347531D01*
X265301Y-16347531D02*
X274824Y-16338008D01*
X274824Y-16338008D02*
X293872Y-16328484D01*
X446253Y-16509436D02*
X455777Y-16518960D01*
X455777Y-16518960D02*
X446253Y-16528484D01*
X446253Y-16528484D02*
X436729Y-16518960D01*
X436729Y-16518960D02*
X446253Y-16509436D01*
X446253Y-16509436D02*
X446253Y-16528484D01*
X627205Y-16328484D02*
X589110Y-16328484D01*
X589110Y-16328484D02*
X570063Y-16338008D01*
X570063Y-16338008D02*
X560539Y-16347531D01*
X560539Y-16347531D02*
X541491Y-16376103D01*
X541491Y-16376103D02*
X531967Y-16414198D01*
X531967Y-16414198D02*
X531967Y-16490388D01*
X531967Y-16490388D02*
X541491Y-16509436D01*
X541491Y-16509436D02*
X551015Y-16518960D01*
X551015Y-16518960D02*
X570063Y-16528484D01*
X570063Y-16528484D02*
X608158Y-16528484D01*
X608158Y-16528484D02*
X627205Y-16518960D01*
X627205Y-16518960D02*
X636729Y-16509436D01*
X636729Y-16509436D02*
X646253Y-16490388D01*
X646253Y-16490388D02*
X646253Y-16442769D01*
X646253Y-16442769D02*
X636729Y-16423722D01*
X636729Y-16423722D02*
X627205Y-16414198D01*
X627205Y-16414198D02*
X608158Y-16404674D01*
X608158Y-16404674D02*
X570063Y-16404674D01*
X570063Y-16404674D02*
X551015Y-16414198D01*
X551015Y-16414198D02*
X541491Y-16423722D01*
X541491Y-16423722D02*
X531967Y-16442769D01*
X770062Y-16328484D02*
X789110Y-16328484D01*
X789110Y-16328484D02*
X808158Y-16338008D01*
X808158Y-16338008D02*
X817682Y-16347531D01*
X817682Y-16347531D02*
X827205Y-16366579D01*
X827205Y-16366579D02*
X836729Y-16404674D01*
X836729Y-16404674D02*
X836729Y-16452293D01*
X836729Y-16452293D02*
X827205Y-16490388D01*
X827205Y-16490388D02*
X817682Y-16509436D01*
X817682Y-16509436D02*
X808158Y-16518960D01*
X808158Y-16518960D02*
X789110Y-16528484D01*
X789110Y-16528484D02*
X770062Y-16528484D01*
X770062Y-16528484D02*
X751015Y-16518960D01*
X751015Y-16518960D02*
X741491Y-16509436D01*
X741491Y-16509436D02*
X731967Y-16490388D01*
X731967Y-16490388D02*
X722443Y-16452293D01*
X722443Y-16452293D02*
X722443Y-16404674D01*
X722443Y-16404674D02*
X731967Y-16366579D01*
X731967Y-16366579D02*
X741491Y-16347531D01*
X741491Y-16347531D02*
X751015Y-16338008D01*
X751015Y-16338008D02*
X770062Y-16328484D01*
X960539Y-16328484D02*
X979586Y-16328484D01*
X979586Y-16328484D02*
X998634Y-16338008D01*
X998634Y-16338008D02*
X1008158Y-16347531D01*
X1008158Y-16347531D02*
X1017682Y-16366579D01*
X1017682Y-16366579D02*
X1027205Y-16404674D01*
X1027205Y-16404674D02*
X1027205Y-16452293D01*
X1027205Y-16452293D02*
X1017682Y-16490388D01*
X1017682Y-16490388D02*
X1008158Y-16509436D01*
X1008158Y-16509436D02*
X998634Y-16518960D01*
X998634Y-16518960D02*
X979586Y-16528484D01*
X979586Y-16528484D02*
X960539Y-16528484D01*
X960539Y-16528484D02*
X941491Y-16518960D01*
X941491Y-16518960D02*
X931967Y-16509436D01*
X931967Y-16509436D02*
X922443Y-16490388D01*
X922443Y-16490388D02*
X912920Y-16452293D01*
X912920Y-16452293D02*
X912920Y-16404674D01*
X912920Y-16404674D02*
X922443Y-16366579D01*
X922443Y-16366579D02*
X931967Y-16347531D01*
X931967Y-16347531D02*
X941491Y-16338008D01*
X941491Y-16338008D02*
X960539Y-16328484D01*
X1112920Y-16528484D02*
X1112920Y-16395150D01*
X1112920Y-16414198D02*
X1122444Y-16404674D01*
X1122444Y-16404674D02*
X1141491Y-16395150D01*
X1141491Y-16395150D02*
X1170063Y-16395150D01*
X1170063Y-16395150D02*
X1189110Y-16404674D01*
X1189110Y-16404674D02*
X1198634Y-16423722D01*
X1198634Y-16423722D02*
X1198634Y-16528484D01*
X1198634Y-16423722D02*
X1208158Y-16404674D01*
X1208158Y-16404674D02*
X1227205Y-16395150D01*
X1227205Y-16395150D02*
X1255777Y-16395150D01*
X1255777Y-16395150D02*
X1274825Y-16404674D01*
X1274825Y-16404674D02*
X1284348Y-16423722D01*
X1284348Y-16423722D02*
X1284348Y-16528484D01*
X1379586Y-16528484D02*
X1379586Y-16395150D01*
X1379586Y-16414198D02*
X1389110Y-16404674D01*
X1389110Y-16404674D02*
X1408158Y-16395150D01*
X1408158Y-16395150D02*
X1436729Y-16395150D01*
X1436729Y-16395150D02*
X1455777Y-16404674D01*
X1455777Y-16404674D02*
X1465301Y-16423722D01*
X1465301Y-16423722D02*
X1465301Y-16528484D01*
X1465301Y-16423722D02*
X1474824Y-16404674D01*
X1474824Y-16404674D02*
X1493872Y-16395150D01*
X1493872Y-16395150D02*
X1522443Y-16395150D01*
X1522443Y-16395150D02*
X1541491Y-16404674D01*
X1541491Y-16404674D02*
X1551015Y-16423722D01*
X1551015Y-16423722D02*
X1551015Y-16528484D01*
X1941491Y-16318960D02*
X1770063Y-16576103D01*
X2198634Y-16328484D02*
X2217682Y-16328484D01*
X2217682Y-16328484D02*
X2236729Y-16338008D01*
X2236729Y-16338008D02*
X2246253Y-16347531D01*
X2246253Y-16347531D02*
X2255777Y-16366579D01*
X2255777Y-16366579D02*
X2265301Y-16404674D01*
X2265301Y-16404674D02*
X2265301Y-16452293D01*
X2265301Y-16452293D02*
X2255777Y-16490388D01*
X2255777Y-16490388D02*
X2246253Y-16509436D01*
X2246253Y-16509436D02*
X2236729Y-16518960D01*
X2236729Y-16518960D02*
X2217682Y-16528484D01*
X2217682Y-16528484D02*
X2198634Y-16528484D01*
X2198634Y-16528484D02*
X2179587Y-16518960D01*
X2179587Y-16518960D02*
X2170063Y-16509436D01*
X2170063Y-16509436D02*
X2160539Y-16490388D01*
X2160539Y-16490388D02*
X2151015Y-16452293D01*
X2151015Y-16452293D02*
X2151015Y-16404674D01*
X2151015Y-16404674D02*
X2160539Y-16366579D01*
X2160539Y-16366579D02*
X2170063Y-16347531D01*
X2170063Y-16347531D02*
X2179587Y-16338008D01*
X2179587Y-16338008D02*
X2198634Y-16328484D01*
X2351015Y-16509436D02*
X2360539Y-16518960D01*
X2360539Y-16518960D02*
X2351015Y-16528484D01*
X2351015Y-16528484D02*
X2341491Y-16518960D01*
X2341491Y-16518960D02*
X2351015Y-16509436D01*
X2351015Y-16509436D02*
X2351015Y-16528484D01*
X2484348Y-16328484D02*
X2503396Y-16328484D01*
X2503396Y-16328484D02*
X2522444Y-16338008D01*
X2522444Y-16338008D02*
X2531968Y-16347531D01*
X2531968Y-16347531D02*
X2541491Y-16366579D01*
X2541491Y-16366579D02*
X2551015Y-16404674D01*
X2551015Y-16404674D02*
X2551015Y-16452293D01*
X2551015Y-16452293D02*
X2541491Y-16490388D01*
X2541491Y-16490388D02*
X2531968Y-16509436D01*
X2531968Y-16509436D02*
X2522444Y-16518960D01*
X2522444Y-16518960D02*
X2503396Y-16528484D01*
X2503396Y-16528484D02*
X2484348Y-16528484D01*
X2484348Y-16528484D02*
X2465301Y-16518960D01*
X2465301Y-16518960D02*
X2455777Y-16509436D01*
X2455777Y-16509436D02*
X2446253Y-16490388D01*
X2446253Y-16490388D02*
X2436729Y-16452293D01*
X2436729Y-16452293D02*
X2436729Y-16404674D01*
X2436729Y-16404674D02*
X2446253Y-16366579D01*
X2446253Y-16366579D02*
X2455777Y-16347531D01*
X2455777Y-16347531D02*
X2465301Y-16338008D01*
X2465301Y-16338008D02*
X2484348Y-16328484D01*
X2627206Y-16347531D02*
X2636729Y-16338008D01*
X2636729Y-16338008D02*
X2655777Y-16328484D01*
X2655777Y-16328484D02*
X2703396Y-16328484D01*
X2703396Y-16328484D02*
X2722444Y-16338008D01*
X2722444Y-16338008D02*
X2731968Y-16347531D01*
X2731968Y-16347531D02*
X2741491Y-16366579D01*
X2741491Y-16366579D02*
X2741491Y-16385627D01*
X2741491Y-16385627D02*
X2731968Y-16414198D01*
X2731968Y-16414198D02*
X2617682Y-16528484D01*
X2617682Y-16528484D02*
X2741491Y-16528484D01*
X2808158Y-16328484D02*
X2931967Y-16328484D01*
X2931967Y-16328484D02*
X2865301Y-16404674D01*
X2865301Y-16404674D02*
X2893872Y-16404674D01*
X2893872Y-16404674D02*
X2912920Y-16414198D01*
X2912920Y-16414198D02*
X2922444Y-16423722D01*
X2922444Y-16423722D02*
X2931967Y-16442769D01*
X2931967Y-16442769D02*
X2931967Y-16490388D01*
X2931967Y-16490388D02*
X2922444Y-16509436D01*
X2922444Y-16509436D02*
X2912920Y-16518960D01*
X2912920Y-16518960D02*
X2893872Y-16528484D01*
X2893872Y-16528484D02*
X2836729Y-16528484D01*
X2836729Y-16528484D02*
X2817682Y-16518960D01*
X2817682Y-16518960D02*
X2808158Y-16509436D01*
X3103396Y-16328484D02*
X3065301Y-16328484D01*
X3065301Y-16328484D02*
X3046253Y-16338008D01*
X3046253Y-16338008D02*
X3036729Y-16347531D01*
X3036729Y-16347531D02*
X3017682Y-16376103D01*
X3017682Y-16376103D02*
X3008158Y-16414198D01*
X3008158Y-16414198D02*
X3008158Y-16490388D01*
X3008158Y-16490388D02*
X3017682Y-16509436D01*
X3017682Y-16509436D02*
X3027206Y-16518960D01*
X3027206Y-16518960D02*
X3046253Y-16528484D01*
X3046253Y-16528484D02*
X3084348Y-16528484D01*
X3084348Y-16528484D02*
X3103396Y-16518960D01*
X3103396Y-16518960D02*
X3112920Y-16509436D01*
X3112920Y-16509436D02*
X3122444Y-16490388D01*
X3122444Y-16490388D02*
X3122444Y-16442769D01*
X3122444Y-16442769D02*
X3112920Y-16423722D01*
X3112920Y-16423722D02*
X3103396Y-16414198D01*
X3103396Y-16414198D02*
X3084348Y-16404674D01*
X3084348Y-16404674D02*
X3046253Y-16404674D01*
X3046253Y-16404674D02*
X3027206Y-16414198D01*
X3027206Y-16414198D02*
X3017682Y-16423722D01*
X3017682Y-16423722D02*
X3008158Y-16442769D01*
X3198634Y-16328484D02*
X3198634Y-16366579D01*
X3274825Y-16328484D02*
X3274825Y-16366579D01*
X3570063Y-16604674D02*
X3560539Y-16595150D01*
X3560539Y-16595150D02*
X3541491Y-16566579D01*
X3541491Y-16566579D02*
X3531968Y-16547531D01*
X3531968Y-16547531D02*
X3522444Y-16518960D01*
X3522444Y-16518960D02*
X3512920Y-16471341D01*
X3512920Y-16471341D02*
X3512920Y-16433246D01*
X3512920Y-16433246D02*
X3522444Y-16385627D01*
X3522444Y-16385627D02*
X3531968Y-16357055D01*
X3531968Y-16357055D02*
X3541491Y-16338008D01*
X3541491Y-16338008D02*
X3560539Y-16309436D01*
X3560539Y-16309436D02*
X3570063Y-16299912D01*
X3684348Y-16328484D02*
X3703396Y-16328484D01*
X3703396Y-16328484D02*
X3722444Y-16338008D01*
X3722444Y-16338008D02*
X3731968Y-16347531D01*
X3731968Y-16347531D02*
X3741491Y-16366579D01*
X3741491Y-16366579D02*
X3751015Y-16404674D01*
X3751015Y-16404674D02*
X3751015Y-16452293D01*
X3751015Y-16452293D02*
X3741491Y-16490388D01*
X3741491Y-16490388D02*
X3731968Y-16509436D01*
X3731968Y-16509436D02*
X3722444Y-16518960D01*
X3722444Y-16518960D02*
X3703396Y-16528484D01*
X3703396Y-16528484D02*
X3684348Y-16528484D01*
X3684348Y-16528484D02*
X3665301Y-16518960D01*
X3665301Y-16518960D02*
X3655777Y-16509436D01*
X3655777Y-16509436D02*
X3646253Y-16490388D01*
X3646253Y-16490388D02*
X3636729Y-16452293D01*
X3636729Y-16452293D02*
X3636729Y-16404674D01*
X3636729Y-16404674D02*
X3646253Y-16366579D01*
X3646253Y-16366579D02*
X3655777Y-16347531D01*
X3655777Y-16347531D02*
X3665301Y-16338008D01*
X3665301Y-16338008D02*
X3684348Y-16328484D01*
X3989110Y-16528484D02*
X3989110Y-16328484D01*
X4074825Y-16528484D02*
X4074825Y-16423722D01*
X4074825Y-16423722D02*
X4065301Y-16404674D01*
X4065301Y-16404674D02*
X4046253Y-16395150D01*
X4046253Y-16395150D02*
X4017682Y-16395150D01*
X4017682Y-16395150D02*
X3998634Y-16404674D01*
X3998634Y-16404674D02*
X3989110Y-16414198D01*
X4198634Y-16528484D02*
X4179587Y-16518960D01*
X4179587Y-16518960D02*
X4170063Y-16509436D01*
X4170063Y-16509436D02*
X4160539Y-16490388D01*
X4160539Y-16490388D02*
X4160539Y-16433246D01*
X4160539Y-16433246D02*
X4170063Y-16414198D01*
X4170063Y-16414198D02*
X4179587Y-16404674D01*
X4179587Y-16404674D02*
X4198634Y-16395150D01*
X4198634Y-16395150D02*
X4227206Y-16395150D01*
X4227206Y-16395150D02*
X4246253Y-16404674D01*
X4246253Y-16404674D02*
X4255777Y-16414198D01*
X4255777Y-16414198D02*
X4265301Y-16433246D01*
X4265301Y-16433246D02*
X4265301Y-16490388D01*
X4265301Y-16490388D02*
X4255777Y-16509436D01*
X4255777Y-16509436D02*
X4246253Y-16518960D01*
X4246253Y-16518960D02*
X4227206Y-16528484D01*
X4227206Y-16528484D02*
X4198634Y-16528484D01*
X4379587Y-16528484D02*
X4360539Y-16518960D01*
X4360539Y-16518960D02*
X4351015Y-16499912D01*
X4351015Y-16499912D02*
X4351015Y-16328484D01*
X4531968Y-16518960D02*
X4512920Y-16528484D01*
X4512920Y-16528484D02*
X4474825Y-16528484D01*
X4474825Y-16528484D02*
X4455777Y-16518960D01*
X4455777Y-16518960D02*
X4446253Y-16499912D01*
X4446253Y-16499912D02*
X4446253Y-16423722D01*
X4446253Y-16423722D02*
X4455777Y-16404674D01*
X4455777Y-16404674D02*
X4474825Y-16395150D01*
X4474825Y-16395150D02*
X4512920Y-16395150D01*
X4512920Y-16395150D02*
X4531968Y-16404674D01*
X4531968Y-16404674D02*
X4541492Y-16423722D01*
X4541492Y-16423722D02*
X4541492Y-16442769D01*
X4541492Y-16442769D02*
X4446253Y-16461817D01*
X4617682Y-16518960D02*
X4636730Y-16528484D01*
X4636730Y-16528484D02*
X4674825Y-16528484D01*
X4674825Y-16528484D02*
X4693873Y-16518960D01*
X4693873Y-16518960D02*
X4703396Y-16499912D01*
X4703396Y-16499912D02*
X4703396Y-16490388D01*
X4703396Y-16490388D02*
X4693873Y-16471341D01*
X4693873Y-16471341D02*
X4674825Y-16461817D01*
X4674825Y-16461817D02*
X4646253Y-16461817D01*
X4646253Y-16461817D02*
X4627206Y-16452293D01*
X4627206Y-16452293D02*
X4617682Y-16433246D01*
X4617682Y-16433246D02*
X4617682Y-16423722D01*
X4617682Y-16423722D02*
X4627206Y-16404674D01*
X4627206Y-16404674D02*
X4646253Y-16395150D01*
X4646253Y-16395150D02*
X4674825Y-16395150D01*
X4674825Y-16395150D02*
X4693873Y-16404674D01*
X4941492Y-16452293D02*
X5093873Y-16452293D01*
X5017682Y-16528484D02*
X5017682Y-16376103D01*
X5427206Y-16395150D02*
X5427206Y-16528484D01*
X5379587Y-16318960D02*
X5331968Y-16461817D01*
X5331968Y-16461817D02*
X5455777Y-16461817D01*
X5674825Y-16518960D02*
X5693873Y-16528484D01*
X5693873Y-16528484D02*
X5731968Y-16528484D01*
X5731968Y-16528484D02*
X5751015Y-16518960D01*
X5751015Y-16518960D02*
X5760539Y-16499912D01*
X5760539Y-16499912D02*
X5760539Y-16490388D01*
X5760539Y-16490388D02*
X5751015Y-16471341D01*
X5751015Y-16471341D02*
X5731968Y-16461817D01*
X5731968Y-16461817D02*
X5703396Y-16461817D01*
X5703396Y-16461817D02*
X5684349Y-16452293D01*
X5684349Y-16452293D02*
X5674825Y-16433246D01*
X5674825Y-16433246D02*
X5674825Y-16423722D01*
X5674825Y-16423722D02*
X5684349Y-16404674D01*
X5684349Y-16404674D02*
X5703396Y-16395150D01*
X5703396Y-16395150D02*
X5731968Y-16395150D01*
X5731968Y-16395150D02*
X5751015Y-16404674D01*
X5874825Y-16528484D02*
X5855777Y-16518960D01*
X5855777Y-16518960D02*
X5846254Y-16499912D01*
X5846254Y-16499912D02*
X5846254Y-16328484D01*
X5979587Y-16528484D02*
X5960539Y-16518960D01*
X5960539Y-16518960D02*
X5951015Y-16509436D01*
X5951015Y-16509436D02*
X5941492Y-16490388D01*
X5941492Y-16490388D02*
X5941492Y-16433246D01*
X5941492Y-16433246D02*
X5951015Y-16414198D01*
X5951015Y-16414198D02*
X5960539Y-16404674D01*
X5960539Y-16404674D02*
X5979587Y-16395150D01*
X5979587Y-16395150D02*
X6008158Y-16395150D01*
X6008158Y-16395150D02*
X6027206Y-16404674D01*
X6027206Y-16404674D02*
X6036730Y-16414198D01*
X6036730Y-16414198D02*
X6046254Y-16433246D01*
X6046254Y-16433246D02*
X6046254Y-16490388D01*
X6046254Y-16490388D02*
X6036730Y-16509436D01*
X6036730Y-16509436D02*
X6027206Y-16518960D01*
X6027206Y-16518960D02*
X6008158Y-16528484D01*
X6008158Y-16528484D02*
X5979587Y-16528484D01*
X6103396Y-16395150D02*
X6179587Y-16395150D01*
X6131968Y-16328484D02*
X6131968Y-16499912D01*
X6131968Y-16499912D02*
X6141492Y-16518960D01*
X6141492Y-16518960D02*
X6160539Y-16528484D01*
X6160539Y-16528484D02*
X6179587Y-16528484D01*
X6236730Y-16518960D02*
X6255777Y-16528484D01*
X6255777Y-16528484D02*
X6293873Y-16528484D01*
X6293873Y-16528484D02*
X6312920Y-16518960D01*
X6312920Y-16518960D02*
X6322444Y-16499912D01*
X6322444Y-16499912D02*
X6322444Y-16490388D01*
X6322444Y-16490388D02*
X6312920Y-16471341D01*
X6312920Y-16471341D02*
X6293873Y-16461817D01*
X6293873Y-16461817D02*
X6265301Y-16461817D01*
X6265301Y-16461817D02*
X6246254Y-16452293D01*
X6246254Y-16452293D02*
X6236730Y-16433246D01*
X6236730Y-16433246D02*
X6236730Y-16423722D01*
X6236730Y-16423722D02*
X6246254Y-16404674D01*
X6246254Y-16404674D02*
X6265301Y-16395150D01*
X6265301Y-16395150D02*
X6293873Y-16395150D01*
X6293873Y-16395150D02*
X6312920Y-16404674D01*
X6389111Y-16604674D02*
X6398635Y-16595150D01*
X6398635Y-16595150D02*
X6417682Y-16566579D01*
X6417682Y-16566579D02*
X6427206Y-16547531D01*
X6427206Y-16547531D02*
X6436730Y-16518960D01*
X6436730Y-16518960D02*
X6446254Y-16471341D01*
X6446254Y-16471341D02*
X6446254Y-16433246D01*
X6446254Y-16433246D02*
X6436730Y-16385627D01*
X6436730Y-16385627D02*
X6427206Y-16357055D01*
X6427206Y-16357055D02*
X6417682Y-16338008D01*
X6417682Y-16338008D02*
X6398635Y-16309436D01*
X6398635Y-16309436D02*
X6389111Y-16299912D01*
D10*
X-42500Y-16738500D02*
X-5000Y-16701000D01*
X-42500Y-16663500D01*
X-80000Y-16701000D01*
X-42500Y-16738500D01*
D11*
X293872Y-16592484D02*
X312920Y-16592484D01*
X312920Y-16592484D02*
X331967Y-16602008D01*
X331967Y-16602008D02*
X341491Y-16611531D01*
X341491Y-16611531D02*
X351015Y-16630579D01*
X351015Y-16630579D02*
X360539Y-16668674D01*
X360539Y-16668674D02*
X360539Y-16716293D01*
X360539Y-16716293D02*
X351015Y-16754388D01*
X351015Y-16754388D02*
X341491Y-16773436D01*
X341491Y-16773436D02*
X331967Y-16782960D01*
X331967Y-16782960D02*
X312920Y-16792484D01*
X312920Y-16792484D02*
X293872Y-16792484D01*
X293872Y-16792484D02*
X274824Y-16782960D01*
X274824Y-16782960D02*
X265301Y-16773436D01*
X265301Y-16773436D02*
X255777Y-16754388D01*
X255777Y-16754388D02*
X246253Y-16716293D01*
X246253Y-16716293D02*
X246253Y-16668674D01*
X246253Y-16668674D02*
X255777Y-16630579D01*
X255777Y-16630579D02*
X265301Y-16611531D01*
X265301Y-16611531D02*
X274824Y-16602008D01*
X274824Y-16602008D02*
X293872Y-16592484D01*
X446253Y-16773436D02*
X455777Y-16782960D01*
X455777Y-16782960D02*
X446253Y-16792484D01*
X446253Y-16792484D02*
X436729Y-16782960D01*
X436729Y-16782960D02*
X446253Y-16773436D01*
X446253Y-16773436D02*
X446253Y-16792484D01*
X522443Y-16592484D02*
X655777Y-16592484D01*
X655777Y-16592484D02*
X570063Y-16792484D01*
X827205Y-16592484D02*
X731967Y-16592484D01*
X731967Y-16592484D02*
X722443Y-16687722D01*
X722443Y-16687722D02*
X731967Y-16678198D01*
X731967Y-16678198D02*
X751015Y-16668674D01*
X751015Y-16668674D02*
X798634Y-16668674D01*
X798634Y-16668674D02*
X817682Y-16678198D01*
X817682Y-16678198D02*
X827205Y-16687722D01*
X827205Y-16687722D02*
X836729Y-16706769D01*
X836729Y-16706769D02*
X836729Y-16754388D01*
X836729Y-16754388D02*
X827205Y-16773436D01*
X827205Y-16773436D02*
X817682Y-16782960D01*
X817682Y-16782960D02*
X798634Y-16792484D01*
X798634Y-16792484D02*
X751015Y-16792484D01*
X751015Y-16792484D02*
X731967Y-16782960D01*
X731967Y-16782960D02*
X722443Y-16773436D01*
X960539Y-16592484D02*
X979586Y-16592484D01*
X979586Y-16592484D02*
X998634Y-16602008D01*
X998634Y-16602008D02*
X1008158Y-16611531D01*
X1008158Y-16611531D02*
X1017682Y-16630579D01*
X1017682Y-16630579D02*
X1027205Y-16668674D01*
X1027205Y-16668674D02*
X1027205Y-16716293D01*
X1027205Y-16716293D02*
X1017682Y-16754388D01*
X1017682Y-16754388D02*
X1008158Y-16773436D01*
X1008158Y-16773436D02*
X998634Y-16782960D01*
X998634Y-16782960D02*
X979586Y-16792484D01*
X979586Y-16792484D02*
X960539Y-16792484D01*
X960539Y-16792484D02*
X941491Y-16782960D01*
X941491Y-16782960D02*
X931967Y-16773436D01*
X931967Y-16773436D02*
X922443Y-16754388D01*
X922443Y-16754388D02*
X912920Y-16716293D01*
X912920Y-16716293D02*
X912920Y-16668674D01*
X912920Y-16668674D02*
X922443Y-16630579D01*
X922443Y-16630579D02*
X931967Y-16611531D01*
X931967Y-16611531D02*
X941491Y-16602008D01*
X941491Y-16602008D02*
X960539Y-16592484D01*
X1112920Y-16792484D02*
X1112920Y-16659150D01*
X1112920Y-16678198D02*
X1122444Y-16668674D01*
X1122444Y-16668674D02*
X1141491Y-16659150D01*
X1141491Y-16659150D02*
X1170063Y-16659150D01*
X1170063Y-16659150D02*
X1189110Y-16668674D01*
X1189110Y-16668674D02*
X1198634Y-16687722D01*
X1198634Y-16687722D02*
X1198634Y-16792484D01*
X1198634Y-16687722D02*
X1208158Y-16668674D01*
X1208158Y-16668674D02*
X1227205Y-16659150D01*
X1227205Y-16659150D02*
X1255777Y-16659150D01*
X1255777Y-16659150D02*
X1274825Y-16668674D01*
X1274825Y-16668674D02*
X1284348Y-16687722D01*
X1284348Y-16687722D02*
X1284348Y-16792484D01*
X1379586Y-16792484D02*
X1379586Y-16659150D01*
X1379586Y-16678198D02*
X1389110Y-16668674D01*
X1389110Y-16668674D02*
X1408158Y-16659150D01*
X1408158Y-16659150D02*
X1436729Y-16659150D01*
X1436729Y-16659150D02*
X1455777Y-16668674D01*
X1455777Y-16668674D02*
X1465301Y-16687722D01*
X1465301Y-16687722D02*
X1465301Y-16792484D01*
X1465301Y-16687722D02*
X1474824Y-16668674D01*
X1474824Y-16668674D02*
X1493872Y-16659150D01*
X1493872Y-16659150D02*
X1522443Y-16659150D01*
X1522443Y-16659150D02*
X1541491Y-16668674D01*
X1541491Y-16668674D02*
X1551015Y-16687722D01*
X1551015Y-16687722D02*
X1551015Y-16792484D01*
X1941491Y-16582960D02*
X1770063Y-16840103D01*
X2198634Y-16592484D02*
X2217682Y-16592484D01*
X2217682Y-16592484D02*
X2236729Y-16602008D01*
X2236729Y-16602008D02*
X2246253Y-16611531D01*
X2246253Y-16611531D02*
X2255777Y-16630579D01*
X2255777Y-16630579D02*
X2265301Y-16668674D01*
X2265301Y-16668674D02*
X2265301Y-16716293D01*
X2265301Y-16716293D02*
X2255777Y-16754388D01*
X2255777Y-16754388D02*
X2246253Y-16773436D01*
X2246253Y-16773436D02*
X2236729Y-16782960D01*
X2236729Y-16782960D02*
X2217682Y-16792484D01*
X2217682Y-16792484D02*
X2198634Y-16792484D01*
X2198634Y-16792484D02*
X2179587Y-16782960D01*
X2179587Y-16782960D02*
X2170063Y-16773436D01*
X2170063Y-16773436D02*
X2160539Y-16754388D01*
X2160539Y-16754388D02*
X2151015Y-16716293D01*
X2151015Y-16716293D02*
X2151015Y-16668674D01*
X2151015Y-16668674D02*
X2160539Y-16630579D01*
X2160539Y-16630579D02*
X2170063Y-16611531D01*
X2170063Y-16611531D02*
X2179587Y-16602008D01*
X2179587Y-16602008D02*
X2198634Y-16592484D01*
X2351015Y-16773436D02*
X2360539Y-16782960D01*
X2360539Y-16782960D02*
X2351015Y-16792484D01*
X2351015Y-16792484D02*
X2341491Y-16782960D01*
X2341491Y-16782960D02*
X2351015Y-16773436D01*
X2351015Y-16773436D02*
X2351015Y-16792484D01*
X2484348Y-16592484D02*
X2503396Y-16592484D01*
X2503396Y-16592484D02*
X2522444Y-16602008D01*
X2522444Y-16602008D02*
X2531968Y-16611531D01*
X2531968Y-16611531D02*
X2541491Y-16630579D01*
X2541491Y-16630579D02*
X2551015Y-16668674D01*
X2551015Y-16668674D02*
X2551015Y-16716293D01*
X2551015Y-16716293D02*
X2541491Y-16754388D01*
X2541491Y-16754388D02*
X2531968Y-16773436D01*
X2531968Y-16773436D02*
X2522444Y-16782960D01*
X2522444Y-16782960D02*
X2503396Y-16792484D01*
X2503396Y-16792484D02*
X2484348Y-16792484D01*
X2484348Y-16792484D02*
X2465301Y-16782960D01*
X2465301Y-16782960D02*
X2455777Y-16773436D01*
X2455777Y-16773436D02*
X2446253Y-16754388D01*
X2446253Y-16754388D02*
X2436729Y-16716293D01*
X2436729Y-16716293D02*
X2436729Y-16668674D01*
X2436729Y-16668674D02*
X2446253Y-16630579D01*
X2446253Y-16630579D02*
X2455777Y-16611531D01*
X2455777Y-16611531D02*
X2465301Y-16602008D01*
X2465301Y-16602008D02*
X2484348Y-16592484D01*
X2627206Y-16611531D02*
X2636729Y-16602008D01*
X2636729Y-16602008D02*
X2655777Y-16592484D01*
X2655777Y-16592484D02*
X2703396Y-16592484D01*
X2703396Y-16592484D02*
X2722444Y-16602008D01*
X2722444Y-16602008D02*
X2731968Y-16611531D01*
X2731968Y-16611531D02*
X2741491Y-16630579D01*
X2741491Y-16630579D02*
X2741491Y-16649627D01*
X2741491Y-16649627D02*
X2731968Y-16678198D01*
X2731968Y-16678198D02*
X2617682Y-16792484D01*
X2617682Y-16792484D02*
X2741491Y-16792484D01*
X2836729Y-16792484D02*
X2874825Y-16792484D01*
X2874825Y-16792484D02*
X2893872Y-16782960D01*
X2893872Y-16782960D02*
X2903396Y-16773436D01*
X2903396Y-16773436D02*
X2922444Y-16744865D01*
X2922444Y-16744865D02*
X2931967Y-16706769D01*
X2931967Y-16706769D02*
X2931967Y-16630579D01*
X2931967Y-16630579D02*
X2922444Y-16611531D01*
X2922444Y-16611531D02*
X2912920Y-16602008D01*
X2912920Y-16602008D02*
X2893872Y-16592484D01*
X2893872Y-16592484D02*
X2855777Y-16592484D01*
X2855777Y-16592484D02*
X2836729Y-16602008D01*
X2836729Y-16602008D02*
X2827206Y-16611531D01*
X2827206Y-16611531D02*
X2817682Y-16630579D01*
X2817682Y-16630579D02*
X2817682Y-16678198D01*
X2817682Y-16678198D02*
X2827206Y-16697246D01*
X2827206Y-16697246D02*
X2836729Y-16706769D01*
X2836729Y-16706769D02*
X2855777Y-16716293D01*
X2855777Y-16716293D02*
X2893872Y-16716293D01*
X2893872Y-16716293D02*
X2912920Y-16706769D01*
X2912920Y-16706769D02*
X2922444Y-16697246D01*
X2922444Y-16697246D02*
X2931967Y-16678198D01*
X3112920Y-16592484D02*
X3017682Y-16592484D01*
X3017682Y-16592484D02*
X3008158Y-16687722D01*
X3008158Y-16687722D02*
X3017682Y-16678198D01*
X3017682Y-16678198D02*
X3036729Y-16668674D01*
X3036729Y-16668674D02*
X3084348Y-16668674D01*
X3084348Y-16668674D02*
X3103396Y-16678198D01*
X3103396Y-16678198D02*
X3112920Y-16687722D01*
X3112920Y-16687722D02*
X3122444Y-16706769D01*
X3122444Y-16706769D02*
X3122444Y-16754388D01*
X3122444Y-16754388D02*
X3112920Y-16773436D01*
X3112920Y-16773436D02*
X3103396Y-16782960D01*
X3103396Y-16782960D02*
X3084348Y-16792484D01*
X3084348Y-16792484D02*
X3036729Y-16792484D01*
X3036729Y-16792484D02*
X3017682Y-16782960D01*
X3017682Y-16782960D02*
X3008158Y-16773436D01*
X3198634Y-16592484D02*
X3198634Y-16630579D01*
X3274825Y-16592484D02*
X3274825Y-16630579D01*
X3570063Y-16868674D02*
X3560539Y-16859150D01*
X3560539Y-16859150D02*
X3541491Y-16830579D01*
X3541491Y-16830579D02*
X3531968Y-16811531D01*
X3531968Y-16811531D02*
X3522444Y-16782960D01*
X3522444Y-16782960D02*
X3512920Y-16735341D01*
X3512920Y-16735341D02*
X3512920Y-16697246D01*
X3512920Y-16697246D02*
X3522444Y-16649627D01*
X3522444Y-16649627D02*
X3531968Y-16621055D01*
X3531968Y-16621055D02*
X3541491Y-16602008D01*
X3541491Y-16602008D02*
X3560539Y-16573436D01*
X3560539Y-16573436D02*
X3570063Y-16563912D01*
X3731968Y-16659150D02*
X3731968Y-16792484D01*
X3684348Y-16582960D02*
X3636729Y-16725817D01*
X3636729Y-16725817D02*
X3760539Y-16725817D01*
X3989110Y-16792484D02*
X3989110Y-16592484D01*
X4074825Y-16792484D02*
X4074825Y-16687722D01*
X4074825Y-16687722D02*
X4065301Y-16668674D01*
X4065301Y-16668674D02*
X4046253Y-16659150D01*
X4046253Y-16659150D02*
X4017682Y-16659150D01*
X4017682Y-16659150D02*
X3998634Y-16668674D01*
X3998634Y-16668674D02*
X3989110Y-16678198D01*
X4198634Y-16792484D02*
X4179587Y-16782960D01*
X4179587Y-16782960D02*
X4170063Y-16773436D01*
X4170063Y-16773436D02*
X4160539Y-16754388D01*
X4160539Y-16754388D02*
X4160539Y-16697246D01*
X4160539Y-16697246D02*
X4170063Y-16678198D01*
X4170063Y-16678198D02*
X4179587Y-16668674D01*
X4179587Y-16668674D02*
X4198634Y-16659150D01*
X4198634Y-16659150D02*
X4227206Y-16659150D01*
X4227206Y-16659150D02*
X4246253Y-16668674D01*
X4246253Y-16668674D02*
X4255777Y-16678198D01*
X4255777Y-16678198D02*
X4265301Y-16697246D01*
X4265301Y-16697246D02*
X4265301Y-16754388D01*
X4265301Y-16754388D02*
X4255777Y-16773436D01*
X4255777Y-16773436D02*
X4246253Y-16782960D01*
X4246253Y-16782960D02*
X4227206Y-16792484D01*
X4227206Y-16792484D02*
X4198634Y-16792484D01*
X4379587Y-16792484D02*
X4360539Y-16782960D01*
X4360539Y-16782960D02*
X4351015Y-16763912D01*
X4351015Y-16763912D02*
X4351015Y-16592484D01*
X4531968Y-16782960D02*
X4512920Y-16792484D01*
X4512920Y-16792484D02*
X4474825Y-16792484D01*
X4474825Y-16792484D02*
X4455777Y-16782960D01*
X4455777Y-16782960D02*
X4446253Y-16763912D01*
X4446253Y-16763912D02*
X4446253Y-16687722D01*
X4446253Y-16687722D02*
X4455777Y-16668674D01*
X4455777Y-16668674D02*
X4474825Y-16659150D01*
X4474825Y-16659150D02*
X4512920Y-16659150D01*
X4512920Y-16659150D02*
X4531968Y-16668674D01*
X4531968Y-16668674D02*
X4541492Y-16687722D01*
X4541492Y-16687722D02*
X4541492Y-16706769D01*
X4541492Y-16706769D02*
X4446253Y-16725817D01*
X4617682Y-16782960D02*
X4636730Y-16792484D01*
X4636730Y-16792484D02*
X4674825Y-16792484D01*
X4674825Y-16792484D02*
X4693873Y-16782960D01*
X4693873Y-16782960D02*
X4703396Y-16763912D01*
X4703396Y-16763912D02*
X4703396Y-16754388D01*
X4703396Y-16754388D02*
X4693873Y-16735341D01*
X4693873Y-16735341D02*
X4674825Y-16725817D01*
X4674825Y-16725817D02*
X4646253Y-16725817D01*
X4646253Y-16725817D02*
X4627206Y-16716293D01*
X4627206Y-16716293D02*
X4617682Y-16697246D01*
X4617682Y-16697246D02*
X4617682Y-16687722D01*
X4617682Y-16687722D02*
X4627206Y-16668674D01*
X4627206Y-16668674D02*
X4646253Y-16659150D01*
X4646253Y-16659150D02*
X4674825Y-16659150D01*
X4674825Y-16659150D02*
X4693873Y-16668674D01*
X4770063Y-16868674D02*
X4779587Y-16859150D01*
X4779587Y-16859150D02*
X4798634Y-16830579D01*
X4798634Y-16830579D02*
X4808158Y-16811531D01*
X4808158Y-16811531D02*
X4817682Y-16782960D01*
X4817682Y-16782960D02*
X4827206Y-16735341D01*
X4827206Y-16735341D02*
X4827206Y-16697246D01*
X4827206Y-16697246D02*
X4817682Y-16649627D01*
X4817682Y-16649627D02*
X4808158Y-16621055D01*
X4808158Y-16621055D02*
X4798634Y-16602008D01*
X4798634Y-16602008D02*
X4779587Y-16573436D01*
X4779587Y-16573436D02*
X4770063Y-16563912D01*
D10*
X-105000Y-16915000D02*
X-5000Y-17015000D01*
X-5000Y-16915000D02*
X-105000Y-17015000D01*
X-5000Y-16965000D02*
G75*
G02*
X-105000Y-16965000I-50000J0D01*
G01*
X-105000Y-16965000D02*
G75*
G02*
X-5000Y-16965000I50000J0D01*
G01*
D11*
X360539Y-17056484D02*
X246253Y-17056484D01*
X303396Y-17056484D02*
X303396Y-16856484D01*
X303396Y-16856484D02*
X284348Y-16885055D01*
X284348Y-16885055D02*
X265301Y-16904103D01*
X265301Y-16904103D02*
X246253Y-16913627D01*
X446253Y-17037436D02*
X455777Y-17046960D01*
X455777Y-17046960D02*
X446253Y-17056484D01*
X446253Y-17056484D02*
X436729Y-17046960D01*
X436729Y-17046960D02*
X446253Y-17037436D01*
X446253Y-17037436D02*
X446253Y-17056484D01*
X579586Y-16856484D02*
X598634Y-16856484D01*
X598634Y-16856484D02*
X617682Y-16866008D01*
X617682Y-16866008D02*
X627205Y-16875531D01*
X627205Y-16875531D02*
X636729Y-16894579D01*
X636729Y-16894579D02*
X646253Y-16932674D01*
X646253Y-16932674D02*
X646253Y-16980293D01*
X646253Y-16980293D02*
X636729Y-17018389D01*
X636729Y-17018389D02*
X627205Y-17037436D01*
X627205Y-17037436D02*
X617682Y-17046960D01*
X617682Y-17046960D02*
X598634Y-17056484D01*
X598634Y-17056484D02*
X579586Y-17056484D01*
X579586Y-17056484D02*
X560539Y-17046960D01*
X560539Y-17046960D02*
X551015Y-17037436D01*
X551015Y-17037436D02*
X541491Y-17018389D01*
X541491Y-17018389D02*
X531967Y-16980293D01*
X531967Y-16980293D02*
X531967Y-16932674D01*
X531967Y-16932674D02*
X541491Y-16894579D01*
X541491Y-16894579D02*
X551015Y-16875531D01*
X551015Y-16875531D02*
X560539Y-16866008D01*
X560539Y-16866008D02*
X579586Y-16856484D01*
X770062Y-16856484D02*
X789110Y-16856484D01*
X789110Y-16856484D02*
X808158Y-16866008D01*
X808158Y-16866008D02*
X817682Y-16875531D01*
X817682Y-16875531D02*
X827205Y-16894579D01*
X827205Y-16894579D02*
X836729Y-16932674D01*
X836729Y-16932674D02*
X836729Y-16980293D01*
X836729Y-16980293D02*
X827205Y-17018389D01*
X827205Y-17018389D02*
X817682Y-17037436D01*
X817682Y-17037436D02*
X808158Y-17046960D01*
X808158Y-17046960D02*
X789110Y-17056484D01*
X789110Y-17056484D02*
X770062Y-17056484D01*
X770062Y-17056484D02*
X751015Y-17046960D01*
X751015Y-17046960D02*
X741491Y-17037436D01*
X741491Y-17037436D02*
X731967Y-17018389D01*
X731967Y-17018389D02*
X722443Y-16980293D01*
X722443Y-16980293D02*
X722443Y-16932674D01*
X722443Y-16932674D02*
X731967Y-16894579D01*
X731967Y-16894579D02*
X741491Y-16875531D01*
X741491Y-16875531D02*
X751015Y-16866008D01*
X751015Y-16866008D02*
X770062Y-16856484D01*
X960539Y-16856484D02*
X979586Y-16856484D01*
X979586Y-16856484D02*
X998634Y-16866008D01*
X998634Y-16866008D02*
X1008158Y-16875531D01*
X1008158Y-16875531D02*
X1017682Y-16894579D01*
X1017682Y-16894579D02*
X1027205Y-16932674D01*
X1027205Y-16932674D02*
X1027205Y-16980293D01*
X1027205Y-16980293D02*
X1017682Y-17018389D01*
X1017682Y-17018389D02*
X1008158Y-17037436D01*
X1008158Y-17037436D02*
X998634Y-17046960D01*
X998634Y-17046960D02*
X979586Y-17056484D01*
X979586Y-17056484D02*
X960539Y-17056484D01*
X960539Y-17056484D02*
X941491Y-17046960D01*
X941491Y-17046960D02*
X931967Y-17037436D01*
X931967Y-17037436D02*
X922443Y-17018389D01*
X922443Y-17018389D02*
X912920Y-16980293D01*
X912920Y-16980293D02*
X912920Y-16932674D01*
X912920Y-16932674D02*
X922443Y-16894579D01*
X922443Y-16894579D02*
X931967Y-16875531D01*
X931967Y-16875531D02*
X941491Y-16866008D01*
X941491Y-16866008D02*
X960539Y-16856484D01*
X1112920Y-17056484D02*
X1112920Y-16923150D01*
X1112920Y-16942198D02*
X1122444Y-16932674D01*
X1122444Y-16932674D02*
X1141491Y-16923150D01*
X1141491Y-16923150D02*
X1170063Y-16923150D01*
X1170063Y-16923150D02*
X1189110Y-16932674D01*
X1189110Y-16932674D02*
X1198634Y-16951722D01*
X1198634Y-16951722D02*
X1198634Y-17056484D01*
X1198634Y-16951722D02*
X1208158Y-16932674D01*
X1208158Y-16932674D02*
X1227205Y-16923150D01*
X1227205Y-16923150D02*
X1255777Y-16923150D01*
X1255777Y-16923150D02*
X1274825Y-16932674D01*
X1274825Y-16932674D02*
X1284348Y-16951722D01*
X1284348Y-16951722D02*
X1284348Y-17056484D01*
X1379586Y-17056484D02*
X1379586Y-16923150D01*
X1379586Y-16942198D02*
X1389110Y-16932674D01*
X1389110Y-16932674D02*
X1408158Y-16923150D01*
X1408158Y-16923150D02*
X1436729Y-16923150D01*
X1436729Y-16923150D02*
X1455777Y-16932674D01*
X1455777Y-16932674D02*
X1465301Y-16951722D01*
X1465301Y-16951722D02*
X1465301Y-17056484D01*
X1465301Y-16951722D02*
X1474824Y-16932674D01*
X1474824Y-16932674D02*
X1493872Y-16923150D01*
X1493872Y-16923150D02*
X1522443Y-16923150D01*
X1522443Y-16923150D02*
X1541491Y-16932674D01*
X1541491Y-16932674D02*
X1551015Y-16951722D01*
X1551015Y-16951722D02*
X1551015Y-17056484D01*
X1941491Y-16846960D02*
X1770063Y-17104103D01*
X2198634Y-16856484D02*
X2217682Y-16856484D01*
X2217682Y-16856484D02*
X2236729Y-16866008D01*
X2236729Y-16866008D02*
X2246253Y-16875531D01*
X2246253Y-16875531D02*
X2255777Y-16894579D01*
X2255777Y-16894579D02*
X2265301Y-16932674D01*
X2265301Y-16932674D02*
X2265301Y-16980293D01*
X2265301Y-16980293D02*
X2255777Y-17018389D01*
X2255777Y-17018389D02*
X2246253Y-17037436D01*
X2246253Y-17037436D02*
X2236729Y-17046960D01*
X2236729Y-17046960D02*
X2217682Y-17056484D01*
X2217682Y-17056484D02*
X2198634Y-17056484D01*
X2198634Y-17056484D02*
X2179587Y-17046960D01*
X2179587Y-17046960D02*
X2170063Y-17037436D01*
X2170063Y-17037436D02*
X2160539Y-17018389D01*
X2160539Y-17018389D02*
X2151015Y-16980293D01*
X2151015Y-16980293D02*
X2151015Y-16932674D01*
X2151015Y-16932674D02*
X2160539Y-16894579D01*
X2160539Y-16894579D02*
X2170063Y-16875531D01*
X2170063Y-16875531D02*
X2179587Y-16866008D01*
X2179587Y-16866008D02*
X2198634Y-16856484D01*
X2351015Y-17037436D02*
X2360539Y-17046960D01*
X2360539Y-17046960D02*
X2351015Y-17056484D01*
X2351015Y-17056484D02*
X2341491Y-17046960D01*
X2341491Y-17046960D02*
X2351015Y-17037436D01*
X2351015Y-17037436D02*
X2351015Y-17056484D01*
X2484348Y-16856484D02*
X2503396Y-16856484D01*
X2503396Y-16856484D02*
X2522444Y-16866008D01*
X2522444Y-16866008D02*
X2531968Y-16875531D01*
X2531968Y-16875531D02*
X2541491Y-16894579D01*
X2541491Y-16894579D02*
X2551015Y-16932674D01*
X2551015Y-16932674D02*
X2551015Y-16980293D01*
X2551015Y-16980293D02*
X2541491Y-17018389D01*
X2541491Y-17018389D02*
X2531968Y-17037436D01*
X2531968Y-17037436D02*
X2522444Y-17046960D01*
X2522444Y-17046960D02*
X2503396Y-17056484D01*
X2503396Y-17056484D02*
X2484348Y-17056484D01*
X2484348Y-17056484D02*
X2465301Y-17046960D01*
X2465301Y-17046960D02*
X2455777Y-17037436D01*
X2455777Y-17037436D02*
X2446253Y-17018389D01*
X2446253Y-17018389D02*
X2436729Y-16980293D01*
X2436729Y-16980293D02*
X2436729Y-16932674D01*
X2436729Y-16932674D02*
X2446253Y-16894579D01*
X2446253Y-16894579D02*
X2455777Y-16875531D01*
X2455777Y-16875531D02*
X2465301Y-16866008D01*
X2465301Y-16866008D02*
X2484348Y-16856484D01*
X2617682Y-16856484D02*
X2741491Y-16856484D01*
X2741491Y-16856484D02*
X2674825Y-16932674D01*
X2674825Y-16932674D02*
X2703396Y-16932674D01*
X2703396Y-16932674D02*
X2722444Y-16942198D01*
X2722444Y-16942198D02*
X2731968Y-16951722D01*
X2731968Y-16951722D02*
X2741491Y-16970770D01*
X2741491Y-16970770D02*
X2741491Y-17018389D01*
X2741491Y-17018389D02*
X2731968Y-17037436D01*
X2731968Y-17037436D02*
X2722444Y-17046960D01*
X2722444Y-17046960D02*
X2703396Y-17056484D01*
X2703396Y-17056484D02*
X2646253Y-17056484D01*
X2646253Y-17056484D02*
X2627206Y-17046960D01*
X2627206Y-17046960D02*
X2617682Y-17037436D01*
X2836729Y-17056484D02*
X2874825Y-17056484D01*
X2874825Y-17056484D02*
X2893872Y-17046960D01*
X2893872Y-17046960D02*
X2903396Y-17037436D01*
X2903396Y-17037436D02*
X2922444Y-17008865D01*
X2922444Y-17008865D02*
X2931967Y-16970770D01*
X2931967Y-16970770D02*
X2931967Y-16894579D01*
X2931967Y-16894579D02*
X2922444Y-16875531D01*
X2922444Y-16875531D02*
X2912920Y-16866008D01*
X2912920Y-16866008D02*
X2893872Y-16856484D01*
X2893872Y-16856484D02*
X2855777Y-16856484D01*
X2855777Y-16856484D02*
X2836729Y-16866008D01*
X2836729Y-16866008D02*
X2827206Y-16875531D01*
X2827206Y-16875531D02*
X2817682Y-16894579D01*
X2817682Y-16894579D02*
X2817682Y-16942198D01*
X2817682Y-16942198D02*
X2827206Y-16961246D01*
X2827206Y-16961246D02*
X2836729Y-16970770D01*
X2836729Y-16970770D02*
X2855777Y-16980293D01*
X2855777Y-16980293D02*
X2893872Y-16980293D01*
X2893872Y-16980293D02*
X2912920Y-16970770D01*
X2912920Y-16970770D02*
X2922444Y-16961246D01*
X2922444Y-16961246D02*
X2931967Y-16942198D01*
X3103396Y-16923150D02*
X3103396Y-17056484D01*
X3055777Y-16846960D02*
X3008158Y-16989817D01*
X3008158Y-16989817D02*
X3131967Y-16989817D01*
X3198634Y-16856484D02*
X3198634Y-16894579D01*
X3274825Y-16856484D02*
X3274825Y-16894579D01*
X3570063Y-17132674D02*
X3560539Y-17123150D01*
X3560539Y-17123150D02*
X3541491Y-17094579D01*
X3541491Y-17094579D02*
X3531968Y-17075531D01*
X3531968Y-17075531D02*
X3522444Y-17046960D01*
X3522444Y-17046960D02*
X3512920Y-16999341D01*
X3512920Y-16999341D02*
X3512920Y-16961246D01*
X3512920Y-16961246D02*
X3522444Y-16913627D01*
X3522444Y-16913627D02*
X3531968Y-16885055D01*
X3531968Y-16885055D02*
X3541491Y-16866008D01*
X3541491Y-16866008D02*
X3560539Y-16837436D01*
X3560539Y-16837436D02*
X3570063Y-16827912D01*
X3751015Y-17056484D02*
X3636729Y-17056484D01*
X3693872Y-17056484D02*
X3693872Y-16856484D01*
X3693872Y-16856484D02*
X3674825Y-16885055D01*
X3674825Y-16885055D02*
X3655777Y-16904103D01*
X3655777Y-16904103D02*
X3636729Y-16913627D01*
X3922444Y-16923150D02*
X3922444Y-17056484D01*
X3874825Y-16846960D02*
X3827206Y-16989817D01*
X3827206Y-16989817D02*
X3951015Y-16989817D01*
X4179587Y-17056484D02*
X4179587Y-16856484D01*
X4265301Y-17056484D02*
X4265301Y-16951722D01*
X4265301Y-16951722D02*
X4255777Y-16932674D01*
X4255777Y-16932674D02*
X4236730Y-16923150D01*
X4236730Y-16923150D02*
X4208158Y-16923150D01*
X4208158Y-16923150D02*
X4189110Y-16932674D01*
X4189110Y-16932674D02*
X4179587Y-16942198D01*
X4389111Y-17056484D02*
X4370063Y-17046960D01*
X4370063Y-17046960D02*
X4360539Y-17037436D01*
X4360539Y-17037436D02*
X4351015Y-17018389D01*
X4351015Y-17018389D02*
X4351015Y-16961246D01*
X4351015Y-16961246D02*
X4360539Y-16942198D01*
X4360539Y-16942198D02*
X4370063Y-16932674D01*
X4370063Y-16932674D02*
X4389111Y-16923150D01*
X4389111Y-16923150D02*
X4417682Y-16923150D01*
X4417682Y-16923150D02*
X4436730Y-16932674D01*
X4436730Y-16932674D02*
X4446253Y-16942198D01*
X4446253Y-16942198D02*
X4455777Y-16961246D01*
X4455777Y-16961246D02*
X4455777Y-17018389D01*
X4455777Y-17018389D02*
X4446253Y-17037436D01*
X4446253Y-17037436D02*
X4436730Y-17046960D01*
X4436730Y-17046960D02*
X4417682Y-17056484D01*
X4417682Y-17056484D02*
X4389111Y-17056484D01*
X4570063Y-17056484D02*
X4551015Y-17046960D01*
X4551015Y-17046960D02*
X4541492Y-17027912D01*
X4541492Y-17027912D02*
X4541492Y-16856484D01*
X4722444Y-17046960D02*
X4703396Y-17056484D01*
X4703396Y-17056484D02*
X4665301Y-17056484D01*
X4665301Y-17056484D02*
X4646253Y-17046960D01*
X4646253Y-17046960D02*
X4636730Y-17027912D01*
X4636730Y-17027912D02*
X4636730Y-16951722D01*
X4636730Y-16951722D02*
X4646253Y-16932674D01*
X4646253Y-16932674D02*
X4665301Y-16923150D01*
X4665301Y-16923150D02*
X4703396Y-16923150D01*
X4703396Y-16923150D02*
X4722444Y-16932674D01*
X4722444Y-16932674D02*
X4731968Y-16951722D01*
X4731968Y-16951722D02*
X4731968Y-16970770D01*
X4731968Y-16970770D02*
X4636730Y-16989817D01*
X4808158Y-17046960D02*
X4827206Y-17056484D01*
X4827206Y-17056484D02*
X4865301Y-17056484D01*
X4865301Y-17056484D02*
X4884349Y-17046960D01*
X4884349Y-17046960D02*
X4893873Y-17027912D01*
X4893873Y-17027912D02*
X4893873Y-17018389D01*
X4893873Y-17018389D02*
X4884349Y-16999341D01*
X4884349Y-16999341D02*
X4865301Y-16989817D01*
X4865301Y-16989817D02*
X4836730Y-16989817D01*
X4836730Y-16989817D02*
X4817682Y-16980293D01*
X4817682Y-16980293D02*
X4808158Y-16961246D01*
X4808158Y-16961246D02*
X4808158Y-16951722D01*
X4808158Y-16951722D02*
X4817682Y-16932674D01*
X4817682Y-16932674D02*
X4836730Y-16923150D01*
X4836730Y-16923150D02*
X4865301Y-16923150D01*
X4865301Y-16923150D02*
X4884349Y-16932674D01*
X4960539Y-17132674D02*
X4970063Y-17123150D01*
X4970063Y-17123150D02*
X4989111Y-17094579D01*
X4989111Y-17094579D02*
X4998634Y-17075531D01*
X4998634Y-17075531D02*
X5008158Y-17046960D01*
X5008158Y-17046960D02*
X5017682Y-16999341D01*
X5017682Y-16999341D02*
X5017682Y-16961246D01*
X5017682Y-16961246D02*
X5008158Y-16913627D01*
X5008158Y-16913627D02*
X4998634Y-16885055D01*
X4998634Y-16885055D02*
X4989111Y-16866008D01*
X4989111Y-16866008D02*
X4970063Y-16837436D01*
X4970063Y-16837436D02*
X4960539Y-16827912D01*
D10*
X-55000Y-17204000D02*
X-5000Y-17254000D01*
X-5000Y-17204000D02*
X-55000Y-17254000D01*
X-30000Y-17204000D02*
X-30000Y-17254000D01*
X-55000Y-17229000D02*
X-5000Y-17229000D01*
D11*
X293872Y-17120484D02*
X312920Y-17120484D01*
X312920Y-17120484D02*
X331967Y-17130008D01*
X331967Y-17130008D02*
X341491Y-17139531D01*
X341491Y-17139531D02*
X351015Y-17158579D01*
X351015Y-17158579D02*
X360539Y-17196674D01*
X360539Y-17196674D02*
X360539Y-17244293D01*
X360539Y-17244293D02*
X351015Y-17282389D01*
X351015Y-17282389D02*
X341491Y-17301436D01*
X341491Y-17301436D02*
X331967Y-17310960D01*
X331967Y-17310960D02*
X312920Y-17320484D01*
X312920Y-17320484D02*
X293872Y-17320484D01*
X293872Y-17320484D02*
X274824Y-17310960D01*
X274824Y-17310960D02*
X265301Y-17301436D01*
X265301Y-17301436D02*
X255777Y-17282389D01*
X255777Y-17282389D02*
X246253Y-17244293D01*
X246253Y-17244293D02*
X246253Y-17196674D01*
X246253Y-17196674D02*
X255777Y-17158579D01*
X255777Y-17158579D02*
X265301Y-17139531D01*
X265301Y-17139531D02*
X274824Y-17130008D01*
X274824Y-17130008D02*
X293872Y-17120484D01*
X446253Y-17301436D02*
X455777Y-17310960D01*
X455777Y-17310960D02*
X446253Y-17320484D01*
X446253Y-17320484D02*
X436729Y-17310960D01*
X436729Y-17310960D02*
X446253Y-17301436D01*
X446253Y-17301436D02*
X446253Y-17320484D01*
X636729Y-17120484D02*
X541491Y-17120484D01*
X541491Y-17120484D02*
X531967Y-17215722D01*
X531967Y-17215722D02*
X541491Y-17206198D01*
X541491Y-17206198D02*
X560539Y-17196674D01*
X560539Y-17196674D02*
X608158Y-17196674D01*
X608158Y-17196674D02*
X627205Y-17206198D01*
X627205Y-17206198D02*
X636729Y-17215722D01*
X636729Y-17215722D02*
X646253Y-17234770D01*
X646253Y-17234770D02*
X646253Y-17282389D01*
X646253Y-17282389D02*
X636729Y-17301436D01*
X636729Y-17301436D02*
X627205Y-17310960D01*
X627205Y-17310960D02*
X608158Y-17320484D01*
X608158Y-17320484D02*
X560539Y-17320484D01*
X560539Y-17320484D02*
X541491Y-17310960D01*
X541491Y-17310960D02*
X531967Y-17301436D01*
X770062Y-17120484D02*
X789110Y-17120484D01*
X789110Y-17120484D02*
X808158Y-17130008D01*
X808158Y-17130008D02*
X817682Y-17139531D01*
X817682Y-17139531D02*
X827205Y-17158579D01*
X827205Y-17158579D02*
X836729Y-17196674D01*
X836729Y-17196674D02*
X836729Y-17244293D01*
X836729Y-17244293D02*
X827205Y-17282389D01*
X827205Y-17282389D02*
X817682Y-17301436D01*
X817682Y-17301436D02*
X808158Y-17310960D01*
X808158Y-17310960D02*
X789110Y-17320484D01*
X789110Y-17320484D02*
X770062Y-17320484D01*
X770062Y-17320484D02*
X751015Y-17310960D01*
X751015Y-17310960D02*
X741491Y-17301436D01*
X741491Y-17301436D02*
X731967Y-17282389D01*
X731967Y-17282389D02*
X722443Y-17244293D01*
X722443Y-17244293D02*
X722443Y-17196674D01*
X722443Y-17196674D02*
X731967Y-17158579D01*
X731967Y-17158579D02*
X741491Y-17139531D01*
X741491Y-17139531D02*
X751015Y-17130008D01*
X751015Y-17130008D02*
X770062Y-17120484D01*
X960539Y-17120484D02*
X979586Y-17120484D01*
X979586Y-17120484D02*
X998634Y-17130008D01*
X998634Y-17130008D02*
X1008158Y-17139531D01*
X1008158Y-17139531D02*
X1017682Y-17158579D01*
X1017682Y-17158579D02*
X1027205Y-17196674D01*
X1027205Y-17196674D02*
X1027205Y-17244293D01*
X1027205Y-17244293D02*
X1017682Y-17282389D01*
X1017682Y-17282389D02*
X1008158Y-17301436D01*
X1008158Y-17301436D02*
X998634Y-17310960D01*
X998634Y-17310960D02*
X979586Y-17320484D01*
X979586Y-17320484D02*
X960539Y-17320484D01*
X960539Y-17320484D02*
X941491Y-17310960D01*
X941491Y-17310960D02*
X931967Y-17301436D01*
X931967Y-17301436D02*
X922443Y-17282389D01*
X922443Y-17282389D02*
X912920Y-17244293D01*
X912920Y-17244293D02*
X912920Y-17196674D01*
X912920Y-17196674D02*
X922443Y-17158579D01*
X922443Y-17158579D02*
X931967Y-17139531D01*
X931967Y-17139531D02*
X941491Y-17130008D01*
X941491Y-17130008D02*
X960539Y-17120484D01*
X1112920Y-17320484D02*
X1112920Y-17187150D01*
X1112920Y-17206198D02*
X1122444Y-17196674D01*
X1122444Y-17196674D02*
X1141491Y-17187150D01*
X1141491Y-17187150D02*
X1170063Y-17187150D01*
X1170063Y-17187150D02*
X1189110Y-17196674D01*
X1189110Y-17196674D02*
X1198634Y-17215722D01*
X1198634Y-17215722D02*
X1198634Y-17320484D01*
X1198634Y-17215722D02*
X1208158Y-17196674D01*
X1208158Y-17196674D02*
X1227205Y-17187150D01*
X1227205Y-17187150D02*
X1255777Y-17187150D01*
X1255777Y-17187150D02*
X1274825Y-17196674D01*
X1274825Y-17196674D02*
X1284348Y-17215722D01*
X1284348Y-17215722D02*
X1284348Y-17320484D01*
X1379586Y-17320484D02*
X1379586Y-17187150D01*
X1379586Y-17206198D02*
X1389110Y-17196674D01*
X1389110Y-17196674D02*
X1408158Y-17187150D01*
X1408158Y-17187150D02*
X1436729Y-17187150D01*
X1436729Y-17187150D02*
X1455777Y-17196674D01*
X1455777Y-17196674D02*
X1465301Y-17215722D01*
X1465301Y-17215722D02*
X1465301Y-17320484D01*
X1465301Y-17215722D02*
X1474824Y-17196674D01*
X1474824Y-17196674D02*
X1493872Y-17187150D01*
X1493872Y-17187150D02*
X1522443Y-17187150D01*
X1522443Y-17187150D02*
X1541491Y-17196674D01*
X1541491Y-17196674D02*
X1551015Y-17215722D01*
X1551015Y-17215722D02*
X1551015Y-17320484D01*
X1941491Y-17110960D02*
X1770063Y-17368103D01*
X2198634Y-17120484D02*
X2217682Y-17120484D01*
X2217682Y-17120484D02*
X2236729Y-17130008D01*
X2236729Y-17130008D02*
X2246253Y-17139531D01*
X2246253Y-17139531D02*
X2255777Y-17158579D01*
X2255777Y-17158579D02*
X2265301Y-17196674D01*
X2265301Y-17196674D02*
X2265301Y-17244293D01*
X2265301Y-17244293D02*
X2255777Y-17282389D01*
X2255777Y-17282389D02*
X2246253Y-17301436D01*
X2246253Y-17301436D02*
X2236729Y-17310960D01*
X2236729Y-17310960D02*
X2217682Y-17320484D01*
X2217682Y-17320484D02*
X2198634Y-17320484D01*
X2198634Y-17320484D02*
X2179587Y-17310960D01*
X2179587Y-17310960D02*
X2170063Y-17301436D01*
X2170063Y-17301436D02*
X2160539Y-17282389D01*
X2160539Y-17282389D02*
X2151015Y-17244293D01*
X2151015Y-17244293D02*
X2151015Y-17196674D01*
X2151015Y-17196674D02*
X2160539Y-17158579D01*
X2160539Y-17158579D02*
X2170063Y-17139531D01*
X2170063Y-17139531D02*
X2179587Y-17130008D01*
X2179587Y-17130008D02*
X2198634Y-17120484D01*
X2351015Y-17301436D02*
X2360539Y-17310960D01*
X2360539Y-17310960D02*
X2351015Y-17320484D01*
X2351015Y-17320484D02*
X2341491Y-17310960D01*
X2341491Y-17310960D02*
X2351015Y-17301436D01*
X2351015Y-17301436D02*
X2351015Y-17320484D01*
X2484348Y-17120484D02*
X2503396Y-17120484D01*
X2503396Y-17120484D02*
X2522444Y-17130008D01*
X2522444Y-17130008D02*
X2531968Y-17139531D01*
X2531968Y-17139531D02*
X2541491Y-17158579D01*
X2541491Y-17158579D02*
X2551015Y-17196674D01*
X2551015Y-17196674D02*
X2551015Y-17244293D01*
X2551015Y-17244293D02*
X2541491Y-17282389D01*
X2541491Y-17282389D02*
X2531968Y-17301436D01*
X2531968Y-17301436D02*
X2522444Y-17310960D01*
X2522444Y-17310960D02*
X2503396Y-17320484D01*
X2503396Y-17320484D02*
X2484348Y-17320484D01*
X2484348Y-17320484D02*
X2465301Y-17310960D01*
X2465301Y-17310960D02*
X2455777Y-17301436D01*
X2455777Y-17301436D02*
X2446253Y-17282389D01*
X2446253Y-17282389D02*
X2436729Y-17244293D01*
X2436729Y-17244293D02*
X2436729Y-17196674D01*
X2436729Y-17196674D02*
X2446253Y-17158579D01*
X2446253Y-17158579D02*
X2455777Y-17139531D01*
X2455777Y-17139531D02*
X2465301Y-17130008D01*
X2465301Y-17130008D02*
X2484348Y-17120484D01*
X2741491Y-17320484D02*
X2627206Y-17320484D01*
X2684348Y-17320484D02*
X2684348Y-17120484D01*
X2684348Y-17120484D02*
X2665301Y-17149055D01*
X2665301Y-17149055D02*
X2646253Y-17168103D01*
X2646253Y-17168103D02*
X2627206Y-17177627D01*
X2836729Y-17320484D02*
X2874825Y-17320484D01*
X2874825Y-17320484D02*
X2893872Y-17310960D01*
X2893872Y-17310960D02*
X2903396Y-17301436D01*
X2903396Y-17301436D02*
X2922444Y-17272865D01*
X2922444Y-17272865D02*
X2931967Y-17234770D01*
X2931967Y-17234770D02*
X2931967Y-17158579D01*
X2931967Y-17158579D02*
X2922444Y-17139531D01*
X2922444Y-17139531D02*
X2912920Y-17130008D01*
X2912920Y-17130008D02*
X2893872Y-17120484D01*
X2893872Y-17120484D02*
X2855777Y-17120484D01*
X2855777Y-17120484D02*
X2836729Y-17130008D01*
X2836729Y-17130008D02*
X2827206Y-17139531D01*
X2827206Y-17139531D02*
X2817682Y-17158579D01*
X2817682Y-17158579D02*
X2817682Y-17206198D01*
X2817682Y-17206198D02*
X2827206Y-17225246D01*
X2827206Y-17225246D02*
X2836729Y-17234770D01*
X2836729Y-17234770D02*
X2855777Y-17244293D01*
X2855777Y-17244293D02*
X2893872Y-17244293D01*
X2893872Y-17244293D02*
X2912920Y-17234770D01*
X2912920Y-17234770D02*
X2922444Y-17225246D01*
X2922444Y-17225246D02*
X2931967Y-17206198D01*
X2998634Y-17120484D02*
X3131967Y-17120484D01*
X3131967Y-17120484D02*
X3046253Y-17320484D01*
X3198634Y-17120484D02*
X3198634Y-17158579D01*
X3274825Y-17120484D02*
X3274825Y-17158579D01*
X3570063Y-17396674D02*
X3560539Y-17387150D01*
X3560539Y-17387150D02*
X3541491Y-17358579D01*
X3541491Y-17358579D02*
X3531968Y-17339531D01*
X3531968Y-17339531D02*
X3522444Y-17310960D01*
X3522444Y-17310960D02*
X3512920Y-17263341D01*
X3512920Y-17263341D02*
X3512920Y-17225246D01*
X3512920Y-17225246D02*
X3522444Y-17177627D01*
X3522444Y-17177627D02*
X3531968Y-17149055D01*
X3531968Y-17149055D02*
X3541491Y-17130008D01*
X3541491Y-17130008D02*
X3560539Y-17101436D01*
X3560539Y-17101436D02*
X3570063Y-17091912D01*
X3751015Y-17320484D02*
X3636729Y-17320484D01*
X3693872Y-17320484D02*
X3693872Y-17120484D01*
X3693872Y-17120484D02*
X3674825Y-17149055D01*
X3674825Y-17149055D02*
X3655777Y-17168103D01*
X3655777Y-17168103D02*
X3636729Y-17177627D01*
X3989110Y-17320484D02*
X3989110Y-17120484D01*
X4074825Y-17320484D02*
X4074825Y-17215722D01*
X4074825Y-17215722D02*
X4065301Y-17196674D01*
X4065301Y-17196674D02*
X4046253Y-17187150D01*
X4046253Y-17187150D02*
X4017682Y-17187150D01*
X4017682Y-17187150D02*
X3998634Y-17196674D01*
X3998634Y-17196674D02*
X3989110Y-17206198D01*
X4198634Y-17320484D02*
X4179587Y-17310960D01*
X4179587Y-17310960D02*
X4170063Y-17301436D01*
X4170063Y-17301436D02*
X4160539Y-17282389D01*
X4160539Y-17282389D02*
X4160539Y-17225246D01*
X4160539Y-17225246D02*
X4170063Y-17206198D01*
X4170063Y-17206198D02*
X4179587Y-17196674D01*
X4179587Y-17196674D02*
X4198634Y-17187150D01*
X4198634Y-17187150D02*
X4227206Y-17187150D01*
X4227206Y-17187150D02*
X4246253Y-17196674D01*
X4246253Y-17196674D02*
X4255777Y-17206198D01*
X4255777Y-17206198D02*
X4265301Y-17225246D01*
X4265301Y-17225246D02*
X4265301Y-17282389D01*
X4265301Y-17282389D02*
X4255777Y-17301436D01*
X4255777Y-17301436D02*
X4246253Y-17310960D01*
X4246253Y-17310960D02*
X4227206Y-17320484D01*
X4227206Y-17320484D02*
X4198634Y-17320484D01*
X4379587Y-17320484D02*
X4360539Y-17310960D01*
X4360539Y-17310960D02*
X4351015Y-17291912D01*
X4351015Y-17291912D02*
X4351015Y-17120484D01*
X4531968Y-17310960D02*
X4512920Y-17320484D01*
X4512920Y-17320484D02*
X4474825Y-17320484D01*
X4474825Y-17320484D02*
X4455777Y-17310960D01*
X4455777Y-17310960D02*
X4446253Y-17291912D01*
X4446253Y-17291912D02*
X4446253Y-17215722D01*
X4446253Y-17215722D02*
X4455777Y-17196674D01*
X4455777Y-17196674D02*
X4474825Y-17187150D01*
X4474825Y-17187150D02*
X4512920Y-17187150D01*
X4512920Y-17187150D02*
X4531968Y-17196674D01*
X4531968Y-17196674D02*
X4541492Y-17215722D01*
X4541492Y-17215722D02*
X4541492Y-17234770D01*
X4541492Y-17234770D02*
X4446253Y-17253817D01*
X4608158Y-17396674D02*
X4617682Y-17387150D01*
X4617682Y-17387150D02*
X4636730Y-17358579D01*
X4636730Y-17358579D02*
X4646253Y-17339531D01*
X4646253Y-17339531D02*
X4655777Y-17310960D01*
X4655777Y-17310960D02*
X4665301Y-17263341D01*
X4665301Y-17263341D02*
X4665301Y-17225246D01*
X4665301Y-17225246D02*
X4655777Y-17177627D01*
X4655777Y-17177627D02*
X4646253Y-17149055D01*
X4646253Y-17149055D02*
X4636730Y-17130008D01*
X4636730Y-17130008D02*
X4617682Y-17101436D01*
X4617682Y-17101436D02*
X4608158Y-17091912D01*
X4970063Y-17396674D02*
X4960539Y-17387150D01*
X4960539Y-17387150D02*
X4941492Y-17358579D01*
X4941492Y-17358579D02*
X4931968Y-17339531D01*
X4931968Y-17339531D02*
X4922444Y-17310960D01*
X4922444Y-17310960D02*
X4912920Y-17263341D01*
X4912920Y-17263341D02*
X4912920Y-17225246D01*
X4912920Y-17225246D02*
X4922444Y-17177627D01*
X4922444Y-17177627D02*
X4931968Y-17149055D01*
X4931968Y-17149055D02*
X4941492Y-17130008D01*
X4941492Y-17130008D02*
X4960539Y-17101436D01*
X4960539Y-17101436D02*
X4970063Y-17091912D01*
X5046253Y-17187150D02*
X5046253Y-17320484D01*
X5046253Y-17206198D02*
X5055777Y-17196674D01*
X5055777Y-17196674D02*
X5074825Y-17187150D01*
X5074825Y-17187150D02*
X5103396Y-17187150D01*
X5103396Y-17187150D02*
X5122444Y-17196674D01*
X5122444Y-17196674D02*
X5131968Y-17215722D01*
X5131968Y-17215722D02*
X5131968Y-17320484D01*
X5255777Y-17320484D02*
X5236730Y-17310960D01*
X5236730Y-17310960D02*
X5227206Y-17301436D01*
X5227206Y-17301436D02*
X5217682Y-17282389D01*
X5217682Y-17282389D02*
X5217682Y-17225246D01*
X5217682Y-17225246D02*
X5227206Y-17206198D01*
X5227206Y-17206198D02*
X5236730Y-17196674D01*
X5236730Y-17196674D02*
X5255777Y-17187150D01*
X5255777Y-17187150D02*
X5284349Y-17187150D01*
X5284349Y-17187150D02*
X5303396Y-17196674D01*
X5303396Y-17196674D02*
X5312920Y-17206198D01*
X5312920Y-17206198D02*
X5322444Y-17225246D01*
X5322444Y-17225246D02*
X5322444Y-17282389D01*
X5322444Y-17282389D02*
X5312920Y-17301436D01*
X5312920Y-17301436D02*
X5303396Y-17310960D01*
X5303396Y-17310960D02*
X5284349Y-17320484D01*
X5284349Y-17320484D02*
X5255777Y-17320484D01*
X5379587Y-17187150D02*
X5455777Y-17187150D01*
X5408158Y-17120484D02*
X5408158Y-17291912D01*
X5408158Y-17291912D02*
X5417682Y-17310960D01*
X5417682Y-17310960D02*
X5436730Y-17320484D01*
X5436730Y-17320484D02*
X5455777Y-17320484D01*
X5674825Y-17187150D02*
X5674825Y-17387150D01*
X5674825Y-17196674D02*
X5693872Y-17187150D01*
X5693872Y-17187150D02*
X5731968Y-17187150D01*
X5731968Y-17187150D02*
X5751015Y-17196674D01*
X5751015Y-17196674D02*
X5760539Y-17206198D01*
X5760539Y-17206198D02*
X5770063Y-17225246D01*
X5770063Y-17225246D02*
X5770063Y-17282389D01*
X5770063Y-17282389D02*
X5760539Y-17301436D01*
X5760539Y-17301436D02*
X5751015Y-17310960D01*
X5751015Y-17310960D02*
X5731968Y-17320484D01*
X5731968Y-17320484D02*
X5693872Y-17320484D01*
X5693872Y-17320484D02*
X5674825Y-17310960D01*
X5884349Y-17320484D02*
X5865301Y-17310960D01*
X5865301Y-17310960D02*
X5855777Y-17291912D01*
X5855777Y-17291912D02*
X5855777Y-17120484D01*
X6046253Y-17320484D02*
X6046253Y-17215722D01*
X6046253Y-17215722D02*
X6036730Y-17196674D01*
X6036730Y-17196674D02*
X6017682Y-17187150D01*
X6017682Y-17187150D02*
X5979587Y-17187150D01*
X5979587Y-17187150D02*
X5960539Y-17196674D01*
X6046253Y-17310960D02*
X6027206Y-17320484D01*
X6027206Y-17320484D02*
X5979587Y-17320484D01*
X5979587Y-17320484D02*
X5960539Y-17310960D01*
X5960539Y-17310960D02*
X5951015Y-17291912D01*
X5951015Y-17291912D02*
X5951015Y-17272865D01*
X5951015Y-17272865D02*
X5960539Y-17253817D01*
X5960539Y-17253817D02*
X5979587Y-17244293D01*
X5979587Y-17244293D02*
X6027206Y-17244293D01*
X6027206Y-17244293D02*
X6046253Y-17234770D01*
X6112920Y-17187150D02*
X6189111Y-17187150D01*
X6141492Y-17120484D02*
X6141492Y-17291912D01*
X6141492Y-17291912D02*
X6151015Y-17310960D01*
X6151015Y-17310960D02*
X6170063Y-17320484D01*
X6170063Y-17320484D02*
X6189111Y-17320484D01*
X6331968Y-17310960D02*
X6312920Y-17320484D01*
X6312920Y-17320484D02*
X6274825Y-17320484D01*
X6274825Y-17320484D02*
X6255777Y-17310960D01*
X6255777Y-17310960D02*
X6246253Y-17291912D01*
X6246253Y-17291912D02*
X6246253Y-17215722D01*
X6246253Y-17215722D02*
X6255777Y-17196674D01*
X6255777Y-17196674D02*
X6274825Y-17187150D01*
X6274825Y-17187150D02*
X6312920Y-17187150D01*
X6312920Y-17187150D02*
X6331968Y-17196674D01*
X6331968Y-17196674D02*
X6341492Y-17215722D01*
X6341492Y-17215722D02*
X6341492Y-17234770D01*
X6341492Y-17234770D02*
X6246253Y-17253817D01*
X6512920Y-17320484D02*
X6512920Y-17120484D01*
X6512920Y-17310960D02*
X6493873Y-17320484D01*
X6493873Y-17320484D02*
X6455777Y-17320484D01*
X6455777Y-17320484D02*
X6436730Y-17310960D01*
X6436730Y-17310960D02*
X6427206Y-17301436D01*
X6427206Y-17301436D02*
X6417682Y-17282389D01*
X6417682Y-17282389D02*
X6417682Y-17225246D01*
X6417682Y-17225246D02*
X6427206Y-17206198D01*
X6427206Y-17206198D02*
X6436730Y-17196674D01*
X6436730Y-17196674D02*
X6455777Y-17187150D01*
X6455777Y-17187150D02*
X6493873Y-17187150D01*
X6493873Y-17187150D02*
X6512920Y-17196674D01*
X6589111Y-17396674D02*
X6598634Y-17387150D01*
X6598634Y-17387150D02*
X6617682Y-17358579D01*
X6617682Y-17358579D02*
X6627206Y-17339531D01*
X6627206Y-17339531D02*
X6636730Y-17310960D01*
X6636730Y-17310960D02*
X6646253Y-17263341D01*
X6646253Y-17263341D02*
X6646253Y-17225246D01*
X6646253Y-17225246D02*
X6636730Y-17177627D01*
X6636730Y-17177627D02*
X6627206Y-17149055D01*
X6627206Y-17149055D02*
X6617682Y-17130008D01*
X6617682Y-17130008D02*
X6598634Y-17101436D01*
X6598634Y-17101436D02*
X6589111Y-17091912D01*
D10*
X-70000Y-17460500D02*
X-5000Y-17525500D01*
X-5000Y-17460500D02*
X-70000Y-17525500D01*
X-14519Y-17515981D02*
X-14519Y-17470019D01*
X-60481Y-17470019D01*
X-60481Y-17515981D01*
X-14519Y-17515981D01*
D11*
X293872Y-17384484D02*
X312920Y-17384484D01*
X312920Y-17384484D02*
X331967Y-17394008D01*
X331967Y-17394008D02*
X341491Y-17403531D01*
X341491Y-17403531D02*
X351015Y-17422579D01*
X351015Y-17422579D02*
X360539Y-17460674D01*
X360539Y-17460674D02*
X360539Y-17508293D01*
X360539Y-17508293D02*
X351015Y-17546389D01*
X351015Y-17546389D02*
X341491Y-17565436D01*
X341491Y-17565436D02*
X331967Y-17574960D01*
X331967Y-17574960D02*
X312920Y-17584484D01*
X312920Y-17584484D02*
X293872Y-17584484D01*
X293872Y-17584484D02*
X274824Y-17574960D01*
X274824Y-17574960D02*
X265301Y-17565436D01*
X265301Y-17565436D02*
X255777Y-17546389D01*
X255777Y-17546389D02*
X246253Y-17508293D01*
X246253Y-17508293D02*
X246253Y-17460674D01*
X246253Y-17460674D02*
X255777Y-17422579D01*
X255777Y-17422579D02*
X265301Y-17403531D01*
X265301Y-17403531D02*
X274824Y-17394008D01*
X274824Y-17394008D02*
X293872Y-17384484D01*
X446253Y-17565436D02*
X455777Y-17574960D01*
X455777Y-17574960D02*
X446253Y-17584484D01*
X446253Y-17584484D02*
X436729Y-17574960D01*
X436729Y-17574960D02*
X446253Y-17565436D01*
X446253Y-17565436D02*
X446253Y-17584484D01*
X627205Y-17384484D02*
X589110Y-17384484D01*
X589110Y-17384484D02*
X570063Y-17394008D01*
X570063Y-17394008D02*
X560539Y-17403531D01*
X560539Y-17403531D02*
X541491Y-17432103D01*
X541491Y-17432103D02*
X531967Y-17470198D01*
X531967Y-17470198D02*
X531967Y-17546389D01*
X531967Y-17546389D02*
X541491Y-17565436D01*
X541491Y-17565436D02*
X551015Y-17574960D01*
X551015Y-17574960D02*
X570063Y-17584484D01*
X570063Y-17584484D02*
X608158Y-17584484D01*
X608158Y-17584484D02*
X627205Y-17574960D01*
X627205Y-17574960D02*
X636729Y-17565436D01*
X636729Y-17565436D02*
X646253Y-17546389D01*
X646253Y-17546389D02*
X646253Y-17498770D01*
X646253Y-17498770D02*
X636729Y-17479722D01*
X636729Y-17479722D02*
X627205Y-17470198D01*
X627205Y-17470198D02*
X608158Y-17460674D01*
X608158Y-17460674D02*
X570063Y-17460674D01*
X570063Y-17460674D02*
X551015Y-17470198D01*
X551015Y-17470198D02*
X541491Y-17479722D01*
X541491Y-17479722D02*
X531967Y-17498770D01*
X827205Y-17384484D02*
X731967Y-17384484D01*
X731967Y-17384484D02*
X722443Y-17479722D01*
X722443Y-17479722D02*
X731967Y-17470198D01*
X731967Y-17470198D02*
X751015Y-17460674D01*
X751015Y-17460674D02*
X798634Y-17460674D01*
X798634Y-17460674D02*
X817682Y-17470198D01*
X817682Y-17470198D02*
X827205Y-17479722D01*
X827205Y-17479722D02*
X836729Y-17498770D01*
X836729Y-17498770D02*
X836729Y-17546389D01*
X836729Y-17546389D02*
X827205Y-17565436D01*
X827205Y-17565436D02*
X817682Y-17574960D01*
X817682Y-17574960D02*
X798634Y-17584484D01*
X798634Y-17584484D02*
X751015Y-17584484D01*
X751015Y-17584484D02*
X731967Y-17574960D01*
X731967Y-17574960D02*
X722443Y-17565436D01*
X960539Y-17384484D02*
X979586Y-17384484D01*
X979586Y-17384484D02*
X998634Y-17394008D01*
X998634Y-17394008D02*
X1008158Y-17403531D01*
X1008158Y-17403531D02*
X1017682Y-17422579D01*
X1017682Y-17422579D02*
X1027205Y-17460674D01*
X1027205Y-17460674D02*
X1027205Y-17508293D01*
X1027205Y-17508293D02*
X1017682Y-17546389D01*
X1017682Y-17546389D02*
X1008158Y-17565436D01*
X1008158Y-17565436D02*
X998634Y-17574960D01*
X998634Y-17574960D02*
X979586Y-17584484D01*
X979586Y-17584484D02*
X960539Y-17584484D01*
X960539Y-17584484D02*
X941491Y-17574960D01*
X941491Y-17574960D02*
X931967Y-17565436D01*
X931967Y-17565436D02*
X922443Y-17546389D01*
X922443Y-17546389D02*
X912920Y-17508293D01*
X912920Y-17508293D02*
X912920Y-17460674D01*
X912920Y-17460674D02*
X922443Y-17422579D01*
X922443Y-17422579D02*
X931967Y-17403531D01*
X931967Y-17403531D02*
X941491Y-17394008D01*
X941491Y-17394008D02*
X960539Y-17384484D01*
X1112920Y-17584484D02*
X1112920Y-17451150D01*
X1112920Y-17470198D02*
X1122444Y-17460674D01*
X1122444Y-17460674D02*
X1141491Y-17451150D01*
X1141491Y-17451150D02*
X1170063Y-17451150D01*
X1170063Y-17451150D02*
X1189110Y-17460674D01*
X1189110Y-17460674D02*
X1198634Y-17479722D01*
X1198634Y-17479722D02*
X1198634Y-17584484D01*
X1198634Y-17479722D02*
X1208158Y-17460674D01*
X1208158Y-17460674D02*
X1227205Y-17451150D01*
X1227205Y-17451150D02*
X1255777Y-17451150D01*
X1255777Y-17451150D02*
X1274825Y-17460674D01*
X1274825Y-17460674D02*
X1284348Y-17479722D01*
X1284348Y-17479722D02*
X1284348Y-17584484D01*
X1379586Y-17584484D02*
X1379586Y-17451150D01*
X1379586Y-17470198D02*
X1389110Y-17460674D01*
X1389110Y-17460674D02*
X1408158Y-17451150D01*
X1408158Y-17451150D02*
X1436729Y-17451150D01*
X1436729Y-17451150D02*
X1455777Y-17460674D01*
X1455777Y-17460674D02*
X1465301Y-17479722D01*
X1465301Y-17479722D02*
X1465301Y-17584484D01*
X1465301Y-17479722D02*
X1474824Y-17460674D01*
X1474824Y-17460674D02*
X1493872Y-17451150D01*
X1493872Y-17451150D02*
X1522443Y-17451150D01*
X1522443Y-17451150D02*
X1541491Y-17460674D01*
X1541491Y-17460674D02*
X1551015Y-17479722D01*
X1551015Y-17479722D02*
X1551015Y-17584484D01*
X1941491Y-17374960D02*
X1770063Y-17632103D01*
X2198634Y-17384484D02*
X2217682Y-17384484D01*
X2217682Y-17384484D02*
X2236729Y-17394008D01*
X2236729Y-17394008D02*
X2246253Y-17403531D01*
X2246253Y-17403531D02*
X2255777Y-17422579D01*
X2255777Y-17422579D02*
X2265301Y-17460674D01*
X2265301Y-17460674D02*
X2265301Y-17508293D01*
X2265301Y-17508293D02*
X2255777Y-17546389D01*
X2255777Y-17546389D02*
X2246253Y-17565436D01*
X2246253Y-17565436D02*
X2236729Y-17574960D01*
X2236729Y-17574960D02*
X2217682Y-17584484D01*
X2217682Y-17584484D02*
X2198634Y-17584484D01*
X2198634Y-17584484D02*
X2179587Y-17574960D01*
X2179587Y-17574960D02*
X2170063Y-17565436D01*
X2170063Y-17565436D02*
X2160539Y-17546389D01*
X2160539Y-17546389D02*
X2151015Y-17508293D01*
X2151015Y-17508293D02*
X2151015Y-17460674D01*
X2151015Y-17460674D02*
X2160539Y-17422579D01*
X2160539Y-17422579D02*
X2170063Y-17403531D01*
X2170063Y-17403531D02*
X2179587Y-17394008D01*
X2179587Y-17394008D02*
X2198634Y-17384484D01*
X2351015Y-17565436D02*
X2360539Y-17574960D01*
X2360539Y-17574960D02*
X2351015Y-17584484D01*
X2351015Y-17584484D02*
X2341491Y-17574960D01*
X2341491Y-17574960D02*
X2351015Y-17565436D01*
X2351015Y-17565436D02*
X2351015Y-17584484D01*
X2484348Y-17384484D02*
X2503396Y-17384484D01*
X2503396Y-17384484D02*
X2522444Y-17394008D01*
X2522444Y-17394008D02*
X2531968Y-17403531D01*
X2531968Y-17403531D02*
X2541491Y-17422579D01*
X2541491Y-17422579D02*
X2551015Y-17460674D01*
X2551015Y-17460674D02*
X2551015Y-17508293D01*
X2551015Y-17508293D02*
X2541491Y-17546389D01*
X2541491Y-17546389D02*
X2531968Y-17565436D01*
X2531968Y-17565436D02*
X2522444Y-17574960D01*
X2522444Y-17574960D02*
X2503396Y-17584484D01*
X2503396Y-17584484D02*
X2484348Y-17584484D01*
X2484348Y-17584484D02*
X2465301Y-17574960D01*
X2465301Y-17574960D02*
X2455777Y-17565436D01*
X2455777Y-17565436D02*
X2446253Y-17546389D01*
X2446253Y-17546389D02*
X2436729Y-17508293D01*
X2436729Y-17508293D02*
X2436729Y-17460674D01*
X2436729Y-17460674D02*
X2446253Y-17422579D01*
X2446253Y-17422579D02*
X2455777Y-17403531D01*
X2455777Y-17403531D02*
X2465301Y-17394008D01*
X2465301Y-17394008D02*
X2484348Y-17384484D01*
X2627206Y-17403531D02*
X2636729Y-17394008D01*
X2636729Y-17394008D02*
X2655777Y-17384484D01*
X2655777Y-17384484D02*
X2703396Y-17384484D01*
X2703396Y-17384484D02*
X2722444Y-17394008D01*
X2722444Y-17394008D02*
X2731968Y-17403531D01*
X2731968Y-17403531D02*
X2741491Y-17422579D01*
X2741491Y-17422579D02*
X2741491Y-17441627D01*
X2741491Y-17441627D02*
X2731968Y-17470198D01*
X2731968Y-17470198D02*
X2617682Y-17584484D01*
X2617682Y-17584484D02*
X2741491Y-17584484D01*
X2922444Y-17384484D02*
X2827206Y-17384484D01*
X2827206Y-17384484D02*
X2817682Y-17479722D01*
X2817682Y-17479722D02*
X2827206Y-17470198D01*
X2827206Y-17470198D02*
X2846253Y-17460674D01*
X2846253Y-17460674D02*
X2893872Y-17460674D01*
X2893872Y-17460674D02*
X2912920Y-17470198D01*
X2912920Y-17470198D02*
X2922444Y-17479722D01*
X2922444Y-17479722D02*
X2931967Y-17498770D01*
X2931967Y-17498770D02*
X2931967Y-17546389D01*
X2931967Y-17546389D02*
X2922444Y-17565436D01*
X2922444Y-17565436D02*
X2912920Y-17574960D01*
X2912920Y-17574960D02*
X2893872Y-17584484D01*
X2893872Y-17584484D02*
X2846253Y-17584484D01*
X2846253Y-17584484D02*
X2827206Y-17574960D01*
X2827206Y-17574960D02*
X2817682Y-17565436D01*
X3103396Y-17384484D02*
X3065301Y-17384484D01*
X3065301Y-17384484D02*
X3046253Y-17394008D01*
X3046253Y-17394008D02*
X3036729Y-17403531D01*
X3036729Y-17403531D02*
X3017682Y-17432103D01*
X3017682Y-17432103D02*
X3008158Y-17470198D01*
X3008158Y-17470198D02*
X3008158Y-17546389D01*
X3008158Y-17546389D02*
X3017682Y-17565436D01*
X3017682Y-17565436D02*
X3027206Y-17574960D01*
X3027206Y-17574960D02*
X3046253Y-17584484D01*
X3046253Y-17584484D02*
X3084348Y-17584484D01*
X3084348Y-17584484D02*
X3103396Y-17574960D01*
X3103396Y-17574960D02*
X3112920Y-17565436D01*
X3112920Y-17565436D02*
X3122444Y-17546389D01*
X3122444Y-17546389D02*
X3122444Y-17498770D01*
X3122444Y-17498770D02*
X3112920Y-17479722D01*
X3112920Y-17479722D02*
X3103396Y-17470198D01*
X3103396Y-17470198D02*
X3084348Y-17460674D01*
X3084348Y-17460674D02*
X3046253Y-17460674D01*
X3046253Y-17460674D02*
X3027206Y-17470198D01*
X3027206Y-17470198D02*
X3017682Y-17479722D01*
X3017682Y-17479722D02*
X3008158Y-17498770D01*
X3198634Y-17384484D02*
X3198634Y-17422579D01*
X3274825Y-17384484D02*
X3274825Y-17422579D01*
X3570063Y-17660674D02*
X3560539Y-17651150D01*
X3560539Y-17651150D02*
X3541491Y-17622579D01*
X3541491Y-17622579D02*
X3531968Y-17603531D01*
X3531968Y-17603531D02*
X3522444Y-17574960D01*
X3522444Y-17574960D02*
X3512920Y-17527341D01*
X3512920Y-17527341D02*
X3512920Y-17489246D01*
X3512920Y-17489246D02*
X3522444Y-17441627D01*
X3522444Y-17441627D02*
X3531968Y-17413055D01*
X3531968Y-17413055D02*
X3541491Y-17394008D01*
X3541491Y-17394008D02*
X3560539Y-17365436D01*
X3560539Y-17365436D02*
X3570063Y-17355912D01*
X3636729Y-17403531D02*
X3646253Y-17394008D01*
X3646253Y-17394008D02*
X3665301Y-17384484D01*
X3665301Y-17384484D02*
X3712920Y-17384484D01*
X3712920Y-17384484D02*
X3731968Y-17394008D01*
X3731968Y-17394008D02*
X3741491Y-17403531D01*
X3741491Y-17403531D02*
X3751015Y-17422579D01*
X3751015Y-17422579D02*
X3751015Y-17441627D01*
X3751015Y-17441627D02*
X3741491Y-17470198D01*
X3741491Y-17470198D02*
X3627206Y-17584484D01*
X3627206Y-17584484D02*
X3751015Y-17584484D01*
X3989110Y-17584484D02*
X3989110Y-17384484D01*
X4074825Y-17584484D02*
X4074825Y-17479722D01*
X4074825Y-17479722D02*
X4065301Y-17460674D01*
X4065301Y-17460674D02*
X4046253Y-17451150D01*
X4046253Y-17451150D02*
X4017682Y-17451150D01*
X4017682Y-17451150D02*
X3998634Y-17460674D01*
X3998634Y-17460674D02*
X3989110Y-17470198D01*
X4198634Y-17584484D02*
X4179587Y-17574960D01*
X4179587Y-17574960D02*
X4170063Y-17565436D01*
X4170063Y-17565436D02*
X4160539Y-17546389D01*
X4160539Y-17546389D02*
X4160539Y-17489246D01*
X4160539Y-17489246D02*
X4170063Y-17470198D01*
X4170063Y-17470198D02*
X4179587Y-17460674D01*
X4179587Y-17460674D02*
X4198634Y-17451150D01*
X4198634Y-17451150D02*
X4227206Y-17451150D01*
X4227206Y-17451150D02*
X4246253Y-17460674D01*
X4246253Y-17460674D02*
X4255777Y-17470198D01*
X4255777Y-17470198D02*
X4265301Y-17489246D01*
X4265301Y-17489246D02*
X4265301Y-17546389D01*
X4265301Y-17546389D02*
X4255777Y-17565436D01*
X4255777Y-17565436D02*
X4246253Y-17574960D01*
X4246253Y-17574960D02*
X4227206Y-17584484D01*
X4227206Y-17584484D02*
X4198634Y-17584484D01*
X4379587Y-17584484D02*
X4360539Y-17574960D01*
X4360539Y-17574960D02*
X4351015Y-17555912D01*
X4351015Y-17555912D02*
X4351015Y-17384484D01*
X4531968Y-17574960D02*
X4512920Y-17584484D01*
X4512920Y-17584484D02*
X4474825Y-17584484D01*
X4474825Y-17584484D02*
X4455777Y-17574960D01*
X4455777Y-17574960D02*
X4446253Y-17555912D01*
X4446253Y-17555912D02*
X4446253Y-17479722D01*
X4446253Y-17479722D02*
X4455777Y-17460674D01*
X4455777Y-17460674D02*
X4474825Y-17451150D01*
X4474825Y-17451150D02*
X4512920Y-17451150D01*
X4512920Y-17451150D02*
X4531968Y-17460674D01*
X4531968Y-17460674D02*
X4541492Y-17479722D01*
X4541492Y-17479722D02*
X4541492Y-17498770D01*
X4541492Y-17498770D02*
X4446253Y-17517817D01*
X4617682Y-17574960D02*
X4636730Y-17584484D01*
X4636730Y-17584484D02*
X4674825Y-17584484D01*
X4674825Y-17584484D02*
X4693873Y-17574960D01*
X4693873Y-17574960D02*
X4703396Y-17555912D01*
X4703396Y-17555912D02*
X4703396Y-17546389D01*
X4703396Y-17546389D02*
X4693873Y-17527341D01*
X4693873Y-17527341D02*
X4674825Y-17517817D01*
X4674825Y-17517817D02*
X4646253Y-17517817D01*
X4646253Y-17517817D02*
X4627206Y-17508293D01*
X4627206Y-17508293D02*
X4617682Y-17489246D01*
X4617682Y-17489246D02*
X4617682Y-17479722D01*
X4617682Y-17479722D02*
X4627206Y-17460674D01*
X4627206Y-17460674D02*
X4646253Y-17451150D01*
X4646253Y-17451150D02*
X4674825Y-17451150D01*
X4674825Y-17451150D02*
X4693873Y-17460674D01*
X4770063Y-17660674D02*
X4779587Y-17651150D01*
X4779587Y-17651150D02*
X4798634Y-17622579D01*
X4798634Y-17622579D02*
X4808158Y-17603531D01*
X4808158Y-17603531D02*
X4817682Y-17574960D01*
X4817682Y-17574960D02*
X4827206Y-17527341D01*
X4827206Y-17527341D02*
X4827206Y-17489246D01*
X4827206Y-17489246D02*
X4817682Y-17441627D01*
X4817682Y-17441627D02*
X4808158Y-17413055D01*
X4808158Y-17413055D02*
X4798634Y-17394008D01*
X4798634Y-17394008D02*
X4779587Y-17365436D01*
X4779587Y-17365436D02*
X4770063Y-17355912D01*
X5131968Y-17660674D02*
X5122444Y-17651150D01*
X5122444Y-17651150D02*
X5103396Y-17622579D01*
X5103396Y-17622579D02*
X5093873Y-17603531D01*
X5093873Y-17603531D02*
X5084349Y-17574960D01*
X5084349Y-17574960D02*
X5074825Y-17527341D01*
X5074825Y-17527341D02*
X5074825Y-17489246D01*
X5074825Y-17489246D02*
X5084349Y-17441627D01*
X5084349Y-17441627D02*
X5093873Y-17413055D01*
X5093873Y-17413055D02*
X5103396Y-17394008D01*
X5103396Y-17394008D02*
X5122444Y-17365436D01*
X5122444Y-17365436D02*
X5131968Y-17355912D01*
X5208158Y-17451150D02*
X5208158Y-17584484D01*
X5208158Y-17470198D02*
X5217682Y-17460674D01*
X5217682Y-17460674D02*
X5236730Y-17451150D01*
X5236730Y-17451150D02*
X5265301Y-17451150D01*
X5265301Y-17451150D02*
X5284349Y-17460674D01*
X5284349Y-17460674D02*
X5293873Y-17479722D01*
X5293873Y-17479722D02*
X5293873Y-17584484D01*
X5417682Y-17584484D02*
X5398634Y-17574960D01*
X5398634Y-17574960D02*
X5389111Y-17565436D01*
X5389111Y-17565436D02*
X5379587Y-17546389D01*
X5379587Y-17546389D02*
X5379587Y-17489246D01*
X5379587Y-17489246D02*
X5389111Y-17470198D01*
X5389111Y-17470198D02*
X5398634Y-17460674D01*
X5398634Y-17460674D02*
X5417682Y-17451150D01*
X5417682Y-17451150D02*
X5446254Y-17451150D01*
X5446254Y-17451150D02*
X5465301Y-17460674D01*
X5465301Y-17460674D02*
X5474825Y-17470198D01*
X5474825Y-17470198D02*
X5484349Y-17489246D01*
X5484349Y-17489246D02*
X5484349Y-17546389D01*
X5484349Y-17546389D02*
X5474825Y-17565436D01*
X5474825Y-17565436D02*
X5465301Y-17574960D01*
X5465301Y-17574960D02*
X5446254Y-17584484D01*
X5446254Y-17584484D02*
X5417682Y-17584484D01*
X5541492Y-17451150D02*
X5617682Y-17451150D01*
X5570063Y-17384484D02*
X5570063Y-17555912D01*
X5570063Y-17555912D02*
X5579587Y-17574960D01*
X5579587Y-17574960D02*
X5598634Y-17584484D01*
X5598634Y-17584484D02*
X5617682Y-17584484D01*
X5836730Y-17451150D02*
X5836730Y-17651150D01*
X5836730Y-17460674D02*
X5855777Y-17451150D01*
X5855777Y-17451150D02*
X5893873Y-17451150D01*
X5893873Y-17451150D02*
X5912920Y-17460674D01*
X5912920Y-17460674D02*
X5922444Y-17470198D01*
X5922444Y-17470198D02*
X5931968Y-17489246D01*
X5931968Y-17489246D02*
X5931968Y-17546389D01*
X5931968Y-17546389D02*
X5922444Y-17565436D01*
X5922444Y-17565436D02*
X5912920Y-17574960D01*
X5912920Y-17574960D02*
X5893873Y-17584484D01*
X5893873Y-17584484D02*
X5855777Y-17584484D01*
X5855777Y-17584484D02*
X5836730Y-17574960D01*
X6046253Y-17584484D02*
X6027206Y-17574960D01*
X6027206Y-17574960D02*
X6017682Y-17555912D01*
X6017682Y-17555912D02*
X6017682Y-17384484D01*
X6208158Y-17584484D02*
X6208158Y-17479722D01*
X6208158Y-17479722D02*
X6198634Y-17460674D01*
X6198634Y-17460674D02*
X6179587Y-17451150D01*
X6179587Y-17451150D02*
X6141492Y-17451150D01*
X6141492Y-17451150D02*
X6122444Y-17460674D01*
X6208158Y-17574960D02*
X6189111Y-17584484D01*
X6189111Y-17584484D02*
X6141492Y-17584484D01*
X6141492Y-17584484D02*
X6122444Y-17574960D01*
X6122444Y-17574960D02*
X6112920Y-17555912D01*
X6112920Y-17555912D02*
X6112920Y-17536865D01*
X6112920Y-17536865D02*
X6122444Y-17517817D01*
X6122444Y-17517817D02*
X6141492Y-17508293D01*
X6141492Y-17508293D02*
X6189111Y-17508293D01*
X6189111Y-17508293D02*
X6208158Y-17498770D01*
X6274825Y-17451150D02*
X6351015Y-17451150D01*
X6303396Y-17384484D02*
X6303396Y-17555912D01*
X6303396Y-17555912D02*
X6312920Y-17574960D01*
X6312920Y-17574960D02*
X6331968Y-17584484D01*
X6331968Y-17584484D02*
X6351015Y-17584484D01*
X6493873Y-17574960D02*
X6474825Y-17584484D01*
X6474825Y-17584484D02*
X6436730Y-17584484D01*
X6436730Y-17584484D02*
X6417682Y-17574960D01*
X6417682Y-17574960D02*
X6408158Y-17555912D01*
X6408158Y-17555912D02*
X6408158Y-17479722D01*
X6408158Y-17479722D02*
X6417682Y-17460674D01*
X6417682Y-17460674D02*
X6436730Y-17451150D01*
X6436730Y-17451150D02*
X6474825Y-17451150D01*
X6474825Y-17451150D02*
X6493873Y-17460674D01*
X6493873Y-17460674D02*
X6503396Y-17479722D01*
X6503396Y-17479722D02*
X6503396Y-17498770D01*
X6503396Y-17498770D02*
X6408158Y-17517817D01*
X6674825Y-17584484D02*
X6674825Y-17384484D01*
X6674825Y-17574960D02*
X6655777Y-17584484D01*
X6655777Y-17584484D02*
X6617682Y-17584484D01*
X6617682Y-17584484D02*
X6598634Y-17574960D01*
X6598634Y-17574960D02*
X6589111Y-17565436D01*
X6589111Y-17565436D02*
X6579587Y-17546389D01*
X6579587Y-17546389D02*
X6579587Y-17489246D01*
X6579587Y-17489246D02*
X6589111Y-17470198D01*
X6589111Y-17470198D02*
X6598634Y-17460674D01*
X6598634Y-17460674D02*
X6617682Y-17451150D01*
X6617682Y-17451150D02*
X6655777Y-17451150D01*
X6655777Y-17451150D02*
X6674825Y-17460674D01*
X6751015Y-17660674D02*
X6760539Y-17651150D01*
X6760539Y-17651150D02*
X6779587Y-17622579D01*
X6779587Y-17622579D02*
X6789111Y-17603531D01*
X6789111Y-17603531D02*
X6798634Y-17574960D01*
X6798634Y-17574960D02*
X6808158Y-17527341D01*
X6808158Y-17527341D02*
X6808158Y-17489246D01*
X6808158Y-17489246D02*
X6798634Y-17441627D01*
X6798634Y-17441627D02*
X6789111Y-17413055D01*
X6789111Y-17413055D02*
X6779587Y-17394008D01*
X6779587Y-17394008D02*
X6760539Y-17365436D01*
X6760539Y-17365436D02*
X6751015Y-17355912D01*
D12*
X-155000Y-17682000D02*
X-5000Y-17832000D01*
X-5000Y-17682000D02*
X-155000Y-17832000D01*
X-80000Y-17832000D02*
X-5000Y-17757000D01*
X-80000Y-17682000D01*
X-155000Y-17757000D01*
X-80000Y-17832000D01*
D11*
X360539Y-17848484D02*
X246253Y-17848484D01*
X303396Y-17848484D02*
X303396Y-17648484D01*
X303396Y-17648484D02*
X284348Y-17677055D01*
X284348Y-17677055D02*
X265301Y-17696103D01*
X265301Y-17696103D02*
X246253Y-17705627D01*
X446253Y-17829436D02*
X455777Y-17838960D01*
X455777Y-17838960D02*
X446253Y-17848484D01*
X446253Y-17848484D02*
X436729Y-17838960D01*
X436729Y-17838960D02*
X446253Y-17829436D01*
X446253Y-17829436D02*
X446253Y-17848484D01*
X636729Y-17648484D02*
X541491Y-17648484D01*
X541491Y-17648484D02*
X531967Y-17743722D01*
X531967Y-17743722D02*
X541491Y-17734198D01*
X541491Y-17734198D02*
X560539Y-17724674D01*
X560539Y-17724674D02*
X608158Y-17724674D01*
X608158Y-17724674D02*
X627205Y-17734198D01*
X627205Y-17734198D02*
X636729Y-17743722D01*
X636729Y-17743722D02*
X646253Y-17762770D01*
X646253Y-17762770D02*
X646253Y-17810389D01*
X646253Y-17810389D02*
X636729Y-17829436D01*
X636729Y-17829436D02*
X627205Y-17838960D01*
X627205Y-17838960D02*
X608158Y-17848484D01*
X608158Y-17848484D02*
X560539Y-17848484D01*
X560539Y-17848484D02*
X541491Y-17838960D01*
X541491Y-17838960D02*
X531967Y-17829436D01*
X770062Y-17648484D02*
X789110Y-17648484D01*
X789110Y-17648484D02*
X808158Y-17658008D01*
X808158Y-17658008D02*
X817682Y-17667531D01*
X817682Y-17667531D02*
X827205Y-17686579D01*
X827205Y-17686579D02*
X836729Y-17724674D01*
X836729Y-17724674D02*
X836729Y-17772293D01*
X836729Y-17772293D02*
X827205Y-17810389D01*
X827205Y-17810389D02*
X817682Y-17829436D01*
X817682Y-17829436D02*
X808158Y-17838960D01*
X808158Y-17838960D02*
X789110Y-17848484D01*
X789110Y-17848484D02*
X770062Y-17848484D01*
X770062Y-17848484D02*
X751015Y-17838960D01*
X751015Y-17838960D02*
X741491Y-17829436D01*
X741491Y-17829436D02*
X731967Y-17810389D01*
X731967Y-17810389D02*
X722443Y-17772293D01*
X722443Y-17772293D02*
X722443Y-17724674D01*
X722443Y-17724674D02*
X731967Y-17686579D01*
X731967Y-17686579D02*
X741491Y-17667531D01*
X741491Y-17667531D02*
X751015Y-17658008D01*
X751015Y-17658008D02*
X770062Y-17648484D01*
X960539Y-17648484D02*
X979586Y-17648484D01*
X979586Y-17648484D02*
X998634Y-17658008D01*
X998634Y-17658008D02*
X1008158Y-17667531D01*
X1008158Y-17667531D02*
X1017682Y-17686579D01*
X1017682Y-17686579D02*
X1027205Y-17724674D01*
X1027205Y-17724674D02*
X1027205Y-17772293D01*
X1027205Y-17772293D02*
X1017682Y-17810389D01*
X1017682Y-17810389D02*
X1008158Y-17829436D01*
X1008158Y-17829436D02*
X998634Y-17838960D01*
X998634Y-17838960D02*
X979586Y-17848484D01*
X979586Y-17848484D02*
X960539Y-17848484D01*
X960539Y-17848484D02*
X941491Y-17838960D01*
X941491Y-17838960D02*
X931967Y-17829436D01*
X931967Y-17829436D02*
X922443Y-17810389D01*
X922443Y-17810389D02*
X912920Y-17772293D01*
X912920Y-17772293D02*
X912920Y-17724674D01*
X912920Y-17724674D02*
X922443Y-17686579D01*
X922443Y-17686579D02*
X931967Y-17667531D01*
X931967Y-17667531D02*
X941491Y-17658008D01*
X941491Y-17658008D02*
X960539Y-17648484D01*
X1112920Y-17848484D02*
X1112920Y-17715150D01*
X1112920Y-17734198D02*
X1122444Y-17724674D01*
X1122444Y-17724674D02*
X1141491Y-17715150D01*
X1141491Y-17715150D02*
X1170063Y-17715150D01*
X1170063Y-17715150D02*
X1189110Y-17724674D01*
X1189110Y-17724674D02*
X1198634Y-17743722D01*
X1198634Y-17743722D02*
X1198634Y-17848484D01*
X1198634Y-17743722D02*
X1208158Y-17724674D01*
X1208158Y-17724674D02*
X1227205Y-17715150D01*
X1227205Y-17715150D02*
X1255777Y-17715150D01*
X1255777Y-17715150D02*
X1274825Y-17724674D01*
X1274825Y-17724674D02*
X1284348Y-17743722D01*
X1284348Y-17743722D02*
X1284348Y-17848484D01*
X1379586Y-17848484D02*
X1379586Y-17715150D01*
X1379586Y-17734198D02*
X1389110Y-17724674D01*
X1389110Y-17724674D02*
X1408158Y-17715150D01*
X1408158Y-17715150D02*
X1436729Y-17715150D01*
X1436729Y-17715150D02*
X1455777Y-17724674D01*
X1455777Y-17724674D02*
X1465301Y-17743722D01*
X1465301Y-17743722D02*
X1465301Y-17848484D01*
X1465301Y-17743722D02*
X1474824Y-17724674D01*
X1474824Y-17724674D02*
X1493872Y-17715150D01*
X1493872Y-17715150D02*
X1522443Y-17715150D01*
X1522443Y-17715150D02*
X1541491Y-17724674D01*
X1541491Y-17724674D02*
X1551015Y-17743722D01*
X1551015Y-17743722D02*
X1551015Y-17848484D01*
X1941491Y-17638960D02*
X1770063Y-17896103D01*
X2198634Y-17648484D02*
X2217682Y-17648484D01*
X2217682Y-17648484D02*
X2236729Y-17658008D01*
X2236729Y-17658008D02*
X2246253Y-17667531D01*
X2246253Y-17667531D02*
X2255777Y-17686579D01*
X2255777Y-17686579D02*
X2265301Y-17724674D01*
X2265301Y-17724674D02*
X2265301Y-17772293D01*
X2265301Y-17772293D02*
X2255777Y-17810389D01*
X2255777Y-17810389D02*
X2246253Y-17829436D01*
X2246253Y-17829436D02*
X2236729Y-17838960D01*
X2236729Y-17838960D02*
X2217682Y-17848484D01*
X2217682Y-17848484D02*
X2198634Y-17848484D01*
X2198634Y-17848484D02*
X2179587Y-17838960D01*
X2179587Y-17838960D02*
X2170063Y-17829436D01*
X2170063Y-17829436D02*
X2160539Y-17810389D01*
X2160539Y-17810389D02*
X2151015Y-17772293D01*
X2151015Y-17772293D02*
X2151015Y-17724674D01*
X2151015Y-17724674D02*
X2160539Y-17686579D01*
X2160539Y-17686579D02*
X2170063Y-17667531D01*
X2170063Y-17667531D02*
X2179587Y-17658008D01*
X2179587Y-17658008D02*
X2198634Y-17648484D01*
X2351015Y-17829436D02*
X2360539Y-17838960D01*
X2360539Y-17838960D02*
X2351015Y-17848484D01*
X2351015Y-17848484D02*
X2341491Y-17838960D01*
X2341491Y-17838960D02*
X2351015Y-17829436D01*
X2351015Y-17829436D02*
X2351015Y-17848484D01*
X2484348Y-17648484D02*
X2503396Y-17648484D01*
X2503396Y-17648484D02*
X2522444Y-17658008D01*
X2522444Y-17658008D02*
X2531968Y-17667531D01*
X2531968Y-17667531D02*
X2541491Y-17686579D01*
X2541491Y-17686579D02*
X2551015Y-17724674D01*
X2551015Y-17724674D02*
X2551015Y-17772293D01*
X2551015Y-17772293D02*
X2541491Y-17810389D01*
X2541491Y-17810389D02*
X2531968Y-17829436D01*
X2531968Y-17829436D02*
X2522444Y-17838960D01*
X2522444Y-17838960D02*
X2503396Y-17848484D01*
X2503396Y-17848484D02*
X2484348Y-17848484D01*
X2484348Y-17848484D02*
X2465301Y-17838960D01*
X2465301Y-17838960D02*
X2455777Y-17829436D01*
X2455777Y-17829436D02*
X2446253Y-17810389D01*
X2446253Y-17810389D02*
X2436729Y-17772293D01*
X2436729Y-17772293D02*
X2436729Y-17724674D01*
X2436729Y-17724674D02*
X2446253Y-17686579D01*
X2446253Y-17686579D02*
X2455777Y-17667531D01*
X2455777Y-17667531D02*
X2465301Y-17658008D01*
X2465301Y-17658008D02*
X2484348Y-17648484D01*
X2731968Y-17648484D02*
X2636729Y-17648484D01*
X2636729Y-17648484D02*
X2627206Y-17743722D01*
X2627206Y-17743722D02*
X2636729Y-17734198D01*
X2636729Y-17734198D02*
X2655777Y-17724674D01*
X2655777Y-17724674D02*
X2703396Y-17724674D01*
X2703396Y-17724674D02*
X2722444Y-17734198D01*
X2722444Y-17734198D02*
X2731968Y-17743722D01*
X2731968Y-17743722D02*
X2741491Y-17762770D01*
X2741491Y-17762770D02*
X2741491Y-17810389D01*
X2741491Y-17810389D02*
X2731968Y-17829436D01*
X2731968Y-17829436D02*
X2722444Y-17838960D01*
X2722444Y-17838960D02*
X2703396Y-17848484D01*
X2703396Y-17848484D02*
X2655777Y-17848484D01*
X2655777Y-17848484D02*
X2636729Y-17838960D01*
X2636729Y-17838960D02*
X2627206Y-17829436D01*
X2836729Y-17848484D02*
X2874825Y-17848484D01*
X2874825Y-17848484D02*
X2893872Y-17838960D01*
X2893872Y-17838960D02*
X2903396Y-17829436D01*
X2903396Y-17829436D02*
X2922444Y-17800865D01*
X2922444Y-17800865D02*
X2931967Y-17762770D01*
X2931967Y-17762770D02*
X2931967Y-17686579D01*
X2931967Y-17686579D02*
X2922444Y-17667531D01*
X2922444Y-17667531D02*
X2912920Y-17658008D01*
X2912920Y-17658008D02*
X2893872Y-17648484D01*
X2893872Y-17648484D02*
X2855777Y-17648484D01*
X2855777Y-17648484D02*
X2836729Y-17658008D01*
X2836729Y-17658008D02*
X2827206Y-17667531D01*
X2827206Y-17667531D02*
X2817682Y-17686579D01*
X2817682Y-17686579D02*
X2817682Y-17734198D01*
X2817682Y-17734198D02*
X2827206Y-17753246D01*
X2827206Y-17753246D02*
X2836729Y-17762770D01*
X2836729Y-17762770D02*
X2855777Y-17772293D01*
X2855777Y-17772293D02*
X2893872Y-17772293D01*
X2893872Y-17772293D02*
X2912920Y-17762770D01*
X2912920Y-17762770D02*
X2922444Y-17753246D01*
X2922444Y-17753246D02*
X2931967Y-17734198D01*
X3122444Y-17848484D02*
X3008158Y-17848484D01*
X3065301Y-17848484D02*
X3065301Y-17648484D01*
X3065301Y-17648484D02*
X3046253Y-17677055D01*
X3046253Y-17677055D02*
X3027206Y-17696103D01*
X3027206Y-17696103D02*
X3008158Y-17705627D01*
X3198634Y-17648484D02*
X3198634Y-17686579D01*
X3274825Y-17648484D02*
X3274825Y-17686579D01*
X3570063Y-17924674D02*
X3560539Y-17915150D01*
X3560539Y-17915150D02*
X3541491Y-17886579D01*
X3541491Y-17886579D02*
X3531968Y-17867531D01*
X3531968Y-17867531D02*
X3522444Y-17838960D01*
X3522444Y-17838960D02*
X3512920Y-17791341D01*
X3512920Y-17791341D02*
X3512920Y-17753246D01*
X3512920Y-17753246D02*
X3522444Y-17705627D01*
X3522444Y-17705627D02*
X3531968Y-17677055D01*
X3531968Y-17677055D02*
X3541491Y-17658008D01*
X3541491Y-17658008D02*
X3560539Y-17629436D01*
X3560539Y-17629436D02*
X3570063Y-17619912D01*
X3751015Y-17848484D02*
X3636729Y-17848484D01*
X3693872Y-17848484D02*
X3693872Y-17648484D01*
X3693872Y-17648484D02*
X3674825Y-17677055D01*
X3674825Y-17677055D02*
X3655777Y-17696103D01*
X3655777Y-17696103D02*
X3636729Y-17705627D01*
X3989110Y-17848484D02*
X3989110Y-17648484D01*
X4074825Y-17848484D02*
X4074825Y-17743722D01*
X4074825Y-17743722D02*
X4065301Y-17724674D01*
X4065301Y-17724674D02*
X4046253Y-17715150D01*
X4046253Y-17715150D02*
X4017682Y-17715150D01*
X4017682Y-17715150D02*
X3998634Y-17724674D01*
X3998634Y-17724674D02*
X3989110Y-17734198D01*
X4198634Y-17848484D02*
X4179587Y-17838960D01*
X4179587Y-17838960D02*
X4170063Y-17829436D01*
X4170063Y-17829436D02*
X4160539Y-17810389D01*
X4160539Y-17810389D02*
X4160539Y-17753246D01*
X4160539Y-17753246D02*
X4170063Y-17734198D01*
X4170063Y-17734198D02*
X4179587Y-17724674D01*
X4179587Y-17724674D02*
X4198634Y-17715150D01*
X4198634Y-17715150D02*
X4227206Y-17715150D01*
X4227206Y-17715150D02*
X4246253Y-17724674D01*
X4246253Y-17724674D02*
X4255777Y-17734198D01*
X4255777Y-17734198D02*
X4265301Y-17753246D01*
X4265301Y-17753246D02*
X4265301Y-17810389D01*
X4265301Y-17810389D02*
X4255777Y-17829436D01*
X4255777Y-17829436D02*
X4246253Y-17838960D01*
X4246253Y-17838960D02*
X4227206Y-17848484D01*
X4227206Y-17848484D02*
X4198634Y-17848484D01*
X4379587Y-17848484D02*
X4360539Y-17838960D01*
X4360539Y-17838960D02*
X4351015Y-17819912D01*
X4351015Y-17819912D02*
X4351015Y-17648484D01*
X4531968Y-17838960D02*
X4512920Y-17848484D01*
X4512920Y-17848484D02*
X4474825Y-17848484D01*
X4474825Y-17848484D02*
X4455777Y-17838960D01*
X4455777Y-17838960D02*
X4446253Y-17819912D01*
X4446253Y-17819912D02*
X4446253Y-17743722D01*
X4446253Y-17743722D02*
X4455777Y-17724674D01*
X4455777Y-17724674D02*
X4474825Y-17715150D01*
X4474825Y-17715150D02*
X4512920Y-17715150D01*
X4512920Y-17715150D02*
X4531968Y-17724674D01*
X4531968Y-17724674D02*
X4541492Y-17743722D01*
X4541492Y-17743722D02*
X4541492Y-17762770D01*
X4541492Y-17762770D02*
X4446253Y-17781817D01*
X4608158Y-17924674D02*
X4617682Y-17915150D01*
X4617682Y-17915150D02*
X4636730Y-17886579D01*
X4636730Y-17886579D02*
X4646253Y-17867531D01*
X4646253Y-17867531D02*
X4655777Y-17838960D01*
X4655777Y-17838960D02*
X4665301Y-17791341D01*
X4665301Y-17791341D02*
X4665301Y-17753246D01*
X4665301Y-17753246D02*
X4655777Y-17705627D01*
X4655777Y-17705627D02*
X4646253Y-17677055D01*
X4646253Y-17677055D02*
X4636730Y-17658008D01*
X4636730Y-17658008D02*
X4617682Y-17629436D01*
X4617682Y-17629436D02*
X4608158Y-17619912D01*
X4970063Y-17924674D02*
X4960539Y-17915150D01*
X4960539Y-17915150D02*
X4941492Y-17886579D01*
X4941492Y-17886579D02*
X4931968Y-17867531D01*
X4931968Y-17867531D02*
X4922444Y-17838960D01*
X4922444Y-17838960D02*
X4912920Y-17791341D01*
X4912920Y-17791341D02*
X4912920Y-17753246D01*
X4912920Y-17753246D02*
X4922444Y-17705627D01*
X4922444Y-17705627D02*
X4931968Y-17677055D01*
X4931968Y-17677055D02*
X4941492Y-17658008D01*
X4941492Y-17658008D02*
X4960539Y-17629436D01*
X4960539Y-17629436D02*
X4970063Y-17619912D01*
X5046253Y-17715150D02*
X5046253Y-17848484D01*
X5046253Y-17734198D02*
X5055777Y-17724674D01*
X5055777Y-17724674D02*
X5074825Y-17715150D01*
X5074825Y-17715150D02*
X5103396Y-17715150D01*
X5103396Y-17715150D02*
X5122444Y-17724674D01*
X5122444Y-17724674D02*
X5131968Y-17743722D01*
X5131968Y-17743722D02*
X5131968Y-17848484D01*
X5255777Y-17848484D02*
X5236730Y-17838960D01*
X5236730Y-17838960D02*
X5227206Y-17829436D01*
X5227206Y-17829436D02*
X5217682Y-17810389D01*
X5217682Y-17810389D02*
X5217682Y-17753246D01*
X5217682Y-17753246D02*
X5227206Y-17734198D01*
X5227206Y-17734198D02*
X5236730Y-17724674D01*
X5236730Y-17724674D02*
X5255777Y-17715150D01*
X5255777Y-17715150D02*
X5284349Y-17715150D01*
X5284349Y-17715150D02*
X5303396Y-17724674D01*
X5303396Y-17724674D02*
X5312920Y-17734198D01*
X5312920Y-17734198D02*
X5322444Y-17753246D01*
X5322444Y-17753246D02*
X5322444Y-17810389D01*
X5322444Y-17810389D02*
X5312920Y-17829436D01*
X5312920Y-17829436D02*
X5303396Y-17838960D01*
X5303396Y-17838960D02*
X5284349Y-17848484D01*
X5284349Y-17848484D02*
X5255777Y-17848484D01*
X5379587Y-17715150D02*
X5455777Y-17715150D01*
X5408158Y-17648484D02*
X5408158Y-17819912D01*
X5408158Y-17819912D02*
X5417682Y-17838960D01*
X5417682Y-17838960D02*
X5436730Y-17848484D01*
X5436730Y-17848484D02*
X5455777Y-17848484D01*
X5674825Y-17715150D02*
X5674825Y-17915150D01*
X5674825Y-17724674D02*
X5693872Y-17715150D01*
X5693872Y-17715150D02*
X5731968Y-17715150D01*
X5731968Y-17715150D02*
X5751015Y-17724674D01*
X5751015Y-17724674D02*
X5760539Y-17734198D01*
X5760539Y-17734198D02*
X5770063Y-17753246D01*
X5770063Y-17753246D02*
X5770063Y-17810389D01*
X5770063Y-17810389D02*
X5760539Y-17829436D01*
X5760539Y-17829436D02*
X5751015Y-17838960D01*
X5751015Y-17838960D02*
X5731968Y-17848484D01*
X5731968Y-17848484D02*
X5693872Y-17848484D01*
X5693872Y-17848484D02*
X5674825Y-17838960D01*
X5884349Y-17848484D02*
X5865301Y-17838960D01*
X5865301Y-17838960D02*
X5855777Y-17819912D01*
X5855777Y-17819912D02*
X5855777Y-17648484D01*
X6046253Y-17848484D02*
X6046253Y-17743722D01*
X6046253Y-17743722D02*
X6036730Y-17724674D01*
X6036730Y-17724674D02*
X6017682Y-17715150D01*
X6017682Y-17715150D02*
X5979587Y-17715150D01*
X5979587Y-17715150D02*
X5960539Y-17724674D01*
X6046253Y-17838960D02*
X6027206Y-17848484D01*
X6027206Y-17848484D02*
X5979587Y-17848484D01*
X5979587Y-17848484D02*
X5960539Y-17838960D01*
X5960539Y-17838960D02*
X5951015Y-17819912D01*
X5951015Y-17819912D02*
X5951015Y-17800865D01*
X5951015Y-17800865D02*
X5960539Y-17781817D01*
X5960539Y-17781817D02*
X5979587Y-17772293D01*
X5979587Y-17772293D02*
X6027206Y-17772293D01*
X6027206Y-17772293D02*
X6046253Y-17762770D01*
X6112920Y-17715150D02*
X6189111Y-17715150D01*
X6141492Y-17648484D02*
X6141492Y-17819912D01*
X6141492Y-17819912D02*
X6151015Y-17838960D01*
X6151015Y-17838960D02*
X6170063Y-17848484D01*
X6170063Y-17848484D02*
X6189111Y-17848484D01*
X6331968Y-17838960D02*
X6312920Y-17848484D01*
X6312920Y-17848484D02*
X6274825Y-17848484D01*
X6274825Y-17848484D02*
X6255777Y-17838960D01*
X6255777Y-17838960D02*
X6246253Y-17819912D01*
X6246253Y-17819912D02*
X6246253Y-17743722D01*
X6246253Y-17743722D02*
X6255777Y-17724674D01*
X6255777Y-17724674D02*
X6274825Y-17715150D01*
X6274825Y-17715150D02*
X6312920Y-17715150D01*
X6312920Y-17715150D02*
X6331968Y-17724674D01*
X6331968Y-17724674D02*
X6341492Y-17743722D01*
X6341492Y-17743722D02*
X6341492Y-17762770D01*
X6341492Y-17762770D02*
X6246253Y-17781817D01*
X6512920Y-17848484D02*
X6512920Y-17648484D01*
X6512920Y-17838960D02*
X6493873Y-17848484D01*
X6493873Y-17848484D02*
X6455777Y-17848484D01*
X6455777Y-17848484D02*
X6436730Y-17838960D01*
X6436730Y-17838960D02*
X6427206Y-17829436D01*
X6427206Y-17829436D02*
X6417682Y-17810389D01*
X6417682Y-17810389D02*
X6417682Y-17753246D01*
X6417682Y-17753246D02*
X6427206Y-17734198D01*
X6427206Y-17734198D02*
X6436730Y-17724674D01*
X6436730Y-17724674D02*
X6455777Y-17715150D01*
X6455777Y-17715150D02*
X6493873Y-17715150D01*
X6493873Y-17715150D02*
X6512920Y-17724674D01*
X6589111Y-17924674D02*
X6598634Y-17915150D01*
X6598634Y-17915150D02*
X6617682Y-17886579D01*
X6617682Y-17886579D02*
X6627206Y-17867531D01*
X6627206Y-17867531D02*
X6636730Y-17838960D01*
X6636730Y-17838960D02*
X6646253Y-17791341D01*
X6646253Y-17791341D02*
X6646253Y-17753246D01*
X6646253Y-17753246D02*
X6636730Y-17705627D01*
X6636730Y-17705627D02*
X6627206Y-17677055D01*
X6627206Y-17677055D02*
X6617682Y-17658008D01*
X6617682Y-17658008D02*
X6598634Y-17629436D01*
X6598634Y-17629436D02*
X6589111Y-17619912D01*
M02*
