M48
; DRILL file KiCad 10.0.6 date 2026-09-16T13:54:09
; FORMAT={-:-/ absolute / metric / decimal}
; #@! TF.CreationDate,2026-09-16T13:54:09-04:00
; #@! TF.GenerationSoftware,Kicad,Pcbnew,10.0.6
; #@! TF.FileFunction,MixedPlating,1,4
FMAT,2
METRIC
; #@! TA.AperFunction,Plated,PTH,ComponentDrill
T1C0.200
; #@! TA.AperFunction,Plated,PTH,ViaDrill
T2C0.300
; #@! TA.AperFunction,Plated,PTH,ComponentDrill
T3C0.600
; #@! TA.AperFunction,Plated,PTH,ComponentDrill
T4C0.750
; #@! TA.AperFunction,Plated,PTH,ComponentDrill
T5C1.000
; #@! TA.AperFunction,NonPlated,NPTH,ComponentDrill
T6C0.650
; #@! TA.AperFunction,NonPlated,NPTH,ComponentDrill
T7C0.700
; #@! TA.AperFunction,NonPlated,NPTH,ComponentDrill
T8C1.500
%
G90
G05
T1
X12.5Y-47.74
X12.5Y-49.14
X13.2Y-47.04
X13.2Y-48.44
X13.2Y-49.84
X13.9Y-47.74
X13.9Y-49.14
X14.6Y-47.04
X14.6Y-48.44
X14.6Y-49.84
X15.3Y-47.74
X15.3Y-49.14
T2
X1.2Y-104.451
X2.49Y-101.494
X3.226Y-101.003
X3.378Y-114.481
X3.989Y-116.962
X4.156Y-114.328
X4.258Y-111.294
X4.272Y-112.745
X4.4Y-42.604
X4.669Y-106.758
X4.787Y-53.513
X5.238Y-126.919
X6.032Y-110.513
X7.071Y-132.154
X7.161Y-58.57
X7.75Y-118.123
X7.862Y-48.377
X7.87Y-40.461
X7.911Y-41.971
X8.038Y-130.957
X8.049Y-54.564
X8.15Y-44.888
X8.246Y-101.241
X8.285Y-51.439
X8.285Y-53.411
X8.29Y-49.326
X8.326Y-57.23
X8.558Y-111.984
X8.637Y-117.008
X9.144Y-118.909
X9.37Y-57.113
X9.4Y-107.6
X9.574Y-113.303
X9.94Y-89.725
X10.219Y-45.979
X10.399Y-131.556
X10.44Y-115.597
X10.604Y-103.821
X10.665Y-107.123
X11.321Y-127.699
X11.515Y-56.242
X11.699Y-116.164
X12.772Y-115.128
X13.402Y-54.384
X13.887Y-110.528
X14.07Y-117.321
X14.247Y-75.0
X14.599Y-115.796
X15.249Y-105.015
X15.624Y-112.938
X15.65Y-2.708
X15.671Y-122.825
X15.756Y-148.545
X16.397Y-102.12
X16.986Y-119.087
X17.04Y-16.167
X17.072Y-125.939
X17.149Y-107.385
X17.357Y-103.693
X17.359Y-108.689
X17.571Y-122.845
X18.462Y-129.638
X18.68Y-113.95
X18.895Y-110.074
X19.037Y-136.0
X19.253Y-56.807
X19.38Y-124.319
X19.54Y-112.817
X19.751Y-95.374
X19.816Y-129.411
X20.23Y-140.079
X20.256Y-139.022
X20.542Y-132.787
X20.6Y-15.2
X20.684Y-127.736
X20.8Y-59.75
X21.085Y-60.666
X21.222Y-56.766
X21.28Y-124.336
X21.308Y-114.399
X21.556Y-128.537
X21.711Y-111.146
X21.861Y-121.946
X21.928Y-15.316
X21.96Y-104.097
X22.325Y-56.492
X22.426Y-128.609
X22.571Y-50.434
X22.666Y-118.88
X22.671Y-109.609
X22.84Y-106.674
X22.84Y-113.024
X22.85Y-15.3
X22.921Y-104.132
X23.245Y-119.914
X23.532Y-138.946
X23.668Y-134.652
X23.925Y-130.957
X24.293Y-124.858
X24.529Y-127.64
X24.762Y-143.189
X25.05Y-15.307
X25.134Y-104.886
X25.898Y-51.486
X25.9Y-42.623
X25.9Y-47.271
X25.95Y-40.032
X25.957Y-137.325
X25.972Y-141.225
X25.976Y-138.803
X25.98Y-124.261
X26.095Y-103.733
X26.095Y-106.429
X26.35Y-50.576
X26.356Y-116.851
X26.47Y-41.749
X26.7Y-15.2
X28.197Y-1.242
X28.198Y-12.178
X29.082Y-134.508
X29.225Y-16.884
X29.266Y-138.801
X30.321Y-118.428
X30.461Y-135.573
X30.489Y-103.848
X31.044Y-133.712
X31.341Y-136.253
X32.389Y-103.821
X33.262Y-116.076
X33.958Y-137.07
X34.79Y-129.67
X35.771Y-121.093
X36.01Y-136.715
X36.317Y-134.505
X36.364Y-110.463
X36.712Y-124.35
X36.8Y-127.091
X37.184Y-134.636
X37.4Y-107.408
X38.05Y-43.569
X38.264Y-110.45
X38.392Y-121.636
X38.656Y-62.036
X38.697Y-118.076
X38.702Y-75.0
X39.072Y-106.413
X39.39Y-61.21
X39.837Y-120.584
X39.933Y-112.752
X40.027Y-40.934
X40.059Y-76.025
X40.4Y-15.312
X40.402Y-16.884
X40.473Y-54.312
X40.708Y-40.537
X41.437Y-112.326
X41.437Y-121.141
X42.151Y-132.971
X42.2Y-142.587
X42.251Y-48.18
X42.367Y-137.701
X42.456Y-110.325
X42.572Y-119.234
X43.01Y-112.371
X43.034Y-106.855
X43.233Y-16.098
X43.664Y-108.087
X43.674Y-133.65
X43.765Y-139.674
X44.005Y-114.325
X44.129Y-116.504
X44.436Y-133.762
X44.441Y-68.95
X45.115Y-83.926
X45.431Y-142.487
X45.477Y-72.531
X46.094Y-75.0
X46.264Y-142.314
X46.343Y-134.573
X46.357Y-145.682
X46.387Y-131.79
X46.4Y-51.439
X46.547Y-72.367
X46.61Y-114.316
X46.836Y-97.726
X47.038Y-109.839
X47.344Y-62.322
X47.518Y-130.468
X48.299Y-83.835
X48.318Y-128.603
X48.6Y-142.592
X48.798Y-22.764
X49.4Y-48.494
X49.4Y-115.659
X49.528Y-101.464
X49.908Y-109.497
X49.999Y-22.652
X50.359Y-121.758
X50.362Y-133.001
X50.362Y-72.141
X50.428Y-136.96
X50.778Y-113.79
X52.4Y-127.821
X52.613Y-137.664
X54.034Y-104.443
X54.455Y-121.767
X54.743Y-111.048
X55.358Y-107.199
X55.652Y-114.116
X55.886Y-113.303
X57.587Y-116.231
X57.968Y-125.067
X59.007Y-137.025
T4
X28.4Y-111.6
X30.4Y-111.6
X46.4Y-15.6
X48.4Y-15.6
T5
X11.831Y-89.584
X14.371Y-89.584
X16.911Y-89.584
X19.451Y-89.584
X21.991Y-89.584
X24.531Y-89.584
X27.071Y-89.584
X29.611Y-89.584
X32.151Y-89.584
X34.691Y-89.584
X37.231Y-89.584
X39.771Y-89.584
X42.311Y-89.584
X44.851Y-89.584
T6
X42.51Y-144.692
X48.29Y-144.692
T7
X9.4Y-105.513
T8
X10.4Y-141.05
T3
X41.08Y-143.642G85X41.08Y-144.743
G05
X41.08Y-148.072G85X41.08Y-148.672
G05
X49.72Y-143.642G85X49.72Y-144.743
G05
X49.72Y-148.072G85X49.72Y-148.672
G05
M30
