%TF.GenerationSoftware,KiCad,Pcbnew,10.0.6*%
%TF.CreationDate,2026-09-24T15:09:47-04:00*%
%TF.ProjectId,qurannode,71757261-6e6e-46f6-9465-2e6b69636164,rev?*%
%TF.SameCoordinates,Original*%
%TF.FileFunction,Profile,NP*%
%FSLAX46Y46*%
G04 Gerber Fmt 4.6, Leading zero omitted, Abs format (unit mm)*
G04 Created by KiCad (PCBNEW 10.0.6) date 2026-09-24 15:09:47*
%MOMM*%
%LPD*%
G01*
G04 APERTURE LIST*
%TA.AperFunction,Profile*%
%ADD10C,0.100000*%
%TD*%
G04 APERTURE END LIST*
D10*
X0Y-2000000D02*
X68000Y-1482000D01*
X0Y-148000000D02*
X0Y-2000000D01*
X68000Y-1482000D02*
X268000Y-1000000D01*
X68000Y-148518000D02*
X0Y-148000000D01*
X268000Y-1000000D02*
X586000Y-586000D01*
X268000Y-149000000D02*
X68000Y-148518000D01*
X586000Y-586000D02*
X1000000Y-268000D01*
X586000Y-149414000D02*
X268000Y-149000000D01*
X1000000Y-268000D02*
X1482000Y-68000D01*
X1000000Y-149732000D02*
X586000Y-149414000D01*
X1482000Y-68000D02*
X2000000Y0D01*
X1482000Y-149932000D02*
X1000000Y-149732000D01*
X2000000Y0D02*
X60800000Y0D01*
X2000000Y-150000000D02*
X1482000Y-149932000D01*
X60800000Y0D02*
X61318000Y-68000D01*
X60800000Y-150000000D02*
X2000000Y-150000000D01*
X61318000Y-68000D02*
X61800000Y-268000D01*
X61318000Y-149932000D02*
X60800000Y-150000000D01*
X61800000Y-268000D02*
X62214000Y-586000D01*
X61800000Y-149732000D02*
X61318000Y-149932000D01*
X62214000Y-586000D02*
X62532000Y-1000000D01*
X62214000Y-149414000D02*
X61800000Y-149732000D01*
X62532000Y-1000000D02*
X62732000Y-1482000D01*
X62532000Y-149000000D02*
X62214000Y-149414000D01*
X62732000Y-1482000D02*
X62800000Y-2000000D01*
X62732000Y-148518000D02*
X62532000Y-149000000D01*
X62800000Y-2000000D02*
X62800000Y-148000000D01*
X62800000Y-148000000D02*
X62732000Y-148518000D01*
M02*
