M48
; DRILL file KiCad 10.0.6 date 2026-09-24T15:09:47
; FORMAT={-:-/ absolute / metric / decimal}
; #@! TF.CreationDate,2026-09-24T15:09:47-04:00
; #@! TF.GenerationSoftware,Kicad,Pcbnew,10.0.6
; #@! TF.FileFunction,MixedPlating,1,4
FMAT,2
METRIC
; #@! TA.AperFunction,Plated,PTH,ComponentDrill
T1C0.200
; #@! TA.AperFunction,Plated,PTH,ViaDrill
T2C0.300
; #@! TA.AperFunction,Plated,PTH,ComponentDrill
T3C0.300
; #@! TA.AperFunction,Plated,PTH,ComponentDrill
T4C0.600
; #@! TA.AperFunction,Plated,PTH,ComponentDrill
T5C0.750
; #@! TA.AperFunction,Plated,PTH,ComponentDrill
T6C1.000
; #@! TA.AperFunction,NonPlated,NPTH,ComponentDrill
T7C0.500
; #@! TA.AperFunction,NonPlated,NPTH,ComponentDrill
T8C0.650
; #@! TA.AperFunction,NonPlated,NPTH,ComponentDrill
T9C1.500
%
G90
G05
T1
X12.5Y-47.74
X12.5Y-49.14
X13.2Y-47.04
X13.2Y-48.44
X13.2Y-49.84
X13.9Y-47.74
X13.9Y-49.14
X14.6Y-47.04
X14.6Y-48.44
X14.6Y-49.84
X15.3Y-47.74
X15.3Y-49.14
T2
X1.936Y-113.286
X3.836Y-115.167
X3.844Y-114.243
X4.146Y-107.178
X5.529Y-117.092
X5.843Y-108.02
X5.904Y-58.241
X6.702Y-118.272
X7.192Y-121.737
X7.287Y-124.243
X7.332Y-125.787
X7.47Y-129.905
X7.709Y-112.745
X7.745Y-104.417
X7.87Y-40.461
X7.87Y-41.99
X7.896Y-54.444
X7.903Y-43.604
X8.15Y-56.793
X8.218Y-48.821
X8.408Y-52.206
X8.512Y-60.488
X8.677Y-51.018
X8.685Y-116.727
X9.384Y-47.596
X9.685Y-57.277
X10.108Y-122.746
X10.151Y-110.405
X10.238Y-47.461
X10.662Y-105.285
X10.672Y-119.111
X10.953Y-101.253
X11.04Y-121.808
X11.058Y-103.357
X11.196Y-116.761
X11.219Y-48.199
X11.402Y-123.606
X11.783Y-6.812
X12.814Y-118.144
X13.022Y-109.456
X14.249Y-122.989
X14.521Y-1.427
X15.541Y-104.821
X15.756Y-148.545
X15.961Y-108.223
X16.124Y-119.893
X16.377Y-115.861
X16.812Y-127.665
X16.879Y-124.493
X17.03Y-59.712
X17.04Y-16.167
X17.161Y-106.687
X17.839Y-141.225
X18.02Y-110.012
X18.021Y-113.921
X18.395Y-103.473
X18.945Y-113.024
X18.98Y-111.541
X19.064Y-127.256
X19.111Y-143.189
X19.116Y-61.576
X19.171Y-136.018
X20.19Y-119.946
X20.228Y-137.975
X20.322Y-103.637
X20.61Y-107.096
X20.897Y-126.214
X21.346Y-15.2
X21.377Y-125.045
X21.453Y-67.399
X22.017Y-104.519
X22.574Y-113.237
X22.636Y-128.633
X22.792Y-118.059
X22.85Y-15.319
X22.857Y-138.738
X22.941Y-50.953
X23.214Y-123.222
X23.245Y-109.939
X23.404Y-131.768
X23.509Y-139.37
X24.419Y-15.03
X24.708Y-121.173
X24.762Y-136.012
X24.762Y-143.189
X25.239Y-15.304
X25.359Y-56.168
X25.538Y-121.597
X25.76Y-104.805
X25.786Y-45.409
X25.836Y-49.191
X25.953Y-139.275
X25.965Y-137.325
X26.2Y-138.127
X26.364Y-140.025
X26.418Y-51.439
X26.566Y-116.815
X26.963Y-124.39
X27.85Y-15.2
X27.955Y-71.854
X28.197Y-1.242
X28.198Y-12.178
X28.547Y-140.499
X29.067Y-104.001
X29.356Y-75.0
X29.531Y-138.799
X29.765Y-66.676
X29.973Y-118.614
X30.027Y-102.459
X30.173Y-120.206
X31.669Y-134.289
X31.671Y-133.209
X32.7Y-5.055
X33.13Y-103.851
X33.71Y-4.783
X33.716Y-118.153
X33.922Y-7.263
X34.09Y-102.32
X34.4Y-108.452
X35.191Y-119.51
X36.606Y-110.23
X36.607Y-121.503
X36.8Y-124.575
X36.8Y-129.106
X36.837Y-104.451
X38.288Y-40.453
X38.337Y-41.7
X39.243Y-113.286
X39.484Y-109.247
X39.695Y-103.572
X39.727Y-116.56
X40.044Y-78.152
X40.175Y-59.628
X40.453Y-108.312
X41.219Y-36.197
X41.227Y-110.777
X41.327Y-125.967
X41.355Y-74.22
X41.478Y-79.912
X41.704Y-111.572
X41.949Y-106.893
X42.049Y-42.688
X42.308Y-109.19
X42.313Y-54.101
X42.374Y-137.222
X42.378Y-135.969
X42.397Y-81.273
X42.736Y-120.137
X42.865Y-52.292
X43.382Y-61.005
X43.455Y-71.932
X43.603Y-113.93
X43.637Y-133.917
X43.807Y-57.329
X43.883Y-140.195
X43.889Y-62.71
X44.438Y-72.519
X44.831Y-105.239
X44.988Y-74.403
X45.333Y-144.658
X46.098Y-53.854
X46.391Y-134.576
X46.4Y-19.043
X46.4Y-116.415
X46.536Y-142.291
X47.547Y-114.827
X48.542Y-60.231
X48.6Y-142.595
X48.759Y-139.385
X49.017Y-77.945
X49.484Y-112.818
X49.632Y-74.796
X49.873Y-117.49
X50.764Y-70.126
X52.493Y-121.707
X52.843Y-140.29
X58.413Y-112.818
X58.813Y-121.327
T3
X5.797Y-114.016
X5.797Y-114.866
X5.797Y-115.716
X6.697Y-114.016
X6.697Y-114.866
X6.697Y-115.716
T5
X28.4Y-111.6
X30.4Y-111.6
X46.4Y-15.6
X48.4Y-15.6
T6
X14.89Y-90.9
X17.43Y-90.9
X19.97Y-90.9
X22.51Y-90.9
X25.05Y-90.9
X27.59Y-90.9
X30.13Y-90.9
X32.67Y-90.9
X35.21Y-90.9
X37.75Y-90.9
X40.29Y-90.9
X42.83Y-90.9
X45.37Y-90.9
X47.91Y-90.9
T7
X9.4Y-105.637
T8
X42.51Y-144.692
X48.29Y-144.692
T9
X10.4Y-141.05
T4
X41.08Y-143.642G85X41.08Y-144.743
G05
X41.08Y-148.072G85X41.08Y-148.672
G05
X49.72Y-143.642G85X49.72Y-144.743
G05
X49.72Y-148.072G85X49.72Y-148.672
G05
M30
