%TF.GenerationSoftware,KiCad,Pcbnew,10.0.6*%
%TF.CreationDate,2026-09-16T13:54:09-04:00*%
%TF.ProjectId,qurannode,71757261-6e6e-46f6-9465-2e6b69636164,rev?*%
%TF.SameCoordinates,Original*%
%TF.FileFunction,Legend,Top*%
%TF.FilePolarity,Positive*%
%FSLAX46Y46*%
G04 Gerber Fmt 4.6, Leading zero omitted, Abs format (unit mm)*
G04 Created by KiCad (PCBNEW 10.0.6) date 2026-09-16 13:54:09*
%MOMM*%
%LPD*%
G01*
G04 APERTURE LIST*
%ADD10C,0.150000*%
%ADD11C,0.120000*%
G04 APERTURE END LIST*
D10*
X3900000Y-2000000D02*
X58900000Y-2000000D01*
X58900000Y-99000000D01*
X3900000Y-99000000D01*
X3900000Y-2000000D01*
%TO.C,R14*%
D11*
X4005059Y-107173800D02*
X4312341Y-107173800D01*
X4005059Y-107933800D02*
X4312341Y-107933800D01*
%TO.C,C19*%
X23706220Y-145081700D02*
X23987380Y-145081700D01*
X23706220Y-146101700D02*
X23987380Y-146101700D01*
%TO.C,C16*%
X31178148Y-104298100D02*
X31700652Y-104298100D01*
X31178148Y-105768100D02*
X31700652Y-105768100D01*
%TO.C,R11*%
X42346759Y-112778700D02*
X42654041Y-112778700D01*
X42346759Y-113538700D02*
X42654041Y-113538700D01*
%TO.C,SW1*%
X26450000Y-120650000D02*
X36350000Y-120650000D01*
X36350000Y-130550000D01*
X26450000Y-130550000D01*
X26450000Y-120650000D01*
%TO.C,R5*%
X27810059Y-133519900D02*
X28117341Y-133519900D01*
X27810059Y-134279900D02*
X28117341Y-134279900D01*
%TO.C,R27*%
X41780859Y-40598400D02*
X42088141Y-40598400D01*
X41780859Y-41358400D02*
X42088141Y-41358400D01*
%TO.C,C24*%
X37739148Y-112423700D02*
X38261652Y-112423700D01*
X37739148Y-113893700D02*
X38261652Y-113893700D01*
%TO.C,Q3*%
X9321300Y-117161000D02*
X10841300Y-117161000D01*
X9321300Y-117211000D02*
X9321300Y-117161000D01*
X9321300Y-119111000D02*
X9321300Y-118331000D01*
X9321300Y-120281000D02*
X9321300Y-120231000D01*
X10841300Y-117161000D02*
X10841300Y-118161000D01*
X10841300Y-119281000D02*
X10841300Y-120281000D01*
X10841300Y-120281000D02*
X9321300Y-120281000D01*
X8781300Y-118341000D02*
X9021300Y-118671000D01*
X8541300Y-118671000D01*
X8781300Y-118341000D01*
G36*
X9021300Y-118671000D02*
G01*
X8541300Y-118671000D01*
X8781300Y-118341000D01*
X9021300Y-118671000D01*
G37*
%TO.C,J3*%
X10560700Y-90854500D02*
X10560700Y-89584500D01*
X11400700Y-88424500D02*
X11400700Y-88194500D01*
X11830700Y-90854500D02*
X10560700Y-90854500D01*
X12260700Y-88424500D02*
X12260700Y-88194500D01*
X13100700Y-88194500D02*
X13100700Y-85434500D01*
X13940700Y-79434500D02*
X14800700Y-79434500D01*
X13940700Y-85434500D02*
X13940700Y-79434500D01*
X13940700Y-88507142D02*
X13940700Y-88194500D01*
X14800700Y-79434500D02*
X14800700Y-85434500D01*
X14800700Y-88507142D02*
X14800700Y-88194500D01*
X15640700Y-88194500D02*
X15640700Y-85434500D01*
X16480700Y-79434500D02*
X17340700Y-79434500D01*
X16480700Y-85434500D02*
X16480700Y-79434500D01*
X16480700Y-88507142D02*
X16480700Y-88194500D01*
X17340700Y-79434500D02*
X17340700Y-85434500D01*
X17340700Y-88507142D02*
X17340700Y-88194500D01*
X18180700Y-88194500D02*
X18180700Y-85434500D01*
X19020700Y-79434500D02*
X19880700Y-79434500D01*
X19020700Y-85434500D02*
X19020700Y-79434500D01*
X19020700Y-88507142D02*
X19020700Y-88194500D01*
X19880700Y-79434500D02*
X19880700Y-85434500D01*
X19880700Y-88507142D02*
X19880700Y-88194500D01*
X20720700Y-88194500D02*
X20720700Y-85434500D01*
X21560700Y-79434500D02*
X22420700Y-79434500D01*
X21560700Y-85434500D02*
X21560700Y-79434500D01*
X21560700Y-88507142D02*
X21560700Y-88194500D01*
X22420700Y-79434500D02*
X22420700Y-85434500D01*
X22420700Y-88507142D02*
X22420700Y-88194500D01*
X23260700Y-88194500D02*
X23260700Y-85434500D01*
X24100700Y-79434500D02*
X24960700Y-79434500D01*
X24100700Y-85434500D02*
X24100700Y-79434500D01*
X24100700Y-88507142D02*
X24100700Y-88194500D01*
X24960700Y-79434500D02*
X24960700Y-85434500D01*
X24960700Y-88507142D02*
X24960700Y-88194500D01*
X25800700Y-88194500D02*
X25800700Y-85434500D01*
X26640700Y-79434500D02*
X27500700Y-79434500D01*
X26640700Y-85434500D02*
X26640700Y-79434500D01*
X26640700Y-88507142D02*
X26640700Y-88194500D01*
X27500700Y-79434500D02*
X27500700Y-85434500D01*
X27500700Y-88507142D02*
X27500700Y-88194500D01*
X28340700Y-88194500D02*
X28340700Y-85434500D01*
X29180700Y-79434500D02*
X30040700Y-79434500D01*
X29180700Y-85434500D02*
X29180700Y-79434500D01*
X29180700Y-88507142D02*
X29180700Y-88194500D01*
X30040700Y-79434500D02*
X30040700Y-85434500D01*
X30040700Y-88507142D02*
X30040700Y-88194500D01*
X30880700Y-88194500D02*
X30880700Y-85434500D01*
X31720700Y-79434500D02*
X32580700Y-79434500D01*
X31720700Y-85434500D02*
X31720700Y-79434500D01*
X31720700Y-88507142D02*
X31720700Y-88194500D01*
X32580700Y-79434500D02*
X32580700Y-85434500D01*
X32580700Y-88507142D02*
X32580700Y-88194500D01*
X33420700Y-88194500D02*
X33420700Y-85434500D01*
X34260700Y-79434500D02*
X35120700Y-79434500D01*
X34260700Y-85434500D02*
X34260700Y-79434500D01*
X34260700Y-88507142D02*
X34260700Y-88194500D01*
X35120700Y-79434500D02*
X35120700Y-85434500D01*
X35120700Y-88507142D02*
X35120700Y-88194500D01*
X35960700Y-88194500D02*
X35960700Y-85434500D01*
X36800700Y-79434500D02*
X37660700Y-79434500D01*
X36800700Y-85434500D02*
X36800700Y-79434500D01*
X36800700Y-88507142D02*
X36800700Y-88194500D01*
X37660700Y-79434500D02*
X37660700Y-85434500D01*
X37660700Y-88507142D02*
X37660700Y-88194500D01*
X38500700Y-88194500D02*
X38500700Y-85434500D01*
X39340700Y-79434500D02*
X40200700Y-79434500D01*
X39340700Y-85434500D02*
X39340700Y-79434500D01*
X39340700Y-88507142D02*
X39340700Y-88194500D01*
X40200700Y-79434500D02*
X40200700Y-85434500D01*
X40200700Y-88507142D02*
X40200700Y-88194500D01*
X41040700Y-88194500D02*
X41040700Y-85434500D01*
X41880700Y-79434500D02*
X42740700Y-79434500D01*
X41880700Y-85434500D02*
X41880700Y-79434500D01*
X41880700Y-88507142D02*
X41880700Y-88194500D01*
X42740700Y-79434500D02*
X42740700Y-85434500D01*
X42740700Y-88507142D02*
X42740700Y-88194500D01*
X43580700Y-88194500D02*
X43580700Y-85434500D01*
X44420700Y-79434500D02*
X45280700Y-79434500D01*
X44420700Y-85434500D02*
X44420700Y-79434500D01*
X44420700Y-88507142D02*
X44420700Y-88194500D01*
X45280700Y-79434500D02*
X45280700Y-85434500D01*
X45280700Y-88507142D02*
X45280700Y-88194500D01*
X10450700Y-85434500D02*
X46230700Y-85434500D01*
X46230700Y-88194500D01*
X10450700Y-88194500D01*
X10450700Y-85434500D01*
X11400700Y-79434500D02*
X12260700Y-79434500D01*
X12260700Y-85434500D01*
X11400700Y-85434500D01*
X11400700Y-79434500D01*
G36*
X11400700Y-79434500D02*
G01*
X12260700Y-79434500D01*
X12260700Y-85434500D01*
X11400700Y-85434500D01*
X11400700Y-79434500D01*
G37*
%TO.C,R12*%
X8914459Y-110826100D02*
X9221741Y-110826100D01*
X8914459Y-111586100D02*
X9221741Y-111586100D01*
%TO.C,C17*%
X25768064Y-117280200D02*
X25983736Y-117280200D01*
X25768064Y-118000200D02*
X25983736Y-118000200D01*
%TO.C,J1*%
X40820000Y-145447500D02*
X40820000Y-147367500D01*
X40820000Y-151082500D02*
X40820000Y-149377500D01*
X49980000Y-147367500D02*
X49980000Y-145447500D01*
X49980000Y-149377500D02*
X49980000Y-151082500D01*
X49980000Y-151082500D02*
X40820000Y-151082500D01*
%TO.C,R4*%
X53328759Y-139125900D02*
X53636041Y-139125900D01*
X53328759Y-139885900D02*
X53636041Y-139885900D01*
%TO.C,C28*%
X37053248Y-108530100D02*
X37575752Y-108530100D01*
X37053248Y-110000100D02*
X37575752Y-110000100D01*
%TO.C,D2*%
X38384700Y-137928800D02*
X38384700Y-139398800D01*
X38384700Y-139398800D02*
X40669700Y-139398800D01*
X40669700Y-137928800D02*
X38384700Y-137928800D01*
%TO.C,R1*%
X13223559Y-109364400D02*
X13530841Y-109364400D01*
X13223559Y-110124400D02*
X13530841Y-110124400D01*
%TO.C,FB1*%
X49184021Y-21081700D02*
X49509579Y-21081700D01*
X49184021Y-22101700D02*
X49509579Y-22101700D01*
%TO.C,R13*%
X21762559Y-129041800D02*
X22069841Y-129041800D01*
X21762559Y-129801800D02*
X22069841Y-129801800D01*
%TO.C,C27*%
X15937748Y-105470900D02*
X16460252Y-105470900D01*
X15937748Y-106940900D02*
X16460252Y-106940900D01*
%TO.C,C20*%
X10259420Y-132190000D02*
X10540580Y-132190000D01*
X10259420Y-133210000D02*
X10540580Y-133210000D01*
%TO.C,C22*%
X42092164Y-74640000D02*
X42307836Y-74640000D01*
X42092164Y-75360000D02*
X42307836Y-75360000D01*
%TO.C,L1*%
X40739800Y-64225900D02*
X45359800Y-64225900D01*
X40739800Y-68845900D02*
X40739800Y-64225900D01*
X45359800Y-64225900D02*
X45359800Y-68845900D01*
X45359800Y-68845900D02*
X40739800Y-68845900D01*
%TO.C,U6*%
X48861500Y-128793700D02*
X50681500Y-128793700D01*
X48861500Y-128843700D02*
X48861500Y-128793700D01*
X48861500Y-131913700D02*
X48861500Y-131863700D01*
X50681500Y-128793700D02*
X50681500Y-128843700D01*
X50681500Y-131863700D02*
X50681500Y-131913700D01*
X50681500Y-131913700D02*
X48861500Y-131913700D01*
X48321500Y-128843700D02*
X48081500Y-128513700D01*
X48561500Y-128513700D01*
X48321500Y-128843700D01*
G36*
X48321500Y-128843700D02*
G01*
X48081500Y-128513700D01*
X48561500Y-128513700D01*
X48321500Y-128843700D01*
G37*
%TO.C,R15*%
X2846359Y-101913300D02*
X3153641Y-101913300D01*
X2846359Y-102673300D02*
X3153641Y-102673300D01*
%TO.C,R16*%
X4614259Y-110133400D02*
X4921541Y-110133400D01*
X4614259Y-110893400D02*
X4921541Y-110893400D01*
%TO.C,R9*%
X46688359Y-123763800D02*
X46995641Y-123763800D01*
X46688359Y-124523800D02*
X46995641Y-124523800D01*
%TO.C,U2*%
X19590000Y-136215000D02*
X24210000Y-136215000D01*
X24210000Y-142985000D02*
X19590000Y-142985000D01*
X18040000Y-136670000D02*
X17710000Y-136910000D01*
X17710000Y-136430000D01*
X18040000Y-136670000D01*
G36*
X18040000Y-136670000D02*
G01*
X17710000Y-136910000D01*
X17710000Y-136430000D01*
X18040000Y-136670000D01*
G37*
%TO.C,C5*%
X13439148Y-112423700D02*
X13961652Y-112423700D01*
X13439148Y-113893700D02*
X13961652Y-113893700D01*
%TO.C,U4*%
X44224000Y-134127500D02*
X48344000Y-134127500D01*
X44224000Y-134222500D02*
X44224000Y-134127500D01*
X44224000Y-139247500D02*
X44224000Y-139152500D01*
X48344000Y-134127500D02*
X48344000Y-134222500D01*
X48344000Y-139152500D02*
X48344000Y-139247500D01*
X48344000Y-139247500D02*
X44224000Y-139247500D01*
X43684000Y-134217500D02*
X43444000Y-133887500D01*
X43924000Y-133887500D01*
X43684000Y-134217500D01*
G36*
X43684000Y-134217500D02*
G01*
X43444000Y-133887500D01*
X43924000Y-133887500D01*
X43684000Y-134217500D01*
G37*
%TO.C,C2*%
X37485548Y-116146200D02*
X38008052Y-116146200D01*
X37485548Y-117616200D02*
X38008052Y-117616200D01*
%TO.C,J4*%
X44040000Y-13490000D02*
X44040000Y-14740000D01*
X44340000Y-15100000D02*
X44950000Y-15100000D01*
X44340000Y-16400000D02*
X44950000Y-16400000D01*
X44950000Y-14400000D02*
X44950000Y-17900000D01*
X44950000Y-17900000D02*
X49850000Y-17900000D01*
X45290000Y-13490000D02*
X44040000Y-13490000D01*
X45800000Y-13590000D02*
X45800000Y-13790000D01*
X46100000Y-13590000D02*
X45800000Y-13590000D01*
X46100000Y-13690000D02*
X45800000Y-13690000D01*
X46100000Y-13790000D02*
X46100000Y-13590000D01*
X46900000Y-13790000D02*
X46900000Y-14400000D01*
X46900000Y-14400000D02*
X44950000Y-14400000D01*
X47300000Y-17400000D02*
X47500000Y-17400000D01*
X47300000Y-17900000D02*
X47300000Y-17400000D01*
X47400000Y-17900000D02*
X47400000Y-17400000D01*
X47500000Y-17400000D02*
X47500000Y-17900000D01*
X47900000Y-14400000D02*
X47900000Y-13790000D01*
X49850000Y-14400000D02*
X47900000Y-14400000D01*
X49850000Y-17900000D02*
X49850000Y-14400000D01*
X50460000Y-15100000D02*
X49850000Y-15100000D01*
X50460000Y-16400000D02*
X49850000Y-16400000D01*
X44340000Y-13790000D02*
X50460000Y-13790000D01*
X50460000Y-18510000D01*
X44340000Y-18510000D01*
X44340000Y-13790000D01*
%TO.C,C21*%
X5809620Y-130194800D02*
X6090780Y-130194800D01*
X5809620Y-131214800D02*
X6090780Y-131214800D01*
%TO.C,R20*%
X19799559Y-133228300D02*
X20106841Y-133228300D01*
X19799559Y-133988300D02*
X20106841Y-133988300D01*
%TO.C,R31*%
X48864359Y-101873000D02*
X49171641Y-101873000D01*
X48864359Y-102633000D02*
X49171641Y-102633000D01*
%TO.C,Q2*%
X41361700Y-123974300D02*
X42881700Y-123974300D01*
X41361700Y-124024300D02*
X41361700Y-123974300D01*
X41361700Y-125924300D02*
X41361700Y-125144300D01*
X41361700Y-127094300D02*
X41361700Y-127044300D01*
X42881700Y-123974300D02*
X42881700Y-124974300D01*
X42881700Y-126094300D02*
X42881700Y-127094300D01*
X42881700Y-127094300D02*
X41361700Y-127094300D01*
X40821700Y-125154300D02*
X41061700Y-125484300D01*
X40581700Y-125484300D01*
X40821700Y-125154300D01*
G36*
X41061700Y-125484300D02*
G01*
X40581700Y-125484300D01*
X40821700Y-125154300D01*
X41061700Y-125484300D01*
G37*
%TO.C,C4*%
X40911764Y-121549300D02*
X41127436Y-121549300D01*
X40911764Y-122269300D02*
X41127436Y-122269300D01*
%TO.C,J6*%
X7200000Y-141300000D02*
X7200000Y-140950000D01*
X7200000Y-147750000D02*
X7200000Y-143300000D01*
X7200000Y-151600000D02*
X7200000Y-149750000D01*
X7800000Y-151600000D02*
X7200000Y-151600000D01*
X7800000Y-153600000D02*
X7800000Y-151600000D01*
X9100000Y-139400000D02*
X13600000Y-139400000D01*
X13000000Y-151600000D02*
X13000000Y-153600000D01*
X13000000Y-153600000D02*
X7800000Y-153600000D01*
X13600000Y-139400000D02*
X13600000Y-140000000D01*
X13600000Y-141900000D02*
X13600000Y-145100000D01*
X13600000Y-146950000D02*
X13600000Y-147800000D01*
X13600000Y-149700000D02*
X13600000Y-151600000D01*
X13600000Y-149700000D02*
X15300000Y-149700000D01*
X13600000Y-151600000D02*
X13000000Y-151600000D01*
X15300000Y-147800000D02*
X13600000Y-147800000D01*
%TO.C,C15*%
X25506664Y-102605100D02*
X25722336Y-102605100D01*
X25506664Y-103325100D02*
X25722336Y-103325100D01*
%TO.C,C25*%
X21273464Y-120808000D02*
X21489136Y-120808000D01*
X21273464Y-121528000D02*
X21489136Y-121528000D01*
%TO.C,C10*%
X22082864Y-110017600D02*
X22298536Y-110017600D01*
X22082864Y-110737600D02*
X22298536Y-110737600D01*
%TO.C,R29*%
X49698059Y-70978700D02*
X50005341Y-70978700D01*
X49698059Y-71738700D02*
X50005341Y-71738700D01*
%TO.C,R2*%
X17194559Y-128654700D02*
X17501841Y-128654700D01*
X17194559Y-129414700D02*
X17501841Y-129414700D01*
%TO.C,R23*%
X29449959Y-141723000D02*
X29757241Y-141723000D01*
X29449959Y-142483000D02*
X29757241Y-142483000D01*
%TO.C,FB2*%
X45290421Y-9098300D02*
X45615979Y-9098300D01*
X45290421Y-10118300D02*
X45615979Y-10118300D01*
%TO.C,C23*%
X18092564Y-112798700D02*
X18308236Y-112798700D01*
X18092564Y-113518700D02*
X18308236Y-113518700D01*
%TO.C,SW3*%
X49656900Y-117959800D02*
X49656900Y-119959800D01*
X50706900Y-116659800D02*
X51156900Y-116209800D01*
X50706900Y-121259800D02*
X51156900Y-121709800D01*
X51156900Y-116209800D02*
X53656900Y-116209800D01*
X51156900Y-121709800D02*
X53656900Y-121709800D01*
X54106900Y-116659800D02*
X53656900Y-116209800D01*
X54106900Y-121259800D02*
X53656900Y-121709800D01*
X55156900Y-117959800D02*
X55156900Y-119959800D01*
%TO.C,R30*%
X46680059Y-61139500D02*
X46987341Y-61139500D01*
X46680059Y-61899500D02*
X46987341Y-61899500D01*
%TO.C,R7*%
X52430359Y-136307500D02*
X52737641Y-136307500D01*
X52430359Y-137067500D02*
X52737641Y-137067500D01*
%TO.C,U3*%
X51668300Y-108056400D02*
X55788300Y-108056400D01*
X51668300Y-108151400D02*
X51668300Y-108056400D01*
X51668300Y-113176400D02*
X51668300Y-113081400D01*
X55788300Y-108056400D02*
X55788300Y-108151400D01*
X55788300Y-113081400D02*
X55788300Y-113176400D01*
X55788300Y-113176400D02*
X51668300Y-113176400D01*
X51128300Y-108146400D02*
X50888300Y-107816400D01*
X51368300Y-107816400D01*
X51128300Y-108146400D01*
G36*
X51128300Y-108146400D02*
G01*
X50888300Y-107816400D01*
X51368300Y-107816400D01*
X51128300Y-108146400D01*
G37*
%TO.C,U8*%
X56959200Y-133754700D02*
X58779200Y-133754700D01*
X56959200Y-133804700D02*
X56959200Y-133754700D01*
X56959200Y-136874700D02*
X56959200Y-136824700D01*
X58779200Y-133754700D02*
X58779200Y-133804700D01*
X58779200Y-136824700D02*
X58779200Y-136874700D01*
X58779200Y-136874700D02*
X56959200Y-136874700D01*
X56419200Y-133804700D02*
X56179200Y-133474700D01*
X56659200Y-133474700D01*
X56419200Y-133804700D01*
G36*
X56419200Y-133804700D02*
G01*
X56179200Y-133474700D01*
X56659200Y-133474700D01*
X56419200Y-133804700D01*
G37*
%TO.C,R28*%
X45946759Y-112778700D02*
X46254041Y-112778700D01*
X45946759Y-113538700D02*
X46254041Y-113538700D01*
%TO.C,C14*%
X22332664Y-104536400D02*
X22548336Y-104536400D01*
X22332664Y-105256400D02*
X22548336Y-105256400D01*
%TO.C,MK1*%
X7330000Y-102325000D02*
X7330000Y-107125000D01*
X11470000Y-102025000D02*
X7630000Y-102025000D01*
X11470000Y-102025000D02*
X11470000Y-107125000D01*
X11470000Y-107125000D02*
X7330000Y-107125000D01*
X7330000Y-102025000D02*
X7050000Y-102025000D01*
X7330000Y-101745000D01*
X7330000Y-102025000D01*
G36*
X7330000Y-102025000D02*
G01*
X7050000Y-102025000D01*
X7330000Y-101745000D01*
X7330000Y-102025000D01*
G37*
%TO.C,R22*%
X28946359Y-139220000D02*
X29253641Y-139220000D01*
X28946359Y-139980000D02*
X29253641Y-139980000D01*
%TO.C,SW2*%
X4319200Y-123899600D02*
X4319200Y-125899600D01*
X5369200Y-122599600D02*
X5819200Y-122149600D01*
X5369200Y-127199600D02*
X5819200Y-127649600D01*
X5819200Y-122149600D02*
X8319200Y-122149600D01*
X5819200Y-127649600D02*
X8319200Y-127649600D01*
X8769200Y-122599600D02*
X8319200Y-122149600D01*
X8769200Y-127199600D02*
X8319200Y-127649600D01*
X9819200Y-123899600D02*
X9819200Y-125899600D01*
%TO.C,C18*%
X21750920Y-117409400D02*
X22032080Y-117409400D01*
X21750920Y-118429400D02*
X22032080Y-118429400D01*
%TO.C,C1*%
X29733364Y-117289900D02*
X29949036Y-117289900D01*
X29733364Y-118009900D02*
X29949036Y-118009900D01*
%TO.C,J5*%
X26040000Y-109490000D02*
X26040000Y-110740000D01*
X26340000Y-111100000D02*
X26950000Y-111100000D01*
X26340000Y-112400000D02*
X26950000Y-112400000D01*
X26950000Y-110400000D02*
X26950000Y-113900000D01*
X26950000Y-113900000D02*
X31850000Y-113900000D01*
X27290000Y-109490000D02*
X26040000Y-109490000D01*
X27800000Y-109590000D02*
X27800000Y-109790000D01*
X28100000Y-109590000D02*
X27800000Y-109590000D01*
X28100000Y-109690000D02*
X27800000Y-109690000D01*
X28100000Y-109790000D02*
X28100000Y-109590000D01*
X28900000Y-109790000D02*
X28900000Y-110400000D01*
X28900000Y-110400000D02*
X26950000Y-110400000D01*
X29300000Y-113400000D02*
X29500000Y-113400000D01*
X29300000Y-113900000D02*
X29300000Y-113400000D01*
X29400000Y-113900000D02*
X29400000Y-113400000D01*
X29500000Y-113400000D02*
X29500000Y-113900000D01*
X29900000Y-110400000D02*
X29900000Y-109790000D01*
X31850000Y-110400000D02*
X29900000Y-110400000D01*
X31850000Y-113900000D02*
X31850000Y-110400000D01*
X32460000Y-111100000D02*
X31850000Y-111100000D01*
X32460000Y-112400000D02*
X31850000Y-112400000D01*
X26340000Y-109790000D02*
X32460000Y-109790000D01*
X32460000Y-114510000D01*
X26340000Y-114510000D01*
X26340000Y-109790000D01*
%TO.C,C6*%
X37860848Y-104488600D02*
X38383352Y-104488600D01*
X37860848Y-105958600D02*
X38383352Y-105958600D01*
%TO.C,C11*%
X22251864Y-113430400D02*
X22467536Y-113430400D01*
X22251864Y-114150400D02*
X22467536Y-114150400D01*
%TO.C,C12*%
X22251864Y-107082300D02*
X22467536Y-107082300D01*
X22251864Y-107802300D02*
X22467536Y-107802300D01*
%TO.C,D3*%
X53209700Y-142160800D02*
X53209700Y-143630800D01*
X53209700Y-143630800D02*
X55494700Y-143630800D01*
X55494700Y-142160800D02*
X53209700Y-142160800D01*
%TO.C,C8*%
X42453248Y-108530100D02*
X42975752Y-108530100D01*
X42453248Y-110000100D02*
X42975752Y-110000100D01*
%TO.C,R26*%
X2846359Y-115898200D02*
X3153641Y-115898200D01*
X2846359Y-116658200D02*
X3153641Y-116658200D01*
%TO.C,R8*%
X44535959Y-121538800D02*
X44843241Y-121538800D01*
X44535959Y-122298800D02*
X44843241Y-122298800D01*
%TO.C,R18*%
X15994559Y-124798700D02*
X16301841Y-124798700D01*
X15994559Y-125558700D02*
X16301841Y-125558700D01*
%TO.C,R6*%
X44461659Y-131171800D02*
X44768941Y-131171800D01*
X44461659Y-131931800D02*
X44768941Y-131931800D01*
%TO.C,R24*%
X46374659Y-110236400D02*
X46681941Y-110236400D01*
X46374659Y-110996400D02*
X46681941Y-110996400D01*
%TO.C,C13*%
X25506664Y-105305100D02*
X25722336Y-105305100D01*
X25506664Y-106025100D02*
X25722336Y-106025100D01*
%TO.C,C3*%
X15774348Y-117162300D02*
X16296852Y-117162300D01*
X15774348Y-118632300D02*
X16296852Y-118632300D01*
%TO.C,U5*%
X32458000Y-132833700D02*
X35458000Y-132833700D01*
X32458000Y-137053700D02*
X35458000Y-137053700D01*
X31968000Y-133383700D02*
X31488000Y-133383700D01*
X31968000Y-132903700D01*
X31968000Y-133383700D01*
G36*
X31968000Y-133383700D02*
G01*
X31488000Y-133383700D01*
X31968000Y-132903700D01*
X31968000Y-133383700D01*
G37*
%TO.C,C9*%
X20069048Y-124793200D02*
X20591552Y-124793200D01*
X20069048Y-126263200D02*
X20591552Y-126263200D01*
%TO.C,R21*%
X23693159Y-133228300D02*
X24000441Y-133228300D01*
X23693159Y-133988300D02*
X24000441Y-133988300D01*
%TO.C,C26*%
X18306664Y-108905100D02*
X18522336Y-108905100D01*
X18306664Y-109625100D02*
X18522336Y-109625100D01*
%TO.C,U7*%
X55406500Y-103176900D02*
X57226500Y-103176900D01*
X55406500Y-103226900D02*
X55406500Y-103176900D01*
X55406500Y-106296900D02*
X55406500Y-106246900D01*
X57226500Y-103176900D02*
X57226500Y-103226900D01*
X57226500Y-106246900D02*
X57226500Y-106296900D01*
X57226500Y-106296900D02*
X55406500Y-106296900D01*
X54866500Y-103226900D02*
X54626500Y-102896900D01*
X55106500Y-102896900D01*
X54866500Y-103226900D01*
G36*
X54866500Y-103226900D02*
G01*
X54626500Y-102896900D01*
X55106500Y-102896900D01*
X54866500Y-103226900D01*
G37*
%TO.C,R19*%
X3492259Y-113163300D02*
X3799541Y-113163300D01*
X3492259Y-113923300D02*
X3799541Y-113923300D01*
%TO.C,D1*%
X42905300Y-102091200D02*
X42905300Y-103791200D01*
X42905300Y-102091200D02*
X45565300Y-102091200D01*
X42905300Y-103791200D02*
X45565300Y-103791200D01*
%TO.C,C29*%
X16769264Y-102557100D02*
X16984936Y-102557100D01*
X16769264Y-103277100D02*
X16984936Y-103277100D01*
%TO.C,R3*%
X8910059Y-113719900D02*
X9217341Y-113719900D01*
X8910059Y-114479900D02*
X9217341Y-114479900D01*
%TO.C,C7*%
X16360148Y-120908100D02*
X16882652Y-120908100D01*
X16360148Y-122378100D02*
X16882652Y-122378100D01*
%TO.C,Q1*%
X42749000Y-115940000D02*
X44269000Y-115940000D01*
X42749000Y-115990000D02*
X42749000Y-115940000D01*
X42749000Y-117890000D02*
X42749000Y-117110000D01*
X42749000Y-119060000D02*
X42749000Y-119010000D01*
X44269000Y-115940000D02*
X44269000Y-116940000D01*
X44269000Y-118060000D02*
X44269000Y-119060000D01*
X44269000Y-119060000D02*
X42749000Y-119060000D01*
X42209000Y-117120000D02*
X42449000Y-117450000D01*
X41969000Y-117450000D01*
X42209000Y-117120000D01*
G36*
X42449000Y-117450000D02*
G01*
X41969000Y-117450000D01*
X42209000Y-117120000D01*
X42449000Y-117450000D01*
G37*
%TO.C,J2*%
X15330000Y-16535000D02*
X15330000Y-2525000D01*
X16810000Y-465000D02*
X16550000Y-465000D01*
X17010000Y-265000D02*
X16810000Y-465000D01*
X17010000Y-265000D02*
X19320000Y-265000D01*
X17250000Y-16535000D02*
X15330000Y-16535000D01*
X19320000Y-265000D02*
X19830000Y-615000D01*
X26200000Y-615000D02*
X19830000Y-615000D01*
X26200000Y-615000D02*
X26200000Y-465000D01*
X26410000Y-265000D02*
X26200000Y-465000D01*
X28270000Y-265000D02*
X26410000Y-265000D01*
X28270000Y-265000D02*
X28470000Y-465000D01*
X28850000Y-16535000D02*
X29300000Y-16535000D01*
X29300000Y-5225000D02*
X29300000Y-3425000D01*
X29300000Y-11225000D02*
X29300000Y-6525000D01*
X29300000Y-16535000D02*
X29300000Y-12925000D01*
%TO.C,R25*%
X45883859Y-71170800D02*
X46191141Y-71170800D01*
X45883859Y-71930800D02*
X46191141Y-71930800D01*
%TO.C,U1*%
X6200000Y-33080000D02*
X6200000Y-39280000D01*
X6200000Y-33080000D02*
X24600000Y-33080000D01*
X6200000Y-57930000D02*
X6200000Y-58930000D01*
X6200000Y-58930000D02*
X7700000Y-58930000D01*
X24600000Y-33080000D02*
X24600000Y-39280000D01*
X24600000Y-58930000D02*
X23100000Y-58930000D01*
X24600000Y-58930000D02*
X24600000Y-57930000D01*
X6200000Y-39955000D02*
X5700000Y-39955000D01*
X6200000Y-39455000D01*
X6200000Y-39955000D01*
G36*
X6200000Y-39955000D02*
G01*
X5700000Y-39955000D01*
X6200000Y-39455000D01*
X6200000Y-39955000D01*
G37*
%TO.C,R10*%
X41346359Y-49220000D02*
X41653641Y-49220000D01*
X41346359Y-49980000D02*
X41653641Y-49980000D01*
%TO.C,R17*%
X41780859Y-57841600D02*
X42088141Y-57841600D01*
X41780859Y-58601600D02*
X42088141Y-58601600D01*
%TD*%
M02*
