%TF.GenerationSoftware,KiCad,Pcbnew,10.0.6*%
%TF.CreationDate,2026-09-25T10:03:13-04:00*%
%TF.ProjectId,qurannode,71757261-6e6e-46f6-9465-2e6b69636164,rev?*%
%TF.SameCoordinates,Original*%
%TF.FileFunction,Legend,Top*%
%TF.FilePolarity,Positive*%
%FSLAX46Y46*%
G04 Gerber Fmt 4.6, Leading zero omitted, Abs format (unit mm)*
G04 Created by KiCad (PCBNEW 10.0.6) date 2026-09-25 10:03:13*
%MOMM*%
%LPD*%
G01*
G04 APERTURE LIST*
%ADD10C,0.150000*%
%ADD11C,0.120000*%
%ADD12C,0.225000*%
G04 APERTURE END LIST*
D10*
X3900000Y-2000000D02*
X58900000Y-2000000D01*
X58900000Y-99000000D01*
X3900000Y-99000000D01*
X3900000Y-2000000D01*
%TO.C,R23*%
D11*
X28946359Y-139220000D02*
X29253641Y-139220000D01*
X28946359Y-139980000D02*
X29253641Y-139980000D01*
%TO.C,SW1*%
X26450000Y-120650000D02*
X36350000Y-120650000D01*
X36350000Y-130550000D01*
X26450000Y-130550000D01*
X26450000Y-120650000D01*
%TO.C,R24*%
X29449959Y-141723000D02*
X29757241Y-141723000D01*
X29449959Y-142483000D02*
X29757241Y-142483000D01*
%TO.C,R1*%
X19484859Y-125682300D02*
X19792141Y-125682300D01*
X19484859Y-126442300D02*
X19792141Y-126442300D01*
%TO.C,C25*%
X16332764Y-107100000D02*
X16548436Y-107100000D01*
X16332764Y-107820000D02*
X16548436Y-107820000D01*
%TO.C,R13*%
X41649859Y-54504600D02*
X41957141Y-54504600D01*
X41649859Y-55264600D02*
X41957141Y-55264600D01*
%TO.C,R21*%
X49552359Y-63970600D02*
X49859641Y-63970600D01*
X49552359Y-64730600D02*
X49859641Y-64730600D01*
%TO.C,C20*%
X5809620Y-130194800D02*
X6090780Y-130194800D01*
X5809620Y-131214800D02*
X6090780Y-131214800D01*
%TO.C,R3*%
X46882959Y-113674300D02*
X47190241Y-113674300D01*
X46882959Y-114434300D02*
X47190241Y-114434300D01*
%TO.C,R9*%
X46746359Y-49220000D02*
X47053641Y-49220000D01*
X46746359Y-49980000D02*
X47053641Y-49980000D01*
%TO.C,J4*%
X44040000Y-13490000D02*
X44040000Y-14740000D01*
X44340000Y-15100000D02*
X44950000Y-15100000D01*
X44340000Y-16400000D02*
X44950000Y-16400000D01*
X44950000Y-14400000D02*
X44950000Y-17900000D01*
X44950000Y-17900000D02*
X49850000Y-17900000D01*
X45290000Y-13490000D02*
X44040000Y-13490000D01*
X45800000Y-13590000D02*
X45800000Y-13790000D01*
X46100000Y-13590000D02*
X45800000Y-13590000D01*
X46100000Y-13690000D02*
X45800000Y-13690000D01*
X46100000Y-13790000D02*
X46100000Y-13590000D01*
X46900000Y-13790000D02*
X46900000Y-14400000D01*
X46900000Y-14400000D02*
X44950000Y-14400000D01*
X47300000Y-17400000D02*
X47500000Y-17400000D01*
X47300000Y-17900000D02*
X47300000Y-17400000D01*
X47400000Y-17900000D02*
X47400000Y-17400000D01*
X47500000Y-17400000D02*
X47500000Y-17900000D01*
X47900000Y-14400000D02*
X47900000Y-13790000D01*
X49850000Y-14400000D02*
X47900000Y-14400000D01*
X49850000Y-17900000D02*
X49850000Y-14400000D01*
X50460000Y-15100000D02*
X49850000Y-15100000D01*
X50460000Y-16400000D02*
X49850000Y-16400000D01*
X44340000Y-13790000D02*
X50460000Y-13790000D01*
X50460000Y-18510000D01*
X44340000Y-18510000D01*
X44340000Y-13790000D01*
%TO.C,D3*%
X53209700Y-142160800D02*
X53209700Y-143630800D01*
X53209700Y-143630800D02*
X55494700Y-143630800D01*
X55494700Y-142160800D02*
X53209700Y-142160800D01*
%TO.C,R26*%
X47878559Y-60624700D02*
X48185841Y-60624700D01*
X47878559Y-61384700D02*
X48185841Y-61384700D01*
%TO.C,C6*%
X11810648Y-109899100D02*
X12333152Y-109899100D01*
X11810648Y-111369100D02*
X12333152Y-111369100D01*
%TO.C,FB2*%
X45290421Y-9098300D02*
X45615979Y-9098300D01*
X45290421Y-10118300D02*
X45615979Y-10118300D01*
%TO.C,C5*%
X15166148Y-116307600D02*
X15688652Y-116307600D01*
X15166148Y-117777600D02*
X15688652Y-117777600D01*
%TO.C,Q3*%
X42913800Y-116873200D02*
X44433800Y-116873200D01*
X42913800Y-116923200D02*
X42913800Y-116873200D01*
X42913800Y-118823200D02*
X42913800Y-118043200D01*
X42913800Y-119993200D02*
X42913800Y-119943200D01*
X44433800Y-116873200D02*
X44433800Y-117873200D01*
X44433800Y-118993200D02*
X44433800Y-119993200D01*
X44433800Y-119993200D02*
X42913800Y-119993200D01*
X42373800Y-118053200D02*
X42613800Y-118383200D01*
X42133800Y-118383200D01*
X42373800Y-118053200D01*
G36*
X42613800Y-118383200D02*
G01*
X42133800Y-118383200D01*
X42373800Y-118053200D01*
X42613800Y-118383200D01*
G37*
%TO.C,C23*%
X20596448Y-117175100D02*
X21118952Y-117175100D01*
X20596448Y-118645100D02*
X21118952Y-118645100D01*
%TO.C,C8*%
X42391448Y-112015100D02*
X42913952Y-112015100D01*
X42391448Y-113485100D02*
X42913952Y-113485100D01*
%TO.C,R30*%
X33046359Y-3620000D02*
X33353641Y-3620000D01*
X33046359Y-4380000D02*
X33353641Y-4380000D01*
%TO.C,D1*%
X1390000Y-103149200D02*
X1390000Y-104849200D01*
X1390000Y-103149200D02*
X4050000Y-103149200D01*
X1390000Y-104849200D02*
X4050000Y-104849200D01*
%TO.C,C18*%
X23706220Y-145081700D02*
X23987380Y-145081700D01*
X23706220Y-146101700D02*
X23987380Y-146101700D01*
%TO.C,R6*%
X44461659Y-131171800D02*
X44768941Y-131171800D01*
X44461659Y-131931800D02*
X44768941Y-131931800D01*
%TO.C,R10*%
X17357059Y-112769000D02*
X17664341Y-112769000D01*
X17357059Y-113529000D02*
X17664341Y-113529000D01*
%TO.C,J6*%
X7200000Y-141300000D02*
X7200000Y-140950000D01*
X7200000Y-147750000D02*
X7200000Y-143300000D01*
X7200000Y-151600000D02*
X7200000Y-149750000D01*
X7800000Y-151600000D02*
X7200000Y-151600000D01*
X7800000Y-153600000D02*
X7800000Y-151600000D01*
X9100000Y-139400000D02*
X13600000Y-139400000D01*
X13000000Y-151600000D02*
X13000000Y-153600000D01*
X13000000Y-153600000D02*
X7800000Y-153600000D01*
X13600000Y-139400000D02*
X13600000Y-140000000D01*
X13600000Y-141900000D02*
X13600000Y-145100000D01*
X13600000Y-146950000D02*
X13600000Y-147800000D01*
X13600000Y-149700000D02*
X13600000Y-151600000D01*
X13600000Y-149700000D02*
X15300000Y-149700000D01*
X13600000Y-151600000D02*
X13000000Y-151600000D01*
X15300000Y-147800000D02*
X13600000Y-147800000D01*
%TO.C,J3*%
X13620000Y-92170000D02*
X13620000Y-90900000D01*
X14460000Y-89740000D02*
X14460000Y-89510000D01*
X14890000Y-92170000D02*
X13620000Y-92170000D01*
X15320000Y-89740000D02*
X15320000Y-89510000D01*
X16160000Y-89510000D02*
X16160000Y-86750000D01*
X17000000Y-80750000D02*
X17860000Y-80750000D01*
X17000000Y-86750000D02*
X17000000Y-80750000D01*
X17000000Y-89822642D02*
X17000000Y-89510000D01*
X17860000Y-80750000D02*
X17860000Y-86750000D01*
X17860000Y-89822642D02*
X17860000Y-89510000D01*
X18700000Y-89510000D02*
X18700000Y-86750000D01*
X19540000Y-80750000D02*
X20400000Y-80750000D01*
X19540000Y-86750000D02*
X19540000Y-80750000D01*
X19540000Y-89822642D02*
X19540000Y-89510000D01*
X20400000Y-80750000D02*
X20400000Y-86750000D01*
X20400000Y-89822642D02*
X20400000Y-89510000D01*
X21240000Y-89510000D02*
X21240000Y-86750000D01*
X22080000Y-80750000D02*
X22940000Y-80750000D01*
X22080000Y-86750000D02*
X22080000Y-80750000D01*
X22080000Y-89822642D02*
X22080000Y-89510000D01*
X22940000Y-80750000D02*
X22940000Y-86750000D01*
X22940000Y-89822642D02*
X22940000Y-89510000D01*
X23780000Y-89510000D02*
X23780000Y-86750000D01*
X24620000Y-80750000D02*
X25480000Y-80750000D01*
X24620000Y-86750000D02*
X24620000Y-80750000D01*
X24620000Y-89822642D02*
X24620000Y-89510000D01*
X25480000Y-80750000D02*
X25480000Y-86750000D01*
X25480000Y-89822642D02*
X25480000Y-89510000D01*
X26320000Y-89510000D02*
X26320000Y-86750000D01*
X27160000Y-80750000D02*
X28020000Y-80750000D01*
X27160000Y-86750000D02*
X27160000Y-80750000D01*
X27160000Y-89822642D02*
X27160000Y-89510000D01*
X28020000Y-80750000D02*
X28020000Y-86750000D01*
X28020000Y-89822642D02*
X28020000Y-89510000D01*
X28860000Y-89510000D02*
X28860000Y-86750000D01*
X29700000Y-80750000D02*
X30560000Y-80750000D01*
X29700000Y-86750000D02*
X29700000Y-80750000D01*
X29700000Y-89822642D02*
X29700000Y-89510000D01*
X30560000Y-80750000D02*
X30560000Y-86750000D01*
X30560000Y-89822642D02*
X30560000Y-89510000D01*
X31400000Y-89510000D02*
X31400000Y-86750000D01*
X32240000Y-80750000D02*
X33100000Y-80750000D01*
X32240000Y-86750000D02*
X32240000Y-80750000D01*
X32240000Y-89822642D02*
X32240000Y-89510000D01*
X33100000Y-80750000D02*
X33100000Y-86750000D01*
X33100000Y-89822642D02*
X33100000Y-89510000D01*
X33940000Y-89510000D02*
X33940000Y-86750000D01*
X34780000Y-80750000D02*
X35640000Y-80750000D01*
X34780000Y-86750000D02*
X34780000Y-80750000D01*
X34780000Y-89822642D02*
X34780000Y-89510000D01*
X35640000Y-80750000D02*
X35640000Y-86750000D01*
X35640000Y-89822642D02*
X35640000Y-89510000D01*
X36480000Y-89510000D02*
X36480000Y-86750000D01*
X37320000Y-80750000D02*
X38180000Y-80750000D01*
X37320000Y-86750000D02*
X37320000Y-80750000D01*
X37320000Y-89822642D02*
X37320000Y-89510000D01*
X38180000Y-80750000D02*
X38180000Y-86750000D01*
X38180000Y-89822642D02*
X38180000Y-89510000D01*
X39020000Y-89510000D02*
X39020000Y-86750000D01*
X39860000Y-80750000D02*
X40720000Y-80750000D01*
X39860000Y-86750000D02*
X39860000Y-80750000D01*
X39860000Y-89822642D02*
X39860000Y-89510000D01*
X40720000Y-80750000D02*
X40720000Y-86750000D01*
X40720000Y-89822642D02*
X40720000Y-89510000D01*
X41560000Y-89510000D02*
X41560000Y-86750000D01*
X42400000Y-80750000D02*
X43260000Y-80750000D01*
X42400000Y-86750000D02*
X42400000Y-80750000D01*
X42400000Y-89822642D02*
X42400000Y-89510000D01*
X43260000Y-80750000D02*
X43260000Y-86750000D01*
X43260000Y-89822642D02*
X43260000Y-89510000D01*
X44100000Y-89510000D02*
X44100000Y-86750000D01*
X44940000Y-80750000D02*
X45800000Y-80750000D01*
X44940000Y-86750000D02*
X44940000Y-80750000D01*
X44940000Y-89822642D02*
X44940000Y-89510000D01*
X45800000Y-80750000D02*
X45800000Y-86750000D01*
X45800000Y-89822642D02*
X45800000Y-89510000D01*
X46640000Y-89510000D02*
X46640000Y-86750000D01*
X47480000Y-80750000D02*
X48340000Y-80750000D01*
X47480000Y-86750000D02*
X47480000Y-80750000D01*
X47480000Y-89822642D02*
X47480000Y-89510000D01*
X48340000Y-80750000D02*
X48340000Y-86750000D01*
X48340000Y-89822642D02*
X48340000Y-89510000D01*
X13510000Y-86750000D02*
X49290000Y-86750000D01*
X49290000Y-89510000D01*
X13510000Y-89510000D01*
X13510000Y-86750000D01*
X14460000Y-80750000D02*
X15320000Y-80750000D01*
X15320000Y-86750000D01*
X14460000Y-86750000D01*
X14460000Y-80750000D01*
G36*
X14460000Y-80750000D02*
G01*
X15320000Y-80750000D01*
X15320000Y-86750000D01*
X14460000Y-86750000D01*
X14460000Y-80750000D01*
G37*
%TO.C,C4*%
X37049448Y-112414000D02*
X37571952Y-112414000D01*
X37049448Y-113884000D02*
X37571952Y-113884000D01*
%TO.C,R11*%
X44245459Y-61556800D02*
X44552741Y-61556800D01*
X44245459Y-62316800D02*
X44552741Y-62316800D01*
%TO.C,R28*%
X41780859Y-40598400D02*
X42088141Y-40598400D01*
X41780859Y-41358400D02*
X42088141Y-41358400D01*
%TO.C,R25*%
X16214959Y-124887100D02*
X16522241Y-124887100D01*
X16214959Y-125647100D02*
X16522241Y-125647100D01*
%TO.C,C2*%
X37535948Y-115946500D02*
X38058452Y-115946500D01*
X37535948Y-117416500D02*
X38058452Y-117416500D01*
%TO.C,C9*%
X5255364Y-106897700D02*
X5471036Y-106897700D01*
X5255364Y-107617700D02*
X5471036Y-107617700D01*
%TO.C,R20*%
X23693159Y-133228300D02*
X24000441Y-133228300D01*
X23693159Y-133988300D02*
X24000441Y-133988300D01*
%TO.C,FB1*%
X49184021Y-21081700D02*
X49509579Y-21081700D01*
X49184021Y-22101700D02*
X49509579Y-22101700D01*
%TO.C,R18*%
X48968559Y-75190700D02*
X49275841Y-75190700D01*
X48968559Y-75950700D02*
X49275841Y-75950700D01*
%TO.C,R14*%
X45344259Y-74796100D02*
X45651541Y-74796100D01*
X45344259Y-75556100D02*
X45651541Y-75556100D01*
%TO.C,U6*%
X36045400Y-132792300D02*
X37865400Y-132792300D01*
X36045400Y-132842300D02*
X36045400Y-132792300D01*
X36045400Y-135912300D02*
X36045400Y-135862300D01*
X37865400Y-132792300D02*
X37865400Y-132842300D01*
X37865400Y-135862300D02*
X37865400Y-135912300D01*
X37865400Y-135912300D02*
X36045400Y-135912300D01*
X35505400Y-132842300D02*
X35265400Y-132512300D01*
X35745400Y-132512300D01*
X35505400Y-132842300D01*
G36*
X35505400Y-132842300D02*
G01*
X35265400Y-132512300D01*
X35745400Y-132512300D01*
X35505400Y-132842300D01*
G37*
%TO.C,Q2*%
X41582000Y-122583800D02*
X43102000Y-122583800D01*
X41582000Y-122633800D02*
X41582000Y-122583800D01*
X41582000Y-124533800D02*
X41582000Y-123753800D01*
X41582000Y-125703800D02*
X41582000Y-125653800D01*
X43102000Y-122583800D02*
X43102000Y-123583800D01*
X43102000Y-124703800D02*
X43102000Y-125703800D01*
X43102000Y-125703800D02*
X41582000Y-125703800D01*
X41042000Y-123763800D02*
X41282000Y-124093800D01*
X40802000Y-124093800D01*
X41042000Y-123763800D01*
G36*
X41282000Y-124093800D02*
G01*
X40802000Y-124093800D01*
X41042000Y-123763800D01*
X41282000Y-124093800D01*
G37*
%TO.C,R16*%
X41780859Y-57841600D02*
X42088141Y-57841600D01*
X41780859Y-58601600D02*
X42088141Y-58601600D01*
%TO.C,Q1*%
X14426200Y-119726400D02*
X15946200Y-119726400D01*
X14426200Y-119776400D02*
X14426200Y-119726400D01*
X14426200Y-121676400D02*
X14426200Y-120896400D01*
X14426200Y-122846400D02*
X14426200Y-122796400D01*
X15946200Y-119726400D02*
X15946200Y-120726400D01*
X15946200Y-121846400D02*
X15946200Y-122846400D01*
X15946200Y-122846400D02*
X14426200Y-122846400D01*
X13886200Y-120906400D02*
X14126200Y-121236400D01*
X13646200Y-121236400D01*
X13886200Y-120906400D01*
G36*
X14126200Y-121236400D02*
G01*
X13646200Y-121236400D01*
X13886200Y-120906400D01*
X14126200Y-121236400D01*
G37*
%TO.C,C1*%
X29385464Y-117488400D02*
X29601136Y-117488400D01*
X29385464Y-118208400D02*
X29601136Y-118208400D01*
%TO.C,C22*%
X33127764Y-117021100D02*
X33343436Y-117021100D01*
X33127764Y-117741100D02*
X33343436Y-117741100D01*
%TO.C,U4*%
X44224000Y-134127500D02*
X48344000Y-134127500D01*
X44224000Y-134222500D02*
X44224000Y-134127500D01*
X44224000Y-139247500D02*
X44224000Y-139152500D01*
X48344000Y-134127500D02*
X48344000Y-134222500D01*
X48344000Y-139152500D02*
X48344000Y-139247500D01*
X48344000Y-139247500D02*
X44224000Y-139247500D01*
X43684000Y-134217500D02*
X43444000Y-133887500D01*
X43924000Y-133887500D01*
X43684000Y-134217500D01*
G36*
X43684000Y-134217500D02*
G01*
X43444000Y-133887500D01*
X43924000Y-133887500D01*
X43684000Y-134217500D01*
G37*
%TO.C,C12*%
X29438764Y-102868000D02*
X29654436Y-102868000D01*
X29438764Y-103588000D02*
X29654436Y-103588000D01*
%TO.C,U1*%
X6200000Y-33080000D02*
X6200000Y-39280000D01*
X6200000Y-33080000D02*
X24600000Y-33080000D01*
X6200000Y-57930000D02*
X6200000Y-58930000D01*
X6200000Y-58930000D02*
X7700000Y-58930000D01*
X24600000Y-33080000D02*
X24600000Y-39280000D01*
X24600000Y-58930000D02*
X23100000Y-58930000D01*
X24600000Y-58930000D02*
X24600000Y-57930000D01*
X6200000Y-39955000D02*
X5700000Y-39955000D01*
X6200000Y-39455000D01*
X6200000Y-39955000D01*
G36*
X6200000Y-39955000D02*
G01*
X5700000Y-39955000D01*
X6200000Y-39455000D01*
X6200000Y-39955000D01*
G37*
%TO.C,R7*%
X52430359Y-136307500D02*
X52737641Y-136307500D01*
X52430359Y-137067500D02*
X52737641Y-137067500D01*
%TO.C,C15*%
X16229348Y-102907200D02*
X16751852Y-102907200D01*
X16229348Y-104377200D02*
X16751852Y-104377200D01*
%TO.C,C7*%
X43619748Y-105688400D02*
X44142252Y-105688400D01*
X43619748Y-107158400D02*
X44142252Y-107158400D01*
%TO.C,C10*%
X22340964Y-110344800D02*
X22556636Y-110344800D01*
X22340964Y-111064800D02*
X22556636Y-111064800D01*
%TO.C,C3*%
X21045048Y-122693900D02*
X21567552Y-122693900D01*
X21045048Y-124163900D02*
X21567552Y-124163900D01*
%TO.C,J2*%
X15330000Y-16535000D02*
X15330000Y-2525000D01*
X16810000Y-465000D02*
X16550000Y-465000D01*
X17010000Y-265000D02*
X16810000Y-465000D01*
X17010000Y-265000D02*
X19320000Y-265000D01*
X17250000Y-16535000D02*
X15330000Y-16535000D01*
X19320000Y-265000D02*
X19830000Y-615000D01*
X26200000Y-615000D02*
X19830000Y-615000D01*
X26200000Y-615000D02*
X26200000Y-465000D01*
X26410000Y-265000D02*
X26200000Y-465000D01*
X28270000Y-265000D02*
X26410000Y-265000D01*
X28270000Y-265000D02*
X28470000Y-465000D01*
X28850000Y-16535000D02*
X29300000Y-16535000D01*
X29300000Y-5225000D02*
X29300000Y-3425000D01*
X29300000Y-11225000D02*
X29300000Y-6525000D01*
X29300000Y-16535000D02*
X29300000Y-12925000D01*
%TO.C,R22*%
X10339759Y-119255200D02*
X10647041Y-119255200D01*
X10339759Y-120015200D02*
X10647041Y-120015200D01*
%TO.C,SW2*%
X51198800Y-109704800D02*
X51198800Y-111704800D01*
X52248800Y-108404800D02*
X52698800Y-107954800D01*
X52248800Y-113004800D02*
X52698800Y-113454800D01*
X52698800Y-107954800D02*
X55198800Y-107954800D01*
X52698800Y-113454800D02*
X55198800Y-113454800D01*
X55648800Y-108404800D02*
X55198800Y-107954800D01*
X55648800Y-113004800D02*
X55198800Y-113454800D01*
X56698800Y-109704800D02*
X56698800Y-111704800D01*
%TO.C,C14*%
X33501764Y-102726000D02*
X33717436Y-102726000D01*
X33501764Y-103446000D02*
X33717436Y-103446000D01*
%TO.C,C17*%
X21658220Y-113656300D02*
X21939380Y-113656300D01*
X21658220Y-114676300D02*
X21939380Y-114676300D01*
%TO.C,C13*%
X21429564Y-103397000D02*
X21645236Y-103397000D01*
X21429564Y-104117000D02*
X21645236Y-104117000D01*
%TO.C,U5*%
X5196900Y-112816100D02*
X7296900Y-112816100D01*
X5196900Y-116916100D02*
X7296900Y-116916100D01*
D12*
X4209400Y-113366100D02*
G75*
G02*
X3984400Y-113366100I-112500J0D01*
G01*
X3984400Y-113366100D02*
G75*
G02*
X4209400Y-113366100I112500J0D01*
G01*
%TO.C,C24*%
D11*
X20021764Y-107498900D02*
X20237436Y-107498900D01*
X20021764Y-108218900D02*
X20237436Y-108218900D01*
%TO.C,C11*%
X25172264Y-105209100D02*
X25387936Y-105209100D01*
X25172264Y-105929100D02*
X25387936Y-105929100D01*
%TO.C,R29*%
X16147959Y-128059400D02*
X16455241Y-128059400D01*
X16147959Y-128819400D02*
X16455241Y-128819400D01*
%TO.C,U3*%
X6407800Y-122849000D02*
X9627800Y-122849000D01*
X6407800Y-123024000D02*
X6407800Y-122849000D01*
X6407800Y-126069000D02*
X6407800Y-125894000D01*
X9627800Y-122849000D02*
X9627800Y-123024000D01*
X9627800Y-125894000D02*
X9627800Y-126069000D01*
X9627800Y-126069000D02*
X6407800Y-126069000D01*
X5857800Y-123019000D02*
X5617800Y-122689000D01*
X6097800Y-122689000D01*
X5857800Y-123019000D01*
G36*
X5857800Y-123019000D02*
G01*
X5617800Y-122689000D01*
X6097800Y-122689000D01*
X5857800Y-123019000D01*
G37*
%TO.C,R12*%
X21972859Y-129032100D02*
X22280141Y-129032100D01*
X21972859Y-129792100D02*
X22280141Y-129792100D01*
%TO.C,R2*%
X41644159Y-109582700D02*
X41951441Y-109582700D01*
X41644159Y-110342700D02*
X41951441Y-110342700D01*
%TO.C,R27*%
X50100059Y-68968200D02*
X50407341Y-68968200D01*
X50100059Y-69728200D02*
X50407341Y-69728200D01*
%TO.C,C26*%
X38484048Y-104019700D02*
X39006552Y-104019700D01*
X38484048Y-105489700D02*
X39006552Y-105489700D01*
%TO.C,C16*%
X25978464Y-117230200D02*
X26194136Y-117230200D01*
X25978464Y-117950200D02*
X26194136Y-117950200D01*
%TO.C,C28*%
X18392164Y-110416600D02*
X18607836Y-110416600D01*
X18392164Y-111136600D02*
X18607836Y-111136600D01*
%TO.C,J1*%
X40820000Y-145447500D02*
X40820000Y-147367500D01*
X40820000Y-151082500D02*
X40820000Y-149377500D01*
X49980000Y-147367500D02*
X49980000Y-145447500D01*
X49980000Y-149377500D02*
X49980000Y-151082500D01*
X49980000Y-151082500D02*
X40820000Y-151082500D01*
%TO.C,R19*%
X19799559Y-133228300D02*
X20106841Y-133228300D01*
X19799559Y-133988300D02*
X20106841Y-133988300D01*
%TO.C,R8*%
X40862359Y-128132500D02*
X41169641Y-128132500D01*
X40862359Y-128892500D02*
X41169641Y-128892500D01*
%TO.C,C27*%
X37294648Y-108312000D02*
X37817152Y-108312000D01*
X37294648Y-109782000D02*
X37817152Y-109782000D01*
%TO.C,R4*%
X53328759Y-139125900D02*
X53636041Y-139125900D01*
X53328759Y-139885900D02*
X53636041Y-139885900D01*
%TO.C,MK1*%
X7975000Y-106777000D02*
X7975000Y-103377000D01*
X8275000Y-103077000D02*
X10825000Y-103077000D01*
X10825000Y-103077000D02*
X10825000Y-106777000D01*
X10825000Y-106777000D02*
X7975000Y-106777000D01*
X7975000Y-103077000D02*
X7695000Y-103077000D01*
X7975000Y-102797000D01*
X7975000Y-103077000D01*
G36*
X7975000Y-103077000D02*
G01*
X7695000Y-103077000D01*
X7975000Y-102797000D01*
X7975000Y-103077000D01*
G37*
%TO.C,C19*%
X10259420Y-132190000D02*
X10540580Y-132190000D01*
X10259420Y-133210000D02*
X10540580Y-133210000D01*
%TO.C,R15*%
X43221059Y-51138700D02*
X43528341Y-51138700D01*
X43221059Y-51898700D02*
X43528341Y-51898700D01*
%TO.C,C21*%
X42092164Y-74640000D02*
X42307836Y-74640000D01*
X42092164Y-75360000D02*
X42307836Y-75360000D01*
%TO.C,D2*%
X38384700Y-137928800D02*
X38384700Y-139398800D01*
X38384700Y-139398800D02*
X40669700Y-139398800D01*
X40669700Y-137928800D02*
X38384700Y-137928800D01*
%TO.C,R17*%
X10532059Y-115609000D02*
X10839341Y-115609000D01*
X10532059Y-116369000D02*
X10839341Y-116369000D01*
%TO.C,J5*%
X26040000Y-109490000D02*
X26040000Y-110740000D01*
X26340000Y-111100000D02*
X26950000Y-111100000D01*
X26340000Y-112400000D02*
X26950000Y-112400000D01*
X26950000Y-110400000D02*
X26950000Y-113900000D01*
X26950000Y-113900000D02*
X31850000Y-113900000D01*
X27290000Y-109490000D02*
X26040000Y-109490000D01*
X27800000Y-109590000D02*
X27800000Y-109790000D01*
X28100000Y-109590000D02*
X27800000Y-109590000D01*
X28100000Y-109690000D02*
X27800000Y-109690000D01*
X28100000Y-109790000D02*
X28100000Y-109590000D01*
X28900000Y-109790000D02*
X28900000Y-110400000D01*
X28900000Y-110400000D02*
X26950000Y-110400000D01*
X29300000Y-113400000D02*
X29500000Y-113400000D01*
X29300000Y-113900000D02*
X29300000Y-113400000D01*
X29400000Y-113900000D02*
X29400000Y-113400000D01*
X29500000Y-113400000D02*
X29500000Y-113900000D01*
X29900000Y-110400000D02*
X29900000Y-109790000D01*
X31850000Y-110400000D02*
X29900000Y-110400000D01*
X31850000Y-113900000D02*
X31850000Y-110400000D01*
X32460000Y-111100000D02*
X31850000Y-111100000D01*
X32460000Y-112400000D02*
X31850000Y-112400000D01*
X26340000Y-109790000D02*
X32460000Y-109790000D01*
X32460000Y-114510000D01*
X26340000Y-114510000D01*
X26340000Y-109790000D01*
%TO.C,L1*%
X41528000Y-63856900D02*
X46028000Y-63856900D01*
X41528000Y-68156900D02*
X46028000Y-68156900D01*
%TO.C,SW3*%
X51589200Y-118604500D02*
X51589200Y-120604500D01*
X52639200Y-117304500D02*
X53089200Y-116854500D01*
X52639200Y-121904500D02*
X53089200Y-122354500D01*
X53089200Y-116854500D02*
X55589200Y-116854500D01*
X53089200Y-122354500D02*
X55589200Y-122354500D01*
X56039200Y-117304500D02*
X55589200Y-116854500D01*
X56039200Y-121904500D02*
X55589200Y-122354500D01*
X57089200Y-118604500D02*
X57089200Y-120604500D01*
%TO.C,R5*%
X27982959Y-133474300D02*
X28290241Y-133474300D01*
X27982959Y-134234300D02*
X28290241Y-134234300D01*
%TO.C,U2*%
X19590000Y-136215000D02*
X24210000Y-136215000D01*
X24210000Y-142985000D02*
X19590000Y-142985000D01*
X18040000Y-136670000D02*
X17710000Y-136910000D01*
X17710000Y-136430000D01*
X18040000Y-136670000D01*
G36*
X18040000Y-136670000D02*
G01*
X17710000Y-136910000D01*
X17710000Y-136430000D01*
X18040000Y-136670000D01*
G37*
%TO.C,R31*%
X32517759Y-6957400D02*
X32825041Y-6957400D01*
X32517759Y-7717400D02*
X32825041Y-7717400D01*
%TO.C,R32*%
X11118959Y-7235500D02*
X11426241Y-7235500D01*
X11118959Y-7995500D02*
X11426241Y-7995500D01*
%TD*%
M02*
