%TF.GenerationSoftware,KiCad,Pcbnew,10.0.6*%
%TF.CreationDate,2026-09-24T15:09:47-04:00*%
%TF.ProjectId,qurannode,71757261-6e6e-46f6-9465-2e6b69636164,rev?*%
%TF.SameCoordinates,Original*%
%TF.FileFunction,Copper,L3,Inr*%
%TF.FilePolarity,Positive*%
%FSLAX46Y46*%
G04 Gerber Fmt 4.6, Leading zero omitted, Abs format (unit mm)*
G04 Created by KiCad (PCBNEW 10.0.6) date 2026-09-24 15:09:47*
%MOMM*%
%LPD*%
G01*
G04 APERTURE LIST*
G04 Aperture macros list*
%AMRoundRect*
0 Rectangle with rounded corners*
0 $1 Rounding radius*
0 $2 $3 $4 $5 $6 $7 $8 $9 X,Y pos of 4 corners*
0 Add a 4 corners polygon primitive as box body*
4,1,4,$2,$3,$4,$5,$6,$7,$8,$9,$2,$3,0*
0 Add four circle primitives for the rounded corners*
1,1,$1+$1,$2,$3*
1,1,$1+$1,$4,$5*
1,1,$1+$1,$6,$7*
1,1,$1+$1,$8,$9*
0 Add four rect primitives between the rounded corners*
20,1,$1+$1,$2,$3,$4,$5,0*
20,1,$1+$1,$4,$5,$6,$7,0*
20,1,$1+$1,$6,$7,$8,$9,0*
20,1,$1+$1,$8,$9,$2,$3,0*%
G04 Aperture macros list end*
%TA.AperFunction,HeatsinkPad*%
%ADD10C,0.600000*%
%TD*%
%TA.AperFunction,ComponentPad*%
%ADD11RoundRect,0.250000X-0.350000X-0.625000X0.350000X-0.625000X0.350000X0.625000X-0.350000X0.625000X0*%
%TD*%
%TA.AperFunction,ComponentPad*%
%ADD12O,1.200000X1.750000*%
%TD*%
%TA.AperFunction,ComponentPad*%
%ADD13R,1.700000X1.700000*%
%TD*%
%TA.AperFunction,ComponentPad*%
%ADD14C,1.700000*%
%TD*%
%TA.AperFunction,ComponentPad*%
%ADD15C,0.500000*%
%TD*%
%TA.AperFunction,ComponentPad*%
%ADD16O,1.000000X2.100000*%
%TD*%
%TA.AperFunction,ComponentPad*%
%ADD17O,1.000000X1.600000*%
%TD*%
%TA.AperFunction,ViaPad*%
%ADD18C,0.600000*%
%TD*%
%TA.AperFunction,Conductor*%
%ADD19C,0.200000*%
%TD*%
G04 APERTURE END LIST*
D10*
%TO.N,GND*%
%TO.C,U1*%
X12500000Y-47740000D03*
X12500000Y-49140000D03*
X13200000Y-47040000D03*
X13200000Y-48440000D03*
X13200000Y-49840000D03*
X13900000Y-47740000D03*
X13900000Y-49140000D03*
X14600000Y-47040000D03*
X14600000Y-48440000D03*
X14600000Y-49840000D03*
X15300000Y-47740000D03*
X15300000Y-49140000D03*
%TD*%
D11*
%TO.N,VBAT*%
%TO.C,J5*%
X28400000Y-111600000D03*
D12*
%TO.N,GND*%
X30400000Y-111600000D03*
%TD*%
D13*
%TO.N,+3V3*%
%TO.C,J3*%
X14890000Y-90900000D03*
D14*
%TO.N,GND*%
X17430000Y-90900000D03*
%TO.N,DISP_CS*%
X19970000Y-90900000D03*
%TO.N,DISP_RST*%
X22510000Y-90900000D03*
%TO.N,DISP_DC*%
X25050000Y-90900000D03*
%TO.N,DISP_MOSI*%
X27590000Y-90900000D03*
%TO.N,DISP_CLK*%
X30130000Y-90900000D03*
%TO.N,N$22*%
X32670000Y-90900000D03*
%TO.N,N/C*%
X35210000Y-90900000D03*
%TO.N,TOUCH_SCL*%
X37750000Y-90900000D03*
%TO.N,DISP_RST*%
X40290000Y-90900000D03*
%TO.N,TOUCH_SDA*%
X42830000Y-90900000D03*
%TO.N,N/C*%
X45370000Y-90900000D03*
X47910000Y-90900000D03*
%TD*%
D15*
%TO.N,GND*%
%TO.C,U5*%
X5796900Y-114016100D03*
X5796900Y-114866100D03*
X5796900Y-115716100D03*
X6696900Y-114016100D03*
X6696900Y-114866100D03*
X6696900Y-115716100D03*
%TD*%
D11*
%TO.N,SPK_P*%
%TO.C,J4*%
X46400000Y-15600000D03*
D12*
%TO.N,SPK_N*%
X48400000Y-15600000D03*
%TD*%
D16*
%TO.N,GND*%
%TO.C,J1*%
X41080000Y-144192500D03*
D17*
X41080000Y-148372500D03*
D16*
X49720000Y-144192500D03*
D17*
X49720000Y-148372500D03*
%TD*%
D18*
%TO.N,+3V3*%
X20322100Y-103636700D03*
X33129600Y-103851300D03*
X18020000Y-110011600D03*
X49632200Y-74795900D03*
X19170700Y-136018400D03*
X17838600Y-141225000D03*
X33710000Y-4783100D03*
X4146000Y-107178100D03*
X50763700Y-70125500D03*
X44987900Y-74402800D03*
X43889100Y-62710100D03*
X15960600Y-108222800D03*
X36836700Y-104450900D03*
X3835700Y-115167000D03*
X36605900Y-110229900D03*
X48542200Y-60231300D03*
X24762500Y-136012400D03*
X33921700Y-7262600D03*
X10151100Y-110405400D03*
X11782600Y-6811600D03*
X41704300Y-111571500D03*
X15540600Y-104821300D03*
X11058100Y-103356600D03*
X41949100Y-106892900D03*
X42313500Y-54101500D03*
X42864700Y-52292000D03*
X7870500Y-41990000D03*
X29066600Y-104000600D03*
X22850000Y-15319000D03*
%TO.N,GND*%
X14248700Y-122989200D03*
X25238600Y-15304200D03*
X22017400Y-104519400D03*
X14521100Y-1427500D03*
X33715600Y-118153000D03*
X58812600Y-121326700D03*
X10671600Y-119110800D03*
X17040500Y-16167200D03*
X24762500Y-143188700D03*
X18395400Y-103472600D03*
X23245000Y-109938800D03*
X20609600Y-107095700D03*
X42374100Y-137221600D03*
X22792000Y-118059200D03*
X39484200Y-109247200D03*
X39695300Y-103572000D03*
X23214100Y-123222100D03*
X48600000Y-142595300D03*
X11402400Y-123605900D03*
X42307800Y-109190200D03*
X36800000Y-129106300D03*
X18980000Y-111541200D03*
X13021900Y-109455700D03*
X42736300Y-120137300D03*
X39727000Y-116560200D03*
X15756400Y-148545300D03*
X44831000Y-105239500D03*
X25760100Y-104805100D03*
X39242800Y-113286200D03*
X28198100Y-12177600D03*
X22636500Y-128632600D03*
X19111500Y-143189300D03*
X29973300Y-118613900D03*
X25964700Y-137325000D03*
X7745100Y-104416800D03*
X30026600Y-102458700D03*
X11195700Y-116761500D03*
X31668600Y-134289200D03*
X7869700Y-40460900D03*
X16811600Y-127665200D03*
X43602700Y-113930300D03*
X49484200Y-112817700D03*
X9685000Y-57276600D03*
X5843200Y-108019900D03*
X34089600Y-102319600D03*
X25952800Y-139275000D03*
X26566300Y-116814800D03*
X10661500Y-105284700D03*
X46390800Y-134576400D03*
X58413400Y-112817700D03*
X20227900Y-137975000D03*
X47546600Y-114827100D03*
X18020700Y-113921300D03*
X22573800Y-113237500D03*
X16377400Y-115861100D03*
X16878600Y-124493100D03*
X20897300Y-126214200D03*
X17160900Y-106687400D03*
X28196900Y-1242500D03*
X52493400Y-121707000D03*
%TO.N,HOLD_G*%
X46097700Y-53854100D03*
X40453500Y-108311800D03*
X18945200Y-113023800D03*
%TO.N,BL_G*%
X20189700Y-119945900D03*
X42048700Y-42687600D03*
%TO.N,N$22*%
X16123700Y-119893500D03*
%TO.N,N$4*%
X11040200Y-121808200D03*
X43637400Y-133916700D03*
X52843500Y-140290000D03*
%TO.N,N$3*%
X46400000Y-116415500D03*
X42378100Y-135969100D03*
%TO.N,VBAT*%
X48759000Y-139385100D03*
X41327300Y-125966800D03*
%TO.N,EN*%
X41354800Y-74219700D03*
X7902700Y-43603700D03*
%TO.N,I2S_BCK*%
X22857000Y-138738400D03*
X10238300Y-47461200D03*
%TO.N,I2S_WS*%
X26364300Y-140025000D03*
X9384000Y-47595500D03*
%TO.N,I2S_DATA*%
X11219200Y-48199300D03*
X23508700Y-139370500D03*
%TO.N,MIC_SCK*%
X8218200Y-48821300D03*
X10952600Y-101253300D03*
%TO.N,TOUCH_SDA*%
X43381800Y-61004700D03*
X8677100Y-51018200D03*
%TO.N,TOUCH_SCL*%
X8407900Y-52206500D03*
%TO.N,AMP_EN*%
X7191900Y-121737500D03*
X7896100Y-54444300D03*
%TO.N,USB_DM*%
X8150000Y-56793400D03*
X28547200Y-140498900D03*
%TO.N,USB_DP*%
X31671200Y-133209000D03*
X5904500Y-58240900D03*
X45332800Y-144657600D03*
%TO.N,VBAT_SENSE*%
X8512400Y-60488500D03*
X29765000Y-66676500D03*
%TO.N,DISP_CLK*%
X17030000Y-59712300D03*
%TO.N,DISP_RST*%
X21453400Y-67398800D03*
%TO.N,NAV_MID*%
X36800000Y-124575400D03*
X1936500Y-113286200D03*
X19116200Y-61576000D03*
%TO.N,NAV_R*%
X36606900Y-121503000D03*
X29356500Y-74999900D03*
%TO.N,IO0*%
X49872700Y-117489700D03*
X43807500Y-57329300D03*
X25359300Y-56167600D03*
%TO.N,NAV_L*%
X24707700Y-121173200D03*
X22940600Y-50952900D03*
%TO.N,NAV_DN*%
X26418200Y-51439100D03*
X26963200Y-124389800D03*
%TO.N,NAV_UP*%
X25836300Y-49190500D03*
X25538500Y-121597400D03*
%TO.N,SD_MISO*%
X27850000Y-15200200D03*
X38336900Y-41700500D03*
%TO.N,SD_CLK*%
X24419300Y-15030000D03*
X25786000Y-45409200D03*
%TO.N,SD_CS*%
X21345700Y-15200200D03*
X32699500Y-5055300D03*
X41218600Y-36197500D03*
%TO.N,PWR_G*%
X12814400Y-118144500D03*
X35190700Y-119510200D03*
%TO.N,VSYS*%
X34400000Y-108451700D03*
X40174600Y-59627800D03*
%TO.N,N$9*%
X21377500Y-125044900D03*
X43455400Y-71931600D03*
X3843600Y-114242800D03*
%TO.N,N$8*%
X44438000Y-72518700D03*
X5529000Y-117092000D03*
%TO.N,N$7*%
X8684800Y-116726800D03*
X40044500Y-78151700D03*
%TO.N,PG*%
X27955300Y-71854400D03*
X7708700Y-112745400D03*
%TO.N,N$17*%
X23403600Y-131768100D03*
X7469600Y-129904800D03*
%TO.N,N$1*%
X19064500Y-127256400D03*
X43883500Y-140195400D03*
%TO.N,N$2*%
X46536400Y-142290700D03*
X41226800Y-110777300D03*
%TO.N,N$15*%
X49016900Y-77945000D03*
X26200200Y-138126600D03*
%TO.N,N$21*%
X10108100Y-122745700D03*
X46400000Y-19043000D03*
%TO.N,N$19*%
X7332300Y-125787300D03*
X30173300Y-120205700D03*
%TO.N,AIN*%
X29530700Y-138798700D03*
X41478300Y-79912500D03*
%TO.N,N$18*%
X42396700Y-81273400D03*
X7287500Y-124243300D03*
%TO.N,N$20*%
X38288000Y-40453500D03*
X6702400Y-118272200D03*
%TD*%
%TO.N,HOLD_G*%
D19*
X44100100Y-91479900D02*
X44100100Y-77039500D01*
X40453500Y-108311800D02*
X40453500Y-95126500D01*
X44100100Y-77039500D02*
X46097700Y-75041900D01*
X40453500Y-95126500D02*
X44100100Y-91479900D01*
X46097700Y-75041900D02*
X46097700Y-53854100D01*
%TO.N,BL_G*%
X20868700Y-68225900D02*
X21174400Y-68531600D01*
X20868700Y-52230900D02*
X20868700Y-68225900D01*
X42048700Y-42687600D02*
X30412000Y-42687600D01*
X21174400Y-68531600D02*
X21174400Y-118961200D01*
X21174400Y-118961200D02*
X20189700Y-119945900D01*
X30412000Y-42687600D02*
X20868700Y-52230900D01*
%TO.N,N$3*%
X46400000Y-131947200D02*
X42378100Y-135969100D01*
X46400000Y-116415500D02*
X46400000Y-131947200D01*
%TO.N,I2S_BCK*%
X18124100Y-122773600D02*
X18124100Y-132139800D01*
X17162700Y-107901700D02*
X17162700Y-121812200D01*
X16510800Y-98155000D02*
X16510800Y-107249800D01*
X10238300Y-47461200D02*
X10238300Y-48313300D01*
X16510800Y-107249800D02*
X17162700Y-107901700D01*
X18124100Y-132139800D02*
X22857000Y-136872700D01*
X22857000Y-136872700D02*
X22857000Y-138738400D01*
X16090800Y-97735000D02*
X16510800Y-98155000D01*
X10238300Y-48313300D02*
X16090800Y-54165800D01*
X16090800Y-54165800D02*
X16090800Y-97735000D01*
X17162700Y-121812200D02*
X18124100Y-122773600D01*
%TO.N,I2S_WS*%
X23363000Y-140025000D02*
X26364300Y-140025000D01*
X14858700Y-93377300D02*
X14858700Y-129772700D01*
X9384000Y-48029900D02*
X11502800Y-50148700D01*
X20778100Y-135692100D02*
X20778100Y-137440100D01*
X9384000Y-47595500D02*
X9384000Y-48029900D01*
X11502800Y-50148700D02*
X11502800Y-90021400D01*
X11502800Y-90021400D02*
X14858700Y-93377300D01*
X20778100Y-137440100D02*
X23363000Y-140025000D01*
X14858700Y-129772700D02*
X20778100Y-135692100D01*
%TO.N,I2S_DATA*%
X18530200Y-62126200D02*
X18530200Y-56029000D01*
X23508700Y-139370500D02*
X23508700Y-136664100D01*
X19616200Y-132771600D02*
X19616200Y-99369200D01*
X23508700Y-136664100D02*
X19616200Y-132771600D01*
X11219200Y-48718000D02*
X11219200Y-48199300D01*
X18603300Y-62199300D02*
X18530200Y-62126200D01*
X18530200Y-56029000D02*
X11219200Y-48718000D01*
X18603300Y-98356300D02*
X18603300Y-62199300D01*
X19616200Y-99369200D02*
X18603300Y-98356300D01*
%TO.N,MIC_SCK*%
X8218200Y-48821300D02*
X10952600Y-51555700D01*
X10952600Y-51555700D02*
X10952600Y-101253300D01*
%TO.N,TOUCH_SDA*%
X42993400Y-72249700D02*
X42993400Y-90736600D01*
X42903700Y-72160000D02*
X42993400Y-72249700D01*
X42993400Y-90736600D02*
X42830000Y-90900000D01*
X42903700Y-61482800D02*
X42903700Y-72160000D01*
X43381800Y-61004700D02*
X42903700Y-61482800D01*
%TO.N,AMP_EN*%
X7283800Y-121645600D02*
X7191900Y-121737500D01*
X7283800Y-113100600D02*
X7283800Y-121645600D01*
X7157000Y-112973800D02*
X7283800Y-113100600D01*
X7896100Y-54444300D02*
X7157000Y-55183400D01*
X7157000Y-55183400D02*
X7157000Y-112973800D01*
%TO.N,USB_DM*%
X13653800Y-105163400D02*
X9134800Y-100644400D01*
X9134800Y-100644400D02*
X9134800Y-57778200D01*
X9134800Y-57778200D02*
X8150000Y-56793400D01*
X28547200Y-140498900D02*
X28455000Y-140591100D01*
X13653800Y-132259000D02*
X13653800Y-105163400D01*
X28455000Y-140591100D02*
X21985900Y-140591100D01*
X21985900Y-140591100D02*
X13653800Y-132259000D01*
%TO.N,DISP_RST*%
X21453400Y-67398800D02*
X22510000Y-68455400D01*
X22510000Y-68455400D02*
X22510000Y-90900000D01*
%TO.N,NAV_R*%
X36227300Y-121503000D02*
X36606900Y-121503000D01*
X31567400Y-77210800D02*
X31567400Y-116843100D01*
X31567400Y-116843100D02*
X36227300Y-121503000D01*
X29356500Y-74999900D02*
X31567400Y-77210800D01*
%TO.N,NAV_L*%
X23941600Y-120407100D02*
X23941600Y-51953900D01*
X24707700Y-121173200D02*
X23941600Y-120407100D01*
X23941600Y-51953900D02*
X22940600Y-50952900D01*
%TO.N,NAV_DN*%
X27547300Y-104603400D02*
X28729700Y-103421000D01*
X26963200Y-124389800D02*
X27547300Y-123805700D01*
X27547300Y-123805700D02*
X27547300Y-104603400D01*
X28729700Y-53750600D02*
X26418200Y-51439100D01*
X28729700Y-103421000D02*
X28729700Y-53750600D01*
%TO.N,NAV_UP*%
X26340100Y-55611800D02*
X26340100Y-110704500D01*
X25538500Y-111506100D02*
X25538500Y-121597400D01*
X25836300Y-49190500D02*
X25836300Y-55108000D01*
X26340100Y-110704500D02*
X25538500Y-111506100D01*
X25836300Y-55108000D02*
X26340100Y-55611800D01*
%TO.N,VSYS*%
X34400000Y-108451700D02*
X35992100Y-106859600D01*
X38872200Y-60930200D02*
X40174600Y-59627800D01*
X35992100Y-95292900D02*
X38872200Y-92412800D01*
X38872200Y-92412800D02*
X38872200Y-60930200D01*
X35992100Y-106859600D02*
X35992100Y-95292900D01*
%TO.N,N$15*%
X35936900Y-133172700D02*
X35936900Y-123793100D01*
X27467500Y-139393900D02*
X29715700Y-139393900D01*
X26200200Y-138126600D02*
X27467500Y-139393900D01*
X49016900Y-110713100D02*
X49016900Y-77945000D01*
X29715700Y-139393900D02*
X35936900Y-133172700D01*
X35936900Y-123793100D02*
X49016900Y-110713100D01*
%TO.N,N$21*%
X46400000Y-32680300D02*
X39512500Y-39567800D01*
X7404500Y-122745700D02*
X10108100Y-122745700D01*
X4912600Y-50747600D02*
X4912600Y-120253800D01*
X4912600Y-120253800D02*
X7404500Y-122745700D01*
X39512500Y-39567800D02*
X16092400Y-39567800D01*
X46400000Y-19043000D02*
X46400000Y-32680300D01*
X16092400Y-39567800D02*
X4912600Y-50747600D01*
%TO.N,AIN*%
X38162000Y-95339200D02*
X38162000Y-120799700D01*
X41478300Y-92022900D02*
X38162000Y-95339200D01*
X41478300Y-79912500D02*
X41478300Y-92022900D01*
X38162000Y-120799700D02*
X29530700Y-129431000D01*
X29530700Y-129431000D02*
X29530700Y-138798700D01*
%TO.N,N$20*%
X6702400Y-118272200D02*
X6702400Y-117383700D01*
X5269000Y-115950300D02*
X5269000Y-50889700D01*
X15705200Y-40453500D02*
X38288000Y-40453500D01*
X5269000Y-50889700D02*
X15705200Y-40453500D01*
X6702400Y-117383700D02*
X5269000Y-115950300D01*
%TD*%
%TA.AperFunction,Conductor*%
%TO.N,+3V3*%
G36*
X60798223Y-101128D02*
G01*
X61282056Y-164643D01*
X61300783Y-169663D01*
X61740275Y-352026D01*
X61756986Y-361686D01*
X61756990Y-361689D01*
X62134631Y-651762D01*
X62148239Y-665370D01*
X62283912Y-842000D01*
X62380367Y-967574D01*
X62438309Y-1043007D01*
X62447973Y-1059724D01*
X62630336Y-1499218D01*
X62635356Y-1517947D01*
X62698870Y-2001767D01*
X62699500Y-2011399D01*
X62699500Y-147988599D01*
X62698870Y-147998231D01*
X62635356Y-148482051D01*
X62630336Y-148500780D01*
X62447973Y-148940274D01*
X62438309Y-148956991D01*
X62148239Y-149334628D01*
X62134631Y-149348236D01*
X61756989Y-149638310D01*
X61740272Y-149647974D01*
X61300780Y-149830336D01*
X61282051Y-149835356D01*
X60798231Y-149898870D01*
X60788599Y-149899500D01*
X2011401Y-149899500D01*
X2001769Y-149898870D01*
X1517947Y-149835356D01*
X1499218Y-149830336D01*
X1183134Y-149699180D01*
X1059723Y-149647972D01*
X1043007Y-149638309D01*
X665370Y-149348239D01*
X651762Y-149334631D01*
X433693Y-149050731D01*
X361686Y-148956986D01*
X352025Y-148940274D01*
X170550Y-148502918D01*
X169666Y-148500787D01*
X164643Y-148482055D01*
X164642Y-148482051D01*
X164295Y-148479405D01*
X15255900Y-148479405D01*
X15255900Y-148611194D01*
X15290006Y-148738481D01*
X15290007Y-148738484D01*
X15290008Y-148738486D01*
X15355900Y-148852614D01*
X15449086Y-148945800D01*
X15563214Y-149011692D01*
X15690505Y-149045799D01*
X15690506Y-149045800D01*
X15690508Y-149045800D01*
X15822294Y-149045800D01*
X15822294Y-149045799D01*
X15949586Y-149011692D01*
X16063714Y-148945800D01*
X16156900Y-148852614D01*
X16222792Y-148738486D01*
X16256899Y-148611194D01*
X16256900Y-148611194D01*
X16256900Y-148479406D01*
X16256899Y-148479405D01*
X16222793Y-148352118D01*
X16222792Y-148352114D01*
X16156900Y-148237986D01*
X16063714Y-148144800D01*
X15949590Y-148078910D01*
X15949581Y-148078906D01*
X15921380Y-148071350D01*
X15822294Y-148044800D01*
X15822292Y-148044800D01*
X15690508Y-148044800D01*
X15690506Y-148044800D01*
X15563218Y-148078906D01*
X15563209Y-148078910D01*
X15449085Y-148144800D01*
X15355900Y-148237985D01*
X15290010Y-148352109D01*
X15290006Y-148352118D01*
X15255900Y-148479405D01*
X164295Y-148479405D01*
X104804Y-148026218D01*
X101823Y-148003508D01*
X40379500Y-148003508D01*
X40379500Y-148741491D01*
X40406418Y-148876822D01*
X40406421Y-148876832D01*
X40459223Y-149004308D01*
X40478009Y-149032424D01*
X40535886Y-149119042D01*
X40633458Y-149216614D01*
X40748189Y-149293275D01*
X40748190Y-149293275D01*
X40748191Y-149293276D01*
X40866614Y-149342328D01*
X40875672Y-149346080D01*
X41011007Y-149373000D01*
X41011009Y-149373000D01*
X41148991Y-149373000D01*
X41148993Y-149373000D01*
X41284328Y-149346080D01*
X41411811Y-149293275D01*
X41526542Y-149216614D01*
X41624114Y-149119042D01*
X41700775Y-149004311D01*
X41753580Y-148876828D01*
X41780500Y-148741493D01*
X41780500Y-148003508D01*
X49019500Y-148003508D01*
X49019500Y-148741491D01*
X49046418Y-148876822D01*
X49046421Y-148876832D01*
X49099223Y-149004308D01*
X49118009Y-149032424D01*
X49175886Y-149119042D01*
X49273458Y-149216614D01*
X49388189Y-149293275D01*
X49388190Y-149293275D01*
X49388191Y-149293276D01*
X49506614Y-149342328D01*
X49515672Y-149346080D01*
X49651007Y-149373000D01*
X49651009Y-149373000D01*
X49788991Y-149373000D01*
X49788993Y-149373000D01*
X49924328Y-149346080D01*
X50051811Y-149293275D01*
X50166542Y-149216614D01*
X50264114Y-149119042D01*
X50340775Y-149004311D01*
X50393580Y-148876828D01*
X50420500Y-148741493D01*
X50420500Y-148003507D01*
X50393580Y-147868172D01*
X50340775Y-147740689D01*
X50264114Y-147625958D01*
X50166542Y-147528386D01*
X50051811Y-147451725D01*
X50051810Y-147451724D01*
X50051808Y-147451723D01*
X49924332Y-147398921D01*
X49924322Y-147398918D01*
X49833694Y-147380891D01*
X49788993Y-147372000D01*
X49651007Y-147372000D01*
X49612642Y-147379631D01*
X49515677Y-147398918D01*
X49515667Y-147398921D01*
X49388191Y-147451723D01*
X49273461Y-147528383D01*
X49175883Y-147625961D01*
X49099223Y-147740691D01*
X49046421Y-147868167D01*
X49046418Y-147868177D01*
X49023945Y-147981156D01*
X49020550Y-147998231D01*
X49019500Y-148003508D01*
X41780500Y-148003508D01*
X41780500Y-148003507D01*
X41753580Y-147868172D01*
X41700775Y-147740689D01*
X41624114Y-147625958D01*
X41526542Y-147528386D01*
X41411811Y-147451725D01*
X41411810Y-147451724D01*
X41411808Y-147451723D01*
X41284332Y-147398921D01*
X41284322Y-147398918D01*
X41193694Y-147380891D01*
X41148993Y-147372000D01*
X41011007Y-147372000D01*
X40972642Y-147379631D01*
X40875677Y-147398918D01*
X40875667Y-147398921D01*
X40748191Y-147451723D01*
X40633461Y-147528383D01*
X40535883Y-147625961D01*
X40459223Y-147740691D01*
X40406421Y-147868167D01*
X40406418Y-147868177D01*
X40383945Y-147981156D01*
X40380550Y-147998231D01*
X40379500Y-148003508D01*
X101823Y-148003508D01*
X101129Y-147998223D01*
X100500Y-147988591D01*
X100500Y-143123405D01*
X18611000Y-143123405D01*
X18611000Y-143255194D01*
X18645106Y-143382481D01*
X18645110Y-143382490D01*
X18677258Y-143438172D01*
X18711000Y-143496614D01*
X18804186Y-143589800D01*
X18918314Y-143655692D01*
X19045605Y-143689799D01*
X19045606Y-143689800D01*
X19045608Y-143689800D01*
X19177394Y-143689800D01*
X19177394Y-143689799D01*
X19304686Y-143655692D01*
X19418814Y-143589800D01*
X19512000Y-143496614D01*
X19577892Y-143382486D01*
X19611999Y-143255194D01*
X19612000Y-143255194D01*
X19612000Y-143123406D01*
X19611999Y-143123405D01*
X19611838Y-143122805D01*
X24262000Y-143122805D01*
X24262000Y-143254594D01*
X24296106Y-143381881D01*
X24296110Y-143381890D01*
X24328602Y-143438167D01*
X24362000Y-143496014D01*
X24455186Y-143589200D01*
X24569314Y-143655092D01*
X24696605Y-143689199D01*
X24696606Y-143689200D01*
X24696608Y-143689200D01*
X24828394Y-143689200D01*
X24828394Y-143689199D01*
X24955686Y-143655092D01*
X25069814Y-143589200D01*
X25085506Y-143573508D01*
X40379500Y-143573508D01*
X40379500Y-144811491D01*
X40406418Y-144946822D01*
X40406421Y-144946832D01*
X40459223Y-145074308D01*
X40492421Y-145123993D01*
X40535886Y-145189042D01*
X40633458Y-145286614D01*
X40748189Y-145363275D01*
X40875672Y-145416080D01*
X41011007Y-145443000D01*
X41011009Y-145443000D01*
X41148991Y-145443000D01*
X41148993Y-145443000D01*
X41284328Y-145416080D01*
X41411811Y-145363275D01*
X41526542Y-145286614D01*
X41624114Y-145189042D01*
X41700775Y-145074311D01*
X41753580Y-144946828D01*
X41780500Y-144811493D01*
X41780500Y-144629896D01*
X42034500Y-144629896D01*
X42034500Y-144755103D01*
X42066904Y-144876035D01*
X42107773Y-144946822D01*
X42129505Y-144984464D01*
X42218036Y-145072995D01*
X42326464Y-145135595D01*
X42326463Y-145135595D01*
X42396286Y-145154304D01*
X42447396Y-145167999D01*
X42447397Y-145168000D01*
X42447399Y-145168000D01*
X42572603Y-145168000D01*
X42572603Y-145167999D01*
X42693536Y-145135595D01*
X42801964Y-145072995D01*
X42890495Y-144984464D01*
X42953095Y-144876036D01*
X42985499Y-144755103D01*
X42985500Y-144755103D01*
X42985500Y-144629899D01*
X42979099Y-144606010D01*
X42979099Y-144606008D01*
X42975266Y-144591705D01*
X44832300Y-144591705D01*
X44832300Y-144723494D01*
X44866406Y-144850781D01*
X44866410Y-144850790D01*
X44880986Y-144876036D01*
X44932300Y-144964914D01*
X45025486Y-145058100D01*
X45139614Y-145123992D01*
X45266905Y-145158099D01*
X45266906Y-145158100D01*
X45266908Y-145158100D01*
X45398694Y-145158100D01*
X45398694Y-145158099D01*
X45525986Y-145123992D01*
X45640114Y-145058100D01*
X45733300Y-144964914D01*
X45799192Y-144850786D01*
X45833299Y-144723494D01*
X45833300Y-144723494D01*
X45833300Y-144629896D01*
X47814500Y-144629896D01*
X47814500Y-144755103D01*
X47846904Y-144876035D01*
X47887773Y-144946822D01*
X47909505Y-144984464D01*
X47998036Y-145072995D01*
X48106464Y-145135595D01*
X48106463Y-145135595D01*
X48176286Y-145154304D01*
X48227396Y-145167999D01*
X48227397Y-145168000D01*
X48227399Y-145168000D01*
X48352603Y-145168000D01*
X48352603Y-145167999D01*
X48473536Y-145135595D01*
X48581964Y-145072995D01*
X48670495Y-144984464D01*
X48733095Y-144876036D01*
X48765499Y-144755103D01*
X48765500Y-144755103D01*
X48765500Y-144629897D01*
X48765499Y-144629896D01*
X48755266Y-144591708D01*
X48733095Y-144508964D01*
X48670495Y-144400536D01*
X48581964Y-144312005D01*
X48581963Y-144312004D01*
X48473534Y-144249404D01*
X48473536Y-144249404D01*
X48352603Y-144217000D01*
X48352601Y-144217000D01*
X48227399Y-144217000D01*
X48227397Y-144217000D01*
X48106464Y-144249404D01*
X47998036Y-144312004D01*
X47909504Y-144400536D01*
X47846904Y-144508964D01*
X47814500Y-144629896D01*
X45833300Y-144629896D01*
X45833300Y-144591706D01*
X45833299Y-144591705D01*
X45799193Y-144464418D01*
X45799192Y-144464414D01*
X45733300Y-144350286D01*
X45640114Y-144257100D01*
X45570659Y-144217000D01*
X45525990Y-144191210D01*
X45525981Y-144191206D01*
X45398694Y-144157100D01*
X45398692Y-144157100D01*
X45266908Y-144157100D01*
X45266906Y-144157100D01*
X45139618Y-144191206D01*
X45139609Y-144191210D01*
X45025485Y-144257100D01*
X44932300Y-144350285D01*
X44866410Y-144464409D01*
X44866406Y-144464418D01*
X44832300Y-144591705D01*
X42975266Y-144591705D01*
X42953095Y-144508964D01*
X42890495Y-144400536D01*
X42801963Y-144312004D01*
X42693534Y-144249404D01*
X42693536Y-144249404D01*
X42572603Y-144217000D01*
X42572601Y-144217000D01*
X42447399Y-144217000D01*
X42447397Y-144217000D01*
X42326464Y-144249404D01*
X42218036Y-144312004D01*
X42129504Y-144400536D01*
X42066904Y-144508964D01*
X42034500Y-144629896D01*
X41780500Y-144629896D01*
X41780500Y-143573508D01*
X49019500Y-143573508D01*
X49019500Y-144811491D01*
X49046418Y-144946822D01*
X49046421Y-144946832D01*
X49099223Y-145074308D01*
X49132421Y-145123993D01*
X49175886Y-145189042D01*
X49273458Y-145286614D01*
X49388189Y-145363275D01*
X49515672Y-145416080D01*
X49651007Y-145443000D01*
X49651009Y-145443000D01*
X49788991Y-145443000D01*
X49788993Y-145443000D01*
X49924328Y-145416080D01*
X50051811Y-145363275D01*
X50166542Y-145286614D01*
X50264114Y-145189042D01*
X50340775Y-145074311D01*
X50393580Y-144946828D01*
X50420500Y-144811493D01*
X50420500Y-143573507D01*
X50393580Y-143438172D01*
X50340775Y-143310689D01*
X50264114Y-143195958D01*
X50166542Y-143098386D01*
X50162670Y-143095799D01*
X50051808Y-143021723D01*
X49924332Y-142968921D01*
X49924322Y-142968918D01*
X49833694Y-142950891D01*
X49788993Y-142942000D01*
X49651007Y-142942000D01*
X49612642Y-142949631D01*
X49515677Y-142968918D01*
X49515667Y-142968921D01*
X49388191Y-143021723D01*
X49273461Y-143098383D01*
X49175883Y-143195961D01*
X49099223Y-143310691D01*
X49046421Y-143438167D01*
X49046418Y-143438177D01*
X49019500Y-143573508D01*
X41780500Y-143573508D01*
X41780500Y-143573507D01*
X41753580Y-143438172D01*
X41700775Y-143310689D01*
X41624114Y-143195958D01*
X41526542Y-143098386D01*
X41522670Y-143095799D01*
X41411808Y-143021723D01*
X41284332Y-142968921D01*
X41284322Y-142968918D01*
X41193694Y-142950891D01*
X41148993Y-142942000D01*
X41011007Y-142942000D01*
X40972642Y-142949631D01*
X40875677Y-142968918D01*
X40875667Y-142968921D01*
X40748191Y-143021723D01*
X40633461Y-143098383D01*
X40535883Y-143195961D01*
X40459223Y-143310691D01*
X40406421Y-143438167D01*
X40406418Y-143438177D01*
X40379500Y-143573508D01*
X25085506Y-143573508D01*
X25163000Y-143496014D01*
X25228892Y-143381886D01*
X25262999Y-143254594D01*
X25263000Y-143254594D01*
X25263000Y-143122806D01*
X25262999Y-143122805D01*
X25228893Y-142995518D01*
X25228892Y-142995514D01*
X25163000Y-142881386D01*
X25069814Y-142788200D01*
X25015934Y-142757092D01*
X24955690Y-142722310D01*
X24955681Y-142722306D01*
X24828394Y-142688200D01*
X24828392Y-142688200D01*
X24696608Y-142688200D01*
X24696606Y-142688200D01*
X24569318Y-142722306D01*
X24569309Y-142722310D01*
X24455185Y-142788200D01*
X24362000Y-142881385D01*
X24296110Y-142995509D01*
X24296106Y-142995518D01*
X24262000Y-143122805D01*
X19611838Y-143122805D01*
X19605294Y-143098383D01*
X19577892Y-142996114D01*
X19512000Y-142881986D01*
X19418814Y-142788800D01*
X19363896Y-142757093D01*
X19304690Y-142722910D01*
X19304681Y-142722906D01*
X19177394Y-142688800D01*
X19177392Y-142688800D01*
X19045608Y-142688800D01*
X19045606Y-142688800D01*
X18918318Y-142722906D01*
X18918309Y-142722910D01*
X18804185Y-142788800D01*
X18711000Y-142881985D01*
X18645110Y-142996109D01*
X18645106Y-142996118D01*
X18611000Y-143123405D01*
X100500Y-143123405D01*
X100500Y-142224805D01*
X46035900Y-142224805D01*
X46035900Y-142356594D01*
X46070006Y-142483881D01*
X46070007Y-142483884D01*
X46070008Y-142483886D01*
X46135900Y-142598014D01*
X46229086Y-142691200D01*
X46343214Y-142757092D01*
X46470505Y-142791199D01*
X46470506Y-142791200D01*
X46470508Y-142791200D01*
X46602294Y-142791200D01*
X46602294Y-142791199D01*
X46729586Y-142757092D01*
X46843714Y-142691200D01*
X46936900Y-142598014D01*
X46976512Y-142529405D01*
X48099500Y-142529405D01*
X48099500Y-142661194D01*
X48133606Y-142788481D01*
X48133607Y-142788484D01*
X48133608Y-142788486D01*
X48199500Y-142902614D01*
X48292686Y-142995800D01*
X48406814Y-143061692D01*
X48534105Y-143095799D01*
X48534106Y-143095800D01*
X48534108Y-143095800D01*
X48665894Y-143095800D01*
X48665894Y-143095799D01*
X48793186Y-143061692D01*
X48907314Y-142995800D01*
X49000500Y-142902614D01*
X49066392Y-142788486D01*
X49100499Y-142661194D01*
X49100500Y-142661194D01*
X49100500Y-142529406D01*
X49100499Y-142529405D01*
X49088303Y-142483890D01*
X49066392Y-142402114D01*
X49000500Y-142287986D01*
X48907314Y-142194800D01*
X48793190Y-142128910D01*
X48793181Y-142128906D01*
X48665894Y-142094800D01*
X48665892Y-142094800D01*
X48534108Y-142094800D01*
X48534106Y-142094800D01*
X48406818Y-142128906D01*
X48406809Y-142128910D01*
X48292685Y-142194800D01*
X48199500Y-142287985D01*
X48133610Y-142402109D01*
X48133606Y-142402118D01*
X48099500Y-142529405D01*
X46976512Y-142529405D01*
X47002792Y-142483886D01*
X47036899Y-142356594D01*
X47036900Y-142356594D01*
X47036900Y-142224806D01*
X47036899Y-142224805D01*
X47002793Y-142097518D01*
X47002792Y-142097514D01*
X46936900Y-141983386D01*
X46843714Y-141890200D01*
X46770646Y-141848014D01*
X46729590Y-141824310D01*
X46729581Y-141824306D01*
X46602294Y-141790200D01*
X46602292Y-141790200D01*
X46470508Y-141790200D01*
X46470506Y-141790200D01*
X46343218Y-141824306D01*
X46343209Y-141824310D01*
X46229085Y-141890200D01*
X46135900Y-141983385D01*
X46070010Y-142097509D01*
X46070006Y-142097518D01*
X46035900Y-142224805D01*
X100500Y-142224805D01*
X100500Y-140961310D01*
X9499500Y-140961310D01*
X9499500Y-141138689D01*
X9534104Y-141312660D01*
X9534107Y-141312670D01*
X9601985Y-141476544D01*
X9601986Y-141476546D01*
X9601987Y-141476547D01*
X9700536Y-141624035D01*
X9825965Y-141749464D01*
X9973453Y-141848013D01*
X9973454Y-141848013D01*
X9973455Y-141848014D01*
X10137329Y-141915892D01*
X10137334Y-141915894D01*
X10311309Y-141950500D01*
X10311311Y-141950500D01*
X10488689Y-141950500D01*
X10488691Y-141950500D01*
X10662666Y-141915894D01*
X10826547Y-141848013D01*
X10974035Y-141749464D01*
X11099464Y-141624035D01*
X11198013Y-141476547D01*
X11265894Y-141312666D01*
X11300500Y-141138691D01*
X11300500Y-140961309D01*
X11265894Y-140787334D01*
X11226443Y-140692090D01*
X11198014Y-140623455D01*
X11179602Y-140595900D01*
X11099464Y-140475965D01*
X10974035Y-140350536D01*
X10826547Y-140251987D01*
X10826546Y-140251986D01*
X10826544Y-140251985D01*
X10662670Y-140184107D01*
X10662660Y-140184104D01*
X10546156Y-140160930D01*
X10488691Y-140149500D01*
X10311309Y-140149500D01*
X10261989Y-140159310D01*
X10137339Y-140184104D01*
X10137329Y-140184107D01*
X9973455Y-140251985D01*
X9825968Y-140350533D01*
X9700533Y-140475968D01*
X9601985Y-140623455D01*
X9534107Y-140787329D01*
X9534104Y-140787339D01*
X9499500Y-140961310D01*
X100500Y-140961310D01*
X100500Y-129838905D01*
X6969100Y-129838905D01*
X6969100Y-129970694D01*
X7003206Y-130097981D01*
X7003207Y-130097984D01*
X7003208Y-130097986D01*
X7069100Y-130212114D01*
X7162286Y-130305300D01*
X7276414Y-130371192D01*
X7403705Y-130405299D01*
X7403706Y-130405300D01*
X7403708Y-130405300D01*
X7535494Y-130405300D01*
X7535494Y-130405299D01*
X7662786Y-130371192D01*
X7776914Y-130305300D01*
X7870100Y-130212114D01*
X7935992Y-130097986D01*
X7970099Y-129970694D01*
X7970100Y-129970694D01*
X7970100Y-129838906D01*
X7970099Y-129838905D01*
X7935993Y-129711618D01*
X7935992Y-129711614D01*
X7870100Y-129597486D01*
X7776914Y-129504300D01*
X7662790Y-129438410D01*
X7662781Y-129438406D01*
X7535494Y-129404300D01*
X7535492Y-129404300D01*
X7403708Y-129404300D01*
X7403706Y-129404300D01*
X7276418Y-129438406D01*
X7276409Y-129438410D01*
X7162285Y-129504300D01*
X7069100Y-129597485D01*
X7003210Y-129711609D01*
X7003206Y-129711618D01*
X6969100Y-129838905D01*
X100500Y-129838905D01*
X100500Y-125721405D01*
X6831800Y-125721405D01*
X6831800Y-125853194D01*
X6865906Y-125980481D01*
X6865907Y-125980484D01*
X6865908Y-125980486D01*
X6931800Y-126094614D01*
X7024986Y-126187800D01*
X7139114Y-126253692D01*
X7266405Y-126287799D01*
X7266406Y-126287800D01*
X7266408Y-126287800D01*
X7398194Y-126287800D01*
X7398194Y-126287799D01*
X7525486Y-126253692D01*
X7639614Y-126187800D01*
X7732800Y-126094614D01*
X7798692Y-125980486D01*
X7832799Y-125853194D01*
X7832800Y-125853194D01*
X7832800Y-125721406D01*
X7832799Y-125721405D01*
X7830734Y-125713700D01*
X7798692Y-125594114D01*
X7732800Y-125479986D01*
X7639614Y-125386800D01*
X7525490Y-125320910D01*
X7525481Y-125320906D01*
X7398194Y-125286800D01*
X7398192Y-125286800D01*
X7266408Y-125286800D01*
X7266406Y-125286800D01*
X7139118Y-125320906D01*
X7139109Y-125320910D01*
X7024985Y-125386800D01*
X6931800Y-125479985D01*
X6865910Y-125594109D01*
X6865906Y-125594118D01*
X6831800Y-125721405D01*
X100500Y-125721405D01*
X100500Y-124177405D01*
X6787000Y-124177405D01*
X6787000Y-124309194D01*
X6821106Y-124436481D01*
X6821110Y-124436490D01*
X6832198Y-124455694D01*
X6887000Y-124550614D01*
X6980186Y-124643800D01*
X7094314Y-124709692D01*
X7221605Y-124743799D01*
X7221606Y-124743800D01*
X7221608Y-124743800D01*
X7353394Y-124743800D01*
X7353394Y-124743799D01*
X7480686Y-124709692D01*
X7594814Y-124643800D01*
X7688000Y-124550614D01*
X7753892Y-124436486D01*
X7787999Y-124309194D01*
X7788000Y-124309194D01*
X7788000Y-124177406D01*
X7787999Y-124177405D01*
X7759834Y-124072292D01*
X7753892Y-124050114D01*
X7688000Y-123935986D01*
X7594814Y-123842800D01*
X7480690Y-123776910D01*
X7480681Y-123776906D01*
X7353394Y-123742800D01*
X7353392Y-123742800D01*
X7221608Y-123742800D01*
X7221606Y-123742800D01*
X7094318Y-123776906D01*
X7094309Y-123776910D01*
X6980185Y-123842800D01*
X6887000Y-123935985D01*
X6821110Y-124050109D01*
X6821106Y-124050118D01*
X6787000Y-124177405D01*
X100500Y-124177405D01*
X100500Y-123540005D01*
X10901900Y-123540005D01*
X10901900Y-123671794D01*
X10936006Y-123799081D01*
X10936010Y-123799090D01*
X10988093Y-123889300D01*
X11001900Y-123913214D01*
X11095086Y-124006400D01*
X11209214Y-124072292D01*
X11336505Y-124106399D01*
X11336506Y-124106400D01*
X11336508Y-124106400D01*
X11468294Y-124106400D01*
X11468294Y-124106399D01*
X11595586Y-124072292D01*
X11709714Y-124006400D01*
X11802900Y-123913214D01*
X11868792Y-123799086D01*
X11902899Y-123671794D01*
X11902900Y-123671794D01*
X11902900Y-123540006D01*
X11902899Y-123540005D01*
X11896630Y-123516610D01*
X11868792Y-123412714D01*
X11802900Y-123298586D01*
X11709714Y-123205400D01*
X11595590Y-123139510D01*
X11595581Y-123139506D01*
X11468294Y-123105400D01*
X11468292Y-123105400D01*
X11336508Y-123105400D01*
X11336506Y-123105400D01*
X11209218Y-123139506D01*
X11209209Y-123139510D01*
X11095085Y-123205400D01*
X11001900Y-123298585D01*
X10936010Y-123412709D01*
X10936006Y-123412718D01*
X10901900Y-123540005D01*
X100500Y-123540005D01*
X100500Y-114176905D01*
X3343100Y-114176905D01*
X3343100Y-114308694D01*
X3377206Y-114435981D01*
X3377210Y-114435990D01*
X3383163Y-114446301D01*
X3443100Y-114550114D01*
X3536286Y-114643300D01*
X3650414Y-114709192D01*
X3777705Y-114743299D01*
X3777706Y-114743300D01*
X3777708Y-114743300D01*
X3909494Y-114743300D01*
X3909494Y-114743299D01*
X4036786Y-114709192D01*
X4150914Y-114643300D01*
X4244100Y-114550114D01*
X4309992Y-114435986D01*
X4344099Y-114308694D01*
X4344100Y-114308694D01*
X4344100Y-114176906D01*
X4344099Y-114176905D01*
X4309993Y-114049618D01*
X4309992Y-114049614D01*
X4244100Y-113935486D01*
X4150914Y-113842300D01*
X4096024Y-113810609D01*
X4036790Y-113776410D01*
X4036781Y-113776406D01*
X3909494Y-113742300D01*
X3909492Y-113742300D01*
X3777708Y-113742300D01*
X3777706Y-113742300D01*
X3650418Y-113776406D01*
X3650409Y-113776410D01*
X3536285Y-113842300D01*
X3443100Y-113935485D01*
X3377210Y-114049609D01*
X3377206Y-114049618D01*
X3343100Y-114176905D01*
X100500Y-114176905D01*
X100500Y-113220305D01*
X1436000Y-113220305D01*
X1436000Y-113352094D01*
X1470106Y-113479381D01*
X1470110Y-113479390D01*
X1507883Y-113544814D01*
X1536000Y-113593514D01*
X1629186Y-113686700D01*
X1743314Y-113752592D01*
X1870605Y-113786699D01*
X1870606Y-113786700D01*
X1870608Y-113786700D01*
X2002394Y-113786700D01*
X2002394Y-113786699D01*
X2129686Y-113752592D01*
X2243814Y-113686700D01*
X2337000Y-113593514D01*
X2402892Y-113479386D01*
X2436999Y-113352094D01*
X2437000Y-113352094D01*
X2437000Y-113220306D01*
X2436999Y-113220305D01*
X2436108Y-113216981D01*
X2402892Y-113093014D01*
X2337000Y-112978886D01*
X2243814Y-112885700D01*
X2240163Y-112883592D01*
X2129690Y-112819810D01*
X2129681Y-112819806D01*
X2002394Y-112785700D01*
X2002392Y-112785700D01*
X1870608Y-112785700D01*
X1870606Y-112785700D01*
X1743318Y-112819806D01*
X1743309Y-112819810D01*
X1629185Y-112885700D01*
X1536000Y-112978885D01*
X1470110Y-113093009D01*
X1470106Y-113093018D01*
X1436000Y-113220305D01*
X100500Y-113220305D01*
X100500Y-43537805D01*
X7402200Y-43537805D01*
X7402200Y-43669594D01*
X7436306Y-43796881D01*
X7436307Y-43796884D01*
X7436308Y-43796886D01*
X7502200Y-43911014D01*
X7595386Y-44004200D01*
X7709514Y-44070092D01*
X7836805Y-44104199D01*
X7836806Y-44104200D01*
X7836808Y-44104200D01*
X7968594Y-44104200D01*
X7968594Y-44104199D01*
X8095886Y-44070092D01*
X8210014Y-44004200D01*
X8303200Y-43911014D01*
X8369092Y-43796886D01*
X8403199Y-43669594D01*
X8403200Y-43669594D01*
X8403200Y-43537806D01*
X8403199Y-43537805D01*
X8369093Y-43410518D01*
X8369092Y-43410514D01*
X8303200Y-43296386D01*
X8210014Y-43203200D01*
X8183858Y-43188099D01*
X8095890Y-43137310D01*
X8095881Y-43137306D01*
X7968594Y-43103200D01*
X7968592Y-43103200D01*
X7836808Y-43103200D01*
X7836806Y-43103200D01*
X7709518Y-43137306D01*
X7709509Y-43137310D01*
X7595385Y-43203200D01*
X7502200Y-43296385D01*
X7436310Y-43410509D01*
X7436306Y-43410518D01*
X7402200Y-43537805D01*
X100500Y-43537805D01*
X100500Y-40395005D01*
X7369200Y-40395005D01*
X7369200Y-40526794D01*
X7403306Y-40654081D01*
X7403310Y-40654090D01*
X7464928Y-40760814D01*
X7469200Y-40768214D01*
X7562386Y-40861400D01*
X7676514Y-40927292D01*
X7803805Y-40961399D01*
X7803806Y-40961400D01*
X7803808Y-40961400D01*
X7935594Y-40961400D01*
X7935594Y-40961399D01*
X8062886Y-40927292D01*
X8177014Y-40861400D01*
X8270200Y-40768214D01*
X8336092Y-40654086D01*
X8370199Y-40526794D01*
X8370200Y-40526794D01*
X8370200Y-40395006D01*
X8370199Y-40395005D01*
X8368216Y-40387606D01*
X8336092Y-40267714D01*
X8270200Y-40153586D01*
X8177014Y-40060400D01*
X8118599Y-40026674D01*
X8062890Y-39994510D01*
X8062881Y-39994506D01*
X7935594Y-39960400D01*
X7935592Y-39960400D01*
X7803808Y-39960400D01*
X7803806Y-39960400D01*
X7676518Y-39994506D01*
X7676509Y-39994510D01*
X7562385Y-40060400D01*
X7469200Y-40153585D01*
X7403310Y-40267709D01*
X7403306Y-40267718D01*
X7369200Y-40395005D01*
X100500Y-40395005D01*
X100500Y-39304000D01*
X122174Y-39251674D01*
X174500Y-39230000D01*
X15826578Y-39230000D01*
X15878904Y-39251674D01*
X15900578Y-39304000D01*
X15878904Y-39356324D01*
X10292423Y-44942806D01*
X4728089Y-50507140D01*
X4672140Y-50563088D01*
X4632579Y-50631609D01*
X4632577Y-50631614D01*
X4612100Y-50708035D01*
X4612100Y-120293364D01*
X4632578Y-120369788D01*
X4649377Y-120398886D01*
X4649378Y-120398886D01*
X4672140Y-120438311D01*
X7219989Y-122986160D01*
X7288512Y-123025722D01*
X7364938Y-123046200D01*
X7444062Y-123046200D01*
X9670134Y-123046200D01*
X9722460Y-123067874D01*
X9800786Y-123146200D01*
X9914914Y-123212092D01*
X10042205Y-123246199D01*
X10042206Y-123246200D01*
X10042208Y-123246200D01*
X10173994Y-123246200D01*
X10173994Y-123246199D01*
X10301286Y-123212092D01*
X10415414Y-123146200D01*
X10508600Y-123053014D01*
X10574492Y-122938886D01*
X10608599Y-122811594D01*
X10608600Y-122811594D01*
X10608600Y-122679806D01*
X10608599Y-122679805D01*
X10574493Y-122552518D01*
X10574492Y-122552514D01*
X10508600Y-122438386D01*
X10415414Y-122345200D01*
X10301290Y-122279310D01*
X10301281Y-122279306D01*
X10173994Y-122245200D01*
X10173992Y-122245200D01*
X10042208Y-122245200D01*
X10042206Y-122245200D01*
X9914918Y-122279306D01*
X9914909Y-122279310D01*
X9800785Y-122345200D01*
X9722460Y-122423526D01*
X9670134Y-122445200D01*
X7559623Y-122445200D01*
X7507297Y-122423526D01*
X7391514Y-122307743D01*
X7369840Y-122255417D01*
X7391514Y-122203091D01*
X7406837Y-122191333D01*
X7499214Y-122138000D01*
X7592400Y-122044814D01*
X7658292Y-121930686D01*
X7692399Y-121803394D01*
X7692400Y-121803394D01*
X7692400Y-121742305D01*
X10539700Y-121742305D01*
X10539700Y-121874094D01*
X10573806Y-122001381D01*
X10573810Y-122001390D01*
X10635073Y-122107499D01*
X10639700Y-122115514D01*
X10732886Y-122208700D01*
X10847014Y-122274592D01*
X10974305Y-122308699D01*
X10974306Y-122308700D01*
X10974308Y-122308700D01*
X11106094Y-122308700D01*
X11106094Y-122308699D01*
X11233386Y-122274592D01*
X11347514Y-122208700D01*
X11440700Y-122115514D01*
X11506592Y-122001386D01*
X11540699Y-121874094D01*
X11540700Y-121874094D01*
X11540700Y-121742306D01*
X11540699Y-121742305D01*
X11536651Y-121727199D01*
X11506592Y-121615014D01*
X11440700Y-121500886D01*
X11347514Y-121407700D01*
X11321346Y-121392592D01*
X11233390Y-121341810D01*
X11233381Y-121341806D01*
X11106094Y-121307700D01*
X11106092Y-121307700D01*
X10974308Y-121307700D01*
X10974306Y-121307700D01*
X10847018Y-121341806D01*
X10847009Y-121341810D01*
X10732885Y-121407700D01*
X10639700Y-121500885D01*
X10573810Y-121615009D01*
X10573806Y-121615018D01*
X10539700Y-121742305D01*
X7692400Y-121742305D01*
X7692400Y-121671606D01*
X7692399Y-121671605D01*
X7684227Y-121641108D01*
X7658292Y-121544314D01*
X7594213Y-121433327D01*
X7584300Y-121396328D01*
X7584300Y-119044905D01*
X10171100Y-119044905D01*
X10171100Y-119176694D01*
X10205206Y-119303981D01*
X10205210Y-119303990D01*
X10212732Y-119317018D01*
X10271100Y-119418114D01*
X10364286Y-119511300D01*
X10478414Y-119577192D01*
X10605705Y-119611299D01*
X10605706Y-119611300D01*
X10605708Y-119611300D01*
X10737494Y-119611300D01*
X10737494Y-119611299D01*
X10864786Y-119577192D01*
X10978914Y-119511300D01*
X11072100Y-119418114D01*
X11137992Y-119303986D01*
X11172099Y-119176694D01*
X11172100Y-119176694D01*
X11172100Y-119044906D01*
X11172099Y-119044905D01*
X11137993Y-118917618D01*
X11137992Y-118917614D01*
X11072100Y-118803486D01*
X10978914Y-118710300D01*
X10913789Y-118672700D01*
X10864790Y-118644410D01*
X10864781Y-118644406D01*
X10737494Y-118610300D01*
X10737492Y-118610300D01*
X10605708Y-118610300D01*
X10605706Y-118610300D01*
X10478418Y-118644406D01*
X10478409Y-118644410D01*
X10364285Y-118710300D01*
X10271100Y-118803485D01*
X10205210Y-118917609D01*
X10205206Y-118917618D01*
X10171100Y-119044905D01*
X7584300Y-119044905D01*
X7584300Y-116660905D01*
X8184300Y-116660905D01*
X8184300Y-116792694D01*
X8218406Y-116919981D01*
X8218410Y-116919990D01*
X8240984Y-116959089D01*
X8284300Y-117034114D01*
X8377486Y-117127300D01*
X8491614Y-117193192D01*
X8618905Y-117227299D01*
X8618906Y-117227300D01*
X8618908Y-117227300D01*
X8750694Y-117227300D01*
X8750694Y-117227299D01*
X8877986Y-117193192D01*
X8992114Y-117127300D01*
X9085300Y-117034114D01*
X9151192Y-116919986D01*
X9185299Y-116792694D01*
X9185300Y-116792694D01*
X9185300Y-116695605D01*
X10695200Y-116695605D01*
X10695200Y-116827394D01*
X10729306Y-116954681D01*
X10729310Y-116954690D01*
X10742026Y-116976714D01*
X10795200Y-117068814D01*
X10888386Y-117162000D01*
X11002514Y-117227892D01*
X11129805Y-117261999D01*
X11129806Y-117262000D01*
X11129808Y-117262000D01*
X11261594Y-117262000D01*
X11261594Y-117261999D01*
X11388886Y-117227892D01*
X11503014Y-117162000D01*
X11596200Y-117068814D01*
X11662092Y-116954686D01*
X11696199Y-116827394D01*
X11696200Y-116827394D01*
X11696200Y-116695606D01*
X11696199Y-116695605D01*
X11676373Y-116621614D01*
X11662092Y-116568314D01*
X11596200Y-116454186D01*
X11503014Y-116361000D01*
X11481201Y-116348406D01*
X11388890Y-116295110D01*
X11388881Y-116295106D01*
X11261594Y-116261000D01*
X11261592Y-116261000D01*
X11129808Y-116261000D01*
X11129806Y-116261000D01*
X11002518Y-116295106D01*
X11002509Y-116295110D01*
X10888385Y-116361000D01*
X10795200Y-116454185D01*
X10729310Y-116568309D01*
X10729306Y-116568318D01*
X10695200Y-116695605D01*
X9185300Y-116695605D01*
X9185300Y-116660906D01*
X9185299Y-116660905D01*
X9151193Y-116533618D01*
X9151192Y-116533614D01*
X9085300Y-116419486D01*
X8992114Y-116326300D01*
X8980113Y-116319371D01*
X8877990Y-116260410D01*
X8877981Y-116260406D01*
X8750694Y-116226300D01*
X8750692Y-116226300D01*
X8618908Y-116226300D01*
X8618906Y-116226300D01*
X8491618Y-116260406D01*
X8491609Y-116260410D01*
X8377485Y-116326300D01*
X8284300Y-116419485D01*
X8218410Y-116533609D01*
X8218406Y-116533618D01*
X8184300Y-116660905D01*
X7584300Y-116660905D01*
X7584300Y-113319900D01*
X7605974Y-113267574D01*
X7658300Y-113245900D01*
X7774594Y-113245900D01*
X7774594Y-113245899D01*
X7901886Y-113211792D01*
X8016014Y-113145900D01*
X8109200Y-113052714D01*
X8175092Y-112938586D01*
X8209199Y-112811294D01*
X8209200Y-112811294D01*
X8209200Y-112679506D01*
X8209199Y-112679505D01*
X8194465Y-112624518D01*
X8175092Y-112552214D01*
X8109200Y-112438086D01*
X8016014Y-112344900D01*
X7901890Y-112279010D01*
X7901881Y-112279006D01*
X7774594Y-112244900D01*
X7774592Y-112244900D01*
X7642808Y-112244900D01*
X7550652Y-112269593D01*
X7494500Y-112262200D01*
X7460021Y-112217266D01*
X7457500Y-112198114D01*
X7457500Y-105584270D01*
X8999500Y-105584270D01*
X8999500Y-105689729D01*
X9026791Y-105791582D01*
X9026792Y-105791585D01*
X9026793Y-105791587D01*
X9079520Y-105882913D01*
X9154087Y-105957480D01*
X9245413Y-106010207D01*
X9347270Y-106037499D01*
X9347271Y-106037500D01*
X9347273Y-106037500D01*
X9452729Y-106037500D01*
X9452729Y-106037499D01*
X9554587Y-106010207D01*
X9645913Y-105957480D01*
X9720480Y-105882913D01*
X9773207Y-105791587D01*
X9800499Y-105689729D01*
X9800500Y-105689729D01*
X9800500Y-105584271D01*
X9800499Y-105584270D01*
X9773208Y-105482417D01*
X9773207Y-105482413D01*
X9720480Y-105391087D01*
X9645913Y-105316520D01*
X9626639Y-105305392D01*
X9579271Y-105278044D01*
X9554591Y-105263795D01*
X9554582Y-105263791D01*
X9452729Y-105236500D01*
X9452727Y-105236500D01*
X9347273Y-105236500D01*
X9347271Y-105236500D01*
X9245417Y-105263791D01*
X9245408Y-105263795D01*
X9154086Y-105316520D01*
X9079520Y-105391086D01*
X9026795Y-105482408D01*
X9026791Y-105482417D01*
X8999500Y-105584270D01*
X7457500Y-105584270D01*
X7457500Y-105218805D01*
X10161000Y-105218805D01*
X10161000Y-105350594D01*
X10195106Y-105477881D01*
X10195110Y-105477890D01*
X10197724Y-105482417D01*
X10261000Y-105592014D01*
X10354186Y-105685200D01*
X10468314Y-105751092D01*
X10595605Y-105785199D01*
X10595606Y-105785200D01*
X10595608Y-105785200D01*
X10727394Y-105785200D01*
X10727394Y-105785199D01*
X10854686Y-105751092D01*
X10968814Y-105685200D01*
X11062000Y-105592014D01*
X11127892Y-105477886D01*
X11161999Y-105350594D01*
X11162000Y-105350594D01*
X11162000Y-105218806D01*
X11161999Y-105218805D01*
X11136552Y-105123836D01*
X11127892Y-105091514D01*
X11062000Y-104977386D01*
X10968814Y-104884200D01*
X10872653Y-104828681D01*
X10854690Y-104818310D01*
X10854681Y-104818306D01*
X10727394Y-104784200D01*
X10727392Y-104784200D01*
X10595608Y-104784200D01*
X10595606Y-104784200D01*
X10468318Y-104818306D01*
X10468309Y-104818310D01*
X10354185Y-104884200D01*
X10261000Y-104977385D01*
X10195110Y-105091509D01*
X10195106Y-105091518D01*
X10161000Y-105218805D01*
X7457500Y-105218805D01*
X7457500Y-104954332D01*
X7479174Y-104902006D01*
X7531500Y-104880332D01*
X7550653Y-104882854D01*
X7551913Y-104883191D01*
X7551914Y-104883192D01*
X7679205Y-104917299D01*
X7679206Y-104917300D01*
X7679208Y-104917300D01*
X7810994Y-104917300D01*
X7810994Y-104917299D01*
X7938286Y-104883192D01*
X8052414Y-104817300D01*
X8145600Y-104724114D01*
X8211492Y-104609986D01*
X8245599Y-104482694D01*
X8245600Y-104482694D01*
X8245600Y-104350906D01*
X8245599Y-104350905D01*
X8242515Y-104339397D01*
X8211492Y-104223614D01*
X8145600Y-104109486D01*
X8052414Y-104016300D01*
X8032700Y-104004918D01*
X7938290Y-103950410D01*
X7938281Y-103950406D01*
X7810994Y-103916300D01*
X7810992Y-103916300D01*
X7679208Y-103916300D01*
X7550652Y-103950746D01*
X7494500Y-103943353D01*
X7460021Y-103898419D01*
X7457500Y-103879267D01*
X7457500Y-55338522D01*
X7479173Y-55286197D01*
X7798896Y-54966473D01*
X7851222Y-54944800D01*
X7961994Y-54944800D01*
X7961994Y-54944799D01*
X8089286Y-54910692D01*
X8203414Y-54844800D01*
X8296600Y-54751614D01*
X8362492Y-54637486D01*
X8396599Y-54510194D01*
X8396600Y-54510194D01*
X8396600Y-54378406D01*
X8396599Y-54378405D01*
X8367176Y-54268597D01*
X8362492Y-54251114D01*
X8296600Y-54136986D01*
X8203414Y-54043800D01*
X8089290Y-53977910D01*
X8089281Y-53977906D01*
X7961994Y-53943800D01*
X7961992Y-53943800D01*
X7830208Y-53943800D01*
X7830206Y-53943800D01*
X7702918Y-53977906D01*
X7702909Y-53977910D01*
X7588785Y-54043800D01*
X7495600Y-54136985D01*
X7429710Y-54251109D01*
X7429706Y-54251118D01*
X7395600Y-54378405D01*
X7395600Y-54489176D01*
X7373926Y-54541502D01*
X6972489Y-54942940D01*
X6916540Y-54998888D01*
X6876979Y-55067409D01*
X6876977Y-55067414D01*
X6856500Y-55143835D01*
X6856500Y-113013364D01*
X6876977Y-113089785D01*
X6876979Y-113089790D01*
X6897316Y-113125014D01*
X6916540Y-113158311D01*
X6961626Y-113203397D01*
X6983300Y-113255723D01*
X6983300Y-113533088D01*
X6961626Y-113585414D01*
X6909300Y-113607088D01*
X6875338Y-113597990D01*
X6875269Y-113598158D01*
X6873998Y-113597631D01*
X6872308Y-113597179D01*
X6870789Y-113596302D01*
X6870782Y-113596299D01*
X6756211Y-113565600D01*
X6756209Y-113565600D01*
X6637591Y-113565600D01*
X6637589Y-113565600D01*
X6523017Y-113596299D01*
X6523012Y-113596301D01*
X6420290Y-113655608D01*
X6336408Y-113739490D01*
X6310986Y-113783523D01*
X6266052Y-113818002D01*
X6209900Y-113810609D01*
X6182814Y-113783523D01*
X6157391Y-113739490D01*
X6157390Y-113739489D01*
X6157389Y-113739487D01*
X6073513Y-113655611D01*
X6073510Y-113655609D01*
X6073509Y-113655608D01*
X5970787Y-113596301D01*
X5970782Y-113596299D01*
X5856211Y-113565600D01*
X5856209Y-113565600D01*
X5737591Y-113565600D01*
X5737589Y-113565600D01*
X5662653Y-113585679D01*
X5606500Y-113578287D01*
X5572022Y-113533354D01*
X5569500Y-113514201D01*
X5569500Y-108561156D01*
X5591174Y-108508830D01*
X5643500Y-108487156D01*
X5662648Y-108489677D01*
X5777305Y-108520399D01*
X5777306Y-108520400D01*
X5777308Y-108520400D01*
X5909094Y-108520400D01*
X5909094Y-108520399D01*
X6036386Y-108486292D01*
X6150514Y-108420400D01*
X6243700Y-108327214D01*
X6309592Y-108213086D01*
X6343699Y-108085794D01*
X6343700Y-108085794D01*
X6343700Y-107954006D01*
X6343699Y-107954005D01*
X6342947Y-107951200D01*
X6309592Y-107826714D01*
X6243700Y-107712586D01*
X6150514Y-107619400D01*
X6036390Y-107553510D01*
X6036381Y-107553506D01*
X5909094Y-107519400D01*
X5909092Y-107519400D01*
X5777308Y-107519400D01*
X5662651Y-107550121D01*
X5606500Y-107542729D01*
X5572021Y-107497796D01*
X5569500Y-107478643D01*
X5569500Y-58753587D01*
X5591174Y-58701261D01*
X5643500Y-58679587D01*
X5680500Y-58689501D01*
X5711314Y-58707292D01*
X5838605Y-58741399D01*
X5838606Y-58741400D01*
X5838608Y-58741400D01*
X5970394Y-58741400D01*
X5970394Y-58741399D01*
X6097686Y-58707292D01*
X6211814Y-58641400D01*
X6305000Y-58548214D01*
X6370892Y-58434086D01*
X6404999Y-58306794D01*
X6405000Y-58306794D01*
X6405000Y-58175006D01*
X6404999Y-58175005D01*
X6370893Y-58047718D01*
X6370892Y-58047714D01*
X6305000Y-57933586D01*
X6211814Y-57840400D01*
X6183906Y-57824287D01*
X6097690Y-57774510D01*
X6097681Y-57774506D01*
X5970394Y-57740400D01*
X5970392Y-57740400D01*
X5838608Y-57740400D01*
X5838606Y-57740400D01*
X5711318Y-57774506D01*
X5711309Y-57774510D01*
X5680500Y-57792298D01*
X5624347Y-57799690D01*
X5579414Y-57765212D01*
X5569500Y-57728212D01*
X5569500Y-52140605D01*
X7907400Y-52140605D01*
X7907400Y-52272394D01*
X7941506Y-52399681D01*
X7941507Y-52399684D01*
X7941508Y-52399686D01*
X8007400Y-52513814D01*
X8100586Y-52607000D01*
X8214714Y-52672892D01*
X8342005Y-52706999D01*
X8342006Y-52707000D01*
X8342008Y-52707000D01*
X8473794Y-52707000D01*
X8473794Y-52706999D01*
X8601086Y-52672892D01*
X8715214Y-52607000D01*
X8808400Y-52513814D01*
X8874292Y-52399686D01*
X8908399Y-52272394D01*
X8908400Y-52272394D01*
X8908400Y-52140606D01*
X8908399Y-52140605D01*
X8901514Y-52114911D01*
X8874292Y-52013314D01*
X8808400Y-51899186D01*
X8715214Y-51806000D01*
X8601090Y-51740110D01*
X8601081Y-51740106D01*
X8473794Y-51706000D01*
X8473792Y-51706000D01*
X8342008Y-51706000D01*
X8342006Y-51706000D01*
X8214718Y-51740106D01*
X8214709Y-51740110D01*
X8100585Y-51806000D01*
X8007400Y-51899185D01*
X7941510Y-52013309D01*
X7941506Y-52013318D01*
X7907400Y-52140605D01*
X5569500Y-52140605D01*
X5569500Y-51044823D01*
X5591174Y-50992497D01*
X5631366Y-50952305D01*
X8176600Y-50952305D01*
X8176600Y-51084094D01*
X8210706Y-51211381D01*
X8210707Y-51211384D01*
X8210708Y-51211386D01*
X8276600Y-51325514D01*
X8369786Y-51418700D01*
X8483914Y-51484592D01*
X8611205Y-51518699D01*
X8611206Y-51518700D01*
X8611208Y-51518700D01*
X8742994Y-51518700D01*
X8742994Y-51518699D01*
X8870286Y-51484592D01*
X8984414Y-51418700D01*
X9077600Y-51325514D01*
X9143492Y-51211386D01*
X9177599Y-51084094D01*
X9177600Y-51084094D01*
X9177600Y-50952306D01*
X9177599Y-50952305D01*
X9160102Y-50887006D01*
X9143492Y-50825014D01*
X9077600Y-50710886D01*
X8984414Y-50617700D01*
X8870290Y-50551810D01*
X8870281Y-50551806D01*
X8742994Y-50517700D01*
X8742992Y-50517700D01*
X8611208Y-50517700D01*
X8611206Y-50517700D01*
X8483918Y-50551806D01*
X8483909Y-50551810D01*
X8369785Y-50617700D01*
X8276600Y-50710885D01*
X8210710Y-50825009D01*
X8210706Y-50825018D01*
X8176600Y-50952305D01*
X5631366Y-50952305D01*
X5688539Y-50895132D01*
X6550490Y-50033181D01*
X7622585Y-48961085D01*
X7674910Y-48939412D01*
X7727236Y-48961086D01*
X7746388Y-48994259D01*
X7751806Y-49014481D01*
X7751810Y-49014490D01*
X7752336Y-49015401D01*
X7817700Y-49128614D01*
X7910886Y-49221800D01*
X8025014Y-49287692D01*
X8152305Y-49321799D01*
X8152306Y-49321800D01*
X8263077Y-49321800D01*
X8315403Y-49343474D01*
X10630426Y-51658497D01*
X10652100Y-51710823D01*
X10652100Y-100815334D01*
X10630426Y-100867660D01*
X10552100Y-100945985D01*
X10486210Y-101060109D01*
X10486206Y-101060118D01*
X10452100Y-101187405D01*
X10452100Y-101319191D01*
X10460245Y-101349591D01*
X10452851Y-101405744D01*
X10407918Y-101440222D01*
X10351765Y-101432828D01*
X10336440Y-101421069D01*
X9456974Y-100541603D01*
X9435300Y-100489277D01*
X9435300Y-57824287D01*
X9456974Y-57771961D01*
X9509300Y-57750287D01*
X9528450Y-57752808D01*
X9619105Y-57777099D01*
X9619106Y-57777100D01*
X9619108Y-57777100D01*
X9750894Y-57777100D01*
X9750894Y-57777099D01*
X9878186Y-57742992D01*
X9992314Y-57677100D01*
X10085500Y-57583914D01*
X10151392Y-57469786D01*
X10185499Y-57342494D01*
X10185500Y-57342494D01*
X10185500Y-57210706D01*
X10185499Y-57210705D01*
X10151393Y-57083418D01*
X10151392Y-57083414D01*
X10085500Y-56969286D01*
X9992314Y-56876100D01*
X9926803Y-56838277D01*
X9878190Y-56810210D01*
X9878181Y-56810206D01*
X9750894Y-56776100D01*
X9750892Y-56776100D01*
X9619108Y-56776100D01*
X9619106Y-56776100D01*
X9491818Y-56810206D01*
X9491809Y-56810210D01*
X9377685Y-56876100D01*
X9284500Y-56969285D01*
X9218610Y-57083409D01*
X9218606Y-57083418D01*
X9184500Y-57210705D01*
X9184500Y-57224277D01*
X9162826Y-57276603D01*
X9110500Y-57298277D01*
X9058174Y-57276603D01*
X8672174Y-56890603D01*
X8650500Y-56838277D01*
X8650500Y-56727506D01*
X8650499Y-56727505D01*
X8634581Y-56668099D01*
X8616392Y-56600214D01*
X8550500Y-56486086D01*
X8457314Y-56392900D01*
X8401691Y-56360786D01*
X8343190Y-56327010D01*
X8343181Y-56327006D01*
X8215894Y-56292900D01*
X8215892Y-56292900D01*
X8084108Y-56292900D01*
X8084106Y-56292900D01*
X7956818Y-56327006D01*
X7956809Y-56327010D01*
X7842685Y-56392900D01*
X7749500Y-56486085D01*
X7683610Y-56600209D01*
X7683606Y-56600218D01*
X7649500Y-56727505D01*
X7649500Y-56859294D01*
X7683606Y-56986581D01*
X7683610Y-56986590D01*
X7704046Y-57021986D01*
X7749500Y-57100714D01*
X7842686Y-57193900D01*
X7956814Y-57259792D01*
X8084105Y-57293899D01*
X8084106Y-57293900D01*
X8194877Y-57293900D01*
X8247203Y-57315574D01*
X8812626Y-57880997D01*
X8834300Y-57933323D01*
X8834300Y-59968249D01*
X8812626Y-60020575D01*
X8760300Y-60042249D01*
X8723300Y-60032335D01*
X8705590Y-60022110D01*
X8705581Y-60022106D01*
X8578294Y-59988000D01*
X8578292Y-59988000D01*
X8446508Y-59988000D01*
X8446506Y-59988000D01*
X8319218Y-60022106D01*
X8319209Y-60022110D01*
X8205085Y-60088000D01*
X8111900Y-60181185D01*
X8046010Y-60295309D01*
X8046006Y-60295318D01*
X8011900Y-60422605D01*
X8011900Y-60554394D01*
X8046006Y-60681681D01*
X8046007Y-60681684D01*
X8046008Y-60681686D01*
X8111900Y-60795814D01*
X8205086Y-60889000D01*
X8319214Y-60954892D01*
X8446505Y-60988999D01*
X8446506Y-60989000D01*
X8446508Y-60989000D01*
X8578294Y-60989000D01*
X8578294Y-60988999D01*
X8705586Y-60954892D01*
X8723300Y-60944664D01*
X8779450Y-60937271D01*
X8824385Y-60971748D01*
X8834300Y-61008750D01*
X8834300Y-100683964D01*
X8854777Y-100760385D01*
X8854778Y-100760386D01*
X8854779Y-100760389D01*
X8870089Y-100786907D01*
X8870090Y-100786908D01*
X8894339Y-100828910D01*
X13331626Y-105266197D01*
X13353300Y-105318523D01*
X13353300Y-108940933D01*
X13331626Y-108993259D01*
X13279300Y-109014933D01*
X13242301Y-109005020D01*
X13215088Y-108989309D01*
X13215081Y-108989306D01*
X13087794Y-108955200D01*
X13087792Y-108955200D01*
X12956008Y-108955200D01*
X12956006Y-108955200D01*
X12828718Y-108989306D01*
X12828709Y-108989310D01*
X12714585Y-109055200D01*
X12621400Y-109148385D01*
X12555510Y-109262509D01*
X12555506Y-109262518D01*
X12521400Y-109389805D01*
X12521400Y-109521594D01*
X12555506Y-109648881D01*
X12555510Y-109648890D01*
X12579649Y-109690699D01*
X12621400Y-109763014D01*
X12714586Y-109856200D01*
X12828714Y-109922092D01*
X12956005Y-109956199D01*
X12956006Y-109956200D01*
X12956008Y-109956200D01*
X13087794Y-109956200D01*
X13087794Y-109956199D01*
X13215086Y-109922092D01*
X13242300Y-109906380D01*
X13298452Y-109898987D01*
X13343386Y-109933466D01*
X13353300Y-109970466D01*
X13353300Y-117800730D01*
X13331626Y-117853056D01*
X13279300Y-117874730D01*
X13226974Y-117853056D01*
X13215216Y-117837734D01*
X13214900Y-117837186D01*
X13121714Y-117744000D01*
X13022312Y-117686610D01*
X13007590Y-117678110D01*
X13007581Y-117678106D01*
X12880294Y-117644000D01*
X12880292Y-117644000D01*
X12748508Y-117644000D01*
X12748506Y-117644000D01*
X12621218Y-117678106D01*
X12621209Y-117678110D01*
X12507085Y-117744000D01*
X12413900Y-117837185D01*
X12348010Y-117951309D01*
X12348006Y-117951318D01*
X12313900Y-118078605D01*
X12313900Y-118210394D01*
X12348006Y-118337681D01*
X12348010Y-118337690D01*
X12352915Y-118346186D01*
X12413900Y-118451814D01*
X12507086Y-118545000D01*
X12621214Y-118610892D01*
X12748505Y-118644999D01*
X12748506Y-118645000D01*
X12748508Y-118645000D01*
X12880294Y-118645000D01*
X12880294Y-118644999D01*
X13007586Y-118610892D01*
X13121714Y-118545000D01*
X13214900Y-118451814D01*
X13215212Y-118451272D01*
X13215462Y-118451080D01*
X13217852Y-118447967D01*
X13218686Y-118448606D01*
X13260141Y-118416792D01*
X13316295Y-118424180D01*
X13350777Y-118469110D01*
X13353300Y-118488269D01*
X13353300Y-132298564D01*
X13373777Y-132374985D01*
X13373779Y-132374990D01*
X13394192Y-132410345D01*
X13399663Y-132419821D01*
X13413340Y-132443511D01*
X21745440Y-140775611D01*
X21801389Y-140831560D01*
X21869911Y-140871121D01*
X21869912Y-140871121D01*
X21869914Y-140871122D01*
X21908124Y-140881360D01*
X21946335Y-140891599D01*
X21946336Y-140891600D01*
X21946338Y-140891600D01*
X22025462Y-140891600D01*
X28206548Y-140891600D01*
X28243547Y-140901513D01*
X28354014Y-140965292D01*
X28481305Y-140999399D01*
X28481306Y-140999400D01*
X28481308Y-140999400D01*
X28613094Y-140999400D01*
X28613094Y-140999399D01*
X28740386Y-140965292D01*
X28854514Y-140899400D01*
X28947700Y-140806214D01*
X29013592Y-140692086D01*
X29047699Y-140564794D01*
X29047700Y-140564794D01*
X29047700Y-140433006D01*
X29047699Y-140433005D01*
X29027037Y-140355894D01*
X29013592Y-140305714D01*
X28947700Y-140191586D01*
X28885619Y-140129505D01*
X43383000Y-140129505D01*
X43383000Y-140261294D01*
X43417106Y-140388581D01*
X43417107Y-140388584D01*
X43417108Y-140388586D01*
X43483000Y-140502714D01*
X43576186Y-140595900D01*
X43690314Y-140661792D01*
X43817605Y-140695899D01*
X43817606Y-140695900D01*
X43817608Y-140695900D01*
X43949394Y-140695900D01*
X43949394Y-140695899D01*
X44076686Y-140661792D01*
X44190814Y-140595900D01*
X44284000Y-140502714D01*
X44349892Y-140388586D01*
X44383999Y-140261294D01*
X44384000Y-140261294D01*
X44384000Y-140224105D01*
X52343000Y-140224105D01*
X52343000Y-140355894D01*
X52377106Y-140483181D01*
X52377110Y-140483190D01*
X52442183Y-140595899D01*
X52443000Y-140597314D01*
X52536186Y-140690500D01*
X52650314Y-140756392D01*
X52777605Y-140790499D01*
X52777606Y-140790500D01*
X52777608Y-140790500D01*
X52909394Y-140790500D01*
X52909394Y-140790499D01*
X53036686Y-140756392D01*
X53150814Y-140690500D01*
X53244000Y-140597314D01*
X53309892Y-140483186D01*
X53343999Y-140355894D01*
X53344000Y-140355894D01*
X53344000Y-140224106D01*
X53343999Y-140224105D01*
X53335285Y-140191585D01*
X53309892Y-140096814D01*
X53244000Y-139982686D01*
X53150814Y-139889500D01*
X53084984Y-139851493D01*
X53036690Y-139823610D01*
X53036681Y-139823606D01*
X52909394Y-139789500D01*
X52909392Y-139789500D01*
X52777608Y-139789500D01*
X52777606Y-139789500D01*
X52650318Y-139823606D01*
X52650309Y-139823610D01*
X52536185Y-139889500D01*
X52443000Y-139982685D01*
X52377110Y-140096809D01*
X52377106Y-140096818D01*
X52343000Y-140224105D01*
X44384000Y-140224105D01*
X44384000Y-140129506D01*
X44383999Y-140129505D01*
X44373653Y-140090894D01*
X44349892Y-140002214D01*
X44284000Y-139888086D01*
X44190814Y-139794900D01*
X44174704Y-139785599D01*
X44076690Y-139729010D01*
X44076681Y-139729006D01*
X43949394Y-139694900D01*
X43949392Y-139694900D01*
X43817608Y-139694900D01*
X43817606Y-139694900D01*
X43690318Y-139729006D01*
X43690309Y-139729010D01*
X43576185Y-139794900D01*
X43483000Y-139888085D01*
X43417110Y-140002209D01*
X43417106Y-140002218D01*
X43383000Y-140129505D01*
X28885619Y-140129505D01*
X28854514Y-140098400D01*
X28841510Y-140090892D01*
X28740390Y-140032510D01*
X28740381Y-140032506D01*
X28613094Y-139998400D01*
X28613092Y-139998400D01*
X28481308Y-139998400D01*
X28481306Y-139998400D01*
X28354018Y-140032506D01*
X28354009Y-140032510D01*
X28239885Y-140098400D01*
X28146698Y-140191588D01*
X28110896Y-140253600D01*
X28065962Y-140288079D01*
X28046810Y-140290600D01*
X26907727Y-140290600D01*
X26855401Y-140268926D01*
X26833727Y-140216600D01*
X26836249Y-140197447D01*
X26839824Y-140184104D01*
X26864799Y-140090894D01*
X26864800Y-140090894D01*
X26864800Y-139959106D01*
X26864799Y-139959105D01*
X26845769Y-139888085D01*
X26830692Y-139831814D01*
X26764800Y-139717686D01*
X26671614Y-139624500D01*
X26557490Y-139558610D01*
X26557481Y-139558606D01*
X26477328Y-139537129D01*
X26432395Y-139502651D01*
X26425003Y-139446498D01*
X26453299Y-139340894D01*
X26453300Y-139340894D01*
X26453300Y-139209106D01*
X26453299Y-139209105D01*
X26448691Y-139191909D01*
X26419192Y-139081814D01*
X26353300Y-138967686D01*
X26260114Y-138874500D01*
X26242953Y-138864592D01*
X26145990Y-138808610D01*
X26145981Y-138808606D01*
X26018694Y-138774500D01*
X26018692Y-138774500D01*
X25886908Y-138774500D01*
X25886906Y-138774500D01*
X25759618Y-138808606D01*
X25759609Y-138808610D01*
X25645485Y-138874500D01*
X25552300Y-138967685D01*
X25486410Y-139081809D01*
X25486406Y-139081818D01*
X25452300Y-139209105D01*
X25452300Y-139340894D01*
X25486406Y-139468181D01*
X25486410Y-139468190D01*
X25552300Y-139582314D01*
X25568160Y-139598174D01*
X25589834Y-139650500D01*
X25568160Y-139702826D01*
X25515834Y-139724500D01*
X24010418Y-139724500D01*
X23958092Y-139702826D01*
X23936418Y-139650500D01*
X23946332Y-139613500D01*
X23966660Y-139578290D01*
X23975092Y-139563686D01*
X24009199Y-139436394D01*
X24009200Y-139436394D01*
X24009200Y-139304606D01*
X24009199Y-139304605D01*
X23983610Y-139209106D01*
X23975092Y-139177314D01*
X23909200Y-139063186D01*
X23830874Y-138984860D01*
X23809200Y-138932534D01*
X23809200Y-136624536D01*
X23809199Y-136624535D01*
X23788722Y-136548114D01*
X23788720Y-136548109D01*
X23749159Y-136479588D01*
X19938374Y-132668803D01*
X19916700Y-132616477D01*
X19916700Y-131702205D01*
X22903100Y-131702205D01*
X22903100Y-131833994D01*
X22937206Y-131961281D01*
X22937210Y-131961290D01*
X22968410Y-132015329D01*
X23003100Y-132075414D01*
X23096286Y-132168600D01*
X23210414Y-132234492D01*
X23337705Y-132268599D01*
X23337706Y-132268600D01*
X23337708Y-132268600D01*
X23469494Y-132268600D01*
X23469494Y-132268599D01*
X23596786Y-132234492D01*
X23710914Y-132168600D01*
X23804100Y-132075414D01*
X23869992Y-131961286D01*
X23904099Y-131833994D01*
X23904100Y-131833994D01*
X23904100Y-131702206D01*
X23904099Y-131702205D01*
X23869993Y-131574918D01*
X23869992Y-131574914D01*
X23804100Y-131460786D01*
X23710914Y-131367600D01*
X23596790Y-131301710D01*
X23596781Y-131301706D01*
X23469494Y-131267600D01*
X23469492Y-131267600D01*
X23337708Y-131267600D01*
X23337706Y-131267600D01*
X23210418Y-131301706D01*
X23210409Y-131301710D01*
X23096285Y-131367600D01*
X23003100Y-131460785D01*
X22937210Y-131574909D01*
X22937206Y-131574918D01*
X22903100Y-131702205D01*
X19916700Y-131702205D01*
X19916700Y-128566705D01*
X22136000Y-128566705D01*
X22136000Y-128698494D01*
X22170106Y-128825781D01*
X22170110Y-128825790D01*
X22194287Y-128867665D01*
X22236000Y-128939914D01*
X22329186Y-129033100D01*
X22443314Y-129098992D01*
X22570605Y-129133099D01*
X22570606Y-129133100D01*
X22570608Y-129133100D01*
X22702394Y-129133100D01*
X22702394Y-129133099D01*
X22829686Y-129098992D01*
X22943814Y-129033100D01*
X23037000Y-128939914D01*
X23102892Y-128825786D01*
X23136999Y-128698494D01*
X23137000Y-128698494D01*
X23137000Y-128566706D01*
X23136999Y-128566705D01*
X23102893Y-128439418D01*
X23102892Y-128439414D01*
X23037000Y-128325286D01*
X22943814Y-128232100D01*
X22829690Y-128166210D01*
X22829681Y-128166206D01*
X22702394Y-128132100D01*
X22702392Y-128132100D01*
X22570608Y-128132100D01*
X22570606Y-128132100D01*
X22443318Y-128166206D01*
X22443309Y-128166210D01*
X22329185Y-128232100D01*
X22236000Y-128325285D01*
X22170110Y-128439409D01*
X22170106Y-128439418D01*
X22136000Y-128566705D01*
X19916700Y-128566705D01*
X19916700Y-126148305D01*
X20396800Y-126148305D01*
X20396800Y-126280094D01*
X20430906Y-126407381D01*
X20430910Y-126407390D01*
X20465499Y-126467299D01*
X20496800Y-126521514D01*
X20589986Y-126614700D01*
X20704114Y-126680592D01*
X20831405Y-126714699D01*
X20831406Y-126714700D01*
X20831408Y-126714700D01*
X20963194Y-126714700D01*
X20963194Y-126714699D01*
X21090486Y-126680592D01*
X21204614Y-126614700D01*
X21297800Y-126521514D01*
X21363692Y-126407386D01*
X21397799Y-126280094D01*
X21397800Y-126280094D01*
X21397800Y-126148306D01*
X21397799Y-126148305D01*
X21363693Y-126021018D01*
X21363692Y-126021014D01*
X21297800Y-125906886D01*
X21204614Y-125813700D01*
X21135190Y-125773618D01*
X21090490Y-125747810D01*
X21090481Y-125747806D01*
X20963194Y-125713700D01*
X20963192Y-125713700D01*
X20831408Y-125713700D01*
X20831406Y-125713700D01*
X20704118Y-125747806D01*
X20704109Y-125747810D01*
X20589985Y-125813700D01*
X20496800Y-125906885D01*
X20430910Y-126021009D01*
X20430906Y-126021018D01*
X20396800Y-126148305D01*
X19916700Y-126148305D01*
X19916700Y-124979005D01*
X20877000Y-124979005D01*
X20877000Y-125110794D01*
X20911106Y-125238081D01*
X20911110Y-125238090D01*
X20977000Y-125352214D01*
X21070186Y-125445400D01*
X21184314Y-125511292D01*
X21311605Y-125545399D01*
X21311606Y-125545400D01*
X21311608Y-125545400D01*
X21443394Y-125545400D01*
X21443394Y-125545399D01*
X21570686Y-125511292D01*
X21684814Y-125445400D01*
X21778000Y-125352214D01*
X21843892Y-125238086D01*
X21877999Y-125110794D01*
X21878000Y-125110794D01*
X21878000Y-124979006D01*
X21877999Y-124979005D01*
X21843893Y-124851718D01*
X21843892Y-124851714D01*
X21778000Y-124737586D01*
X21684814Y-124644400D01*
X21679431Y-124641292D01*
X21570690Y-124578510D01*
X21570681Y-124578506D01*
X21443394Y-124544400D01*
X21443392Y-124544400D01*
X21311608Y-124544400D01*
X21311606Y-124544400D01*
X21184318Y-124578506D01*
X21184309Y-124578510D01*
X21070185Y-124644400D01*
X20977000Y-124737585D01*
X20911110Y-124851709D01*
X20911106Y-124851718D01*
X20877000Y-124979005D01*
X19916700Y-124979005D01*
X19916700Y-123156205D01*
X22713600Y-123156205D01*
X22713600Y-123287994D01*
X22747706Y-123415281D01*
X22747710Y-123415290D01*
X22790670Y-123489699D01*
X22813600Y-123529414D01*
X22906786Y-123622600D01*
X23020914Y-123688492D01*
X23148205Y-123722599D01*
X23148206Y-123722600D01*
X23148208Y-123722600D01*
X23279994Y-123722600D01*
X23279994Y-123722599D01*
X23407286Y-123688492D01*
X23521414Y-123622600D01*
X23614600Y-123529414D01*
X23680492Y-123415286D01*
X23714599Y-123287994D01*
X23714600Y-123287994D01*
X23714600Y-123156206D01*
X23714599Y-123156205D01*
X23686949Y-123053014D01*
X23680492Y-123028914D01*
X23614600Y-122914786D01*
X23521414Y-122821600D01*
X23504080Y-122811592D01*
X23407290Y-122755710D01*
X23407281Y-122755706D01*
X23279994Y-122721600D01*
X23279992Y-122721600D01*
X23148208Y-122721600D01*
X23148206Y-122721600D01*
X23020918Y-122755706D01*
X23020909Y-122755710D01*
X22906785Y-122821600D01*
X22813600Y-122914785D01*
X22747710Y-123028909D01*
X22747706Y-123028918D01*
X22713600Y-123156205D01*
X19916700Y-123156205D01*
X19916700Y-120487344D01*
X19938374Y-120435018D01*
X19990700Y-120413344D01*
X20009851Y-120415865D01*
X20123805Y-120446399D01*
X20123806Y-120446400D01*
X20123808Y-120446400D01*
X20255594Y-120446400D01*
X20255594Y-120446399D01*
X20382886Y-120412292D01*
X20497014Y-120346400D01*
X20590200Y-120253214D01*
X20656092Y-120139086D01*
X20690199Y-120011794D01*
X20690200Y-120011794D01*
X20690200Y-119901022D01*
X20711874Y-119848696D01*
X21049271Y-119511299D01*
X21414860Y-119145711D01*
X21452629Y-119080292D01*
X21454421Y-119077189D01*
X21454422Y-119077187D01*
X21454423Y-119077184D01*
X21466447Y-119032308D01*
X21474899Y-119000764D01*
X21474900Y-119000764D01*
X21474900Y-117993305D01*
X22291500Y-117993305D01*
X22291500Y-118125094D01*
X22325606Y-118252381D01*
X22325610Y-118252390D01*
X22375092Y-118338094D01*
X22391500Y-118366514D01*
X22484686Y-118459700D01*
X22598814Y-118525592D01*
X22726105Y-118559699D01*
X22726106Y-118559700D01*
X22726108Y-118559700D01*
X22857894Y-118559700D01*
X22857894Y-118559699D01*
X22985186Y-118525592D01*
X23099314Y-118459700D01*
X23192500Y-118366514D01*
X23258392Y-118252386D01*
X23292499Y-118125094D01*
X23292500Y-118125094D01*
X23292500Y-117993306D01*
X23292499Y-117993305D01*
X23289090Y-117980584D01*
X23258392Y-117866014D01*
X23192500Y-117751886D01*
X23099314Y-117658700D01*
X23073853Y-117644000D01*
X22985190Y-117592810D01*
X22985181Y-117592806D01*
X22857894Y-117558700D01*
X22857892Y-117558700D01*
X22726108Y-117558700D01*
X22726106Y-117558700D01*
X22598818Y-117592806D01*
X22598809Y-117592810D01*
X22484685Y-117658700D01*
X22391500Y-117751885D01*
X22325610Y-117866009D01*
X22325606Y-117866018D01*
X22291500Y-117993305D01*
X21474900Y-117993305D01*
X21474900Y-113171605D01*
X22073300Y-113171605D01*
X22073300Y-113303394D01*
X22107406Y-113430681D01*
X22107410Y-113430690D01*
X22156659Y-113515991D01*
X22173300Y-113544814D01*
X22266486Y-113638000D01*
X22380614Y-113703892D01*
X22507905Y-113737999D01*
X22507906Y-113738000D01*
X22507908Y-113738000D01*
X22639694Y-113738000D01*
X22639694Y-113737999D01*
X22766986Y-113703892D01*
X22881114Y-113638000D01*
X22974300Y-113544814D01*
X23040192Y-113430686D01*
X23074299Y-113303394D01*
X23074300Y-113303394D01*
X23074300Y-113171606D01*
X23074299Y-113171605D01*
X23067411Y-113145900D01*
X23040192Y-113044314D01*
X22974300Y-112930186D01*
X22881114Y-112837000D01*
X22870053Y-112830614D01*
X22766990Y-112771110D01*
X22766981Y-112771106D01*
X22639694Y-112737000D01*
X22639692Y-112737000D01*
X22507908Y-112737000D01*
X22507906Y-112737000D01*
X22380618Y-112771106D01*
X22380609Y-112771110D01*
X22266485Y-112837000D01*
X22173300Y-112930185D01*
X22107410Y-113044309D01*
X22107406Y-113044318D01*
X22073300Y-113171605D01*
X21474900Y-113171605D01*
X21474900Y-104856934D01*
X21496574Y-104804608D01*
X21548900Y-104782934D01*
X21601226Y-104804608D01*
X21612983Y-104819930D01*
X21616900Y-104826714D01*
X21710086Y-104919900D01*
X21824214Y-104985792D01*
X21951505Y-105019899D01*
X21951506Y-105019900D01*
X21951508Y-105019900D01*
X22083294Y-105019900D01*
X22083294Y-105019899D01*
X22210586Y-104985792D01*
X22324714Y-104919900D01*
X22417900Y-104826714D01*
X22483792Y-104712586D01*
X22517899Y-104585294D01*
X22517900Y-104585294D01*
X22517900Y-104453506D01*
X22517899Y-104453505D01*
X22483793Y-104326218D01*
X22483792Y-104326214D01*
X22417900Y-104212086D01*
X22324714Y-104118900D01*
X22244347Y-104072500D01*
X22210590Y-104053010D01*
X22210581Y-104053006D01*
X22083294Y-104018900D01*
X22083292Y-104018900D01*
X21951508Y-104018900D01*
X21951506Y-104018900D01*
X21824218Y-104053006D01*
X21824209Y-104053010D01*
X21710085Y-104118900D01*
X21616899Y-104212086D01*
X21612985Y-104218866D01*
X21568051Y-104253344D01*
X21511899Y-104245950D01*
X21477421Y-104201016D01*
X21474900Y-104181865D01*
X21474900Y-91485658D01*
X21496574Y-91433332D01*
X21548900Y-91411658D01*
X21601226Y-91433332D01*
X21610425Y-91444542D01*
X21694023Y-91569655D01*
X21840345Y-91715977D01*
X22012402Y-91830941D01*
X22203580Y-91910130D01*
X22406535Y-91950500D01*
X22406536Y-91950500D01*
X22613464Y-91950500D01*
X22613465Y-91950500D01*
X22816420Y-91910130D01*
X23007598Y-91830941D01*
X23179655Y-91715977D01*
X23325977Y-91569655D01*
X23440941Y-91397598D01*
X23498733Y-91258075D01*
X23538781Y-91218027D01*
X23595418Y-91218027D01*
X23635467Y-91258075D01*
X23641100Y-91286394D01*
X23641100Y-109461388D01*
X23619426Y-109513714D01*
X23567100Y-109535388D01*
X23530100Y-109525474D01*
X23438190Y-109472410D01*
X23438181Y-109472406D01*
X23310894Y-109438300D01*
X23310892Y-109438300D01*
X23179108Y-109438300D01*
X23179106Y-109438300D01*
X23051818Y-109472406D01*
X23051809Y-109472410D01*
X22937685Y-109538300D01*
X22844500Y-109631485D01*
X22778610Y-109745609D01*
X22778606Y-109745618D01*
X22744500Y-109872905D01*
X22744500Y-110004694D01*
X22778606Y-110131981D01*
X22778607Y-110131984D01*
X22778608Y-110131986D01*
X22844500Y-110246114D01*
X22937686Y-110339300D01*
X23051814Y-110405192D01*
X23179105Y-110439299D01*
X23179106Y-110439300D01*
X23179108Y-110439300D01*
X23310894Y-110439300D01*
X23310894Y-110439299D01*
X23438186Y-110405192D01*
X23530100Y-110352124D01*
X23586252Y-110344732D01*
X23631186Y-110379211D01*
X23641100Y-110416211D01*
X23641100Y-120446664D01*
X23661577Y-120523085D01*
X23661578Y-120523086D01*
X23661579Y-120523089D01*
X23679599Y-120554300D01*
X23701140Y-120591611D01*
X23701141Y-120591612D01*
X24185526Y-121075997D01*
X24207200Y-121128323D01*
X24207200Y-121239094D01*
X24241306Y-121366381D01*
X24241307Y-121366384D01*
X24241308Y-121366386D01*
X24307200Y-121480514D01*
X24400386Y-121573700D01*
X24514514Y-121639592D01*
X24641805Y-121673699D01*
X24641806Y-121673700D01*
X24641808Y-121673700D01*
X24773594Y-121673700D01*
X24773594Y-121673699D01*
X24900886Y-121639592D01*
X24930611Y-121622429D01*
X24986763Y-121615036D01*
X25031697Y-121649514D01*
X25039090Y-121667362D01*
X25072106Y-121790581D01*
X25072110Y-121790590D01*
X25093247Y-121827200D01*
X25138000Y-121904714D01*
X25231186Y-121997900D01*
X25345314Y-122063792D01*
X25472605Y-122097899D01*
X25472606Y-122097900D01*
X25472608Y-122097900D01*
X25604394Y-122097900D01*
X25604394Y-122097899D01*
X25731686Y-122063792D01*
X25845814Y-121997900D01*
X25939000Y-121904714D01*
X26004892Y-121790586D01*
X26038999Y-121663294D01*
X26039000Y-121663294D01*
X26039000Y-121531506D01*
X26038999Y-121531505D01*
X26035884Y-121519881D01*
X26004892Y-121404214D01*
X25939000Y-121290086D01*
X25860674Y-121211760D01*
X25839000Y-121159434D01*
X25839000Y-116748905D01*
X26065800Y-116748905D01*
X26065800Y-116880694D01*
X26099906Y-117007981D01*
X26099910Y-117007990D01*
X26130502Y-117060977D01*
X26165800Y-117122114D01*
X26258986Y-117215300D01*
X26373114Y-117281192D01*
X26500405Y-117315299D01*
X26500406Y-117315300D01*
X26500408Y-117315300D01*
X26632194Y-117315300D01*
X26632194Y-117315299D01*
X26759486Y-117281192D01*
X26873614Y-117215300D01*
X26966800Y-117122114D01*
X27032692Y-117007986D01*
X27066799Y-116880694D01*
X27066800Y-116880694D01*
X27066800Y-116748906D01*
X27066799Y-116748905D01*
X27052517Y-116695605D01*
X27032692Y-116621614D01*
X26966800Y-116507486D01*
X26873614Y-116414300D01*
X26759490Y-116348410D01*
X26759481Y-116348406D01*
X26632194Y-116314300D01*
X26632192Y-116314300D01*
X26500408Y-116314300D01*
X26500406Y-116314300D01*
X26373118Y-116348406D01*
X26373109Y-116348410D01*
X26258985Y-116414300D01*
X26165800Y-116507485D01*
X26099910Y-116621609D01*
X26099906Y-116621618D01*
X26065800Y-116748905D01*
X25839000Y-116748905D01*
X25839000Y-111661222D01*
X25860673Y-111608897D01*
X26580560Y-110889011D01*
X26620122Y-110820488D01*
X26640600Y-110744062D01*
X26640600Y-110664938D01*
X26640600Y-91613894D01*
X26662274Y-91561568D01*
X26714600Y-91539894D01*
X26766926Y-91561568D01*
X26771807Y-91566954D01*
X26774022Y-91569653D01*
X26774023Y-91569655D01*
X26920345Y-91715977D01*
X27092402Y-91830941D01*
X27283580Y-91910130D01*
X27486535Y-91950500D01*
X27486536Y-91950500D01*
X27693464Y-91950500D01*
X27693465Y-91950500D01*
X27896420Y-91910130D01*
X28087598Y-91830941D01*
X28259655Y-91715977D01*
X28302874Y-91672758D01*
X28355200Y-91651084D01*
X28407526Y-91672758D01*
X28429200Y-91725084D01*
X28429200Y-103265877D01*
X28407526Y-103318203D01*
X27306840Y-104418888D01*
X27267279Y-104487409D01*
X27267277Y-104487414D01*
X27246800Y-104563835D01*
X27246800Y-123650576D01*
X27225126Y-123702902D01*
X27060402Y-123867626D01*
X27008076Y-123889300D01*
X26897306Y-123889300D01*
X26770018Y-123923406D01*
X26770009Y-123923410D01*
X26655885Y-123989300D01*
X26562700Y-124082485D01*
X26496810Y-124196609D01*
X26496806Y-124196618D01*
X26462700Y-124323905D01*
X26462700Y-124455694D01*
X26496806Y-124582981D01*
X26496807Y-124582984D01*
X26496808Y-124582986D01*
X26562700Y-124697114D01*
X26655886Y-124790300D01*
X26770014Y-124856192D01*
X26897305Y-124890299D01*
X26897306Y-124890300D01*
X26897308Y-124890300D01*
X27029094Y-124890300D01*
X27029094Y-124890299D01*
X27156386Y-124856192D01*
X27270514Y-124790300D01*
X27363700Y-124697114D01*
X27429592Y-124582986D01*
X27463699Y-124455694D01*
X27463700Y-124455694D01*
X27463700Y-124344922D01*
X27485374Y-124292596D01*
X27603070Y-124174900D01*
X27787760Y-123990211D01*
X27788286Y-123989300D01*
X27827321Y-123921689D01*
X27847799Y-123845264D01*
X27847800Y-123845264D01*
X27847800Y-120139805D01*
X29672800Y-120139805D01*
X29672800Y-120271594D01*
X29706906Y-120398881D01*
X29706910Y-120398890D01*
X29734493Y-120446664D01*
X29772800Y-120513014D01*
X29865986Y-120606200D01*
X29980114Y-120672092D01*
X30107405Y-120706199D01*
X30107406Y-120706200D01*
X30107408Y-120706200D01*
X30239194Y-120706200D01*
X30239194Y-120706199D01*
X30366486Y-120672092D01*
X30480614Y-120606200D01*
X30573800Y-120513014D01*
X30639692Y-120398886D01*
X30673799Y-120271594D01*
X30673800Y-120271594D01*
X30673800Y-120139806D01*
X30673799Y-120139805D01*
X30673607Y-120139090D01*
X30639692Y-120012514D01*
X30573800Y-119898386D01*
X30480614Y-119805200D01*
X30366490Y-119739310D01*
X30366481Y-119739306D01*
X30239194Y-119705200D01*
X30239192Y-119705200D01*
X30107408Y-119705200D01*
X30107406Y-119705200D01*
X29980118Y-119739306D01*
X29980109Y-119739310D01*
X29865985Y-119805200D01*
X29772800Y-119898385D01*
X29706910Y-120012509D01*
X29706906Y-120012518D01*
X29672800Y-120139805D01*
X27847800Y-120139805D01*
X27847800Y-118548005D01*
X29472800Y-118548005D01*
X29472800Y-118679794D01*
X29506906Y-118807081D01*
X29506907Y-118807084D01*
X29506908Y-118807086D01*
X29572800Y-118921214D01*
X29665986Y-119014400D01*
X29780114Y-119080292D01*
X29907405Y-119114399D01*
X29907406Y-119114400D01*
X29907408Y-119114400D01*
X30039194Y-119114400D01*
X30039194Y-119114399D01*
X30166486Y-119080292D01*
X30280614Y-119014400D01*
X30373800Y-118921214D01*
X30439692Y-118807086D01*
X30473799Y-118679794D01*
X30473800Y-118679794D01*
X30473800Y-118548006D01*
X30473799Y-118548005D01*
X30452659Y-118469110D01*
X30439692Y-118420714D01*
X30373800Y-118306586D01*
X30280614Y-118213400D01*
X30268325Y-118206305D01*
X30166490Y-118147510D01*
X30166481Y-118147506D01*
X30039194Y-118113400D01*
X30039192Y-118113400D01*
X29907408Y-118113400D01*
X29907406Y-118113400D01*
X29780118Y-118147506D01*
X29780109Y-118147510D01*
X29665985Y-118213400D01*
X29572800Y-118306585D01*
X29506910Y-118420709D01*
X29506906Y-118420718D01*
X29472800Y-118548005D01*
X27847800Y-118548005D01*
X27847800Y-112735823D01*
X27869474Y-112683497D01*
X27921800Y-112661823D01*
X27946237Y-112665975D01*
X27965301Y-112672646D01*
X27995734Y-112675500D01*
X27995740Y-112675500D01*
X28804258Y-112675500D01*
X28804266Y-112675500D01*
X28834699Y-112672646D01*
X28962882Y-112627793D01*
X29065283Y-112552218D01*
X29072146Y-112547153D01*
X29072146Y-112547152D01*
X29072150Y-112547150D01*
X29152793Y-112437882D01*
X29197646Y-112309699D01*
X29200500Y-112279266D01*
X29200500Y-110920734D01*
X29197646Y-110890301D01*
X29173217Y-110820488D01*
X29152793Y-110762118D01*
X29152792Y-110762116D01*
X29072153Y-110652853D01*
X29072146Y-110652846D01*
X28962883Y-110572207D01*
X28962881Y-110572206D01*
X28834704Y-110527355D01*
X28834705Y-110527355D01*
X28834700Y-110527354D01*
X28834699Y-110527354D01*
X28804266Y-110524500D01*
X27995734Y-110524500D01*
X27975445Y-110526402D01*
X27965298Y-110527354D01*
X27965292Y-110527356D01*
X27946238Y-110534023D01*
X27889690Y-110530846D01*
X27851952Y-110488613D01*
X27847800Y-110464175D01*
X27847800Y-104758523D01*
X27869474Y-104706197D01*
X28393806Y-104181865D01*
X28970160Y-103605511D01*
X29008853Y-103538492D01*
X29008857Y-103538494D01*
X29008862Y-103538475D01*
X29009721Y-103536989D01*
X29030200Y-103460562D01*
X29030200Y-102392805D01*
X29526100Y-102392805D01*
X29526100Y-102524594D01*
X29560206Y-102651881D01*
X29560207Y-102651884D01*
X29560208Y-102651886D01*
X29626100Y-102766014D01*
X29719286Y-102859200D01*
X29833414Y-102925092D01*
X29960705Y-102959199D01*
X29960706Y-102959200D01*
X29960708Y-102959200D01*
X30092494Y-102959200D01*
X30092494Y-102959199D01*
X30219786Y-102925092D01*
X30333914Y-102859200D01*
X30427100Y-102766014D01*
X30492992Y-102651886D01*
X30527099Y-102524594D01*
X30527100Y-102524594D01*
X30527100Y-102392806D01*
X30527099Y-102392805D01*
X30492993Y-102265518D01*
X30492992Y-102265514D01*
X30427100Y-102151386D01*
X30333914Y-102058200D01*
X30254387Y-102012285D01*
X30219790Y-101992310D01*
X30219781Y-101992306D01*
X30092494Y-101958200D01*
X30092492Y-101958200D01*
X29960708Y-101958200D01*
X29960706Y-101958200D01*
X29833418Y-101992306D01*
X29833409Y-101992310D01*
X29719285Y-102058200D01*
X29626100Y-102151385D01*
X29560210Y-102265509D01*
X29560206Y-102265518D01*
X29526100Y-102392805D01*
X29030200Y-102392805D01*
X29030200Y-91361959D01*
X29051874Y-91309633D01*
X29104200Y-91287959D01*
X29156526Y-91309633D01*
X29172567Y-91333641D01*
X29199058Y-91397597D01*
X29265361Y-91496826D01*
X29314023Y-91569655D01*
X29460345Y-91715977D01*
X29632402Y-91830941D01*
X29823580Y-91910130D01*
X30026535Y-91950500D01*
X30026536Y-91950500D01*
X30233464Y-91950500D01*
X30233465Y-91950500D01*
X30436420Y-91910130D01*
X30627598Y-91830941D01*
X30799655Y-91715977D01*
X30945977Y-91569655D01*
X31060941Y-91397598D01*
X31124533Y-91244072D01*
X31164581Y-91204025D01*
X31221219Y-91204025D01*
X31261267Y-91244073D01*
X31266900Y-91272392D01*
X31266900Y-110954051D01*
X31245226Y-111006377D01*
X31192900Y-111028051D01*
X31140574Y-111006377D01*
X31124533Y-110982370D01*
X31112803Y-110954051D01*
X31109394Y-110945821D01*
X31021789Y-110814711D01*
X30910289Y-110703211D01*
X30779179Y-110615606D01*
X30779175Y-110615604D01*
X30779173Y-110615603D01*
X30779174Y-110615603D01*
X30633501Y-110555264D01*
X30633491Y-110555261D01*
X30510745Y-110530846D01*
X30478842Y-110524500D01*
X30321158Y-110524500D01*
X30289255Y-110530846D01*
X30166508Y-110555261D01*
X30166498Y-110555264D01*
X30020825Y-110615603D01*
X29889711Y-110703210D01*
X29889710Y-110703212D01*
X29778212Y-110814710D01*
X29778210Y-110814711D01*
X29690603Y-110945825D01*
X29630264Y-111091498D01*
X29630261Y-111091508D01*
X29613097Y-111177800D01*
X29599991Y-111243693D01*
X29599500Y-111246159D01*
X29599500Y-111953840D01*
X29630261Y-112108491D01*
X29630264Y-112108501D01*
X29690603Y-112254174D01*
X29690605Y-112254177D01*
X29690606Y-112254179D01*
X29707195Y-112279006D01*
X29755505Y-112351308D01*
X29778211Y-112385289D01*
X29889711Y-112496789D01*
X30020821Y-112584394D01*
X30020826Y-112584396D01*
X30020825Y-112584396D01*
X30125596Y-112627793D01*
X30166503Y-112644737D01*
X30321158Y-112675500D01*
X30321160Y-112675500D01*
X30478840Y-112675500D01*
X30478842Y-112675500D01*
X30633497Y-112644737D01*
X30779179Y-112584394D01*
X30910289Y-112496789D01*
X31021789Y-112385289D01*
X31109394Y-112254179D01*
X31124533Y-112217630D01*
X31164581Y-112177581D01*
X31221218Y-112177581D01*
X31261267Y-112217629D01*
X31266900Y-112245948D01*
X31266900Y-116882664D01*
X31287377Y-116959085D01*
X31287378Y-116959087D01*
X31287379Y-116959089D01*
X31297554Y-116976712D01*
X31297555Y-116976714D01*
X31326351Y-117026592D01*
X31326940Y-117027611D01*
X36042789Y-121743460D01*
X36111312Y-121783022D01*
X36184772Y-121802705D01*
X36217943Y-121821857D01*
X36299586Y-121903500D01*
X36383131Y-121951735D01*
X36413712Y-121969391D01*
X36418193Y-121971247D01*
X36417280Y-121973451D01*
X36455999Y-122003159D01*
X36463393Y-122059311D01*
X36444240Y-122092487D01*
X29346189Y-129190540D01*
X29290240Y-129246488D01*
X29250679Y-129315009D01*
X29250677Y-129315014D01*
X29230200Y-129391435D01*
X29230200Y-138360734D01*
X29208526Y-138413060D01*
X29130200Y-138491385D01*
X29064310Y-138605509D01*
X29064306Y-138605518D01*
X29030200Y-138732805D01*
X29030200Y-138864594D01*
X29065563Y-138996570D01*
X29063975Y-138996995D01*
X29063975Y-139047720D01*
X29023926Y-139087768D01*
X28995608Y-139093400D01*
X27622623Y-139093400D01*
X27570297Y-139071726D01*
X26722374Y-138223803D01*
X26700700Y-138171477D01*
X26700700Y-138060706D01*
X26700699Y-138060705D01*
X26666593Y-137933418D01*
X26666592Y-137933414D01*
X26600700Y-137819286D01*
X26507514Y-137726100D01*
X26424253Y-137678029D01*
X26389774Y-137633095D01*
X26397166Y-137576946D01*
X26431092Y-137518186D01*
X26465199Y-137390894D01*
X26465200Y-137390894D01*
X26465200Y-137259106D01*
X26465199Y-137259105D01*
X26437493Y-137155705D01*
X26431092Y-137131814D01*
X26365200Y-137017686D01*
X26272014Y-136924500D01*
X26254321Y-136914285D01*
X26157890Y-136858610D01*
X26157881Y-136858606D01*
X26030594Y-136824500D01*
X26030592Y-136824500D01*
X25898808Y-136824500D01*
X25898806Y-136824500D01*
X25771518Y-136858606D01*
X25771509Y-136858610D01*
X25657385Y-136924500D01*
X25564200Y-137017685D01*
X25498310Y-137131809D01*
X25498306Y-137131818D01*
X25464200Y-137259105D01*
X25464200Y-137390894D01*
X25498306Y-137518181D01*
X25498307Y-137518184D01*
X25498308Y-137518186D01*
X25564200Y-137632314D01*
X25657386Y-137725500D01*
X25708114Y-137754788D01*
X25740645Y-137773570D01*
X25775124Y-137818504D01*
X25767731Y-137874655D01*
X25733811Y-137933405D01*
X25733806Y-137933418D01*
X25699700Y-138060705D01*
X25699700Y-138192494D01*
X25733806Y-138319781D01*
X25733810Y-138319790D01*
X25779080Y-138398200D01*
X25799700Y-138433914D01*
X25892886Y-138527100D01*
X26007014Y-138592992D01*
X26134305Y-138627099D01*
X26134306Y-138627100D01*
X26245077Y-138627100D01*
X26297403Y-138648774D01*
X27227040Y-139578411D01*
X27282989Y-139634360D01*
X27351511Y-139673921D01*
X27351512Y-139673921D01*
X27351514Y-139673922D01*
X27389724Y-139684160D01*
X27427935Y-139694399D01*
X27427936Y-139694400D01*
X27427938Y-139694400D01*
X29755264Y-139694400D01*
X29755264Y-139694399D01*
X29831689Y-139673921D01*
X29900211Y-139634360D01*
X29956160Y-139578411D01*
X30215366Y-139319205D01*
X48258500Y-139319205D01*
X48258500Y-139450994D01*
X48292606Y-139578281D01*
X48292610Y-139578290D01*
X48304090Y-139598174D01*
X48358500Y-139692414D01*
X48451686Y-139785600D01*
X48565814Y-139851492D01*
X48693105Y-139885599D01*
X48693106Y-139885600D01*
X48693108Y-139885600D01*
X48824894Y-139885600D01*
X48824894Y-139885599D01*
X48952186Y-139851492D01*
X49066314Y-139785600D01*
X49159500Y-139692414D01*
X49225392Y-139578286D01*
X49259499Y-139450994D01*
X49259500Y-139450994D01*
X49259500Y-139319206D01*
X49259499Y-139319205D01*
X49229998Y-139209106D01*
X49225392Y-139191914D01*
X49159500Y-139077786D01*
X49066314Y-138984600D01*
X49037018Y-138967686D01*
X48952190Y-138918710D01*
X48952181Y-138918706D01*
X48824894Y-138884600D01*
X48824892Y-138884600D01*
X48693108Y-138884600D01*
X48693106Y-138884600D01*
X48565818Y-138918706D01*
X48565809Y-138918710D01*
X48451685Y-138984600D01*
X48358500Y-139077785D01*
X48292610Y-139191909D01*
X48292606Y-139191918D01*
X48258500Y-139319205D01*
X30215366Y-139319205D01*
X32378866Y-137155705D01*
X41873600Y-137155705D01*
X41873600Y-137287494D01*
X41907706Y-137414781D01*
X41907707Y-137414784D01*
X41907708Y-137414786D01*
X41973600Y-137528914D01*
X42066786Y-137622100D01*
X42180914Y-137687992D01*
X42308205Y-137722099D01*
X42308206Y-137722100D01*
X42308208Y-137722100D01*
X42439994Y-137722100D01*
X42439994Y-137722099D01*
X42567286Y-137687992D01*
X42681414Y-137622100D01*
X42774600Y-137528914D01*
X42840492Y-137414786D01*
X42874599Y-137287494D01*
X42874600Y-137287494D01*
X42874600Y-137155706D01*
X42874599Y-137155705D01*
X42840493Y-137028418D01*
X42840492Y-137028414D01*
X42774600Y-136914286D01*
X42681414Y-136821100D01*
X42567290Y-136755210D01*
X42567281Y-136755206D01*
X42439994Y-136721100D01*
X42439992Y-136721100D01*
X42308208Y-136721100D01*
X42308206Y-136721100D01*
X42180918Y-136755206D01*
X42180909Y-136755210D01*
X42066785Y-136821100D01*
X41973600Y-136914285D01*
X41907710Y-137028409D01*
X41907706Y-137028418D01*
X41873600Y-137155705D01*
X32378866Y-137155705D01*
X33631366Y-135903205D01*
X41877600Y-135903205D01*
X41877600Y-136034994D01*
X41911706Y-136162281D01*
X41911707Y-136162284D01*
X41911708Y-136162286D01*
X41977600Y-136276414D01*
X42070786Y-136369600D01*
X42184914Y-136435492D01*
X42312205Y-136469599D01*
X42312206Y-136469600D01*
X42312208Y-136469600D01*
X42443994Y-136469600D01*
X42443994Y-136469599D01*
X42571286Y-136435492D01*
X42685414Y-136369600D01*
X42778600Y-136276414D01*
X42844492Y-136162286D01*
X42878599Y-136034994D01*
X42878600Y-136034994D01*
X42878600Y-135924222D01*
X42900274Y-135871896D01*
X44261665Y-134510505D01*
X45890300Y-134510505D01*
X45890300Y-134642294D01*
X45924406Y-134769581D01*
X45924407Y-134769584D01*
X45924408Y-134769586D01*
X45990300Y-134883714D01*
X46083486Y-134976900D01*
X46197614Y-135042792D01*
X46324905Y-135076899D01*
X46324906Y-135076900D01*
X46324908Y-135076900D01*
X46456694Y-135076900D01*
X46456694Y-135076899D01*
X46583986Y-135042792D01*
X46698114Y-134976900D01*
X46791300Y-134883714D01*
X46857192Y-134769586D01*
X46891299Y-134642294D01*
X46891300Y-134642294D01*
X46891300Y-134510506D01*
X46891299Y-134510505D01*
X46884740Y-134486028D01*
X46857192Y-134383214D01*
X46791300Y-134269086D01*
X46698114Y-134175900D01*
X46583990Y-134110010D01*
X46583981Y-134110006D01*
X46456694Y-134075900D01*
X46456692Y-134075900D01*
X46324908Y-134075900D01*
X46324906Y-134075900D01*
X46197618Y-134110006D01*
X46197609Y-134110010D01*
X46083485Y-134175900D01*
X45990300Y-134269085D01*
X45924410Y-134383209D01*
X45924406Y-134383218D01*
X45890300Y-134510505D01*
X44261665Y-134510505D01*
X44318838Y-134453332D01*
X44696270Y-134075900D01*
X46640460Y-132131711D01*
X46680022Y-132063188D01*
X46700500Y-131986762D01*
X46700500Y-131907638D01*
X46700500Y-121641105D01*
X51992900Y-121641105D01*
X51992900Y-121772894D01*
X52027006Y-121900181D01*
X52027010Y-121900190D01*
X52082733Y-121996705D01*
X52092900Y-122014314D01*
X52186086Y-122107500D01*
X52300214Y-122173392D01*
X52427505Y-122207499D01*
X52427506Y-122207500D01*
X52427508Y-122207500D01*
X52559294Y-122207500D01*
X52559294Y-122207499D01*
X52686586Y-122173392D01*
X52800714Y-122107500D01*
X52893900Y-122014314D01*
X52959792Y-121900186D01*
X52993899Y-121772894D01*
X52993900Y-121772894D01*
X52993900Y-121641106D01*
X52993899Y-121641105D01*
X52964532Y-121531506D01*
X52959792Y-121513814D01*
X52893900Y-121399686D01*
X52800714Y-121306500D01*
X52772284Y-121290086D01*
X52721568Y-121260805D01*
X58312100Y-121260805D01*
X58312100Y-121392594D01*
X58346206Y-121519881D01*
X58346210Y-121519890D01*
X58401127Y-121615009D01*
X58412100Y-121634014D01*
X58505286Y-121727200D01*
X58619414Y-121793092D01*
X58746705Y-121827199D01*
X58746706Y-121827200D01*
X58746708Y-121827200D01*
X58878494Y-121827200D01*
X58878494Y-121827199D01*
X59005786Y-121793092D01*
X59119914Y-121727200D01*
X59213100Y-121634014D01*
X59278992Y-121519886D01*
X59313099Y-121392594D01*
X59313100Y-121392594D01*
X59313100Y-121260806D01*
X59313099Y-121260805D01*
X59295650Y-121195685D01*
X59278992Y-121133514D01*
X59213100Y-121019386D01*
X59119914Y-120926200D01*
X59005790Y-120860310D01*
X59005781Y-120860306D01*
X58878494Y-120826200D01*
X58878492Y-120826200D01*
X58746708Y-120826200D01*
X58746706Y-120826200D01*
X58619418Y-120860306D01*
X58619409Y-120860310D01*
X58505285Y-120926200D01*
X58412100Y-121019385D01*
X58346210Y-121133509D01*
X58346206Y-121133518D01*
X58312100Y-121260805D01*
X52721568Y-121260805D01*
X52686590Y-121240610D01*
X52686581Y-121240606D01*
X52559294Y-121206500D01*
X52559292Y-121206500D01*
X52427508Y-121206500D01*
X52427506Y-121206500D01*
X52300218Y-121240606D01*
X52300209Y-121240610D01*
X52186085Y-121306500D01*
X52092900Y-121399685D01*
X52027010Y-121513809D01*
X52027006Y-121513818D01*
X51992900Y-121641105D01*
X46700500Y-121641105D01*
X46700500Y-117423805D01*
X49372200Y-117423805D01*
X49372200Y-117555594D01*
X49406306Y-117682881D01*
X49406310Y-117682890D01*
X49408457Y-117686608D01*
X49472200Y-117797014D01*
X49565386Y-117890200D01*
X49679514Y-117956092D01*
X49806805Y-117990199D01*
X49806806Y-117990200D01*
X49806808Y-117990200D01*
X49938594Y-117990200D01*
X49938594Y-117990199D01*
X50065886Y-117956092D01*
X50180014Y-117890200D01*
X50273200Y-117797014D01*
X50339092Y-117682886D01*
X50373199Y-117555594D01*
X50373200Y-117555594D01*
X50373200Y-117423806D01*
X50373199Y-117423805D01*
X50339093Y-117296518D01*
X50339092Y-117296514D01*
X50273200Y-117182386D01*
X50180014Y-117089200D01*
X50144705Y-117068814D01*
X50065890Y-117023310D01*
X50065881Y-117023306D01*
X49938594Y-116989200D01*
X49938592Y-116989200D01*
X49806808Y-116989200D01*
X49806806Y-116989200D01*
X49679518Y-117023306D01*
X49679509Y-117023310D01*
X49565385Y-117089200D01*
X49472200Y-117182385D01*
X49406310Y-117296509D01*
X49406306Y-117296518D01*
X49372200Y-117423805D01*
X46700500Y-117423805D01*
X46700500Y-116853466D01*
X46722174Y-116801140D01*
X46730622Y-116792692D01*
X46800500Y-116722814D01*
X46866392Y-116608686D01*
X46900499Y-116481394D01*
X46900500Y-116481394D01*
X46900500Y-116349606D01*
X46900499Y-116349605D01*
X46876918Y-116261600D01*
X46866392Y-116222314D01*
X46800500Y-116108186D01*
X46707314Y-116015000D01*
X46656366Y-115985585D01*
X46593190Y-115949110D01*
X46593181Y-115949106D01*
X46465894Y-115915000D01*
X46465892Y-115915000D01*
X46334108Y-115915000D01*
X46334106Y-115915000D01*
X46206818Y-115949106D01*
X46206809Y-115949110D01*
X46092685Y-116015000D01*
X45999500Y-116108185D01*
X45933610Y-116222309D01*
X45933606Y-116222318D01*
X45899500Y-116349605D01*
X45899500Y-116481394D01*
X45933606Y-116608681D01*
X45933610Y-116608690D01*
X45999500Y-116722814D01*
X46077826Y-116801140D01*
X46099500Y-116853466D01*
X46099500Y-131792076D01*
X46077826Y-131844402D01*
X44206728Y-133715499D01*
X44154402Y-133737173D01*
X44102076Y-133715499D01*
X44090316Y-133700173D01*
X44081765Y-133685362D01*
X44037900Y-133609386D01*
X43944714Y-133516200D01*
X43830590Y-133450310D01*
X43830581Y-133450306D01*
X43703294Y-133416200D01*
X43703292Y-133416200D01*
X43571508Y-133416200D01*
X43571506Y-133416200D01*
X43444218Y-133450306D01*
X43444209Y-133450310D01*
X43330085Y-133516200D01*
X43236900Y-133609385D01*
X43171010Y-133723509D01*
X43171006Y-133723518D01*
X43136900Y-133850805D01*
X43136900Y-133982594D01*
X43171006Y-134109881D01*
X43171010Y-134109890D01*
X43209121Y-134175900D01*
X43236900Y-134224014D01*
X43330086Y-134317200D01*
X43395717Y-134355092D01*
X43420873Y-134369616D01*
X43455352Y-134414550D01*
X43447959Y-134470702D01*
X43436199Y-134486028D01*
X42475302Y-135446926D01*
X42422976Y-135468600D01*
X42312206Y-135468600D01*
X42184918Y-135502706D01*
X42184909Y-135502710D01*
X42070785Y-135568600D01*
X41977600Y-135661785D01*
X41911710Y-135775909D01*
X41911706Y-135775918D01*
X41877600Y-135903205D01*
X33631366Y-135903205D01*
X36177360Y-133357211D01*
X36184821Y-133344288D01*
X36216921Y-133288689D01*
X36237399Y-133212264D01*
X36237400Y-133212264D01*
X36237400Y-129409020D01*
X36259074Y-129356694D01*
X36311400Y-129335020D01*
X36363726Y-129356694D01*
X36375484Y-129372018D01*
X36399500Y-129413614D01*
X36492686Y-129506800D01*
X36606814Y-129572692D01*
X36734105Y-129606799D01*
X36734106Y-129606800D01*
X36734108Y-129606800D01*
X36865894Y-129606800D01*
X36865894Y-129606799D01*
X36993186Y-129572692D01*
X37107314Y-129506800D01*
X37200500Y-129413614D01*
X37266392Y-129299486D01*
X37300499Y-129172194D01*
X37300500Y-129172194D01*
X37300500Y-129040406D01*
X37300499Y-129040405D01*
X37298541Y-129033099D01*
X37266392Y-128913114D01*
X37200500Y-128798986D01*
X37107314Y-128705800D01*
X37094656Y-128698492D01*
X36993190Y-128639910D01*
X36993181Y-128639906D01*
X36865894Y-128605800D01*
X36865892Y-128605800D01*
X36734108Y-128605800D01*
X36734106Y-128605800D01*
X36606818Y-128639906D01*
X36606809Y-128639910D01*
X36492685Y-128705800D01*
X36399500Y-128798985D01*
X36375486Y-128840579D01*
X36330552Y-128875058D01*
X36274400Y-128867665D01*
X36239921Y-128822731D01*
X36237400Y-128803579D01*
X36237400Y-125900905D01*
X40826800Y-125900905D01*
X40826800Y-126032694D01*
X40860906Y-126159981D01*
X40860907Y-126159984D01*
X40860908Y-126159986D01*
X40926800Y-126274114D01*
X41019986Y-126367300D01*
X41134114Y-126433192D01*
X41261405Y-126467299D01*
X41261406Y-126467300D01*
X41261408Y-126467300D01*
X41393194Y-126467300D01*
X41393194Y-126467299D01*
X41520486Y-126433192D01*
X41634614Y-126367300D01*
X41727800Y-126274114D01*
X41793692Y-126159986D01*
X41827799Y-126032694D01*
X41827800Y-126032694D01*
X41827800Y-125900906D01*
X41827799Y-125900905D01*
X41793693Y-125773618D01*
X41793692Y-125773614D01*
X41727800Y-125659486D01*
X41634614Y-125566300D01*
X41598414Y-125545400D01*
X41520490Y-125500410D01*
X41520481Y-125500406D01*
X41393194Y-125466300D01*
X41393192Y-125466300D01*
X41261408Y-125466300D01*
X41261406Y-125466300D01*
X41134118Y-125500406D01*
X41134109Y-125500410D01*
X41019985Y-125566300D01*
X40926800Y-125659485D01*
X40860910Y-125773609D01*
X40860906Y-125773618D01*
X40826800Y-125900905D01*
X36237400Y-125900905D01*
X36237400Y-124878120D01*
X36259074Y-124825794D01*
X36311400Y-124804120D01*
X36363726Y-124825794D01*
X36375484Y-124841118D01*
X36399500Y-124882714D01*
X36492686Y-124975900D01*
X36606814Y-125041792D01*
X36734105Y-125075899D01*
X36734106Y-125075900D01*
X36734108Y-125075900D01*
X36865894Y-125075900D01*
X36865894Y-125075899D01*
X36993186Y-125041792D01*
X37107314Y-124975900D01*
X37200500Y-124882714D01*
X37266392Y-124768586D01*
X37300499Y-124641294D01*
X37300500Y-124641294D01*
X37300500Y-124509506D01*
X37300499Y-124509505D01*
X37266393Y-124382218D01*
X37266392Y-124382214D01*
X37200500Y-124268086D01*
X37107314Y-124174900D01*
X36993190Y-124109010D01*
X36993181Y-124109006D01*
X36865894Y-124074900D01*
X36865892Y-124074900D01*
X36734108Y-124074900D01*
X36734106Y-124074900D01*
X36606818Y-124109006D01*
X36606809Y-124109010D01*
X36492685Y-124174900D01*
X36399500Y-124268085D01*
X36375486Y-124309679D01*
X36330552Y-124344158D01*
X36274400Y-124336765D01*
X36239921Y-124291831D01*
X36237400Y-124272679D01*
X36237400Y-123948223D01*
X36259074Y-123895897D01*
X40083566Y-120071405D01*
X42235800Y-120071405D01*
X42235800Y-120203194D01*
X42269906Y-120330481D01*
X42269910Y-120330490D01*
X42306577Y-120393999D01*
X42335800Y-120444614D01*
X42428986Y-120537800D01*
X42543114Y-120603692D01*
X42670405Y-120637799D01*
X42670406Y-120637800D01*
X42670408Y-120637800D01*
X42802194Y-120637800D01*
X42802194Y-120637799D01*
X42929486Y-120603692D01*
X43043614Y-120537800D01*
X43136800Y-120444614D01*
X43202692Y-120330486D01*
X43236799Y-120203194D01*
X43236800Y-120203194D01*
X43236800Y-120071406D01*
X43236799Y-120071405D01*
X43222247Y-120017097D01*
X43202692Y-119944114D01*
X43136800Y-119829986D01*
X43043614Y-119736800D01*
X42929490Y-119670910D01*
X42929481Y-119670906D01*
X42802194Y-119636800D01*
X42802192Y-119636800D01*
X42670408Y-119636800D01*
X42670406Y-119636800D01*
X42543118Y-119670906D01*
X42543109Y-119670910D01*
X42428985Y-119736800D01*
X42335800Y-119829985D01*
X42269910Y-119944109D01*
X42269906Y-119944118D01*
X42235800Y-120071405D01*
X40083566Y-120071405D01*
X45393766Y-114761205D01*
X47046100Y-114761205D01*
X47046100Y-114892994D01*
X47080206Y-115020281D01*
X47080210Y-115020290D01*
X47109828Y-115071590D01*
X47146100Y-115134414D01*
X47239286Y-115227600D01*
X47353414Y-115293492D01*
X47480705Y-115327599D01*
X47480706Y-115327600D01*
X47480708Y-115327600D01*
X47612494Y-115327600D01*
X47612494Y-115327599D01*
X47739786Y-115293492D01*
X47853914Y-115227600D01*
X47947100Y-115134414D01*
X48012992Y-115020286D01*
X48047099Y-114892994D01*
X48047100Y-114892994D01*
X48047100Y-114761206D01*
X48047099Y-114761205D01*
X48042301Y-114743300D01*
X48012992Y-114633914D01*
X47947100Y-114519786D01*
X47853914Y-114426600D01*
X47802107Y-114396689D01*
X47739790Y-114360710D01*
X47739781Y-114360706D01*
X47612494Y-114326600D01*
X47612492Y-114326600D01*
X47480708Y-114326600D01*
X47480706Y-114326600D01*
X47353418Y-114360706D01*
X47353409Y-114360710D01*
X47239285Y-114426600D01*
X47146100Y-114519785D01*
X47080210Y-114633909D01*
X47080206Y-114633918D01*
X47046100Y-114761205D01*
X45393766Y-114761205D01*
X47403166Y-112751805D01*
X48983700Y-112751805D01*
X48983700Y-112883594D01*
X49017806Y-113010881D01*
X49017810Y-113010890D01*
X49037110Y-113044318D01*
X49083700Y-113125014D01*
X49176886Y-113218200D01*
X49291014Y-113284092D01*
X49418305Y-113318199D01*
X49418306Y-113318200D01*
X49418308Y-113318200D01*
X49550094Y-113318200D01*
X49550094Y-113318199D01*
X49677386Y-113284092D01*
X49791514Y-113218200D01*
X49884700Y-113125014D01*
X49950592Y-113010886D01*
X49984699Y-112883594D01*
X49984700Y-112883594D01*
X49984700Y-112751806D01*
X49984699Y-112751805D01*
X57912900Y-112751805D01*
X57912900Y-112883594D01*
X57947006Y-113010881D01*
X57947010Y-113010890D01*
X57966310Y-113044318D01*
X58012900Y-113125014D01*
X58106086Y-113218200D01*
X58220214Y-113284092D01*
X58347505Y-113318199D01*
X58347506Y-113318200D01*
X58347508Y-113318200D01*
X58479294Y-113318200D01*
X58479294Y-113318199D01*
X58606586Y-113284092D01*
X58720714Y-113218200D01*
X58813900Y-113125014D01*
X58879792Y-113010886D01*
X58913899Y-112883594D01*
X58913900Y-112883594D01*
X58913900Y-112751806D01*
X58913899Y-112751805D01*
X58904435Y-112716486D01*
X58879792Y-112624514D01*
X58813900Y-112510386D01*
X58720714Y-112417200D01*
X58606590Y-112351310D01*
X58606581Y-112351306D01*
X58479294Y-112317200D01*
X58479292Y-112317200D01*
X58347508Y-112317200D01*
X58347506Y-112317200D01*
X58220218Y-112351306D01*
X58220209Y-112351310D01*
X58106085Y-112417200D01*
X58012900Y-112510385D01*
X57947010Y-112624509D01*
X57947006Y-112624518D01*
X57912900Y-112751805D01*
X49984699Y-112751805D01*
X49975235Y-112716486D01*
X49950592Y-112624514D01*
X49884700Y-112510386D01*
X49791514Y-112417200D01*
X49677390Y-112351310D01*
X49677381Y-112351306D01*
X49550094Y-112317200D01*
X49550092Y-112317200D01*
X49418308Y-112317200D01*
X49418306Y-112317200D01*
X49291018Y-112351306D01*
X49291009Y-112351310D01*
X49176885Y-112417200D01*
X49083700Y-112510385D01*
X49017810Y-112624509D01*
X49017806Y-112624518D01*
X48983700Y-112751805D01*
X47403166Y-112751805D01*
X47460339Y-112694632D01*
X48306457Y-111848514D01*
X49257360Y-110897611D01*
X49262325Y-110889011D01*
X49296921Y-110829089D01*
X49317399Y-110752664D01*
X49317400Y-110752664D01*
X49317400Y-78382966D01*
X49339074Y-78330640D01*
X49417400Y-78252314D01*
X49483292Y-78138186D01*
X49517399Y-78010894D01*
X49517400Y-78010894D01*
X49517400Y-77879106D01*
X49517399Y-77879105D01*
X49483293Y-77751818D01*
X49483292Y-77751814D01*
X49417400Y-77637686D01*
X49324214Y-77544500D01*
X49210090Y-77478610D01*
X49210081Y-77478606D01*
X49082794Y-77444500D01*
X49082792Y-77444500D01*
X48951008Y-77444500D01*
X48951006Y-77444500D01*
X48823718Y-77478606D01*
X48823709Y-77478610D01*
X48709585Y-77544500D01*
X48616400Y-77637685D01*
X48550510Y-77751809D01*
X48550506Y-77751818D01*
X48516400Y-77879105D01*
X48516400Y-78010894D01*
X48550506Y-78138181D01*
X48550510Y-78138190D01*
X48616400Y-78252314D01*
X48694726Y-78330640D01*
X48716400Y-78382966D01*
X48716400Y-90042116D01*
X48694726Y-90094442D01*
X48642400Y-90116116D01*
X48590074Y-90094442D01*
X48579654Y-90084022D01*
X48407598Y-89969059D01*
X48216420Y-89889870D01*
X48216413Y-89889868D01*
X48047098Y-89856190D01*
X48013465Y-89849500D01*
X47806535Y-89849500D01*
X47772902Y-89856190D01*
X47603586Y-89889868D01*
X47603579Y-89889870D01*
X47412401Y-89969059D01*
X47240345Y-90084022D01*
X47240344Y-90084024D01*
X47094024Y-90230344D01*
X47094022Y-90230345D01*
X46979059Y-90402401D01*
X46899870Y-90593579D01*
X46899868Y-90593586D01*
X46859500Y-90796535D01*
X46859500Y-91003464D01*
X46899868Y-91206413D01*
X46899870Y-91206420D01*
X46979059Y-91397598D01*
X47045360Y-91496826D01*
X47094023Y-91569655D01*
X47240345Y-91715977D01*
X47412402Y-91830941D01*
X47603580Y-91910130D01*
X47806535Y-91950500D01*
X47806536Y-91950500D01*
X48013464Y-91950500D01*
X48013465Y-91950500D01*
X48216420Y-91910130D01*
X48407598Y-91830941D01*
X48579655Y-91715977D01*
X48590074Y-91705558D01*
X48642400Y-91683884D01*
X48694726Y-91705558D01*
X48716400Y-91757884D01*
X48716400Y-110557976D01*
X48694726Y-110610302D01*
X38588826Y-120716202D01*
X38536500Y-120737876D01*
X38484174Y-120716202D01*
X38462500Y-120663876D01*
X38462500Y-116494305D01*
X39226500Y-116494305D01*
X39226500Y-116626094D01*
X39260606Y-116753381D01*
X39260610Y-116753390D01*
X39303335Y-116827392D01*
X39326500Y-116867514D01*
X39419686Y-116960700D01*
X39533814Y-117026592D01*
X39661105Y-117060699D01*
X39661106Y-117060700D01*
X39661108Y-117060700D01*
X39792894Y-117060700D01*
X39792894Y-117060699D01*
X39920186Y-117026592D01*
X40034314Y-116960700D01*
X40127500Y-116867514D01*
X40193392Y-116753386D01*
X40227500Y-116626092D01*
X40227500Y-116494308D01*
X40227500Y-116494306D01*
X40227499Y-116494305D01*
X40193393Y-116367018D01*
X40193392Y-116367014D01*
X40127500Y-116252886D01*
X40034314Y-116159700D01*
X39920190Y-116093810D01*
X39920181Y-116093806D01*
X39792894Y-116059700D01*
X39792892Y-116059700D01*
X39661108Y-116059700D01*
X39661106Y-116059700D01*
X39533818Y-116093806D01*
X39533809Y-116093810D01*
X39419685Y-116159700D01*
X39326500Y-116252885D01*
X39260610Y-116367009D01*
X39260606Y-116367018D01*
X39226500Y-116494305D01*
X38462500Y-116494305D01*
X38462500Y-113864405D01*
X43102200Y-113864405D01*
X43102200Y-113996194D01*
X43136306Y-114123481D01*
X43136310Y-114123490D01*
X43197003Y-114228613D01*
X43202200Y-114237614D01*
X43295386Y-114330800D01*
X43409514Y-114396692D01*
X43536805Y-114430799D01*
X43536806Y-114430800D01*
X43536808Y-114430800D01*
X43668594Y-114430800D01*
X43668594Y-114430799D01*
X43795886Y-114396692D01*
X43910014Y-114330800D01*
X44003200Y-114237614D01*
X44069092Y-114123486D01*
X44103199Y-113996194D01*
X44103200Y-113996194D01*
X44103200Y-113864406D01*
X44103199Y-113864405D01*
X44100787Y-113855405D01*
X44069092Y-113737114D01*
X44003200Y-113622986D01*
X43910014Y-113529800D01*
X43822686Y-113479381D01*
X43795890Y-113463910D01*
X43795881Y-113463906D01*
X43668594Y-113429800D01*
X43668592Y-113429800D01*
X43536808Y-113429800D01*
X43536806Y-113429800D01*
X43409518Y-113463906D01*
X43409509Y-113463910D01*
X43295385Y-113529800D01*
X43202200Y-113622985D01*
X43136310Y-113737109D01*
X43136306Y-113737118D01*
X43102200Y-113864405D01*
X38462500Y-113864405D01*
X38462500Y-113220305D01*
X38742300Y-113220305D01*
X38742300Y-113352094D01*
X38776406Y-113479381D01*
X38776410Y-113479390D01*
X38814183Y-113544814D01*
X38842300Y-113593514D01*
X38935486Y-113686700D01*
X39049614Y-113752592D01*
X39176905Y-113786699D01*
X39176906Y-113786700D01*
X39176908Y-113786700D01*
X39308694Y-113786700D01*
X39308694Y-113786699D01*
X39435986Y-113752592D01*
X39550114Y-113686700D01*
X39643300Y-113593514D01*
X39709192Y-113479386D01*
X39743299Y-113352094D01*
X39743300Y-113352094D01*
X39743300Y-113220306D01*
X39743299Y-113220305D01*
X39742408Y-113216981D01*
X39709192Y-113093014D01*
X39643300Y-112978886D01*
X39550114Y-112885700D01*
X39546463Y-112883592D01*
X39435990Y-112819810D01*
X39435981Y-112819806D01*
X39308694Y-112785700D01*
X39308692Y-112785700D01*
X39176908Y-112785700D01*
X39176906Y-112785700D01*
X39049618Y-112819806D01*
X39049609Y-112819810D01*
X38935485Y-112885700D01*
X38842300Y-112978885D01*
X38776410Y-113093009D01*
X38776406Y-113093018D01*
X38742300Y-113220305D01*
X38462500Y-113220305D01*
X38462500Y-110711405D01*
X40726300Y-110711405D01*
X40726300Y-110843194D01*
X40760406Y-110970481D01*
X40760407Y-110970484D01*
X40760408Y-110970486D01*
X40826300Y-111084614D01*
X40919486Y-111177800D01*
X41033614Y-111243692D01*
X41160905Y-111277799D01*
X41160906Y-111277800D01*
X41160908Y-111277800D01*
X41292694Y-111277800D01*
X41292694Y-111277799D01*
X41419986Y-111243692D01*
X41534114Y-111177800D01*
X41627300Y-111084614D01*
X41693192Y-110970486D01*
X41727299Y-110843194D01*
X41727300Y-110843194D01*
X41727300Y-110711406D01*
X41727299Y-110711405D01*
X41725103Y-110703211D01*
X41693192Y-110584114D01*
X41627300Y-110469986D01*
X41534114Y-110376800D01*
X41478571Y-110344732D01*
X41419990Y-110310910D01*
X41419981Y-110310906D01*
X41292694Y-110276800D01*
X41292692Y-110276800D01*
X41160908Y-110276800D01*
X41160906Y-110276800D01*
X41033618Y-110310906D01*
X41033609Y-110310910D01*
X40919485Y-110376800D01*
X40826300Y-110469985D01*
X40760410Y-110584109D01*
X40760406Y-110584118D01*
X40726300Y-110711405D01*
X38462500Y-110711405D01*
X38462500Y-109181305D01*
X38983700Y-109181305D01*
X38983700Y-109313094D01*
X39017806Y-109440381D01*
X39017810Y-109440390D01*
X39066934Y-109525474D01*
X39083700Y-109554514D01*
X39176886Y-109647700D01*
X39291014Y-109713592D01*
X39418305Y-109747699D01*
X39418306Y-109747700D01*
X39418308Y-109747700D01*
X39550094Y-109747700D01*
X39550094Y-109747699D01*
X39677386Y-109713592D01*
X39791514Y-109647700D01*
X39884700Y-109554514D01*
X39950592Y-109440386D01*
X39984699Y-109313094D01*
X39984700Y-109313094D01*
X39984700Y-109181306D01*
X39984699Y-109181305D01*
X39973260Y-109138611D01*
X39969427Y-109124305D01*
X41807300Y-109124305D01*
X41807300Y-109256094D01*
X41841406Y-109383381D01*
X41841410Y-109383390D01*
X41892804Y-109472406D01*
X41907300Y-109497514D01*
X42000486Y-109590700D01*
X42114614Y-109656592D01*
X42241905Y-109690699D01*
X42241906Y-109690700D01*
X42241908Y-109690700D01*
X42373694Y-109690700D01*
X42373694Y-109690699D01*
X42500986Y-109656592D01*
X42615114Y-109590700D01*
X42708300Y-109497514D01*
X42774192Y-109383386D01*
X42808299Y-109256094D01*
X42808300Y-109256094D01*
X42808300Y-109124306D01*
X42808299Y-109124305D01*
X42796236Y-109079286D01*
X42774192Y-108997014D01*
X42708300Y-108882886D01*
X42615114Y-108789700D01*
X42595182Y-108778192D01*
X42500990Y-108723810D01*
X42500981Y-108723806D01*
X42373694Y-108689700D01*
X42373692Y-108689700D01*
X42241908Y-108689700D01*
X42241906Y-108689700D01*
X42114618Y-108723806D01*
X42114609Y-108723810D01*
X42000485Y-108789700D01*
X41907300Y-108882885D01*
X41841410Y-108997009D01*
X41841406Y-108997018D01*
X41807300Y-109124305D01*
X39969427Y-109124305D01*
X39950593Y-109054018D01*
X39950592Y-109054014D01*
X39884700Y-108939886D01*
X39791514Y-108846700D01*
X39731930Y-108812299D01*
X39677390Y-108780810D01*
X39677381Y-108780806D01*
X39550094Y-108746700D01*
X39550092Y-108746700D01*
X39418308Y-108746700D01*
X39418306Y-108746700D01*
X39291018Y-108780806D01*
X39291009Y-108780810D01*
X39176885Y-108846700D01*
X39083700Y-108939885D01*
X39017810Y-109054009D01*
X39017806Y-109054018D01*
X38983700Y-109181305D01*
X38462500Y-109181305D01*
X38462500Y-95494323D01*
X38484174Y-95441997D01*
X39040131Y-94886040D01*
X41718760Y-92207411D01*
X41739008Y-92172340D01*
X41758321Y-92138889D01*
X41778799Y-92062464D01*
X41778800Y-92062464D01*
X41778800Y-91461563D01*
X41800474Y-91409237D01*
X41852800Y-91387563D01*
X41905126Y-91409237D01*
X41914327Y-91420449D01*
X41941799Y-91461563D01*
X41965360Y-91496826D01*
X42014023Y-91569655D01*
X42160345Y-91715977D01*
X42332402Y-91830941D01*
X42523580Y-91910130D01*
X42726535Y-91950500D01*
X42726536Y-91950500D01*
X42933463Y-91950500D01*
X42933465Y-91950500D01*
X43032577Y-91930785D01*
X43088124Y-91941834D01*
X43119590Y-91988926D01*
X43108541Y-92044475D01*
X43099338Y-92055689D01*
X40268989Y-94886040D01*
X40213040Y-94941988D01*
X40173479Y-95010509D01*
X40173477Y-95010514D01*
X40153000Y-95086935D01*
X40153000Y-103143234D01*
X40131326Y-103195560D01*
X40079000Y-103217234D01*
X40026674Y-103195560D01*
X40002614Y-103171500D01*
X39888490Y-103105610D01*
X39888481Y-103105606D01*
X39761194Y-103071500D01*
X39761192Y-103071500D01*
X39629408Y-103071500D01*
X39629406Y-103071500D01*
X39502118Y-103105606D01*
X39502109Y-103105610D01*
X39387985Y-103171500D01*
X39294800Y-103264685D01*
X39228910Y-103378809D01*
X39228906Y-103378818D01*
X39194800Y-103506105D01*
X39194800Y-103637894D01*
X39228906Y-103765181D01*
X39228907Y-103765184D01*
X39228908Y-103765186D01*
X39294800Y-103879314D01*
X39387986Y-103972500D01*
X39502114Y-104038392D01*
X39629405Y-104072499D01*
X39629406Y-104072500D01*
X39629408Y-104072500D01*
X39761194Y-104072500D01*
X39761194Y-104072499D01*
X39888486Y-104038392D01*
X40002614Y-103972500D01*
X40026674Y-103948440D01*
X40079000Y-103926766D01*
X40131326Y-103948440D01*
X40153000Y-104000766D01*
X40153000Y-107873834D01*
X40131326Y-107926160D01*
X40053000Y-108004485D01*
X39987110Y-108118609D01*
X39987106Y-108118618D01*
X39953000Y-108245905D01*
X39953000Y-108377694D01*
X39987106Y-108504981D01*
X39987110Y-108504990D01*
X39996007Y-108520400D01*
X40053000Y-108619114D01*
X40146186Y-108712300D01*
X40260314Y-108778192D01*
X40387605Y-108812299D01*
X40387606Y-108812300D01*
X40387608Y-108812300D01*
X40519394Y-108812300D01*
X40519394Y-108812299D01*
X40646686Y-108778192D01*
X40760814Y-108712300D01*
X40854000Y-108619114D01*
X40919892Y-108504986D01*
X40953999Y-108377694D01*
X40954000Y-108377694D01*
X40954000Y-108245906D01*
X40953999Y-108245905D01*
X40945206Y-108213090D01*
X40919892Y-108118614D01*
X40854000Y-108004486D01*
X40775674Y-107926160D01*
X40754000Y-107873834D01*
X40754000Y-105173605D01*
X44330500Y-105173605D01*
X44330500Y-105305394D01*
X44364606Y-105432681D01*
X44364610Y-105432690D01*
X44393315Y-105482408D01*
X44430500Y-105546814D01*
X44523686Y-105640000D01*
X44637814Y-105705892D01*
X44765105Y-105739999D01*
X44765106Y-105740000D01*
X44765108Y-105740000D01*
X44896894Y-105740000D01*
X44896894Y-105739999D01*
X45024186Y-105705892D01*
X45138314Y-105640000D01*
X45231500Y-105546814D01*
X45297392Y-105432686D01*
X45331499Y-105305394D01*
X45331500Y-105305394D01*
X45331500Y-105173606D01*
X45331499Y-105173605D01*
X45297393Y-105046318D01*
X45297392Y-105046314D01*
X45231500Y-104932186D01*
X45138314Y-104839000D01*
X45102478Y-104818310D01*
X45024190Y-104773110D01*
X45024181Y-104773106D01*
X44896894Y-104739000D01*
X44896892Y-104739000D01*
X44765108Y-104739000D01*
X44765106Y-104739000D01*
X44637818Y-104773106D01*
X44637809Y-104773110D01*
X44523685Y-104839000D01*
X44430500Y-104932185D01*
X44364610Y-105046309D01*
X44364606Y-105046318D01*
X44330500Y-105173605D01*
X40754000Y-105173605D01*
X40754000Y-95281623D01*
X40775674Y-95229297D01*
X42524874Y-93480097D01*
X44340560Y-91664411D01*
X44380121Y-91595889D01*
X44392644Y-91549150D01*
X44427121Y-91504219D01*
X44483274Y-91496826D01*
X44525650Y-91527192D01*
X44554023Y-91569655D01*
X44700345Y-91715977D01*
X44872402Y-91830941D01*
X45063580Y-91910130D01*
X45266535Y-91950500D01*
X45266536Y-91950500D01*
X45473464Y-91950500D01*
X45473465Y-91950500D01*
X45676420Y-91910130D01*
X45867598Y-91830941D01*
X46039655Y-91715977D01*
X46185977Y-91569655D01*
X46300941Y-91397598D01*
X46380130Y-91206420D01*
X46420500Y-91003465D01*
X46420500Y-90796535D01*
X46380130Y-90593580D01*
X46300941Y-90402402D01*
X46185977Y-90230345D01*
X46039655Y-90084023D01*
X46026025Y-90074916D01*
X45867598Y-89969059D01*
X45676420Y-89889870D01*
X45676413Y-89889868D01*
X45507098Y-89856190D01*
X45473465Y-89849500D01*
X45266535Y-89849500D01*
X45232902Y-89856190D01*
X45063586Y-89889868D01*
X45063579Y-89889870D01*
X44872401Y-89969059D01*
X44700345Y-90084022D01*
X44700344Y-90084024D01*
X44554024Y-90230344D01*
X44554020Y-90230347D01*
X44536128Y-90257126D01*
X44489036Y-90288591D01*
X44433487Y-90277541D01*
X44402022Y-90230449D01*
X44400600Y-90216013D01*
X44400600Y-77194623D01*
X44422274Y-77142297D01*
X44765531Y-76799040D01*
X46338160Y-75226411D01*
X46357400Y-75193086D01*
X46377721Y-75157889D01*
X46398199Y-75081464D01*
X46398200Y-75081464D01*
X46398200Y-54292066D01*
X46419874Y-54239740D01*
X46498200Y-54161414D01*
X46564092Y-54047286D01*
X46598199Y-53919994D01*
X46598200Y-53919994D01*
X46598200Y-53788206D01*
X46598199Y-53788205D01*
X46577522Y-53711038D01*
X46564092Y-53660914D01*
X46498200Y-53546786D01*
X46405014Y-53453600D01*
X46290890Y-53387710D01*
X46290881Y-53387706D01*
X46163594Y-53353600D01*
X46163592Y-53353600D01*
X46031808Y-53353600D01*
X46031806Y-53353600D01*
X45904518Y-53387706D01*
X45904509Y-53387710D01*
X45790385Y-53453600D01*
X45697200Y-53546785D01*
X45631310Y-53660909D01*
X45631306Y-53660918D01*
X45597200Y-53788205D01*
X45597200Y-53919994D01*
X45631306Y-54047281D01*
X45631310Y-54047290D01*
X45697200Y-54161414D01*
X45775526Y-54239740D01*
X45797200Y-54292066D01*
X45797200Y-74886777D01*
X45775526Y-74939103D01*
X43859640Y-76854988D01*
X43820079Y-76923509D01*
X43820077Y-76923514D01*
X43799600Y-76999935D01*
X43799600Y-90216312D01*
X43777926Y-90268638D01*
X43725600Y-90290312D01*
X43673274Y-90268638D01*
X43664072Y-90257425D01*
X43645979Y-90230348D01*
X43645976Y-90230344D01*
X43499654Y-90084022D01*
X43326788Y-89968517D01*
X43295322Y-89921425D01*
X43293900Y-89906988D01*
X43293900Y-72502920D01*
X43315574Y-72450594D01*
X43367900Y-72428920D01*
X43387060Y-72431444D01*
X43389507Y-72432100D01*
X43389508Y-72432100D01*
X43521294Y-72432100D01*
X43521294Y-72432099D01*
X43648586Y-72397992D01*
X43762714Y-72332100D01*
X43851602Y-72243211D01*
X43903927Y-72221538D01*
X43956253Y-72243212D01*
X43977927Y-72295538D01*
X43972297Y-72323848D01*
X43971609Y-72325508D01*
X43937500Y-72452805D01*
X43937500Y-72584594D01*
X43971606Y-72711881D01*
X43971607Y-72711884D01*
X43971608Y-72711886D01*
X44037500Y-72826014D01*
X44130686Y-72919200D01*
X44244814Y-72985092D01*
X44372105Y-73019199D01*
X44372106Y-73019200D01*
X44372108Y-73019200D01*
X44503894Y-73019200D01*
X44503894Y-73019199D01*
X44631186Y-72985092D01*
X44745314Y-72919200D01*
X44838500Y-72826014D01*
X44904392Y-72711886D01*
X44938499Y-72584594D01*
X44938500Y-72584594D01*
X44938500Y-72452806D01*
X44938499Y-72452805D01*
X44932775Y-72431444D01*
X44904392Y-72325514D01*
X44838500Y-72211386D01*
X44745314Y-72118200D01*
X44631190Y-72052310D01*
X44631181Y-72052306D01*
X44503894Y-72018200D01*
X44503892Y-72018200D01*
X44372108Y-72018200D01*
X44372106Y-72018200D01*
X44244818Y-72052306D01*
X44244809Y-72052310D01*
X44130685Y-72118200D01*
X44041798Y-72207087D01*
X43989472Y-72228761D01*
X43937146Y-72207087D01*
X43915472Y-72154761D01*
X43921107Y-72126437D01*
X43921787Y-72124794D01*
X43921792Y-72124786D01*
X43955899Y-71997494D01*
X43955900Y-71997494D01*
X43955900Y-71865706D01*
X43955899Y-71865705D01*
X43935214Y-71788508D01*
X43921792Y-71738414D01*
X43855900Y-71624286D01*
X43762714Y-71531100D01*
X43706599Y-71498702D01*
X43648590Y-71465210D01*
X43648581Y-71465206D01*
X43521294Y-71431100D01*
X43521292Y-71431100D01*
X43389508Y-71431100D01*
X43304417Y-71453900D01*
X43297352Y-71455793D01*
X43241200Y-71448400D01*
X43206721Y-71403466D01*
X43204200Y-71384314D01*
X43204200Y-61637922D01*
X43225873Y-61585597D01*
X43284596Y-61526873D01*
X43336922Y-61505200D01*
X43447694Y-61505200D01*
X43447694Y-61505199D01*
X43574986Y-61471092D01*
X43689114Y-61405200D01*
X43782300Y-61312014D01*
X43848192Y-61197886D01*
X43882299Y-61070594D01*
X43882300Y-61070594D01*
X43882300Y-60938806D01*
X43882299Y-60938805D01*
X43848193Y-60811518D01*
X43848192Y-60811514D01*
X43782300Y-60697386D01*
X43689114Y-60604200D01*
X43602848Y-60554394D01*
X43574990Y-60538310D01*
X43574981Y-60538306D01*
X43447694Y-60504200D01*
X43447692Y-60504200D01*
X43315908Y-60504200D01*
X43315906Y-60504200D01*
X43188618Y-60538306D01*
X43188609Y-60538310D01*
X43074485Y-60604200D01*
X42981300Y-60697385D01*
X42915410Y-60811509D01*
X42915406Y-60811518D01*
X42881300Y-60938805D01*
X42881300Y-61049576D01*
X42859626Y-61101902D01*
X42719189Y-61242340D01*
X42663240Y-61298288D01*
X42623679Y-61366809D01*
X42623677Y-61366814D01*
X42603200Y-61443235D01*
X42603200Y-72199564D01*
X42623677Y-72275985D01*
X42623679Y-72275990D01*
X42649546Y-72320792D01*
X42663240Y-72344511D01*
X42671226Y-72352497D01*
X42692900Y-72404823D01*
X42692900Y-80738929D01*
X42671226Y-80791255D01*
X42618900Y-80812929D01*
X42594613Y-80808099D01*
X42594570Y-80808263D01*
X42592070Y-80807593D01*
X42590586Y-80807298D01*
X42589884Y-80807007D01*
X42462594Y-80772900D01*
X42462592Y-80772900D01*
X42330808Y-80772900D01*
X42330806Y-80772900D01*
X42203518Y-80807006D01*
X42203509Y-80807010D01*
X42089385Y-80872900D01*
X41996200Y-80966085D01*
X41930310Y-81080209D01*
X41930306Y-81080218D01*
X41924278Y-81102717D01*
X41889799Y-81147650D01*
X41833647Y-81155042D01*
X41788714Y-81120563D01*
X41778800Y-81083564D01*
X41778800Y-80350466D01*
X41800474Y-80298140D01*
X41878800Y-80219814D01*
X41944692Y-80105686D01*
X41978799Y-79978394D01*
X41978800Y-79978394D01*
X41978800Y-79846606D01*
X41978799Y-79846605D01*
X41944693Y-79719318D01*
X41944692Y-79719314D01*
X41878800Y-79605186D01*
X41785614Y-79512000D01*
X41671490Y-79446110D01*
X41671481Y-79446106D01*
X41544194Y-79412000D01*
X41544192Y-79412000D01*
X41412408Y-79412000D01*
X41412406Y-79412000D01*
X41285118Y-79446106D01*
X41285109Y-79446110D01*
X41170985Y-79512000D01*
X41077800Y-79605185D01*
X41011910Y-79719309D01*
X41011906Y-79719318D01*
X40977800Y-79846605D01*
X40977800Y-79978394D01*
X41011906Y-80105681D01*
X41011910Y-80105690D01*
X41077800Y-80219814D01*
X41156126Y-80298140D01*
X41177800Y-80350466D01*
X41177800Y-90123516D01*
X41156126Y-90175842D01*
X41103800Y-90197516D01*
X41051474Y-90175842D01*
X40959654Y-90084022D01*
X40787598Y-89969059D01*
X40596420Y-89889870D01*
X40596413Y-89889868D01*
X40427098Y-89856190D01*
X40393465Y-89849500D01*
X40186535Y-89849500D01*
X40152902Y-89856190D01*
X39983586Y-89889868D01*
X39983579Y-89889870D01*
X39792401Y-89969059D01*
X39620345Y-90084022D01*
X39620344Y-90084024D01*
X39474024Y-90230344D01*
X39474022Y-90230345D01*
X39359059Y-90402401D01*
X39315067Y-90508607D01*
X39275018Y-90548655D01*
X39218381Y-90548655D01*
X39178333Y-90508606D01*
X39172700Y-90480288D01*
X39172700Y-78085805D01*
X39544000Y-78085805D01*
X39544000Y-78217594D01*
X39578106Y-78344881D01*
X39578110Y-78344890D01*
X39644000Y-78459014D01*
X39737186Y-78552200D01*
X39851314Y-78618092D01*
X39978605Y-78652199D01*
X39978606Y-78652200D01*
X39978608Y-78652200D01*
X40110394Y-78652200D01*
X40110394Y-78652199D01*
X40237686Y-78618092D01*
X40351814Y-78552200D01*
X40445000Y-78459014D01*
X40510892Y-78344886D01*
X40544999Y-78217594D01*
X40545000Y-78217594D01*
X40545000Y-78085806D01*
X40544999Y-78085805D01*
X40524926Y-78010892D01*
X40510892Y-77958514D01*
X40445000Y-77844386D01*
X40351814Y-77751200D01*
X40237690Y-77685310D01*
X40237681Y-77685306D01*
X40110394Y-77651200D01*
X40110392Y-77651200D01*
X39978608Y-77651200D01*
X39978606Y-77651200D01*
X39851318Y-77685306D01*
X39851309Y-77685310D01*
X39737185Y-77751200D01*
X39644000Y-77844385D01*
X39578110Y-77958509D01*
X39578106Y-77958518D01*
X39544000Y-78085805D01*
X39172700Y-78085805D01*
X39172700Y-74153805D01*
X40854300Y-74153805D01*
X40854300Y-74285594D01*
X40888406Y-74412881D01*
X40888407Y-74412884D01*
X40888408Y-74412886D01*
X40954300Y-74527014D01*
X41047486Y-74620200D01*
X41161614Y-74686092D01*
X41288905Y-74720199D01*
X41288906Y-74720200D01*
X41288908Y-74720200D01*
X41420694Y-74720200D01*
X41420694Y-74720199D01*
X41547986Y-74686092D01*
X41662114Y-74620200D01*
X41755300Y-74527014D01*
X41821192Y-74412886D01*
X41855299Y-74285594D01*
X41855300Y-74285594D01*
X41855300Y-74153806D01*
X41855299Y-74153805D01*
X41821193Y-74026518D01*
X41821192Y-74026514D01*
X41755300Y-73912386D01*
X41662114Y-73819200D01*
X41547990Y-73753310D01*
X41547981Y-73753306D01*
X41420694Y-73719200D01*
X41420692Y-73719200D01*
X41288908Y-73719200D01*
X41288906Y-73719200D01*
X41161618Y-73753306D01*
X41161609Y-73753310D01*
X41047485Y-73819200D01*
X40954300Y-73912385D01*
X40888410Y-74026509D01*
X40888406Y-74026518D01*
X40854300Y-74153805D01*
X39172700Y-74153805D01*
X39172700Y-61085322D01*
X39194373Y-61032997D01*
X40077396Y-60149973D01*
X40129722Y-60128300D01*
X40240494Y-60128300D01*
X40240494Y-60128299D01*
X40367786Y-60094192D01*
X40481914Y-60028300D01*
X40575100Y-59935114D01*
X40640992Y-59820986D01*
X40675099Y-59693694D01*
X40675100Y-59693694D01*
X40675100Y-59561906D01*
X40675099Y-59561905D01*
X40663634Y-59519118D01*
X40640992Y-59434614D01*
X40575100Y-59320486D01*
X40481914Y-59227300D01*
X40455067Y-59211800D01*
X40367790Y-59161410D01*
X40367781Y-59161406D01*
X40240494Y-59127300D01*
X40240492Y-59127300D01*
X40108708Y-59127300D01*
X40108706Y-59127300D01*
X39981418Y-59161406D01*
X39981409Y-59161410D01*
X39867285Y-59227300D01*
X39774100Y-59320485D01*
X39708210Y-59434609D01*
X39708206Y-59434618D01*
X39674100Y-59561905D01*
X39674100Y-59672676D01*
X39652426Y-59725002D01*
X38687689Y-60689740D01*
X38631740Y-60745688D01*
X38592179Y-60814209D01*
X38592177Y-60814214D01*
X38571700Y-60890635D01*
X38571700Y-90057416D01*
X38550026Y-90109742D01*
X38497700Y-90131416D01*
X38445374Y-90109742D01*
X38419654Y-90084022D01*
X38247598Y-89969059D01*
X38056420Y-89889870D01*
X38056413Y-89889868D01*
X37887098Y-89856190D01*
X37853465Y-89849500D01*
X37646535Y-89849500D01*
X37612902Y-89856190D01*
X37443586Y-89889868D01*
X37443579Y-89889870D01*
X37252401Y-89969059D01*
X37080345Y-90084022D01*
X37080344Y-90084024D01*
X36934024Y-90230344D01*
X36934022Y-90230345D01*
X36819059Y-90402401D01*
X36739870Y-90593579D01*
X36739868Y-90593586D01*
X36699500Y-90796535D01*
X36699500Y-91003464D01*
X36739868Y-91206413D01*
X36739870Y-91206420D01*
X36819059Y-91397598D01*
X36885360Y-91496826D01*
X36934023Y-91569655D01*
X37080345Y-91715977D01*
X37252402Y-91830941D01*
X37443580Y-91910130D01*
X37646535Y-91950500D01*
X37646536Y-91950500D01*
X37853464Y-91950500D01*
X37853465Y-91950500D01*
X38056420Y-91910130D01*
X38247598Y-91830941D01*
X38419655Y-91715977D01*
X38445374Y-91690258D01*
X38497700Y-91668584D01*
X38550026Y-91690258D01*
X38571700Y-91742584D01*
X38571700Y-92257677D01*
X38550026Y-92310003D01*
X35751640Y-95108388D01*
X35712079Y-95176909D01*
X35712077Y-95176914D01*
X35691600Y-95253335D01*
X35691600Y-106704476D01*
X35669926Y-106756802D01*
X34497202Y-107929526D01*
X34444876Y-107951200D01*
X34334106Y-107951200D01*
X34206818Y-107985306D01*
X34206809Y-107985310D01*
X34092685Y-108051200D01*
X33999500Y-108144385D01*
X33933610Y-108258509D01*
X33933606Y-108258518D01*
X33899500Y-108385805D01*
X33899500Y-108517594D01*
X33933606Y-108644881D01*
X33933610Y-108644890D01*
X33979173Y-108723806D01*
X33999500Y-108759014D01*
X34092686Y-108852200D01*
X34206814Y-108918092D01*
X34334105Y-108952199D01*
X34334106Y-108952200D01*
X34334108Y-108952200D01*
X34465894Y-108952200D01*
X34465894Y-108952199D01*
X34593186Y-108918092D01*
X34707314Y-108852200D01*
X34800500Y-108759014D01*
X34866392Y-108644886D01*
X34900499Y-108517594D01*
X34900500Y-108517594D01*
X34900500Y-108406822D01*
X34922174Y-108354496D01*
X35564085Y-107712585D01*
X36232560Y-107044111D01*
X36261079Y-106994714D01*
X36272121Y-106975589D01*
X36292599Y-106899164D01*
X36292600Y-106899164D01*
X36292600Y-95448023D01*
X36314274Y-95395697D01*
X36823931Y-94886040D01*
X39112660Y-92597311D01*
X39152221Y-92528789D01*
X39172699Y-92452364D01*
X39172700Y-92452364D01*
X39172700Y-91319711D01*
X39194374Y-91267385D01*
X39246700Y-91245711D01*
X39299026Y-91267385D01*
X39315066Y-91291391D01*
X39326797Y-91319711D01*
X39359059Y-91397598D01*
X39425360Y-91496826D01*
X39474023Y-91569655D01*
X39620345Y-91715977D01*
X39792402Y-91830941D01*
X39983580Y-91910130D01*
X40186535Y-91950500D01*
X40186536Y-91950500D01*
X40393464Y-91950500D01*
X40393465Y-91950500D01*
X40596420Y-91910130D01*
X40787598Y-91830941D01*
X40959655Y-91715977D01*
X41051474Y-91624158D01*
X41103800Y-91602484D01*
X41156126Y-91624158D01*
X41177800Y-91676484D01*
X41177800Y-91867777D01*
X41156126Y-91920103D01*
X37921540Y-95154688D01*
X37881979Y-95223209D01*
X37881977Y-95223214D01*
X37861500Y-95299635D01*
X37861500Y-120644576D01*
X37839826Y-120696902D01*
X37196387Y-121340340D01*
X37144061Y-121362014D01*
X37091735Y-121340340D01*
X37076398Y-121313774D01*
X37075147Y-121314293D01*
X37073291Y-121309812D01*
X37044997Y-121260806D01*
X37007400Y-121195686D01*
X36914214Y-121102500D01*
X36868310Y-121075997D01*
X36800090Y-121036610D01*
X36800081Y-121036606D01*
X36672794Y-121002500D01*
X36672792Y-121002500D01*
X36541008Y-121002500D01*
X36541006Y-121002500D01*
X36413718Y-121036606D01*
X36413709Y-121036610D01*
X36318447Y-121091610D01*
X36262294Y-121099002D01*
X36229121Y-121079850D01*
X35271020Y-120121749D01*
X35249346Y-120069423D01*
X35271020Y-120017097D01*
X35304190Y-119997946D01*
X35383886Y-119976592D01*
X35498014Y-119910700D01*
X35591200Y-119817514D01*
X35657092Y-119703386D01*
X35691199Y-119576094D01*
X35691200Y-119576094D01*
X35691200Y-119444306D01*
X35691199Y-119444305D01*
X35680521Y-119404455D01*
X35657092Y-119317014D01*
X35591200Y-119202886D01*
X35498014Y-119109700D01*
X35447073Y-119080289D01*
X35383890Y-119043810D01*
X35383881Y-119043806D01*
X35256594Y-119009700D01*
X35256592Y-119009700D01*
X35124808Y-119009700D01*
X35124806Y-119009700D01*
X34997518Y-119043806D01*
X34997509Y-119043810D01*
X34883385Y-119109700D01*
X34790200Y-119202885D01*
X34724310Y-119317009D01*
X34724306Y-119317018D01*
X34702954Y-119396706D01*
X34668476Y-119441639D01*
X34612323Y-119449031D01*
X34579150Y-119429879D01*
X33888015Y-118738744D01*
X33866341Y-118686418D01*
X33888015Y-118634092D01*
X33905089Y-118622688D01*
X33904586Y-118621817D01*
X33923508Y-118610892D01*
X34022914Y-118553500D01*
X34116100Y-118460314D01*
X34181992Y-118346186D01*
X34216099Y-118218894D01*
X34216100Y-118218894D01*
X34216100Y-118087106D01*
X34216099Y-118087105D01*
X34213821Y-118078605D01*
X34181992Y-117959814D01*
X34116100Y-117845686D01*
X34022914Y-117752500D01*
X34008192Y-117744000D01*
X33908790Y-117686610D01*
X33908781Y-117686606D01*
X33781494Y-117652500D01*
X33781492Y-117652500D01*
X33649708Y-117652500D01*
X33649706Y-117652500D01*
X33522418Y-117686606D01*
X33522409Y-117686610D01*
X33408285Y-117752500D01*
X33315100Y-117845685D01*
X33246783Y-117964014D01*
X33244463Y-117962674D01*
X33210466Y-117996639D01*
X33153829Y-117996611D01*
X33129855Y-117980584D01*
X31889574Y-116740303D01*
X31867900Y-116687977D01*
X31867900Y-102253705D01*
X33589100Y-102253705D01*
X33589100Y-102385494D01*
X33623206Y-102512781D01*
X33623207Y-102512784D01*
X33623208Y-102512786D01*
X33689100Y-102626914D01*
X33782286Y-102720100D01*
X33896414Y-102785992D01*
X34023705Y-102820099D01*
X34023706Y-102820100D01*
X34023708Y-102820100D01*
X34155494Y-102820100D01*
X34155494Y-102820099D01*
X34282786Y-102785992D01*
X34396914Y-102720100D01*
X34490100Y-102626914D01*
X34555992Y-102512786D01*
X34590099Y-102385494D01*
X34590100Y-102385494D01*
X34590100Y-102253706D01*
X34590099Y-102253705D01*
X34555993Y-102126418D01*
X34555992Y-102126414D01*
X34490100Y-102012286D01*
X34396914Y-101919100D01*
X34282790Y-101853210D01*
X34282781Y-101853206D01*
X34155494Y-101819100D01*
X34155492Y-101819100D01*
X34023708Y-101819100D01*
X34023706Y-101819100D01*
X33896418Y-101853206D01*
X33896409Y-101853210D01*
X33782285Y-101919100D01*
X33689100Y-102012285D01*
X33623210Y-102126409D01*
X33623206Y-102126418D01*
X33589100Y-102253705D01*
X31867900Y-102253705D01*
X31867900Y-91762184D01*
X31889574Y-91709858D01*
X31941900Y-91688184D01*
X31994226Y-91709858D01*
X32000345Y-91715977D01*
X32172402Y-91830941D01*
X32363580Y-91910130D01*
X32566535Y-91950500D01*
X32566536Y-91950500D01*
X32773464Y-91950500D01*
X32773465Y-91950500D01*
X32976420Y-91910130D01*
X33167598Y-91830941D01*
X33339655Y-91715977D01*
X33485977Y-91569655D01*
X33600941Y-91397598D01*
X33680130Y-91206420D01*
X33720500Y-91003465D01*
X33720500Y-90796535D01*
X34159500Y-90796535D01*
X34159500Y-91003464D01*
X34199868Y-91206413D01*
X34199870Y-91206420D01*
X34279059Y-91397598D01*
X34345360Y-91496826D01*
X34394023Y-91569655D01*
X34540345Y-91715977D01*
X34712402Y-91830941D01*
X34903580Y-91910130D01*
X35106535Y-91950500D01*
X35106536Y-91950500D01*
X35313464Y-91950500D01*
X35313465Y-91950500D01*
X35516420Y-91910130D01*
X35707598Y-91830941D01*
X35879655Y-91715977D01*
X36025977Y-91569655D01*
X36140941Y-91397598D01*
X36220130Y-91206420D01*
X36260500Y-91003465D01*
X36260500Y-90796535D01*
X36220130Y-90593580D01*
X36140941Y-90402402D01*
X36025977Y-90230345D01*
X35879655Y-90084023D01*
X35866025Y-90074916D01*
X35707598Y-89969059D01*
X35516420Y-89889870D01*
X35516413Y-89889868D01*
X35347098Y-89856190D01*
X35313465Y-89849500D01*
X35106535Y-89849500D01*
X35072902Y-89856190D01*
X34903586Y-89889868D01*
X34903579Y-89889870D01*
X34712401Y-89969059D01*
X34540345Y-90084022D01*
X34540344Y-90084024D01*
X34394024Y-90230344D01*
X34394022Y-90230345D01*
X34279059Y-90402401D01*
X34199870Y-90593579D01*
X34199868Y-90593586D01*
X34159500Y-90796535D01*
X33720500Y-90796535D01*
X33680130Y-90593580D01*
X33600941Y-90402402D01*
X33485977Y-90230345D01*
X33339655Y-90084023D01*
X33326025Y-90074916D01*
X33167598Y-89969059D01*
X32976420Y-89889870D01*
X32976413Y-89889868D01*
X32807098Y-89856190D01*
X32773465Y-89849500D01*
X32566535Y-89849500D01*
X32532902Y-89856190D01*
X32363586Y-89889868D01*
X32363579Y-89889870D01*
X32172401Y-89969059D01*
X32000345Y-90084022D01*
X32000344Y-90084024D01*
X31994226Y-90090142D01*
X31941900Y-90111816D01*
X31889574Y-90090142D01*
X31867900Y-90037816D01*
X31867900Y-77171237D01*
X31863680Y-77155487D01*
X31863680Y-77155486D01*
X31847423Y-77094815D01*
X31847421Y-77094810D01*
X31807862Y-77026292D01*
X31807861Y-77026291D01*
X31807860Y-77026289D01*
X29878674Y-75097103D01*
X29857000Y-75044777D01*
X29857000Y-74934006D01*
X29856999Y-74934005D01*
X29844344Y-74886777D01*
X29822892Y-74806714D01*
X29757000Y-74692586D01*
X29663814Y-74599400D01*
X29549690Y-74533510D01*
X29549681Y-74533506D01*
X29422394Y-74499400D01*
X29422392Y-74499400D01*
X29290608Y-74499400D01*
X29290606Y-74499400D01*
X29163318Y-74533506D01*
X29163305Y-74533511D01*
X29141199Y-74546275D01*
X29085047Y-74553667D01*
X29040114Y-74519188D01*
X29030200Y-74482189D01*
X29030200Y-66610605D01*
X29264500Y-66610605D01*
X29264500Y-66742394D01*
X29298606Y-66869681D01*
X29298610Y-66869690D01*
X29334821Y-66932408D01*
X29364500Y-66983814D01*
X29457686Y-67077000D01*
X29571814Y-67142892D01*
X29699105Y-67176999D01*
X29699106Y-67177000D01*
X29699108Y-67177000D01*
X29830894Y-67177000D01*
X29830894Y-67176999D01*
X29958186Y-67142892D01*
X30072314Y-67077000D01*
X30165500Y-66983814D01*
X30231392Y-66869686D01*
X30265499Y-66742394D01*
X30265500Y-66742394D01*
X30265500Y-66610606D01*
X30265499Y-66610605D01*
X30231393Y-66483318D01*
X30231392Y-66483314D01*
X30165500Y-66369186D01*
X30072314Y-66276000D01*
X29958190Y-66210110D01*
X29958181Y-66210106D01*
X29830894Y-66176000D01*
X29830892Y-66176000D01*
X29699108Y-66176000D01*
X29699106Y-66176000D01*
X29571818Y-66210106D01*
X29571809Y-66210110D01*
X29457685Y-66276000D01*
X29364500Y-66369185D01*
X29298610Y-66483309D01*
X29298606Y-66483318D01*
X29264500Y-66610605D01*
X29030200Y-66610605D01*
X29030200Y-57263405D01*
X43307000Y-57263405D01*
X43307000Y-57395194D01*
X43341106Y-57522481D01*
X43341110Y-57522490D01*
X43407000Y-57636614D01*
X43500186Y-57729800D01*
X43614314Y-57795692D01*
X43741605Y-57829799D01*
X43741606Y-57829800D01*
X43741608Y-57829800D01*
X43873394Y-57829800D01*
X43873394Y-57829799D01*
X44000686Y-57795692D01*
X44114814Y-57729800D01*
X44208000Y-57636614D01*
X44273892Y-57522486D01*
X44307999Y-57395194D01*
X44308000Y-57395194D01*
X44308000Y-57263406D01*
X44307999Y-57263405D01*
X44289375Y-57193900D01*
X44273892Y-57136114D01*
X44208000Y-57021986D01*
X44114814Y-56928800D01*
X44048655Y-56890603D01*
X44000690Y-56862910D01*
X44000681Y-56862906D01*
X43873394Y-56828800D01*
X43873392Y-56828800D01*
X43741608Y-56828800D01*
X43741606Y-56828800D01*
X43614318Y-56862906D01*
X43614309Y-56862910D01*
X43500185Y-56928800D01*
X43407000Y-57021985D01*
X43341110Y-57136109D01*
X43341106Y-57136118D01*
X43307000Y-57263405D01*
X29030200Y-57263405D01*
X29030200Y-53711039D01*
X29019094Y-53669589D01*
X29019094Y-53669588D01*
X29009723Y-53634615D01*
X29009721Y-53634610D01*
X28970162Y-53566092D01*
X28970161Y-53566091D01*
X28970160Y-53566089D01*
X26940374Y-51536303D01*
X26918700Y-51483977D01*
X26918700Y-51373206D01*
X26918699Y-51373205D01*
X26913392Y-51353400D01*
X26884592Y-51245914D01*
X26818700Y-51131786D01*
X26725514Y-51038600D01*
X26654807Y-50997777D01*
X26611390Y-50972710D01*
X26611381Y-50972706D01*
X26484094Y-50938600D01*
X26484092Y-50938600D01*
X26352308Y-50938600D01*
X26229952Y-50971385D01*
X26173800Y-50963992D01*
X26139321Y-50919058D01*
X26136800Y-50899906D01*
X26136800Y-49628466D01*
X26158474Y-49576140D01*
X26194115Y-49540499D01*
X26236800Y-49497814D01*
X26302692Y-49383686D01*
X26336799Y-49256394D01*
X26336800Y-49256394D01*
X26336800Y-49124606D01*
X26336799Y-49124605D01*
X26302693Y-48997318D01*
X26302692Y-48997314D01*
X26236800Y-48883186D01*
X26143614Y-48790000D01*
X26056146Y-48739500D01*
X26029490Y-48724110D01*
X26029481Y-48724106D01*
X25902194Y-48690000D01*
X25902192Y-48690000D01*
X25770408Y-48690000D01*
X25770406Y-48690000D01*
X25643118Y-48724106D01*
X25643109Y-48724110D01*
X25528985Y-48790000D01*
X25435800Y-48883185D01*
X25369910Y-48997309D01*
X25369906Y-48997318D01*
X25335800Y-49124605D01*
X25335800Y-49256394D01*
X25369906Y-49383681D01*
X25369910Y-49383690D01*
X25435800Y-49497814D01*
X25514126Y-49576140D01*
X25535800Y-49628466D01*
X25535800Y-55147564D01*
X25556277Y-55223985D01*
X25556279Y-55223990D01*
X25595840Y-55292511D01*
X26017926Y-55714597D01*
X26039600Y-55766923D01*
X26039600Y-90246245D01*
X26017926Y-90298571D01*
X25965600Y-90320245D01*
X25913274Y-90298571D01*
X25904071Y-90287357D01*
X25865977Y-90230345D01*
X25719654Y-90084022D01*
X25547598Y-89969059D01*
X25356420Y-89889870D01*
X25356413Y-89889868D01*
X25187098Y-89856190D01*
X25153465Y-89849500D01*
X24946535Y-89849500D01*
X24912902Y-89856190D01*
X24743586Y-89889868D01*
X24743579Y-89889870D01*
X24552401Y-89969059D01*
X24380345Y-90084022D01*
X24380344Y-90084024D01*
X24368426Y-90095942D01*
X24316100Y-90117616D01*
X24263774Y-90095942D01*
X24242100Y-90043616D01*
X24242100Y-56101705D01*
X24858800Y-56101705D01*
X24858800Y-56233494D01*
X24892906Y-56360781D01*
X24892907Y-56360784D01*
X24892908Y-56360786D01*
X24958800Y-56474914D01*
X25051986Y-56568100D01*
X25166114Y-56633992D01*
X25293405Y-56668099D01*
X25293406Y-56668100D01*
X25293408Y-56668100D01*
X25425194Y-56668100D01*
X25425194Y-56668099D01*
X25552486Y-56633992D01*
X25666614Y-56568100D01*
X25759800Y-56474914D01*
X25825692Y-56360786D01*
X25859799Y-56233494D01*
X25859800Y-56233494D01*
X25859800Y-56101706D01*
X25859799Y-56101705D01*
X25825693Y-55974418D01*
X25825692Y-55974414D01*
X25759800Y-55860286D01*
X25666614Y-55767100D01*
X25613217Y-55736271D01*
X25552490Y-55701210D01*
X25552481Y-55701206D01*
X25425194Y-55667100D01*
X25425192Y-55667100D01*
X25293408Y-55667100D01*
X25293406Y-55667100D01*
X25166118Y-55701206D01*
X25166109Y-55701210D01*
X25051985Y-55767100D01*
X24958800Y-55860285D01*
X24892910Y-55974409D01*
X24892906Y-55974418D01*
X24858800Y-56101705D01*
X24242100Y-56101705D01*
X24242100Y-51914339D01*
X24240084Y-51906815D01*
X24238040Y-51899186D01*
X24221622Y-51837912D01*
X24209868Y-51817553D01*
X24182062Y-51769392D01*
X24182061Y-51769391D01*
X24182060Y-51769389D01*
X23462774Y-51050103D01*
X23441100Y-50997777D01*
X23441100Y-50887006D01*
X23441099Y-50887005D01*
X23424487Y-50825009D01*
X23406992Y-50759714D01*
X23341100Y-50645586D01*
X23247914Y-50552400D01*
X23156616Y-50499689D01*
X23122139Y-50454757D01*
X23129531Y-50398604D01*
X23141287Y-50383282D01*
X30514797Y-43009774D01*
X30567123Y-42988100D01*
X41610734Y-42988100D01*
X41663060Y-43009774D01*
X41741386Y-43088100D01*
X41855514Y-43153992D01*
X41982805Y-43188099D01*
X41982806Y-43188100D01*
X41982808Y-43188100D01*
X42114594Y-43188100D01*
X42114594Y-43188099D01*
X42241886Y-43153992D01*
X42356014Y-43088100D01*
X42449200Y-42994914D01*
X42515092Y-42880786D01*
X42549199Y-42753494D01*
X42549200Y-42753494D01*
X42549200Y-42621706D01*
X42549199Y-42621705D01*
X42515093Y-42494418D01*
X42515092Y-42494414D01*
X42449200Y-42380286D01*
X42356014Y-42287100D01*
X42241890Y-42221210D01*
X42241881Y-42221206D01*
X42114594Y-42187100D01*
X42114592Y-42187100D01*
X41982808Y-42187100D01*
X41982806Y-42187100D01*
X41855518Y-42221206D01*
X41855509Y-42221210D01*
X41741385Y-42287100D01*
X41663060Y-42365426D01*
X41610734Y-42387100D01*
X30372436Y-42387100D01*
X30296014Y-42407577D01*
X30296009Y-42407579D01*
X30227488Y-42447140D01*
X20628240Y-52046388D01*
X20588679Y-52114909D01*
X20588677Y-52114914D01*
X20568200Y-52191335D01*
X20568200Y-68265464D01*
X20588677Y-68341885D01*
X20588679Y-68341890D01*
X20628240Y-68410411D01*
X20852226Y-68634397D01*
X20873900Y-68686723D01*
X20873900Y-90139616D01*
X20852226Y-90191942D01*
X20799900Y-90213616D01*
X20747574Y-90191942D01*
X20639654Y-90084022D01*
X20467598Y-89969059D01*
X20276420Y-89889870D01*
X20276413Y-89889868D01*
X20107098Y-89856190D01*
X20073465Y-89849500D01*
X19866535Y-89849500D01*
X19832902Y-89856190D01*
X19663586Y-89889868D01*
X19663579Y-89889870D01*
X19472401Y-89969059D01*
X19300345Y-90084022D01*
X19300344Y-90084024D01*
X19154024Y-90230344D01*
X19154022Y-90230345D01*
X19039329Y-90401997D01*
X18992237Y-90433463D01*
X18936688Y-90422414D01*
X18905222Y-90375322D01*
X18903800Y-90360885D01*
X18903800Y-62159736D01*
X18901613Y-62151577D01*
X18909002Y-62095424D01*
X18953933Y-62060943D01*
X18992243Y-62060942D01*
X19028317Y-62070607D01*
X19050305Y-62076499D01*
X19050306Y-62076500D01*
X19050308Y-62076500D01*
X19182094Y-62076500D01*
X19182094Y-62076499D01*
X19309386Y-62042392D01*
X19423514Y-61976500D01*
X19516700Y-61883314D01*
X19582592Y-61769186D01*
X19616699Y-61641894D01*
X19616700Y-61641894D01*
X19616700Y-61510106D01*
X19616699Y-61510105D01*
X19615384Y-61505199D01*
X19582592Y-61382814D01*
X19516700Y-61268686D01*
X19423514Y-61175500D01*
X19401699Y-61162905D01*
X19309390Y-61109610D01*
X19309381Y-61109606D01*
X19182094Y-61075500D01*
X19182092Y-61075500D01*
X19050308Y-61075500D01*
X19050306Y-61075500D01*
X18923853Y-61109383D01*
X18867700Y-61101991D01*
X18833222Y-61057058D01*
X18830700Y-61037905D01*
X18830700Y-55989436D01*
X18830699Y-55989435D01*
X18810222Y-55913014D01*
X18810220Y-55913009D01*
X18779780Y-55860286D01*
X18770660Y-55844489D01*
X18714711Y-55788540D01*
X13357137Y-50430966D01*
X13335463Y-50378640D01*
X13357137Y-50326314D01*
X13390314Y-50307161D01*
X13393186Y-50306392D01*
X13507314Y-50240500D01*
X13600500Y-50147314D01*
X13666392Y-50033186D01*
X13700499Y-49905894D01*
X13700500Y-49905894D01*
X13700500Y-49774106D01*
X13700499Y-49774105D01*
X13684770Y-49715401D01*
X13692162Y-49659248D01*
X13737095Y-49624770D01*
X13775401Y-49624770D01*
X13802990Y-49632162D01*
X13834105Y-49640499D01*
X13834106Y-49640500D01*
X13834108Y-49640500D01*
X13965894Y-49640500D01*
X13965894Y-49640499D01*
X14024598Y-49624770D01*
X14080751Y-49632162D01*
X14115229Y-49677095D01*
X14115230Y-49715400D01*
X14099500Y-49774108D01*
X14099500Y-49905894D01*
X14133606Y-50033181D01*
X14133607Y-50033184D01*
X14133608Y-50033186D01*
X14199500Y-50147314D01*
X14292686Y-50240500D01*
X14406814Y-50306392D01*
X14534105Y-50340499D01*
X14534106Y-50340500D01*
X14534108Y-50340500D01*
X14665894Y-50340500D01*
X14665894Y-50340499D01*
X14793186Y-50306392D01*
X14907314Y-50240500D01*
X15000500Y-50147314D01*
X15066392Y-50033186D01*
X15100499Y-49905894D01*
X15100500Y-49905894D01*
X15100500Y-49774106D01*
X15100499Y-49774105D01*
X15084770Y-49715401D01*
X15092162Y-49659248D01*
X15137095Y-49624770D01*
X15175401Y-49624770D01*
X15202990Y-49632162D01*
X15234105Y-49640499D01*
X15234106Y-49640500D01*
X15234108Y-49640500D01*
X15365894Y-49640500D01*
X15365894Y-49640499D01*
X15493186Y-49606392D01*
X15607314Y-49540500D01*
X15700500Y-49447314D01*
X15766392Y-49333186D01*
X15800499Y-49205894D01*
X15800500Y-49205894D01*
X15800500Y-49074106D01*
X15800499Y-49074105D01*
X15784525Y-49014490D01*
X15766392Y-48946814D01*
X15700500Y-48832686D01*
X15607314Y-48739500D01*
X15521578Y-48690000D01*
X15493190Y-48673610D01*
X15493181Y-48673606D01*
X15365894Y-48639500D01*
X15365892Y-48639500D01*
X15234108Y-48639500D01*
X15175400Y-48655230D01*
X15119247Y-48647836D01*
X15084769Y-48602903D01*
X15084770Y-48564598D01*
X15098331Y-48513986D01*
X15100499Y-48505894D01*
X15100500Y-48505894D01*
X15100500Y-48374106D01*
X15100499Y-48374105D01*
X15084770Y-48315401D01*
X15092162Y-48259248D01*
X15137095Y-48224770D01*
X15175401Y-48224770D01*
X15202990Y-48232162D01*
X15234105Y-48240499D01*
X15234106Y-48240500D01*
X15234108Y-48240500D01*
X15365894Y-48240500D01*
X15365894Y-48240499D01*
X15493186Y-48206392D01*
X15607314Y-48140500D01*
X15700500Y-48047314D01*
X15766392Y-47933186D01*
X15800499Y-47805894D01*
X15800500Y-47805894D01*
X15800500Y-47674106D01*
X15800499Y-47674105D01*
X15795216Y-47654390D01*
X15766392Y-47546814D01*
X15700500Y-47432686D01*
X15607314Y-47339500D01*
X15588824Y-47328825D01*
X15493190Y-47273610D01*
X15493181Y-47273606D01*
X15365894Y-47239500D01*
X15365892Y-47239500D01*
X15234108Y-47239500D01*
X15175400Y-47255230D01*
X15119247Y-47247836D01*
X15084769Y-47202903D01*
X15084770Y-47164598D01*
X15100499Y-47105894D01*
X15100500Y-47105894D01*
X15100500Y-46974106D01*
X15100499Y-46974105D01*
X15066393Y-46846818D01*
X15066392Y-46846814D01*
X15000500Y-46732686D01*
X14907314Y-46639500D01*
X14793190Y-46573610D01*
X14793181Y-46573606D01*
X14665894Y-46539500D01*
X14665892Y-46539500D01*
X14534108Y-46539500D01*
X14534106Y-46539500D01*
X14406818Y-46573606D01*
X14406809Y-46573610D01*
X14292685Y-46639500D01*
X14199500Y-46732685D01*
X14133610Y-46846809D01*
X14133606Y-46846818D01*
X14099500Y-46974105D01*
X14099500Y-47105891D01*
X14115230Y-47164599D01*
X14107837Y-47220752D01*
X14062903Y-47255230D01*
X14024599Y-47255230D01*
X13965892Y-47239500D01*
X13834108Y-47239500D01*
X13775400Y-47255230D01*
X13719247Y-47247836D01*
X13684769Y-47202903D01*
X13684770Y-47164598D01*
X13700499Y-47105894D01*
X13700500Y-47105894D01*
X13700500Y-46974106D01*
X13700499Y-46974105D01*
X13666393Y-46846818D01*
X13666392Y-46846814D01*
X13600500Y-46732686D01*
X13507314Y-46639500D01*
X13393190Y-46573610D01*
X13393181Y-46573606D01*
X13265894Y-46539500D01*
X13265892Y-46539500D01*
X13134108Y-46539500D01*
X13134106Y-46539500D01*
X13006818Y-46573606D01*
X13006809Y-46573610D01*
X12892685Y-46639500D01*
X12799500Y-46732685D01*
X12733610Y-46846809D01*
X12733606Y-46846818D01*
X12699500Y-46974105D01*
X12699500Y-47105891D01*
X12715230Y-47164599D01*
X12707837Y-47220752D01*
X12662903Y-47255230D01*
X12624599Y-47255230D01*
X12565892Y-47239500D01*
X12434108Y-47239500D01*
X12434106Y-47239500D01*
X12306818Y-47273606D01*
X12306809Y-47273610D01*
X12192685Y-47339500D01*
X12099500Y-47432685D01*
X12033610Y-47546809D01*
X12033606Y-47546818D01*
X11999500Y-47674105D01*
X11999500Y-47805894D01*
X12033606Y-47933181D01*
X12033607Y-47933184D01*
X12033608Y-47933186D01*
X12099500Y-48047314D01*
X12192686Y-48140500D01*
X12306814Y-48206392D01*
X12434105Y-48240499D01*
X12434106Y-48240500D01*
X12434108Y-48240500D01*
X12565894Y-48240500D01*
X12565894Y-48240499D01*
X12624598Y-48224770D01*
X12680751Y-48232162D01*
X12715229Y-48277095D01*
X12715230Y-48315400D01*
X12704644Y-48354910D01*
X12699500Y-48374108D01*
X12699500Y-48505892D01*
X12701669Y-48513986D01*
X12715230Y-48564599D01*
X12707837Y-48620752D01*
X12662903Y-48655230D01*
X12624599Y-48655230D01*
X12565892Y-48639500D01*
X12434108Y-48639500D01*
X12434106Y-48639500D01*
X12306818Y-48673606D01*
X12306809Y-48673610D01*
X12192685Y-48739500D01*
X12099500Y-48832685D01*
X12033608Y-48946812D01*
X12033607Y-48946815D01*
X12032837Y-48949691D01*
X12031923Y-48950881D01*
X12031753Y-48951293D01*
X12031642Y-48951247D01*
X11998357Y-48994623D01*
X11942204Y-49002014D01*
X11909033Y-48982862D01*
X11578568Y-48652397D01*
X11556894Y-48600071D01*
X11578567Y-48547746D01*
X11619700Y-48506614D01*
X11685592Y-48392486D01*
X11719699Y-48265194D01*
X11719700Y-48265194D01*
X11719700Y-48133406D01*
X11719699Y-48133405D01*
X11685593Y-48006118D01*
X11685592Y-48006114D01*
X11619700Y-47891986D01*
X11526514Y-47798800D01*
X11454918Y-47757464D01*
X11412390Y-47732910D01*
X11412381Y-47732906D01*
X11285094Y-47698800D01*
X11285092Y-47698800D01*
X11153308Y-47698800D01*
X11153306Y-47698800D01*
X11026018Y-47732906D01*
X11026009Y-47732910D01*
X10911885Y-47798800D01*
X10818700Y-47891985D01*
X10752810Y-48006109D01*
X10752806Y-48006118D01*
X10718700Y-48133405D01*
X10718700Y-48190077D01*
X10697026Y-48242403D01*
X10644700Y-48264077D01*
X10592374Y-48242403D01*
X10560474Y-48210503D01*
X10538800Y-48158177D01*
X10538800Y-47899166D01*
X10560474Y-47846840D01*
X10638800Y-47768514D01*
X10704692Y-47654386D01*
X10738799Y-47527094D01*
X10738800Y-47527094D01*
X10738800Y-47395306D01*
X10738799Y-47395305D01*
X10704693Y-47268018D01*
X10704692Y-47268014D01*
X10638800Y-47153886D01*
X10545614Y-47060700D01*
X10494789Y-47031356D01*
X10431490Y-46994810D01*
X10431481Y-46994806D01*
X10304194Y-46960700D01*
X10304192Y-46960700D01*
X10172408Y-46960700D01*
X10172406Y-46960700D01*
X10045118Y-46994806D01*
X10045109Y-46994810D01*
X9930985Y-47060700D01*
X9837800Y-47153885D01*
X9817353Y-47189301D01*
X9772419Y-47223780D01*
X9716267Y-47216387D01*
X9700941Y-47204627D01*
X9691315Y-47195001D01*
X9691314Y-47195000D01*
X9620101Y-47153885D01*
X9582963Y-47132443D01*
X9548485Y-47087509D01*
X9555878Y-47031356D01*
X9567634Y-47016035D01*
X11240365Y-45343305D01*
X25285500Y-45343305D01*
X25285500Y-45475094D01*
X25319606Y-45602381D01*
X25319607Y-45602384D01*
X25319608Y-45602386D01*
X25385500Y-45716514D01*
X25478686Y-45809700D01*
X25592814Y-45875592D01*
X25720105Y-45909699D01*
X25720106Y-45909700D01*
X25720108Y-45909700D01*
X25851894Y-45909700D01*
X25851894Y-45909699D01*
X25979186Y-45875592D01*
X26093314Y-45809700D01*
X26186500Y-45716514D01*
X26252392Y-45602386D01*
X26286499Y-45475094D01*
X26286500Y-45475094D01*
X26286500Y-45343306D01*
X26286499Y-45343305D01*
X26252393Y-45216018D01*
X26252392Y-45216014D01*
X26186500Y-45101886D01*
X26093314Y-45008700D01*
X25979190Y-44942810D01*
X25979181Y-44942806D01*
X25851894Y-44908700D01*
X25851892Y-44908700D01*
X25720108Y-44908700D01*
X25720106Y-44908700D01*
X25592818Y-44942806D01*
X25592809Y-44942810D01*
X25478685Y-45008700D01*
X25385500Y-45101885D01*
X25319610Y-45216009D01*
X25319606Y-45216018D01*
X25285500Y-45343305D01*
X11240365Y-45343305D01*
X14949066Y-41634605D01*
X37836400Y-41634605D01*
X37836400Y-41766394D01*
X37870506Y-41893681D01*
X37870507Y-41893684D01*
X37870508Y-41893686D01*
X37936400Y-42007814D01*
X38029586Y-42101000D01*
X38143714Y-42166892D01*
X38271005Y-42200999D01*
X38271006Y-42201000D01*
X38271008Y-42201000D01*
X38402794Y-42201000D01*
X38402794Y-42200999D01*
X38530086Y-42166892D01*
X38644214Y-42101000D01*
X38737400Y-42007814D01*
X38803292Y-41893686D01*
X38837399Y-41766394D01*
X38837400Y-41766394D01*
X38837400Y-41634606D01*
X38837399Y-41634605D01*
X38803293Y-41507318D01*
X38803292Y-41507314D01*
X38737400Y-41393186D01*
X38644214Y-41300000D01*
X38530090Y-41234110D01*
X38530081Y-41234106D01*
X38402794Y-41200000D01*
X38402792Y-41200000D01*
X38271008Y-41200000D01*
X38271006Y-41200000D01*
X38143718Y-41234106D01*
X38143709Y-41234110D01*
X38029585Y-41300000D01*
X37936400Y-41393185D01*
X37870510Y-41507309D01*
X37870506Y-41507318D01*
X37836400Y-41634605D01*
X14949066Y-41634605D01*
X15807997Y-40775674D01*
X15860323Y-40754000D01*
X37850034Y-40754000D01*
X37902360Y-40775674D01*
X37980686Y-40854000D01*
X38094814Y-40919892D01*
X38222105Y-40953999D01*
X38222106Y-40954000D01*
X38222108Y-40954000D01*
X38353894Y-40954000D01*
X38353894Y-40953999D01*
X38481186Y-40919892D01*
X38595314Y-40854000D01*
X38688500Y-40760814D01*
X38754392Y-40646686D01*
X38788499Y-40519394D01*
X38788500Y-40519394D01*
X38788500Y-40387606D01*
X38788499Y-40387605D01*
X38754393Y-40260318D01*
X38754392Y-40260314D01*
X38688500Y-40146186D01*
X38595314Y-40053000D01*
X38514575Y-40006385D01*
X38480097Y-39961453D01*
X38487490Y-39905300D01*
X38532423Y-39870821D01*
X38551576Y-39868300D01*
X39552064Y-39868300D01*
X39552064Y-39868299D01*
X39628489Y-39847821D01*
X39697011Y-39808260D01*
X39752960Y-39752311D01*
X46640460Y-32864811D01*
X46680021Y-32796289D01*
X46700499Y-32719864D01*
X46700500Y-32719864D01*
X46700500Y-19480966D01*
X46722174Y-19428640D01*
X46800500Y-19350314D01*
X46866392Y-19236186D01*
X46900499Y-19108894D01*
X46900500Y-19108894D01*
X46900500Y-18977106D01*
X46900499Y-18977105D01*
X46866393Y-18849818D01*
X46866392Y-18849814D01*
X46800500Y-18735686D01*
X46707314Y-18642500D01*
X46593190Y-18576610D01*
X46593181Y-18576606D01*
X46465894Y-18542500D01*
X46465892Y-18542500D01*
X46334108Y-18542500D01*
X46334106Y-18542500D01*
X46206818Y-18576606D01*
X46206809Y-18576610D01*
X46092685Y-18642500D01*
X45999500Y-18735685D01*
X45933610Y-18849809D01*
X45933606Y-18849818D01*
X45899500Y-18977105D01*
X45899500Y-19108894D01*
X45933606Y-19236181D01*
X45933610Y-19236190D01*
X45999500Y-19350314D01*
X46077826Y-19428640D01*
X46099500Y-19480966D01*
X46099500Y-32525177D01*
X46077826Y-32577503D01*
X39526326Y-39129003D01*
X39474000Y-39150677D01*
X39421674Y-39129003D01*
X39400000Y-39076677D01*
X39400000Y-36131605D01*
X40718100Y-36131605D01*
X40718100Y-36263394D01*
X40752206Y-36390681D01*
X40752207Y-36390684D01*
X40752208Y-36390686D01*
X40818100Y-36504814D01*
X40911286Y-36598000D01*
X41025414Y-36663892D01*
X41152705Y-36697999D01*
X41152706Y-36698000D01*
X41152708Y-36698000D01*
X41284494Y-36698000D01*
X41284494Y-36697999D01*
X41411786Y-36663892D01*
X41525914Y-36598000D01*
X41619100Y-36504814D01*
X41684992Y-36390686D01*
X41719099Y-36263394D01*
X41719100Y-36263394D01*
X41719100Y-36131606D01*
X41719099Y-36131605D01*
X41684993Y-36004318D01*
X41684992Y-36004314D01*
X41619100Y-35890186D01*
X41525914Y-35797000D01*
X41411790Y-35731110D01*
X41411781Y-35731106D01*
X41284494Y-35697000D01*
X41284492Y-35697000D01*
X41152708Y-35697000D01*
X41152706Y-35697000D01*
X41025418Y-35731106D01*
X41025409Y-35731110D01*
X40911285Y-35797000D01*
X40818100Y-35890185D01*
X40752210Y-36004309D01*
X40752206Y-36004318D01*
X40718100Y-36131605D01*
X39400000Y-36131605D01*
X39400000Y-18230000D01*
X174500Y-18230000D01*
X122174Y-18208326D01*
X100500Y-18156000D01*
X100500Y-16101305D01*
X16540000Y-16101305D01*
X16540000Y-16233094D01*
X16574106Y-16360381D01*
X16574107Y-16360384D01*
X16574108Y-16360386D01*
X16640000Y-16474514D01*
X16733186Y-16567700D01*
X16847314Y-16633592D01*
X16974605Y-16667699D01*
X16974606Y-16667700D01*
X16974608Y-16667700D01*
X17106394Y-16667700D01*
X17106394Y-16667699D01*
X17233686Y-16633592D01*
X17347814Y-16567700D01*
X17441000Y-16474514D01*
X17506892Y-16360386D01*
X17540999Y-16233094D01*
X17541000Y-16233094D01*
X17541000Y-16101306D01*
X17540999Y-16101305D01*
X17506893Y-15974018D01*
X17506892Y-15974014D01*
X17441000Y-15859886D01*
X17347814Y-15766700D01*
X17233690Y-15700810D01*
X17233681Y-15700806D01*
X17106394Y-15666700D01*
X17106392Y-15666700D01*
X16974608Y-15666700D01*
X16974606Y-15666700D01*
X16847318Y-15700806D01*
X16847309Y-15700810D01*
X16733185Y-15766700D01*
X16640000Y-15859885D01*
X16574110Y-15974009D01*
X16574106Y-15974018D01*
X16540000Y-16101305D01*
X100500Y-16101305D01*
X100500Y-15134305D01*
X20845200Y-15134305D01*
X20845200Y-15266094D01*
X20879306Y-15393381D01*
X20879307Y-15393384D01*
X20879308Y-15393386D01*
X20945200Y-15507514D01*
X21038386Y-15600700D01*
X21152514Y-15666592D01*
X21279805Y-15700699D01*
X21279806Y-15700700D01*
X21279808Y-15700700D01*
X21411594Y-15700700D01*
X21411594Y-15700699D01*
X21538886Y-15666592D01*
X21653014Y-15600700D01*
X21746200Y-15507514D01*
X21812092Y-15393386D01*
X21846199Y-15266094D01*
X21846200Y-15266094D01*
X21846200Y-15134306D01*
X21846199Y-15134305D01*
X21835906Y-15095892D01*
X21812092Y-15007014D01*
X21787318Y-14964105D01*
X23918800Y-14964105D01*
X23918800Y-15095894D01*
X23952906Y-15223181D01*
X23952910Y-15223190D01*
X23977680Y-15266092D01*
X24018800Y-15337314D01*
X24111986Y-15430500D01*
X24226114Y-15496392D01*
X24353405Y-15530499D01*
X24353406Y-15530500D01*
X24353408Y-15530500D01*
X24485194Y-15530500D01*
X24485194Y-15530499D01*
X24612486Y-15496392D01*
X24667974Y-15464355D01*
X24724126Y-15456962D01*
X24769059Y-15491440D01*
X24770723Y-15494815D01*
X24838100Y-15611514D01*
X24931286Y-15704700D01*
X25045414Y-15770592D01*
X25172705Y-15804699D01*
X25172706Y-15804700D01*
X25172708Y-15804700D01*
X25304494Y-15804700D01*
X25304494Y-15804699D01*
X25431786Y-15770592D01*
X25545914Y-15704700D01*
X25639100Y-15611514D01*
X25704992Y-15497386D01*
X25739099Y-15370094D01*
X25739100Y-15370094D01*
X25739100Y-15238306D01*
X25739099Y-15238305D01*
X25715066Y-15148611D01*
X25715065Y-15148610D01*
X25711232Y-15134305D01*
X27349500Y-15134305D01*
X27349500Y-15266094D01*
X27383606Y-15393381D01*
X27383607Y-15393384D01*
X27383608Y-15393386D01*
X27449500Y-15507514D01*
X27542686Y-15600700D01*
X27656814Y-15666592D01*
X27784105Y-15700699D01*
X27784106Y-15700700D01*
X27784108Y-15700700D01*
X27915894Y-15700700D01*
X27915894Y-15700699D01*
X28043186Y-15666592D01*
X28157314Y-15600700D01*
X28250500Y-15507514D01*
X28316392Y-15393386D01*
X28350499Y-15266094D01*
X28350500Y-15266094D01*
X28350500Y-15134306D01*
X28350499Y-15134305D01*
X28340206Y-15095892D01*
X28316392Y-15007014D01*
X28266578Y-14920734D01*
X45599500Y-14920734D01*
X45599500Y-16279266D01*
X45602354Y-16309699D01*
X45602354Y-16309701D01*
X45602355Y-16309704D01*
X45647206Y-16437881D01*
X45647207Y-16437883D01*
X45727846Y-16547146D01*
X45727853Y-16547153D01*
X45837116Y-16627792D01*
X45837118Y-16627793D01*
X45965295Y-16672644D01*
X45965301Y-16672646D01*
X45995734Y-16675500D01*
X45995741Y-16675500D01*
X46804258Y-16675500D01*
X46804266Y-16675500D01*
X46834699Y-16672646D01*
X46962882Y-16627793D01*
X47072150Y-16547150D01*
X47152793Y-16437882D01*
X47197646Y-16309699D01*
X47200500Y-16279266D01*
X47200500Y-15246158D01*
X47599500Y-15246158D01*
X47599500Y-15953842D01*
X47609661Y-16004925D01*
X47630261Y-16108491D01*
X47630264Y-16108501D01*
X47690603Y-16254174D01*
X47690605Y-16254177D01*
X47690606Y-16254179D01*
X47778211Y-16385289D01*
X47889711Y-16496789D01*
X48020821Y-16584394D01*
X48020826Y-16584396D01*
X48020825Y-16584396D01*
X48125596Y-16627793D01*
X48166503Y-16644737D01*
X48321158Y-16675500D01*
X48321160Y-16675500D01*
X48478840Y-16675500D01*
X48478842Y-16675500D01*
X48633497Y-16644737D01*
X48779179Y-16584394D01*
X48910289Y-16496789D01*
X49021789Y-16385289D01*
X49109394Y-16254179D01*
X49169737Y-16108497D01*
X49200500Y-15953842D01*
X49200500Y-15246158D01*
X49169737Y-15091503D01*
X49169735Y-15091498D01*
X49109396Y-14945825D01*
X49109395Y-14945823D01*
X49109394Y-14945821D01*
X49021789Y-14814711D01*
X48910289Y-14703211D01*
X48905034Y-14699700D01*
X48877842Y-14681530D01*
X48779179Y-14615606D01*
X48779175Y-14615604D01*
X48779173Y-14615603D01*
X48779174Y-14615603D01*
X48633501Y-14555264D01*
X48633491Y-14555261D01*
X48529925Y-14534661D01*
X48478842Y-14524500D01*
X48321158Y-14524500D01*
X48277315Y-14533220D01*
X48166508Y-14555261D01*
X48166498Y-14555264D01*
X48020825Y-14615603D01*
X47889711Y-14703210D01*
X47889710Y-14703212D01*
X47778212Y-14814710D01*
X47778210Y-14814711D01*
X47690603Y-14945825D01*
X47630264Y-15091498D01*
X47630261Y-15091508D01*
X47618903Y-15148611D01*
X47599500Y-15246158D01*
X47200500Y-15246158D01*
X47200500Y-14920734D01*
X47197646Y-14890301D01*
X47152793Y-14762118D01*
X47131901Y-14733810D01*
X47072153Y-14652853D01*
X47072146Y-14652846D01*
X46962883Y-14572207D01*
X46962881Y-14572206D01*
X46834704Y-14527355D01*
X46834705Y-14527355D01*
X46834700Y-14527354D01*
X46834699Y-14527354D01*
X46804266Y-14524500D01*
X45995734Y-14524500D01*
X45965301Y-14527354D01*
X45965299Y-14527354D01*
X45965295Y-14527355D01*
X45837118Y-14572206D01*
X45837116Y-14572207D01*
X45727853Y-14652846D01*
X45727846Y-14652853D01*
X45647207Y-14762116D01*
X45647206Y-14762118D01*
X45602355Y-14890295D01*
X45602354Y-14890299D01*
X45602354Y-14890301D01*
X45599500Y-14920734D01*
X28266578Y-14920734D01*
X28250500Y-14892886D01*
X28157314Y-14799700D01*
X28043190Y-14733810D01*
X28043181Y-14733806D01*
X27915894Y-14699700D01*
X27915892Y-14699700D01*
X27784108Y-14699700D01*
X27784106Y-14699700D01*
X27656818Y-14733806D01*
X27656809Y-14733810D01*
X27542685Y-14799700D01*
X27449500Y-14892885D01*
X27383610Y-15007009D01*
X27383606Y-15007018D01*
X27349500Y-15134305D01*
X25711232Y-15134305D01*
X25704992Y-15111014D01*
X25639100Y-14996886D01*
X25545914Y-14903700D01*
X25434511Y-14839381D01*
X25431790Y-14837810D01*
X25431781Y-14837806D01*
X25304494Y-14803700D01*
X25304492Y-14803700D01*
X25172708Y-14803700D01*
X25172706Y-14803700D01*
X25045418Y-14837806D01*
X25045409Y-14837810D01*
X24989925Y-14869844D01*
X24933772Y-14877236D01*
X24888839Y-14842758D01*
X24887174Y-14839381D01*
X24872930Y-14814710D01*
X24819800Y-14722686D01*
X24726614Y-14629500D01*
X24627380Y-14572207D01*
X24612490Y-14563610D01*
X24612481Y-14563606D01*
X24485194Y-14529500D01*
X24485192Y-14529500D01*
X24353408Y-14529500D01*
X24353406Y-14529500D01*
X24226118Y-14563606D01*
X24226109Y-14563610D01*
X24111985Y-14629500D01*
X24018800Y-14722685D01*
X23952910Y-14836809D01*
X23952906Y-14836818D01*
X23918800Y-14964105D01*
X21787318Y-14964105D01*
X21746200Y-14892886D01*
X21653014Y-14799700D01*
X21538890Y-14733810D01*
X21538881Y-14733806D01*
X21411594Y-14699700D01*
X21411592Y-14699700D01*
X21279808Y-14699700D01*
X21279806Y-14699700D01*
X21152518Y-14733806D01*
X21152509Y-14733810D01*
X21038385Y-14799700D01*
X20945200Y-14892885D01*
X20879310Y-15007009D01*
X20879306Y-15007018D01*
X20845200Y-15134305D01*
X100500Y-15134305D01*
X100500Y-12111705D01*
X27697600Y-12111705D01*
X27697600Y-12243494D01*
X27731706Y-12370781D01*
X27731707Y-12370784D01*
X27731708Y-12370786D01*
X27797600Y-12484914D01*
X27890786Y-12578100D01*
X28004914Y-12643992D01*
X28132205Y-12678099D01*
X28132206Y-12678100D01*
X28132208Y-12678100D01*
X28263994Y-12678100D01*
X28263994Y-12678099D01*
X28391286Y-12643992D01*
X28505414Y-12578100D01*
X28598600Y-12484914D01*
X28664492Y-12370786D01*
X28698599Y-12243494D01*
X28698600Y-12243494D01*
X28698600Y-12111706D01*
X28698599Y-12111705D01*
X28664493Y-11984418D01*
X28664492Y-11984414D01*
X28598600Y-11870286D01*
X28505414Y-11777100D01*
X28391290Y-11711210D01*
X28391281Y-11711206D01*
X28263994Y-11677100D01*
X28263992Y-11677100D01*
X28132208Y-11677100D01*
X28132206Y-11677100D01*
X28004918Y-11711206D01*
X28004909Y-11711210D01*
X27890785Y-11777100D01*
X27797600Y-11870285D01*
X27731710Y-11984409D01*
X27731706Y-11984418D01*
X27697600Y-12111705D01*
X100500Y-12111705D01*
X100500Y-4989405D01*
X32199000Y-4989405D01*
X32199000Y-5121194D01*
X32233106Y-5248481D01*
X32233107Y-5248484D01*
X32233108Y-5248486D01*
X32299000Y-5362614D01*
X32392186Y-5455800D01*
X32506314Y-5521692D01*
X32633605Y-5555799D01*
X32633606Y-5555800D01*
X32633608Y-5555800D01*
X32765394Y-5555800D01*
X32765394Y-5555799D01*
X32892686Y-5521692D01*
X33006814Y-5455800D01*
X33100000Y-5362614D01*
X33165892Y-5248486D01*
X33199999Y-5121194D01*
X33200000Y-5121194D01*
X33200000Y-4989406D01*
X33199999Y-4989405D01*
X33165893Y-4862118D01*
X33165892Y-4862114D01*
X33100000Y-4747986D01*
X33006814Y-4654800D01*
X32892690Y-4588910D01*
X32892681Y-4588906D01*
X32765394Y-4554800D01*
X32765392Y-4554800D01*
X32633608Y-4554800D01*
X32633606Y-4554800D01*
X32506318Y-4588906D01*
X32506309Y-4588910D01*
X32392185Y-4654800D01*
X32299000Y-4747985D01*
X32233110Y-4862109D01*
X32233106Y-4862118D01*
X32199000Y-4989405D01*
X100500Y-4989405D01*
X100500Y-2011407D01*
X101129Y-2001775D01*
X136174Y-1734814D01*
X164643Y-1517940D01*
X169662Y-1499217D01*
X226763Y-1361605D01*
X14020600Y-1361605D01*
X14020600Y-1493394D01*
X14054706Y-1620681D01*
X14054707Y-1620684D01*
X14054708Y-1620686D01*
X14120600Y-1734814D01*
X14213786Y-1828000D01*
X14327914Y-1893892D01*
X14455205Y-1927999D01*
X14455206Y-1928000D01*
X14455208Y-1928000D01*
X14586994Y-1928000D01*
X14586994Y-1927999D01*
X14714286Y-1893892D01*
X14828414Y-1828000D01*
X14921600Y-1734814D01*
X14987492Y-1620686D01*
X15021599Y-1493394D01*
X15021600Y-1493394D01*
X15021600Y-1361606D01*
X15021599Y-1361605D01*
X14987493Y-1234318D01*
X14987492Y-1234314D01*
X14954174Y-1176605D01*
X27696400Y-1176605D01*
X27696400Y-1308394D01*
X27730506Y-1435681D01*
X27730510Y-1435690D01*
X27796400Y-1549814D01*
X27889586Y-1643000D01*
X28003714Y-1708892D01*
X28131005Y-1742999D01*
X28131006Y-1743000D01*
X28131008Y-1743000D01*
X28262794Y-1743000D01*
X28262794Y-1742999D01*
X28390086Y-1708892D01*
X28504214Y-1643000D01*
X28597400Y-1549814D01*
X28663292Y-1435686D01*
X28697399Y-1308394D01*
X28697400Y-1308394D01*
X28697400Y-1176606D01*
X28697399Y-1176605D01*
X28663293Y-1049318D01*
X28663292Y-1049314D01*
X28597400Y-935186D01*
X28504214Y-842000D01*
X28390090Y-776110D01*
X28390081Y-776106D01*
X28262794Y-742000D01*
X28262792Y-742000D01*
X28131008Y-742000D01*
X28131006Y-742000D01*
X28003718Y-776106D01*
X28003709Y-776110D01*
X27889585Y-842000D01*
X27796400Y-935185D01*
X27730510Y-1049309D01*
X27730506Y-1049318D01*
X27696400Y-1176605D01*
X14954174Y-1176605D01*
X14921600Y-1120186D01*
X14828414Y-1027000D01*
X14714290Y-961110D01*
X14714281Y-961106D01*
X14586994Y-927000D01*
X14586992Y-927000D01*
X14455208Y-927000D01*
X14455206Y-927000D01*
X14327918Y-961106D01*
X14327909Y-961110D01*
X14213785Y-1027000D01*
X14120600Y-1120185D01*
X14054710Y-1234309D01*
X14054706Y-1234318D01*
X14020600Y-1361605D01*
X226763Y-1361605D01*
X352027Y-1059719D01*
X361684Y-1043015D01*
X651764Y-665364D01*
X665367Y-651761D01*
X1043013Y-361685D01*
X1059717Y-352028D01*
X1499217Y-169662D01*
X1517940Y-164643D01*
X2001776Y-101128D01*
X2011408Y-100500D01*
X60788592Y-100500D01*
X60798223Y-101128D01*
G37*
%TD.AperFunction*%
%TA.AperFunction,Conductor*%
G36*
X14548286Y-123479610D02*
G01*
X14558200Y-123516610D01*
X14558200Y-129812264D01*
X14578677Y-129888685D01*
X14578679Y-129888690D01*
X14614622Y-129950944D01*
X14614623Y-129950947D01*
X14618235Y-129957204D01*
X14618241Y-129957212D01*
X20455926Y-135794897D01*
X20477600Y-135847223D01*
X20477600Y-137427312D01*
X20455926Y-137479638D01*
X20403600Y-137501312D01*
X20384448Y-137498791D01*
X20293792Y-137474500D01*
X20162008Y-137474500D01*
X20162006Y-137474500D01*
X20034718Y-137508606D01*
X20034709Y-137508610D01*
X19920585Y-137574500D01*
X19827400Y-137667685D01*
X19761508Y-137781812D01*
X19761507Y-137781814D01*
X19760885Y-137784139D01*
X19760146Y-137785101D01*
X19759653Y-137786293D01*
X19759333Y-137786160D01*
X19726405Y-137829071D01*
X19670252Y-137836462D01*
X19637081Y-137817310D01*
X13975974Y-132156203D01*
X13954300Y-132103877D01*
X13954300Y-123524416D01*
X13975974Y-123472090D01*
X14028300Y-123450416D01*
X14050685Y-123454870D01*
X14050829Y-123454336D01*
X14055511Y-123455590D01*
X14055514Y-123455592D01*
X14182808Y-123489700D01*
X14182809Y-123489700D01*
X14314594Y-123489700D01*
X14314594Y-123489699D01*
X14441886Y-123455592D01*
X14447200Y-123452524D01*
X14503352Y-123445131D01*
X14548286Y-123479610D01*
G37*
%TD.AperFunction*%
%TA.AperFunction,Conductor*%
G36*
X11929626Y-50429597D02*
G01*
X15768626Y-54268597D01*
X15790300Y-54320923D01*
X15790300Y-97774564D01*
X15810777Y-97850985D01*
X15810779Y-97850989D01*
X15824630Y-97874979D01*
X15824631Y-97874981D01*
X15850339Y-97919510D01*
X16188626Y-98257797D01*
X16210300Y-98310123D01*
X16210300Y-107289364D01*
X16230777Y-107365785D01*
X16230780Y-107365793D01*
X16236771Y-107376168D01*
X16236772Y-107376169D01*
X16270340Y-107434311D01*
X16840526Y-108004497D01*
X16862200Y-108056823D01*
X16862200Y-115459434D01*
X16840526Y-115511760D01*
X16788200Y-115533434D01*
X16735874Y-115511760D01*
X16684714Y-115460600D01*
X16570590Y-115394710D01*
X16570581Y-115394706D01*
X16443294Y-115360600D01*
X16443292Y-115360600D01*
X16311508Y-115360600D01*
X16311506Y-115360600D01*
X16184218Y-115394706D01*
X16184209Y-115394710D01*
X16070085Y-115460600D01*
X15976900Y-115553785D01*
X15911010Y-115667909D01*
X15911006Y-115667918D01*
X15876900Y-115795205D01*
X15876900Y-115926994D01*
X15911006Y-116054281D01*
X15911010Y-116054290D01*
X15953354Y-116127632D01*
X15976900Y-116168414D01*
X16070086Y-116261600D01*
X16184214Y-116327492D01*
X16311505Y-116361599D01*
X16311506Y-116361600D01*
X16311508Y-116361600D01*
X16443294Y-116361600D01*
X16443294Y-116361599D01*
X16570586Y-116327492D01*
X16684714Y-116261600D01*
X16735874Y-116210440D01*
X16788200Y-116188766D01*
X16840526Y-116210440D01*
X16862200Y-116262766D01*
X16862200Y-121851764D01*
X16882678Y-121928188D01*
X16911414Y-121977961D01*
X16922236Y-121996705D01*
X16922236Y-121996706D01*
X16922238Y-121996708D01*
X16922240Y-121996711D01*
X17801926Y-122876397D01*
X17823600Y-122928722D01*
X17823600Y-132133977D01*
X17801926Y-132186303D01*
X17749600Y-132207977D01*
X17697274Y-132186303D01*
X15180874Y-129669903D01*
X15159200Y-129617577D01*
X15159200Y-127599305D01*
X16311100Y-127599305D01*
X16311100Y-127731094D01*
X16345206Y-127858381D01*
X16345207Y-127858384D01*
X16345208Y-127858386D01*
X16411100Y-127972514D01*
X16504286Y-128065700D01*
X16618414Y-128131592D01*
X16745705Y-128165699D01*
X16745706Y-128165700D01*
X16745708Y-128165700D01*
X16877494Y-128165700D01*
X16877494Y-128165699D01*
X17004786Y-128131592D01*
X17118914Y-128065700D01*
X17212100Y-127972514D01*
X17277992Y-127858386D01*
X17312099Y-127731094D01*
X17312100Y-127731094D01*
X17312100Y-127599306D01*
X17312099Y-127599305D01*
X17277993Y-127472018D01*
X17277992Y-127472014D01*
X17212100Y-127357886D01*
X17118914Y-127264700D01*
X17004790Y-127198810D01*
X17004781Y-127198806D01*
X16877494Y-127164700D01*
X16877492Y-127164700D01*
X16745708Y-127164700D01*
X16745706Y-127164700D01*
X16618418Y-127198806D01*
X16618409Y-127198810D01*
X16504285Y-127264700D01*
X16411100Y-127357885D01*
X16345210Y-127472009D01*
X16345206Y-127472018D01*
X16311100Y-127599305D01*
X15159200Y-127599305D01*
X15159200Y-124427205D01*
X16378100Y-124427205D01*
X16378100Y-124558994D01*
X16412206Y-124686281D01*
X16412210Y-124686290D01*
X16441826Y-124737586D01*
X16478100Y-124800414D01*
X16571286Y-124893600D01*
X16685414Y-124959492D01*
X16812705Y-124993599D01*
X16812706Y-124993600D01*
X16812708Y-124993600D01*
X16944494Y-124993600D01*
X16944494Y-124993599D01*
X17071786Y-124959492D01*
X17185914Y-124893600D01*
X17279100Y-124800414D01*
X17344992Y-124686286D01*
X17379099Y-124558994D01*
X17379100Y-124558994D01*
X17379100Y-124427206D01*
X17379099Y-124427205D01*
X17347478Y-124309194D01*
X17344992Y-124299914D01*
X17279100Y-124185786D01*
X17185914Y-124092600D01*
X17150740Y-124072292D01*
X17071790Y-124026710D01*
X17071781Y-124026706D01*
X16944494Y-123992600D01*
X16944492Y-123992600D01*
X16812708Y-123992600D01*
X16812706Y-123992600D01*
X16685418Y-124026706D01*
X16685409Y-124026710D01*
X16571285Y-124092600D01*
X16478100Y-124185785D01*
X16412210Y-124299909D01*
X16412206Y-124299918D01*
X16378100Y-124427205D01*
X15159200Y-124427205D01*
X15159200Y-119827605D01*
X15623200Y-119827605D01*
X15623200Y-119959394D01*
X15657306Y-120086681D01*
X15657310Y-120086690D01*
X15723200Y-120200814D01*
X15816386Y-120294000D01*
X15930514Y-120359892D01*
X16057805Y-120393999D01*
X16057806Y-120394000D01*
X16057808Y-120394000D01*
X16189594Y-120394000D01*
X16189594Y-120393999D01*
X16316886Y-120359892D01*
X16431014Y-120294000D01*
X16524200Y-120200814D01*
X16590092Y-120086686D01*
X16624199Y-119959394D01*
X16624200Y-119959394D01*
X16624200Y-119827606D01*
X16624199Y-119827605D01*
X16590093Y-119700318D01*
X16590092Y-119700314D01*
X16524200Y-119586186D01*
X16431014Y-119493000D01*
X16348569Y-119445400D01*
X16316890Y-119427110D01*
X16316881Y-119427106D01*
X16189594Y-119393000D01*
X16189592Y-119393000D01*
X16057808Y-119393000D01*
X16057806Y-119393000D01*
X15930518Y-119427106D01*
X15930509Y-119427110D01*
X15816385Y-119493000D01*
X15723200Y-119586185D01*
X15657310Y-119700309D01*
X15657306Y-119700318D01*
X15623200Y-119827605D01*
X15159200Y-119827605D01*
X15159200Y-93337736D01*
X15159199Y-93337735D01*
X15138722Y-93261314D01*
X15138720Y-93261309D01*
X15099159Y-93192788D01*
X11824974Y-89918603D01*
X11803300Y-89866277D01*
X11803300Y-50481923D01*
X11824974Y-50429597D01*
X11877300Y-50407923D01*
X11929626Y-50429597D01*
G37*
%TD.AperFunction*%
%TA.AperFunction,Conductor*%
G36*
X16517626Y-91427945D02*
G01*
X16526829Y-91439159D01*
X16565360Y-91496826D01*
X16614023Y-91569655D01*
X16760345Y-91715977D01*
X16932402Y-91830941D01*
X17123580Y-91910130D01*
X17326535Y-91950500D01*
X17326536Y-91950500D01*
X17533464Y-91950500D01*
X17533465Y-91950500D01*
X17736420Y-91910130D01*
X17927598Y-91830941D01*
X18099655Y-91715977D01*
X18176474Y-91639158D01*
X18228800Y-91617484D01*
X18281126Y-91639158D01*
X18302800Y-91691484D01*
X18302800Y-98395864D01*
X18323277Y-98472285D01*
X18323279Y-98472290D01*
X18362840Y-98540811D01*
X19294026Y-99471997D01*
X19315700Y-99524323D01*
X19315700Y-111028916D01*
X19294026Y-111081242D01*
X19241700Y-111102916D01*
X19204701Y-111093002D01*
X19173194Y-111074811D01*
X19173181Y-111074806D01*
X19045894Y-111040700D01*
X19045892Y-111040700D01*
X18914108Y-111040700D01*
X18914106Y-111040700D01*
X18786818Y-111074806D01*
X18786809Y-111074810D01*
X18672685Y-111140700D01*
X18579500Y-111233885D01*
X18513610Y-111348009D01*
X18513606Y-111348018D01*
X18479500Y-111475305D01*
X18479500Y-111607094D01*
X18513606Y-111734381D01*
X18513607Y-111734384D01*
X18513608Y-111734386D01*
X18579500Y-111848514D01*
X18672686Y-111941700D01*
X18786814Y-112007592D01*
X18914105Y-112041699D01*
X18914106Y-112041700D01*
X18914108Y-112041700D01*
X19045894Y-112041700D01*
X19045894Y-112041699D01*
X19173186Y-112007592D01*
X19204699Y-111989398D01*
X19260852Y-111982004D01*
X19305785Y-112016482D01*
X19315700Y-112053483D01*
X19315700Y-112531608D01*
X19294026Y-112583934D01*
X19241700Y-112605608D01*
X19204700Y-112595694D01*
X19138390Y-112557410D01*
X19138381Y-112557406D01*
X19011094Y-112523300D01*
X19011092Y-112523300D01*
X18879308Y-112523300D01*
X18879306Y-112523300D01*
X18752018Y-112557406D01*
X18752009Y-112557410D01*
X18637885Y-112623300D01*
X18544700Y-112716485D01*
X18478810Y-112830609D01*
X18478806Y-112830618D01*
X18444700Y-112957905D01*
X18444700Y-113089694D01*
X18478806Y-113216981D01*
X18478810Y-113216990D01*
X18537244Y-113318200D01*
X18544700Y-113331114D01*
X18637886Y-113424300D01*
X18752014Y-113490192D01*
X18879305Y-113524299D01*
X18879306Y-113524300D01*
X18879308Y-113524300D01*
X19011094Y-113524300D01*
X19011094Y-113524299D01*
X19138386Y-113490192D01*
X19204701Y-113451904D01*
X19260852Y-113444512D01*
X19305786Y-113478991D01*
X19315700Y-113515991D01*
X19315700Y-126709114D01*
X19294026Y-126761440D01*
X19241700Y-126783114D01*
X19222548Y-126780593D01*
X19130392Y-126755900D01*
X18998608Y-126755900D01*
X18998606Y-126755900D01*
X18871318Y-126790006D01*
X18871309Y-126790010D01*
X18757185Y-126855900D01*
X18664000Y-126949085D01*
X18598110Y-127063209D01*
X18598106Y-127063218D01*
X18570078Y-127167822D01*
X18535600Y-127212755D01*
X18479447Y-127220147D01*
X18434514Y-127185669D01*
X18424600Y-127148669D01*
X18424600Y-122734036D01*
X18424599Y-122734035D01*
X18404122Y-122657614D01*
X18404120Y-122657609D01*
X18364559Y-122589088D01*
X17484874Y-121709403D01*
X17463200Y-121657077D01*
X17463200Y-114232853D01*
X17484874Y-114180527D01*
X17537200Y-114158853D01*
X17589526Y-114180527D01*
X17601286Y-114195854D01*
X17616144Y-114221590D01*
X17620200Y-114228614D01*
X17713386Y-114321800D01*
X17827514Y-114387692D01*
X17954805Y-114421799D01*
X17954806Y-114421800D01*
X17954808Y-114421800D01*
X18086594Y-114421800D01*
X18086594Y-114421799D01*
X18213886Y-114387692D01*
X18328014Y-114321800D01*
X18421200Y-114228614D01*
X18487092Y-114114486D01*
X18521199Y-113987194D01*
X18521200Y-113987194D01*
X18521200Y-113855406D01*
X18521199Y-113855405D01*
X18489503Y-113737114D01*
X18487092Y-113728114D01*
X18421200Y-113613986D01*
X18328014Y-113520800D01*
X18316584Y-113514201D01*
X18213890Y-113454910D01*
X18213881Y-113454906D01*
X18086594Y-113420800D01*
X18086592Y-113420800D01*
X17954808Y-113420800D01*
X17954806Y-113420800D01*
X17827518Y-113454906D01*
X17827509Y-113454910D01*
X17713385Y-113520800D01*
X17620200Y-113613985D01*
X17601286Y-113646746D01*
X17556352Y-113681225D01*
X17500200Y-113673832D01*
X17465721Y-113628898D01*
X17463200Y-113609746D01*
X17463200Y-107862136D01*
X17463199Y-107862135D01*
X17442722Y-107785714D01*
X17442720Y-107785709D01*
X17403159Y-107717188D01*
X16988212Y-107302241D01*
X16966538Y-107249915D01*
X16988212Y-107197589D01*
X17040538Y-107175915D01*
X17059691Y-107178437D01*
X17095005Y-107187899D01*
X17095006Y-107187900D01*
X17095008Y-107187900D01*
X17226794Y-107187900D01*
X17226794Y-107187899D01*
X17354086Y-107153792D01*
X17468214Y-107087900D01*
X17561400Y-106994714D01*
X17627292Y-106880586D01*
X17661399Y-106753294D01*
X17661400Y-106753294D01*
X17661400Y-106621506D01*
X17661399Y-106621505D01*
X17627293Y-106494218D01*
X17627292Y-106494214D01*
X17561400Y-106380086D01*
X17468214Y-106286900D01*
X17399499Y-106247227D01*
X17354090Y-106221010D01*
X17354081Y-106221006D01*
X17226794Y-106186900D01*
X17226792Y-106186900D01*
X17095008Y-106186900D01*
X17095006Y-106186900D01*
X16967718Y-106221006D01*
X16967705Y-106221011D01*
X16922299Y-106247227D01*
X16866147Y-106254619D01*
X16821214Y-106220140D01*
X16811300Y-106183141D01*
X16811300Y-103406705D01*
X17894900Y-103406705D01*
X17894900Y-103538494D01*
X17929006Y-103665781D01*
X17929007Y-103665784D01*
X17929008Y-103665786D01*
X17994900Y-103779914D01*
X18088086Y-103873100D01*
X18202214Y-103938992D01*
X18329505Y-103973099D01*
X18329506Y-103973100D01*
X18329508Y-103973100D01*
X18461294Y-103973100D01*
X18461294Y-103973099D01*
X18588586Y-103938992D01*
X18702714Y-103873100D01*
X18795900Y-103779914D01*
X18861792Y-103665786D01*
X18895900Y-103538492D01*
X18895900Y-103406708D01*
X18895900Y-103406706D01*
X18895899Y-103406705D01*
X18888424Y-103378809D01*
X18861792Y-103279414D01*
X18795900Y-103165286D01*
X18702714Y-103072100D01*
X18701675Y-103071500D01*
X18588590Y-103006210D01*
X18588581Y-103006206D01*
X18461294Y-102972100D01*
X18461292Y-102972100D01*
X18329508Y-102972100D01*
X18329506Y-102972100D01*
X18202218Y-103006206D01*
X18202209Y-103006210D01*
X18088085Y-103072100D01*
X17994900Y-103165285D01*
X17929010Y-103279409D01*
X17929006Y-103279418D01*
X17894900Y-103406705D01*
X16811300Y-103406705D01*
X16811300Y-98115440D01*
X16811300Y-98115438D01*
X16790822Y-98039012D01*
X16751260Y-97970489D01*
X16412974Y-97632203D01*
X16391300Y-97579877D01*
X16391300Y-91480271D01*
X16412974Y-91427945D01*
X16465300Y-91406271D01*
X16517626Y-91427945D01*
G37*
%TD.AperFunction*%
%TA.AperFunction,Conductor*%
G36*
X19030126Y-91386788D02*
G01*
X19039329Y-91398002D01*
X19105360Y-91496826D01*
X19154023Y-91569655D01*
X19300345Y-91715977D01*
X19472402Y-91830941D01*
X19663580Y-91910130D01*
X19866535Y-91950500D01*
X19866536Y-91950500D01*
X20073464Y-91950500D01*
X20073465Y-91950500D01*
X20276420Y-91910130D01*
X20467598Y-91830941D01*
X20639655Y-91715977D01*
X20747574Y-91608058D01*
X20799900Y-91586384D01*
X20852226Y-91608058D01*
X20873900Y-91660384D01*
X20873900Y-106551924D01*
X20852226Y-106604250D01*
X20799900Y-106625924D01*
X20780748Y-106623403D01*
X20675492Y-106595200D01*
X20543708Y-106595200D01*
X20543706Y-106595200D01*
X20416418Y-106629306D01*
X20416409Y-106629310D01*
X20302285Y-106695200D01*
X20209100Y-106788385D01*
X20143210Y-106902509D01*
X20143206Y-106902518D01*
X20109100Y-107029805D01*
X20109100Y-107161594D01*
X20143206Y-107288881D01*
X20143210Y-107288890D01*
X20187606Y-107365785D01*
X20209100Y-107403014D01*
X20302286Y-107496200D01*
X20416414Y-107562092D01*
X20543705Y-107596199D01*
X20543706Y-107596200D01*
X20543708Y-107596200D01*
X20675494Y-107596200D01*
X20675494Y-107596199D01*
X20780747Y-107567997D01*
X20836900Y-107575389D01*
X20871378Y-107620322D01*
X20873900Y-107639475D01*
X20873900Y-118806076D01*
X20852226Y-118858402D01*
X20286902Y-119423726D01*
X20234576Y-119445400D01*
X20123808Y-119445400D01*
X20009852Y-119475934D01*
X19953700Y-119468541D01*
X19919221Y-119423607D01*
X19916700Y-119404455D01*
X19916700Y-99329636D01*
X19916699Y-99329635D01*
X19896222Y-99253214D01*
X19896220Y-99253209D01*
X19856659Y-99184688D01*
X18925474Y-98253503D01*
X18903800Y-98201177D01*
X18903800Y-91439114D01*
X18925474Y-91386788D01*
X18977800Y-91365114D01*
X19030126Y-91386788D01*
G37*
%TD.AperFunction*%
%TD*%
M02*
