%TF.GenerationSoftware,KiCad,Pcbnew,10.0.6*%
%TF.CreationDate,2026-09-24T15:09:47-04:00*%
%TF.ProjectId,qurannode,71757261-6e6e-46f6-9465-2e6b69636164,rev?*%
%TF.SameCoordinates,Original*%
%TF.FileFunction,Soldermask,Top*%
%TF.FilePolarity,Negative*%
%FSLAX46Y46*%
G04 Gerber Fmt 4.6, Leading zero omitted, Abs format (unit mm)*
G04 Created by KiCad (PCBNEW 10.0.6) date 2026-09-24 15:09:47*
%MOMM*%
%LPD*%
G01*
G04 APERTURE LIST*
G04 Aperture macros list*
%AMRoundRect*
0 Rectangle with rounded corners*
0 $1 Rounding radius*
0 $2 $3 $4 $5 $6 $7 $8 $9 X,Y pos of 4 corners*
0 Add a 4 corners polygon primitive as box body*
4,1,4,$2,$3,$4,$5,$6,$7,$8,$9,$2,$3,0*
0 Add four circle primitives for the rounded corners*
1,1,$1+$1,$2,$3*
1,1,$1+$1,$4,$5*
1,1,$1+$1,$6,$7*
1,1,$1+$1,$8,$9*
0 Add four rect primitives between the rounded corners*
20,1,$1+$1,$2,$3,$4,$5,0*
20,1,$1+$1,$4,$5,$6,$7,0*
20,1,$1+$1,$6,$7,$8,$9,0*
20,1,$1+$1,$8,$9,$2,$3,0*%
%AMFreePoly0*
4,1,64,0.235856,1.440014,0.383010,1.379061,0.515445,1.290571,0.628071,1.177945,0.716561,1.045510,0.777514,0.898356,0.808588,0.742139,0.808588,0.582861,0.777514,0.426644,0.716561,0.279490,0.628071,0.147055,0.515445,0.034429,0.383010,-0.054061,0.235856,-0.115014,0.079639,-0.146088,0.031751,-0.146088,0.029264,-0.147118,-0.029264,-0.147118,-0.031751,-0.146088,-0.079639,-0.146088,
-0.235856,-0.115014,-0.383010,-0.054061,-0.515445,0.034429,-0.628071,0.147055,-0.716561,0.279490,-0.777514,0.426644,-0.808588,0.582861,-0.808588,0.729972,-0.512500,0.729972,-0.512500,0.595028,-0.477574,0.464683,-0.410102,0.347818,-0.314682,0.252398,-0.197817,0.184926,-0.067472,0.150000,0.067472,0.150000,0.197817,0.184926,0.314682,0.252398,0.410102,0.347818,0.477574,0.464683,
0.512500,0.595028,0.512500,0.729972,0.477574,0.860317,0.410102,0.977182,0.314682,1.072602,0.197817,1.140074,0.067472,1.175000,-0.067472,1.175000,-0.197817,1.140074,-0.314682,1.072602,-0.410102,0.977182,-0.477574,0.860317,-0.512500,0.729972,-0.808588,0.729972,-0.808588,0.742139,-0.777514,0.898356,-0.716561,1.045510,-0.628071,1.177945,-0.515445,1.290571,-0.383010,1.379061,
-0.235856,1.440014,-0.079639,1.471088,0.079639,1.471088,0.235856,1.440014,0.235856,1.440014,$1*%
G04 Aperture macros list end*
%ADD10RoundRect,0.250000X-0.250000X-0.475000X0.250000X-0.475000X0.250000X0.475000X-0.250000X0.475000X0*%
%ADD11RoundRect,0.135000X-0.135000X-0.185000X0.135000X-0.185000X0.135000X0.185000X-0.135000X0.185000X0*%
%ADD12RoundRect,0.150000X-0.587500X-0.150000X0.587500X-0.150000X0.587500X0.150000X-0.587500X0.150000X0*%
%ADD13RoundRect,0.150000X-0.825000X-0.150000X0.825000X-0.150000X0.825000X0.150000X-0.825000X0.150000X0*%
%ADD14R,2.410000X3.300000*%
%ADD15R,1.500000X0.900000*%
%ADD16R,0.900000X1.500000*%
%ADD17C,0.600000*%
%ADD18R,3.900000X3.900000*%
%ADD19RoundRect,0.250000X-0.350000X-0.625000X0.350000X-0.625000X0.350000X0.625000X-0.350000X0.625000X0*%
%ADD20O,1.200000X1.750000*%
%ADD21RoundRect,0.225000X-0.225000X-0.250000X0.225000X-0.250000X0.225000X0.250000X-0.225000X0.250000X0*%
%ADD22RoundRect,0.140000X-0.140000X-0.170000X0.140000X-0.170000X0.140000X0.170000X-0.140000X0.170000X0*%
%ADD23R,0.700000X1.200000*%
%ADD24R,1.000000X0.800000*%
%ADD25R,1.000000X1.200000*%
%ADD26R,1.000000X2.800000*%
%ADD27R,1.300000X1.900000*%
%ADD28R,1.700000X1.700000*%
%ADD29C,1.700000*%
%ADD30RoundRect,0.218750X-0.218750X-0.256250X0.218750X-0.256250X0.218750X0.256250X-0.218750X0.256250X0*%
%ADD31RoundRect,0.054000X-0.346000X-0.081000X0.346000X-0.081000X0.346000X0.081000X-0.346000X0.081000X0*%
%ADD32C,0.500000*%
%ADD33RoundRect,0.079000X-0.711000X-1.346000X0.711000X-1.346000X0.711000X1.346000X-0.711000X1.346000X0*%
%ADD34C,0.650000*%
%ADD35RoundRect,0.150000X-0.150000X-0.425000X0.150000X-0.425000X0.150000X0.425000X-0.150000X0.425000X0*%
%ADD36RoundRect,0.075000X-0.075000X-0.500000X0.075000X-0.500000X0.075000X0.500000X-0.075000X0.500000X0*%
%ADD37O,1.000000X2.100000*%
%ADD38O,1.000000X1.600000*%
%ADD39RoundRect,0.100000X-0.637500X-0.100000X0.637500X-0.100000X0.637500X0.100000X-0.637500X0.100000X0*%
%ADD40R,1.700000X1.000000*%
%ADD41R,0.600000X0.522000*%
%ADD42FreePoly0,90.000000*%
%ADD43RoundRect,0.275000X-0.725000X-0.275000X0.725000X-0.275000X0.725000X0.275000X-0.725000X0.275000X0*%
%ADD44RoundRect,0.112500X-0.187500X-0.112500X0.187500X-0.112500X0.187500X0.112500X-0.187500X0.112500X0*%
%ADD45RoundRect,0.150000X-0.512500X-0.150000X0.512500X-0.150000X0.512500X0.150000X-0.512500X0.150000X0*%
%ADD46C,1.500000*%
%ADD47R,2.500000X1.500000*%
%ADD48R,3.400000X1.500000*%
%ADD49RoundRect,0.225000X-0.525000X-1.025000X0.525000X-1.025000X0.525000X1.025000X-0.525000X1.025000X0*%
%ADD50RoundRect,0.100000X-0.712500X-0.100000X0.712500X-0.100000X0.712500X0.100000X-0.712500X0.100000X0*%
G04 APERTURE END LIST*
D10*
%TO.C,C8*%
X41702700Y-112750100D03*
X43602700Y-112750100D03*
%TD*%
D11*
%TO.C,R10*%
X17000700Y-113149000D03*
X18020700Y-113149000D03*
%TD*%
%TO.C,R26*%
X41424500Y-40978400D03*
X42444500Y-40978400D03*
%TD*%
D12*
%TO.C,Q1*%
X14248700Y-120336400D03*
X14248700Y-122236400D03*
X16123700Y-121286400D03*
%TD*%
D13*
%TO.C,U4*%
X43809000Y-134782500D03*
X43809000Y-136052500D03*
X43809000Y-137322500D03*
X43809000Y-138592500D03*
X48759000Y-138592500D03*
X48759000Y-137322500D03*
X48759000Y-136052500D03*
X48759000Y-134782500D03*
D14*
X46284000Y-136687500D03*
%TD*%
D11*
%TO.C,R29*%
X32161400Y-7337400D03*
X33181400Y-7337400D03*
%TD*%
D15*
%TO.C,U1*%
X6650000Y-40720000D03*
X6650000Y-41990000D03*
X6650000Y-43260000D03*
X6650000Y-44530000D03*
X6650000Y-45800000D03*
X6650000Y-47070000D03*
X6650000Y-48340000D03*
X6650000Y-49610000D03*
X6650000Y-50880000D03*
X6650000Y-52150000D03*
X6650000Y-53420000D03*
X6650000Y-54690000D03*
X6650000Y-55960000D03*
X6650000Y-57230000D03*
D16*
X8415000Y-58480000D03*
X9685000Y-58480000D03*
X10955000Y-58480000D03*
X12225000Y-58480000D03*
X13495000Y-58480000D03*
X14765000Y-58480000D03*
X16035000Y-58480000D03*
X17305000Y-58480000D03*
X18575000Y-58480000D03*
X19845000Y-58480000D03*
X21115000Y-58480000D03*
X22385000Y-58480000D03*
D15*
X24150000Y-57230000D03*
X24150000Y-55960000D03*
X24150000Y-54690000D03*
X24150000Y-53420000D03*
X24150000Y-52150000D03*
X24150000Y-50880000D03*
X24150000Y-49610000D03*
X24150000Y-48340000D03*
X24150000Y-47070000D03*
X24150000Y-45800000D03*
X24150000Y-44530000D03*
X24150000Y-43260000D03*
X24150000Y-41990000D03*
X24150000Y-40720000D03*
D17*
X12500000Y-47740000D03*
X12500000Y-49140000D03*
X13200000Y-47040000D03*
X13200000Y-48440000D03*
X13200000Y-49840000D03*
X13900000Y-47740000D03*
D18*
X13900000Y-48440000D03*
D17*
X13900000Y-49140000D03*
X14600000Y-47040000D03*
X14600000Y-48440000D03*
X14600000Y-49840000D03*
X15300000Y-47740000D03*
X15300000Y-49140000D03*
%TD*%
D19*
%TO.C,J5*%
X28400000Y-111600000D03*
D20*
X30400000Y-111600000D03*
%TD*%
D11*
%TO.C,R7*%
X52074000Y-136687500D03*
X53094000Y-136687500D03*
%TD*%
%TO.C,R14*%
X44987900Y-75176100D03*
X46007900Y-75176100D03*
%TD*%
%TO.C,R24*%
X47522200Y-61004700D03*
X48542200Y-61004700D03*
%TD*%
%TO.C,R8*%
X40506000Y-128512500D03*
X41526000Y-128512500D03*
%TD*%
D21*
%TO.C,C17*%
X21023800Y-114166300D03*
X22573800Y-114166300D03*
%TD*%
D22*
%TO.C,C13*%
X21057400Y-103757000D03*
X22017400Y-103757000D03*
%TD*%
D23*
%TO.C,J2*%
X19550000Y-16375000D03*
X20650000Y-16375000D03*
X21750000Y-16375000D03*
X22850000Y-16375000D03*
X23950000Y-16375000D03*
X25050000Y-16375000D03*
X26150000Y-16375000D03*
X27250000Y-16375000D03*
X28200000Y-16375000D03*
D24*
X29150000Y-5875000D03*
D25*
X29150000Y-12075000D03*
D26*
X29150000Y-1725000D03*
D25*
X18000000Y-16375000D03*
D27*
X15650000Y-1275000D03*
%TD*%
D12*
%TO.C,Q3*%
X42736300Y-117483200D03*
X42736300Y-119383200D03*
X44611300Y-118433200D03*
%TD*%
D10*
%TO.C,C4*%
X36360700Y-113149000D03*
X38260700Y-113149000D03*
%TD*%
D28*
%TO.C,J3*%
X14890000Y-90900000D03*
D29*
X17430000Y-90900000D03*
X19970000Y-90900000D03*
X22510000Y-90900000D03*
X25050000Y-90900000D03*
X27590000Y-90900000D03*
X30130000Y-90900000D03*
X32670000Y-90900000D03*
X35210000Y-90900000D03*
X37750000Y-90900000D03*
X40290000Y-90900000D03*
X42830000Y-90900000D03*
X45370000Y-90900000D03*
X47910000Y-90900000D03*
%TD*%
D12*
%TO.C,Q2*%
X41404500Y-123193800D03*
X41404500Y-125093800D03*
X43279500Y-124143800D03*
%TD*%
D30*
%TO.C,D3*%
X53907200Y-142895800D03*
X55482200Y-142895800D03*
%TD*%
D22*
%TO.C,C11*%
X24800100Y-105569100D03*
X25760100Y-105569100D03*
%TD*%
D31*
%TO.C,U5*%
X4696900Y-113366100D03*
X4696900Y-113866100D03*
X4696900Y-114366100D03*
X4696900Y-114866100D03*
X4696900Y-115366100D03*
X4696900Y-115866100D03*
X4696900Y-116366100D03*
X7796900Y-116366100D03*
X7796900Y-115866100D03*
X7796900Y-115366100D03*
X7796900Y-114866100D03*
X7796900Y-114366100D03*
X7796900Y-113866100D03*
X7796900Y-113366100D03*
D32*
X5796900Y-114016100D03*
X5796900Y-114866100D03*
X5796900Y-115716100D03*
D33*
X6246900Y-114866100D03*
D32*
X6696900Y-114016100D03*
X6696900Y-114866100D03*
X6696900Y-115716100D03*
%TD*%
D10*
%TO.C,C6*%
X11121900Y-110634100D03*
X13021900Y-110634100D03*
%TD*%
D19*
%TO.C,J4*%
X46400000Y-15600000D03*
D20*
X48400000Y-15600000D03*
%TD*%
D22*
%TO.C,C25*%
X15960600Y-107460000D03*
X16920600Y-107460000D03*
%TD*%
D11*
%TO.C,R28*%
X32690000Y-4000000D03*
X33710000Y-4000000D03*
%TD*%
%TO.C,R20*%
X23336800Y-133608300D03*
X24356800Y-133608300D03*
%TD*%
D10*
%TO.C,C27*%
X36605900Y-109047000D03*
X38505900Y-109047000D03*
%TD*%
D34*
%TO.C,J1*%
X42510000Y-144692500D03*
X48290000Y-144692500D03*
D35*
X42200000Y-143627500D03*
X43000000Y-143627500D03*
D36*
X44150000Y-143627500D03*
X45150000Y-143627500D03*
X45650000Y-143627500D03*
X46650000Y-143627500D03*
D35*
X47800000Y-143627500D03*
X48600000Y-143627500D03*
X48600000Y-143627500D03*
X47800000Y-143627500D03*
D36*
X47150000Y-143627500D03*
X46150000Y-143627500D03*
X44650000Y-143627500D03*
X43650000Y-143627500D03*
D35*
X43000000Y-143627500D03*
X42200000Y-143627500D03*
D37*
X41080000Y-144192500D03*
D38*
X41080000Y-148372500D03*
D37*
X49720000Y-144192500D03*
D38*
X49720000Y-148372500D03*
%TD*%
D11*
%TO.C,R16*%
X41424500Y-58221600D03*
X42444500Y-58221600D03*
%TD*%
D21*
%TO.C,C18*%
X23071800Y-145591700D03*
X24621800Y-145591700D03*
%TD*%
D11*
%TO.C,R11*%
X43889100Y-61936800D03*
X44909100Y-61936800D03*
%TD*%
D39*
%TO.C,U2*%
X19037500Y-136675000D03*
X19037500Y-137325000D03*
X19037500Y-137975000D03*
X19037500Y-138625000D03*
X19037500Y-139275000D03*
X19037500Y-139925000D03*
X19037500Y-140575000D03*
X19037500Y-141225000D03*
X19037500Y-141875000D03*
X19037500Y-142525000D03*
X24762500Y-142525000D03*
X24762500Y-141875000D03*
X24762500Y-141225000D03*
X24762500Y-140575000D03*
X24762500Y-139925000D03*
X24762500Y-139275000D03*
X24762500Y-138625000D03*
X24762500Y-137975000D03*
X24762500Y-137325000D03*
X24762500Y-136675000D03*
%TD*%
D11*
%TO.C,R1*%
X19128500Y-126062300D03*
X20148500Y-126062300D03*
%TD*%
D40*
%TO.C,SW3*%
X51189200Y-117704500D03*
X57489200Y-117704500D03*
X51189200Y-121504500D03*
X57489200Y-121504500D03*
%TD*%
D10*
%TO.C,C15*%
X15540600Y-103642200D03*
X17440600Y-103642200D03*
%TD*%
D22*
%TO.C,C16*%
X25606300Y-117590200D03*
X26566300Y-117590200D03*
%TD*%
D30*
%TO.C,FB2*%
X44665700Y-9608300D03*
X46240700Y-9608300D03*
%TD*%
D40*
%TO.C,SW2*%
X50798800Y-108804800D03*
X57098800Y-108804800D03*
X50798800Y-112604800D03*
X57098800Y-112604800D03*
%TD*%
D22*
%TO.C,C9*%
X4883200Y-107257700D03*
X5843200Y-107257700D03*
%TD*%
%TO.C,C22*%
X32755600Y-117381100D03*
X33715600Y-117381100D03*
%TD*%
D11*
%TO.C,R12*%
X21616500Y-129412100D03*
X22636500Y-129412100D03*
%TD*%
%TO.C,R30*%
X10762600Y-7615500D03*
X11782600Y-7615500D03*
%TD*%
%TO.C,R3*%
X46526600Y-114054300D03*
X47546600Y-114054300D03*
%TD*%
D22*
%TO.C,C1*%
X29013300Y-117848400D03*
X29973300Y-117848400D03*
%TD*%
D11*
%TO.C,R18*%
X48612200Y-75570700D03*
X49632200Y-75570700D03*
%TD*%
%TO.C,R9*%
X46390000Y-49600000D03*
X47410000Y-49600000D03*
%TD*%
D22*
%TO.C,C24*%
X19649600Y-107858900D03*
X20609600Y-107858900D03*
%TD*%
D11*
%TO.C,R23*%
X15858600Y-125267100D03*
X16878600Y-125267100D03*
%TD*%
%TO.C,R13*%
X41293500Y-54884600D03*
X42313500Y-54884600D03*
%TD*%
%TO.C,R27*%
X15791600Y-128439400D03*
X16811600Y-128439400D03*
%TD*%
D32*
%TO.C,MK1*%
X9400000Y-105637000D03*
D41*
X8500000Y-103563000D03*
X8500000Y-104385000D03*
D42*
X10062500Y-105637000D03*
D41*
X10300000Y-104385000D03*
X10300000Y-103563000D03*
X9400000Y-103563000D03*
%TD*%
D43*
%TO.C,SW1*%
X26000000Y-123100000D03*
X26000000Y-125600000D03*
X26000000Y-128100000D03*
X36800000Y-123100000D03*
X36800000Y-125600000D03*
X36800000Y-128100000D03*
%TD*%
D44*
%TO.C,D1*%
X1950000Y-103999200D03*
X4050000Y-103999200D03*
%TD*%
D11*
%TO.C,R19*%
X19443200Y-133608300D03*
X20463200Y-133608300D03*
%TD*%
%TO.C,R2*%
X41287800Y-109962700D03*
X42307800Y-109962700D03*
%TD*%
D22*
%TO.C,C10*%
X21968800Y-110704800D03*
X22928800Y-110704800D03*
%TD*%
D10*
%TO.C,C23*%
X19907700Y-117910100D03*
X21807700Y-117910100D03*
%TD*%
D21*
%TO.C,C19*%
X9625000Y-132700000D03*
X11175000Y-132700000D03*
%TD*%
D11*
%TO.C,R5*%
X9651600Y-119894800D03*
X10671600Y-119894800D03*
%TD*%
D45*
%TO.C,U6*%
X30533700Y-133339200D03*
X30533700Y-134289200D03*
X30533700Y-135239200D03*
X32808700Y-135239200D03*
X32808700Y-134289200D03*
X32808700Y-133339200D03*
%TD*%
D22*
%TO.C,C21*%
X41720000Y-75000000D03*
X42680000Y-75000000D03*
%TD*%
%TO.C,C12*%
X29066600Y-103228000D03*
X30026600Y-103228000D03*
%TD*%
D10*
%TO.C,C2*%
X36847200Y-116681500D03*
X38747200Y-116681500D03*
%TD*%
D11*
%TO.C,R25*%
X49743700Y-69348200D03*
X50763700Y-69348200D03*
%TD*%
%TO.C,R21*%
X28590000Y-139600000D03*
X29610000Y-139600000D03*
%TD*%
%TO.C,R6*%
X44105300Y-131551800D03*
X45125300Y-131551800D03*
%TD*%
D30*
%TO.C,D2*%
X39082200Y-138663800D03*
X40657200Y-138663800D03*
%TD*%
D21*
%TO.C,C20*%
X5175200Y-130704800D03*
X6725200Y-130704800D03*
%TD*%
D10*
%TO.C,C3*%
X20356300Y-123428900D03*
X22256300Y-123428900D03*
%TD*%
D11*
%TO.C,R4*%
X52972400Y-139505900D03*
X53992400Y-139505900D03*
%TD*%
D46*
%TO.C,J6*%
X10400000Y-141050000D03*
D47*
X14050000Y-146050000D03*
X14050000Y-140950000D03*
D48*
X7400000Y-148750000D03*
D47*
X14050000Y-148750000D03*
X6750000Y-142250000D03*
D48*
X7200000Y-140050000D03*
%TD*%
D11*
%TO.C,R17*%
X10175700Y-115989000D03*
X11195700Y-115989000D03*
%TD*%
D49*
%TO.C,L1*%
X41928000Y-66006900D03*
X45628000Y-66006900D03*
%TD*%
D11*
%TO.C,R22*%
X29093600Y-142103000D03*
X30113600Y-142103000D03*
%TD*%
D50*
%TO.C,U3*%
X5905300Y-123484000D03*
X5905300Y-124134000D03*
X5905300Y-124784000D03*
X5905300Y-125434000D03*
X10130300Y-125434000D03*
X10130300Y-124784000D03*
X10130300Y-124134000D03*
X10130300Y-123484000D03*
%TD*%
D30*
%TO.C,FB1*%
X48559300Y-21591700D03*
X50134300Y-21591700D03*
%TD*%
D22*
%TO.C,C28*%
X18020000Y-110776600D03*
X18980000Y-110776600D03*
%TD*%
D10*
%TO.C,C5*%
X14477400Y-117042600D03*
X16377400Y-117042600D03*
%TD*%
%TO.C,C26*%
X37795300Y-104754700D03*
X39695300Y-104754700D03*
%TD*%
D22*
%TO.C,C14*%
X33129600Y-103086000D03*
X34089600Y-103086000D03*
%TD*%
D10*
%TO.C,C7*%
X42931000Y-106423400D03*
X44831000Y-106423400D03*
%TD*%
D11*
%TO.C,R15*%
X42864700Y-51518700D03*
X43884700Y-51518700D03*
%TD*%
M02*
