%TF.GenerationSoftware,KiCad,Pcbnew,10.0.6*%
%TF.CreationDate,2026-09-24T15:09:47-04:00*%
%TF.ProjectId,qurannode,71757261-6e6e-46f6-9465-2e6b69636164,rev?*%
%TF.SameCoordinates,Original*%
%TF.FileFunction,Copper,L2,Inr*%
%TF.FilePolarity,Positive*%
%FSLAX46Y46*%
G04 Gerber Fmt 4.6, Leading zero omitted, Abs format (unit mm)*
G04 Created by KiCad (PCBNEW 10.0.6) date 2026-09-24 15:09:47*
%MOMM*%
%LPD*%
G01*
G04 APERTURE LIST*
G04 Aperture macros list*
%AMRoundRect*
0 Rectangle with rounded corners*
0 $1 Rounding radius*
0 $2 $3 $4 $5 $6 $7 $8 $9 X,Y pos of 4 corners*
0 Add a 4 corners polygon primitive as box body*
4,1,4,$2,$3,$4,$5,$6,$7,$8,$9,$2,$3,0*
0 Add four circle primitives for the rounded corners*
1,1,$1+$1,$2,$3*
1,1,$1+$1,$4,$5*
1,1,$1+$1,$6,$7*
1,1,$1+$1,$8,$9*
0 Add four rect primitives between the rounded corners*
20,1,$1+$1,$2,$3,$4,$5,0*
20,1,$1+$1,$4,$5,$6,$7,0*
20,1,$1+$1,$6,$7,$8,$9,0*
20,1,$1+$1,$8,$9,$2,$3,0*%
G04 Aperture macros list end*
%TA.AperFunction,HeatsinkPad*%
%ADD10C,0.600000*%
%TD*%
%TA.AperFunction,ComponentPad*%
%ADD11RoundRect,0.250000X-0.350000X-0.625000X0.350000X-0.625000X0.350000X0.625000X-0.350000X0.625000X0*%
%TD*%
%TA.AperFunction,ComponentPad*%
%ADD12O,1.200000X1.750000*%
%TD*%
%TA.AperFunction,ComponentPad*%
%ADD13R,1.700000X1.700000*%
%TD*%
%TA.AperFunction,ComponentPad*%
%ADD14C,1.700000*%
%TD*%
%TA.AperFunction,ComponentPad*%
%ADD15C,0.500000*%
%TD*%
%TA.AperFunction,ComponentPad*%
%ADD16O,1.000000X2.100000*%
%TD*%
%TA.AperFunction,ComponentPad*%
%ADD17O,1.000000X1.600000*%
%TD*%
%TA.AperFunction,ViaPad*%
%ADD18C,0.600000*%
%TD*%
%TA.AperFunction,Conductor*%
%ADD19C,0.200000*%
%TD*%
G04 APERTURE END LIST*
D10*
%TO.N,GND*%
%TO.C,U1*%
X12500000Y-47740000D03*
X12500000Y-49140000D03*
X13200000Y-47040000D03*
X13200000Y-48440000D03*
X13200000Y-49840000D03*
X13900000Y-47740000D03*
X13900000Y-49140000D03*
X14600000Y-47040000D03*
X14600000Y-48440000D03*
X14600000Y-49840000D03*
X15300000Y-47740000D03*
X15300000Y-49140000D03*
%TD*%
D11*
%TO.N,VBAT*%
%TO.C,J5*%
X28400000Y-111600000D03*
D12*
%TO.N,GND*%
X30400000Y-111600000D03*
%TD*%
D13*
%TO.N,+3V3*%
%TO.C,J3*%
X14890000Y-90900000D03*
D14*
%TO.N,GND*%
X17430000Y-90900000D03*
%TO.N,DISP_CS*%
X19970000Y-90900000D03*
%TO.N,DISP_RST*%
X22510000Y-90900000D03*
%TO.N,DISP_DC*%
X25050000Y-90900000D03*
%TO.N,DISP_MOSI*%
X27590000Y-90900000D03*
%TO.N,DISP_CLK*%
X30130000Y-90900000D03*
%TO.N,N$22*%
X32670000Y-90900000D03*
%TO.N,N/C*%
X35210000Y-90900000D03*
%TO.N,TOUCH_SCL*%
X37750000Y-90900000D03*
%TO.N,DISP_RST*%
X40290000Y-90900000D03*
%TO.N,TOUCH_SDA*%
X42830000Y-90900000D03*
%TO.N,N/C*%
X45370000Y-90900000D03*
X47910000Y-90900000D03*
%TD*%
D15*
%TO.N,GND*%
%TO.C,U5*%
X5796900Y-114016100D03*
X5796900Y-114866100D03*
X5796900Y-115716100D03*
X6696900Y-114016100D03*
X6696900Y-114866100D03*
X6696900Y-115716100D03*
%TD*%
D11*
%TO.N,SPK_P*%
%TO.C,J4*%
X46400000Y-15600000D03*
D12*
%TO.N,SPK_N*%
X48400000Y-15600000D03*
%TD*%
D16*
%TO.N,GND*%
%TO.C,J1*%
X41080000Y-144192500D03*
D17*
X41080000Y-148372500D03*
D16*
X49720000Y-144192500D03*
D17*
X49720000Y-148372500D03*
%TD*%
D18*
%TO.N,+3V3*%
X20322100Y-103636700D03*
X33129600Y-103851300D03*
X18020000Y-110011600D03*
X49632200Y-74795900D03*
X19170700Y-136018400D03*
X17838600Y-141225000D03*
X33710000Y-4783100D03*
X4146000Y-107178100D03*
X50763700Y-70125500D03*
X44987900Y-74402800D03*
X43889100Y-62710100D03*
X15960600Y-108222800D03*
X36836700Y-104450900D03*
X3835700Y-115167000D03*
X36605900Y-110229900D03*
X48542200Y-60231300D03*
X24762500Y-136012400D03*
X33921700Y-7262600D03*
X10151100Y-110405400D03*
X11782600Y-6811600D03*
X41704300Y-111571500D03*
X15540600Y-104821300D03*
X11058100Y-103356600D03*
X41949100Y-106892900D03*
X42313500Y-54101500D03*
X42864700Y-52292000D03*
X7870500Y-41990000D03*
X29066600Y-104000600D03*
X22850000Y-15319000D03*
%TO.N,GND*%
X14248700Y-122989200D03*
X25238600Y-15304200D03*
X22017400Y-104519400D03*
X14521100Y-1427500D03*
X33715600Y-118153000D03*
X58812600Y-121326700D03*
X10671600Y-119110800D03*
X17040500Y-16167200D03*
X24762500Y-143188700D03*
X18395400Y-103472600D03*
X23245000Y-109938800D03*
X20609600Y-107095700D03*
X42374100Y-137221600D03*
X22792000Y-118059200D03*
X39484200Y-109247200D03*
X39695300Y-103572000D03*
X23214100Y-123222100D03*
X48600000Y-142595300D03*
X11402400Y-123605900D03*
X42307800Y-109190200D03*
X36800000Y-129106300D03*
X18980000Y-111541200D03*
X13021900Y-109455700D03*
X42736300Y-120137300D03*
X39727000Y-116560200D03*
X15756400Y-148545300D03*
X44831000Y-105239500D03*
X25760100Y-104805100D03*
X39242800Y-113286200D03*
X28198100Y-12177600D03*
X22636500Y-128632600D03*
X19111500Y-143189300D03*
X29973300Y-118613900D03*
X25964700Y-137325000D03*
X7745100Y-104416800D03*
X30026600Y-102458700D03*
X11195700Y-116761500D03*
X31668600Y-134289200D03*
X7869700Y-40460900D03*
X16811600Y-127665200D03*
X43602700Y-113930300D03*
X49484200Y-112817700D03*
X9685000Y-57276600D03*
X5843200Y-108019900D03*
X34089600Y-102319600D03*
X25952800Y-139275000D03*
X26566300Y-116814800D03*
X10661500Y-105284700D03*
X46390800Y-134576400D03*
X58413400Y-112817700D03*
X20227900Y-137975000D03*
X47546600Y-114827100D03*
X18020700Y-113921300D03*
X22573800Y-113237500D03*
X16377400Y-115861100D03*
X16878600Y-124493100D03*
X20897300Y-126214200D03*
X17160900Y-106687400D03*
X28196900Y-1242500D03*
X52493400Y-121707000D03*
%TO.N,HOLD_G*%
X46097700Y-53854100D03*
X40453500Y-108311800D03*
X18945200Y-113023800D03*
%TO.N,BL_G*%
X20189700Y-119945900D03*
X42048700Y-42687600D03*
%TO.N,N$22*%
X16123700Y-119893500D03*
%TO.N,N$4*%
X11040200Y-121808200D03*
X43637400Y-133916700D03*
X52843500Y-140290000D03*
%TO.N,N$3*%
X46400000Y-116415500D03*
X42378100Y-135969100D03*
%TO.N,VBAT*%
X48759000Y-139385100D03*
X41327300Y-125966800D03*
%TO.N,EN*%
X41354800Y-74219700D03*
X7902700Y-43603700D03*
%TO.N,I2S_BCK*%
X22857000Y-138738400D03*
X10238300Y-47461200D03*
%TO.N,I2S_WS*%
X26364300Y-140025000D03*
X9384000Y-47595500D03*
%TO.N,I2S_DATA*%
X11219200Y-48199300D03*
X23508700Y-139370500D03*
%TO.N,MIC_SCK*%
X8218200Y-48821300D03*
X10952600Y-101253300D03*
%TO.N,TOUCH_SDA*%
X43381800Y-61004700D03*
X8677100Y-51018200D03*
%TO.N,TOUCH_SCL*%
X8407900Y-52206500D03*
%TO.N,AMP_EN*%
X7191900Y-121737500D03*
X7896100Y-54444300D03*
%TO.N,USB_DM*%
X8150000Y-56793400D03*
X28547200Y-140498900D03*
%TO.N,USB_DP*%
X31671200Y-133209000D03*
X5904500Y-58240900D03*
X45332800Y-144657600D03*
%TO.N,VBAT_SENSE*%
X8512400Y-60488500D03*
X29765000Y-66676500D03*
%TO.N,DISP_CLK*%
X17030000Y-59712300D03*
%TO.N,DISP_RST*%
X21453400Y-67398800D03*
%TO.N,NAV_MID*%
X36800000Y-124575400D03*
X1936500Y-113286200D03*
X19116200Y-61576000D03*
%TO.N,NAV_R*%
X36606900Y-121503000D03*
X29356500Y-74999900D03*
%TO.N,IO0*%
X49872700Y-117489700D03*
X43807500Y-57329300D03*
X25359300Y-56167600D03*
%TO.N,NAV_L*%
X24707700Y-121173200D03*
X22940600Y-50952900D03*
%TO.N,NAV_DN*%
X26418200Y-51439100D03*
X26963200Y-124389800D03*
%TO.N,NAV_UP*%
X25836300Y-49190500D03*
X25538500Y-121597400D03*
%TO.N,SD_MISO*%
X27850000Y-15200200D03*
X38336900Y-41700500D03*
%TO.N,SD_CLK*%
X24419300Y-15030000D03*
X25786000Y-45409200D03*
%TO.N,SD_CS*%
X21345700Y-15200200D03*
X32699500Y-5055300D03*
X41218600Y-36197500D03*
%TO.N,PWR_G*%
X12814400Y-118144500D03*
X35190700Y-119510200D03*
%TO.N,VSYS*%
X34400000Y-108451700D03*
X40174600Y-59627800D03*
%TO.N,N$9*%
X21377500Y-125044900D03*
X43455400Y-71931600D03*
X3843600Y-114242800D03*
%TO.N,N$8*%
X44438000Y-72518700D03*
X5529000Y-117092000D03*
%TO.N,N$7*%
X8684800Y-116726800D03*
X40044500Y-78151700D03*
%TO.N,PG*%
X27955300Y-71854400D03*
X7708700Y-112745400D03*
%TO.N,N$17*%
X23403600Y-131768100D03*
X7469600Y-129904800D03*
%TO.N,N$1*%
X19064500Y-127256400D03*
X43883500Y-140195400D03*
%TO.N,N$2*%
X46536400Y-142290700D03*
X41226800Y-110777300D03*
%TO.N,N$15*%
X49016900Y-77945000D03*
X26200200Y-138126600D03*
%TO.N,N$21*%
X10108100Y-122745700D03*
X46400000Y-19043000D03*
%TO.N,N$19*%
X7332300Y-125787300D03*
X30173300Y-120205700D03*
%TO.N,AIN*%
X29530700Y-138798700D03*
X41478300Y-79912500D03*
%TO.N,N$18*%
X42396700Y-81273400D03*
X7287500Y-124243300D03*
%TO.N,N$20*%
X38288000Y-40453500D03*
X6702400Y-118272200D03*
%TD*%
%TO.N,HOLD_G*%
D19*
X40041700Y-107900000D02*
X24069000Y-107900000D01*
X40453500Y-108311800D02*
X40041700Y-107900000D01*
X24069000Y-107900000D02*
X18945200Y-113023800D01*
%TO.N,N$4*%
X49561200Y-137007700D02*
X46728400Y-137007700D01*
X52843500Y-140290000D02*
X49561200Y-137007700D01*
X46728400Y-137007700D02*
X43637400Y-133916700D01*
%TO.N,VBAT*%
X41327300Y-124527300D02*
X28400000Y-111600000D01*
X41327300Y-125966800D02*
X41327300Y-124527300D01*
%TO.N,EN*%
X7648100Y-43858300D02*
X7902700Y-43603700D01*
X8963600Y-53603600D02*
X7648100Y-52288100D01*
X25161000Y-63784800D02*
X14979800Y-53603600D01*
X14979800Y-53603600D02*
X8963600Y-53603600D01*
X41354800Y-74219700D02*
X30919900Y-63784800D01*
X7648100Y-52288100D02*
X7648100Y-43858300D01*
X30919900Y-63784800D02*
X25161000Y-63784800D01*
%TO.N,TOUCH_SDA*%
X43381800Y-61004700D02*
X24574000Y-61004700D01*
X14587500Y-51018200D02*
X8677100Y-51018200D01*
X24574000Y-61004700D02*
X14587500Y-51018200D01*
%TO.N,TOUCH_SCL*%
X45018100Y-72844000D02*
X45018100Y-72315100D01*
X44009500Y-73852600D02*
X45018100Y-72844000D01*
X44009500Y-78470600D02*
X44009500Y-73852600D01*
X37750000Y-90900000D02*
X37750000Y-84730100D01*
X14996900Y-52206500D02*
X8407900Y-52206500D01*
X25246900Y-62456500D02*
X14996900Y-52206500D01*
X45018100Y-72315100D02*
X35159500Y-62456500D01*
X35159500Y-62456500D02*
X25246900Y-62456500D01*
X37750000Y-84730100D02*
X44009500Y-78470600D01*
%TO.N,USB_DP*%
X33884200Y-133209000D02*
X31671200Y-133209000D01*
X1382700Y-62762700D02*
X5904500Y-58240900D01*
X16987100Y-126994600D02*
X7718100Y-126994600D01*
X45332800Y-144657600D02*
X33884200Y-133209000D01*
X31671200Y-133209000D02*
X26535800Y-128073600D01*
X7718100Y-126994600D02*
X1382700Y-120659200D01*
X18066100Y-128073600D02*
X16987100Y-126994600D01*
X26535800Y-128073600D02*
X18066100Y-128073600D01*
X1382700Y-120659200D02*
X1382700Y-62762700D01*
%TO.N,VBAT_SENSE*%
X26288000Y-66676500D02*
X29765000Y-66676500D01*
X9841900Y-59159000D02*
X18770500Y-59159000D01*
X8512400Y-60488500D02*
X9841900Y-59159000D01*
X18770500Y-59159000D02*
X26288000Y-66676500D01*
%TO.N,DISP_CLK*%
X30130000Y-71809600D02*
X18032700Y-59712300D01*
X30130000Y-90900000D02*
X30130000Y-71809600D01*
X18032700Y-59712300D02*
X17030000Y-59712300D01*
%TO.N,NAV_MID*%
X1936500Y-78755700D02*
X19116200Y-61576000D01*
X1936500Y-113286200D02*
X1936500Y-78755700D01*
%TO.N,IO0*%
X47658000Y-61179800D02*
X43807500Y-57329300D01*
X47658000Y-73618100D02*
X47658000Y-61179800D01*
X50051300Y-117311100D02*
X50051300Y-76011400D01*
X25359300Y-56167600D02*
X42645800Y-56167600D01*
X49872700Y-117489700D02*
X50051300Y-117311100D01*
X50051300Y-76011400D02*
X47658000Y-73618100D01*
X42645800Y-56167600D02*
X43807500Y-57329300D01*
%TO.N,SD_MISO*%
X39694900Y-40342500D02*
X38336900Y-41700500D01*
X27850000Y-15200200D02*
X36762700Y-15200200D01*
X36762700Y-15200200D02*
X39694900Y-18132400D01*
X39694900Y-18132400D02*
X39694900Y-40342500D01*
%TO.N,SD_CLK*%
X36750200Y-14635000D02*
X40052500Y-17937300D01*
X40052500Y-17937300D02*
X40052500Y-40805200D01*
X24814300Y-14635000D02*
X36750200Y-14635000D01*
X35448500Y-45409200D02*
X25786000Y-45409200D01*
X24419300Y-15030000D02*
X24814300Y-14635000D01*
X40052500Y-40805200D02*
X35448500Y-45409200D01*
%TO.N,SD_CS*%
X34236200Y-11568400D02*
X41218600Y-18550800D01*
X41218600Y-18550800D02*
X41218600Y-36197500D01*
X32699500Y-11568400D02*
X34236200Y-11568400D01*
X24977500Y-11568400D02*
X32699500Y-11568400D01*
X32699500Y-11568400D02*
X32699500Y-5055300D01*
X21345700Y-15200200D02*
X24977500Y-11568400D01*
%TO.N,PWR_G*%
X13966400Y-119296500D02*
X12814400Y-118144500D01*
X34977000Y-119296500D02*
X13966400Y-119296500D01*
X35190700Y-119510200D02*
X34977000Y-119296500D01*
%TO.N,N$9*%
X4680800Y-122432600D02*
X7293100Y-125044900D01*
X14139200Y-108701000D02*
X14139200Y-109163500D01*
X14139200Y-109163500D02*
X9954300Y-113348400D01*
X4680800Y-114413600D02*
X4014400Y-114413600D01*
X43455400Y-72952700D02*
X31234200Y-85173900D01*
X43455400Y-71931600D02*
X43455400Y-72952700D01*
X4014400Y-114413600D02*
X3843600Y-114242800D01*
X4680800Y-114413600D02*
X4680800Y-122432600D01*
X31234200Y-91606000D02*
X14139200Y-108701000D01*
X7293100Y-125044900D02*
X21377500Y-125044900D01*
X31234200Y-85173900D02*
X31234200Y-91606000D01*
X9954300Y-113348400D02*
X5746000Y-113348400D01*
X5746000Y-113348400D02*
X4680800Y-114413600D01*
%TO.N,N$8*%
X33940000Y-83016700D02*
X33940000Y-91204400D01*
X44438000Y-72518700D02*
X33940000Y-83016700D01*
X6985900Y-117092000D02*
X5529000Y-117092000D01*
X8511000Y-115566900D02*
X6985900Y-117092000D01*
X9577500Y-115566900D02*
X8511000Y-115566900D01*
X33940000Y-91204400D02*
X9577500Y-115566900D01*
%TO.N,N$7*%
X20644800Y-105917800D02*
X9835800Y-116726800D01*
X21805100Y-105917800D02*
X20644800Y-105917800D01*
X36480000Y-81716200D02*
X36480000Y-91242900D01*
X40044500Y-78151700D02*
X36480000Y-81716200D01*
X9835800Y-116726800D02*
X8684800Y-116726800D01*
X36480000Y-91242900D02*
X21805100Y-105917800D01*
%TO.N,PG*%
X13659900Y-103669300D02*
X7708700Y-109620500D01*
X27955300Y-71854400D02*
X13659900Y-86149800D01*
X13659900Y-86149800D02*
X13659900Y-103669300D01*
X7708700Y-109620500D02*
X7708700Y-112745400D01*
%TO.N,N$17*%
X9332900Y-131768100D02*
X23403600Y-131768100D01*
X7469600Y-129904800D02*
X9332900Y-131768100D01*
%TO.N,N$1*%
X30944500Y-127256400D02*
X19064500Y-127256400D01*
X43883500Y-140195400D02*
X30944500Y-127256400D01*
%TO.N,N$2*%
X41152500Y-110851600D02*
X41226800Y-110777300D01*
X42365700Y-134407300D02*
X42365700Y-121023300D01*
X46536400Y-142290700D02*
X46536400Y-138578000D01*
X42365700Y-121023300D02*
X41152500Y-119810100D01*
X41152500Y-119810100D02*
X41152500Y-110851600D01*
X46536400Y-138578000D02*
X42365700Y-134407300D01*
%TO.N,N$19*%
X7458100Y-125661500D02*
X7332300Y-125787300D01*
X24717500Y-125661500D02*
X7458100Y-125661500D01*
X30173300Y-120205700D02*
X24717500Y-125661500D01*
%TO.N,N$18*%
X39020000Y-91225500D02*
X26181900Y-104063600D01*
X42396700Y-81273400D02*
X39020000Y-84650100D01*
X26181900Y-104063600D02*
X25677400Y-104063600D01*
X11270200Y-118470800D02*
X11270200Y-120260600D01*
X11270200Y-120260600D02*
X7287500Y-124243300D01*
X39020000Y-84650100D02*
X39020000Y-91225500D01*
X25677400Y-104063600D02*
X11270200Y-118470800D01*
%TD*%
%TA.AperFunction,Conductor*%
%TO.N,GND*%
G36*
X19665479Y-61773617D02*
G01*
X19680806Y-61785377D01*
X29807826Y-71912397D01*
X29829500Y-71964723D01*
X29829500Y-74586434D01*
X29807826Y-74638760D01*
X29755500Y-74660434D01*
X29703174Y-74638760D01*
X29663814Y-74599400D01*
X29549690Y-74533510D01*
X29549681Y-74533506D01*
X29422394Y-74499400D01*
X29422392Y-74499400D01*
X29290608Y-74499400D01*
X29290606Y-74499400D01*
X29163318Y-74533506D01*
X29163309Y-74533510D01*
X29049185Y-74599400D01*
X28956000Y-74692585D01*
X28890110Y-74806709D01*
X28890106Y-74806718D01*
X28856000Y-74934005D01*
X28856000Y-75065794D01*
X28890106Y-75193081D01*
X28890110Y-75193090D01*
X28892021Y-75196400D01*
X28956000Y-75307214D01*
X29049186Y-75400400D01*
X29163314Y-75466292D01*
X29290605Y-75500399D01*
X29290606Y-75500400D01*
X29290608Y-75500400D01*
X29422394Y-75500400D01*
X29422394Y-75500399D01*
X29549686Y-75466292D01*
X29663814Y-75400400D01*
X29703174Y-75361040D01*
X29755500Y-75339366D01*
X29807826Y-75361040D01*
X29829500Y-75413366D01*
X29829500Y-89837972D01*
X29807826Y-89890298D01*
X29783819Y-89906339D01*
X29632401Y-89969059D01*
X29460345Y-90084022D01*
X29460344Y-90084024D01*
X29314024Y-90230344D01*
X29314022Y-90230345D01*
X29199059Y-90402401D01*
X29119870Y-90593579D01*
X29119868Y-90593586D01*
X29079500Y-90796535D01*
X29079500Y-91003464D01*
X29119868Y-91206413D01*
X29119870Y-91206420D01*
X29199059Y-91397598D01*
X29314023Y-91569655D01*
X29460345Y-91715977D01*
X29632402Y-91830941D01*
X29823580Y-91910130D01*
X30026535Y-91950500D01*
X30026536Y-91950500D01*
X30233463Y-91950500D01*
X30233465Y-91950500D01*
X30282893Y-91940668D01*
X30338441Y-91951717D01*
X30369907Y-91998809D01*
X30358858Y-92054358D01*
X30349655Y-92065572D01*
X13954689Y-108460540D01*
X13898740Y-108516488D01*
X13859179Y-108585009D01*
X13859177Y-108585014D01*
X13838700Y-108661435D01*
X13838700Y-109008377D01*
X13817026Y-109060703D01*
X9851503Y-113026226D01*
X9799177Y-113047900D01*
X8240152Y-113047900D01*
X8187826Y-113026226D01*
X8166152Y-112973900D01*
X8174292Y-112943509D01*
X8173234Y-112943071D01*
X8175088Y-112938592D01*
X8175092Y-112938586D01*
X8209199Y-112811294D01*
X8209200Y-112811294D01*
X8209200Y-112679506D01*
X8209199Y-112679505D01*
X8201378Y-112650318D01*
X8175092Y-112552214D01*
X8109200Y-112438086D01*
X8030874Y-112359760D01*
X8009200Y-112307434D01*
X8009200Y-110339505D01*
X9650600Y-110339505D01*
X9650600Y-110471294D01*
X9684706Y-110598581D01*
X9684710Y-110598590D01*
X9710047Y-110642474D01*
X9750600Y-110712714D01*
X9843786Y-110805900D01*
X9957914Y-110871792D01*
X10085205Y-110905899D01*
X10085206Y-110905900D01*
X10085208Y-110905900D01*
X10216994Y-110905900D01*
X10216994Y-110905899D01*
X10344286Y-110871792D01*
X10458414Y-110805900D01*
X10551600Y-110712714D01*
X10617492Y-110598586D01*
X10651599Y-110471294D01*
X10651600Y-110471294D01*
X10651600Y-110339506D01*
X10651599Y-110339505D01*
X10634797Y-110276800D01*
X10617492Y-110212214D01*
X10551600Y-110098086D01*
X10458414Y-110004900D01*
X10355891Y-109945708D01*
X10344290Y-109939010D01*
X10344281Y-109939006D01*
X10216994Y-109904900D01*
X10216992Y-109904900D01*
X10085208Y-109904900D01*
X10085206Y-109904900D01*
X9957918Y-109939006D01*
X9957909Y-109939010D01*
X9843785Y-110004900D01*
X9750600Y-110098085D01*
X9684710Y-110212209D01*
X9684706Y-110212218D01*
X9650600Y-110339505D01*
X8009200Y-110339505D01*
X8009200Y-109775622D01*
X8030873Y-109723297D01*
X12998766Y-104755405D01*
X15040100Y-104755405D01*
X15040100Y-104887194D01*
X15074206Y-105014481D01*
X15074207Y-105014484D01*
X15074208Y-105014486D01*
X15140100Y-105128614D01*
X15233286Y-105221800D01*
X15347414Y-105287692D01*
X15474705Y-105321799D01*
X15474706Y-105321800D01*
X15474708Y-105321800D01*
X15606494Y-105321800D01*
X15606494Y-105321799D01*
X15733786Y-105287692D01*
X15847914Y-105221800D01*
X15941100Y-105128614D01*
X16006992Y-105014486D01*
X16041099Y-104887194D01*
X16041100Y-104887194D01*
X16041100Y-104755406D01*
X16041099Y-104755405D01*
X16006993Y-104628118D01*
X16006992Y-104628114D01*
X15941100Y-104513986D01*
X15847914Y-104420800D01*
X15813791Y-104401099D01*
X15733790Y-104354910D01*
X15733781Y-104354906D01*
X15606494Y-104320800D01*
X15606492Y-104320800D01*
X15474708Y-104320800D01*
X15474706Y-104320800D01*
X15347418Y-104354906D01*
X15347409Y-104354910D01*
X15233285Y-104420800D01*
X15140100Y-104513985D01*
X15074210Y-104628109D01*
X15074206Y-104628118D01*
X15040100Y-104755405D01*
X12998766Y-104755405D01*
X13900360Y-103853811D01*
X13939922Y-103785288D01*
X13960400Y-103708862D01*
X13960400Y-103629738D01*
X13960400Y-92024500D01*
X13982074Y-91972174D01*
X14034400Y-91950500D01*
X15759746Y-91950500D01*
X15759748Y-91950500D01*
X15818231Y-91938867D01*
X15884552Y-91894552D01*
X15928867Y-91828231D01*
X15940500Y-91769748D01*
X15940500Y-90796535D01*
X18919500Y-90796535D01*
X18919500Y-91003464D01*
X18959868Y-91206413D01*
X18959870Y-91206420D01*
X19039059Y-91397598D01*
X19154023Y-91569655D01*
X19300345Y-91715977D01*
X19472402Y-91830941D01*
X19663580Y-91910130D01*
X19866535Y-91950500D01*
X19866536Y-91950500D01*
X20073464Y-91950500D01*
X20073465Y-91950500D01*
X20276420Y-91910130D01*
X20467598Y-91830941D01*
X20639655Y-91715977D01*
X20785977Y-91569655D01*
X20900941Y-91397598D01*
X20980130Y-91206420D01*
X21020500Y-91003465D01*
X21020500Y-90796535D01*
X21459500Y-90796535D01*
X21459500Y-91003464D01*
X21499868Y-91206413D01*
X21499870Y-91206420D01*
X21579059Y-91397598D01*
X21694023Y-91569655D01*
X21840345Y-91715977D01*
X22012402Y-91830941D01*
X22203580Y-91910130D01*
X22406535Y-91950500D01*
X22406536Y-91950500D01*
X22613464Y-91950500D01*
X22613465Y-91950500D01*
X22816420Y-91910130D01*
X23007598Y-91830941D01*
X23179655Y-91715977D01*
X23325977Y-91569655D01*
X23440941Y-91397598D01*
X23520130Y-91206420D01*
X23560500Y-91003465D01*
X23560500Y-90796535D01*
X23999500Y-90796535D01*
X23999500Y-91003464D01*
X24039868Y-91206413D01*
X24039870Y-91206420D01*
X24119059Y-91397598D01*
X24234023Y-91569655D01*
X24380345Y-91715977D01*
X24552402Y-91830941D01*
X24743580Y-91910130D01*
X24946535Y-91950500D01*
X24946536Y-91950500D01*
X25153464Y-91950500D01*
X25153465Y-91950500D01*
X25356420Y-91910130D01*
X25547598Y-91830941D01*
X25719655Y-91715977D01*
X25865977Y-91569655D01*
X25980941Y-91397598D01*
X26060130Y-91206420D01*
X26100500Y-91003465D01*
X26100500Y-90796535D01*
X26539500Y-90796535D01*
X26539500Y-91003464D01*
X26579868Y-91206413D01*
X26579870Y-91206420D01*
X26659059Y-91397598D01*
X26774023Y-91569655D01*
X26920345Y-91715977D01*
X27092402Y-91830941D01*
X27283580Y-91910130D01*
X27486535Y-91950500D01*
X27486536Y-91950500D01*
X27693464Y-91950500D01*
X27693465Y-91950500D01*
X27896420Y-91910130D01*
X28087598Y-91830941D01*
X28259655Y-91715977D01*
X28405977Y-91569655D01*
X28520941Y-91397598D01*
X28600130Y-91206420D01*
X28640500Y-91003465D01*
X28640500Y-90796535D01*
X28600130Y-90593580D01*
X28520941Y-90402402D01*
X28405977Y-90230345D01*
X28259655Y-90084023D01*
X28192895Y-90039416D01*
X28087598Y-89969059D01*
X27896420Y-89889870D01*
X27896413Y-89889868D01*
X27743516Y-89859455D01*
X27693465Y-89849500D01*
X27486535Y-89849500D01*
X27446385Y-89857486D01*
X27283586Y-89889868D01*
X27283579Y-89889870D01*
X27092401Y-89969059D01*
X26920345Y-90084022D01*
X26920344Y-90084024D01*
X26774024Y-90230344D01*
X26774022Y-90230345D01*
X26659059Y-90402401D01*
X26579870Y-90593579D01*
X26579868Y-90593586D01*
X26539500Y-90796535D01*
X26100500Y-90796535D01*
X26060130Y-90593580D01*
X25980941Y-90402402D01*
X25865977Y-90230345D01*
X25719655Y-90084023D01*
X25652895Y-90039416D01*
X25547598Y-89969059D01*
X25356420Y-89889870D01*
X25356413Y-89889868D01*
X25203516Y-89859455D01*
X25153465Y-89849500D01*
X24946535Y-89849500D01*
X24906385Y-89857486D01*
X24743586Y-89889868D01*
X24743579Y-89889870D01*
X24552401Y-89969059D01*
X24380345Y-90084022D01*
X24380344Y-90084024D01*
X24234024Y-90230344D01*
X24234022Y-90230345D01*
X24119059Y-90402401D01*
X24039870Y-90593579D01*
X24039868Y-90593586D01*
X23999500Y-90796535D01*
X23560500Y-90796535D01*
X23520130Y-90593580D01*
X23440941Y-90402402D01*
X23325977Y-90230345D01*
X23179655Y-90084023D01*
X23112895Y-90039416D01*
X23007598Y-89969059D01*
X22816420Y-89889870D01*
X22816413Y-89889868D01*
X22663516Y-89859455D01*
X22613465Y-89849500D01*
X22406535Y-89849500D01*
X22366385Y-89857486D01*
X22203586Y-89889868D01*
X22203579Y-89889870D01*
X22012401Y-89969059D01*
X21840345Y-90084022D01*
X21840344Y-90084024D01*
X21694024Y-90230344D01*
X21694022Y-90230345D01*
X21579059Y-90402401D01*
X21499870Y-90593579D01*
X21499868Y-90593586D01*
X21459500Y-90796535D01*
X21020500Y-90796535D01*
X20980130Y-90593580D01*
X20900941Y-90402402D01*
X20785977Y-90230345D01*
X20639655Y-90084023D01*
X20572895Y-90039416D01*
X20467598Y-89969059D01*
X20276420Y-89889870D01*
X20276413Y-89889868D01*
X20123516Y-89859455D01*
X20073465Y-89849500D01*
X19866535Y-89849500D01*
X19826385Y-89857486D01*
X19663586Y-89889868D01*
X19663579Y-89889870D01*
X19472401Y-89969059D01*
X19300345Y-90084022D01*
X19300344Y-90084024D01*
X19154024Y-90230344D01*
X19154022Y-90230345D01*
X19039059Y-90402401D01*
X18959870Y-90593579D01*
X18959868Y-90593586D01*
X18919500Y-90796535D01*
X15940500Y-90796535D01*
X15940500Y-90030252D01*
X15928867Y-89971769D01*
X15927056Y-89969059D01*
X15885147Y-89906339D01*
X15884552Y-89905448D01*
X15859475Y-89888692D01*
X15818232Y-89861133D01*
X15818233Y-89861133D01*
X15788989Y-89855316D01*
X15759748Y-89849500D01*
X14034400Y-89849500D01*
X13982074Y-89827826D01*
X13960400Y-89775500D01*
X13960400Y-86304922D01*
X13982073Y-86252597D01*
X27858096Y-72376573D01*
X27910422Y-72354900D01*
X28021194Y-72354900D01*
X28021194Y-72354899D01*
X28148486Y-72320792D01*
X28262614Y-72254900D01*
X28355800Y-72161714D01*
X28421692Y-72047586D01*
X28455799Y-71920294D01*
X28455800Y-71920294D01*
X28455800Y-71788506D01*
X28455799Y-71788505D01*
X28442378Y-71738418D01*
X28421692Y-71661214D01*
X28355800Y-71547086D01*
X28262614Y-71453900D01*
X28223165Y-71431124D01*
X28148490Y-71388010D01*
X28148481Y-71388006D01*
X28021194Y-71353900D01*
X28021192Y-71353900D01*
X27889408Y-71353900D01*
X27889406Y-71353900D01*
X27762118Y-71388006D01*
X27762109Y-71388010D01*
X27647985Y-71453900D01*
X27554800Y-71547085D01*
X27488910Y-71661209D01*
X27488906Y-71661218D01*
X27454800Y-71788505D01*
X27454800Y-71899276D01*
X27433126Y-71951602D01*
X13475389Y-85909340D01*
X13419440Y-85965288D01*
X13379879Y-86033809D01*
X13379877Y-86033814D01*
X13359400Y-86110235D01*
X13359400Y-103514177D01*
X13337726Y-103566503D01*
X7468240Y-109435988D01*
X7428679Y-109504509D01*
X7428677Y-109504514D01*
X7408200Y-109580935D01*
X7408200Y-112307434D01*
X7386526Y-112359760D01*
X7308200Y-112438085D01*
X7242310Y-112552209D01*
X7242306Y-112552218D01*
X7208200Y-112679505D01*
X7208200Y-112811294D01*
X7242306Y-112938581D01*
X7244166Y-112943071D01*
X7242253Y-112943863D01*
X7248724Y-112993062D01*
X7214239Y-113037991D01*
X7177248Y-113047900D01*
X5706436Y-113047900D01*
X5630014Y-113068377D01*
X5630009Y-113068379D01*
X5593096Y-113089692D01*
X5561488Y-113107940D01*
X4578003Y-114091426D01*
X4525677Y-114113100D01*
X4383785Y-114113100D01*
X4331459Y-114091426D01*
X4312307Y-114058253D01*
X4309992Y-114049614D01*
X4244100Y-113935486D01*
X4150914Y-113842300D01*
X4134671Y-113832922D01*
X4036790Y-113776410D01*
X4036781Y-113776406D01*
X3909494Y-113742300D01*
X3909492Y-113742300D01*
X3777708Y-113742300D01*
X3777706Y-113742300D01*
X3650418Y-113776406D01*
X3650409Y-113776410D01*
X3536285Y-113842300D01*
X3443100Y-113935485D01*
X3377210Y-114049609D01*
X3377206Y-114049618D01*
X3343100Y-114176905D01*
X3343100Y-114308694D01*
X3377206Y-114435981D01*
X3377210Y-114435990D01*
X3443100Y-114550114D01*
X3536285Y-114643299D01*
X3536651Y-114643580D01*
X3536767Y-114643781D01*
X3539716Y-114646730D01*
X3538925Y-114647520D01*
X3564969Y-114692629D01*
X3550310Y-114747337D01*
X3532076Y-114763329D01*
X3532240Y-114763542D01*
X3528991Y-114766035D01*
X3528611Y-114766369D01*
X3528391Y-114766495D01*
X3528390Y-114766496D01*
X3435200Y-114859685D01*
X3369310Y-114973809D01*
X3369306Y-114973818D01*
X3335200Y-115101105D01*
X3335200Y-115232894D01*
X3369306Y-115360181D01*
X3369310Y-115360190D01*
X3429186Y-115463897D01*
X3435200Y-115474314D01*
X3528386Y-115567500D01*
X3642514Y-115633392D01*
X3769805Y-115667499D01*
X3769806Y-115667500D01*
X3769808Y-115667500D01*
X3901594Y-115667500D01*
X3901594Y-115667499D01*
X4028886Y-115633392D01*
X4143014Y-115567500D01*
X4236200Y-115474314D01*
X4242214Y-115463896D01*
X4287147Y-115429419D01*
X4343300Y-115436811D01*
X4377778Y-115481744D01*
X4380300Y-115500897D01*
X4380300Y-122472164D01*
X4400777Y-122548586D01*
X4436473Y-122610413D01*
X4436473Y-122610414D01*
X4440338Y-122617108D01*
X4440339Y-122617110D01*
X7074106Y-125250877D01*
X7095780Y-125303203D01*
X7074106Y-125355529D01*
X7058780Y-125367289D01*
X7024985Y-125386800D01*
X6931800Y-125479985D01*
X6868988Y-125588779D01*
X6824054Y-125623258D01*
X6767902Y-125615865D01*
X6752576Y-125604105D01*
X1704874Y-120556403D01*
X1683200Y-120504077D01*
X1683200Y-113832922D01*
X1704874Y-113780596D01*
X1757200Y-113758922D01*
X1776347Y-113761443D01*
X1870605Y-113786699D01*
X1870606Y-113786700D01*
X1870608Y-113786700D01*
X2002394Y-113786700D01*
X2002394Y-113786699D01*
X2129686Y-113752592D01*
X2243814Y-113686700D01*
X2337000Y-113593514D01*
X2402892Y-113479386D01*
X2436999Y-113352094D01*
X2437000Y-113352094D01*
X2437000Y-113220306D01*
X2436999Y-113220305D01*
X2436108Y-113216981D01*
X2402892Y-113093014D01*
X2337000Y-112978886D01*
X2258674Y-112900560D01*
X2237000Y-112848234D01*
X2237000Y-107112205D01*
X3645500Y-107112205D01*
X3645500Y-107243994D01*
X3679606Y-107371281D01*
X3679610Y-107371290D01*
X3745500Y-107485414D01*
X3838686Y-107578600D01*
X3952814Y-107644492D01*
X4080105Y-107678599D01*
X4080106Y-107678600D01*
X4080108Y-107678600D01*
X4211894Y-107678600D01*
X4211894Y-107678599D01*
X4339186Y-107644492D01*
X4453314Y-107578600D01*
X4546500Y-107485414D01*
X4612392Y-107371286D01*
X4646499Y-107243994D01*
X4646500Y-107243994D01*
X4646500Y-107112206D01*
X4646499Y-107112205D01*
X4612393Y-106984918D01*
X4612392Y-106984914D01*
X4546500Y-106870786D01*
X4453314Y-106777600D01*
X4339190Y-106711710D01*
X4339181Y-106711706D01*
X4211894Y-106677600D01*
X4211892Y-106677600D01*
X4080108Y-106677600D01*
X4080106Y-106677600D01*
X3952818Y-106711706D01*
X3952809Y-106711710D01*
X3838685Y-106777600D01*
X3745500Y-106870785D01*
X3679610Y-106984909D01*
X3679606Y-106984918D01*
X3645500Y-107112205D01*
X2237000Y-107112205D01*
X2237000Y-105584270D01*
X8999500Y-105584270D01*
X8999500Y-105689729D01*
X9026791Y-105791582D01*
X9026792Y-105791585D01*
X9026793Y-105791587D01*
X9079520Y-105882913D01*
X9154087Y-105957480D01*
X9245413Y-106010207D01*
X9347270Y-106037499D01*
X9347271Y-106037500D01*
X9347273Y-106037500D01*
X9452729Y-106037500D01*
X9452729Y-106037499D01*
X9554587Y-106010207D01*
X9645913Y-105957480D01*
X9720480Y-105882913D01*
X9773207Y-105791587D01*
X9800499Y-105689729D01*
X9800500Y-105689729D01*
X9800500Y-105584271D01*
X9800499Y-105584270D01*
X9773208Y-105482417D01*
X9773207Y-105482413D01*
X9720480Y-105391087D01*
X9645913Y-105316520D01*
X9595983Y-105287693D01*
X9554591Y-105263795D01*
X9554582Y-105263791D01*
X9452729Y-105236500D01*
X9452727Y-105236500D01*
X9347273Y-105236500D01*
X9347271Y-105236500D01*
X9245417Y-105263791D01*
X9245408Y-105263795D01*
X9154086Y-105316520D01*
X9079520Y-105391086D01*
X9026795Y-105482408D01*
X9026791Y-105482417D01*
X8999500Y-105584270D01*
X2237000Y-105584270D01*
X2237000Y-103290705D01*
X10557600Y-103290705D01*
X10557600Y-103422494D01*
X10591706Y-103549781D01*
X10591710Y-103549790D01*
X10603843Y-103570805D01*
X10657600Y-103663914D01*
X10750786Y-103757100D01*
X10864914Y-103822992D01*
X10992205Y-103857099D01*
X10992206Y-103857100D01*
X10992208Y-103857100D01*
X11123994Y-103857100D01*
X11123994Y-103857099D01*
X11251286Y-103822992D01*
X11365414Y-103757100D01*
X11458600Y-103663914D01*
X11524492Y-103549786D01*
X11558599Y-103422494D01*
X11558600Y-103422494D01*
X11558600Y-103290706D01*
X11558599Y-103290705D01*
X11524493Y-103163418D01*
X11524492Y-103163414D01*
X11458600Y-103049286D01*
X11365414Y-102956100D01*
X11251290Y-102890210D01*
X11251281Y-102890206D01*
X11123994Y-102856100D01*
X11123992Y-102856100D01*
X10992208Y-102856100D01*
X10992206Y-102856100D01*
X10864918Y-102890206D01*
X10864909Y-102890210D01*
X10750785Y-102956100D01*
X10657600Y-103049285D01*
X10591710Y-103163409D01*
X10591706Y-103163418D01*
X10557600Y-103290705D01*
X2237000Y-103290705D01*
X2237000Y-101187405D01*
X10452100Y-101187405D01*
X10452100Y-101319194D01*
X10486206Y-101446481D01*
X10486207Y-101446484D01*
X10486208Y-101446486D01*
X10552100Y-101560614D01*
X10645286Y-101653800D01*
X10759414Y-101719692D01*
X10886705Y-101753799D01*
X10886706Y-101753800D01*
X10886708Y-101753800D01*
X11018494Y-101753800D01*
X11018494Y-101753799D01*
X11145786Y-101719692D01*
X11259914Y-101653800D01*
X11353100Y-101560614D01*
X11418992Y-101446486D01*
X11453099Y-101319194D01*
X11453100Y-101319194D01*
X11453100Y-101187406D01*
X11453099Y-101187405D01*
X11418993Y-101060118D01*
X11418992Y-101060114D01*
X11353100Y-100945986D01*
X11259914Y-100852800D01*
X11145790Y-100786910D01*
X11145781Y-100786906D01*
X11018494Y-100752800D01*
X11018492Y-100752800D01*
X10886708Y-100752800D01*
X10886706Y-100752800D01*
X10759418Y-100786906D01*
X10759409Y-100786910D01*
X10645285Y-100852800D01*
X10552100Y-100945985D01*
X10486210Y-101060109D01*
X10486206Y-101060118D01*
X10452100Y-101187405D01*
X2237000Y-101187405D01*
X2237000Y-78910822D01*
X2258673Y-78858497D01*
X13784264Y-67332905D01*
X20952900Y-67332905D01*
X20952900Y-67464694D01*
X20987006Y-67591981D01*
X20987007Y-67591984D01*
X20987008Y-67591986D01*
X21052900Y-67706114D01*
X21146086Y-67799300D01*
X21260214Y-67865192D01*
X21387505Y-67899299D01*
X21387506Y-67899300D01*
X21387508Y-67899300D01*
X21519294Y-67899300D01*
X21519294Y-67899299D01*
X21646586Y-67865192D01*
X21760714Y-67799300D01*
X21853900Y-67706114D01*
X21919792Y-67591986D01*
X21953899Y-67464694D01*
X21953900Y-67464694D01*
X21953900Y-67332906D01*
X21953899Y-67332905D01*
X21919793Y-67205618D01*
X21919792Y-67205614D01*
X21853900Y-67091486D01*
X21760714Y-66998300D01*
X21735624Y-66983814D01*
X21646590Y-66932410D01*
X21646581Y-66932406D01*
X21519294Y-66898300D01*
X21519292Y-66898300D01*
X21387508Y-66898300D01*
X21387506Y-66898300D01*
X21260218Y-66932406D01*
X21260209Y-66932410D01*
X21146085Y-66998300D01*
X21052900Y-67091485D01*
X20987010Y-67205609D01*
X20987006Y-67205618D01*
X20952900Y-67332905D01*
X13784264Y-67332905D01*
X19018996Y-62098173D01*
X19071322Y-62076500D01*
X19182094Y-62076500D01*
X19182094Y-62076499D01*
X19309386Y-62042392D01*
X19423514Y-61976500D01*
X19516700Y-61883314D01*
X19564395Y-61800702D01*
X19609327Y-61766225D01*
X19665479Y-61773617D01*
G37*
%TD.AperFunction*%
%TA.AperFunction,Conductor*%
G36*
X12306186Y-117964436D02*
G01*
X12327860Y-118016762D01*
X12325339Y-118035913D01*
X12313900Y-118078606D01*
X12313900Y-118210394D01*
X12348006Y-118337681D01*
X12348010Y-118337690D01*
X12357894Y-118354809D01*
X12413900Y-118451814D01*
X12507086Y-118545000D01*
X12621214Y-118610892D01*
X12748505Y-118644999D01*
X12748506Y-118645000D01*
X12859277Y-118645000D01*
X12911603Y-118666674D01*
X13725940Y-119481011D01*
X13781889Y-119536960D01*
X13850411Y-119576521D01*
X13850412Y-119576521D01*
X13850414Y-119576522D01*
X13888624Y-119586760D01*
X13926835Y-119596999D01*
X13926836Y-119597000D01*
X13926838Y-119597000D01*
X15589353Y-119597000D01*
X15641679Y-119618674D01*
X15663353Y-119671000D01*
X15658459Y-119695601D01*
X15658564Y-119695629D01*
X15658138Y-119697217D01*
X15657721Y-119699316D01*
X15657310Y-119700307D01*
X15657308Y-119700313D01*
X15657308Y-119700314D01*
X15647510Y-119736883D01*
X15623200Y-119827609D01*
X15623200Y-119959394D01*
X15657306Y-120086681D01*
X15657310Y-120086690D01*
X15687976Y-120139805D01*
X15723200Y-120200814D01*
X15816386Y-120294000D01*
X15930514Y-120359892D01*
X16057805Y-120393999D01*
X16057806Y-120394000D01*
X16057808Y-120394000D01*
X16189594Y-120394000D01*
X16189594Y-120393999D01*
X16316886Y-120359892D01*
X16431014Y-120294000D01*
X16524200Y-120200814D01*
X16590092Y-120086686D01*
X16624199Y-119959394D01*
X16624200Y-119959394D01*
X16624200Y-119827609D01*
X16621495Y-119817514D01*
X16590092Y-119700314D01*
X16590089Y-119700310D01*
X16590089Y-119700307D01*
X16589679Y-119699316D01*
X16589679Y-119698775D01*
X16588836Y-119695629D01*
X16589679Y-119695403D01*
X16589681Y-119642679D01*
X16629731Y-119602632D01*
X16658047Y-119597000D01*
X19685038Y-119597000D01*
X19737364Y-119618674D01*
X19759038Y-119671000D01*
X19749124Y-119708000D01*
X19723310Y-119752710D01*
X19723306Y-119752718D01*
X19689200Y-119880005D01*
X19689200Y-120011794D01*
X19723306Y-120139081D01*
X19723310Y-120139090D01*
X19758947Y-120200814D01*
X19789200Y-120253214D01*
X19882386Y-120346400D01*
X19996514Y-120412292D01*
X20123805Y-120446399D01*
X20123806Y-120446400D01*
X20123808Y-120446400D01*
X20255594Y-120446400D01*
X20255594Y-120446399D01*
X20382886Y-120412292D01*
X20497014Y-120346400D01*
X20590200Y-120253214D01*
X20656092Y-120139086D01*
X20690199Y-120011794D01*
X20690200Y-120011794D01*
X20690200Y-119880006D01*
X20690199Y-119880005D01*
X20676159Y-119827608D01*
X20656092Y-119752714D01*
X20630275Y-119707999D01*
X20622883Y-119651848D01*
X20657362Y-119606914D01*
X20694362Y-119597000D01*
X29951653Y-119597000D01*
X30003979Y-119618674D01*
X30025653Y-119671000D01*
X30003979Y-119723326D01*
X29984139Y-119736581D01*
X29984314Y-119736883D01*
X29865985Y-119805200D01*
X29772800Y-119898385D01*
X29706910Y-120012509D01*
X29706906Y-120012518D01*
X29672800Y-120139805D01*
X29672800Y-120250576D01*
X29651126Y-120302902D01*
X24614703Y-125339326D01*
X24562377Y-125361000D01*
X21901100Y-125361000D01*
X21848774Y-125339326D01*
X21827100Y-125287000D01*
X21837013Y-125250001D01*
X21838026Y-125248245D01*
X21843892Y-125238086D01*
X21877999Y-125110794D01*
X21878000Y-125110794D01*
X21878000Y-124979006D01*
X21877999Y-124979005D01*
X21843893Y-124851718D01*
X21843892Y-124851714D01*
X21778000Y-124737586D01*
X21684814Y-124644400D01*
X21639216Y-124618074D01*
X21570690Y-124578510D01*
X21570681Y-124578506D01*
X21443394Y-124544400D01*
X21443392Y-124544400D01*
X21311608Y-124544400D01*
X21311606Y-124544400D01*
X21184318Y-124578506D01*
X21184309Y-124578510D01*
X21070185Y-124644400D01*
X20991860Y-124722726D01*
X20939534Y-124744400D01*
X7672866Y-124744400D01*
X7620540Y-124722726D01*
X7598866Y-124670400D01*
X7620540Y-124618074D01*
X7688000Y-124550614D01*
X7753892Y-124436486D01*
X7787999Y-124309194D01*
X7788000Y-124309194D01*
X7788000Y-124198422D01*
X7809674Y-124146096D01*
X8234644Y-123721126D01*
X9569985Y-122385784D01*
X9622309Y-122364112D01*
X9674635Y-122385786D01*
X9696309Y-122438112D01*
X9686395Y-122475111D01*
X9641711Y-122552506D01*
X9641706Y-122552518D01*
X9607600Y-122679805D01*
X9607600Y-122811594D01*
X9641706Y-122938881D01*
X9641707Y-122938884D01*
X9641708Y-122938886D01*
X9707600Y-123053014D01*
X9800786Y-123146200D01*
X9914914Y-123212092D01*
X10042205Y-123246199D01*
X10042206Y-123246200D01*
X10042208Y-123246200D01*
X10173994Y-123246200D01*
X10173994Y-123246199D01*
X10301286Y-123212092D01*
X10415414Y-123146200D01*
X10508600Y-123053014D01*
X10574492Y-122938886D01*
X10608599Y-122811594D01*
X10608600Y-122811594D01*
X10608600Y-122679806D01*
X10608599Y-122679805D01*
X10591800Y-122617111D01*
X10574492Y-122552514D01*
X10508600Y-122438386D01*
X10415414Y-122345200D01*
X10378686Y-122323995D01*
X10301290Y-122279310D01*
X10301281Y-122279306D01*
X10173994Y-122245200D01*
X10173992Y-122245200D01*
X10042208Y-122245200D01*
X10042206Y-122245200D01*
X9914918Y-122279306D01*
X9914906Y-122279311D01*
X9837511Y-122323995D01*
X9781359Y-122331387D01*
X9736426Y-122296908D01*
X9729034Y-122240756D01*
X9748183Y-122207586D01*
X10494708Y-121461061D01*
X10547032Y-121439389D01*
X10599358Y-121461063D01*
X10621032Y-121513389D01*
X10611118Y-121550388D01*
X10573811Y-121615005D01*
X10573806Y-121615018D01*
X10539700Y-121742305D01*
X10539700Y-121874094D01*
X10573806Y-122001381D01*
X10573810Y-122001390D01*
X10639700Y-122115514D01*
X10732886Y-122208700D01*
X10847014Y-122274592D01*
X10974305Y-122308699D01*
X10974306Y-122308700D01*
X10974308Y-122308700D01*
X11106094Y-122308700D01*
X11106094Y-122308699D01*
X11233386Y-122274592D01*
X11347514Y-122208700D01*
X11440700Y-122115514D01*
X11506592Y-122001386D01*
X11540699Y-121874094D01*
X11540700Y-121874094D01*
X11540700Y-121742306D01*
X11540699Y-121742305D01*
X11513177Y-121639592D01*
X11506592Y-121615014D01*
X11440700Y-121500886D01*
X11347514Y-121407700D01*
X11298009Y-121379118D01*
X11233390Y-121341810D01*
X11233381Y-121341806D01*
X11106094Y-121307700D01*
X11106092Y-121307700D01*
X10974308Y-121307700D01*
X10974306Y-121307700D01*
X10847018Y-121341806D01*
X10847005Y-121341811D01*
X10782388Y-121379118D01*
X10726236Y-121386510D01*
X10681303Y-121352031D01*
X10673911Y-121295879D01*
X10693060Y-121262710D01*
X10848465Y-121107305D01*
X24207200Y-121107305D01*
X24207200Y-121239094D01*
X24241306Y-121366381D01*
X24241310Y-121366390D01*
X24263145Y-121404209D01*
X24307200Y-121480514D01*
X24400386Y-121573700D01*
X24514514Y-121639592D01*
X24641805Y-121673699D01*
X24641806Y-121673700D01*
X24641808Y-121673700D01*
X24773594Y-121673700D01*
X24773594Y-121673699D01*
X24900886Y-121639592D01*
X24930611Y-121622429D01*
X24986763Y-121615036D01*
X25031697Y-121649514D01*
X25039090Y-121667362D01*
X25072106Y-121790581D01*
X25072110Y-121790590D01*
X25083498Y-121810314D01*
X25138000Y-121904714D01*
X25231186Y-121997900D01*
X25345314Y-122063792D01*
X25472605Y-122097899D01*
X25472606Y-122097900D01*
X25472608Y-122097900D01*
X25604394Y-122097900D01*
X25604394Y-122097899D01*
X25731686Y-122063792D01*
X25845814Y-121997900D01*
X25939000Y-121904714D01*
X26004892Y-121790586D01*
X26038999Y-121663294D01*
X26039000Y-121663294D01*
X26039000Y-121531506D01*
X26038999Y-121531505D01*
X26004893Y-121404218D01*
X26004892Y-121404214D01*
X25939000Y-121290086D01*
X25845814Y-121196900D01*
X25774215Y-121155562D01*
X25731690Y-121131010D01*
X25731681Y-121131006D01*
X25604394Y-121096900D01*
X25604392Y-121096900D01*
X25472608Y-121096900D01*
X25472606Y-121096900D01*
X25345318Y-121131006D01*
X25345311Y-121131009D01*
X25315586Y-121148171D01*
X25259433Y-121155562D01*
X25214500Y-121121083D01*
X25207110Y-121103242D01*
X25174092Y-120980014D01*
X25108200Y-120865886D01*
X25015014Y-120772700D01*
X24900890Y-120706810D01*
X24900881Y-120706806D01*
X24773594Y-120672700D01*
X24773592Y-120672700D01*
X24641808Y-120672700D01*
X24641806Y-120672700D01*
X24514518Y-120706806D01*
X24514509Y-120706810D01*
X24400385Y-120772700D01*
X24307200Y-120865885D01*
X24241310Y-120980009D01*
X24241306Y-120980018D01*
X24207200Y-121107305D01*
X10848465Y-121107305D01*
X11510660Y-120445111D01*
X11529608Y-120412292D01*
X11550221Y-120376589D01*
X11570699Y-120300164D01*
X11570700Y-120300164D01*
X11570700Y-118625923D01*
X11592374Y-118573597D01*
X11879683Y-118286288D01*
X12201535Y-117964435D01*
X12253860Y-117942762D01*
X12306186Y-117964436D01*
G37*
%TD.AperFunction*%
%TA.AperFunction,Conductor*%
G36*
X36824707Y-91413117D02*
G01*
X36841182Y-91430708D01*
X36934023Y-91569655D01*
X37080345Y-91715977D01*
X37252402Y-91830941D01*
X37443580Y-91910130D01*
X37646535Y-91950500D01*
X37646536Y-91950500D01*
X37691376Y-91950500D01*
X37743702Y-91972174D01*
X37765376Y-92024500D01*
X37743702Y-92076826D01*
X26079103Y-103741426D01*
X26026777Y-103763100D01*
X25716962Y-103763100D01*
X25637838Y-103763100D01*
X25561412Y-103783578D01*
X25561411Y-103783578D01*
X25561409Y-103783579D01*
X25561407Y-103783580D01*
X25492892Y-103823137D01*
X11085689Y-118230340D01*
X11029740Y-118286288D01*
X10990179Y-118354809D01*
X10990177Y-118354814D01*
X10969700Y-118431235D01*
X10969700Y-120105476D01*
X10948026Y-120157802D01*
X7384702Y-123721126D01*
X7332376Y-123742800D01*
X7221606Y-123742800D01*
X7094318Y-123776906D01*
X7094309Y-123776910D01*
X6980185Y-123842800D01*
X6886999Y-123935986D01*
X6833520Y-124028613D01*
X6788587Y-124063091D01*
X6732434Y-124055697D01*
X6717109Y-124043938D01*
X5002974Y-122329803D01*
X4981300Y-122277477D01*
X4981300Y-121671605D01*
X6691400Y-121671605D01*
X6691400Y-121803394D01*
X6725506Y-121930681D01*
X6725510Y-121930690D01*
X6764314Y-121997900D01*
X6791400Y-122044814D01*
X6884586Y-122138000D01*
X6998714Y-122203892D01*
X7126005Y-122237999D01*
X7126006Y-122238000D01*
X7126008Y-122238000D01*
X7257794Y-122238000D01*
X7257794Y-122237999D01*
X7385086Y-122203892D01*
X7499214Y-122138000D01*
X7592400Y-122044814D01*
X7658292Y-121930686D01*
X7692399Y-121803394D01*
X7692400Y-121803394D01*
X7692400Y-121671606D01*
X7692399Y-121671605D01*
X7683820Y-121639589D01*
X7658292Y-121544314D01*
X7592400Y-121430186D01*
X7499214Y-121337000D01*
X7417955Y-121290085D01*
X7385090Y-121271110D01*
X7385081Y-121271106D01*
X7257794Y-121237000D01*
X7257792Y-121237000D01*
X7126008Y-121237000D01*
X7126006Y-121237000D01*
X6998718Y-121271106D01*
X6998709Y-121271110D01*
X6884585Y-121337000D01*
X6791400Y-121430185D01*
X6725510Y-121544309D01*
X6725506Y-121544318D01*
X6691400Y-121671605D01*
X4981300Y-121671605D01*
X4981300Y-118206305D01*
X6201900Y-118206305D01*
X6201900Y-118338094D01*
X6236006Y-118465381D01*
X6236007Y-118465384D01*
X6236008Y-118465386D01*
X6301900Y-118579514D01*
X6395086Y-118672700D01*
X6509214Y-118738592D01*
X6636505Y-118772699D01*
X6636506Y-118772700D01*
X6636508Y-118772700D01*
X6768294Y-118772700D01*
X6768294Y-118772699D01*
X6895586Y-118738592D01*
X7009714Y-118672700D01*
X7102900Y-118579514D01*
X7168792Y-118465386D01*
X7202899Y-118338094D01*
X7202900Y-118338094D01*
X7202900Y-118206306D01*
X7202899Y-118206305D01*
X7168793Y-118079018D01*
X7168792Y-118079014D01*
X7102900Y-117964886D01*
X7009714Y-117871700D01*
X6949934Y-117837186D01*
X6895590Y-117805810D01*
X6895581Y-117805806D01*
X6768294Y-117771700D01*
X6768292Y-117771700D01*
X6636508Y-117771700D01*
X6636506Y-117771700D01*
X6509218Y-117805806D01*
X6509209Y-117805810D01*
X6395085Y-117871700D01*
X6301900Y-117964885D01*
X6236010Y-118079009D01*
X6236006Y-118079018D01*
X6201900Y-118206305D01*
X4981300Y-118206305D01*
X4981300Y-117420527D01*
X5002974Y-117368201D01*
X5055300Y-117346527D01*
X5107626Y-117368201D01*
X5119382Y-117383522D01*
X5128500Y-117399314D01*
X5221686Y-117492500D01*
X5335814Y-117558392D01*
X5463105Y-117592499D01*
X5463106Y-117592500D01*
X5463108Y-117592500D01*
X5594894Y-117592500D01*
X5594894Y-117592499D01*
X5722186Y-117558392D01*
X5836314Y-117492500D01*
X5914640Y-117414174D01*
X5966966Y-117392500D01*
X7025464Y-117392500D01*
X7025464Y-117392499D01*
X7101889Y-117372021D01*
X7170411Y-117332460D01*
X7226360Y-117276511D01*
X8161300Y-116341570D01*
X8213625Y-116319897D01*
X8265951Y-116341571D01*
X8287625Y-116393897D01*
X8277711Y-116430897D01*
X8218410Y-116533609D01*
X8218406Y-116533618D01*
X8184300Y-116660905D01*
X8184300Y-116792694D01*
X8218406Y-116919981D01*
X8218407Y-116919984D01*
X8218408Y-116919986D01*
X8284300Y-117034114D01*
X8377486Y-117127300D01*
X8491614Y-117193192D01*
X8618905Y-117227299D01*
X8618906Y-117227300D01*
X8618908Y-117227300D01*
X8750694Y-117227300D01*
X8750694Y-117227299D01*
X8877986Y-117193192D01*
X8992114Y-117127300D01*
X9070440Y-117048974D01*
X9122766Y-117027300D01*
X9875364Y-117027300D01*
X9875364Y-117027299D01*
X9951789Y-117006821D01*
X10020311Y-116967260D01*
X10076260Y-116911311D01*
X17041866Y-109945705D01*
X17519500Y-109945705D01*
X17519500Y-110077494D01*
X17553606Y-110204781D01*
X17553610Y-110204790D01*
X17557899Y-110212218D01*
X17619500Y-110318914D01*
X17712686Y-110412100D01*
X17826814Y-110477992D01*
X17954105Y-110512099D01*
X17954106Y-110512100D01*
X17954108Y-110512100D01*
X18085894Y-110512100D01*
X18085894Y-110512099D01*
X18213186Y-110477992D01*
X18327314Y-110412100D01*
X18420500Y-110318914D01*
X18486392Y-110204786D01*
X18520499Y-110077494D01*
X18520500Y-110077494D01*
X18520500Y-109945706D01*
X18520499Y-109945705D01*
X18514304Y-109922586D01*
X18486392Y-109818414D01*
X18420500Y-109704286D01*
X18327314Y-109611100D01*
X18275067Y-109580935D01*
X18213190Y-109545210D01*
X18213181Y-109545206D01*
X18085894Y-109511100D01*
X18085892Y-109511100D01*
X17954108Y-109511100D01*
X17954106Y-109511100D01*
X17826818Y-109545206D01*
X17826809Y-109545210D01*
X17712685Y-109611100D01*
X17619500Y-109704285D01*
X17553610Y-109818409D01*
X17553606Y-109818418D01*
X17519500Y-109945705D01*
X17041866Y-109945705D01*
X20747597Y-106239974D01*
X20799923Y-106218300D01*
X21844664Y-106218300D01*
X21844664Y-106218299D01*
X21921089Y-106197821D01*
X21989611Y-106158260D01*
X22045560Y-106102311D01*
X36720460Y-91427411D01*
X36720463Y-91427404D01*
X36720950Y-91426772D01*
X36721300Y-91426569D01*
X36723889Y-91423981D01*
X36724582Y-91424674D01*
X36770000Y-91398456D01*
X36824707Y-91413117D01*
G37*
%TD.AperFunction*%
%TA.AperFunction,Conductor*%
G36*
X19799926Y-103569896D02*
G01*
X19821600Y-103622222D01*
X19821600Y-103702594D01*
X19855706Y-103829881D01*
X19855710Y-103829890D01*
X19906114Y-103917192D01*
X19921600Y-103944014D01*
X20014786Y-104037200D01*
X20128914Y-104103092D01*
X20256205Y-104137199D01*
X20256206Y-104137200D01*
X20256208Y-104137200D01*
X20387994Y-104137200D01*
X20392803Y-104136567D01*
X20393049Y-104138441D01*
X20442700Y-104144966D01*
X20477189Y-104189891D01*
X20469810Y-104246046D01*
X20458041Y-104261387D01*
X16573164Y-108146264D01*
X16520838Y-108167938D01*
X16468512Y-108146264D01*
X16449360Y-108113091D01*
X16426993Y-108029618D01*
X16426992Y-108029614D01*
X16361100Y-107915486D01*
X16267914Y-107822300D01*
X16252388Y-107813336D01*
X16153790Y-107756410D01*
X16153781Y-107756406D01*
X16026494Y-107722300D01*
X16026492Y-107722300D01*
X15894708Y-107722300D01*
X15894706Y-107722300D01*
X15767418Y-107756406D01*
X15767409Y-107756410D01*
X15653285Y-107822300D01*
X15560100Y-107915485D01*
X15494210Y-108029609D01*
X15494206Y-108029618D01*
X15460100Y-108156905D01*
X15460100Y-108288694D01*
X15494206Y-108415981D01*
X15494207Y-108415984D01*
X15494208Y-108415986D01*
X15560100Y-108530114D01*
X15653286Y-108623300D01*
X15767414Y-108689192D01*
X15767418Y-108689193D01*
X15850891Y-108711560D01*
X15895824Y-108746038D01*
X15903216Y-108802191D01*
X15884064Y-108835364D01*
X9474703Y-115244726D01*
X9422377Y-115266400D01*
X8471436Y-115266400D01*
X8395014Y-115286877D01*
X8395009Y-115286879D01*
X8368322Y-115302288D01*
X8326488Y-115326440D01*
X6883103Y-116769826D01*
X6830777Y-116791500D01*
X5966966Y-116791500D01*
X5914640Y-116769826D01*
X5836314Y-116691500D01*
X5722190Y-116625610D01*
X5722181Y-116625606D01*
X5594894Y-116591500D01*
X5594892Y-116591500D01*
X5463108Y-116591500D01*
X5463106Y-116591500D01*
X5335818Y-116625606D01*
X5335809Y-116625610D01*
X5221685Y-116691500D01*
X5128500Y-116784685D01*
X5119386Y-116800472D01*
X5074452Y-116834951D01*
X5018300Y-116827558D01*
X4983821Y-116782624D01*
X4981300Y-116763472D01*
X4981300Y-114568723D01*
X5002974Y-114516397D01*
X5848797Y-113670574D01*
X5901123Y-113648900D01*
X9993864Y-113648900D01*
X9993864Y-113648899D01*
X10070289Y-113628421D01*
X10138811Y-113588860D01*
X10194760Y-113532911D01*
X14379660Y-109348011D01*
X14395832Y-109320000D01*
X14419221Y-109279489D01*
X14439699Y-109203064D01*
X14439700Y-109203064D01*
X14439700Y-108856122D01*
X14461373Y-108803797D01*
X19695274Y-103569895D01*
X19747600Y-103548222D01*
X19799926Y-103569896D01*
G37*
%TD.AperFunction*%
%TA.AperFunction,Conductor*%
G36*
X34276979Y-91397043D02*
G01*
X34286176Y-91408250D01*
X34394023Y-91569655D01*
X34540345Y-91715977D01*
X34712402Y-91830941D01*
X34903580Y-91910130D01*
X35106535Y-91950500D01*
X35106536Y-91950500D01*
X35168776Y-91950500D01*
X35221102Y-91972174D01*
X35242776Y-92024500D01*
X35221102Y-92076826D01*
X21702303Y-105595626D01*
X21649977Y-105617300D01*
X20605236Y-105617300D01*
X20528814Y-105637777D01*
X20528809Y-105637779D01*
X20460288Y-105677340D01*
X9733003Y-116404626D01*
X9680677Y-116426300D01*
X9122766Y-116426300D01*
X9070440Y-116404626D01*
X8992114Y-116326300D01*
X8877990Y-116260410D01*
X8877981Y-116260406D01*
X8750694Y-116226300D01*
X8750692Y-116226300D01*
X8618908Y-116226300D01*
X8618906Y-116226300D01*
X8491618Y-116260406D01*
X8491609Y-116260410D01*
X8388897Y-116319711D01*
X8332744Y-116327103D01*
X8287811Y-116292625D01*
X8280419Y-116236472D01*
X8299569Y-116203301D01*
X8613797Y-115889074D01*
X8666123Y-115867400D01*
X9617064Y-115867400D01*
X9617064Y-115867399D01*
X9693489Y-115846921D01*
X9762011Y-115807360D01*
X9817960Y-115751411D01*
X34172328Y-91397042D01*
X34224653Y-91375369D01*
X34276979Y-91397043D01*
G37*
%TD.AperFunction*%
%TA.AperFunction,Conductor*%
G36*
X60798223Y-101128D02*
G01*
X61282056Y-164643D01*
X61300783Y-169663D01*
X61740275Y-352026D01*
X61756986Y-361686D01*
X61756990Y-361689D01*
X62134631Y-651762D01*
X62148239Y-665370D01*
X62380367Y-967574D01*
X62438309Y-1043007D01*
X62447973Y-1059724D01*
X62630336Y-1499218D01*
X62635356Y-1517947D01*
X62698870Y-2001767D01*
X62699500Y-2011399D01*
X62699500Y-147988599D01*
X62698870Y-147998231D01*
X62635356Y-148482051D01*
X62630336Y-148500780D01*
X62447973Y-148940274D01*
X62438309Y-148956991D01*
X62148239Y-149334628D01*
X62134631Y-149348236D01*
X61756989Y-149638310D01*
X61740272Y-149647974D01*
X61300780Y-149830336D01*
X61282051Y-149835356D01*
X60798231Y-149898870D01*
X60788599Y-149899500D01*
X2011401Y-149899500D01*
X2001769Y-149898870D01*
X1517947Y-149835356D01*
X1499218Y-149830336D01*
X1183134Y-149699180D01*
X1059723Y-149647972D01*
X1043007Y-149638309D01*
X665370Y-149348239D01*
X651762Y-149334631D01*
X361688Y-148956989D01*
X352025Y-148940274D01*
X169663Y-148500783D01*
X164643Y-148482055D01*
X164642Y-148482051D01*
X104804Y-148026218D01*
X101129Y-147998223D01*
X100500Y-147988591D01*
X100500Y-144629896D01*
X42034500Y-144629896D01*
X42034500Y-144755103D01*
X42066904Y-144876035D01*
X42066905Y-144876036D01*
X42129505Y-144984464D01*
X42218036Y-145072995D01*
X42326464Y-145135595D01*
X42326463Y-145135595D01*
X42396286Y-145154304D01*
X42447396Y-145167999D01*
X42447397Y-145168000D01*
X42447399Y-145168000D01*
X42572603Y-145168000D01*
X42572603Y-145167999D01*
X42693536Y-145135595D01*
X42801964Y-145072995D01*
X42890495Y-144984464D01*
X42953095Y-144876036D01*
X42985499Y-144755103D01*
X42985500Y-144755103D01*
X42985500Y-144629897D01*
X42985499Y-144629896D01*
X42980897Y-144612723D01*
X42953095Y-144508964D01*
X42890495Y-144400536D01*
X42801964Y-144312005D01*
X42801963Y-144312004D01*
X42693534Y-144249404D01*
X42693536Y-144249404D01*
X42572603Y-144217000D01*
X42572601Y-144217000D01*
X42447399Y-144217000D01*
X42447397Y-144217000D01*
X42326464Y-144249404D01*
X42218036Y-144312004D01*
X42129504Y-144400536D01*
X42066904Y-144508964D01*
X42034500Y-144629896D01*
X100500Y-144629896D01*
X100500Y-140961310D01*
X9499500Y-140961310D01*
X9499500Y-141138689D01*
X9534104Y-141312660D01*
X9534107Y-141312670D01*
X9601985Y-141476544D01*
X9639249Y-141532314D01*
X9700536Y-141624035D01*
X9825965Y-141749464D01*
X9973453Y-141848013D01*
X9973454Y-141848013D01*
X9973455Y-141848014D01*
X10111178Y-141905060D01*
X10137334Y-141915894D01*
X10311309Y-141950500D01*
X10311311Y-141950500D01*
X10488689Y-141950500D01*
X10488691Y-141950500D01*
X10662666Y-141915894D01*
X10826547Y-141848013D01*
X10974035Y-141749464D01*
X11099464Y-141624035D01*
X11198013Y-141476547D01*
X11265894Y-141312666D01*
X11296439Y-141159105D01*
X17338100Y-141159105D01*
X17338100Y-141290894D01*
X17372206Y-141418181D01*
X17372207Y-141418184D01*
X17372208Y-141418186D01*
X17438100Y-141532314D01*
X17531286Y-141625500D01*
X17645414Y-141691392D01*
X17772705Y-141725499D01*
X17772706Y-141725500D01*
X17772708Y-141725500D01*
X17904494Y-141725500D01*
X17904494Y-141725499D01*
X18031786Y-141691392D01*
X18145914Y-141625500D01*
X18239100Y-141532314D01*
X18304992Y-141418186D01*
X18339099Y-141290894D01*
X18339100Y-141290894D01*
X18339100Y-141159106D01*
X18339099Y-141159105D01*
X18304993Y-141031818D01*
X18304992Y-141031814D01*
X18239100Y-140917686D01*
X18145914Y-140824500D01*
X18114242Y-140806214D01*
X18031790Y-140758610D01*
X18031781Y-140758606D01*
X17904494Y-140724500D01*
X17904492Y-140724500D01*
X17772708Y-140724500D01*
X17772706Y-140724500D01*
X17645418Y-140758606D01*
X17645409Y-140758610D01*
X17531285Y-140824500D01*
X17438100Y-140917685D01*
X17372210Y-141031809D01*
X17372206Y-141031818D01*
X17338100Y-141159105D01*
X11296439Y-141159105D01*
X11300500Y-141138691D01*
X11300500Y-140961309D01*
X11265894Y-140787334D01*
X11253996Y-140758610D01*
X11198014Y-140623455D01*
X11179602Y-140595900D01*
X11099464Y-140475965D01*
X10974035Y-140350536D01*
X10826547Y-140251987D01*
X10826546Y-140251986D01*
X10826544Y-140251985D01*
X10662670Y-140184107D01*
X10662660Y-140184104D01*
X10546156Y-140160930D01*
X10488691Y-140149500D01*
X10311309Y-140149500D01*
X10261989Y-140159310D01*
X10137339Y-140184104D01*
X10137329Y-140184107D01*
X9973455Y-140251985D01*
X9825968Y-140350533D01*
X9700533Y-140475968D01*
X9601985Y-140623455D01*
X9534107Y-140787329D01*
X9534104Y-140787339D01*
X9499500Y-140961310D01*
X100500Y-140961310D01*
X100500Y-139959105D01*
X25863800Y-139959105D01*
X25863800Y-140090894D01*
X25897906Y-140218181D01*
X25897910Y-140218190D01*
X25948442Y-140305714D01*
X25963800Y-140332314D01*
X26056986Y-140425500D01*
X26171114Y-140491392D01*
X26298405Y-140525499D01*
X26298406Y-140525500D01*
X26298408Y-140525500D01*
X26430194Y-140525500D01*
X26430194Y-140525499D01*
X26557486Y-140491392D01*
X26658615Y-140433005D01*
X28046700Y-140433005D01*
X28046700Y-140564794D01*
X28080806Y-140692081D01*
X28080810Y-140692090D01*
X28119216Y-140758610D01*
X28146700Y-140806214D01*
X28239886Y-140899400D01*
X28354014Y-140965292D01*
X28481305Y-140999399D01*
X28481306Y-140999400D01*
X28481308Y-140999400D01*
X28613094Y-140999400D01*
X28613094Y-140999399D01*
X28740386Y-140965292D01*
X28854514Y-140899400D01*
X28947700Y-140806214D01*
X29013592Y-140692086D01*
X29047699Y-140564794D01*
X29047700Y-140564794D01*
X29047700Y-140433006D01*
X29047699Y-140433005D01*
X29027037Y-140355894D01*
X29013592Y-140305714D01*
X28947700Y-140191586D01*
X28854514Y-140098400D01*
X28841510Y-140090892D01*
X28740390Y-140032510D01*
X28740381Y-140032506D01*
X28613094Y-139998400D01*
X28613092Y-139998400D01*
X28481308Y-139998400D01*
X28481306Y-139998400D01*
X28354018Y-140032506D01*
X28354009Y-140032510D01*
X28239885Y-140098400D01*
X28146700Y-140191585D01*
X28080810Y-140305709D01*
X28080806Y-140305718D01*
X28046700Y-140433005D01*
X26658615Y-140433005D01*
X26671614Y-140425500D01*
X26764800Y-140332314D01*
X26830692Y-140218186D01*
X26864799Y-140090894D01*
X26864800Y-140090894D01*
X26864800Y-139959106D01*
X26864799Y-139959105D01*
X26845769Y-139888085D01*
X26830692Y-139831814D01*
X26764800Y-139717686D01*
X26671614Y-139624500D01*
X26557490Y-139558610D01*
X26557481Y-139558606D01*
X26430194Y-139524500D01*
X26430192Y-139524500D01*
X26298408Y-139524500D01*
X26298406Y-139524500D01*
X26171118Y-139558606D01*
X26171109Y-139558610D01*
X26056985Y-139624500D01*
X25963800Y-139717685D01*
X25897910Y-139831809D01*
X25897906Y-139831818D01*
X25863800Y-139959105D01*
X100500Y-139959105D01*
X100500Y-138672505D01*
X22356500Y-138672505D01*
X22356500Y-138804294D01*
X22390606Y-138931581D01*
X22390610Y-138931590D01*
X22456500Y-139045714D01*
X22549686Y-139138900D01*
X22663814Y-139204792D01*
X22791105Y-139238899D01*
X22791106Y-139238900D01*
X22791108Y-139238900D01*
X22922885Y-139238900D01*
X22922892Y-139238900D01*
X22922898Y-139238898D01*
X22924532Y-139238683D01*
X22925342Y-139238900D01*
X22927742Y-139238900D01*
X22927742Y-139239542D01*
X22979241Y-139253335D01*
X23007566Y-139302381D01*
X23008200Y-139312049D01*
X23008200Y-139436394D01*
X23042306Y-139563681D01*
X23042310Y-139563690D01*
X23077419Y-139624500D01*
X23108200Y-139677814D01*
X23201386Y-139771000D01*
X23315514Y-139836892D01*
X23442805Y-139870999D01*
X23442806Y-139871000D01*
X23442808Y-139871000D01*
X23574594Y-139871000D01*
X23574594Y-139870999D01*
X23701886Y-139836892D01*
X23816014Y-139771000D01*
X23909200Y-139677814D01*
X23975092Y-139563686D01*
X24009199Y-139436394D01*
X24009200Y-139436394D01*
X24009200Y-139304606D01*
X24009199Y-139304605D01*
X24007750Y-139299199D01*
X23975092Y-139177314D01*
X23909200Y-139063186D01*
X23816014Y-138970000D01*
X23749471Y-138931581D01*
X23701890Y-138904110D01*
X23701881Y-138904106D01*
X23574594Y-138870000D01*
X23574592Y-138870000D01*
X23442808Y-138870000D01*
X23442806Y-138870000D01*
X23441157Y-138870217D01*
X23440347Y-138870000D01*
X23437958Y-138870000D01*
X23437958Y-138869359D01*
X23386450Y-138855557D01*
X23358133Y-138806507D01*
X23357500Y-138796850D01*
X23357500Y-138732805D01*
X29030200Y-138732805D01*
X29030200Y-138864594D01*
X29064306Y-138991881D01*
X29064310Y-138991890D01*
X29130200Y-139106014D01*
X29223386Y-139199200D01*
X29337514Y-139265092D01*
X29464805Y-139299199D01*
X29464806Y-139299200D01*
X29464808Y-139299200D01*
X29596594Y-139299200D01*
X29596594Y-139299199D01*
X29723886Y-139265092D01*
X29838014Y-139199200D01*
X29931200Y-139106014D01*
X29997092Y-138991886D01*
X30031199Y-138864594D01*
X30031200Y-138864594D01*
X30031200Y-138732806D01*
X30031199Y-138732805D01*
X29997093Y-138605518D01*
X29997092Y-138605514D01*
X29931200Y-138491386D01*
X29838014Y-138398200D01*
X29733572Y-138337900D01*
X29723890Y-138332310D01*
X29723881Y-138332306D01*
X29596594Y-138298200D01*
X29596592Y-138298200D01*
X29464808Y-138298200D01*
X29464806Y-138298200D01*
X29337518Y-138332306D01*
X29337509Y-138332310D01*
X29223385Y-138398200D01*
X29130200Y-138491385D01*
X29064310Y-138605509D01*
X29064306Y-138605518D01*
X29030200Y-138732805D01*
X23357500Y-138732805D01*
X23357500Y-138672506D01*
X23357499Y-138672505D01*
X23323393Y-138545218D01*
X23323392Y-138545214D01*
X23257500Y-138431086D01*
X23164314Y-138337900D01*
X23095552Y-138298200D01*
X23050190Y-138272010D01*
X23050181Y-138272006D01*
X22922894Y-138237900D01*
X22922892Y-138237900D01*
X22791108Y-138237900D01*
X22791106Y-138237900D01*
X22663818Y-138272006D01*
X22663809Y-138272010D01*
X22549685Y-138337900D01*
X22456500Y-138431085D01*
X22390610Y-138545209D01*
X22390606Y-138545218D01*
X22356500Y-138672505D01*
X100500Y-138672505D01*
X100500Y-138060705D01*
X25699700Y-138060705D01*
X25699700Y-138192494D01*
X25733806Y-138319781D01*
X25733810Y-138319790D01*
X25776362Y-138393492D01*
X25799700Y-138433914D01*
X25892886Y-138527100D01*
X26007014Y-138592992D01*
X26134305Y-138627099D01*
X26134306Y-138627100D01*
X26134308Y-138627100D01*
X26266094Y-138627100D01*
X26266094Y-138627099D01*
X26393386Y-138592992D01*
X26507514Y-138527100D01*
X26600700Y-138433914D01*
X26666592Y-138319786D01*
X26700699Y-138192494D01*
X26700700Y-138192494D01*
X26700700Y-138060706D01*
X26700699Y-138060705D01*
X26666593Y-137933418D01*
X26666592Y-137933414D01*
X26600700Y-137819286D01*
X26507514Y-137726100D01*
X26393390Y-137660210D01*
X26393381Y-137660206D01*
X26266094Y-137626100D01*
X26266092Y-137626100D01*
X26134308Y-137626100D01*
X26134306Y-137626100D01*
X26007018Y-137660206D01*
X26007009Y-137660210D01*
X25892885Y-137726100D01*
X25799700Y-137819285D01*
X25733810Y-137933409D01*
X25733806Y-137933418D01*
X25699700Y-138060705D01*
X100500Y-138060705D01*
X100500Y-135952505D01*
X18670200Y-135952505D01*
X18670200Y-136084294D01*
X18704306Y-136211581D01*
X18704310Y-136211590D01*
X18766736Y-136319714D01*
X18770200Y-136325714D01*
X18863386Y-136418900D01*
X18977514Y-136484792D01*
X19104805Y-136518899D01*
X19104806Y-136518900D01*
X19104808Y-136518900D01*
X19236594Y-136518900D01*
X19236594Y-136518899D01*
X19363886Y-136484792D01*
X19478014Y-136418900D01*
X19571200Y-136325714D01*
X19637092Y-136211586D01*
X19671199Y-136084294D01*
X19671200Y-136084294D01*
X19671200Y-135952510D01*
X19671198Y-135952500D01*
X19669592Y-135946505D01*
X24262000Y-135946505D01*
X24262000Y-136078294D01*
X24296106Y-136205581D01*
X24296107Y-136205584D01*
X24296108Y-136205586D01*
X24362000Y-136319714D01*
X24455186Y-136412900D01*
X24569314Y-136478792D01*
X24696605Y-136512899D01*
X24696606Y-136512900D01*
X24696608Y-136512900D01*
X24828394Y-136512900D01*
X24828394Y-136512899D01*
X24955686Y-136478792D01*
X25069814Y-136412900D01*
X25163000Y-136319714D01*
X25228892Y-136205586D01*
X25262999Y-136078294D01*
X25263000Y-136078294D01*
X25263000Y-135946506D01*
X25262999Y-135946505D01*
X25228893Y-135819218D01*
X25228892Y-135819214D01*
X25163000Y-135705086D01*
X25069814Y-135611900D01*
X24955690Y-135546010D01*
X24955681Y-135546006D01*
X24828394Y-135511900D01*
X24828392Y-135511900D01*
X24696608Y-135511900D01*
X24696606Y-135511900D01*
X24569318Y-135546006D01*
X24569309Y-135546010D01*
X24455185Y-135611900D01*
X24362000Y-135705085D01*
X24296110Y-135819209D01*
X24296106Y-135819218D01*
X24262000Y-135946505D01*
X19669592Y-135946505D01*
X19637093Y-135825218D01*
X19637092Y-135825214D01*
X19571200Y-135711086D01*
X19478014Y-135617900D01*
X19467622Y-135611900D01*
X19363890Y-135552010D01*
X19363881Y-135552006D01*
X19236594Y-135517900D01*
X19236592Y-135517900D01*
X19104808Y-135517900D01*
X19104806Y-135517900D01*
X18977518Y-135552006D01*
X18977509Y-135552010D01*
X18863385Y-135617900D01*
X18770200Y-135711085D01*
X18704310Y-135825209D01*
X18704306Y-135825218D01*
X18670200Y-135952505D01*
X100500Y-135952505D01*
X100500Y-129838905D01*
X6969100Y-129838905D01*
X6969100Y-129970694D01*
X7003206Y-130097981D01*
X7003207Y-130097984D01*
X7003208Y-130097986D01*
X7069100Y-130212114D01*
X7162286Y-130305300D01*
X7276414Y-130371192D01*
X7403705Y-130405299D01*
X7403706Y-130405300D01*
X7514477Y-130405300D01*
X7566803Y-130426974D01*
X9092440Y-131952611D01*
X9148389Y-132008560D01*
X9216911Y-132048121D01*
X9216912Y-132048121D01*
X9216914Y-132048122D01*
X9255124Y-132058360D01*
X9293335Y-132068599D01*
X9293336Y-132068600D01*
X9293338Y-132068600D01*
X9372462Y-132068600D01*
X22965634Y-132068600D01*
X23017960Y-132090274D01*
X23096286Y-132168600D01*
X23210414Y-132234492D01*
X23337705Y-132268599D01*
X23337706Y-132268600D01*
X23337708Y-132268600D01*
X23469494Y-132268600D01*
X23469494Y-132268599D01*
X23596786Y-132234492D01*
X23710914Y-132168600D01*
X23804100Y-132075414D01*
X23869992Y-131961286D01*
X23904099Y-131833994D01*
X23904100Y-131833994D01*
X23904100Y-131702206D01*
X23904099Y-131702205D01*
X23869993Y-131574918D01*
X23869992Y-131574914D01*
X23804100Y-131460786D01*
X23710914Y-131367600D01*
X23596790Y-131301710D01*
X23596781Y-131301706D01*
X23469494Y-131267600D01*
X23469492Y-131267600D01*
X23337708Y-131267600D01*
X23337706Y-131267600D01*
X23210418Y-131301706D01*
X23210409Y-131301710D01*
X23096285Y-131367600D01*
X23017960Y-131445926D01*
X22965634Y-131467600D01*
X9488023Y-131467600D01*
X9435697Y-131445926D01*
X7991774Y-130002003D01*
X7970100Y-129949677D01*
X7970100Y-129838906D01*
X7970099Y-129838905D01*
X7935993Y-129711618D01*
X7935992Y-129711614D01*
X7870100Y-129597486D01*
X7776914Y-129504300D01*
X7662790Y-129438410D01*
X7662781Y-129438406D01*
X7535494Y-129404300D01*
X7535492Y-129404300D01*
X7403708Y-129404300D01*
X7403706Y-129404300D01*
X7276418Y-129438406D01*
X7276409Y-129438410D01*
X7162285Y-129504300D01*
X7069100Y-129597485D01*
X7003210Y-129711609D01*
X7003206Y-129711618D01*
X6969100Y-129838905D01*
X100500Y-129838905D01*
X100500Y-62723135D01*
X1082200Y-62723135D01*
X1082200Y-120698764D01*
X1102677Y-120775186D01*
X1102679Y-120775189D01*
X1139398Y-120838789D01*
X1139399Y-120838790D01*
X1139398Y-120838790D01*
X1142238Y-120843708D01*
X1142240Y-120843711D01*
X7533589Y-127235060D01*
X7602112Y-127274622D01*
X7678538Y-127295100D01*
X7757662Y-127295100D01*
X16831977Y-127295100D01*
X16884303Y-127316774D01*
X17825640Y-128258111D01*
X17881589Y-128314060D01*
X17950111Y-128353621D01*
X17950112Y-128353621D01*
X17950114Y-128353622D01*
X17988324Y-128363860D01*
X18026535Y-128374099D01*
X18026536Y-128374100D01*
X18026538Y-128374100D01*
X26380677Y-128374100D01*
X26433003Y-128395774D01*
X31149026Y-133111797D01*
X31170700Y-133164123D01*
X31170700Y-133274894D01*
X31204806Y-133402181D01*
X31204807Y-133402184D01*
X31204808Y-133402186D01*
X31270700Y-133516314D01*
X31363886Y-133609500D01*
X31478014Y-133675392D01*
X31605305Y-133709499D01*
X31605306Y-133709500D01*
X31605308Y-133709500D01*
X31737094Y-133709500D01*
X31737094Y-133709499D01*
X31864386Y-133675392D01*
X31978514Y-133609500D01*
X32056840Y-133531174D01*
X32109166Y-133509500D01*
X33729077Y-133509500D01*
X33781403Y-133531174D01*
X44810626Y-144560397D01*
X44832300Y-144612723D01*
X44832300Y-144723494D01*
X44866406Y-144850781D01*
X44866410Y-144850790D01*
X44880986Y-144876036D01*
X44932300Y-144964914D01*
X45025486Y-145058100D01*
X45139614Y-145123992D01*
X45266905Y-145158099D01*
X45266906Y-145158100D01*
X45266908Y-145158100D01*
X45398694Y-145158100D01*
X45398694Y-145158099D01*
X45525986Y-145123992D01*
X45640114Y-145058100D01*
X45733300Y-144964914D01*
X45799192Y-144850786D01*
X45833299Y-144723494D01*
X45833300Y-144723494D01*
X45833300Y-144629896D01*
X47814500Y-144629896D01*
X47814500Y-144755103D01*
X47846904Y-144876035D01*
X47846905Y-144876036D01*
X47909505Y-144984464D01*
X47998036Y-145072995D01*
X48106464Y-145135595D01*
X48106463Y-145135595D01*
X48176286Y-145154304D01*
X48227396Y-145167999D01*
X48227397Y-145168000D01*
X48227399Y-145168000D01*
X48352603Y-145168000D01*
X48352603Y-145167999D01*
X48473536Y-145135595D01*
X48581964Y-145072995D01*
X48670495Y-144984464D01*
X48733095Y-144876036D01*
X48765499Y-144755103D01*
X48765500Y-144755103D01*
X48765500Y-144629897D01*
X48765499Y-144629896D01*
X48760897Y-144612723D01*
X48733095Y-144508964D01*
X48670495Y-144400536D01*
X48581964Y-144312005D01*
X48581963Y-144312004D01*
X48473534Y-144249404D01*
X48473536Y-144249404D01*
X48352603Y-144217000D01*
X48352601Y-144217000D01*
X48227399Y-144217000D01*
X48227397Y-144217000D01*
X48106464Y-144249404D01*
X47998036Y-144312004D01*
X47909504Y-144400536D01*
X47846904Y-144508964D01*
X47814500Y-144629896D01*
X45833300Y-144629896D01*
X45833300Y-144591706D01*
X45833299Y-144591705D01*
X45799193Y-144464418D01*
X45799192Y-144464414D01*
X45733300Y-144350286D01*
X45640114Y-144257100D01*
X45570659Y-144217000D01*
X45525990Y-144191210D01*
X45525981Y-144191206D01*
X45398694Y-144157100D01*
X45398692Y-144157100D01*
X45287923Y-144157100D01*
X45235597Y-144135426D01*
X34068711Y-132968540D01*
X34000190Y-132928979D01*
X34000185Y-132928977D01*
X33923764Y-132908500D01*
X33923762Y-132908500D01*
X32109166Y-132908500D01*
X32056840Y-132886826D01*
X31978514Y-132808500D01*
X31864390Y-132742610D01*
X31864381Y-132742606D01*
X31737094Y-132708500D01*
X31737092Y-132708500D01*
X31626323Y-132708500D01*
X31573997Y-132686826D01*
X26720311Y-127833140D01*
X26651790Y-127793579D01*
X26651785Y-127793577D01*
X26575364Y-127773100D01*
X26575362Y-127773100D01*
X19434266Y-127773100D01*
X19381940Y-127751426D01*
X19360266Y-127699100D01*
X19381940Y-127646774D01*
X19450140Y-127578574D01*
X19502466Y-127556900D01*
X30789377Y-127556900D01*
X30841703Y-127578574D01*
X43361326Y-140098197D01*
X43383000Y-140150523D01*
X43383000Y-140261294D01*
X43417106Y-140388581D01*
X43417107Y-140388584D01*
X43417108Y-140388586D01*
X43483000Y-140502714D01*
X43576186Y-140595900D01*
X43690314Y-140661792D01*
X43817605Y-140695899D01*
X43817606Y-140695900D01*
X43817608Y-140695900D01*
X43949394Y-140695900D01*
X43949394Y-140695899D01*
X44076686Y-140661792D01*
X44190814Y-140595900D01*
X44284000Y-140502714D01*
X44349892Y-140388586D01*
X44383999Y-140261294D01*
X44384000Y-140261294D01*
X44384000Y-140129506D01*
X44383999Y-140129505D01*
X44373653Y-140090894D01*
X44349892Y-140002214D01*
X44284000Y-139888086D01*
X44190814Y-139794900D01*
X44149418Y-139771000D01*
X44076690Y-139729010D01*
X44076681Y-139729006D01*
X43949394Y-139694900D01*
X43949392Y-139694900D01*
X43838623Y-139694900D01*
X43786297Y-139673226D01*
X40016276Y-135903205D01*
X41877600Y-135903205D01*
X41877600Y-136034994D01*
X41911706Y-136162281D01*
X41911710Y-136162290D01*
X41940171Y-136211586D01*
X41977600Y-136276414D01*
X42070786Y-136369600D01*
X42184914Y-136435492D01*
X42312205Y-136469599D01*
X42312206Y-136469600D01*
X42312208Y-136469600D01*
X42443994Y-136469600D01*
X42443994Y-136469599D01*
X42571286Y-136435492D01*
X42685414Y-136369600D01*
X42778600Y-136276414D01*
X42844492Y-136162286D01*
X42878599Y-136034994D01*
X42878600Y-136034994D01*
X42878600Y-135903206D01*
X42878599Y-135903205D01*
X42844493Y-135775918D01*
X42844492Y-135775914D01*
X42778600Y-135661786D01*
X42685414Y-135568600D01*
X42656676Y-135552008D01*
X42571290Y-135502710D01*
X42571281Y-135502706D01*
X42443994Y-135468600D01*
X42443992Y-135468600D01*
X42312208Y-135468600D01*
X42312206Y-135468600D01*
X42184918Y-135502706D01*
X42184909Y-135502710D01*
X42070785Y-135568600D01*
X41977600Y-135661785D01*
X41911710Y-135775909D01*
X41911706Y-135775918D01*
X41877600Y-135903205D01*
X40016276Y-135903205D01*
X31129011Y-127015940D01*
X31060490Y-126976379D01*
X31060485Y-126976377D01*
X30984064Y-126955900D01*
X30984062Y-126955900D01*
X19502466Y-126955900D01*
X19450140Y-126934226D01*
X19371814Y-126855900D01*
X19257690Y-126790010D01*
X19257681Y-126790006D01*
X19130394Y-126755900D01*
X19130392Y-126755900D01*
X18998608Y-126755900D01*
X18998606Y-126755900D01*
X18871318Y-126790006D01*
X18871309Y-126790010D01*
X18757185Y-126855900D01*
X18664000Y-126949085D01*
X18598110Y-127063209D01*
X18598106Y-127063218D01*
X18564000Y-127190505D01*
X18564000Y-127322294D01*
X18598106Y-127449581D01*
X18598110Y-127449590D01*
X18664000Y-127563714D01*
X18747060Y-127646774D01*
X18768734Y-127699100D01*
X18747060Y-127751426D01*
X18694734Y-127773100D01*
X18221223Y-127773100D01*
X18168897Y-127751426D01*
X17171611Y-126754140D01*
X17103090Y-126714579D01*
X17103085Y-126714577D01*
X17026664Y-126694100D01*
X17026662Y-126694100D01*
X7873223Y-126694100D01*
X7820897Y-126672426D01*
X7515494Y-126367023D01*
X7493820Y-126314697D01*
X7515494Y-126262371D01*
X7530812Y-126250616D01*
X7639614Y-126187800D01*
X7732800Y-126094614D01*
X7788003Y-125999000D01*
X7832937Y-125964521D01*
X7852089Y-125962000D01*
X24757064Y-125962000D01*
X24757064Y-125961999D01*
X24833489Y-125941521D01*
X24902011Y-125901960D01*
X24957960Y-125846011D01*
X26347889Y-124456081D01*
X26400214Y-124434408D01*
X26452540Y-124456082D01*
X26471692Y-124489255D01*
X26496806Y-124582981D01*
X26496810Y-124582990D01*
X26530471Y-124641292D01*
X26562700Y-124697114D01*
X26655886Y-124790300D01*
X26770014Y-124856192D01*
X26897305Y-124890299D01*
X26897306Y-124890300D01*
X26897308Y-124890300D01*
X27029094Y-124890300D01*
X27029094Y-124890299D01*
X27156386Y-124856192D01*
X27270514Y-124790300D01*
X27363700Y-124697114D01*
X27429592Y-124582986D01*
X27449281Y-124509505D01*
X36299500Y-124509505D01*
X36299500Y-124641294D01*
X36333606Y-124768581D01*
X36333610Y-124768590D01*
X36381599Y-124851709D01*
X36399500Y-124882714D01*
X36492686Y-124975900D01*
X36606814Y-125041792D01*
X36734105Y-125075899D01*
X36734106Y-125075900D01*
X36734108Y-125075900D01*
X36865894Y-125075900D01*
X36865894Y-125075899D01*
X36993186Y-125041792D01*
X37107314Y-124975900D01*
X37200500Y-124882714D01*
X37266392Y-124768586D01*
X37300499Y-124641294D01*
X37300500Y-124641294D01*
X37300500Y-124509506D01*
X37300499Y-124509505D01*
X37266393Y-124382218D01*
X37266392Y-124382214D01*
X37200500Y-124268086D01*
X37107314Y-124174900D01*
X37057424Y-124146096D01*
X36993190Y-124109010D01*
X36993181Y-124109006D01*
X36865894Y-124074900D01*
X36865892Y-124074900D01*
X36734108Y-124074900D01*
X36734106Y-124074900D01*
X36606818Y-124109006D01*
X36606809Y-124109010D01*
X36492685Y-124174900D01*
X36399500Y-124268085D01*
X36333610Y-124382209D01*
X36333606Y-124382218D01*
X36299500Y-124509505D01*
X27449281Y-124509505D01*
X27463699Y-124455694D01*
X27463700Y-124455694D01*
X27463700Y-124323906D01*
X27463699Y-124323905D01*
X27429593Y-124196618D01*
X27429592Y-124196614D01*
X27363700Y-124082486D01*
X27270514Y-123989300D01*
X27178172Y-123935986D01*
X27156390Y-123923410D01*
X27156381Y-123923406D01*
X27062655Y-123898292D01*
X27017722Y-123863814D01*
X27010330Y-123807661D01*
X27029480Y-123774490D01*
X29366864Y-121437105D01*
X36106400Y-121437105D01*
X36106400Y-121568894D01*
X36140506Y-121696181D01*
X36140510Y-121696190D01*
X36195007Y-121790581D01*
X36206400Y-121810314D01*
X36299586Y-121903500D01*
X36413714Y-121969392D01*
X36541005Y-122003499D01*
X36541006Y-122003500D01*
X36541008Y-122003500D01*
X36672794Y-122003500D01*
X36672794Y-122003499D01*
X36800086Y-121969392D01*
X36914214Y-121903500D01*
X37007400Y-121810314D01*
X37073292Y-121696186D01*
X37107399Y-121568894D01*
X37107400Y-121568894D01*
X37107400Y-121437106D01*
X37107399Y-121437105D01*
X37073293Y-121309818D01*
X37073292Y-121309814D01*
X37007400Y-121195686D01*
X36914214Y-121102500D01*
X36904515Y-121096900D01*
X36800090Y-121036610D01*
X36800081Y-121036606D01*
X36672794Y-121002500D01*
X36672792Y-121002500D01*
X36541008Y-121002500D01*
X36541006Y-121002500D01*
X36413718Y-121036606D01*
X36413709Y-121036610D01*
X36299585Y-121102500D01*
X36206400Y-121195685D01*
X36140510Y-121309809D01*
X36140506Y-121309818D01*
X36106400Y-121437105D01*
X29366864Y-121437105D01*
X30076096Y-120727873D01*
X30128422Y-120706200D01*
X30239194Y-120706200D01*
X30239194Y-120706199D01*
X30366486Y-120672092D01*
X30480614Y-120606200D01*
X30573800Y-120513014D01*
X30639692Y-120398886D01*
X30673799Y-120271594D01*
X30673800Y-120271594D01*
X30673800Y-120139806D01*
X30673799Y-120139805D01*
X30673607Y-120139090D01*
X30639692Y-120012514D01*
X30573800Y-119898386D01*
X30480614Y-119805200D01*
X30366486Y-119739308D01*
X30362286Y-119736883D01*
X30362966Y-119735704D01*
X30326581Y-119699322D01*
X30326578Y-119642685D01*
X30366625Y-119602634D01*
X30394947Y-119597000D01*
X34639020Y-119597000D01*
X34691346Y-119618674D01*
X34710497Y-119651846D01*
X34711337Y-119654977D01*
X34724308Y-119703387D01*
X34752790Y-119752718D01*
X34790200Y-119817514D01*
X34883386Y-119910700D01*
X34997514Y-119976592D01*
X35124805Y-120010699D01*
X35124806Y-120010700D01*
X35124808Y-120010700D01*
X35256594Y-120010700D01*
X35256594Y-120010699D01*
X35383886Y-119976592D01*
X35498014Y-119910700D01*
X35591200Y-119817514D01*
X35657092Y-119703386D01*
X35691199Y-119576094D01*
X35691200Y-119576094D01*
X35691200Y-119494823D01*
X35712874Y-119442497D01*
X35765200Y-119420823D01*
X35817526Y-119442497D01*
X41005126Y-124630097D01*
X41026800Y-124682423D01*
X41026800Y-125528834D01*
X41005126Y-125581160D01*
X40926800Y-125659485D01*
X40860910Y-125773609D01*
X40860906Y-125773618D01*
X40826800Y-125900905D01*
X40826800Y-126032694D01*
X40860906Y-126159981D01*
X40860910Y-126159990D01*
X40915009Y-126253692D01*
X40926800Y-126274114D01*
X41019986Y-126367300D01*
X41134114Y-126433192D01*
X41261405Y-126467299D01*
X41261406Y-126467300D01*
X41261408Y-126467300D01*
X41393194Y-126467300D01*
X41393194Y-126467299D01*
X41520486Y-126433192D01*
X41634614Y-126367300D01*
X41727800Y-126274114D01*
X41793692Y-126159986D01*
X41827799Y-126032694D01*
X41827800Y-126032694D01*
X41827800Y-125900906D01*
X41827799Y-125900905D01*
X41813090Y-125846011D01*
X41793692Y-125773614D01*
X41727800Y-125659486D01*
X41649474Y-125581160D01*
X41627800Y-125528834D01*
X41627800Y-124487736D01*
X41627799Y-124487735D01*
X41627201Y-124485505D01*
X41607321Y-124411311D01*
X41567760Y-124342789D01*
X41511811Y-124286840D01*
X29222174Y-111997203D01*
X29200500Y-111944877D01*
X29200500Y-110920740D01*
X29200500Y-110920734D01*
X29197646Y-110890301D01*
X29191169Y-110871792D01*
X29152793Y-110762118D01*
X29152792Y-110762116D01*
X29072153Y-110652853D01*
X29072146Y-110652846D01*
X28962883Y-110572207D01*
X28962881Y-110572206D01*
X28834704Y-110527355D01*
X28834705Y-110527355D01*
X28834700Y-110527354D01*
X28834699Y-110527354D01*
X28804266Y-110524500D01*
X27995734Y-110524500D01*
X27965301Y-110527354D01*
X27965299Y-110527354D01*
X27965295Y-110527355D01*
X27837118Y-110572206D01*
X27837116Y-110572207D01*
X27727853Y-110652846D01*
X27727846Y-110652853D01*
X27647207Y-110762116D01*
X27647206Y-110762118D01*
X27602355Y-110890295D01*
X27602354Y-110890299D01*
X27602354Y-110890301D01*
X27599500Y-110920734D01*
X27599500Y-112279266D01*
X27602354Y-112309699D01*
X27602354Y-112309701D01*
X27602355Y-112309704D01*
X27647206Y-112437881D01*
X27647207Y-112437883D01*
X27727846Y-112547146D01*
X27727853Y-112547153D01*
X27837116Y-112627792D01*
X27837118Y-112627793D01*
X27965295Y-112672644D01*
X27965301Y-112672646D01*
X27995734Y-112675500D01*
X27995741Y-112675500D01*
X28804258Y-112675500D01*
X28804266Y-112675500D01*
X28834699Y-112672646D01*
X28948581Y-112632797D01*
X29005128Y-112635972D01*
X29025347Y-112650318D01*
X35258403Y-118883374D01*
X35280077Y-118935700D01*
X35258403Y-118988026D01*
X35206077Y-119009700D01*
X35124807Y-119009700D01*
X35115395Y-119012221D01*
X35077096Y-119012220D01*
X35016562Y-118996000D01*
X14121523Y-118996000D01*
X14069197Y-118974326D01*
X13336574Y-118241703D01*
X13314900Y-118189377D01*
X13314900Y-118078606D01*
X13314899Y-118078605D01*
X13298328Y-118016762D01*
X13280792Y-117951314D01*
X13214900Y-117837186D01*
X13121714Y-117744000D01*
X13015862Y-117682886D01*
X13007590Y-117678110D01*
X13007581Y-117678106D01*
X12880294Y-117644000D01*
X12880292Y-117644000D01*
X12748508Y-117644000D01*
X12748507Y-117644000D01*
X12705813Y-117655439D01*
X12649661Y-117648045D01*
X12615183Y-117603111D01*
X12622577Y-117546959D01*
X12634332Y-117531638D01*
X17208065Y-112957905D01*
X18444700Y-112957905D01*
X18444700Y-113089694D01*
X18478806Y-113216981D01*
X18478807Y-113216984D01*
X18478808Y-113216986D01*
X18544700Y-113331114D01*
X18637886Y-113424300D01*
X18752014Y-113490192D01*
X18879305Y-113524299D01*
X18879306Y-113524300D01*
X18879308Y-113524300D01*
X19011094Y-113524300D01*
X19011094Y-113524299D01*
X19138386Y-113490192D01*
X19252514Y-113424300D01*
X19345700Y-113331114D01*
X19411592Y-113216986D01*
X19445700Y-113089692D01*
X19445700Y-112978922D01*
X19467374Y-112926596D01*
X22229966Y-110164005D01*
X36105400Y-110164005D01*
X36105400Y-110295794D01*
X36139506Y-110423081D01*
X36139510Y-110423090D01*
X36190900Y-110512099D01*
X36205400Y-110537214D01*
X36298586Y-110630400D01*
X36412714Y-110696292D01*
X36540005Y-110730399D01*
X36540006Y-110730400D01*
X36540008Y-110730400D01*
X36671794Y-110730400D01*
X36671794Y-110730399D01*
X36742682Y-110711405D01*
X40726300Y-110711405D01*
X40726300Y-110843194D01*
X40760406Y-110970481D01*
X40760410Y-110970490D01*
X40826300Y-111084614D01*
X40830326Y-111088640D01*
X40852000Y-111140966D01*
X40852000Y-119849664D01*
X40872478Y-119926088D01*
X40892114Y-119960100D01*
X40892115Y-119960100D01*
X40912040Y-119994611D01*
X42043526Y-121126097D01*
X42065200Y-121178423D01*
X42065200Y-134446864D01*
X42085677Y-134523285D01*
X42085679Y-134523290D01*
X42125240Y-134591811D01*
X46214226Y-138680797D01*
X46235900Y-138733123D01*
X46235900Y-141852734D01*
X46214226Y-141905060D01*
X46135900Y-141983385D01*
X46070010Y-142097509D01*
X46070006Y-142097518D01*
X46035900Y-142224805D01*
X46035900Y-142356594D01*
X46070006Y-142483881D01*
X46070007Y-142483884D01*
X46070008Y-142483886D01*
X46135900Y-142598014D01*
X46229086Y-142691200D01*
X46343214Y-142757092D01*
X46470505Y-142791199D01*
X46470506Y-142791200D01*
X46470508Y-142791200D01*
X46602294Y-142791200D01*
X46602294Y-142791199D01*
X46729586Y-142757092D01*
X46843714Y-142691200D01*
X46936900Y-142598014D01*
X47002792Y-142483886D01*
X47036899Y-142356594D01*
X47036900Y-142356594D01*
X47036900Y-142224806D01*
X47036899Y-142224805D01*
X47002793Y-142097518D01*
X47002792Y-142097514D01*
X46936900Y-141983386D01*
X46858574Y-141905060D01*
X46836900Y-141852734D01*
X46836900Y-139319205D01*
X48258500Y-139319205D01*
X48258500Y-139450994D01*
X48292606Y-139578281D01*
X48292607Y-139578284D01*
X48292608Y-139578286D01*
X48358500Y-139692414D01*
X48451686Y-139785600D01*
X48565814Y-139851492D01*
X48693105Y-139885599D01*
X48693106Y-139885600D01*
X48693108Y-139885600D01*
X48824894Y-139885600D01*
X48824894Y-139885599D01*
X48952186Y-139851492D01*
X49066314Y-139785600D01*
X49159500Y-139692414D01*
X49225392Y-139578286D01*
X49259499Y-139450994D01*
X49259500Y-139450994D01*
X49259500Y-139319206D01*
X49259499Y-139319205D01*
X49254138Y-139299199D01*
X49225392Y-139191914D01*
X49159500Y-139077786D01*
X49066314Y-138984600D01*
X49041026Y-138970000D01*
X48952190Y-138918710D01*
X48952181Y-138918706D01*
X48824894Y-138884600D01*
X48824892Y-138884600D01*
X48693108Y-138884600D01*
X48693106Y-138884600D01*
X48565818Y-138918706D01*
X48565809Y-138918710D01*
X48451685Y-138984600D01*
X48358500Y-139077785D01*
X48292610Y-139191909D01*
X48292606Y-139191918D01*
X48258500Y-139319205D01*
X46836900Y-139319205D01*
X46836900Y-138538437D01*
X46832814Y-138523187D01*
X46832814Y-138523186D01*
X46816423Y-138462015D01*
X46816421Y-138462010D01*
X46776862Y-138393492D01*
X46776861Y-138393491D01*
X46776860Y-138393489D01*
X42687874Y-134304503D01*
X42666200Y-134252177D01*
X42666200Y-133850805D01*
X43136900Y-133850805D01*
X43136900Y-133982594D01*
X43171006Y-134109881D01*
X43171007Y-134109884D01*
X43171008Y-134109886D01*
X43236900Y-134224014D01*
X43330086Y-134317200D01*
X43444214Y-134383092D01*
X43571505Y-134417199D01*
X43571506Y-134417200D01*
X43682277Y-134417200D01*
X43734603Y-134438874D01*
X46487940Y-137192211D01*
X46543889Y-137248160D01*
X46612411Y-137287721D01*
X46612412Y-137287721D01*
X46612414Y-137287722D01*
X46650624Y-137297960D01*
X46688835Y-137308199D01*
X46688836Y-137308200D01*
X46688838Y-137308200D01*
X46767962Y-137308200D01*
X49406077Y-137308200D01*
X49458403Y-137329874D01*
X52321326Y-140192797D01*
X52343000Y-140245123D01*
X52343000Y-140355894D01*
X52377106Y-140483181D01*
X52377110Y-140483190D01*
X52442183Y-140595899D01*
X52443000Y-140597314D01*
X52536186Y-140690500D01*
X52650314Y-140756392D01*
X52777605Y-140790499D01*
X52777606Y-140790500D01*
X52777608Y-140790500D01*
X52909394Y-140790500D01*
X52909394Y-140790499D01*
X53036686Y-140756392D01*
X53150814Y-140690500D01*
X53244000Y-140597314D01*
X53309892Y-140483186D01*
X53343999Y-140355894D01*
X53344000Y-140355894D01*
X53344000Y-140224106D01*
X53343999Y-140224105D01*
X53335285Y-140191585D01*
X53309892Y-140096814D01*
X53244000Y-139982686D01*
X53150814Y-139889500D01*
X53118771Y-139871000D01*
X53036690Y-139823610D01*
X53036681Y-139823606D01*
X52909394Y-139789500D01*
X52909392Y-139789500D01*
X52798623Y-139789500D01*
X52746297Y-139767826D01*
X49745711Y-136767240D01*
X49677190Y-136727679D01*
X49677185Y-136727677D01*
X49600764Y-136707200D01*
X49600762Y-136707200D01*
X46883523Y-136707200D01*
X46831197Y-136685526D01*
X44159574Y-134013903D01*
X44137900Y-133961577D01*
X44137900Y-133850806D01*
X44137899Y-133850805D01*
X44103793Y-133723518D01*
X44103792Y-133723514D01*
X44037900Y-133609386D01*
X43944714Y-133516200D01*
X43933109Y-133509500D01*
X43830590Y-133450310D01*
X43830581Y-133450306D01*
X43703294Y-133416200D01*
X43703292Y-133416200D01*
X43571508Y-133416200D01*
X43571506Y-133416200D01*
X43444218Y-133450306D01*
X43444209Y-133450310D01*
X43330085Y-133516200D01*
X43236900Y-133609385D01*
X43171010Y-133723509D01*
X43171006Y-133723518D01*
X43136900Y-133850805D01*
X42666200Y-133850805D01*
X42666200Y-120983736D01*
X42666199Y-120983735D01*
X42645722Y-120907314D01*
X42645720Y-120907309D01*
X42609002Y-120843712D01*
X42606160Y-120838789D01*
X42550211Y-120782840D01*
X41474674Y-119707303D01*
X41453000Y-119654977D01*
X41453000Y-116349605D01*
X45899500Y-116349605D01*
X45899500Y-116481394D01*
X45933606Y-116608681D01*
X45933607Y-116608684D01*
X45933608Y-116608686D01*
X45999500Y-116722814D01*
X46092686Y-116816000D01*
X46206814Y-116881892D01*
X46334105Y-116915999D01*
X46334106Y-116916000D01*
X46334108Y-116916000D01*
X46465894Y-116916000D01*
X46465894Y-116915999D01*
X46593186Y-116881892D01*
X46707314Y-116816000D01*
X46800500Y-116722814D01*
X46866392Y-116608686D01*
X46900499Y-116481394D01*
X46900500Y-116481394D01*
X46900500Y-116349606D01*
X46900499Y-116349605D01*
X46898346Y-116341571D01*
X46866392Y-116222314D01*
X46800500Y-116108186D01*
X46707314Y-116015000D01*
X46593190Y-115949110D01*
X46593181Y-115949106D01*
X46465894Y-115915000D01*
X46465892Y-115915000D01*
X46334108Y-115915000D01*
X46334106Y-115915000D01*
X46206818Y-115949106D01*
X46206809Y-115949110D01*
X46092685Y-116015000D01*
X45999500Y-116108185D01*
X45933610Y-116222309D01*
X45933606Y-116222318D01*
X45899500Y-116349605D01*
X41453000Y-116349605D01*
X41453000Y-112118759D01*
X41474674Y-112066433D01*
X41527000Y-112044759D01*
X41546148Y-112047279D01*
X41638408Y-112072000D01*
X41638409Y-112072000D01*
X41770194Y-112072000D01*
X41770194Y-112071999D01*
X41897486Y-112037892D01*
X42011614Y-111972000D01*
X42104800Y-111878814D01*
X42170692Y-111764686D01*
X42204799Y-111637394D01*
X42204800Y-111637394D01*
X42204800Y-111505606D01*
X42204799Y-111505605D01*
X42170693Y-111378318D01*
X42170692Y-111378314D01*
X42104800Y-111264186D01*
X42011614Y-111171000D01*
X41959594Y-111140966D01*
X41897490Y-111105110D01*
X41897481Y-111105106D01*
X41770194Y-111071000D01*
X41770192Y-111071000D01*
X41762307Y-111071000D01*
X41709981Y-111049326D01*
X41688307Y-110997000D01*
X41692611Y-110975352D01*
X41691936Y-110975171D01*
X41693190Y-110970488D01*
X41693192Y-110970486D01*
X41727300Y-110843192D01*
X41727300Y-110711408D01*
X41727300Y-110711406D01*
X41727299Y-110711405D01*
X41711609Y-110652850D01*
X41693192Y-110584114D01*
X41627300Y-110469986D01*
X41534114Y-110376800D01*
X41469519Y-110339506D01*
X41419990Y-110310910D01*
X41419981Y-110310906D01*
X41292694Y-110276800D01*
X41292692Y-110276800D01*
X41160908Y-110276800D01*
X41160906Y-110276800D01*
X41033618Y-110310906D01*
X41033609Y-110310910D01*
X40919485Y-110376800D01*
X40826300Y-110469985D01*
X40760410Y-110584109D01*
X40760406Y-110584118D01*
X40726300Y-110711405D01*
X36742682Y-110711405D01*
X36799086Y-110696292D01*
X36913214Y-110630400D01*
X37006400Y-110537214D01*
X37072292Y-110423086D01*
X37106399Y-110295794D01*
X37106400Y-110295794D01*
X37106400Y-110164006D01*
X37106399Y-110164005D01*
X37072293Y-110036718D01*
X37072292Y-110036714D01*
X37006400Y-109922586D01*
X36913214Y-109829400D01*
X36820068Y-109775622D01*
X36799090Y-109763510D01*
X36799081Y-109763506D01*
X36671794Y-109729400D01*
X36671792Y-109729400D01*
X36540008Y-109729400D01*
X36540006Y-109729400D01*
X36412718Y-109763506D01*
X36412709Y-109763510D01*
X36298585Y-109829400D01*
X36205400Y-109922585D01*
X36139510Y-110036709D01*
X36139506Y-110036718D01*
X36105400Y-110164005D01*
X22229966Y-110164005D01*
X22287139Y-110106832D01*
X24171797Y-108222174D01*
X24224123Y-108200500D01*
X33852714Y-108200500D01*
X33905040Y-108222174D01*
X33926714Y-108274500D01*
X33924193Y-108293652D01*
X33899500Y-108385808D01*
X33899500Y-108517594D01*
X33933606Y-108644881D01*
X33933610Y-108644890D01*
X33978880Y-108723300D01*
X33999500Y-108759014D01*
X34092686Y-108852200D01*
X34206814Y-108918092D01*
X34334105Y-108952199D01*
X34334106Y-108952200D01*
X34334108Y-108952200D01*
X34465894Y-108952200D01*
X34465894Y-108952199D01*
X34593186Y-108918092D01*
X34707314Y-108852200D01*
X34800500Y-108759014D01*
X34866392Y-108644886D01*
X34900499Y-108517594D01*
X34900500Y-108517594D01*
X34900500Y-108385808D01*
X34875807Y-108293652D01*
X34883200Y-108237500D01*
X34928134Y-108203021D01*
X34947286Y-108200500D01*
X39879000Y-108200500D01*
X39931326Y-108222174D01*
X39953000Y-108274500D01*
X39953000Y-108377694D01*
X39987106Y-108504981D01*
X39987110Y-108504990D01*
X40033312Y-108585014D01*
X40053000Y-108619114D01*
X40146186Y-108712300D01*
X40260314Y-108778192D01*
X40387605Y-108812299D01*
X40387606Y-108812300D01*
X40387608Y-108812300D01*
X40519394Y-108812300D01*
X40519394Y-108812299D01*
X40646686Y-108778192D01*
X40760814Y-108712300D01*
X40854000Y-108619114D01*
X40919892Y-108504986D01*
X40953999Y-108377694D01*
X40954000Y-108377694D01*
X40954000Y-108245906D01*
X40953999Y-108245905D01*
X40947640Y-108222174D01*
X40919892Y-108118614D01*
X40854000Y-108004486D01*
X40760814Y-107911300D01*
X40646690Y-107845410D01*
X40646681Y-107845406D01*
X40519394Y-107811300D01*
X40519392Y-107811300D01*
X40408623Y-107811300D01*
X40356297Y-107789626D01*
X40226211Y-107659540D01*
X40200147Y-107644492D01*
X40157690Y-107619979D01*
X40157685Y-107619977D01*
X40081264Y-107599500D01*
X40081262Y-107599500D01*
X24029438Y-107599500D01*
X24029436Y-107599500D01*
X23953014Y-107619977D01*
X23953009Y-107619979D01*
X23910553Y-107644492D01*
X23884488Y-107659540D01*
X19042402Y-112501626D01*
X18990076Y-112523300D01*
X18879306Y-112523300D01*
X18752018Y-112557406D01*
X18752009Y-112557410D01*
X18637885Y-112623300D01*
X18544700Y-112716485D01*
X18478810Y-112830609D01*
X18478806Y-112830618D01*
X18444700Y-112957905D01*
X17208065Y-112957905D01*
X23338966Y-106827005D01*
X41448600Y-106827005D01*
X41448600Y-106958794D01*
X41482706Y-107086081D01*
X41482710Y-107086090D01*
X41548600Y-107200214D01*
X41641786Y-107293400D01*
X41755914Y-107359292D01*
X41883205Y-107393399D01*
X41883206Y-107393400D01*
X41883208Y-107393400D01*
X42014994Y-107393400D01*
X42014994Y-107393399D01*
X42142286Y-107359292D01*
X42256414Y-107293400D01*
X42349600Y-107200214D01*
X42415492Y-107086086D01*
X42449599Y-106958794D01*
X42449600Y-106958794D01*
X42449600Y-106827006D01*
X42449599Y-106827005D01*
X42415493Y-106699718D01*
X42415492Y-106699714D01*
X42349600Y-106585586D01*
X42256414Y-106492400D01*
X42142290Y-106426510D01*
X42142281Y-106426506D01*
X42014994Y-106392400D01*
X42014992Y-106392400D01*
X41883208Y-106392400D01*
X41883206Y-106392400D01*
X41755918Y-106426506D01*
X41755909Y-106426510D01*
X41641785Y-106492400D01*
X41548600Y-106585585D01*
X41482710Y-106699709D01*
X41482706Y-106699718D01*
X41448600Y-106827005D01*
X23338966Y-106827005D01*
X25780197Y-104385774D01*
X25832523Y-104364100D01*
X26221464Y-104364100D01*
X26221464Y-104364099D01*
X26297889Y-104343621D01*
X26366411Y-104304060D01*
X26422360Y-104248111D01*
X26735766Y-103934705D01*
X28566100Y-103934705D01*
X28566100Y-104066494D01*
X28600206Y-104193781D01*
X28600210Y-104193790D01*
X28663874Y-104304059D01*
X28666100Y-104307914D01*
X28759286Y-104401100D01*
X28873414Y-104466992D01*
X29000705Y-104501099D01*
X29000706Y-104501100D01*
X29000708Y-104501100D01*
X29132494Y-104501100D01*
X29132494Y-104501099D01*
X29259786Y-104466992D01*
X29373914Y-104401100D01*
X29390009Y-104385005D01*
X36336200Y-104385005D01*
X36336200Y-104516794D01*
X36370306Y-104644081D01*
X36370307Y-104644084D01*
X36370308Y-104644086D01*
X36436200Y-104758214D01*
X36529386Y-104851400D01*
X36643514Y-104917292D01*
X36770805Y-104951399D01*
X36770806Y-104951400D01*
X36770808Y-104951400D01*
X36902594Y-104951400D01*
X36902594Y-104951399D01*
X37029886Y-104917292D01*
X37144014Y-104851400D01*
X37237200Y-104758214D01*
X37303092Y-104644086D01*
X37337199Y-104516794D01*
X37337200Y-104516794D01*
X37337200Y-104385006D01*
X37337199Y-104385005D01*
X37331597Y-104364099D01*
X37303092Y-104257714D01*
X37237200Y-104143586D01*
X37144014Y-104050400D01*
X37121149Y-104037199D01*
X37029890Y-103984510D01*
X37029881Y-103984506D01*
X36902594Y-103950400D01*
X36902592Y-103950400D01*
X36770808Y-103950400D01*
X36770806Y-103950400D01*
X36643518Y-103984506D01*
X36643509Y-103984510D01*
X36529385Y-104050400D01*
X36436200Y-104143585D01*
X36370310Y-104257709D01*
X36370306Y-104257718D01*
X36336200Y-104385005D01*
X29390009Y-104385005D01*
X29467100Y-104307914D01*
X29532992Y-104193786D01*
X29567099Y-104066494D01*
X29567100Y-104066494D01*
X29567100Y-103934706D01*
X29567099Y-103934705D01*
X29532992Y-103807413D01*
X29520286Y-103785405D01*
X32629100Y-103785405D01*
X32629100Y-103917194D01*
X32663206Y-104044481D01*
X32663210Y-104044490D01*
X32697044Y-104103092D01*
X32729100Y-104158614D01*
X32822286Y-104251800D01*
X32936414Y-104317692D01*
X33063705Y-104351799D01*
X33063706Y-104351800D01*
X33063708Y-104351800D01*
X33195494Y-104351800D01*
X33195494Y-104351799D01*
X33322786Y-104317692D01*
X33436914Y-104251800D01*
X33530100Y-104158614D01*
X33595992Y-104044486D01*
X33630099Y-103917194D01*
X33630100Y-103917194D01*
X33630100Y-103785406D01*
X33630099Y-103785405D01*
X33629609Y-103783578D01*
X33595992Y-103658114D01*
X33530100Y-103543986D01*
X33436914Y-103450800D01*
X33387883Y-103422492D01*
X33322790Y-103384910D01*
X33322781Y-103384906D01*
X33195494Y-103350800D01*
X33195492Y-103350800D01*
X33063708Y-103350800D01*
X33063706Y-103350800D01*
X32936418Y-103384906D01*
X32936409Y-103384910D01*
X32822285Y-103450800D01*
X32729100Y-103543985D01*
X32663210Y-103658109D01*
X32663206Y-103658118D01*
X32629100Y-103785405D01*
X29520286Y-103785405D01*
X29472474Y-103702594D01*
X29467100Y-103693286D01*
X29373914Y-103600100D01*
X29323179Y-103570808D01*
X29259790Y-103534210D01*
X29259781Y-103534206D01*
X29132494Y-103500100D01*
X29132492Y-103500100D01*
X29000708Y-103500100D01*
X29000706Y-103500100D01*
X28873418Y-103534206D01*
X28873409Y-103534210D01*
X28759285Y-103600100D01*
X28666100Y-103693285D01*
X28600210Y-103807409D01*
X28600206Y-103807418D01*
X28566100Y-103934705D01*
X26735766Y-103934705D01*
X39260460Y-91410011D01*
X39260461Y-91410008D01*
X39260778Y-91409692D01*
X39313104Y-91388018D01*
X39365430Y-91409692D01*
X39374631Y-91420904D01*
X39474023Y-91569655D01*
X39620345Y-91715977D01*
X39792402Y-91830941D01*
X39983580Y-91910130D01*
X40186535Y-91950500D01*
X40186536Y-91950500D01*
X40393464Y-91950500D01*
X40393465Y-91950500D01*
X40596420Y-91910130D01*
X40787598Y-91830941D01*
X40959655Y-91715977D01*
X41105977Y-91569655D01*
X41220941Y-91397598D01*
X41300130Y-91206420D01*
X41340500Y-91003465D01*
X41340500Y-90796535D01*
X41779500Y-90796535D01*
X41779500Y-91003464D01*
X41819868Y-91206413D01*
X41819870Y-91206420D01*
X41899059Y-91397598D01*
X42014023Y-91569655D01*
X42160345Y-91715977D01*
X42332402Y-91830941D01*
X42523580Y-91910130D01*
X42726535Y-91950500D01*
X42726536Y-91950500D01*
X42933464Y-91950500D01*
X42933465Y-91950500D01*
X43136420Y-91910130D01*
X43327598Y-91830941D01*
X43499655Y-91715977D01*
X43645977Y-91569655D01*
X43760941Y-91397598D01*
X43840130Y-91206420D01*
X43880500Y-91003465D01*
X43880500Y-90796535D01*
X44319500Y-90796535D01*
X44319500Y-91003464D01*
X44359868Y-91206413D01*
X44359870Y-91206420D01*
X44439059Y-91397598D01*
X44554023Y-91569655D01*
X44700345Y-91715977D01*
X44872402Y-91830941D01*
X45063580Y-91910130D01*
X45266535Y-91950500D01*
X45266536Y-91950500D01*
X45473464Y-91950500D01*
X45473465Y-91950500D01*
X45676420Y-91910130D01*
X45867598Y-91830941D01*
X46039655Y-91715977D01*
X46185977Y-91569655D01*
X46300941Y-91397598D01*
X46380130Y-91206420D01*
X46420500Y-91003465D01*
X46420500Y-90796535D01*
X46859500Y-90796535D01*
X46859500Y-91003464D01*
X46899868Y-91206413D01*
X46899870Y-91206420D01*
X46979059Y-91397598D01*
X47094023Y-91569655D01*
X47240345Y-91715977D01*
X47412402Y-91830941D01*
X47603580Y-91910130D01*
X47806535Y-91950500D01*
X47806536Y-91950500D01*
X48013464Y-91950500D01*
X48013465Y-91950500D01*
X48216420Y-91910130D01*
X48407598Y-91830941D01*
X48579655Y-91715977D01*
X48725977Y-91569655D01*
X48840941Y-91397598D01*
X48920130Y-91206420D01*
X48960500Y-91003465D01*
X48960500Y-90796535D01*
X48920130Y-90593580D01*
X48840941Y-90402402D01*
X48725977Y-90230345D01*
X48579655Y-90084023D01*
X48512895Y-90039416D01*
X48407598Y-89969059D01*
X48216420Y-89889870D01*
X48216413Y-89889868D01*
X48063516Y-89859455D01*
X48013465Y-89849500D01*
X47806535Y-89849500D01*
X47766385Y-89857486D01*
X47603586Y-89889868D01*
X47603579Y-89889870D01*
X47412401Y-89969059D01*
X47240345Y-90084022D01*
X47240344Y-90084024D01*
X47094024Y-90230344D01*
X47094022Y-90230345D01*
X46979059Y-90402401D01*
X46899870Y-90593579D01*
X46899868Y-90593586D01*
X46859500Y-90796535D01*
X46420500Y-90796535D01*
X46380130Y-90593580D01*
X46300941Y-90402402D01*
X46185977Y-90230345D01*
X46039655Y-90084023D01*
X45972895Y-90039416D01*
X45867598Y-89969059D01*
X45676420Y-89889870D01*
X45676413Y-89889868D01*
X45523516Y-89859455D01*
X45473465Y-89849500D01*
X45266535Y-89849500D01*
X45226385Y-89857486D01*
X45063586Y-89889868D01*
X45063579Y-89889870D01*
X44872401Y-89969059D01*
X44700345Y-90084022D01*
X44700344Y-90084024D01*
X44554024Y-90230344D01*
X44554022Y-90230345D01*
X44439059Y-90402401D01*
X44359870Y-90593579D01*
X44359868Y-90593586D01*
X44319500Y-90796535D01*
X43880500Y-90796535D01*
X43840130Y-90593580D01*
X43760941Y-90402402D01*
X43645977Y-90230345D01*
X43499655Y-90084023D01*
X43432895Y-90039416D01*
X43327598Y-89969059D01*
X43136420Y-89889870D01*
X43136413Y-89889868D01*
X42983516Y-89859455D01*
X42933465Y-89849500D01*
X42726535Y-89849500D01*
X42686385Y-89857486D01*
X42523586Y-89889868D01*
X42523579Y-89889870D01*
X42332401Y-89969059D01*
X42160345Y-90084022D01*
X42160344Y-90084024D01*
X42014024Y-90230344D01*
X42014022Y-90230345D01*
X41899059Y-90402401D01*
X41819870Y-90593579D01*
X41819868Y-90593586D01*
X41779500Y-90796535D01*
X41340500Y-90796535D01*
X41300130Y-90593580D01*
X41220941Y-90402402D01*
X41105977Y-90230345D01*
X40959655Y-90084023D01*
X40892895Y-90039416D01*
X40787598Y-89969059D01*
X40596420Y-89889870D01*
X40596413Y-89889868D01*
X40443516Y-89859455D01*
X40393465Y-89849500D01*
X40186535Y-89849500D01*
X40146385Y-89857486D01*
X39983586Y-89889868D01*
X39983579Y-89889870D01*
X39792401Y-89969059D01*
X39620345Y-90084022D01*
X39620344Y-90084024D01*
X39474024Y-90230344D01*
X39474022Y-90230345D01*
X39456029Y-90257275D01*
X39408937Y-90288741D01*
X39353388Y-90277692D01*
X39321922Y-90230600D01*
X39320500Y-90216163D01*
X39320500Y-84805222D01*
X39342173Y-84752897D01*
X42299496Y-81795573D01*
X42351822Y-81773900D01*
X42462594Y-81773900D01*
X42462594Y-81773899D01*
X42589886Y-81739792D01*
X42704014Y-81673900D01*
X42797200Y-81580714D01*
X42863092Y-81466586D01*
X42897199Y-81339294D01*
X42897200Y-81339294D01*
X42897200Y-81207506D01*
X42897199Y-81207505D01*
X42863093Y-81080218D01*
X42863092Y-81080214D01*
X42797200Y-80966086D01*
X42704014Y-80872900D01*
X42589890Y-80807010D01*
X42589881Y-80807006D01*
X42462594Y-80772900D01*
X42462592Y-80772900D01*
X42330808Y-80772900D01*
X42326225Y-80774128D01*
X42270072Y-80766735D01*
X42235594Y-80721801D01*
X42242987Y-80665648D01*
X42254743Y-80650327D01*
X44249960Y-78655111D01*
X44289522Y-78586588D01*
X44310000Y-78510162D01*
X44310000Y-78431038D01*
X44310000Y-77879105D01*
X48516400Y-77879105D01*
X48516400Y-78010894D01*
X48550506Y-78138181D01*
X48550510Y-78138190D01*
X48596353Y-78217592D01*
X48616400Y-78252314D01*
X48709586Y-78345500D01*
X48823714Y-78411392D01*
X48951005Y-78445499D01*
X48951006Y-78445500D01*
X48951008Y-78445500D01*
X49082794Y-78445500D01*
X49082794Y-78445499D01*
X49210086Y-78411392D01*
X49324214Y-78345500D01*
X49417400Y-78252314D01*
X49483292Y-78138186D01*
X49517399Y-78010894D01*
X49517400Y-78010894D01*
X49517400Y-77879106D01*
X49517399Y-77879105D01*
X49483293Y-77751818D01*
X49483292Y-77751814D01*
X49417400Y-77637686D01*
X49324214Y-77544500D01*
X49210090Y-77478610D01*
X49210081Y-77478606D01*
X49082794Y-77444500D01*
X49082792Y-77444500D01*
X48951008Y-77444500D01*
X48951006Y-77444500D01*
X48823718Y-77478606D01*
X48823709Y-77478610D01*
X48709585Y-77544500D01*
X48616400Y-77637685D01*
X48550510Y-77751809D01*
X48550506Y-77751818D01*
X48516400Y-77879105D01*
X44310000Y-77879105D01*
X44310000Y-74336905D01*
X44487400Y-74336905D01*
X44487400Y-74468694D01*
X44521506Y-74595981D01*
X44521510Y-74595990D01*
X44573531Y-74686092D01*
X44587400Y-74710114D01*
X44680586Y-74803300D01*
X44794714Y-74869192D01*
X44922005Y-74903299D01*
X44922006Y-74903300D01*
X44922008Y-74903300D01*
X45053794Y-74903300D01*
X45053794Y-74903299D01*
X45181086Y-74869192D01*
X45295214Y-74803300D01*
X45388400Y-74710114D01*
X45454292Y-74595986D01*
X45488399Y-74468694D01*
X45488400Y-74468694D01*
X45488400Y-74336906D01*
X45488399Y-74336905D01*
X45486416Y-74329506D01*
X45454292Y-74209614D01*
X45388400Y-74095486D01*
X45295214Y-74002300D01*
X45213976Y-73955397D01*
X45181090Y-73936410D01*
X45181081Y-73936406D01*
X45053794Y-73902300D01*
X45053792Y-73902300D01*
X44922008Y-73902300D01*
X44922006Y-73902300D01*
X44794718Y-73936406D01*
X44794709Y-73936410D01*
X44680585Y-74002300D01*
X44587400Y-74095485D01*
X44521510Y-74209609D01*
X44521506Y-74209618D01*
X44487400Y-74336905D01*
X44310000Y-74336905D01*
X44310000Y-74007723D01*
X44331674Y-73955397D01*
X44793442Y-73493629D01*
X45258560Y-73028511D01*
X45279488Y-72992262D01*
X45298121Y-72959989D01*
X45318599Y-72883564D01*
X45318600Y-72883564D01*
X45318600Y-72275536D01*
X45318599Y-72275535D01*
X45298122Y-72199114D01*
X45298120Y-72199109D01*
X45276530Y-72161714D01*
X45258560Y-72130589D01*
X45202611Y-72074640D01*
X35772176Y-62644205D01*
X43388600Y-62644205D01*
X43388600Y-62775994D01*
X43422706Y-62903281D01*
X43422707Y-62903284D01*
X43422708Y-62903286D01*
X43488600Y-63017414D01*
X43581786Y-63110600D01*
X43695914Y-63176492D01*
X43823205Y-63210599D01*
X43823206Y-63210600D01*
X43823208Y-63210600D01*
X43954994Y-63210600D01*
X43954994Y-63210599D01*
X44082286Y-63176492D01*
X44196414Y-63110600D01*
X44289600Y-63017414D01*
X44355492Y-62903286D01*
X44389599Y-62775994D01*
X44389600Y-62775994D01*
X44389600Y-62644206D01*
X44389599Y-62644205D01*
X44355493Y-62516918D01*
X44355492Y-62516914D01*
X44289600Y-62402786D01*
X44196414Y-62309600D01*
X44082290Y-62243710D01*
X44082281Y-62243706D01*
X43954994Y-62209600D01*
X43954992Y-62209600D01*
X43823208Y-62209600D01*
X43823206Y-62209600D01*
X43695918Y-62243706D01*
X43695909Y-62243710D01*
X43581785Y-62309600D01*
X43488600Y-62402785D01*
X43422710Y-62516909D01*
X43422706Y-62516918D01*
X43388600Y-62644205D01*
X35772176Y-62644205D01*
X35344011Y-62216040D01*
X35332857Y-62209600D01*
X35275490Y-62176479D01*
X35275485Y-62176477D01*
X35199064Y-62156000D01*
X35199062Y-62156000D01*
X25402023Y-62156000D01*
X25349697Y-62134326D01*
X24646897Y-61431526D01*
X24625223Y-61379200D01*
X24646897Y-61326874D01*
X24699223Y-61305200D01*
X42943834Y-61305200D01*
X42996160Y-61326874D01*
X43074486Y-61405200D01*
X43188614Y-61471092D01*
X43315905Y-61505199D01*
X43315906Y-61505200D01*
X43315908Y-61505200D01*
X43447694Y-61505200D01*
X43447694Y-61505199D01*
X43574986Y-61471092D01*
X43689114Y-61405200D01*
X43782300Y-61312014D01*
X43848192Y-61197886D01*
X43882299Y-61070594D01*
X43882300Y-61070594D01*
X43882300Y-60938806D01*
X43882299Y-60938805D01*
X43848193Y-60811518D01*
X43848192Y-60811514D01*
X43782300Y-60697386D01*
X43689114Y-60604200D01*
X43602848Y-60554394D01*
X43574990Y-60538310D01*
X43574981Y-60538306D01*
X43447694Y-60504200D01*
X43447692Y-60504200D01*
X43315908Y-60504200D01*
X43315906Y-60504200D01*
X43188618Y-60538306D01*
X43188609Y-60538310D01*
X43074485Y-60604200D01*
X42996160Y-60682526D01*
X42943834Y-60704200D01*
X24729123Y-60704200D01*
X24676797Y-60682526D01*
X23556176Y-59561905D01*
X39674100Y-59561905D01*
X39674100Y-59693694D01*
X39708206Y-59820981D01*
X39708210Y-59820990D01*
X39767675Y-59923985D01*
X39774100Y-59935114D01*
X39867286Y-60028300D01*
X39981414Y-60094192D01*
X40108705Y-60128299D01*
X40108706Y-60128300D01*
X40108708Y-60128300D01*
X40240494Y-60128300D01*
X40240494Y-60128299D01*
X40367786Y-60094192D01*
X40481914Y-60028300D01*
X40575100Y-59935114D01*
X40640992Y-59820986D01*
X40675099Y-59693694D01*
X40675100Y-59693694D01*
X40675100Y-59561906D01*
X40675099Y-59561905D01*
X40653467Y-59481174D01*
X40640992Y-59434614D01*
X40575100Y-59320486D01*
X40481914Y-59227300D01*
X40367790Y-59161410D01*
X40367781Y-59161406D01*
X40240494Y-59127300D01*
X40240492Y-59127300D01*
X40108708Y-59127300D01*
X40108706Y-59127300D01*
X39981418Y-59161406D01*
X39981409Y-59161410D01*
X39867285Y-59227300D01*
X39774100Y-59320485D01*
X39708210Y-59434609D01*
X39708206Y-59434618D01*
X39674100Y-59561905D01*
X23556176Y-59561905D01*
X20095976Y-56101705D01*
X24858800Y-56101705D01*
X24858800Y-56233494D01*
X24892906Y-56360781D01*
X24892907Y-56360784D01*
X24892908Y-56360786D01*
X24958800Y-56474914D01*
X25051986Y-56568100D01*
X25166114Y-56633992D01*
X25293405Y-56668099D01*
X25293406Y-56668100D01*
X25293408Y-56668100D01*
X25425194Y-56668100D01*
X25425194Y-56668099D01*
X25552486Y-56633992D01*
X25666614Y-56568100D01*
X25744940Y-56489774D01*
X25797266Y-56468100D01*
X42490677Y-56468100D01*
X42543003Y-56489774D01*
X43285326Y-57232097D01*
X43307000Y-57284423D01*
X43307000Y-57395194D01*
X43341106Y-57522481D01*
X43341107Y-57522484D01*
X43341108Y-57522486D01*
X43407000Y-57636614D01*
X43500186Y-57729800D01*
X43614314Y-57795692D01*
X43741605Y-57829799D01*
X43741606Y-57829800D01*
X43852377Y-57829800D01*
X43904703Y-57851474D01*
X47335826Y-61282597D01*
X47357500Y-61334923D01*
X47357500Y-73657664D01*
X47377976Y-73734084D01*
X47377980Y-73734093D01*
X47379434Y-73736610D01*
X47379440Y-73736619D01*
X47417540Y-73802611D01*
X49729126Y-76114197D01*
X49750800Y-76166523D01*
X49750800Y-116947424D01*
X49729126Y-116999750D01*
X49695955Y-117018902D01*
X49679515Y-117023307D01*
X49679512Y-117023308D01*
X49565385Y-117089200D01*
X49472200Y-117182385D01*
X49406310Y-117296509D01*
X49406306Y-117296518D01*
X49372200Y-117423805D01*
X49372200Y-117555594D01*
X49406306Y-117682881D01*
X49406307Y-117682884D01*
X49406308Y-117682886D01*
X49472200Y-117797014D01*
X49565386Y-117890200D01*
X49679514Y-117956092D01*
X49806805Y-117990199D01*
X49806806Y-117990200D01*
X49806808Y-117990200D01*
X49938594Y-117990200D01*
X49938594Y-117990199D01*
X50065886Y-117956092D01*
X50180014Y-117890200D01*
X50273200Y-117797014D01*
X50339092Y-117682886D01*
X50373199Y-117555594D01*
X50373200Y-117555594D01*
X50373200Y-117423809D01*
X50370618Y-117414174D01*
X50354321Y-117353349D01*
X50351800Y-117334197D01*
X50351800Y-75971836D01*
X50351799Y-75971835D01*
X50331322Y-75895414D01*
X50331320Y-75895409D01*
X50291759Y-75826888D01*
X49831307Y-75366436D01*
X49809633Y-75314110D01*
X49831307Y-75261784D01*
X49846627Y-75250028D01*
X49939514Y-75196400D01*
X50032700Y-75103214D01*
X50098592Y-74989086D01*
X50132699Y-74861794D01*
X50132700Y-74861794D01*
X50132700Y-74730006D01*
X50132699Y-74730005D01*
X50122672Y-74692585D01*
X50098592Y-74602714D01*
X50032700Y-74488586D01*
X49939514Y-74395400D01*
X49825390Y-74329510D01*
X49825381Y-74329506D01*
X49698094Y-74295400D01*
X49698092Y-74295400D01*
X49566308Y-74295400D01*
X49566306Y-74295400D01*
X49439018Y-74329506D01*
X49439009Y-74329510D01*
X49324885Y-74395400D01*
X49231700Y-74488585D01*
X49178075Y-74581466D01*
X49133141Y-74615945D01*
X49076989Y-74608552D01*
X49061663Y-74596792D01*
X47980174Y-73515303D01*
X47958500Y-73462977D01*
X47958500Y-70059605D01*
X50263200Y-70059605D01*
X50263200Y-70191394D01*
X50297306Y-70318681D01*
X50297307Y-70318684D01*
X50297308Y-70318686D01*
X50363200Y-70432814D01*
X50456386Y-70526000D01*
X50570514Y-70591892D01*
X50697805Y-70625999D01*
X50697806Y-70626000D01*
X50697808Y-70626000D01*
X50829594Y-70626000D01*
X50829594Y-70625999D01*
X50956886Y-70591892D01*
X51071014Y-70526000D01*
X51164200Y-70432814D01*
X51230092Y-70318686D01*
X51264199Y-70191394D01*
X51264200Y-70191394D01*
X51264200Y-70059606D01*
X51264199Y-70059605D01*
X51230093Y-69932318D01*
X51230092Y-69932314D01*
X51164200Y-69818186D01*
X51071014Y-69725000D01*
X50956890Y-69659110D01*
X50956881Y-69659106D01*
X50829594Y-69625000D01*
X50829592Y-69625000D01*
X50697808Y-69625000D01*
X50697806Y-69625000D01*
X50570518Y-69659106D01*
X50570509Y-69659110D01*
X50456385Y-69725000D01*
X50363200Y-69818185D01*
X50297310Y-69932309D01*
X50297306Y-69932318D01*
X50263200Y-70059605D01*
X47958500Y-70059605D01*
X47958500Y-61140236D01*
X47958499Y-61140235D01*
X47950292Y-61109608D01*
X47938021Y-61063811D01*
X47898460Y-60995289D01*
X47842511Y-60939340D01*
X47068576Y-60165405D01*
X48041700Y-60165405D01*
X48041700Y-60297194D01*
X48075806Y-60424481D01*
X48075807Y-60424484D01*
X48075808Y-60424486D01*
X48141700Y-60538614D01*
X48234886Y-60631800D01*
X48349014Y-60697692D01*
X48476305Y-60731799D01*
X48476306Y-60731800D01*
X48476308Y-60731800D01*
X48608094Y-60731800D01*
X48608094Y-60731799D01*
X48735386Y-60697692D01*
X48849514Y-60631800D01*
X48942700Y-60538614D01*
X49008592Y-60424486D01*
X49042699Y-60297194D01*
X49042700Y-60297194D01*
X49042700Y-60165406D01*
X49042699Y-60165405D01*
X49028603Y-60112799D01*
X49008592Y-60038114D01*
X48942700Y-59923986D01*
X48849514Y-59830800D01*
X48758395Y-59778192D01*
X48735390Y-59764910D01*
X48735381Y-59764906D01*
X48608094Y-59730800D01*
X48608092Y-59730800D01*
X48476308Y-59730800D01*
X48476306Y-59730800D01*
X48349018Y-59764906D01*
X48349009Y-59764910D01*
X48234885Y-59830800D01*
X48141700Y-59923985D01*
X48075810Y-60038109D01*
X48075806Y-60038118D01*
X48041700Y-60165405D01*
X47068576Y-60165405D01*
X44329674Y-57426503D01*
X44308000Y-57374177D01*
X44308000Y-57263406D01*
X44307999Y-57263405D01*
X44289375Y-57193900D01*
X44273892Y-57136114D01*
X44208000Y-57021986D01*
X44114814Y-56928800D01*
X44000690Y-56862910D01*
X44000681Y-56862906D01*
X43873394Y-56828800D01*
X43873392Y-56828800D01*
X43762623Y-56828800D01*
X43710297Y-56807126D01*
X42830311Y-55927140D01*
X42761790Y-55887579D01*
X42761785Y-55887577D01*
X42685364Y-55867100D01*
X42685362Y-55867100D01*
X25797266Y-55867100D01*
X25744940Y-55845426D01*
X25666614Y-55767100D01*
X25552490Y-55701210D01*
X25552481Y-55701206D01*
X25425194Y-55667100D01*
X25425192Y-55667100D01*
X25293408Y-55667100D01*
X25293406Y-55667100D01*
X25166118Y-55701206D01*
X25166109Y-55701210D01*
X25051985Y-55767100D01*
X24958800Y-55860285D01*
X24892910Y-55974409D01*
X24892906Y-55974418D01*
X24858800Y-56101705D01*
X20095976Y-56101705D01*
X18029876Y-54035605D01*
X41813000Y-54035605D01*
X41813000Y-54167394D01*
X41847106Y-54294681D01*
X41847110Y-54294690D01*
X41881699Y-54354599D01*
X41913000Y-54408814D01*
X42006186Y-54502000D01*
X42120314Y-54567892D01*
X42247605Y-54601999D01*
X42247606Y-54602000D01*
X42247608Y-54602000D01*
X42379394Y-54602000D01*
X42379394Y-54601999D01*
X42506686Y-54567892D01*
X42620814Y-54502000D01*
X42714000Y-54408814D01*
X42779892Y-54294686D01*
X42813999Y-54167394D01*
X42814000Y-54167394D01*
X42814000Y-54035606D01*
X42813999Y-54035605D01*
X42779893Y-53908318D01*
X42779892Y-53908314D01*
X42714000Y-53794186D01*
X42708019Y-53788205D01*
X45597200Y-53788205D01*
X45597200Y-53919994D01*
X45631306Y-54047281D01*
X45631307Y-54047284D01*
X45631308Y-54047286D01*
X45697200Y-54161414D01*
X45790386Y-54254600D01*
X45904514Y-54320492D01*
X46031805Y-54354599D01*
X46031806Y-54354600D01*
X46031808Y-54354600D01*
X46163594Y-54354600D01*
X46163594Y-54354599D01*
X46290886Y-54320492D01*
X46405014Y-54254600D01*
X46498200Y-54161414D01*
X46564092Y-54047286D01*
X46598199Y-53919994D01*
X46598200Y-53919994D01*
X46598200Y-53788206D01*
X46598199Y-53788205D01*
X46564093Y-53660918D01*
X46564092Y-53660914D01*
X46498200Y-53546786D01*
X46405014Y-53453600D01*
X46290890Y-53387710D01*
X46290881Y-53387706D01*
X46163594Y-53353600D01*
X46163592Y-53353600D01*
X46031808Y-53353600D01*
X46031806Y-53353600D01*
X45904518Y-53387706D01*
X45904509Y-53387710D01*
X45790385Y-53453600D01*
X45697200Y-53546785D01*
X45631310Y-53660909D01*
X45631306Y-53660918D01*
X45597200Y-53788205D01*
X42708019Y-53788205D01*
X42620814Y-53701000D01*
X42551390Y-53660918D01*
X42506690Y-53635110D01*
X42506681Y-53635106D01*
X42379394Y-53601000D01*
X42379392Y-53601000D01*
X42247608Y-53601000D01*
X42247606Y-53601000D01*
X42120318Y-53635106D01*
X42120309Y-53635110D01*
X42006185Y-53701000D01*
X41913000Y-53794185D01*
X41847110Y-53908309D01*
X41847106Y-53908318D01*
X41813000Y-54035605D01*
X18029876Y-54035605D01*
X16220376Y-52226105D01*
X42364200Y-52226105D01*
X42364200Y-52357894D01*
X42398306Y-52485181D01*
X42398307Y-52485184D01*
X42398308Y-52485186D01*
X42464200Y-52599314D01*
X42557386Y-52692500D01*
X42671514Y-52758392D01*
X42798805Y-52792499D01*
X42798806Y-52792500D01*
X42798808Y-52792500D01*
X42930594Y-52792500D01*
X42930594Y-52792499D01*
X43057886Y-52758392D01*
X43172014Y-52692500D01*
X43265200Y-52599314D01*
X43331092Y-52485186D01*
X43365199Y-52357894D01*
X43365200Y-52357894D01*
X43365200Y-52226106D01*
X43365199Y-52226105D01*
X43331093Y-52098818D01*
X43331092Y-52098814D01*
X43265200Y-51984686D01*
X43172014Y-51891500D01*
X43082119Y-51839599D01*
X43057890Y-51825610D01*
X43057881Y-51825606D01*
X42930594Y-51791500D01*
X42930592Y-51791500D01*
X42798808Y-51791500D01*
X42798806Y-51791500D01*
X42671518Y-51825606D01*
X42671509Y-51825610D01*
X42557385Y-51891500D01*
X42464200Y-51984685D01*
X42398310Y-52098809D01*
X42398306Y-52098818D01*
X42364200Y-52226105D01*
X16220376Y-52226105D01*
X14881276Y-50887005D01*
X22440100Y-50887005D01*
X22440100Y-51018794D01*
X22474206Y-51146081D01*
X22474207Y-51146084D01*
X22474208Y-51146086D01*
X22540100Y-51260214D01*
X22633286Y-51353400D01*
X22747414Y-51419292D01*
X22874705Y-51453399D01*
X22874706Y-51453400D01*
X22874708Y-51453400D01*
X23006494Y-51453400D01*
X23006494Y-51453399D01*
X23133786Y-51419292D01*
X23213611Y-51373205D01*
X25917700Y-51373205D01*
X25917700Y-51504994D01*
X25951806Y-51632281D01*
X25951807Y-51632284D01*
X25951808Y-51632286D01*
X26017700Y-51746414D01*
X26110886Y-51839600D01*
X26225014Y-51905492D01*
X26352305Y-51939599D01*
X26352306Y-51939600D01*
X26352308Y-51939600D01*
X26484094Y-51939600D01*
X26484094Y-51939599D01*
X26611386Y-51905492D01*
X26725514Y-51839600D01*
X26818700Y-51746414D01*
X26884592Y-51632286D01*
X26918699Y-51504994D01*
X26918700Y-51504994D01*
X26918700Y-51373206D01*
X26918699Y-51373205D01*
X26913392Y-51353400D01*
X26884592Y-51245914D01*
X26818700Y-51131786D01*
X26725514Y-51038600D01*
X26691206Y-51018792D01*
X26611390Y-50972710D01*
X26611381Y-50972706D01*
X26484094Y-50938600D01*
X26484092Y-50938600D01*
X26352308Y-50938600D01*
X26352306Y-50938600D01*
X26225018Y-50972706D01*
X26225009Y-50972710D01*
X26110885Y-51038600D01*
X26017700Y-51131785D01*
X25951810Y-51245909D01*
X25951806Y-51245918D01*
X25917700Y-51373205D01*
X23213611Y-51373205D01*
X23247914Y-51353400D01*
X23341100Y-51260214D01*
X23406992Y-51146086D01*
X23441099Y-51018794D01*
X23441100Y-51018794D01*
X23441100Y-50887006D01*
X23441099Y-50887005D01*
X23424487Y-50825009D01*
X23406992Y-50759714D01*
X23341100Y-50645586D01*
X23247914Y-50552400D01*
X23187812Y-50517700D01*
X23133790Y-50486510D01*
X23133781Y-50486506D01*
X23006494Y-50452400D01*
X23006492Y-50452400D01*
X22874708Y-50452400D01*
X22874706Y-50452400D01*
X22747418Y-50486506D01*
X22747409Y-50486510D01*
X22633285Y-50552400D01*
X22540100Y-50645585D01*
X22474210Y-50759709D01*
X22474206Y-50759718D01*
X22440100Y-50887005D01*
X14881276Y-50887005D01*
X14772011Y-50777740D01*
X14703490Y-50738179D01*
X14703485Y-50738177D01*
X14627064Y-50717700D01*
X14627062Y-50717700D01*
X9115066Y-50717700D01*
X9062740Y-50696026D01*
X8984414Y-50617700D01*
X8870290Y-50551810D01*
X8870281Y-50551806D01*
X8742994Y-50517700D01*
X8742992Y-50517700D01*
X8611208Y-50517700D01*
X8611206Y-50517700D01*
X8483918Y-50551806D01*
X8483909Y-50551810D01*
X8369785Y-50617700D01*
X8276600Y-50710885D01*
X8210710Y-50825009D01*
X8210706Y-50825018D01*
X8176600Y-50952305D01*
X8176600Y-51084094D01*
X8210706Y-51211381D01*
X8210707Y-51211384D01*
X8210708Y-51211386D01*
X8276600Y-51325514D01*
X8369786Y-51418700D01*
X8483914Y-51484592D01*
X8611205Y-51518699D01*
X8611206Y-51518700D01*
X8611208Y-51518700D01*
X8742994Y-51518700D01*
X8742994Y-51518699D01*
X8870286Y-51484592D01*
X8984414Y-51418700D01*
X9062740Y-51340374D01*
X9115066Y-51318700D01*
X14432377Y-51318700D01*
X14484703Y-51340374D01*
X14924003Y-51779674D01*
X14945677Y-51832000D01*
X14924003Y-51884326D01*
X14871677Y-51906000D01*
X8845866Y-51906000D01*
X8793540Y-51884326D01*
X8715214Y-51806000D01*
X8601090Y-51740110D01*
X8601081Y-51740106D01*
X8473794Y-51706000D01*
X8473792Y-51706000D01*
X8342008Y-51706000D01*
X8342006Y-51706000D01*
X8214718Y-51740106D01*
X8214709Y-51740110D01*
X8100585Y-51806000D01*
X8074926Y-51831660D01*
X8022600Y-51853334D01*
X7970274Y-51831660D01*
X7948600Y-51779334D01*
X7948600Y-49363655D01*
X7970274Y-49311329D01*
X8022600Y-49289655D01*
X8041751Y-49292176D01*
X8152305Y-49321799D01*
X8152306Y-49321800D01*
X8152308Y-49321800D01*
X8284094Y-49321800D01*
X8284094Y-49321799D01*
X8411386Y-49287692D01*
X8525514Y-49221800D01*
X8618700Y-49128614D01*
X8621015Y-49124605D01*
X25335800Y-49124605D01*
X25335800Y-49256394D01*
X25369906Y-49383681D01*
X25369907Y-49383684D01*
X25369908Y-49383686D01*
X25435800Y-49497814D01*
X25528986Y-49591000D01*
X25643114Y-49656892D01*
X25770405Y-49690999D01*
X25770406Y-49691000D01*
X25770408Y-49691000D01*
X25902194Y-49691000D01*
X25902194Y-49690999D01*
X26029486Y-49656892D01*
X26143614Y-49591000D01*
X26236800Y-49497814D01*
X26302692Y-49383686D01*
X26336799Y-49256394D01*
X26336800Y-49256394D01*
X26336800Y-49124606D01*
X26336799Y-49124605D01*
X26302693Y-48997318D01*
X26302692Y-48997314D01*
X26236800Y-48883186D01*
X26143614Y-48790000D01*
X26083694Y-48755405D01*
X26029490Y-48724110D01*
X26029481Y-48724106D01*
X25902194Y-48690000D01*
X25902192Y-48690000D01*
X25770408Y-48690000D01*
X25770406Y-48690000D01*
X25643118Y-48724106D01*
X25643109Y-48724110D01*
X25528985Y-48790000D01*
X25435800Y-48883185D01*
X25369910Y-48997309D01*
X25369906Y-48997318D01*
X25335800Y-49124605D01*
X8621015Y-49124605D01*
X8684592Y-49014486D01*
X8718699Y-48887194D01*
X8718700Y-48887194D01*
X8718700Y-48755406D01*
X8718699Y-48755405D01*
X8684593Y-48628118D01*
X8684592Y-48628114D01*
X8618700Y-48513986D01*
X8525514Y-48420800D01*
X8476464Y-48392481D01*
X8411390Y-48354910D01*
X8411381Y-48354906D01*
X8284094Y-48320800D01*
X8284092Y-48320800D01*
X8152308Y-48320800D01*
X8041752Y-48350423D01*
X7985600Y-48343030D01*
X7951121Y-48298096D01*
X7948600Y-48278944D01*
X7948600Y-48133405D01*
X10718700Y-48133405D01*
X10718700Y-48265194D01*
X10752806Y-48392481D01*
X10752807Y-48392484D01*
X10752808Y-48392486D01*
X10818700Y-48506614D01*
X10911886Y-48599800D01*
X11026014Y-48665692D01*
X11153305Y-48699799D01*
X11153306Y-48699800D01*
X11153308Y-48699800D01*
X11285094Y-48699800D01*
X11285094Y-48699799D01*
X11412386Y-48665692D01*
X11526514Y-48599800D01*
X11619700Y-48506614D01*
X11685592Y-48392486D01*
X11719699Y-48265194D01*
X11719700Y-48265194D01*
X11719700Y-48133406D01*
X11719699Y-48133405D01*
X11709676Y-48096000D01*
X11685592Y-48006114D01*
X11619700Y-47891986D01*
X11526514Y-47798800D01*
X11508996Y-47788686D01*
X11412390Y-47732910D01*
X11412381Y-47732906D01*
X11285094Y-47698800D01*
X11285092Y-47698800D01*
X11153308Y-47698800D01*
X11153306Y-47698800D01*
X11026018Y-47732906D01*
X11026009Y-47732910D01*
X10911885Y-47798800D01*
X10818700Y-47891985D01*
X10752810Y-48006109D01*
X10752806Y-48006118D01*
X10718700Y-48133405D01*
X7948600Y-48133405D01*
X7948600Y-47529605D01*
X8883500Y-47529605D01*
X8883500Y-47661394D01*
X8917606Y-47788681D01*
X8917610Y-47788690D01*
X8947414Y-47840311D01*
X8983500Y-47902814D01*
X9076686Y-47996000D01*
X9190814Y-48061892D01*
X9318105Y-48095999D01*
X9318106Y-48096000D01*
X9318108Y-48096000D01*
X9449894Y-48096000D01*
X9449894Y-48095999D01*
X9577186Y-48061892D01*
X9691314Y-47996000D01*
X9784500Y-47902814D01*
X9804947Y-47867398D01*
X9849878Y-47832920D01*
X9906030Y-47840311D01*
X9921358Y-47852072D01*
X9930986Y-47861700D01*
X10045114Y-47927592D01*
X10172405Y-47961699D01*
X10172406Y-47961700D01*
X10172408Y-47961700D01*
X10304194Y-47961700D01*
X10304194Y-47961699D01*
X10431486Y-47927592D01*
X10545614Y-47861700D01*
X10638800Y-47768514D01*
X10704692Y-47654386D01*
X10738799Y-47527094D01*
X10738800Y-47527094D01*
X10738800Y-47395306D01*
X10738799Y-47395305D01*
X10704693Y-47268018D01*
X10704692Y-47268014D01*
X10638800Y-47153886D01*
X10545614Y-47060700D01*
X10431490Y-46994810D01*
X10431481Y-46994806D01*
X10304194Y-46960700D01*
X10304192Y-46960700D01*
X10172408Y-46960700D01*
X10172406Y-46960700D01*
X10045118Y-46994806D01*
X10045109Y-46994810D01*
X9930985Y-47060700D01*
X9837800Y-47153885D01*
X9817353Y-47189301D01*
X9772419Y-47223780D01*
X9716267Y-47216387D01*
X9700941Y-47204627D01*
X9691314Y-47195000D01*
X9577190Y-47129110D01*
X9577181Y-47129106D01*
X9449894Y-47095000D01*
X9449892Y-47095000D01*
X9318108Y-47095000D01*
X9318106Y-47095000D01*
X9190818Y-47129106D01*
X9190809Y-47129110D01*
X9076685Y-47195000D01*
X8983500Y-47288185D01*
X8917610Y-47402309D01*
X8917606Y-47402318D01*
X8883500Y-47529605D01*
X7948600Y-47529605D01*
X7948600Y-44166339D01*
X7970274Y-44114013D01*
X8003444Y-44094861D01*
X8095886Y-44070092D01*
X8210014Y-44004200D01*
X8303200Y-43911014D01*
X8369092Y-43796886D01*
X8403199Y-43669594D01*
X8403200Y-43669594D01*
X8403200Y-43537806D01*
X8403199Y-43537805D01*
X8369093Y-43410518D01*
X8369092Y-43410514D01*
X8303200Y-43296386D01*
X8210014Y-43203200D01*
X8183858Y-43188099D01*
X8095890Y-43137310D01*
X8095881Y-43137306D01*
X7968594Y-43103200D01*
X7968592Y-43103200D01*
X7836808Y-43103200D01*
X7836806Y-43103200D01*
X7709518Y-43137306D01*
X7709509Y-43137310D01*
X7595385Y-43203200D01*
X7502200Y-43296385D01*
X7436310Y-43410509D01*
X7436306Y-43410518D01*
X7402200Y-43537805D01*
X7402200Y-43663383D01*
X7392286Y-43700382D01*
X7368078Y-43742311D01*
X7347600Y-43818735D01*
X7347600Y-52327664D01*
X7368077Y-52404085D01*
X7368079Y-52404090D01*
X7407640Y-52472611D01*
X8723140Y-53788111D01*
X8779089Y-53844060D01*
X8847611Y-53883621D01*
X8847612Y-53883621D01*
X8847614Y-53883622D01*
X8885824Y-53893860D01*
X8924035Y-53904099D01*
X8924036Y-53904100D01*
X8924038Y-53904100D01*
X14824677Y-53904100D01*
X14877003Y-53925774D01*
X24920540Y-63969311D01*
X24976489Y-64025260D01*
X25045011Y-64064821D01*
X25045012Y-64064821D01*
X25045014Y-64064822D01*
X25083224Y-64075060D01*
X25121435Y-64085299D01*
X25121436Y-64085300D01*
X25121438Y-64085300D01*
X30764777Y-64085300D01*
X30817103Y-64106974D01*
X40832626Y-74122497D01*
X40854300Y-74174823D01*
X40854300Y-74285594D01*
X40888406Y-74412881D01*
X40888410Y-74412890D01*
X40938357Y-74499400D01*
X40954300Y-74527014D01*
X41047486Y-74620200D01*
X41151374Y-74680180D01*
X41163949Y-74687440D01*
X41198428Y-74732373D01*
X41191035Y-74788526D01*
X41179275Y-74803852D01*
X31049689Y-84933440D01*
X30993740Y-84989388D01*
X30954179Y-85057909D01*
X30954177Y-85057914D01*
X30933700Y-85134335D01*
X30933700Y-90039416D01*
X30912026Y-90091742D01*
X30859700Y-90113416D01*
X30807374Y-90091742D01*
X30799654Y-90084022D01*
X30627598Y-89969059D01*
X30476181Y-89906339D01*
X30436133Y-89866290D01*
X30430500Y-89837972D01*
X30430500Y-71770039D01*
X30422026Y-71738412D01*
X30422026Y-71738411D01*
X30410023Y-71693616D01*
X30410022Y-71693612D01*
X30370460Y-71625089D01*
X18331197Y-59585826D01*
X18309523Y-59533500D01*
X18331197Y-59481174D01*
X18383523Y-59459500D01*
X18615377Y-59459500D01*
X18667703Y-59481174D01*
X26047540Y-66861011D01*
X26103489Y-66916960D01*
X26172011Y-66956521D01*
X26172012Y-66956521D01*
X26172014Y-66956522D01*
X26210224Y-66966760D01*
X26248435Y-66976999D01*
X26248436Y-66977000D01*
X26248438Y-66977000D01*
X26327562Y-66977000D01*
X29327034Y-66977000D01*
X29379360Y-66998674D01*
X29457686Y-67077000D01*
X29571814Y-67142892D01*
X29699105Y-67176999D01*
X29699106Y-67177000D01*
X29699108Y-67177000D01*
X29830894Y-67177000D01*
X29830894Y-67176999D01*
X29958186Y-67142892D01*
X30072314Y-67077000D01*
X30165500Y-66983814D01*
X30231392Y-66869686D01*
X30265499Y-66742394D01*
X30265500Y-66742394D01*
X30265500Y-66610606D01*
X30265499Y-66610605D01*
X30231393Y-66483318D01*
X30231392Y-66483314D01*
X30165500Y-66369186D01*
X30072314Y-66276000D01*
X29958190Y-66210110D01*
X29958181Y-66210106D01*
X29830894Y-66176000D01*
X29830892Y-66176000D01*
X29699108Y-66176000D01*
X29699106Y-66176000D01*
X29571818Y-66210106D01*
X29571809Y-66210110D01*
X29457685Y-66276000D01*
X29379360Y-66354326D01*
X29327034Y-66376000D01*
X26443123Y-66376000D01*
X26390797Y-66354326D01*
X18955011Y-58918540D01*
X18886490Y-58878979D01*
X18886485Y-58878977D01*
X18810064Y-58858500D01*
X18810062Y-58858500D01*
X9802338Y-58858500D01*
X9802336Y-58858500D01*
X9725914Y-58878977D01*
X9725909Y-58878979D01*
X9657388Y-58918540D01*
X8609602Y-59966326D01*
X8557276Y-59988000D01*
X8446506Y-59988000D01*
X8319218Y-60022106D01*
X8319209Y-60022110D01*
X8205085Y-60088000D01*
X8111900Y-60181185D01*
X8046010Y-60295309D01*
X8046006Y-60295318D01*
X8011900Y-60422605D01*
X8011900Y-60554394D01*
X8046006Y-60681681D01*
X8046010Y-60681690D01*
X8059006Y-60704200D01*
X8111900Y-60795814D01*
X8205086Y-60889000D01*
X8319214Y-60954892D01*
X8446505Y-60988999D01*
X8446506Y-60989000D01*
X8446508Y-60989000D01*
X8578294Y-60989000D01*
X8578294Y-60988999D01*
X8705586Y-60954892D01*
X8819714Y-60889000D01*
X8912900Y-60795814D01*
X8978792Y-60681686D01*
X9012899Y-60554394D01*
X9012900Y-60554394D01*
X9012900Y-60443622D01*
X9034574Y-60391296D01*
X9944697Y-59481174D01*
X9997023Y-59459500D01*
X16483143Y-59459500D01*
X16535469Y-59481174D01*
X16557143Y-59533500D01*
X16554621Y-59552653D01*
X16529500Y-59646405D01*
X16529500Y-59778194D01*
X16563606Y-59905481D01*
X16563607Y-59905484D01*
X16563608Y-59905486D01*
X16629500Y-60019614D01*
X16722686Y-60112800D01*
X16836814Y-60178692D01*
X16964105Y-60212799D01*
X16964106Y-60212800D01*
X16964108Y-60212800D01*
X17095894Y-60212800D01*
X17095894Y-60212799D01*
X17223186Y-60178692D01*
X17337314Y-60112800D01*
X17415640Y-60034474D01*
X17467966Y-60012800D01*
X17877577Y-60012800D01*
X17929903Y-60034474D01*
X18906821Y-61011392D01*
X18928495Y-61063718D01*
X18906821Y-61116044D01*
X18891496Y-61127803D01*
X18808886Y-61175499D01*
X18715700Y-61268685D01*
X18649810Y-61382809D01*
X18649806Y-61382818D01*
X18615700Y-61510105D01*
X18615700Y-61620876D01*
X18594026Y-61673202D01*
X1809526Y-78457702D01*
X1757200Y-78479376D01*
X1704874Y-78457702D01*
X1683200Y-78405376D01*
X1683200Y-62917822D01*
X1704873Y-62865497D01*
X5807296Y-58763073D01*
X5859622Y-58741400D01*
X5970394Y-58741400D01*
X5970394Y-58741399D01*
X6097686Y-58707292D01*
X6211814Y-58641400D01*
X6305000Y-58548214D01*
X6370892Y-58434086D01*
X6404999Y-58306794D01*
X6405000Y-58306794D01*
X6405000Y-58175006D01*
X6404999Y-58175005D01*
X6370893Y-58047718D01*
X6370892Y-58047714D01*
X6305000Y-57933586D01*
X6211814Y-57840400D01*
X6189926Y-57827763D01*
X6097690Y-57774510D01*
X6097681Y-57774506D01*
X5970394Y-57740400D01*
X5970392Y-57740400D01*
X5838608Y-57740400D01*
X5838606Y-57740400D01*
X5711318Y-57774506D01*
X5711309Y-57774510D01*
X5597185Y-57840400D01*
X5504000Y-57933585D01*
X5438110Y-58047709D01*
X5438106Y-58047718D01*
X5404000Y-58175005D01*
X5404000Y-58285776D01*
X5382326Y-58338102D01*
X1198189Y-62522240D01*
X1142240Y-62578188D01*
X1102679Y-62646709D01*
X1102677Y-62646714D01*
X1082200Y-62723135D01*
X100500Y-62723135D01*
X100500Y-56727505D01*
X7649500Y-56727505D01*
X7649500Y-56859294D01*
X7683606Y-56986581D01*
X7683610Y-56986590D01*
X7704046Y-57021986D01*
X7749500Y-57100714D01*
X7842686Y-57193900D01*
X7956814Y-57259792D01*
X8084105Y-57293899D01*
X8084106Y-57293900D01*
X8084108Y-57293900D01*
X8215894Y-57293900D01*
X8215894Y-57293899D01*
X8343186Y-57259792D01*
X8457314Y-57193900D01*
X8550500Y-57100714D01*
X8616392Y-56986586D01*
X8650499Y-56859294D01*
X8650500Y-56859294D01*
X8650500Y-56727506D01*
X8650499Y-56727505D01*
X8634581Y-56668099D01*
X8616392Y-56600214D01*
X8550500Y-56486086D01*
X8457314Y-56392900D01*
X8401691Y-56360786D01*
X8343190Y-56327010D01*
X8343181Y-56327006D01*
X8215894Y-56292900D01*
X8215892Y-56292900D01*
X8084108Y-56292900D01*
X8084106Y-56292900D01*
X7956818Y-56327006D01*
X7956809Y-56327010D01*
X7842685Y-56392900D01*
X7749500Y-56486085D01*
X7683610Y-56600209D01*
X7683606Y-56600218D01*
X7649500Y-56727505D01*
X100500Y-56727505D01*
X100500Y-54378405D01*
X7395600Y-54378405D01*
X7395600Y-54510194D01*
X7429706Y-54637481D01*
X7429707Y-54637484D01*
X7429708Y-54637486D01*
X7495600Y-54751614D01*
X7588786Y-54844800D01*
X7702914Y-54910692D01*
X7830205Y-54944799D01*
X7830206Y-54944800D01*
X7830208Y-54944800D01*
X7961994Y-54944800D01*
X7961994Y-54944799D01*
X8089286Y-54910692D01*
X8203414Y-54844800D01*
X8296600Y-54751614D01*
X8362492Y-54637486D01*
X8396599Y-54510194D01*
X8396600Y-54510194D01*
X8396600Y-54378406D01*
X8396599Y-54378405D01*
X8381081Y-54320492D01*
X8362492Y-54251114D01*
X8296600Y-54136986D01*
X8203414Y-54043800D01*
X8189220Y-54035605D01*
X8089290Y-53977910D01*
X8089281Y-53977906D01*
X7961994Y-53943800D01*
X7961992Y-53943800D01*
X7830208Y-53943800D01*
X7830206Y-53943800D01*
X7702918Y-53977906D01*
X7702909Y-53977910D01*
X7588785Y-54043800D01*
X7495600Y-54136985D01*
X7429710Y-54251109D01*
X7429706Y-54251118D01*
X7395600Y-54378405D01*
X100500Y-54378405D01*
X100500Y-41924105D01*
X7370000Y-41924105D01*
X7370000Y-42055894D01*
X7404106Y-42183181D01*
X7404110Y-42183190D01*
X7459879Y-42279784D01*
X7470000Y-42297314D01*
X7563186Y-42390500D01*
X7677314Y-42456392D01*
X7804605Y-42490499D01*
X7804606Y-42490500D01*
X7804608Y-42490500D01*
X7936394Y-42490500D01*
X7936394Y-42490499D01*
X8063686Y-42456392D01*
X8177814Y-42390500D01*
X8271000Y-42297314D01*
X8336892Y-42183186D01*
X8370999Y-42055894D01*
X8371000Y-42055894D01*
X8371000Y-41924106D01*
X8370999Y-41924105D01*
X8362849Y-41893690D01*
X8336892Y-41796814D01*
X8271000Y-41682686D01*
X8177814Y-41589500D01*
X8063690Y-41523610D01*
X8063681Y-41523606D01*
X7936394Y-41489500D01*
X7936392Y-41489500D01*
X7804608Y-41489500D01*
X7804606Y-41489500D01*
X7677318Y-41523606D01*
X7677309Y-41523610D01*
X7563185Y-41589500D01*
X7470000Y-41682685D01*
X7404110Y-41796809D01*
X7404106Y-41796818D01*
X7370000Y-41924105D01*
X100500Y-41924105D01*
X100500Y-39304000D01*
X122174Y-39251674D01*
X174500Y-39230000D01*
X39320400Y-39230000D01*
X39372726Y-39251674D01*
X39394400Y-39304000D01*
X39394400Y-40187376D01*
X39372726Y-40239702D01*
X38863137Y-40749291D01*
X38810811Y-40770965D01*
X38758485Y-40749291D01*
X38736811Y-40696965D01*
X38746726Y-40659964D01*
X38747682Y-40658306D01*
X38754392Y-40646686D01*
X38788499Y-40519394D01*
X38788500Y-40519394D01*
X38788500Y-40387606D01*
X38788499Y-40387605D01*
X38754393Y-40260318D01*
X38754392Y-40260314D01*
X38688500Y-40146186D01*
X38595314Y-40053000D01*
X38481190Y-39987110D01*
X38481181Y-39987106D01*
X38353894Y-39953000D01*
X38353892Y-39953000D01*
X38222108Y-39953000D01*
X38222106Y-39953000D01*
X38094818Y-39987106D01*
X38094809Y-39987110D01*
X37980685Y-40053000D01*
X37887500Y-40146185D01*
X37821610Y-40260309D01*
X37821606Y-40260318D01*
X37787500Y-40387605D01*
X37787500Y-40519394D01*
X37821606Y-40646681D01*
X37821610Y-40646690D01*
X37880847Y-40749291D01*
X37887500Y-40760814D01*
X37980686Y-40854000D01*
X38094814Y-40919892D01*
X38222105Y-40953999D01*
X38222106Y-40954000D01*
X38222108Y-40954000D01*
X38353894Y-40954000D01*
X38353894Y-40953999D01*
X38481186Y-40919892D01*
X38494462Y-40912226D01*
X38550613Y-40904832D01*
X38595548Y-40939308D01*
X38602943Y-40995460D01*
X38583790Y-41028637D01*
X38434102Y-41178326D01*
X38381776Y-41200000D01*
X38271006Y-41200000D01*
X38143718Y-41234106D01*
X38143709Y-41234110D01*
X38029585Y-41300000D01*
X37936400Y-41393185D01*
X37870510Y-41507309D01*
X37870506Y-41507318D01*
X37836400Y-41634605D01*
X37836400Y-41766394D01*
X37870506Y-41893681D01*
X37870507Y-41893684D01*
X37870508Y-41893686D01*
X37936400Y-42007814D01*
X38029586Y-42101000D01*
X38114732Y-42150159D01*
X38137617Y-42163372D01*
X38172096Y-42208306D01*
X38164703Y-42264458D01*
X38152943Y-42279784D01*
X35345703Y-45087026D01*
X35293377Y-45108700D01*
X26223966Y-45108700D01*
X26171640Y-45087026D01*
X26093314Y-45008700D01*
X25979190Y-44942810D01*
X25979181Y-44942806D01*
X25851894Y-44908700D01*
X25851892Y-44908700D01*
X25720108Y-44908700D01*
X25720106Y-44908700D01*
X25592818Y-44942806D01*
X25592809Y-44942810D01*
X25478685Y-45008700D01*
X25385500Y-45101885D01*
X25319610Y-45216009D01*
X25319606Y-45216018D01*
X25285500Y-45343305D01*
X25285500Y-45475094D01*
X25319606Y-45602381D01*
X25319607Y-45602384D01*
X25319608Y-45602386D01*
X25385500Y-45716514D01*
X25478686Y-45809700D01*
X25592814Y-45875592D01*
X25720105Y-45909699D01*
X25720106Y-45909700D01*
X25720108Y-45909700D01*
X25851894Y-45909700D01*
X25851894Y-45909699D01*
X25979186Y-45875592D01*
X26093314Y-45809700D01*
X26171640Y-45731374D01*
X26223966Y-45709700D01*
X35488064Y-45709700D01*
X35488064Y-45709699D01*
X35564489Y-45689221D01*
X35633011Y-45649660D01*
X35688960Y-45593711D01*
X38660966Y-42621705D01*
X41548200Y-42621705D01*
X41548200Y-42753494D01*
X41582306Y-42880781D01*
X41582307Y-42880784D01*
X41582308Y-42880786D01*
X41648200Y-42994914D01*
X41741386Y-43088100D01*
X41855514Y-43153992D01*
X41982805Y-43188099D01*
X41982806Y-43188100D01*
X41982808Y-43188100D01*
X42114594Y-43188100D01*
X42114594Y-43188099D01*
X42241886Y-43153992D01*
X42356014Y-43088100D01*
X42449200Y-42994914D01*
X42515092Y-42880786D01*
X42549199Y-42753494D01*
X42549200Y-42753494D01*
X42549200Y-42621706D01*
X42549199Y-42621705D01*
X42515093Y-42494418D01*
X42515092Y-42494414D01*
X42449200Y-42380286D01*
X42356014Y-42287100D01*
X42316797Y-42264458D01*
X42241890Y-42221210D01*
X42241881Y-42221206D01*
X42114594Y-42187100D01*
X42114592Y-42187100D01*
X41982808Y-42187100D01*
X41982806Y-42187100D01*
X41855518Y-42221206D01*
X41855509Y-42221210D01*
X41741385Y-42287100D01*
X41648200Y-42380285D01*
X41582310Y-42494409D01*
X41582306Y-42494418D01*
X41548200Y-42621705D01*
X38660966Y-42621705D01*
X40292960Y-40989711D01*
X40332521Y-40921189D01*
X40352999Y-40844764D01*
X40353000Y-40844764D01*
X40353000Y-18288823D01*
X40374674Y-18236497D01*
X40427000Y-18214823D01*
X40479326Y-18236497D01*
X40896426Y-18653597D01*
X40918100Y-18705923D01*
X40918100Y-35759534D01*
X40896426Y-35811860D01*
X40818100Y-35890185D01*
X40752210Y-36004309D01*
X40752206Y-36004318D01*
X40718100Y-36131605D01*
X40718100Y-36263394D01*
X40752206Y-36390681D01*
X40752207Y-36390684D01*
X40752208Y-36390686D01*
X40818100Y-36504814D01*
X40911286Y-36598000D01*
X41025414Y-36663892D01*
X41152705Y-36697999D01*
X41152706Y-36698000D01*
X41152708Y-36698000D01*
X41284494Y-36698000D01*
X41284494Y-36697999D01*
X41411786Y-36663892D01*
X41525914Y-36598000D01*
X41619100Y-36504814D01*
X41684992Y-36390686D01*
X41719099Y-36263394D01*
X41719100Y-36263394D01*
X41719100Y-36131606D01*
X41719099Y-36131605D01*
X41684993Y-36004318D01*
X41684992Y-36004314D01*
X41619100Y-35890186D01*
X41540774Y-35811860D01*
X41519100Y-35759534D01*
X41519100Y-18977105D01*
X45899500Y-18977105D01*
X45899500Y-19108894D01*
X45933606Y-19236181D01*
X45933607Y-19236184D01*
X45933608Y-19236186D01*
X45999500Y-19350314D01*
X46092686Y-19443500D01*
X46206814Y-19509392D01*
X46334105Y-19543499D01*
X46334106Y-19543500D01*
X46334108Y-19543500D01*
X46465894Y-19543500D01*
X46465894Y-19543499D01*
X46593186Y-19509392D01*
X46707314Y-19443500D01*
X46800500Y-19350314D01*
X46866392Y-19236186D01*
X46900499Y-19108894D01*
X46900500Y-19108894D01*
X46900500Y-18977106D01*
X46900499Y-18977105D01*
X46866393Y-18849818D01*
X46866392Y-18849814D01*
X46800500Y-18735686D01*
X46707314Y-18642500D01*
X46593190Y-18576610D01*
X46593181Y-18576606D01*
X46465894Y-18542500D01*
X46465892Y-18542500D01*
X46334108Y-18542500D01*
X46334106Y-18542500D01*
X46206818Y-18576606D01*
X46206809Y-18576610D01*
X46092685Y-18642500D01*
X45999500Y-18735685D01*
X45933610Y-18849809D01*
X45933606Y-18849818D01*
X45899500Y-18977105D01*
X41519100Y-18977105D01*
X41519100Y-18511240D01*
X41519100Y-18511238D01*
X41498622Y-18434812D01*
X41459060Y-18366289D01*
X38013505Y-14920734D01*
X45599500Y-14920734D01*
X45599500Y-16279266D01*
X45602354Y-16309699D01*
X45602354Y-16309701D01*
X45602355Y-16309704D01*
X45647206Y-16437881D01*
X45647207Y-16437883D01*
X45727846Y-16547146D01*
X45727853Y-16547153D01*
X45837116Y-16627792D01*
X45837118Y-16627793D01*
X45965295Y-16672644D01*
X45965301Y-16672646D01*
X45995734Y-16675500D01*
X45995741Y-16675500D01*
X46804258Y-16675500D01*
X46804266Y-16675500D01*
X46834699Y-16672646D01*
X46962882Y-16627793D01*
X47072150Y-16547150D01*
X47152793Y-16437882D01*
X47197646Y-16309699D01*
X47200500Y-16279266D01*
X47200500Y-15246159D01*
X47599500Y-15246159D01*
X47599500Y-15953840D01*
X47630261Y-16108491D01*
X47630264Y-16108501D01*
X47690603Y-16254174D01*
X47690605Y-16254177D01*
X47690606Y-16254179D01*
X47778211Y-16385289D01*
X47889711Y-16496789D01*
X48020821Y-16584394D01*
X48020826Y-16584396D01*
X48020825Y-16584396D01*
X48125596Y-16627793D01*
X48166503Y-16644737D01*
X48321158Y-16675500D01*
X48321160Y-16675500D01*
X48478840Y-16675500D01*
X48478842Y-16675500D01*
X48633497Y-16644737D01*
X48779179Y-16584394D01*
X48910289Y-16496789D01*
X49021789Y-16385289D01*
X49109394Y-16254179D01*
X49169737Y-16108497D01*
X49200500Y-15953842D01*
X49200500Y-15246158D01*
X49169737Y-15091503D01*
X49135771Y-15009500D01*
X49109396Y-14945825D01*
X49109395Y-14945823D01*
X49109394Y-14945821D01*
X49021789Y-14814711D01*
X48910289Y-14703211D01*
X48905034Y-14699700D01*
X48872597Y-14678026D01*
X48779179Y-14615606D01*
X48779175Y-14615604D01*
X48779173Y-14615603D01*
X48779174Y-14615603D01*
X48633501Y-14555264D01*
X48633491Y-14555261D01*
X48514214Y-14531536D01*
X48478842Y-14524500D01*
X48321158Y-14524500D01*
X48285786Y-14531536D01*
X48166508Y-14555261D01*
X48166498Y-14555264D01*
X48020825Y-14615603D01*
X47889711Y-14703210D01*
X47889710Y-14703212D01*
X47778212Y-14814710D01*
X47778210Y-14814711D01*
X47690603Y-14945825D01*
X47630264Y-15091498D01*
X47630261Y-15091508D01*
X47599500Y-15246159D01*
X47200500Y-15246159D01*
X47200500Y-14920734D01*
X47197646Y-14890301D01*
X47152793Y-14762118D01*
X47131901Y-14733810D01*
X47072153Y-14652853D01*
X47072146Y-14652846D01*
X46962883Y-14572207D01*
X46962881Y-14572206D01*
X46834704Y-14527355D01*
X46834705Y-14527355D01*
X46834700Y-14527354D01*
X46834699Y-14527354D01*
X46804266Y-14524500D01*
X45995734Y-14524500D01*
X45965301Y-14527354D01*
X45965299Y-14527354D01*
X45965295Y-14527355D01*
X45837118Y-14572206D01*
X45837116Y-14572207D01*
X45727853Y-14652846D01*
X45727846Y-14652853D01*
X45647207Y-14762116D01*
X45647206Y-14762118D01*
X45602355Y-14890295D01*
X45602354Y-14890299D01*
X45602354Y-14890301D01*
X45599500Y-14920734D01*
X38013505Y-14920734D01*
X34420711Y-11327940D01*
X34352190Y-11288379D01*
X34352185Y-11288377D01*
X34275764Y-11267900D01*
X34275762Y-11267900D01*
X33074000Y-11267900D01*
X33021674Y-11246226D01*
X33000000Y-11193900D01*
X33000000Y-7196705D01*
X33421200Y-7196705D01*
X33421200Y-7328494D01*
X33455306Y-7455781D01*
X33455307Y-7455784D01*
X33455308Y-7455786D01*
X33521200Y-7569914D01*
X33614386Y-7663100D01*
X33728514Y-7728992D01*
X33855805Y-7763099D01*
X33855806Y-7763100D01*
X33855808Y-7763100D01*
X33987594Y-7763100D01*
X33987594Y-7763099D01*
X34114886Y-7728992D01*
X34229014Y-7663100D01*
X34322200Y-7569914D01*
X34388092Y-7455786D01*
X34422199Y-7328494D01*
X34422200Y-7328494D01*
X34422200Y-7196706D01*
X34422199Y-7196705D01*
X34388093Y-7069418D01*
X34388092Y-7069414D01*
X34322200Y-6955286D01*
X34229014Y-6862100D01*
X34114890Y-6796210D01*
X34114881Y-6796206D01*
X33987594Y-6762100D01*
X33987592Y-6762100D01*
X33855808Y-6762100D01*
X33855806Y-6762100D01*
X33728518Y-6796206D01*
X33728509Y-6796210D01*
X33614385Y-6862100D01*
X33521200Y-6955285D01*
X33455310Y-7069409D01*
X33455306Y-7069418D01*
X33421200Y-7196705D01*
X33000000Y-7196705D01*
X33000000Y-5493266D01*
X33021674Y-5440940D01*
X33100000Y-5362614D01*
X33165892Y-5248486D01*
X33196471Y-5134361D01*
X33230949Y-5089429D01*
X33287101Y-5082036D01*
X33320275Y-5101189D01*
X33402686Y-5183600D01*
X33516814Y-5249492D01*
X33644105Y-5283599D01*
X33644106Y-5283600D01*
X33644108Y-5283600D01*
X33775894Y-5283600D01*
X33775894Y-5283599D01*
X33903186Y-5249492D01*
X34017314Y-5183600D01*
X34110500Y-5090414D01*
X34176392Y-4976286D01*
X34210499Y-4848994D01*
X34210500Y-4848994D01*
X34210500Y-4717206D01*
X34210499Y-4717205D01*
X34176393Y-4589918D01*
X34176392Y-4589914D01*
X34110500Y-4475786D01*
X34017314Y-4382600D01*
X33903190Y-4316710D01*
X33903181Y-4316706D01*
X33775894Y-4282600D01*
X33775892Y-4282600D01*
X33644108Y-4282600D01*
X33644106Y-4282600D01*
X33516818Y-4316706D01*
X33516809Y-4316710D01*
X33402685Y-4382600D01*
X33309500Y-4475785D01*
X33243610Y-4589909D01*
X33243606Y-4589918D01*
X33213028Y-4704037D01*
X33178550Y-4748970D01*
X33122397Y-4756362D01*
X33089224Y-4737210D01*
X33006814Y-4654800D01*
X32892690Y-4588910D01*
X32892681Y-4588906D01*
X32765394Y-4554800D01*
X32765392Y-4554800D01*
X32633608Y-4554800D01*
X32633606Y-4554800D01*
X32506318Y-4588906D01*
X32506309Y-4588910D01*
X32392185Y-4654800D01*
X32299000Y-4747985D01*
X32233110Y-4862109D01*
X32233106Y-4862118D01*
X32199000Y-4989405D01*
X32199000Y-5121194D01*
X32233106Y-5248481D01*
X32233110Y-5248490D01*
X32299000Y-5362614D01*
X32377326Y-5440940D01*
X32399000Y-5493266D01*
X32399000Y-11193900D01*
X32377326Y-11246226D01*
X32325000Y-11267900D01*
X24937936Y-11267900D01*
X24861514Y-11288377D01*
X24861509Y-11288379D01*
X24792988Y-11327940D01*
X21442902Y-14678026D01*
X21390576Y-14699700D01*
X21279806Y-14699700D01*
X21152518Y-14733806D01*
X21152509Y-14733810D01*
X21038385Y-14799700D01*
X20945200Y-14892885D01*
X20879310Y-15007009D01*
X20879306Y-15007018D01*
X20845200Y-15134305D01*
X20845200Y-15266094D01*
X20879306Y-15393381D01*
X20879307Y-15393384D01*
X20879308Y-15393386D01*
X20945200Y-15507514D01*
X21038386Y-15600700D01*
X21152514Y-15666592D01*
X21279805Y-15700699D01*
X21279806Y-15700700D01*
X21279808Y-15700700D01*
X21411594Y-15700700D01*
X21411594Y-15700699D01*
X21538886Y-15666592D01*
X21653014Y-15600700D01*
X21746200Y-15507514D01*
X21812092Y-15393386D01*
X21846199Y-15266094D01*
X21846200Y-15266094D01*
X21846200Y-15253105D01*
X22349500Y-15253105D01*
X22349500Y-15384894D01*
X22383606Y-15512181D01*
X22383610Y-15512190D01*
X22434711Y-15600699D01*
X22449500Y-15626314D01*
X22542686Y-15719500D01*
X22656814Y-15785392D01*
X22784105Y-15819499D01*
X22784106Y-15819500D01*
X22784108Y-15819500D01*
X22915894Y-15819500D01*
X22915894Y-15819499D01*
X23043186Y-15785392D01*
X23157314Y-15719500D01*
X23250500Y-15626314D01*
X23316392Y-15512186D01*
X23350499Y-15384894D01*
X23350500Y-15384894D01*
X23350500Y-15253106D01*
X23350499Y-15253105D01*
X23342483Y-15223190D01*
X23316392Y-15125814D01*
X23250500Y-15011686D01*
X23157314Y-14918500D01*
X23043190Y-14852610D01*
X23043181Y-14852606D01*
X22915894Y-14818500D01*
X22915892Y-14818500D01*
X22784108Y-14818500D01*
X22784106Y-14818500D01*
X22656818Y-14852606D01*
X22656809Y-14852610D01*
X22542685Y-14918500D01*
X22449500Y-15011685D01*
X22383610Y-15125809D01*
X22383606Y-15125818D01*
X22349500Y-15253105D01*
X21846200Y-15253105D01*
X21846200Y-15155322D01*
X21867874Y-15102996D01*
X25080297Y-11890574D01*
X25132623Y-11868900D01*
X32659938Y-11868900D01*
X32739062Y-11868900D01*
X34081077Y-11868900D01*
X34133403Y-11890574D01*
X36451003Y-14208174D01*
X36472677Y-14260500D01*
X36451003Y-14312826D01*
X36398677Y-14334500D01*
X24774736Y-14334500D01*
X24698314Y-14354977D01*
X24698309Y-14354979D01*
X24629788Y-14394540D01*
X24516502Y-14507826D01*
X24464176Y-14529500D01*
X24353406Y-14529500D01*
X24226118Y-14563606D01*
X24226109Y-14563610D01*
X24111985Y-14629500D01*
X24018800Y-14722685D01*
X23952910Y-14836809D01*
X23952906Y-14836818D01*
X23918800Y-14964105D01*
X23918800Y-15095894D01*
X23952906Y-15223181D01*
X23952910Y-15223190D01*
X23977680Y-15266092D01*
X24018800Y-15337314D01*
X24111986Y-15430500D01*
X24226114Y-15496392D01*
X24353405Y-15530499D01*
X24353406Y-15530500D01*
X24353408Y-15530500D01*
X24485194Y-15530500D01*
X24485194Y-15530499D01*
X24612486Y-15496392D01*
X24726614Y-15430500D01*
X24819800Y-15337314D01*
X24885692Y-15223186D01*
X24919799Y-15095894D01*
X24919800Y-15095894D01*
X24919800Y-15009500D01*
X24941474Y-14957174D01*
X24993800Y-14935500D01*
X27306332Y-14935500D01*
X27358658Y-14957174D01*
X27380332Y-15009500D01*
X27377810Y-15028653D01*
X27349500Y-15134305D01*
X27349500Y-15266094D01*
X27383606Y-15393381D01*
X27383607Y-15393384D01*
X27383608Y-15393386D01*
X27449500Y-15507514D01*
X27542686Y-15600700D01*
X27656814Y-15666592D01*
X27784105Y-15700699D01*
X27784106Y-15700700D01*
X27784108Y-15700700D01*
X27915894Y-15700700D01*
X27915894Y-15700699D01*
X28043186Y-15666592D01*
X28157314Y-15600700D01*
X28235640Y-15522374D01*
X28287966Y-15500700D01*
X36607577Y-15500700D01*
X36659903Y-15522374D01*
X39241203Y-18103674D01*
X39262877Y-18156000D01*
X39241203Y-18208326D01*
X39188877Y-18230000D01*
X174500Y-18230000D01*
X122174Y-18208326D01*
X100500Y-18156000D01*
X100500Y-6745705D01*
X11282100Y-6745705D01*
X11282100Y-6877494D01*
X11316206Y-7004781D01*
X11316207Y-7004784D01*
X11316208Y-7004786D01*
X11382100Y-7118914D01*
X11475286Y-7212100D01*
X11589414Y-7277992D01*
X11716705Y-7312099D01*
X11716706Y-7312100D01*
X11716708Y-7312100D01*
X11848494Y-7312100D01*
X11848494Y-7312099D01*
X11975786Y-7277992D01*
X12089914Y-7212100D01*
X12183100Y-7118914D01*
X12248992Y-7004786D01*
X12283099Y-6877494D01*
X12283100Y-6877494D01*
X12283100Y-6745706D01*
X12283099Y-6745705D01*
X12248993Y-6618418D01*
X12248992Y-6618414D01*
X12183100Y-6504286D01*
X12089914Y-6411100D01*
X11975790Y-6345210D01*
X11975781Y-6345206D01*
X11848494Y-6311100D01*
X11848492Y-6311100D01*
X11716708Y-6311100D01*
X11716706Y-6311100D01*
X11589418Y-6345206D01*
X11589409Y-6345210D01*
X11475285Y-6411100D01*
X11382100Y-6504285D01*
X11316210Y-6618409D01*
X11316206Y-6618418D01*
X11282100Y-6745705D01*
X100500Y-6745705D01*
X100500Y-2011407D01*
X101129Y-2001775D01*
X104804Y-1973781D01*
X164643Y-1517940D01*
X169662Y-1499217D01*
X352027Y-1059719D01*
X361684Y-1043015D01*
X651764Y-665364D01*
X665367Y-651761D01*
X1043013Y-361685D01*
X1059717Y-352028D01*
X1499217Y-169662D01*
X1517940Y-164643D01*
X2001776Y-101128D01*
X2011408Y-100500D01*
X60788592Y-100500D01*
X60798223Y-101128D01*
G37*
%TD.AperFunction*%
%TD*%
M02*
