%TF.GenerationSoftware,KiCad,Pcbnew,10.0.6*%
%TF.CreationDate,2026-09-16T13:54:09-04:00*%
%TF.ProjectId,qurannode,71757261-6e6e-46f6-9465-2e6b69636164,rev?*%
%TF.SameCoordinates,Original*%
%TF.FileFunction,Copper,L2,Inr*%
%TF.FilePolarity,Positive*%
%FSLAX46Y46*%
G04 Gerber Fmt 4.6, Leading zero omitted, Abs format (unit mm)*
G04 Created by KiCad (PCBNEW 10.0.6) date 2026-09-16 13:54:09*
%MOMM*%
%LPD*%
G01*
G04 APERTURE LIST*
G04 Aperture macros list*
%AMRoundRect*
0 Rectangle with rounded corners*
0 $1 Rounding radius*
0 $2 $3 $4 $5 $6 $7 $8 $9 X,Y pos of 4 corners*
0 Add a 4 corners polygon primitive as box body*
4,1,4,$2,$3,$4,$5,$6,$7,$8,$9,$2,$3,0*
0 Add four circle primitives for the rounded corners*
1,1,$1+$1,$2,$3*
1,1,$1+$1,$4,$5*
1,1,$1+$1,$6,$7*
1,1,$1+$1,$8,$9*
0 Add four rect primitives between the rounded corners*
20,1,$1+$1,$2,$3,$4,$5,0*
20,1,$1+$1,$4,$5,$6,$7,0*
20,1,$1+$1,$6,$7,$8,$9,0*
20,1,$1+$1,$8,$9,$2,$3,0*%
G04 Aperture macros list end*
%TA.AperFunction,ComponentPad*%
%ADD10R,1.700000X1.700000*%
%TD*%
%TA.AperFunction,ComponentPad*%
%ADD11C,1.700000*%
%TD*%
%TA.AperFunction,ComponentPad*%
%ADD12O,1.000000X2.100000*%
%TD*%
%TA.AperFunction,ComponentPad*%
%ADD13O,1.000000X1.600000*%
%TD*%
%TA.AperFunction,ComponentPad*%
%ADD14RoundRect,0.250000X-0.350000X-0.625000X0.350000X-0.625000X0.350000X0.625000X-0.350000X0.625000X0*%
%TD*%
%TA.AperFunction,ComponentPad*%
%ADD15O,1.200000X1.750000*%
%TD*%
%TA.AperFunction,HeatsinkPad*%
%ADD16C,0.600000*%
%TD*%
%TA.AperFunction,ViaPad*%
%ADD17C,0.600000*%
%TD*%
%TA.AperFunction,Conductor*%
%ADD18C,0.200000*%
%TD*%
G04 APERTURE END LIST*
D10*
%TO.N,+3V3*%
%TO.C,J3*%
X11830700Y-89584500D03*
D11*
%TO.N,GND*%
X14370700Y-89584500D03*
%TO.N,DISP_CS*%
X16910700Y-89584500D03*
%TO.N,DISP_RST*%
X19450700Y-89584500D03*
%TO.N,DISP_DC*%
X21990700Y-89584500D03*
%TO.N,DISP_MOSI*%
X24530700Y-89584500D03*
%TO.N,DISP_CLK*%
X27070700Y-89584500D03*
%TO.N,N$28*%
X29610700Y-89584500D03*
%TO.N,N/C*%
X32150700Y-89584500D03*
%TO.N,TOUCH_SCL*%
X34690700Y-89584500D03*
%TO.N,DISP_RST*%
X37230700Y-89584500D03*
%TO.N,TOUCH_SDA*%
X39770700Y-89584500D03*
%TO.N,N/C*%
X42310700Y-89584500D03*
X44850700Y-89584500D03*
%TD*%
D12*
%TO.N,GND*%
%TO.C,J1*%
X41080000Y-144192500D03*
D13*
X41080000Y-148372500D03*
D12*
X49720000Y-144192500D03*
D13*
X49720000Y-148372500D03*
%TD*%
D14*
%TO.N,SPK_P*%
%TO.C,J4*%
X46400000Y-15600000D03*
D15*
%TO.N,SPK_N*%
X48400000Y-15600000D03*
%TD*%
D14*
%TO.N,VBAT*%
%TO.C,J5*%
X28400000Y-111600000D03*
D15*
%TO.N,N$9*%
X30400000Y-111600000D03*
%TD*%
D16*
%TO.N,GND*%
%TO.C,U1*%
X12500000Y-47740000D03*
X12500000Y-49140000D03*
X13200000Y-47040000D03*
X13200000Y-48440000D03*
X13200000Y-49840000D03*
X13900000Y-47740000D03*
X13900000Y-49140000D03*
X14600000Y-47040000D03*
X14600000Y-48440000D03*
X14600000Y-49840000D03*
X15300000Y-47740000D03*
X15300000Y-49140000D03*
%TD*%
D17*
%TO.N,PG*%
X31341100Y-136252900D03*
X4272200Y-112744600D03*
%TO.N,+3V3*%
X4155900Y-114327500D03*
X47343700Y-62322300D03*
X22850000Y-15300200D03*
X46547500Y-72366500D03*
X16397100Y-102119900D03*
X9400000Y-107600000D03*
X36364500Y-110462900D03*
X25971800Y-141225000D03*
X21710700Y-111146300D03*
X4257900Y-111293700D03*
X2490000Y-101493900D03*
X49528000Y-101464300D03*
X8558100Y-111984500D03*
X21960500Y-104096600D03*
X25134500Y-104885600D03*
X15671400Y-122824700D03*
X7910600Y-41970600D03*
X30489400Y-103848300D03*
X4668700Y-106758500D03*
X19380300Y-124319300D03*
X36009700Y-136714700D03*
X42456400Y-110324600D03*
X15249000Y-105014900D03*
X50361700Y-72140600D03*
X3988600Y-116962000D03*
X17358700Y-108689300D03*
X20230200Y-140079000D03*
%TO.N,GND*%
X48600000Y-142591800D03*
X17149000Y-107384700D03*
X59006700Y-137025300D03*
X38264500Y-110450500D03*
X47038300Y-109839300D03*
X29082000Y-134508200D03*
X22670700Y-109608600D03*
X30321200Y-118428200D03*
X24762500Y-143188700D03*
X5237700Y-126919400D03*
X16985600Y-119087100D03*
X13887200Y-110528400D03*
X22666500Y-118879800D03*
X18680400Y-113949900D03*
X22839700Y-113023900D03*
X9143800Y-118909500D03*
X22426200Y-128608900D03*
X21280300Y-124336400D03*
X17072500Y-125939100D03*
X15650000Y-2707800D03*
X39933000Y-112752000D03*
X9573700Y-113303300D03*
X10604000Y-103820800D03*
X54033600Y-104443100D03*
X28196900Y-1242500D03*
X17357100Y-103693400D03*
X25050000Y-15306600D03*
X46610400Y-114315800D03*
X25957100Y-137325000D03*
X26094500Y-106428800D03*
X9370200Y-57113400D03*
X38696800Y-118075800D03*
X26094500Y-103733500D03*
X18461600Y-129638100D03*
X46343300Y-134572700D03*
X22920500Y-104131600D03*
X33958000Y-137069800D03*
X42366700Y-137701000D03*
X43010400Y-112371400D03*
X26355900Y-116850700D03*
X20256400Y-139022100D03*
X18894500Y-110073600D03*
X22839700Y-106673800D03*
X28198100Y-12177600D03*
X39072100Y-106412800D03*
X42200000Y-142586800D03*
X7869700Y-40460900D03*
X15624200Y-112938100D03*
X15756400Y-148545300D03*
X32389400Y-103820700D03*
X11320900Y-127698800D03*
X47518000Y-130468000D03*
X17040500Y-16167200D03*
X17571400Y-122844700D03*
X19037500Y-135999800D03*
X50358600Y-121758000D03*
X10665000Y-107123000D03*
X54455200Y-121766800D03*
X49908200Y-109496900D03*
X54743400Y-111047800D03*
X36800000Y-127091300D03*
X21861300Y-121945700D03*
X43664500Y-108086700D03*
X42571500Y-119233900D03*
%TO.N,HOLD_G*%
X11698600Y-116163700D03*
X41436900Y-112325900D03*
X40472600Y-54311700D03*
%TO.N,NAV_UP*%
X25979800Y-124261500D03*
X26350000Y-50576200D03*
%TO.N,NAV_DN*%
X24292900Y-124857700D03*
X22570700Y-50434000D03*
%TO.N,NAV_L*%
X25898400Y-51485800D03*
X24529400Y-127639800D03*
%TO.N,NAV_R*%
X21221900Y-56765600D03*
X35770700Y-121092500D03*
X38656300Y-62036000D03*
%TO.N,NAV_MID*%
X20800100Y-59750500D03*
X36712400Y-124350000D03*
X37399600Y-107408000D03*
%TO.N,N$6*%
X31043600Y-133711500D03*
X52613300Y-137663800D03*
X44436300Y-133762000D03*
%TO.N,DISP_BL*%
X8289600Y-49326100D03*
X40027000Y-40934300D03*
%TO.N,BL_G*%
X42250700Y-48180300D03*
X44005300Y-114324500D03*
%TO.N,VSYS*%
X34789600Y-129669900D03*
X38391900Y-121636100D03*
X12772400Y-115128100D03*
X55651800Y-114115700D03*
X23245300Y-119914400D03*
%TO.N,PWR_G*%
X43034200Y-106855100D03*
X10440000Y-115597400D03*
%TO.N,DISP_RST*%
X19253500Y-56806600D03*
%TO.N,DISP_DC*%
X21085400Y-60665900D03*
%TO.N,DISP_MOSI*%
X14247500Y-74999900D03*
%TO.N,N$28*%
X44129100Y-116503600D03*
X33261900Y-116076100D03*
%TO.N,TOUCH_SCL*%
X3225700Y-101003000D03*
X4787500Y-53512700D03*
%TO.N,TOUCH_SDA*%
X8285200Y-51439100D03*
X45477100Y-72531500D03*
%TO.N,N$15*%
X7750100Y-118123100D03*
X30460800Y-135572800D03*
X21555800Y-128537200D03*
%TO.N,N$1*%
X43764700Y-139673600D03*
X14070000Y-117320700D03*
X42151000Y-132971200D03*
%TO.N,N$3*%
X48318200Y-128602600D03*
X46357500Y-145682300D03*
%TO.N,N$4*%
X45431400Y-142486900D03*
X46387300Y-131789700D03*
%TO.N,N$2*%
X46264300Y-142314400D03*
X19816100Y-129411200D03*
%TO.N,N$26*%
X55357600Y-107199100D03*
X48798000Y-22764100D03*
%TO.N,N$22*%
X20542100Y-132787300D03*
X10399200Y-131556200D03*
%TO.N,AIN*%
X29265700Y-138801100D03*
X38701800Y-74999900D03*
%TO.N,N$13*%
X36316800Y-134505100D03*
X40059300Y-76025100D03*
%TO.N,N$14*%
X44441100Y-68950100D03*
X37183800Y-134635700D03*
%TO.N,USB_DP*%
X46836100Y-97726300D03*
X7161000Y-58570200D03*
X50361600Y-133000900D03*
%TO.N,USB_DM*%
X11514600Y-56242200D03*
X52400000Y-127821100D03*
X46093900Y-74999900D03*
%TO.N,EN*%
X4400000Y-42603800D03*
X1200000Y-104450900D03*
%TO.N,IO0*%
X22325400Y-56492000D03*
X21308300Y-114399000D03*
X49400000Y-115659300D03*
X6032400Y-110513400D03*
%TO.N,VBAT*%
X14598900Y-115795800D03*
X57587500Y-116231300D03*
X39837100Y-120583800D03*
X50428000Y-136960100D03*
%TO.N,N$21*%
X3378000Y-114481000D03*
X20683700Y-127736100D03*
%TO.N,I2S_WS*%
X23532300Y-138946400D03*
X10219100Y-45978900D03*
%TO.N,I2S_BCK*%
X7071300Y-132154000D03*
X25976500Y-138803300D03*
X8150000Y-44888200D03*
%TO.N,I2S_DATA*%
X13401600Y-54384200D03*
X23668400Y-134651600D03*
%TO.N,N$5*%
X43674200Y-133649800D03*
X8636700Y-117008000D03*
%TO.N,N$23*%
X23924700Y-130956800D03*
X8038100Y-130956800D03*
%TO.N,SD_MISO*%
X25900000Y-47270700D03*
X38050200Y-43568900D03*
X48299000Y-83835200D03*
X40401600Y-16884200D03*
X29225000Y-16884200D03*
%TO.N,N$9*%
X57968000Y-125066600D03*
X41436900Y-121141300D03*
%TO.N,SD_CS*%
X25950000Y-40032100D03*
X20600000Y-15200200D03*
X49400000Y-48494000D03*
%TO.N,N$27*%
X55885900Y-113302900D03*
X49999000Y-22651900D03*
%TO.N,N$25*%
X50778300Y-113790400D03*
X19539500Y-112816900D03*
%TO.N,SD_MOSI*%
X25900000Y-42623200D03*
X43232900Y-16097900D03*
X46400000Y-51439100D03*
X21927700Y-15315500D03*
%TO.N,AMP_EN*%
X45115200Y-83925900D03*
X8285200Y-53411200D03*
%TO.N,MIC_SCK*%
X8245800Y-101241200D03*
X7862200Y-48376900D03*
%TO.N,MIC_WS*%
X9940400Y-89725400D03*
X8049000Y-54564100D03*
%TO.N,VBAT_SENSE*%
X19750600Y-95374400D03*
X39390500Y-61209600D03*
X8325900Y-57230000D03*
%TO.N,SD_CLK*%
X40708300Y-40537400D03*
X26469500Y-41749200D03*
X40400000Y-15311600D03*
X26700000Y-15200200D03*
%TD*%
%TO.N,PG*%
D18*
X4272200Y-112744600D02*
X4272200Y-113498400D01*
X31341100Y-135431100D02*
X31341100Y-136252900D01*
X8363200Y-117589400D02*
X13499400Y-117589400D01*
X13499400Y-117589400D02*
X31341100Y-135431100D01*
X4272200Y-113498400D02*
X8363200Y-117589400D01*
%TO.N,HOLD_G*%
X18936400Y-112238500D02*
X22932600Y-112238500D01*
X14827400Y-116347500D02*
X18936400Y-112238500D01*
X22932600Y-112238500D02*
X23478800Y-112784700D01*
X11882400Y-116347500D02*
X14827400Y-116347500D01*
X41281000Y-112170000D02*
X41436900Y-112325900D01*
X23478800Y-112784700D02*
X34168700Y-112784700D01*
X11698600Y-116163700D02*
X11882400Y-116347500D01*
X34168700Y-112784700D02*
X34783400Y-112170000D01*
X34783400Y-112170000D02*
X41281000Y-112170000D01*
%TO.N,NAV_R*%
X26492300Y-62036000D02*
X21221900Y-56765600D01*
X38656300Y-62036000D02*
X26492300Y-62036000D01*
%TO.N,NAV_MID*%
X21773600Y-56488900D02*
X21488800Y-56204100D01*
X20670200Y-59620600D02*
X20800100Y-59750500D01*
X37399600Y-107297000D02*
X46053400Y-98643200D01*
X35104100Y-57703600D02*
X22756600Y-57703600D01*
X46735100Y-98643200D02*
X47387800Y-97990500D01*
X21488800Y-56204100D02*
X20931700Y-56204100D01*
X22756600Y-57703600D02*
X21773600Y-56720600D01*
X46053400Y-98643200D02*
X46735100Y-98643200D01*
X20670200Y-56465600D02*
X20670200Y-59620600D01*
X47387800Y-97990500D02*
X47387800Y-69987300D01*
X21773600Y-56720600D02*
X21773600Y-56488900D01*
X47387800Y-69987300D02*
X35104100Y-57703600D01*
X37399600Y-107408000D02*
X37399600Y-107297000D01*
X20931700Y-56204100D02*
X20670200Y-56465600D01*
%TO.N,N$6*%
X43961800Y-134236500D02*
X44436300Y-133762000D01*
X48338100Y-137663800D02*
X52613300Y-137663800D01*
X38797400Y-133711500D02*
X39322400Y-134236500D01*
X31043600Y-133711500D02*
X38797400Y-133711500D01*
X39322400Y-134236500D02*
X43961800Y-134236500D01*
X44436300Y-133762000D02*
X48338100Y-137663800D01*
%TO.N,DISP_BL*%
X16681400Y-40934300D02*
X8289600Y-49326100D01*
X40027000Y-40934300D02*
X16681400Y-40934300D01*
%TO.N,VSYS*%
X23245300Y-119914400D02*
X24624400Y-121293500D01*
X42448900Y-117182500D02*
X38391900Y-121239500D01*
X38391900Y-121239500D02*
X38391900Y-121636100D01*
X55651800Y-114115700D02*
X52585000Y-117182500D01*
X35542300Y-120540800D02*
X34789600Y-121293500D01*
X38391900Y-121636100D02*
X37296600Y-120540800D01*
X37296600Y-120540800D02*
X35542300Y-120540800D01*
X24624400Y-121293500D02*
X34789600Y-121293500D01*
X34789600Y-121293500D02*
X34789600Y-129669900D01*
X52585000Y-117182500D02*
X42448900Y-117182500D01*
%TO.N,PWR_G*%
X19134100Y-107986300D02*
X11523100Y-115597300D01*
X43034200Y-106855100D02*
X41903000Y-107986300D01*
X11523100Y-115597300D02*
X11523100Y-115597400D01*
X41903000Y-107986300D02*
X19134100Y-107986300D01*
X11523100Y-115597400D02*
X10440000Y-115597400D01*
%TO.N,DISP_RST*%
X20563500Y-88471700D02*
X19450700Y-89584500D01*
X36117900Y-88471700D02*
X20563500Y-88471700D01*
X37230700Y-89584500D02*
X36117900Y-88471700D01*
%TO.N,DISP_MOSI*%
X18180800Y-89918800D02*
X18955400Y-90693400D01*
X18180800Y-78933200D02*
X18180800Y-89918800D01*
X23421800Y-90693400D02*
X24530700Y-89584500D01*
X18955400Y-90693400D02*
X23421800Y-90693400D01*
X14247500Y-74999900D02*
X18180800Y-78933200D01*
%TO.N,N$28*%
X33261900Y-116076100D02*
X43701600Y-116076100D01*
X43701600Y-116076100D02*
X44129100Y-116503600D01*
%TO.N,TOUCH_SCL*%
X3225700Y-101003000D02*
X6033400Y-98195300D01*
X6033400Y-98195300D02*
X26079900Y-98195300D01*
X26079900Y-98195300D02*
X34690700Y-89584500D01*
%TO.N,TOUCH_SDA*%
X7733500Y-53639600D02*
X8106200Y-54012300D01*
X45477100Y-72531500D02*
X29386200Y-72531500D01*
X8106200Y-54012300D02*
X8326100Y-54012300D01*
X7733500Y-53182800D02*
X7733500Y-53639600D01*
X8285200Y-52859500D02*
X8056800Y-52859500D01*
X8285200Y-52859500D02*
X8285200Y-51439100D01*
X29386200Y-72531500D02*
X9714200Y-52859500D01*
X9714200Y-52859500D02*
X8285200Y-52859500D01*
X8326100Y-54012300D02*
X39770700Y-85456900D01*
X39770700Y-85456900D02*
X39770700Y-89584500D01*
X8056800Y-52859500D02*
X7733500Y-53182800D01*
%TO.N,N$15*%
X21555800Y-127782300D02*
X21555800Y-128018800D01*
X7750100Y-118123100D02*
X11896600Y-118123100D01*
X30460800Y-135105100D02*
X30460800Y-135572800D01*
X23374500Y-128018800D02*
X30460800Y-135105100D01*
X21555800Y-128018800D02*
X21555800Y-128537200D01*
X21555800Y-128018800D02*
X23374500Y-128018800D01*
X11896600Y-118123100D02*
X21555800Y-127782300D01*
%TO.N,N$1*%
X30885400Y-132971200D02*
X17761900Y-119847700D01*
X17761900Y-119847700D02*
X16597000Y-119847700D01*
X42151000Y-132971200D02*
X30885400Y-132971200D01*
X16597000Y-119847700D02*
X14070000Y-117320700D01*
%TO.N,N$2*%
X35154800Y-141393000D02*
X23173000Y-129411200D01*
X45342900Y-141393000D02*
X35154800Y-141393000D01*
X23173000Y-129411200D02*
X19816100Y-129411200D01*
X46264300Y-142314400D02*
X45342900Y-141393000D01*
%TO.N,N$22*%
X19311000Y-131556200D02*
X10399200Y-131556200D01*
X20542100Y-132787300D02*
X19311000Y-131556200D01*
%TO.N,USB_DP*%
X7790000Y-58570200D02*
X7161000Y-58570200D01*
X46350000Y-97726300D02*
X38500700Y-89877000D01*
X38500700Y-89877000D02*
X38500700Y-89280900D01*
X46836100Y-97726300D02*
X46350000Y-97726300D01*
X38500700Y-89280900D02*
X7790000Y-58570200D01*
%TO.N,USB_DM*%
X11514600Y-56242200D02*
X28838400Y-73566000D01*
X28838400Y-73566000D02*
X44660000Y-73566000D01*
X44660000Y-73566000D02*
X46093900Y-74999900D01*
%TO.N,IO0*%
X49265100Y-115524400D02*
X22433700Y-115524400D01*
X22433700Y-115524400D02*
X21308300Y-114399000D01*
X49400000Y-115659300D02*
X49265100Y-115524400D01*
%TO.N,VBAT*%
X57587500Y-116231300D02*
X53235000Y-120583800D01*
X18696700Y-111698000D02*
X14598900Y-115795800D01*
X50428000Y-136960100D02*
X39837100Y-126369200D01*
X28302000Y-111698000D02*
X18696700Y-111698000D01*
X28400000Y-111600000D02*
X28302000Y-111698000D01*
X39837100Y-126369200D02*
X39837100Y-120583800D01*
X53235000Y-120583800D02*
X39837100Y-120583800D01*
%TO.N,N$21*%
X3378000Y-114481000D02*
X3378000Y-114531100D01*
X16583000Y-127736100D02*
X20683700Y-127736100D01*
X3378000Y-114531100D02*
X16583000Y-127736100D01*
%TO.N,I2S_BCK*%
X25778000Y-138803300D02*
X25976500Y-138803300D01*
X19128700Y-132154000D02*
X25778000Y-138803300D01*
X7071300Y-132154000D02*
X19128700Y-132154000D01*
%TO.N,N$5*%
X15880800Y-116769000D02*
X8875700Y-116769000D01*
X24521400Y-124306000D02*
X23417800Y-124306000D01*
X30437000Y-130221600D02*
X24521400Y-124306000D01*
X40246000Y-130221600D02*
X30437000Y-130221600D01*
X23417800Y-124306000D02*
X15880800Y-116769000D01*
X43674200Y-133649800D02*
X40246000Y-130221600D01*
X8875700Y-116769000D02*
X8636700Y-117008000D01*
%TO.N,N$23*%
X8038100Y-130956800D02*
X23924700Y-130956800D01*
%TO.N,SD_MISO*%
X29225000Y-16884200D02*
X40401600Y-16884200D01*
X48299000Y-61221300D02*
X34348400Y-47270700D01*
X38050200Y-43568900D02*
X34348400Y-47270700D01*
X34348400Y-47270700D02*
X25900000Y-47270700D01*
X48299000Y-83835200D02*
X48299000Y-61221300D01*
%TO.N,N$9*%
X57968000Y-125066600D02*
X45362200Y-125066600D01*
X45362200Y-125066600D02*
X41436900Y-121141300D01*
%TO.N,SD_CS*%
X39709100Y-18129500D02*
X39709100Y-39985700D01*
X40936800Y-39985700D02*
X39709100Y-39985700D01*
X39412100Y-17832500D02*
X39709100Y-18129500D01*
X49400000Y-48494000D02*
X49400000Y-48448900D01*
X23232300Y-17832500D02*
X39412100Y-17832500D01*
X20600000Y-15200200D02*
X23232300Y-17832500D01*
X49400000Y-48448900D02*
X40936800Y-39985700D01*
X39709100Y-39985700D02*
X39662700Y-40032100D01*
X39662700Y-40032100D02*
X25950000Y-40032100D01*
%TO.N,N$25*%
X50778300Y-113790400D02*
X50752000Y-113764100D01*
X50752000Y-113764100D02*
X20486700Y-113764100D01*
X20486700Y-113764100D02*
X19539500Y-112816900D01*
%TO.N,SD_MOSI*%
X37978100Y-43017200D02*
X37584100Y-42623200D01*
X38601900Y-43641000D02*
X38601900Y-43340400D01*
X38601900Y-43340400D02*
X38278700Y-43017200D01*
X43232900Y-16097900D02*
X22710100Y-16097900D01*
X22710100Y-16097900D02*
X21927700Y-15315500D01*
X37584100Y-42623200D02*
X25900000Y-42623200D01*
X46400000Y-51439100D02*
X38601900Y-43641000D01*
X38278700Y-43017200D02*
X37978100Y-43017200D01*
%TO.N,AMP_EN*%
X46322400Y-75551600D02*
X46645600Y-75228400D01*
X46322300Y-82718800D02*
X46322300Y-75551600D01*
X46645600Y-74696000D02*
X45032900Y-73083300D01*
X46322300Y-75551600D02*
X46322400Y-75551600D01*
X45032900Y-73083300D02*
X29440600Y-73083300D01*
X29440600Y-73083300D02*
X9768500Y-53411200D01*
X45115200Y-83925900D02*
X46322300Y-82718800D01*
X9768500Y-53411200D02*
X8285200Y-53411200D01*
X46645600Y-75228400D02*
X46645600Y-74696000D01*
%TO.N,VBAT_SENSE*%
X6603300Y-68843100D02*
X6603300Y-58341000D01*
X31962900Y-53782000D02*
X11774600Y-53782000D01*
X8040200Y-50868300D02*
X7381800Y-51526700D01*
X7381800Y-51526700D02*
X7381800Y-56285900D01*
X8860900Y-50868300D02*
X8040200Y-50868300D01*
X7381800Y-56285900D02*
X8020100Y-56924200D01*
X15640700Y-91264500D02*
X15640700Y-77880500D01*
X8020100Y-56924200D02*
X8325900Y-57230000D01*
X19750600Y-95374400D02*
X15640700Y-91264500D01*
X6603300Y-58341000D02*
X8020100Y-56924200D01*
X15640700Y-77880500D02*
X6603300Y-68843100D01*
X39390500Y-61209600D02*
X31962900Y-53782000D01*
X11774600Y-53782000D02*
X8860900Y-50868300D01*
%TO.N,SD_CLK*%
X40708300Y-41052500D02*
X40708300Y-40537400D01*
X40288600Y-15200200D02*
X40400000Y-15311600D01*
X40011600Y-41749200D02*
X40708300Y-41052500D01*
X26700000Y-15200200D02*
X40288600Y-15200200D01*
X26469500Y-41749200D02*
X40011600Y-41749200D01*
%TD*%
%TA.AperFunction,Conductor*%
%TO.N,GND*%
G36*
X60772080Y-501128D02*
G01*
X61177580Y-554360D01*
X61196307Y-559380D01*
X61538357Y-701310D01*
X61555070Y-710972D01*
X61602428Y-747349D01*
X61849363Y-937023D01*
X61862972Y-950631D01*
X62089025Y-1244926D01*
X62098689Y-1261643D01*
X62240619Y-1603695D01*
X62245639Y-1622424D01*
X62298870Y-2027910D01*
X62299500Y-2037542D01*
X62299500Y-147962456D01*
X62298870Y-147972088D01*
X62245639Y-148377574D01*
X62240619Y-148396303D01*
X62098689Y-148738355D01*
X62089025Y-148755072D01*
X61862972Y-149049367D01*
X61849363Y-149062975D01*
X61555071Y-149289025D01*
X61538355Y-149298689D01*
X61196304Y-149440619D01*
X61177575Y-149445639D01*
X60772088Y-149498870D01*
X60762456Y-149499500D01*
X2037543Y-149499500D01*
X2027911Y-149498870D01*
X1622424Y-149445639D01*
X1603695Y-149440619D01*
X1261643Y-149298689D01*
X1244926Y-149289025D01*
X950631Y-149062972D01*
X937023Y-149049363D01*
X710973Y-148755071D01*
X701309Y-148738355D01*
X689463Y-148709807D01*
X559380Y-148396307D01*
X554360Y-148377579D01*
X554359Y-148377574D01*
X501129Y-147972080D01*
X500500Y-147962448D01*
X500500Y-145616405D01*
X45857000Y-145616405D01*
X45857000Y-145748194D01*
X45891106Y-145875481D01*
X45891107Y-145875484D01*
X45891108Y-145875486D01*
X45957000Y-145989614D01*
X46050186Y-146082800D01*
X46164314Y-146148692D01*
X46291605Y-146182799D01*
X46291606Y-146182800D01*
X46291608Y-146182800D01*
X46423394Y-146182800D01*
X46423394Y-146182799D01*
X46550686Y-146148692D01*
X46664814Y-146082800D01*
X46758000Y-145989614D01*
X46823892Y-145875486D01*
X46857999Y-145748194D01*
X46858000Y-145748194D01*
X46858000Y-145616406D01*
X46857999Y-145616405D01*
X46823893Y-145489118D01*
X46823892Y-145489114D01*
X46758000Y-145374986D01*
X46664814Y-145281800D01*
X46640910Y-145267999D01*
X46550690Y-145215910D01*
X46550681Y-145215906D01*
X46423394Y-145181800D01*
X46423392Y-145181800D01*
X46291608Y-145181800D01*
X46291606Y-145181800D01*
X46164318Y-145215906D01*
X46164309Y-145215910D01*
X46050185Y-145281800D01*
X45957000Y-145374985D01*
X45891110Y-145489109D01*
X45891106Y-145489118D01*
X45857000Y-145616405D01*
X500500Y-145616405D01*
X500500Y-144616731D01*
X41934500Y-144616731D01*
X41934500Y-144768268D01*
X41973717Y-144914630D01*
X41973718Y-144914633D01*
X41973719Y-144914635D01*
X42049485Y-145045865D01*
X42156635Y-145153015D01*
X42287865Y-145228781D01*
X42434231Y-145267999D01*
X42434232Y-145268000D01*
X42434234Y-145268000D01*
X42585768Y-145268000D01*
X42585768Y-145267999D01*
X42732135Y-145228781D01*
X42863365Y-145153015D01*
X42970515Y-145045865D01*
X43046281Y-144914635D01*
X43085499Y-144768268D01*
X43085500Y-144768268D01*
X43085500Y-144616732D01*
X43085499Y-144616731D01*
X47714500Y-144616731D01*
X47714500Y-144768268D01*
X47753717Y-144914630D01*
X47753718Y-144914633D01*
X47753719Y-144914635D01*
X47829485Y-145045865D01*
X47936635Y-145153015D01*
X48067865Y-145228781D01*
X48214231Y-145267999D01*
X48214232Y-145268000D01*
X48214234Y-145268000D01*
X48365768Y-145268000D01*
X48365768Y-145267999D01*
X48512135Y-145228781D01*
X48643365Y-145153015D01*
X48750515Y-145045865D01*
X48826281Y-144914635D01*
X48865499Y-144768268D01*
X48865500Y-144768268D01*
X48865500Y-144616732D01*
X48865499Y-144616731D01*
X48826282Y-144470369D01*
X48826281Y-144470365D01*
X48750515Y-144339135D01*
X48643365Y-144231985D01*
X48643362Y-144231983D01*
X48512139Y-144156221D01*
X48512130Y-144156217D01*
X48365768Y-144117000D01*
X48365766Y-144117000D01*
X48214234Y-144117000D01*
X48214232Y-144117000D01*
X48067869Y-144156217D01*
X48067860Y-144156221D01*
X47936637Y-144231983D01*
X47829483Y-144339137D01*
X47753721Y-144470360D01*
X47753717Y-144470369D01*
X47714500Y-144616731D01*
X43085499Y-144616731D01*
X43046282Y-144470369D01*
X43046281Y-144470365D01*
X42970515Y-144339135D01*
X42863365Y-144231985D01*
X42863362Y-144231983D01*
X42732139Y-144156221D01*
X42732130Y-144156217D01*
X42585768Y-144117000D01*
X42585766Y-144117000D01*
X42434234Y-144117000D01*
X42434232Y-144117000D01*
X42287869Y-144156217D01*
X42287860Y-144156221D01*
X42156637Y-144231983D01*
X42049483Y-144339137D01*
X41973721Y-144470360D01*
X41973717Y-144470369D01*
X41934500Y-144616731D01*
X500500Y-144616731D01*
X500500Y-140951459D01*
X9399500Y-140951459D01*
X9399500Y-141148541D01*
X9401602Y-141159106D01*
X9437947Y-141341829D01*
X9437950Y-141341839D01*
X9513367Y-141523913D01*
X9622860Y-141687781D01*
X9762218Y-141827139D01*
X9926086Y-141936632D01*
X10046237Y-141986400D01*
X10108165Y-142012051D01*
X10301459Y-142050500D01*
X10301461Y-142050500D01*
X10498539Y-142050500D01*
X10498541Y-142050500D01*
X10691835Y-142012051D01*
X10873914Y-141936632D01*
X11037782Y-141827139D01*
X11177139Y-141687782D01*
X11286632Y-141523914D01*
X11362051Y-141341835D01*
X11398399Y-141159105D01*
X25471300Y-141159105D01*
X25471300Y-141290894D01*
X25505406Y-141418181D01*
X25505407Y-141418184D01*
X25505408Y-141418186D01*
X25571300Y-141532314D01*
X25664486Y-141625500D01*
X25778614Y-141691392D01*
X25905905Y-141725499D01*
X25905906Y-141725500D01*
X25905908Y-141725500D01*
X26037694Y-141725500D01*
X26037694Y-141725499D01*
X26164986Y-141691392D01*
X26279114Y-141625500D01*
X26372300Y-141532314D01*
X26438192Y-141418186D01*
X26472299Y-141290894D01*
X26472300Y-141290894D01*
X26472300Y-141159106D01*
X26472299Y-141159105D01*
X26469468Y-141148541D01*
X26438192Y-141031814D01*
X26372300Y-140917686D01*
X26279114Y-140824500D01*
X26164990Y-140758610D01*
X26164981Y-140758606D01*
X26037694Y-140724500D01*
X26037692Y-140724500D01*
X25905908Y-140724500D01*
X25905906Y-140724500D01*
X25778618Y-140758606D01*
X25778609Y-140758610D01*
X25664485Y-140824500D01*
X25571300Y-140917685D01*
X25505410Y-141031809D01*
X25505406Y-141031818D01*
X25471300Y-141159105D01*
X11398399Y-141159105D01*
X11400500Y-141148541D01*
X11400500Y-140951459D01*
X11362051Y-140758165D01*
X11286632Y-140576086D01*
X11177139Y-140412218D01*
X11037782Y-140272861D01*
X11036765Y-140272181D01*
X10873913Y-140163367D01*
X10691839Y-140087950D01*
X10691829Y-140087947D01*
X10656076Y-140080836D01*
X10622207Y-140074099D01*
X10498541Y-140049500D01*
X10301459Y-140049500D01*
X10246662Y-140060399D01*
X10108170Y-140087947D01*
X10108160Y-140087950D01*
X9926086Y-140163367D01*
X9762218Y-140272860D01*
X9762217Y-140272862D01*
X9622862Y-140412217D01*
X9622860Y-140412218D01*
X9513367Y-140576086D01*
X9437950Y-140758160D01*
X9437947Y-140758170D01*
X9406218Y-140917685D01*
X9399500Y-140951459D01*
X500500Y-140951459D01*
X500500Y-140013105D01*
X19729700Y-140013105D01*
X19729700Y-140144894D01*
X19763806Y-140272181D01*
X19763810Y-140272190D01*
X19764198Y-140272862D01*
X19829700Y-140386314D01*
X19922886Y-140479500D01*
X20037014Y-140545392D01*
X20164305Y-140579499D01*
X20164306Y-140579500D01*
X20164308Y-140579500D01*
X20296094Y-140579500D01*
X20296094Y-140579499D01*
X20423386Y-140545392D01*
X20537514Y-140479500D01*
X20630700Y-140386314D01*
X20696592Y-140272186D01*
X20730699Y-140144894D01*
X20730700Y-140144894D01*
X20730700Y-140013106D01*
X20730699Y-140013105D01*
X20696593Y-139885818D01*
X20696592Y-139885814D01*
X20630700Y-139771686D01*
X20537514Y-139678500D01*
X20423390Y-139612610D01*
X20423381Y-139612606D01*
X20296094Y-139578500D01*
X20296092Y-139578500D01*
X20164308Y-139578500D01*
X20164306Y-139578500D01*
X20037018Y-139612606D01*
X20037009Y-139612610D01*
X19922885Y-139678500D01*
X19829700Y-139771685D01*
X19763810Y-139885809D01*
X19763806Y-139885818D01*
X19729700Y-140013105D01*
X500500Y-140013105D01*
X500500Y-138880505D01*
X23031800Y-138880505D01*
X23031800Y-139012294D01*
X23065906Y-139139581D01*
X23065910Y-139139590D01*
X23104950Y-139207208D01*
X23131800Y-139253714D01*
X23224986Y-139346900D01*
X23339114Y-139412792D01*
X23466405Y-139446899D01*
X23466406Y-139446900D01*
X23466408Y-139446900D01*
X23598194Y-139446900D01*
X23598194Y-139446899D01*
X23725486Y-139412792D01*
X23839614Y-139346900D01*
X23932800Y-139253714D01*
X23998692Y-139139586D01*
X24032799Y-139012294D01*
X24032800Y-139012294D01*
X24032800Y-138880506D01*
X24032799Y-138880505D01*
X23998693Y-138753218D01*
X23998692Y-138753214D01*
X23932800Y-138639086D01*
X23839614Y-138545900D01*
X23753159Y-138495985D01*
X23725490Y-138480010D01*
X23725481Y-138480006D01*
X23598194Y-138445900D01*
X23598192Y-138445900D01*
X23466408Y-138445900D01*
X23466406Y-138445900D01*
X23339118Y-138480006D01*
X23339109Y-138480010D01*
X23224985Y-138545900D01*
X23131800Y-138639085D01*
X23065910Y-138753209D01*
X23065906Y-138753218D01*
X23031800Y-138880505D01*
X500500Y-138880505D01*
X500500Y-116896105D01*
X3488100Y-116896105D01*
X3488100Y-117027894D01*
X3522206Y-117155181D01*
X3522210Y-117155190D01*
X3545626Y-117195747D01*
X3588100Y-117269314D01*
X3681286Y-117362500D01*
X3795414Y-117428392D01*
X3922705Y-117462499D01*
X3922706Y-117462500D01*
X3922708Y-117462500D01*
X4054494Y-117462500D01*
X4054494Y-117462499D01*
X4181786Y-117428392D01*
X4295914Y-117362500D01*
X4389100Y-117269314D01*
X4454992Y-117155186D01*
X4489099Y-117027894D01*
X4489100Y-117027894D01*
X4489100Y-116896106D01*
X4489099Y-116896105D01*
X4467317Y-116814814D01*
X4454992Y-116768814D01*
X4389100Y-116654686D01*
X4295914Y-116561500D01*
X4261457Y-116541606D01*
X4181790Y-116495610D01*
X4181781Y-116495606D01*
X4054494Y-116461500D01*
X4054492Y-116461500D01*
X3922708Y-116461500D01*
X3922706Y-116461500D01*
X3795418Y-116495606D01*
X3795409Y-116495610D01*
X3681285Y-116561500D01*
X3588100Y-116654685D01*
X3522210Y-116768809D01*
X3522206Y-116768818D01*
X3488100Y-116896105D01*
X500500Y-116896105D01*
X500500Y-111918605D01*
X8057600Y-111918605D01*
X8057600Y-112050394D01*
X8091706Y-112177681D01*
X8091707Y-112177684D01*
X8091708Y-112177686D01*
X8157600Y-112291814D01*
X8250786Y-112385000D01*
X8364914Y-112450892D01*
X8492205Y-112484999D01*
X8492206Y-112485000D01*
X8492208Y-112485000D01*
X8623994Y-112485000D01*
X8623994Y-112484999D01*
X8751286Y-112450892D01*
X8865414Y-112385000D01*
X8958600Y-112291814D01*
X9024492Y-112177686D01*
X9058599Y-112050394D01*
X9058600Y-112050394D01*
X9058600Y-111918606D01*
X9058599Y-111918605D01*
X9024493Y-111791318D01*
X9024492Y-111791314D01*
X8958600Y-111677186D01*
X8865414Y-111584000D01*
X8751290Y-111518110D01*
X8751281Y-111518106D01*
X8623994Y-111484000D01*
X8623992Y-111484000D01*
X8492208Y-111484000D01*
X8492206Y-111484000D01*
X8364918Y-111518106D01*
X8364909Y-111518110D01*
X8250785Y-111584000D01*
X8157600Y-111677185D01*
X8091710Y-111791309D01*
X8091706Y-111791318D01*
X8057600Y-111918605D01*
X500500Y-111918605D01*
X500500Y-111227805D01*
X3757400Y-111227805D01*
X3757400Y-111359594D01*
X3791506Y-111486881D01*
X3791507Y-111486884D01*
X3791508Y-111486886D01*
X3857400Y-111601014D01*
X3950586Y-111694200D01*
X4064714Y-111760092D01*
X4192005Y-111794199D01*
X4192006Y-111794200D01*
X4192008Y-111794200D01*
X4323794Y-111794200D01*
X4323794Y-111794199D01*
X4451086Y-111760092D01*
X4565214Y-111694200D01*
X4658400Y-111601014D01*
X4724292Y-111486886D01*
X4758399Y-111359594D01*
X4758400Y-111359594D01*
X4758400Y-111227806D01*
X4758399Y-111227805D01*
X4724293Y-111100518D01*
X4724292Y-111100514D01*
X4658400Y-110986386D01*
X4565214Y-110893200D01*
X4513599Y-110863400D01*
X4451090Y-110827310D01*
X4451081Y-110827306D01*
X4323794Y-110793200D01*
X4323792Y-110793200D01*
X4192008Y-110793200D01*
X4192006Y-110793200D01*
X4064718Y-110827306D01*
X4064709Y-110827310D01*
X3950585Y-110893200D01*
X3857400Y-110986385D01*
X3791510Y-111100509D01*
X3791506Y-111100518D01*
X3757400Y-111227805D01*
X500500Y-111227805D01*
X500500Y-110447505D01*
X5531900Y-110447505D01*
X5531900Y-110579294D01*
X5566006Y-110706581D01*
X5566010Y-110706590D01*
X5616015Y-110793200D01*
X5631900Y-110820714D01*
X5725086Y-110913900D01*
X5839214Y-110979792D01*
X5966505Y-111013899D01*
X5966506Y-111013900D01*
X5966508Y-111013900D01*
X6098294Y-111013900D01*
X6098294Y-111013899D01*
X6225586Y-110979792D01*
X6339714Y-110913900D01*
X6432900Y-110820714D01*
X6498792Y-110706586D01*
X6532899Y-110579294D01*
X6532900Y-110579294D01*
X6532900Y-110447506D01*
X6532899Y-110447505D01*
X6504048Y-110339832D01*
X6498792Y-110320214D01*
X6432900Y-110206086D01*
X6339714Y-110112900D01*
X6252246Y-110062400D01*
X6225590Y-110047010D01*
X6225581Y-110047006D01*
X6098294Y-110012900D01*
X6098292Y-110012900D01*
X5966508Y-110012900D01*
X5966506Y-110012900D01*
X5839218Y-110047006D01*
X5839209Y-110047010D01*
X5725085Y-110112900D01*
X5631900Y-110206085D01*
X5566010Y-110320209D01*
X5566006Y-110320218D01*
X5531900Y-110447505D01*
X500500Y-110447505D01*
X500500Y-107534105D01*
X8899500Y-107534105D01*
X8899500Y-107665894D01*
X8933606Y-107793181D01*
X8933607Y-107793184D01*
X8933608Y-107793186D01*
X8999500Y-107907314D01*
X9092686Y-108000500D01*
X9206814Y-108066392D01*
X9334105Y-108100499D01*
X9334106Y-108100500D01*
X9334108Y-108100500D01*
X9465894Y-108100500D01*
X9465894Y-108100499D01*
X9593186Y-108066392D01*
X9707314Y-108000500D01*
X9800500Y-107907314D01*
X9866392Y-107793186D01*
X9900499Y-107665894D01*
X9900500Y-107665894D01*
X9900500Y-107534106D01*
X9900499Y-107534105D01*
X9866393Y-107406818D01*
X9866392Y-107406814D01*
X9800500Y-107292686D01*
X9707314Y-107199500D01*
X9593190Y-107133610D01*
X9593181Y-107133606D01*
X9465894Y-107099500D01*
X9465892Y-107099500D01*
X9334108Y-107099500D01*
X9334106Y-107099500D01*
X9206818Y-107133606D01*
X9206809Y-107133610D01*
X9092685Y-107199500D01*
X8999500Y-107292685D01*
X8933610Y-107406809D01*
X8933606Y-107406818D01*
X8899500Y-107534105D01*
X500500Y-107534105D01*
X500500Y-106692605D01*
X4168200Y-106692605D01*
X4168200Y-106824394D01*
X4202306Y-106951681D01*
X4202310Y-106951690D01*
X4233619Y-107005918D01*
X4268200Y-107065814D01*
X4361386Y-107159000D01*
X4475514Y-107224892D01*
X4602805Y-107258999D01*
X4602806Y-107259000D01*
X4602808Y-107259000D01*
X4734594Y-107259000D01*
X4734594Y-107258999D01*
X4861886Y-107224892D01*
X4976014Y-107159000D01*
X5069200Y-107065814D01*
X5135092Y-106951686D01*
X5169199Y-106824394D01*
X5169200Y-106824394D01*
X5169200Y-106692606D01*
X5169199Y-106692605D01*
X5160975Y-106661914D01*
X5135092Y-106565314D01*
X5069200Y-106451186D01*
X4976014Y-106358000D01*
X4970125Y-106354600D01*
X4861890Y-106292110D01*
X4861881Y-106292106D01*
X4734594Y-106258000D01*
X4734592Y-106258000D01*
X4602808Y-106258000D01*
X4602806Y-106258000D01*
X4475518Y-106292106D01*
X4475509Y-106292110D01*
X4361385Y-106358000D01*
X4268200Y-106451185D01*
X4202310Y-106565309D01*
X4202306Y-106565318D01*
X4168200Y-106692605D01*
X500500Y-106692605D01*
X500500Y-105433940D01*
X8799500Y-105433940D01*
X8799500Y-105592059D01*
X8840421Y-105744779D01*
X8840422Y-105744781D01*
X8840423Y-105744784D01*
X8919480Y-105881716D01*
X9031284Y-105993520D01*
X9168216Y-106072577D01*
X9320940Y-106113499D01*
X9320941Y-106113500D01*
X9320943Y-106113500D01*
X9479059Y-106113500D01*
X9479059Y-106113499D01*
X9631784Y-106072577D01*
X9768716Y-105993520D01*
X9880520Y-105881716D01*
X9959577Y-105744784D01*
X10000499Y-105592059D01*
X10000500Y-105592059D01*
X10000500Y-105433941D01*
X10000499Y-105433940D01*
X9987680Y-105386100D01*
X9959577Y-105281216D01*
X9880520Y-105144284D01*
X9768716Y-105032480D01*
X9631784Y-104953423D01*
X9631779Y-104953421D01*
X9615298Y-104949005D01*
X14748500Y-104949005D01*
X14748500Y-105080794D01*
X14782606Y-105208081D01*
X14782610Y-105208090D01*
X14848500Y-105322214D01*
X14941686Y-105415400D01*
X15055814Y-105481292D01*
X15183105Y-105515399D01*
X15183106Y-105515400D01*
X15183108Y-105515400D01*
X15314894Y-105515400D01*
X15314894Y-105515399D01*
X15442186Y-105481292D01*
X15556314Y-105415400D01*
X15649500Y-105322214D01*
X15715392Y-105208086D01*
X15749499Y-105080794D01*
X15749500Y-105080794D01*
X15749500Y-104949006D01*
X15749499Y-104949005D01*
X15718687Y-104834011D01*
X15718686Y-104834010D01*
X15715392Y-104821714D01*
X15714232Y-104819705D01*
X24634000Y-104819705D01*
X24634000Y-104951494D01*
X24668106Y-105078781D01*
X24668107Y-105078784D01*
X24668108Y-105078786D01*
X24734000Y-105192914D01*
X24827186Y-105286100D01*
X24941314Y-105351992D01*
X25068605Y-105386099D01*
X25068606Y-105386100D01*
X25068608Y-105386100D01*
X25200394Y-105386100D01*
X25200394Y-105386099D01*
X25327686Y-105351992D01*
X25441814Y-105286100D01*
X25535000Y-105192914D01*
X25600892Y-105078786D01*
X25634999Y-104951494D01*
X25635000Y-104951494D01*
X25635000Y-104819706D01*
X25634999Y-104819705D01*
X25600893Y-104692418D01*
X25600892Y-104692414D01*
X25535000Y-104578286D01*
X25441814Y-104485100D01*
X25327690Y-104419210D01*
X25327681Y-104419206D01*
X25200394Y-104385100D01*
X25200392Y-104385100D01*
X25068608Y-104385100D01*
X25068606Y-104385100D01*
X24941318Y-104419206D01*
X24941309Y-104419210D01*
X24827185Y-104485100D01*
X24734000Y-104578285D01*
X24668110Y-104692409D01*
X24668106Y-104692418D01*
X24634000Y-104819705D01*
X15714232Y-104819705D01*
X15649500Y-104707586D01*
X15556314Y-104614400D01*
X15467268Y-104562989D01*
X15442190Y-104548510D01*
X15442181Y-104548506D01*
X15314894Y-104514400D01*
X15314892Y-104514400D01*
X15183108Y-104514400D01*
X15183106Y-104514400D01*
X15055818Y-104548506D01*
X15055809Y-104548510D01*
X14941685Y-104614400D01*
X14848500Y-104707585D01*
X14782610Y-104821709D01*
X14782606Y-104821718D01*
X14748500Y-104949005D01*
X9615298Y-104949005D01*
X9479059Y-104912500D01*
X9479057Y-104912500D01*
X9320943Y-104912500D01*
X9320941Y-104912500D01*
X9168220Y-104953421D01*
X9168214Y-104953424D01*
X9031283Y-105032480D01*
X8919480Y-105144283D01*
X8840424Y-105281214D01*
X8840421Y-105281220D01*
X8799500Y-105433940D01*
X500500Y-105433940D01*
X500500Y-104385005D01*
X699500Y-104385005D01*
X699500Y-104516794D01*
X733606Y-104644081D01*
X733610Y-104644090D01*
X770269Y-104707585D01*
X799500Y-104758214D01*
X892686Y-104851400D01*
X1006814Y-104917292D01*
X1134105Y-104951399D01*
X1134106Y-104951400D01*
X1134108Y-104951400D01*
X1265894Y-104951400D01*
X1265894Y-104951399D01*
X1393186Y-104917292D01*
X1507314Y-104851400D01*
X1600500Y-104758214D01*
X1666392Y-104644086D01*
X1700499Y-104516794D01*
X1700500Y-104516794D01*
X1700500Y-104385006D01*
X1700499Y-104385005D01*
X1674985Y-104289786D01*
X1666392Y-104257714D01*
X1600500Y-104143586D01*
X1507314Y-104050400D01*
X1473202Y-104030705D01*
X21460000Y-104030705D01*
X21460000Y-104162494D01*
X21494106Y-104289781D01*
X21494110Y-104289790D01*
X21508488Y-104314693D01*
X21560000Y-104403914D01*
X21653186Y-104497100D01*
X21767314Y-104562992D01*
X21894605Y-104597099D01*
X21894606Y-104597100D01*
X21894608Y-104597100D01*
X22026394Y-104597100D01*
X22026394Y-104597099D01*
X22153686Y-104562992D01*
X22267814Y-104497100D01*
X22361000Y-104403914D01*
X22426892Y-104289786D01*
X22460999Y-104162494D01*
X22461000Y-104162494D01*
X22461000Y-104030706D01*
X22460999Y-104030705D01*
X22426893Y-103903418D01*
X22426892Y-103903414D01*
X22361000Y-103789286D01*
X22354119Y-103782405D01*
X29988900Y-103782405D01*
X29988900Y-103914194D01*
X30023006Y-104041481D01*
X30023010Y-104041490D01*
X30081955Y-104143585D01*
X30088900Y-104155614D01*
X30182086Y-104248800D01*
X30296214Y-104314692D01*
X30423505Y-104348799D01*
X30423506Y-104348800D01*
X30423508Y-104348800D01*
X30555294Y-104348800D01*
X30555294Y-104348799D01*
X30682586Y-104314692D01*
X30796714Y-104248800D01*
X30889900Y-104155614D01*
X30955792Y-104041486D01*
X30989899Y-103914194D01*
X30989900Y-103914194D01*
X30989900Y-103782406D01*
X30989899Y-103782405D01*
X30955793Y-103655118D01*
X30955792Y-103655114D01*
X30889900Y-103540986D01*
X30796714Y-103447800D01*
X30682590Y-103381910D01*
X30682581Y-103381906D01*
X30555294Y-103347800D01*
X30555292Y-103347800D01*
X30423508Y-103347800D01*
X30423506Y-103347800D01*
X30296218Y-103381906D01*
X30296209Y-103381910D01*
X30182085Y-103447800D01*
X30088900Y-103540985D01*
X30023010Y-103655109D01*
X30023006Y-103655118D01*
X29988900Y-103782405D01*
X22354119Y-103782405D01*
X22267814Y-103696100D01*
X22153690Y-103630210D01*
X22153681Y-103630206D01*
X22026394Y-103596100D01*
X22026392Y-103596100D01*
X21894608Y-103596100D01*
X21894606Y-103596100D01*
X21767318Y-103630206D01*
X21767309Y-103630210D01*
X21653185Y-103696100D01*
X21560000Y-103789285D01*
X21494110Y-103903409D01*
X21494106Y-103903418D01*
X21460000Y-104030705D01*
X1473202Y-104030705D01*
X1393190Y-103984510D01*
X1393181Y-103984506D01*
X1265894Y-103950400D01*
X1265892Y-103950400D01*
X1134108Y-103950400D01*
X1134106Y-103950400D01*
X1006818Y-103984506D01*
X1006809Y-103984510D01*
X892685Y-104050400D01*
X799500Y-104143585D01*
X733610Y-104257709D01*
X733606Y-104257718D01*
X699500Y-104385005D01*
X500500Y-104385005D01*
X500500Y-102054005D01*
X15896600Y-102054005D01*
X15896600Y-102185794D01*
X15930706Y-102313081D01*
X15930707Y-102313084D01*
X15930708Y-102313086D01*
X15996600Y-102427214D01*
X16089786Y-102520400D01*
X16203914Y-102586292D01*
X16331205Y-102620399D01*
X16331206Y-102620400D01*
X16331208Y-102620400D01*
X16462994Y-102620400D01*
X16462994Y-102620399D01*
X16590286Y-102586292D01*
X16704414Y-102520400D01*
X16797600Y-102427214D01*
X16863492Y-102313086D01*
X16897599Y-102185794D01*
X16897600Y-102185794D01*
X16897600Y-102054006D01*
X16897599Y-102054005D01*
X16863493Y-101926718D01*
X16863492Y-101926714D01*
X16797600Y-101812586D01*
X16704414Y-101719400D01*
X16648436Y-101687081D01*
X16590290Y-101653510D01*
X16590281Y-101653506D01*
X16462994Y-101619400D01*
X16462992Y-101619400D01*
X16331208Y-101619400D01*
X16331206Y-101619400D01*
X16203918Y-101653506D01*
X16203909Y-101653510D01*
X16089785Y-101719400D01*
X15996600Y-101812585D01*
X15930710Y-101926709D01*
X15930706Y-101926718D01*
X15896600Y-102054005D01*
X500500Y-102054005D01*
X500500Y-89659505D01*
X9439900Y-89659505D01*
X9439900Y-89791294D01*
X9474006Y-89918581D01*
X9474010Y-89918590D01*
X9507632Y-89976824D01*
X9539900Y-90032714D01*
X9633086Y-90125900D01*
X9747214Y-90191792D01*
X9874505Y-90225899D01*
X9874506Y-90225900D01*
X9874508Y-90225900D01*
X10006294Y-90225900D01*
X10006294Y-90225899D01*
X10133586Y-90191792D01*
X10247714Y-90125900D01*
X10340900Y-90032714D01*
X10406792Y-89918586D01*
X10440899Y-89791294D01*
X10440900Y-89791294D01*
X10440900Y-89659506D01*
X10440899Y-89659505D01*
X10406793Y-89532218D01*
X10406792Y-89532214D01*
X10340900Y-89418086D01*
X10247714Y-89324900D01*
X10166618Y-89278079D01*
X10133590Y-89259010D01*
X10133581Y-89259006D01*
X10006294Y-89224900D01*
X10006292Y-89224900D01*
X9874508Y-89224900D01*
X9874506Y-89224900D01*
X9747218Y-89259006D01*
X9747209Y-89259010D01*
X9633085Y-89324900D01*
X9539900Y-89418085D01*
X9474010Y-89532209D01*
X9474006Y-89532218D01*
X9439900Y-89659505D01*
X500500Y-89659505D01*
X500500Y-88714753D01*
X10780200Y-88714753D01*
X10780200Y-90454246D01*
X10791833Y-90512732D01*
X10800884Y-90526277D01*
X10836148Y-90579052D01*
X10880260Y-90608527D01*
X10902467Y-90623366D01*
X10902468Y-90623366D01*
X10902469Y-90623367D01*
X10960952Y-90635000D01*
X10960954Y-90635000D01*
X12700446Y-90635000D01*
X12700448Y-90635000D01*
X12758931Y-90623367D01*
X12825252Y-90579052D01*
X12869567Y-90512731D01*
X12881200Y-90454248D01*
X12881200Y-88714752D01*
X12869567Y-88656269D01*
X12867756Y-88653559D01*
X12854727Y-88634060D01*
X12825252Y-88589948D01*
X12800175Y-88573192D01*
X12758932Y-88545633D01*
X12758933Y-88545633D01*
X12729689Y-88539816D01*
X12700448Y-88534000D01*
X10960952Y-88534000D01*
X10931710Y-88539816D01*
X10902467Y-88545633D01*
X10836149Y-88589947D01*
X10836147Y-88589949D01*
X10791833Y-88656267D01*
X10780200Y-88714753D01*
X500500Y-88714753D01*
X500500Y-53446805D01*
X4287000Y-53446805D01*
X4287000Y-53578594D01*
X4321106Y-53705881D01*
X4321110Y-53705890D01*
X4328399Y-53718514D01*
X4387000Y-53820014D01*
X4480186Y-53913200D01*
X4594314Y-53979092D01*
X4721605Y-54013199D01*
X4721606Y-54013200D01*
X4721608Y-54013200D01*
X4853394Y-54013200D01*
X4853394Y-54013199D01*
X4980686Y-53979092D01*
X5094814Y-53913200D01*
X5188000Y-53820014D01*
X5253892Y-53705886D01*
X5287999Y-53578594D01*
X5288000Y-53578594D01*
X5288000Y-53446806D01*
X5287999Y-53446805D01*
X5253893Y-53319518D01*
X5253892Y-53319514D01*
X5188000Y-53205386D01*
X5094814Y-53112200D01*
X4980690Y-53046310D01*
X4980681Y-53046306D01*
X4853394Y-53012200D01*
X4853392Y-53012200D01*
X4721608Y-53012200D01*
X4721606Y-53012200D01*
X4594318Y-53046306D01*
X4594309Y-53046310D01*
X4480185Y-53112200D01*
X4387000Y-53205385D01*
X4321110Y-53319509D01*
X4321106Y-53319518D01*
X4287000Y-53446805D01*
X500500Y-53446805D01*
X500500Y-50368105D01*
X22070200Y-50368105D01*
X22070200Y-50499894D01*
X22104306Y-50627181D01*
X22104310Y-50627190D01*
X22104686Y-50627841D01*
X22170200Y-50741314D01*
X22263386Y-50834500D01*
X22377514Y-50900392D01*
X22504805Y-50934499D01*
X22504806Y-50934500D01*
X22504808Y-50934500D01*
X22636594Y-50934500D01*
X22636594Y-50934499D01*
X22763886Y-50900392D01*
X22878014Y-50834500D01*
X22971200Y-50741314D01*
X23037092Y-50627186D01*
X23071199Y-50499894D01*
X23071200Y-50499894D01*
X23071200Y-50368106D01*
X23071199Y-50368105D01*
X23044613Y-50268885D01*
X23037092Y-50240814D01*
X22971200Y-50126686D01*
X22878014Y-50033500D01*
X22763890Y-49967610D01*
X22763881Y-49967606D01*
X22636594Y-49933500D01*
X22636592Y-49933500D01*
X22504808Y-49933500D01*
X22504806Y-49933500D01*
X22377518Y-49967606D01*
X22377509Y-49967610D01*
X22263385Y-50033500D01*
X22170200Y-50126685D01*
X22104310Y-50240809D01*
X22104306Y-50240818D01*
X22070200Y-50368105D01*
X500500Y-50368105D01*
X500500Y-45913005D01*
X9718600Y-45913005D01*
X9718600Y-46044794D01*
X9752706Y-46172081D01*
X9752707Y-46172084D01*
X9752708Y-46172086D01*
X9818600Y-46286214D01*
X9911786Y-46379400D01*
X10025914Y-46445292D01*
X10153205Y-46479399D01*
X10153206Y-46479400D01*
X10153208Y-46479400D01*
X10284994Y-46479400D01*
X10284994Y-46479399D01*
X10412286Y-46445292D01*
X10526414Y-46379400D01*
X10619600Y-46286214D01*
X10685492Y-46172086D01*
X10719599Y-46044794D01*
X10719600Y-46044794D01*
X10719600Y-45913006D01*
X10719599Y-45913005D01*
X10685493Y-45785718D01*
X10685492Y-45785714D01*
X10619600Y-45671586D01*
X10526414Y-45578400D01*
X10412290Y-45512510D01*
X10412281Y-45512506D01*
X10284994Y-45478400D01*
X10284992Y-45478400D01*
X10153208Y-45478400D01*
X10153206Y-45478400D01*
X10025918Y-45512506D01*
X10025909Y-45512510D01*
X9911785Y-45578400D01*
X9818600Y-45671585D01*
X9752710Y-45785709D01*
X9752706Y-45785718D01*
X9718600Y-45913005D01*
X500500Y-45913005D01*
X500500Y-44822305D01*
X7649500Y-44822305D01*
X7649500Y-44954094D01*
X7683606Y-45081381D01*
X7683607Y-45081384D01*
X7683608Y-45081386D01*
X7749500Y-45195514D01*
X7842686Y-45288700D01*
X7956814Y-45354592D01*
X8084105Y-45388699D01*
X8084106Y-45388700D01*
X8084108Y-45388700D01*
X8215894Y-45388700D01*
X8215894Y-45388699D01*
X8343186Y-45354592D01*
X8457314Y-45288700D01*
X8550500Y-45195514D01*
X8616392Y-45081386D01*
X8650499Y-44954094D01*
X8650500Y-44954094D01*
X8650500Y-44822306D01*
X8650499Y-44822305D01*
X8616393Y-44695018D01*
X8616392Y-44695014D01*
X8550500Y-44580886D01*
X8457314Y-44487700D01*
X8343190Y-44421810D01*
X8343181Y-44421806D01*
X8215894Y-44387700D01*
X8215892Y-44387700D01*
X8084108Y-44387700D01*
X8084106Y-44387700D01*
X7956818Y-44421806D01*
X7956809Y-44421810D01*
X7842685Y-44487700D01*
X7749500Y-44580885D01*
X7683610Y-44695009D01*
X7683606Y-44695018D01*
X7649500Y-44822305D01*
X500500Y-44822305D01*
X500500Y-42537905D01*
X3899500Y-42537905D01*
X3899500Y-42669694D01*
X3933606Y-42796981D01*
X3933610Y-42796990D01*
X3944811Y-42816390D01*
X3999500Y-42911114D01*
X4092686Y-43004300D01*
X4206814Y-43070192D01*
X4334105Y-43104299D01*
X4334106Y-43104300D01*
X4334108Y-43104300D01*
X4465894Y-43104300D01*
X4465894Y-43104299D01*
X4593186Y-43070192D01*
X4707314Y-43004300D01*
X4800500Y-42911114D01*
X4866392Y-42796986D01*
X4900499Y-42669694D01*
X4900500Y-42669694D01*
X4900500Y-42537906D01*
X4900499Y-42537905D01*
X4866393Y-42410618D01*
X4866392Y-42410614D01*
X4800500Y-42296486D01*
X4707314Y-42203300D01*
X4638874Y-42163786D01*
X4593190Y-42137410D01*
X4593181Y-42137406D01*
X4465894Y-42103300D01*
X4465892Y-42103300D01*
X4334108Y-42103300D01*
X4334106Y-42103300D01*
X4206818Y-42137406D01*
X4206809Y-42137410D01*
X4092685Y-42203300D01*
X3999500Y-42296485D01*
X3933610Y-42410609D01*
X3933606Y-42410618D01*
X3899500Y-42537905D01*
X500500Y-42537905D01*
X500500Y-41904705D01*
X7410100Y-41904705D01*
X7410100Y-42036494D01*
X7444206Y-42163781D01*
X7444207Y-42163784D01*
X7444208Y-42163786D01*
X7510100Y-42277914D01*
X7603286Y-42371100D01*
X7717414Y-42436992D01*
X7844705Y-42471099D01*
X7844706Y-42471100D01*
X7844708Y-42471100D01*
X7976494Y-42471100D01*
X7976494Y-42471099D01*
X8103786Y-42436992D01*
X8217914Y-42371100D01*
X8311100Y-42277914D01*
X8376992Y-42163786D01*
X8411099Y-42036494D01*
X8411100Y-42036494D01*
X8411100Y-41904706D01*
X8411099Y-41904705D01*
X8376993Y-41777418D01*
X8376992Y-41777414D01*
X8311100Y-41663286D01*
X8217914Y-41570100D01*
X8193523Y-41556018D01*
X8103790Y-41504210D01*
X8103781Y-41504206D01*
X7976494Y-41470100D01*
X7976492Y-41470100D01*
X7844708Y-41470100D01*
X7844706Y-41470100D01*
X7717418Y-41504206D01*
X7717409Y-41504210D01*
X7603285Y-41570100D01*
X7510100Y-41663285D01*
X7444210Y-41777409D01*
X7444206Y-41777418D01*
X7410100Y-41904705D01*
X500500Y-41904705D01*
X500500Y-39304000D01*
X522174Y-39251674D01*
X574500Y-39230000D01*
X39334600Y-39230000D01*
X39386926Y-39251674D01*
X39408600Y-39304000D01*
X39408600Y-39657600D01*
X39386926Y-39709926D01*
X39334600Y-39731600D01*
X26387966Y-39731600D01*
X26335640Y-39709926D01*
X26257314Y-39631600D01*
X26143190Y-39565710D01*
X26143181Y-39565706D01*
X26015894Y-39531600D01*
X26015892Y-39531600D01*
X25884108Y-39531600D01*
X25884106Y-39531600D01*
X25756818Y-39565706D01*
X25756809Y-39565710D01*
X25642685Y-39631600D01*
X25549500Y-39724785D01*
X25483610Y-39838909D01*
X25483606Y-39838918D01*
X25449500Y-39966205D01*
X25449500Y-40097994D01*
X25483606Y-40225281D01*
X25483607Y-40225284D01*
X25483608Y-40225286D01*
X25549500Y-40339414D01*
X25642686Y-40432600D01*
X25703838Y-40467906D01*
X25752002Y-40495714D01*
X25786481Y-40540648D01*
X25779088Y-40596800D01*
X25734154Y-40631279D01*
X25715002Y-40633800D01*
X16641836Y-40633800D01*
X16565414Y-40654277D01*
X16565409Y-40654279D01*
X16506334Y-40688387D01*
X16496888Y-40693840D01*
X8386802Y-48803926D01*
X8334476Y-48825600D01*
X8299966Y-48825600D01*
X8247640Y-48803926D01*
X8225966Y-48751600D01*
X8247640Y-48699274D01*
X8262700Y-48684214D01*
X8328592Y-48570086D01*
X8362699Y-48442794D01*
X8362700Y-48442794D01*
X8362700Y-48311006D01*
X8362699Y-48311005D01*
X8359969Y-48300818D01*
X8328592Y-48183714D01*
X8262700Y-48069586D01*
X8169514Y-47976400D01*
X8161592Y-47971826D01*
X8055390Y-47910510D01*
X8055381Y-47910506D01*
X7928094Y-47876400D01*
X7928092Y-47876400D01*
X7796308Y-47876400D01*
X7796306Y-47876400D01*
X7669018Y-47910506D01*
X7669009Y-47910510D01*
X7554885Y-47976400D01*
X7461700Y-48069585D01*
X7395810Y-48183709D01*
X7395806Y-48183718D01*
X7361700Y-48311005D01*
X7361700Y-48442794D01*
X7395806Y-48570081D01*
X7395810Y-48570090D01*
X7440035Y-48646689D01*
X7461700Y-48684214D01*
X7554886Y-48777400D01*
X7669014Y-48843292D01*
X7796305Y-48877399D01*
X7796306Y-48877400D01*
X7851834Y-48877400D01*
X7904160Y-48899074D01*
X7925834Y-48951400D01*
X7904160Y-49003726D01*
X7889100Y-49018785D01*
X7823210Y-49132909D01*
X7823206Y-49132918D01*
X7789100Y-49260205D01*
X7789100Y-49391994D01*
X7823206Y-49519281D01*
X7823207Y-49519284D01*
X7823208Y-49519286D01*
X7889100Y-49633414D01*
X7982286Y-49726600D01*
X8096414Y-49792492D01*
X8223705Y-49826599D01*
X8223706Y-49826600D01*
X8223708Y-49826600D01*
X8355494Y-49826600D01*
X8355494Y-49826599D01*
X8482786Y-49792492D01*
X8596914Y-49726600D01*
X8690100Y-49633414D01*
X8755992Y-49519286D01*
X8790099Y-49391994D01*
X8790100Y-49391994D01*
X8790100Y-49281222D01*
X8811774Y-49228896D01*
X16784197Y-41256474D01*
X16836523Y-41234800D01*
X26097434Y-41234800D01*
X26149760Y-41256474D01*
X26171434Y-41308800D01*
X26149760Y-41361126D01*
X26069000Y-41441885D01*
X26003110Y-41556009D01*
X26003106Y-41556018D01*
X25969000Y-41683305D01*
X25969000Y-41815094D01*
X26003106Y-41942381D01*
X26003110Y-41942390D01*
X26043809Y-42012882D01*
X26051202Y-42069034D01*
X26016723Y-42113968D01*
X25970067Y-42123249D01*
X25965896Y-42122700D01*
X25965892Y-42122700D01*
X25834108Y-42122700D01*
X25834106Y-42122700D01*
X25706818Y-42156806D01*
X25706809Y-42156810D01*
X25592685Y-42222700D01*
X25499500Y-42315885D01*
X25433610Y-42430009D01*
X25433606Y-42430018D01*
X25399500Y-42557305D01*
X25399500Y-42689094D01*
X25433606Y-42816381D01*
X25433607Y-42816384D01*
X25433608Y-42816386D01*
X25499500Y-42930514D01*
X25592686Y-43023700D01*
X25706814Y-43089592D01*
X25834105Y-43123699D01*
X25834106Y-43123700D01*
X25834108Y-43123700D01*
X25965894Y-43123700D01*
X25965894Y-43123699D01*
X26093186Y-43089592D01*
X26207314Y-43023700D01*
X26285640Y-42945374D01*
X26337966Y-42923700D01*
X37428977Y-42923700D01*
X37481303Y-42945374D01*
X37671281Y-43135352D01*
X37692955Y-43187678D01*
X37671282Y-43240003D01*
X37649700Y-43261585D01*
X37583810Y-43375709D01*
X37583806Y-43375718D01*
X37549700Y-43503005D01*
X37549700Y-43613776D01*
X37528026Y-43666102D01*
X34245603Y-46948526D01*
X34193277Y-46970200D01*
X26337966Y-46970200D01*
X26285640Y-46948526D01*
X26207314Y-46870200D01*
X26093190Y-46804310D01*
X26093181Y-46804306D01*
X25965894Y-46770200D01*
X25965892Y-46770200D01*
X25834108Y-46770200D01*
X25834106Y-46770200D01*
X25706818Y-46804306D01*
X25706809Y-46804310D01*
X25592685Y-46870200D01*
X25499500Y-46963385D01*
X25433610Y-47077509D01*
X25433606Y-47077518D01*
X25399500Y-47204805D01*
X25399500Y-47336594D01*
X25433606Y-47463881D01*
X25433607Y-47463884D01*
X25433608Y-47463886D01*
X25499500Y-47578014D01*
X25592686Y-47671200D01*
X25706814Y-47737092D01*
X25834105Y-47771199D01*
X25834106Y-47771200D01*
X25834108Y-47771200D01*
X25965894Y-47771200D01*
X25965894Y-47771199D01*
X26093186Y-47737092D01*
X26207314Y-47671200D01*
X26285640Y-47592874D01*
X26337966Y-47571200D01*
X34193277Y-47571200D01*
X34245603Y-47592874D01*
X40361205Y-53708476D01*
X40382879Y-53760802D01*
X40361205Y-53813128D01*
X40328033Y-53832280D01*
X40279416Y-53845307D01*
X40279409Y-53845310D01*
X40165285Y-53911200D01*
X40072100Y-54004385D01*
X40006210Y-54118509D01*
X40006206Y-54118518D01*
X39972100Y-54245805D01*
X39972100Y-54377594D01*
X40006206Y-54504881D01*
X40006207Y-54504884D01*
X40006208Y-54504886D01*
X40072100Y-54619014D01*
X40165286Y-54712200D01*
X40279414Y-54778092D01*
X40406705Y-54812199D01*
X40406706Y-54812200D01*
X40406708Y-54812200D01*
X40538494Y-54812200D01*
X40538494Y-54812199D01*
X40665786Y-54778092D01*
X40779914Y-54712200D01*
X40873100Y-54619014D01*
X40938992Y-54504886D01*
X40952019Y-54456265D01*
X40986496Y-54411334D01*
X41042649Y-54403941D01*
X41075823Y-54423094D01*
X47976826Y-61324097D01*
X47998500Y-61376423D01*
X47998500Y-83397234D01*
X47976826Y-83449560D01*
X47898500Y-83527885D01*
X47832610Y-83642009D01*
X47830754Y-83646492D01*
X47827901Y-83645310D01*
X47799289Y-83682586D01*
X47743135Y-83689969D01*
X47698208Y-83655483D01*
X47688300Y-83618494D01*
X47688300Y-69947736D01*
X47688299Y-69947735D01*
X47667822Y-69871314D01*
X47667820Y-69871309D01*
X47628259Y-69802788D01*
X40081876Y-62256405D01*
X46843200Y-62256405D01*
X46843200Y-62388194D01*
X46877306Y-62515481D01*
X46877307Y-62515484D01*
X46877308Y-62515486D01*
X46943200Y-62629614D01*
X47036386Y-62722800D01*
X47150514Y-62788692D01*
X47277805Y-62822799D01*
X47277806Y-62822800D01*
X47277808Y-62822800D01*
X47409594Y-62822800D01*
X47409594Y-62822799D01*
X47536886Y-62788692D01*
X47651014Y-62722800D01*
X47744200Y-62629614D01*
X47810092Y-62515486D01*
X47844199Y-62388194D01*
X47844200Y-62388194D01*
X47844200Y-62256406D01*
X47844199Y-62256405D01*
X47836112Y-62226225D01*
X47810092Y-62129114D01*
X47744200Y-62014986D01*
X47651014Y-61921800D01*
X47536890Y-61855910D01*
X47536881Y-61855906D01*
X47409594Y-61821800D01*
X47409592Y-61821800D01*
X47277808Y-61821800D01*
X47277806Y-61821800D01*
X47150518Y-61855906D01*
X47150509Y-61855910D01*
X47036385Y-61921800D01*
X46943200Y-62014985D01*
X46877310Y-62129109D01*
X46877306Y-62129118D01*
X46843200Y-62256405D01*
X40081876Y-62256405D01*
X39599750Y-61774279D01*
X39578076Y-61721953D01*
X39599750Y-61669627D01*
X39615069Y-61657872D01*
X39697814Y-61610100D01*
X39791000Y-61516914D01*
X39856892Y-61402786D01*
X39890999Y-61275494D01*
X39891000Y-61275494D01*
X39891000Y-61143706D01*
X39890999Y-61143705D01*
X39880710Y-61105307D01*
X39856892Y-61016414D01*
X39791000Y-60902286D01*
X39697814Y-60809100D01*
X39583690Y-60743210D01*
X39583681Y-60743206D01*
X39456394Y-60709100D01*
X39456392Y-60709100D01*
X39345623Y-60709100D01*
X39293297Y-60687426D01*
X32147412Y-53541541D01*
X32147411Y-53541540D01*
X32122552Y-53527188D01*
X32113323Y-53521859D01*
X32078890Y-53501979D01*
X32078885Y-53501977D01*
X32002464Y-53481500D01*
X32002462Y-53481500D01*
X11929723Y-53481500D01*
X11877397Y-53459826D01*
X9837476Y-51419905D01*
X25397900Y-51419905D01*
X25397900Y-51551694D01*
X25432006Y-51678981D01*
X25432007Y-51678984D01*
X25432008Y-51678986D01*
X25497900Y-51793114D01*
X25591086Y-51886300D01*
X25705214Y-51952192D01*
X25832505Y-51986299D01*
X25832506Y-51986300D01*
X25832508Y-51986300D01*
X25964294Y-51986300D01*
X25964294Y-51986299D01*
X26091586Y-51952192D01*
X26205714Y-51886300D01*
X26298900Y-51793114D01*
X26364792Y-51678986D01*
X26398899Y-51551694D01*
X26398900Y-51551694D01*
X26398900Y-51419906D01*
X26398899Y-51419905D01*
X26392687Y-51396723D01*
X26364792Y-51292614D01*
X26304220Y-51187700D01*
X26296827Y-51131547D01*
X26331306Y-51086614D01*
X26368306Y-51076700D01*
X26415894Y-51076700D01*
X26415894Y-51076699D01*
X26543186Y-51042592D01*
X26657314Y-50976700D01*
X26750500Y-50883514D01*
X26816392Y-50769386D01*
X26850499Y-50642094D01*
X26850500Y-50642094D01*
X26850500Y-50510306D01*
X26850499Y-50510305D01*
X26847709Y-50499894D01*
X26816392Y-50383014D01*
X26750500Y-50268886D01*
X26657314Y-50175700D01*
X26543190Y-50109810D01*
X26543181Y-50109806D01*
X26415894Y-50075700D01*
X26415892Y-50075700D01*
X26284108Y-50075700D01*
X26284106Y-50075700D01*
X26156818Y-50109806D01*
X26156809Y-50109810D01*
X26042685Y-50175700D01*
X25949500Y-50268885D01*
X25883610Y-50383009D01*
X25883606Y-50383018D01*
X25849500Y-50510305D01*
X25849500Y-50642094D01*
X25883606Y-50769381D01*
X25883610Y-50769390D01*
X25944180Y-50874300D01*
X25951573Y-50930453D01*
X25917094Y-50975386D01*
X25880094Y-50985300D01*
X25832506Y-50985300D01*
X25705218Y-51019406D01*
X25705209Y-51019410D01*
X25591085Y-51085300D01*
X25497900Y-51178485D01*
X25432010Y-51292609D01*
X25432006Y-51292618D01*
X25397900Y-51419905D01*
X9837476Y-51419905D01*
X9045412Y-50627841D01*
X9045411Y-50627840D01*
X9044288Y-50627191D01*
X9044280Y-50627181D01*
X9044278Y-50627186D01*
X8976890Y-50588279D01*
X8976885Y-50588277D01*
X8900464Y-50567800D01*
X8900462Y-50567800D01*
X8000638Y-50567800D01*
X8000636Y-50567800D01*
X7924214Y-50588277D01*
X7924209Y-50588279D01*
X7856831Y-50627181D01*
X7856822Y-50627186D01*
X7855939Y-50627695D01*
X7855687Y-50627841D01*
X7141340Y-51342188D01*
X7101779Y-51410709D01*
X7101777Y-51410714D01*
X7081300Y-51487135D01*
X7081300Y-56325464D01*
X7101777Y-56401885D01*
X7101778Y-56401887D01*
X7101779Y-56401889D01*
X7129173Y-56449336D01*
X7129173Y-56449338D01*
X7141340Y-56470411D01*
X7542803Y-56871874D01*
X7564477Y-56924200D01*
X7542803Y-56976526D01*
X6362840Y-58156488D01*
X6323279Y-58225009D01*
X6323277Y-58225014D01*
X6302800Y-58301435D01*
X6302800Y-68882664D01*
X6323277Y-68959085D01*
X6323279Y-68959090D01*
X6348531Y-69002827D01*
X6362840Y-69027611D01*
X15318526Y-77983297D01*
X15340200Y-78035623D01*
X15340200Y-91304064D01*
X15360677Y-91380485D01*
X15360679Y-91380490D01*
X15400240Y-91449011D01*
X19228426Y-95277197D01*
X19250100Y-95329523D01*
X19250100Y-95440294D01*
X19284206Y-95567581D01*
X19284207Y-95567584D01*
X19284208Y-95567586D01*
X19350100Y-95681714D01*
X19443286Y-95774900D01*
X19557414Y-95840792D01*
X19684705Y-95874899D01*
X19684706Y-95874900D01*
X19684708Y-95874900D01*
X19816494Y-95874900D01*
X19816494Y-95874899D01*
X19943786Y-95840792D01*
X20057914Y-95774900D01*
X20151100Y-95681714D01*
X20216992Y-95567586D01*
X20251099Y-95440294D01*
X20251100Y-95440294D01*
X20251100Y-95308506D01*
X20251099Y-95308505D01*
X20216993Y-95181218D01*
X20216992Y-95181214D01*
X20151100Y-95067086D01*
X20057914Y-94973900D01*
X19943790Y-94908010D01*
X19943781Y-94908006D01*
X19816494Y-94873900D01*
X19816492Y-94873900D01*
X19705723Y-94873900D01*
X19653397Y-94852226D01*
X15962874Y-91161703D01*
X15941200Y-91109377D01*
X15941200Y-90268336D01*
X15962874Y-90216010D01*
X16015200Y-90194336D01*
X16067526Y-90216010D01*
X16076729Y-90227225D01*
X16094719Y-90254150D01*
X16094722Y-90254153D01*
X16094723Y-90254155D01*
X16241045Y-90400477D01*
X16413102Y-90515441D01*
X16604280Y-90594630D01*
X16807235Y-90635000D01*
X16807236Y-90635000D01*
X17014164Y-90635000D01*
X17014165Y-90635000D01*
X17217120Y-90594630D01*
X17408298Y-90515441D01*
X17580355Y-90400477D01*
X17726677Y-90254155D01*
X17822633Y-90110544D01*
X17869725Y-90079079D01*
X17925274Y-90090128D01*
X17936318Y-90100472D01*
X17936910Y-90099881D01*
X17940340Y-90103311D01*
X18714940Y-90877911D01*
X18770889Y-90933860D01*
X18839411Y-90973421D01*
X18839412Y-90973421D01*
X18839414Y-90973422D01*
X18877624Y-90983660D01*
X18915835Y-90993899D01*
X18915836Y-90993900D01*
X18915838Y-90993900D01*
X23461364Y-90993900D01*
X23461364Y-90993899D01*
X23537789Y-90973421D01*
X23606311Y-90933860D01*
X23662260Y-90877911D01*
X23992219Y-90547950D01*
X24044544Y-90526277D01*
X24072860Y-90531909D01*
X24224280Y-90594630D01*
X24427235Y-90635000D01*
X24427236Y-90635000D01*
X24634164Y-90635000D01*
X24634165Y-90635000D01*
X24837120Y-90594630D01*
X25028298Y-90515441D01*
X25200355Y-90400477D01*
X25346677Y-90254155D01*
X25461641Y-90082098D01*
X25540830Y-89890920D01*
X25581200Y-89687965D01*
X25581200Y-89481035D01*
X25540830Y-89278080D01*
X25461641Y-89086902D01*
X25346677Y-88914845D01*
X25330358Y-88898526D01*
X25308684Y-88846200D01*
X25330358Y-88793874D01*
X25382684Y-88772200D01*
X26218716Y-88772200D01*
X26271042Y-88793874D01*
X26292716Y-88846200D01*
X26271042Y-88898526D01*
X26254724Y-88914844D01*
X26254722Y-88914845D01*
X26139759Y-89086901D01*
X26060570Y-89278079D01*
X26060568Y-89278086D01*
X26020200Y-89481035D01*
X26020200Y-89687964D01*
X26060568Y-89890913D01*
X26060570Y-89890920D01*
X26139759Y-90082098D01*
X26254719Y-90254150D01*
X26254723Y-90254155D01*
X26401045Y-90400477D01*
X26573102Y-90515441D01*
X26764280Y-90594630D01*
X26967235Y-90635000D01*
X26967236Y-90635000D01*
X27174164Y-90635000D01*
X27174165Y-90635000D01*
X27377120Y-90594630D01*
X27568298Y-90515441D01*
X27740355Y-90400477D01*
X27886677Y-90254155D01*
X28001641Y-90082098D01*
X28080830Y-89890920D01*
X28121200Y-89687965D01*
X28121200Y-89481035D01*
X28080830Y-89278080D01*
X28001641Y-89086902D01*
X27886677Y-88914845D01*
X27870358Y-88898526D01*
X27848684Y-88846200D01*
X27870358Y-88793874D01*
X27922684Y-88772200D01*
X28758716Y-88772200D01*
X28811042Y-88793874D01*
X28832716Y-88846200D01*
X28811042Y-88898526D01*
X28794724Y-88914844D01*
X28794722Y-88914845D01*
X28679759Y-89086901D01*
X28600570Y-89278079D01*
X28600568Y-89278086D01*
X28560200Y-89481035D01*
X28560200Y-89687964D01*
X28600568Y-89890913D01*
X28600570Y-89890920D01*
X28679759Y-90082098D01*
X28794719Y-90254150D01*
X28794723Y-90254155D01*
X28941045Y-90400477D01*
X29113102Y-90515441D01*
X29304280Y-90594630D01*
X29507235Y-90635000D01*
X29507236Y-90635000D01*
X29714164Y-90635000D01*
X29714165Y-90635000D01*
X29917120Y-90594630D01*
X30108298Y-90515441D01*
X30280355Y-90400477D01*
X30426677Y-90254155D01*
X30541641Y-90082098D01*
X30620830Y-89890920D01*
X30661200Y-89687965D01*
X30661200Y-89481035D01*
X30620830Y-89278080D01*
X30541641Y-89086902D01*
X30426677Y-88914845D01*
X30410358Y-88898526D01*
X30388684Y-88846200D01*
X30410358Y-88793874D01*
X30462684Y-88772200D01*
X31298716Y-88772200D01*
X31351042Y-88793874D01*
X31372716Y-88846200D01*
X31351042Y-88898526D01*
X31334724Y-88914844D01*
X31334722Y-88914845D01*
X31219759Y-89086901D01*
X31140570Y-89278079D01*
X31140568Y-89278086D01*
X31100200Y-89481035D01*
X31100200Y-89687964D01*
X31140568Y-89890913D01*
X31140570Y-89890920D01*
X31219759Y-90082098D01*
X31334719Y-90254150D01*
X31334723Y-90254155D01*
X31481045Y-90400477D01*
X31653102Y-90515441D01*
X31844280Y-90594630D01*
X32047235Y-90635000D01*
X32047236Y-90635000D01*
X32254164Y-90635000D01*
X32254165Y-90635000D01*
X32457120Y-90594630D01*
X32648298Y-90515441D01*
X32820355Y-90400477D01*
X32966677Y-90254155D01*
X33081641Y-90082098D01*
X33160830Y-89890920D01*
X33201200Y-89687965D01*
X33201200Y-89481035D01*
X33160830Y-89278080D01*
X33081641Y-89086902D01*
X32966677Y-88914845D01*
X32950358Y-88898526D01*
X32928684Y-88846200D01*
X32950358Y-88793874D01*
X33002684Y-88772200D01*
X33838716Y-88772200D01*
X33891042Y-88793874D01*
X33912716Y-88846200D01*
X33891042Y-88898526D01*
X33874724Y-88914844D01*
X33874722Y-88914845D01*
X33759759Y-89086901D01*
X33680570Y-89278079D01*
X33680568Y-89278086D01*
X33640200Y-89481035D01*
X33640200Y-89687964D01*
X33680568Y-89890913D01*
X33680571Y-89890924D01*
X33743288Y-90042336D01*
X33743288Y-90098973D01*
X33727247Y-90122980D01*
X25977103Y-97873126D01*
X25924777Y-97894800D01*
X5993836Y-97894800D01*
X5917414Y-97915277D01*
X5917409Y-97915279D01*
X5848888Y-97954840D01*
X3322902Y-100480826D01*
X3270576Y-100502500D01*
X3159806Y-100502500D01*
X3032518Y-100536606D01*
X3032509Y-100536610D01*
X2918385Y-100602500D01*
X2825200Y-100695685D01*
X2759310Y-100809809D01*
X2759306Y-100809818D01*
X2725200Y-100937105D01*
X2725200Y-100942327D01*
X2703526Y-100994653D01*
X2651200Y-101016327D01*
X2632050Y-101013806D01*
X2555892Y-100993400D01*
X2424108Y-100993400D01*
X2424106Y-100993400D01*
X2296818Y-101027506D01*
X2296809Y-101027510D01*
X2182685Y-101093400D01*
X2089500Y-101186585D01*
X2023610Y-101300709D01*
X2023606Y-101300718D01*
X1989500Y-101428005D01*
X1989500Y-101559794D01*
X2023606Y-101687081D01*
X2023610Y-101687090D01*
X2055139Y-101741699D01*
X2089500Y-101801214D01*
X2182686Y-101894400D01*
X2296814Y-101960292D01*
X2424105Y-101994399D01*
X2424106Y-101994400D01*
X2424108Y-101994400D01*
X2555894Y-101994400D01*
X2555894Y-101994399D01*
X2589161Y-101985485D01*
X2618294Y-101977680D01*
X2653637Y-101968209D01*
X2683186Y-101960292D01*
X2797314Y-101894400D01*
X2890500Y-101801214D01*
X2956392Y-101687086D01*
X2990499Y-101559794D01*
X2990500Y-101559794D01*
X2990500Y-101554572D01*
X3012174Y-101502246D01*
X3064500Y-101480572D01*
X3083649Y-101483093D01*
X3159805Y-101503499D01*
X3159806Y-101503500D01*
X3159808Y-101503500D01*
X3291594Y-101503500D01*
X3291594Y-101503499D01*
X3418886Y-101469392D01*
X3533014Y-101403500D01*
X3626200Y-101310314D01*
X3692092Y-101196186D01*
X3697687Y-101175305D01*
X7745300Y-101175305D01*
X7745300Y-101307094D01*
X7779406Y-101434381D01*
X7779410Y-101434390D01*
X7819311Y-101503500D01*
X7845300Y-101548514D01*
X7938486Y-101641700D01*
X8052614Y-101707592D01*
X8179905Y-101741699D01*
X8179906Y-101741700D01*
X8179908Y-101741700D01*
X8311694Y-101741700D01*
X8311694Y-101741699D01*
X8438986Y-101707592D01*
X8553114Y-101641700D01*
X8646300Y-101548514D01*
X8712192Y-101434386D01*
X8746299Y-101307094D01*
X8746300Y-101307094D01*
X8746300Y-101175306D01*
X8746299Y-101175305D01*
X8712193Y-101048018D01*
X8712192Y-101048014D01*
X8646300Y-100933886D01*
X8553114Y-100840700D01*
X8499618Y-100809814D01*
X8438990Y-100774810D01*
X8438981Y-100774806D01*
X8311694Y-100740700D01*
X8311692Y-100740700D01*
X8179908Y-100740700D01*
X8179906Y-100740700D01*
X8052618Y-100774806D01*
X8052609Y-100774810D01*
X7938485Y-100840700D01*
X7845300Y-100933885D01*
X7779410Y-101048009D01*
X7779406Y-101048018D01*
X7745300Y-101175305D01*
X3697687Y-101175305D01*
X3726199Y-101068894D01*
X3726200Y-101068894D01*
X3726200Y-100958122D01*
X3747874Y-100905796D01*
X6136197Y-98517474D01*
X6188523Y-98495800D01*
X26119464Y-98495800D01*
X26119464Y-98495799D01*
X26195889Y-98475321D01*
X26264411Y-98435760D01*
X26320360Y-98379811D01*
X34152219Y-90547950D01*
X34204544Y-90526277D01*
X34232860Y-90531909D01*
X34384280Y-90594630D01*
X34587235Y-90635000D01*
X34587236Y-90635000D01*
X34794164Y-90635000D01*
X34794165Y-90635000D01*
X34997120Y-90594630D01*
X35188298Y-90515441D01*
X35360355Y-90400477D01*
X35506677Y-90254155D01*
X35621641Y-90082098D01*
X35700830Y-89890920D01*
X35741200Y-89687965D01*
X35741200Y-89481035D01*
X35700830Y-89278080D01*
X35621641Y-89086902D01*
X35506677Y-88914845D01*
X35490358Y-88898526D01*
X35468684Y-88846200D01*
X35490358Y-88793874D01*
X35542684Y-88772200D01*
X35962777Y-88772200D01*
X36015103Y-88793874D01*
X36267248Y-89046019D01*
X36288922Y-89098345D01*
X36283289Y-89126664D01*
X36220570Y-89278079D01*
X36220568Y-89278086D01*
X36180200Y-89481035D01*
X36180200Y-89687964D01*
X36220568Y-89890913D01*
X36220570Y-89890920D01*
X36299759Y-90082098D01*
X36414719Y-90254150D01*
X36414723Y-90254155D01*
X36561045Y-90400477D01*
X36733102Y-90515441D01*
X36924280Y-90594630D01*
X37127235Y-90635000D01*
X37127236Y-90635000D01*
X37334164Y-90635000D01*
X37334165Y-90635000D01*
X37537120Y-90594630D01*
X37728298Y-90515441D01*
X37900355Y-90400477D01*
X38046677Y-90254155D01*
X38159285Y-90085622D01*
X38206376Y-90054158D01*
X38261925Y-90065207D01*
X38273139Y-90074410D01*
X46165489Y-97966760D01*
X46234012Y-98006322D01*
X46310438Y-98026800D01*
X46398134Y-98026800D01*
X46450460Y-98048474D01*
X46528786Y-98126800D01*
X46586532Y-98160140D01*
X46634028Y-98187562D01*
X46668507Y-98232496D01*
X46661114Y-98288648D01*
X46649355Y-98303972D01*
X46632304Y-98321024D01*
X46579979Y-98342700D01*
X46013836Y-98342700D01*
X45937414Y-98363177D01*
X45937409Y-98363179D01*
X45868888Y-98402740D01*
X37385803Y-106885826D01*
X37338333Y-106905488D01*
X37338515Y-106906867D01*
X37333705Y-106907500D01*
X37206418Y-106941606D01*
X37206409Y-106941610D01*
X37092285Y-107007500D01*
X36999100Y-107100685D01*
X36933210Y-107214809D01*
X36933206Y-107214818D01*
X36899100Y-107342105D01*
X36899100Y-107473894D01*
X36930920Y-107592647D01*
X36923528Y-107648800D01*
X36878595Y-107683278D01*
X36859442Y-107685800D01*
X19094536Y-107685800D01*
X19018114Y-107706277D01*
X19018109Y-107706279D01*
X18979658Y-107728480D01*
X18949588Y-107745840D01*
X17985526Y-108709902D01*
X17933200Y-108731576D01*
X17880874Y-108709902D01*
X17859200Y-108657576D01*
X17859200Y-108623406D01*
X17859199Y-108623405D01*
X17825093Y-108496118D01*
X17825092Y-108496114D01*
X17759200Y-108381986D01*
X17666014Y-108288800D01*
X17627081Y-108266322D01*
X17551890Y-108222910D01*
X17551881Y-108222906D01*
X17424594Y-108188800D01*
X17424592Y-108188800D01*
X17292808Y-108188800D01*
X17292806Y-108188800D01*
X17165518Y-108222906D01*
X17165509Y-108222910D01*
X17051385Y-108288800D01*
X16958200Y-108381985D01*
X16892310Y-108496109D01*
X16892306Y-108496118D01*
X16858200Y-108623405D01*
X16858200Y-108755194D01*
X16892306Y-108882481D01*
X16892307Y-108882484D01*
X16892308Y-108882486D01*
X16958200Y-108996614D01*
X17051386Y-109089800D01*
X17165514Y-109155692D01*
X17292805Y-109189799D01*
X17292806Y-109189800D01*
X17326976Y-109189800D01*
X17379302Y-109211474D01*
X17400976Y-109263800D01*
X17379302Y-109316126D01*
X11420203Y-115275226D01*
X11367877Y-115296900D01*
X10877966Y-115296900D01*
X10825640Y-115275226D01*
X10747314Y-115196900D01*
X10633190Y-115131010D01*
X10633181Y-115131006D01*
X10505894Y-115096900D01*
X10505892Y-115096900D01*
X10374108Y-115096900D01*
X10374106Y-115096900D01*
X10246818Y-115131006D01*
X10246809Y-115131010D01*
X10132685Y-115196900D01*
X10039500Y-115290085D01*
X9973610Y-115404209D01*
X9973606Y-115404218D01*
X9939500Y-115531505D01*
X9939500Y-115663294D01*
X9973606Y-115790581D01*
X9973610Y-115790590D01*
X10014661Y-115861692D01*
X10039500Y-115904714D01*
X10132686Y-115997900D01*
X10246814Y-116063792D01*
X10374105Y-116097899D01*
X10374106Y-116097900D01*
X10374108Y-116097900D01*
X10505894Y-116097900D01*
X10505894Y-116097899D01*
X10633186Y-116063792D01*
X10747314Y-115997900D01*
X10825640Y-115919574D01*
X10877966Y-115897900D01*
X11155226Y-115897900D01*
X11207552Y-115919574D01*
X11229226Y-115971900D01*
X11226705Y-115991051D01*
X11198100Y-116097808D01*
X11198100Y-116229592D01*
X11216214Y-116297194D01*
X11232209Y-116356889D01*
X11232210Y-116356891D01*
X11232564Y-116357504D01*
X11232610Y-116357857D01*
X11234065Y-116361369D01*
X11233123Y-116361758D01*
X11239953Y-116413657D01*
X11205472Y-116458588D01*
X11168476Y-116468500D01*
X8836136Y-116468500D01*
X8759714Y-116488977D01*
X8759707Y-116488980D01*
X8744734Y-116497625D01*
X8707442Y-116505088D01*
X8707442Y-116507500D01*
X8570806Y-116507500D01*
X8443518Y-116541606D01*
X8443509Y-116541610D01*
X8329385Y-116607500D01*
X8236200Y-116700685D01*
X8170308Y-116814812D01*
X8168453Y-116819293D01*
X8167177Y-116818764D01*
X8135876Y-116859550D01*
X8079723Y-116866936D01*
X8046557Y-116847786D01*
X4594374Y-113395603D01*
X4572700Y-113343277D01*
X4572700Y-113182566D01*
X4594374Y-113130240D01*
X4614905Y-113109709D01*
X4672700Y-113051914D01*
X4738592Y-112937786D01*
X4772699Y-112810494D01*
X4772700Y-112810494D01*
X4772700Y-112678706D01*
X4772699Y-112678705D01*
X4768897Y-112664517D01*
X4738592Y-112551414D01*
X4672700Y-112437286D01*
X4579514Y-112344100D01*
X4519930Y-112309699D01*
X4465390Y-112278210D01*
X4465381Y-112278206D01*
X4338094Y-112244100D01*
X4338092Y-112244100D01*
X4206308Y-112244100D01*
X4206306Y-112244100D01*
X4079018Y-112278206D01*
X4079009Y-112278210D01*
X3964885Y-112344100D01*
X3871700Y-112437285D01*
X3805810Y-112551409D01*
X3805806Y-112551418D01*
X3771700Y-112678705D01*
X3771700Y-112810494D01*
X3805806Y-112937781D01*
X3805810Y-112937790D01*
X3871700Y-113051914D01*
X3950026Y-113130240D01*
X3971700Y-113182566D01*
X3971700Y-113537964D01*
X3992178Y-113614388D01*
X4026831Y-113674410D01*
X4031735Y-113682904D01*
X4031738Y-113682908D01*
X4031740Y-113682911D01*
X4067062Y-113718233D01*
X4088736Y-113770558D01*
X4067062Y-113822884D01*
X4033889Y-113842036D01*
X3962718Y-113861106D01*
X3962709Y-113861110D01*
X3848585Y-113927000D01*
X3755397Y-114020189D01*
X3748760Y-114031685D01*
X3703825Y-114066162D01*
X3647675Y-114058769D01*
X3571190Y-114014610D01*
X3571181Y-114014606D01*
X3443894Y-113980500D01*
X3443892Y-113980500D01*
X3312108Y-113980500D01*
X3312106Y-113980500D01*
X3184818Y-114014606D01*
X3184809Y-114014610D01*
X3070685Y-114080500D01*
X2977500Y-114173685D01*
X2911610Y-114287809D01*
X2911606Y-114287818D01*
X2877500Y-114415105D01*
X2877500Y-114546894D01*
X2911606Y-114674181D01*
X2911610Y-114674190D01*
X2977500Y-114788314D01*
X3070686Y-114881500D01*
X3184814Y-114947392D01*
X3312105Y-114981499D01*
X3312106Y-114981500D01*
X3312108Y-114981500D01*
X3372777Y-114981500D01*
X3425103Y-115003174D01*
X16342540Y-127920611D01*
X16398489Y-127976560D01*
X16415240Y-127986231D01*
X16463839Y-128014290D01*
X16467011Y-128016121D01*
X16467012Y-128016121D01*
X16467014Y-128016122D01*
X16493545Y-128023231D01*
X16543435Y-128036599D01*
X16543436Y-128036600D01*
X16543438Y-128036600D01*
X16622562Y-128036600D01*
X20245734Y-128036600D01*
X20298060Y-128058274D01*
X20376386Y-128136600D01*
X20490514Y-128202492D01*
X20617805Y-128236599D01*
X20617806Y-128236600D01*
X20617808Y-128236600D01*
X20749594Y-128236600D01*
X20749594Y-128236599D01*
X20876886Y-128202492D01*
X20991014Y-128136600D01*
X21084200Y-128043414D01*
X21117215Y-127986230D01*
X21162147Y-127951753D01*
X21218300Y-127959145D01*
X21252778Y-128004078D01*
X21255300Y-128023231D01*
X21255300Y-128099234D01*
X21233626Y-128151560D01*
X21155300Y-128229885D01*
X21089410Y-128344009D01*
X21089406Y-128344018D01*
X21055300Y-128471305D01*
X21055300Y-128603094D01*
X21089406Y-128730381D01*
X21089407Y-128730384D01*
X21089408Y-128730386D01*
X21155300Y-128844514D01*
X21248486Y-128937700D01*
X21308959Y-128972614D01*
X21343438Y-129017547D01*
X21336045Y-129073700D01*
X21291112Y-129108179D01*
X21271959Y-129110700D01*
X20254066Y-129110700D01*
X20201740Y-129089026D01*
X20123414Y-129010700D01*
X20009290Y-128944810D01*
X20009281Y-128944806D01*
X19881994Y-128910700D01*
X19881992Y-128910700D01*
X19750208Y-128910700D01*
X19750206Y-128910700D01*
X19622918Y-128944806D01*
X19622909Y-128944810D01*
X19508785Y-129010700D01*
X19415600Y-129103885D01*
X19349710Y-129218009D01*
X19349706Y-129218018D01*
X19315600Y-129345305D01*
X19315600Y-129477094D01*
X19349706Y-129604381D01*
X19349707Y-129604384D01*
X19349708Y-129604386D01*
X19415600Y-129718514D01*
X19508786Y-129811700D01*
X19622914Y-129877592D01*
X19750205Y-129911699D01*
X19750206Y-129911700D01*
X19750208Y-129911700D01*
X19881994Y-129911700D01*
X19881994Y-129911699D01*
X20009286Y-129877592D01*
X20123414Y-129811700D01*
X20201740Y-129733374D01*
X20254066Y-129711700D01*
X23017877Y-129711700D01*
X23070203Y-129733374D01*
X23724007Y-130387178D01*
X23745681Y-130439504D01*
X23724007Y-130491830D01*
X23708681Y-130503590D01*
X23617385Y-130556300D01*
X23539060Y-130634626D01*
X23486734Y-130656300D01*
X8476066Y-130656300D01*
X8423740Y-130634626D01*
X8345414Y-130556300D01*
X8231290Y-130490410D01*
X8231281Y-130490406D01*
X8103994Y-130456300D01*
X8103992Y-130456300D01*
X7972208Y-130456300D01*
X7972206Y-130456300D01*
X7844918Y-130490406D01*
X7844909Y-130490410D01*
X7730785Y-130556300D01*
X7637600Y-130649485D01*
X7571710Y-130763609D01*
X7571706Y-130763618D01*
X7537600Y-130890905D01*
X7537600Y-131022694D01*
X7571706Y-131149981D01*
X7571710Y-131149990D01*
X7584890Y-131172818D01*
X7637600Y-131264114D01*
X7730786Y-131357300D01*
X7844914Y-131423192D01*
X7972205Y-131457299D01*
X7972206Y-131457300D01*
X7972208Y-131457300D01*
X8103994Y-131457300D01*
X8103994Y-131457299D01*
X8231286Y-131423192D01*
X8345414Y-131357300D01*
X8423740Y-131278974D01*
X8476066Y-131257300D01*
X9865847Y-131257300D01*
X9918173Y-131278974D01*
X9939847Y-131331300D01*
X9934216Y-131359613D01*
X9932808Y-131363011D01*
X9898700Y-131490305D01*
X9898700Y-131622094D01*
X9932807Y-131749384D01*
X9933552Y-131751182D01*
X9933552Y-131752162D01*
X9934063Y-131754070D01*
X9933552Y-131754206D01*
X9933552Y-131807819D01*
X9893503Y-131847867D01*
X9865185Y-131853500D01*
X7509266Y-131853500D01*
X7456940Y-131831826D01*
X7378614Y-131753500D01*
X7264490Y-131687610D01*
X7264481Y-131687606D01*
X7137194Y-131653500D01*
X7137192Y-131653500D01*
X7005408Y-131653500D01*
X7005406Y-131653500D01*
X6878118Y-131687606D01*
X6878109Y-131687610D01*
X6763985Y-131753500D01*
X6670800Y-131846685D01*
X6604910Y-131960809D01*
X6604906Y-131960818D01*
X6570800Y-132088105D01*
X6570800Y-132219894D01*
X6604906Y-132347181D01*
X6604910Y-132347190D01*
X6656148Y-132435936D01*
X6670800Y-132461314D01*
X6763986Y-132554500D01*
X6878114Y-132620392D01*
X7005405Y-132654499D01*
X7005406Y-132654500D01*
X7005408Y-132654500D01*
X7137194Y-132654500D01*
X7137194Y-132654499D01*
X7264486Y-132620392D01*
X7378614Y-132554500D01*
X7456940Y-132476174D01*
X7509266Y-132454500D01*
X18973577Y-132454500D01*
X19025903Y-132476174D01*
X25482870Y-138933141D01*
X25502022Y-138966312D01*
X25510107Y-138996485D01*
X25510108Y-138996487D01*
X25574730Y-139108414D01*
X25576000Y-139110614D01*
X25669186Y-139203800D01*
X25783314Y-139269692D01*
X25910605Y-139303799D01*
X25910606Y-139303800D01*
X25910608Y-139303800D01*
X26042394Y-139303800D01*
X26042394Y-139303799D01*
X26169686Y-139269692D01*
X26283814Y-139203800D01*
X26377000Y-139110614D01*
X26442892Y-138996486D01*
X26476999Y-138869194D01*
X26477000Y-138869194D01*
X26477000Y-138737411D01*
X26476998Y-138737399D01*
X26476410Y-138735205D01*
X28765200Y-138735205D01*
X28765200Y-138866994D01*
X28799306Y-138994281D01*
X28799310Y-138994290D01*
X28800580Y-138996490D01*
X28865200Y-139108414D01*
X28958386Y-139201600D01*
X29072514Y-139267492D01*
X29199805Y-139301599D01*
X29199806Y-139301600D01*
X29199808Y-139301600D01*
X29331594Y-139301600D01*
X29331594Y-139301599D01*
X29458886Y-139267492D01*
X29573014Y-139201600D01*
X29666200Y-139108414D01*
X29732092Y-138994286D01*
X29766199Y-138866994D01*
X29766200Y-138866994D01*
X29766200Y-138735206D01*
X29766199Y-138735205D01*
X29732682Y-138610118D01*
X29732092Y-138607914D01*
X29666200Y-138493786D01*
X29573014Y-138400600D01*
X29462697Y-138336908D01*
X29458890Y-138334710D01*
X29458881Y-138334706D01*
X29331594Y-138300600D01*
X29331592Y-138300600D01*
X29199808Y-138300600D01*
X29199806Y-138300600D01*
X29072518Y-138334706D01*
X29072509Y-138334710D01*
X28958385Y-138400600D01*
X28865200Y-138493785D01*
X28799310Y-138607909D01*
X28799306Y-138607918D01*
X28765200Y-138735205D01*
X26476410Y-138735205D01*
X26442893Y-138610118D01*
X26442892Y-138610114D01*
X26377000Y-138495986D01*
X26283814Y-138402800D01*
X26169690Y-138336910D01*
X26169681Y-138336906D01*
X26042394Y-138302800D01*
X26042392Y-138302800D01*
X25910608Y-138302800D01*
X25787722Y-138335726D01*
X25731571Y-138328334D01*
X25716245Y-138316574D01*
X21985376Y-134585705D01*
X23167900Y-134585705D01*
X23167900Y-134717494D01*
X23202006Y-134844781D01*
X23202010Y-134844790D01*
X23258720Y-134943014D01*
X23267900Y-134958914D01*
X23361086Y-135052100D01*
X23475214Y-135117992D01*
X23602505Y-135152099D01*
X23602506Y-135152100D01*
X23602508Y-135152100D01*
X23734294Y-135152100D01*
X23734294Y-135152099D01*
X23861586Y-135117992D01*
X23975714Y-135052100D01*
X24068900Y-134958914D01*
X24134792Y-134844786D01*
X24168899Y-134717494D01*
X24168900Y-134717494D01*
X24168900Y-134585706D01*
X24168899Y-134585705D01*
X24164639Y-134569808D01*
X24134792Y-134458414D01*
X24068900Y-134344286D01*
X23975714Y-134251100D01*
X23861590Y-134185210D01*
X23861581Y-134185206D01*
X23734294Y-134151100D01*
X23734292Y-134151100D01*
X23602508Y-134151100D01*
X23602506Y-134151100D01*
X23475218Y-134185206D01*
X23475209Y-134185210D01*
X23361085Y-134251100D01*
X23267900Y-134344285D01*
X23202010Y-134458409D01*
X23202006Y-134458418D01*
X23167900Y-134585705D01*
X21985376Y-134585705D01*
X20751541Y-133351870D01*
X20729867Y-133299544D01*
X20751541Y-133247218D01*
X20766863Y-133235460D01*
X20849414Y-133187800D01*
X20942600Y-133094614D01*
X21008492Y-132980486D01*
X21042599Y-132853194D01*
X21042600Y-132853194D01*
X21042600Y-132721406D01*
X21042599Y-132721405D01*
X21008493Y-132594118D01*
X21008492Y-132594114D01*
X20942600Y-132479986D01*
X20849414Y-132386800D01*
X20780792Y-132347181D01*
X20735290Y-132320910D01*
X20735281Y-132320906D01*
X20607994Y-132286800D01*
X20607992Y-132286800D01*
X20497223Y-132286800D01*
X20444897Y-132265126D01*
X19563397Y-131383626D01*
X19541723Y-131331300D01*
X19563397Y-131278974D01*
X19615723Y-131257300D01*
X23486734Y-131257300D01*
X23539060Y-131278974D01*
X23617386Y-131357300D01*
X23731514Y-131423192D01*
X23858805Y-131457299D01*
X23858806Y-131457300D01*
X23858808Y-131457300D01*
X23990594Y-131457300D01*
X23990594Y-131457299D01*
X24117886Y-131423192D01*
X24232014Y-131357300D01*
X24325200Y-131264114D01*
X24377910Y-131172816D01*
X24422842Y-131138340D01*
X24478995Y-131145732D01*
X24494321Y-131157492D01*
X34914340Y-141577511D01*
X34970289Y-141633460D01*
X35038811Y-141673021D01*
X35038812Y-141673021D01*
X35038814Y-141673022D01*
X35077024Y-141683260D01*
X35115235Y-141693499D01*
X35115236Y-141693500D01*
X35115238Y-141693500D01*
X45187777Y-141693500D01*
X45240103Y-141715174D01*
X45389882Y-141864953D01*
X45411556Y-141917279D01*
X45389882Y-141969605D01*
X45356709Y-141988757D01*
X45238218Y-142020506D01*
X45238209Y-142020510D01*
X45124085Y-142086400D01*
X45030900Y-142179585D01*
X44965010Y-142293709D01*
X44965006Y-142293718D01*
X44930900Y-142421005D01*
X44930900Y-142552794D01*
X44965006Y-142680081D01*
X44965007Y-142680084D01*
X44965008Y-142680086D01*
X45030900Y-142794214D01*
X45124086Y-142887400D01*
X45238214Y-142953292D01*
X45365505Y-142987399D01*
X45365506Y-142987400D01*
X45365508Y-142987400D01*
X45497294Y-142987400D01*
X45497294Y-142987399D01*
X45624586Y-142953292D01*
X45738714Y-142887400D01*
X45831900Y-142794214D01*
X45860515Y-142744650D01*
X45905448Y-142710172D01*
X45961600Y-142717564D01*
X46071114Y-142780792D01*
X46198405Y-142814899D01*
X46198406Y-142814900D01*
X46198408Y-142814900D01*
X46330194Y-142814900D01*
X46330194Y-142814899D01*
X46457486Y-142780792D01*
X46571614Y-142714900D01*
X46664800Y-142621714D01*
X46730692Y-142507586D01*
X46764799Y-142380294D01*
X46764800Y-142380294D01*
X46764800Y-142248506D01*
X46764799Y-142248505D01*
X46746332Y-142179586D01*
X46730692Y-142121214D01*
X46664800Y-142007086D01*
X46571614Y-141913900D01*
X46486836Y-141864953D01*
X46457490Y-141848010D01*
X46457481Y-141848006D01*
X46330194Y-141813900D01*
X46330192Y-141813900D01*
X46219423Y-141813900D01*
X46167097Y-141792226D01*
X45527410Y-141152539D01*
X45523947Y-141150540D01*
X45520484Y-141148541D01*
X45507465Y-141141024D01*
X45458890Y-141112979D01*
X45458885Y-141112977D01*
X45382464Y-141092500D01*
X45382462Y-141092500D01*
X35309923Y-141092500D01*
X35257597Y-141070826D01*
X33794476Y-139607705D01*
X43264200Y-139607705D01*
X43264200Y-139739494D01*
X43298306Y-139866781D01*
X43298307Y-139866784D01*
X43298308Y-139866786D01*
X43364200Y-139980914D01*
X43457386Y-140074100D01*
X43571514Y-140139992D01*
X43698805Y-140174099D01*
X43698806Y-140174100D01*
X43698808Y-140174100D01*
X43830594Y-140174100D01*
X43830594Y-140174099D01*
X43957886Y-140139992D01*
X44072014Y-140074100D01*
X44165200Y-139980914D01*
X44231092Y-139866786D01*
X44265199Y-139739494D01*
X44265200Y-139739494D01*
X44265200Y-139607706D01*
X44265199Y-139607705D01*
X44231093Y-139480418D01*
X44231092Y-139480414D01*
X44165200Y-139366286D01*
X44072014Y-139273100D01*
X44062301Y-139267492D01*
X43957890Y-139207210D01*
X43957881Y-139207206D01*
X43830594Y-139173100D01*
X43830592Y-139173100D01*
X43698808Y-139173100D01*
X43698806Y-139173100D01*
X43571518Y-139207206D01*
X43571509Y-139207210D01*
X43457385Y-139273100D01*
X43364200Y-139366285D01*
X43298310Y-139480409D01*
X43298306Y-139480418D01*
X43264200Y-139607705D01*
X33794476Y-139607705D01*
X30973143Y-136786372D01*
X30951469Y-136734046D01*
X30973143Y-136681720D01*
X31025469Y-136660046D01*
X31062468Y-136669959D01*
X31147914Y-136719292D01*
X31275205Y-136753399D01*
X31275206Y-136753400D01*
X31275208Y-136753400D01*
X31406994Y-136753400D01*
X31406994Y-136753399D01*
X31534286Y-136719292D01*
X31648414Y-136653400D01*
X31653009Y-136648805D01*
X35509200Y-136648805D01*
X35509200Y-136780594D01*
X35543306Y-136907881D01*
X35543307Y-136907884D01*
X35543308Y-136907886D01*
X35609200Y-137022014D01*
X35702386Y-137115200D01*
X35816514Y-137181092D01*
X35943805Y-137215199D01*
X35943806Y-137215200D01*
X35943808Y-137215200D01*
X36075594Y-137215200D01*
X36075594Y-137215199D01*
X36202886Y-137181092D01*
X36317014Y-137115200D01*
X36410200Y-137022014D01*
X36476092Y-136907886D01*
X36510199Y-136780594D01*
X36510200Y-136780594D01*
X36510200Y-136648806D01*
X36510199Y-136648805D01*
X36486461Y-136560214D01*
X36476092Y-136521514D01*
X36410200Y-136407386D01*
X36317014Y-136314200D01*
X36202890Y-136248310D01*
X36202881Y-136248306D01*
X36075594Y-136214200D01*
X36075592Y-136214200D01*
X35943808Y-136214200D01*
X35943806Y-136214200D01*
X35816518Y-136248306D01*
X35816509Y-136248310D01*
X35702385Y-136314200D01*
X35609200Y-136407385D01*
X35543310Y-136521509D01*
X35543306Y-136521518D01*
X35509200Y-136648805D01*
X31653009Y-136648805D01*
X31741600Y-136560214D01*
X31807492Y-136446086D01*
X31841599Y-136318794D01*
X31841600Y-136318794D01*
X31841600Y-136187006D01*
X31841599Y-136187005D01*
X31807493Y-136059718D01*
X31807492Y-136059714D01*
X31741600Y-135945586D01*
X31663274Y-135867260D01*
X31641600Y-135814934D01*
X31641600Y-135391536D01*
X31641599Y-135391535D01*
X31638403Y-135379609D01*
X31621121Y-135315111D01*
X31581560Y-135246589D01*
X31525611Y-135190640D01*
X24591265Y-128256294D01*
X24569591Y-128203968D01*
X24591265Y-128151642D01*
X24624435Y-128132491D01*
X24722586Y-128106192D01*
X24836714Y-128040300D01*
X24929900Y-127947114D01*
X24995792Y-127832986D01*
X25007691Y-127788576D01*
X25031156Y-127701007D01*
X25033556Y-127701650D01*
X25057807Y-127659611D01*
X25112508Y-127644930D01*
X25155204Y-127665975D01*
X30700889Y-133211660D01*
X30700891Y-133211661D01*
X30700892Y-133211662D01*
X30702790Y-133212758D01*
X30703463Y-133213636D01*
X30704743Y-133214618D01*
X30704480Y-133214960D01*
X30737269Y-133257691D01*
X30729876Y-133313844D01*
X30718116Y-133329170D01*
X30643100Y-133404185D01*
X30577210Y-133518309D01*
X30577206Y-133518318D01*
X30543100Y-133645605D01*
X30543100Y-133777394D01*
X30577206Y-133904681D01*
X30577210Y-133904690D01*
X30593831Y-133933478D01*
X30643100Y-134018814D01*
X30736286Y-134112000D01*
X30850414Y-134177892D01*
X30977705Y-134211999D01*
X30977706Y-134212000D01*
X30977708Y-134212000D01*
X31109494Y-134212000D01*
X31109494Y-134211999D01*
X31236786Y-134177892D01*
X31350914Y-134112000D01*
X31429240Y-134033674D01*
X31481566Y-134012000D01*
X35923434Y-134012000D01*
X35975760Y-134033674D01*
X35997434Y-134086000D01*
X35975760Y-134138326D01*
X35916300Y-134197785D01*
X35850410Y-134311909D01*
X35850406Y-134311918D01*
X35816300Y-134439205D01*
X35816300Y-134570994D01*
X35850406Y-134698281D01*
X35850410Y-134698290D01*
X35861498Y-134717494D01*
X35916300Y-134812414D01*
X36009486Y-134905600D01*
X36123614Y-134971492D01*
X36250905Y-135005599D01*
X36250906Y-135005600D01*
X36250908Y-135005600D01*
X36382694Y-135005600D01*
X36382694Y-135005599D01*
X36509986Y-134971492D01*
X36624114Y-134905600D01*
X36643146Y-134886567D01*
X36695470Y-134864893D01*
X36747797Y-134886566D01*
X36759557Y-134901892D01*
X36783299Y-134943013D01*
X36783300Y-134943014D01*
X36876486Y-135036200D01*
X36990614Y-135102092D01*
X37117905Y-135136199D01*
X37117906Y-135136200D01*
X37117908Y-135136200D01*
X37249694Y-135136200D01*
X37249694Y-135136199D01*
X37376986Y-135102092D01*
X37491114Y-135036200D01*
X37584300Y-134943014D01*
X37650192Y-134828886D01*
X37684299Y-134701594D01*
X37684300Y-134701594D01*
X37684300Y-134569806D01*
X37684299Y-134569805D01*
X37650193Y-134442518D01*
X37650192Y-134442514D01*
X37584300Y-134328386D01*
X37491114Y-134235200D01*
X37450929Y-134211999D01*
X37376990Y-134169310D01*
X37376988Y-134169309D01*
X37376987Y-134169308D01*
X37376986Y-134169308D01*
X37332834Y-134157477D01*
X37287903Y-134123000D01*
X37280510Y-134066847D01*
X37314989Y-134021914D01*
X37351989Y-134012000D01*
X38642277Y-134012000D01*
X38694603Y-134033674D01*
X39081940Y-134421011D01*
X39137889Y-134476960D01*
X39206411Y-134516521D01*
X39206412Y-134516521D01*
X39206414Y-134516522D01*
X39244624Y-134526760D01*
X39282835Y-134536999D01*
X39282836Y-134537000D01*
X39282838Y-134537000D01*
X44001364Y-134537000D01*
X44001364Y-134536999D01*
X44077789Y-134516521D01*
X44146311Y-134476960D01*
X44202260Y-134421011D01*
X44339096Y-134284173D01*
X44391422Y-134262500D01*
X44481177Y-134262500D01*
X44533503Y-134284174D01*
X48097640Y-137848311D01*
X48153589Y-137904260D01*
X48222111Y-137943821D01*
X48222112Y-137943821D01*
X48222114Y-137943822D01*
X48260324Y-137954060D01*
X48298535Y-137964299D01*
X48298536Y-137964300D01*
X48298538Y-137964300D01*
X48377662Y-137964300D01*
X52175334Y-137964300D01*
X52227660Y-137985974D01*
X52305986Y-138064300D01*
X52420114Y-138130192D01*
X52547405Y-138164299D01*
X52547406Y-138164300D01*
X52547408Y-138164300D01*
X52679194Y-138164300D01*
X52679194Y-138164299D01*
X52806486Y-138130192D01*
X52920614Y-138064300D01*
X53013800Y-137971114D01*
X53079692Y-137856986D01*
X53113799Y-137729694D01*
X53113800Y-137729694D01*
X53113800Y-137597906D01*
X53113799Y-137597905D01*
X53079693Y-137470618D01*
X53079692Y-137470614D01*
X53013800Y-137356486D01*
X52920614Y-137263300D01*
X52806490Y-137197410D01*
X52806481Y-137197406D01*
X52679194Y-137163300D01*
X52679192Y-137163300D01*
X52547408Y-137163300D01*
X52547406Y-137163300D01*
X52420118Y-137197406D01*
X52420109Y-137197410D01*
X52305985Y-137263300D01*
X52227660Y-137341626D01*
X52175334Y-137363300D01*
X50901312Y-137363300D01*
X50848986Y-137341626D01*
X50827312Y-137289300D01*
X50837226Y-137252300D01*
X50868919Y-137197406D01*
X50894392Y-137153286D01*
X50928499Y-137025994D01*
X50928500Y-137025994D01*
X50928500Y-136894206D01*
X50928499Y-136894205D01*
X50898057Y-136780594D01*
X50894392Y-136766914D01*
X50828500Y-136652786D01*
X50735314Y-136559600D01*
X50621190Y-136493710D01*
X50621181Y-136493706D01*
X50493894Y-136459600D01*
X50493892Y-136459600D01*
X50383123Y-136459600D01*
X50330797Y-136437926D01*
X46827876Y-132935005D01*
X49861100Y-132935005D01*
X49861100Y-133066794D01*
X49895206Y-133194081D01*
X49895210Y-133194090D01*
X49943953Y-133278514D01*
X49961100Y-133308214D01*
X50054286Y-133401400D01*
X50168414Y-133467292D01*
X50295705Y-133501399D01*
X50295706Y-133501400D01*
X50295708Y-133501400D01*
X50427494Y-133501400D01*
X50427494Y-133501399D01*
X50554786Y-133467292D01*
X50668914Y-133401400D01*
X50762100Y-133308214D01*
X50827992Y-133194086D01*
X50862099Y-133066794D01*
X50862100Y-133066794D01*
X50862100Y-132935006D01*
X50862099Y-132935005D01*
X50827993Y-132807718D01*
X50827992Y-132807714D01*
X50762100Y-132693586D01*
X50668914Y-132600400D01*
X50589413Y-132554500D01*
X50554790Y-132534510D01*
X50554781Y-132534506D01*
X50427494Y-132500400D01*
X50427492Y-132500400D01*
X50295708Y-132500400D01*
X50295706Y-132500400D01*
X50168418Y-132534506D01*
X50168409Y-132534510D01*
X50054285Y-132600400D01*
X49961100Y-132693585D01*
X49895210Y-132807709D01*
X49895206Y-132807718D01*
X49861100Y-132935005D01*
X46827876Y-132935005D01*
X46309397Y-132416526D01*
X46287723Y-132364200D01*
X46309397Y-132311874D01*
X46361723Y-132290200D01*
X46453194Y-132290200D01*
X46453194Y-132290199D01*
X46580486Y-132256092D01*
X46694614Y-132190200D01*
X46787800Y-132097014D01*
X46853692Y-131982886D01*
X46887799Y-131855594D01*
X46887800Y-131855594D01*
X46887800Y-131723806D01*
X46887799Y-131723805D01*
X46860545Y-131622092D01*
X46853692Y-131596514D01*
X46787800Y-131482386D01*
X46694614Y-131389200D01*
X46649259Y-131363014D01*
X46580490Y-131323310D01*
X46580481Y-131323306D01*
X46453194Y-131289200D01*
X46453192Y-131289200D01*
X46321408Y-131289200D01*
X46321406Y-131289200D01*
X46194118Y-131323306D01*
X46194109Y-131323310D01*
X46079985Y-131389200D01*
X45986800Y-131482385D01*
X45920910Y-131596509D01*
X45920906Y-131596518D01*
X45886800Y-131723805D01*
X45886800Y-131815277D01*
X45865126Y-131867603D01*
X45812800Y-131889277D01*
X45760474Y-131867603D01*
X42429576Y-128536705D01*
X47817700Y-128536705D01*
X47817700Y-128668494D01*
X47851806Y-128795781D01*
X47851807Y-128795784D01*
X47851808Y-128795786D01*
X47917700Y-128909914D01*
X48010886Y-129003100D01*
X48125014Y-129068992D01*
X48252305Y-129103099D01*
X48252306Y-129103100D01*
X48252308Y-129103100D01*
X48384094Y-129103100D01*
X48384094Y-129103099D01*
X48511386Y-129068992D01*
X48625514Y-129003100D01*
X48718700Y-128909914D01*
X48784592Y-128795786D01*
X48818699Y-128668494D01*
X48818700Y-128668494D01*
X48818700Y-128536706D01*
X48818699Y-128536705D01*
X48784593Y-128409418D01*
X48784592Y-128409414D01*
X48718700Y-128295286D01*
X48625514Y-128202100D01*
X48511390Y-128136210D01*
X48511381Y-128136206D01*
X48384094Y-128102100D01*
X48384092Y-128102100D01*
X48252308Y-128102100D01*
X48252306Y-128102100D01*
X48125018Y-128136206D01*
X48125009Y-128136210D01*
X48010885Y-128202100D01*
X47917700Y-128295285D01*
X47851810Y-128409409D01*
X47851806Y-128409418D01*
X47817700Y-128536705D01*
X42429576Y-128536705D01*
X41648076Y-127755205D01*
X51899500Y-127755205D01*
X51899500Y-127886994D01*
X51933606Y-128014281D01*
X51933610Y-128014290D01*
X51986670Y-128106192D01*
X51999500Y-128128414D01*
X52092686Y-128221600D01*
X52206814Y-128287492D01*
X52334105Y-128321599D01*
X52334106Y-128321600D01*
X52334108Y-128321600D01*
X52465894Y-128321600D01*
X52465894Y-128321599D01*
X52593186Y-128287492D01*
X52707314Y-128221600D01*
X52800500Y-128128414D01*
X52866392Y-128014286D01*
X52900499Y-127886994D01*
X52900500Y-127886994D01*
X52900500Y-127755206D01*
X52900499Y-127755205D01*
X52890610Y-127718300D01*
X52866392Y-127627914D01*
X52800500Y-127513786D01*
X52707314Y-127420600D01*
X52695754Y-127413926D01*
X52593190Y-127354710D01*
X52593181Y-127354706D01*
X52465894Y-127320600D01*
X52465892Y-127320600D01*
X52334108Y-127320600D01*
X52334106Y-127320600D01*
X52206818Y-127354706D01*
X52206809Y-127354710D01*
X52092685Y-127420600D01*
X51999500Y-127513785D01*
X51933610Y-127627909D01*
X51933606Y-127627918D01*
X51899500Y-127755205D01*
X41648076Y-127755205D01*
X40159274Y-126266403D01*
X40137600Y-126214077D01*
X40137600Y-121021766D01*
X40159274Y-120969440D01*
X40222740Y-120905974D01*
X40275066Y-120884300D01*
X40891169Y-120884300D01*
X40943495Y-120905974D01*
X40965169Y-120958300D01*
X40962647Y-120977453D01*
X40936400Y-121075405D01*
X40936400Y-121207194D01*
X40970506Y-121334481D01*
X40970507Y-121334484D01*
X40970508Y-121334486D01*
X41036400Y-121448614D01*
X41129586Y-121541800D01*
X41243714Y-121607692D01*
X41371005Y-121641799D01*
X41371006Y-121641800D01*
X41481777Y-121641800D01*
X41534103Y-121663474D01*
X45121740Y-125251111D01*
X45177689Y-125307060D01*
X45246211Y-125346621D01*
X45246212Y-125346621D01*
X45246214Y-125346622D01*
X45284424Y-125356860D01*
X45322635Y-125367099D01*
X45322636Y-125367100D01*
X45322638Y-125367100D01*
X45401762Y-125367100D01*
X57530034Y-125367100D01*
X57582360Y-125388774D01*
X57660686Y-125467100D01*
X57774814Y-125532992D01*
X57902105Y-125567099D01*
X57902106Y-125567100D01*
X57902108Y-125567100D01*
X58033894Y-125567100D01*
X58033894Y-125567099D01*
X58161186Y-125532992D01*
X58275314Y-125467100D01*
X58368500Y-125373914D01*
X58434392Y-125259786D01*
X58468499Y-125132494D01*
X58468500Y-125132494D01*
X58468500Y-125000706D01*
X58468499Y-125000705D01*
X58464611Y-124986196D01*
X58434392Y-124873414D01*
X58368500Y-124759286D01*
X58275314Y-124666100D01*
X58260096Y-124657314D01*
X58161190Y-124600210D01*
X58161181Y-124600206D01*
X58033894Y-124566100D01*
X58033892Y-124566100D01*
X57902108Y-124566100D01*
X57902106Y-124566100D01*
X57774818Y-124600206D01*
X57774809Y-124600210D01*
X57660685Y-124666100D01*
X57582360Y-124744426D01*
X57530034Y-124766100D01*
X45517323Y-124766100D01*
X45464997Y-124744426D01*
X41959074Y-121238503D01*
X41937400Y-121186177D01*
X41937400Y-121075406D01*
X41937399Y-121075405D01*
X41911153Y-120977453D01*
X41918545Y-120921300D01*
X41963478Y-120886822D01*
X41982631Y-120884300D01*
X53274564Y-120884300D01*
X53274564Y-120884299D01*
X53350989Y-120863821D01*
X53419511Y-120824260D01*
X53475460Y-120768311D01*
X57490296Y-116753473D01*
X57542622Y-116731800D01*
X57653394Y-116731800D01*
X57653394Y-116731799D01*
X57780686Y-116697692D01*
X57894814Y-116631800D01*
X57988000Y-116538614D01*
X58053892Y-116424486D01*
X58087999Y-116297194D01*
X58088000Y-116297194D01*
X58088000Y-116165406D01*
X58087999Y-116165405D01*
X58060771Y-116063789D01*
X58053892Y-116038114D01*
X57988000Y-115923986D01*
X57894814Y-115830800D01*
X57849126Y-115804422D01*
X57780690Y-115764910D01*
X57780681Y-115764906D01*
X57653394Y-115730800D01*
X57653392Y-115730800D01*
X57521608Y-115730800D01*
X57521606Y-115730800D01*
X57394318Y-115764906D01*
X57394309Y-115764910D01*
X57280185Y-115830800D01*
X57187000Y-115923985D01*
X57121110Y-116038109D01*
X57121106Y-116038118D01*
X57087000Y-116165405D01*
X57087000Y-116276176D01*
X57065326Y-116328502D01*
X53132203Y-120261626D01*
X53079877Y-120283300D01*
X40275066Y-120283300D01*
X40222740Y-120261626D01*
X40144414Y-120183300D01*
X40055907Y-120132200D01*
X40021428Y-120087266D01*
X40028821Y-120031114D01*
X40040577Y-120015792D01*
X42551697Y-117504674D01*
X42604023Y-117483000D01*
X52624564Y-117483000D01*
X52624564Y-117482999D01*
X52700989Y-117462521D01*
X52769511Y-117422960D01*
X52825460Y-117367011D01*
X55554596Y-114637873D01*
X55606922Y-114616200D01*
X55717694Y-114616200D01*
X55717694Y-114616199D01*
X55844986Y-114582092D01*
X55959114Y-114516200D01*
X56052300Y-114423014D01*
X56118192Y-114308886D01*
X56152299Y-114181594D01*
X56152300Y-114181594D01*
X56152300Y-114049806D01*
X56152299Y-114049805D01*
X56118193Y-113922518D01*
X56118192Y-113922514D01*
X56105684Y-113900849D01*
X56079068Y-113854749D01*
X56071675Y-113798596D01*
X56106152Y-113753665D01*
X56193214Y-113703400D01*
X56286400Y-113610214D01*
X56352292Y-113496086D01*
X56386399Y-113368794D01*
X56386400Y-113368794D01*
X56386400Y-113237006D01*
X56386399Y-113237005D01*
X56361773Y-113145100D01*
X56352292Y-113109714D01*
X56286400Y-112995586D01*
X56193214Y-112902400D01*
X56172416Y-112890392D01*
X56079090Y-112836510D01*
X56079081Y-112836506D01*
X55951794Y-112802400D01*
X55951792Y-112802400D01*
X55820008Y-112802400D01*
X55820006Y-112802400D01*
X55692718Y-112836506D01*
X55692709Y-112836510D01*
X55578585Y-112902400D01*
X55485400Y-112995585D01*
X55419510Y-113109709D01*
X55419506Y-113109718D01*
X55385400Y-113237005D01*
X55385400Y-113368794D01*
X55419506Y-113496081D01*
X55419510Y-113496090D01*
X55458631Y-113563849D01*
X55466024Y-113620002D01*
X55431546Y-113664934D01*
X55344486Y-113715199D01*
X55251300Y-113808385D01*
X55185410Y-113922509D01*
X55185406Y-113922518D01*
X55151300Y-114049805D01*
X55151300Y-114160576D01*
X55129626Y-114212902D01*
X52482203Y-116860326D01*
X52429877Y-116882000D01*
X44616730Y-116882000D01*
X44564404Y-116860326D01*
X44542730Y-116808000D01*
X44552644Y-116771000D01*
X44553904Y-116768818D01*
X44595492Y-116696786D01*
X44629599Y-116569494D01*
X44629600Y-116569494D01*
X44629600Y-116437706D01*
X44629599Y-116437705D01*
X44623155Y-116413657D01*
X44595492Y-116310414D01*
X44529600Y-116196286D01*
X44436414Y-116103100D01*
X44427248Y-116097808D01*
X44322290Y-116037210D01*
X44322281Y-116037206D01*
X44194994Y-116003100D01*
X44194992Y-116003100D01*
X44084223Y-116003100D01*
X44031897Y-115981426D01*
X44001697Y-115951226D01*
X43980023Y-115898900D01*
X44001697Y-115846574D01*
X44054023Y-115824900D01*
X48874957Y-115824900D01*
X48927283Y-115846574D01*
X48939043Y-115861900D01*
X48999500Y-115966614D01*
X49092686Y-116059800D01*
X49206814Y-116125692D01*
X49334105Y-116159799D01*
X49334106Y-116159800D01*
X49334108Y-116159800D01*
X49465894Y-116159800D01*
X49465894Y-116159799D01*
X49593186Y-116125692D01*
X49707314Y-116059800D01*
X49800500Y-115966614D01*
X49866392Y-115852486D01*
X49900499Y-115725194D01*
X49900500Y-115725194D01*
X49900500Y-115593406D01*
X49900499Y-115593405D01*
X49872386Y-115488486D01*
X49866392Y-115466114D01*
X49800500Y-115351986D01*
X49707314Y-115258800D01*
X49629694Y-115213986D01*
X49593190Y-115192910D01*
X49593181Y-115192906D01*
X49465894Y-115158800D01*
X49465892Y-115158800D01*
X49334108Y-115158800D01*
X49334106Y-115158800D01*
X49206818Y-115192906D01*
X49206812Y-115192909D01*
X49170306Y-115213986D01*
X49133306Y-115223900D01*
X22588823Y-115223900D01*
X22536497Y-115202226D01*
X21830474Y-114496203D01*
X21808800Y-114443877D01*
X21808800Y-114333106D01*
X21808799Y-114333105D01*
X21797490Y-114290900D01*
X21774692Y-114205814D01*
X21757248Y-114175600D01*
X21749855Y-114119447D01*
X21784334Y-114074514D01*
X21821334Y-114064600D01*
X43460346Y-114064600D01*
X43512672Y-114086274D01*
X43534346Y-114138600D01*
X43531824Y-114157751D01*
X43527555Y-114173685D01*
X43504800Y-114258605D01*
X43504800Y-114390394D01*
X43538906Y-114517681D01*
X43538910Y-114517690D01*
X43574224Y-114578855D01*
X43604800Y-114631814D01*
X43697986Y-114725000D01*
X43812114Y-114790892D01*
X43939405Y-114824999D01*
X43939406Y-114825000D01*
X43939408Y-114825000D01*
X44071194Y-114825000D01*
X44071194Y-114824999D01*
X44198486Y-114790892D01*
X44312614Y-114725000D01*
X44405800Y-114631814D01*
X44471692Y-114517686D01*
X44505799Y-114390394D01*
X44505800Y-114390394D01*
X44505800Y-114258606D01*
X44505799Y-114258605D01*
X44478776Y-114157752D01*
X44486168Y-114101600D01*
X44531101Y-114067122D01*
X44550254Y-114064600D01*
X50315958Y-114064600D01*
X50368284Y-114086274D01*
X50374380Y-114094225D01*
X50374848Y-114093867D01*
X50377798Y-114097712D01*
X50377800Y-114097714D01*
X50470986Y-114190900D01*
X50585114Y-114256792D01*
X50712405Y-114290899D01*
X50712406Y-114290900D01*
X50712408Y-114290900D01*
X50844194Y-114290900D01*
X50844194Y-114290899D01*
X50971486Y-114256792D01*
X51085614Y-114190900D01*
X51178800Y-114097714D01*
X51244692Y-113983586D01*
X51278799Y-113856294D01*
X51278800Y-113856294D01*
X51278800Y-113724506D01*
X51278799Y-113724505D01*
X51276305Y-113715199D01*
X51244692Y-113597214D01*
X51178800Y-113483086D01*
X51085614Y-113389900D01*
X50971490Y-113324010D01*
X50971481Y-113324006D01*
X50844194Y-113289900D01*
X50844192Y-113289900D01*
X50712408Y-113289900D01*
X50712406Y-113289900D01*
X50585118Y-113324006D01*
X50585109Y-113324010D01*
X50470985Y-113389900D01*
X50418960Y-113441926D01*
X50366634Y-113463600D01*
X20641823Y-113463600D01*
X20589497Y-113441926D01*
X20061674Y-112914103D01*
X20040000Y-112861777D01*
X20040000Y-112751006D01*
X20039999Y-112751005D01*
X20033406Y-112726399D01*
X20008153Y-112632152D01*
X20015545Y-112576000D01*
X20060478Y-112541522D01*
X20079631Y-112539000D01*
X22777477Y-112539000D01*
X22829803Y-112560674D01*
X23238340Y-112969211D01*
X23294289Y-113025160D01*
X23362811Y-113064721D01*
X23362812Y-113064721D01*
X23362814Y-113064722D01*
X23401024Y-113074960D01*
X23439235Y-113085199D01*
X23439236Y-113085200D01*
X23439238Y-113085200D01*
X34208264Y-113085200D01*
X34208264Y-113085199D01*
X34284689Y-113064721D01*
X34353211Y-113025160D01*
X34409160Y-112969211D01*
X34886197Y-112492174D01*
X34938523Y-112470500D01*
X40900938Y-112470500D01*
X40953264Y-112492174D01*
X40969305Y-112516181D01*
X40970507Y-112519085D01*
X40989175Y-112551418D01*
X41036400Y-112633214D01*
X41129586Y-112726400D01*
X41243714Y-112792292D01*
X41371005Y-112826399D01*
X41371006Y-112826400D01*
X41371008Y-112826400D01*
X41502794Y-112826400D01*
X41502794Y-112826399D01*
X41630086Y-112792292D01*
X41744214Y-112726400D01*
X41837400Y-112633214D01*
X41903292Y-112519086D01*
X41937399Y-112391794D01*
X41937400Y-112391794D01*
X41937400Y-112260006D01*
X41937399Y-112260005D01*
X41933137Y-112244100D01*
X41903292Y-112132714D01*
X41837400Y-112018586D01*
X41744214Y-111925400D01*
X41732450Y-111918608D01*
X41630090Y-111859510D01*
X41630081Y-111859506D01*
X41502794Y-111825400D01*
X41502792Y-111825400D01*
X41371008Y-111825400D01*
X41371006Y-111825400D01*
X41243718Y-111859506D01*
X41243715Y-111859507D01*
X41243714Y-111859508D01*
X41243579Y-111859585D01*
X41243433Y-111859624D01*
X41239232Y-111861365D01*
X41239002Y-111860811D01*
X41206580Y-111869500D01*
X34743836Y-111869500D01*
X34667414Y-111889977D01*
X34667409Y-111889979D01*
X34617824Y-111918608D01*
X34598888Y-111929540D01*
X34065903Y-112462526D01*
X34013577Y-112484200D01*
X31094143Y-112484200D01*
X31041817Y-112462526D01*
X31020143Y-112410200D01*
X31032614Y-112369088D01*
X31109394Y-112254179D01*
X31169737Y-112108497D01*
X31200500Y-111953842D01*
X31200500Y-111246158D01*
X31169737Y-111091503D01*
X31137593Y-111013899D01*
X31109396Y-110945825D01*
X31109395Y-110945823D01*
X31109394Y-110945821D01*
X31021789Y-110814711D01*
X30910289Y-110703211D01*
X30779179Y-110615606D01*
X30779175Y-110615604D01*
X30779173Y-110615603D01*
X30779174Y-110615603D01*
X30633501Y-110555264D01*
X30633491Y-110555261D01*
X30529925Y-110534661D01*
X30478842Y-110524500D01*
X30321158Y-110524500D01*
X30277315Y-110533220D01*
X30166508Y-110555261D01*
X30166498Y-110555264D01*
X30020825Y-110615603D01*
X29889711Y-110703210D01*
X29889710Y-110703212D01*
X29778212Y-110814710D01*
X29778210Y-110814711D01*
X29690603Y-110945825D01*
X29630264Y-111091498D01*
X29630261Y-111091508D01*
X29606256Y-111212192D01*
X29603151Y-111227806D01*
X29599500Y-111246159D01*
X29599500Y-111953840D01*
X29630261Y-112108491D01*
X29630264Y-112108501D01*
X29690603Y-112254174D01*
X29690605Y-112254177D01*
X29690606Y-112254179D01*
X29767386Y-112369088D01*
X29778435Y-112424637D01*
X29746969Y-112471729D01*
X29705857Y-112484200D01*
X29240879Y-112484200D01*
X29188553Y-112462526D01*
X29166879Y-112410200D01*
X29171032Y-112385759D01*
X29197644Y-112309704D01*
X29197643Y-112309704D01*
X29197646Y-112309699D01*
X29200500Y-112279266D01*
X29200500Y-110920734D01*
X29197646Y-110890301D01*
X29152793Y-110762118D01*
X29111809Y-110706586D01*
X29072153Y-110652853D01*
X29072146Y-110652846D01*
X28962883Y-110572207D01*
X28962881Y-110572206D01*
X28834704Y-110527355D01*
X28834705Y-110527355D01*
X28834700Y-110527354D01*
X28834699Y-110527354D01*
X28804266Y-110524500D01*
X27995734Y-110524500D01*
X27965301Y-110527354D01*
X27965299Y-110527354D01*
X27965295Y-110527355D01*
X27837118Y-110572206D01*
X27837116Y-110572207D01*
X27727853Y-110652846D01*
X27727846Y-110652853D01*
X27647207Y-110762116D01*
X27647206Y-110762118D01*
X27602355Y-110890295D01*
X27602354Y-110890299D01*
X27602354Y-110890301D01*
X27599500Y-110920734D01*
X27599500Y-110920740D01*
X27599500Y-111323500D01*
X27577826Y-111375826D01*
X27525500Y-111397500D01*
X22257986Y-111397500D01*
X22205660Y-111375826D01*
X22183986Y-111323500D01*
X22186507Y-111304348D01*
X22211200Y-111212192D01*
X22211200Y-111080408D01*
X22211200Y-111080406D01*
X22211199Y-111080405D01*
X22184240Y-110979793D01*
X22177092Y-110953114D01*
X22111200Y-110838986D01*
X22018014Y-110745800D01*
X21982159Y-110725099D01*
X21903890Y-110679910D01*
X21903881Y-110679906D01*
X21776594Y-110645800D01*
X21776592Y-110645800D01*
X21644808Y-110645800D01*
X21644806Y-110645800D01*
X21517518Y-110679906D01*
X21517509Y-110679910D01*
X21403385Y-110745800D01*
X21310200Y-110838985D01*
X21244310Y-110953109D01*
X21244306Y-110953118D01*
X21210200Y-111080405D01*
X21210200Y-111080408D01*
X21210200Y-111212192D01*
X21234893Y-111304348D01*
X21227500Y-111360500D01*
X21182566Y-111394979D01*
X21163414Y-111397500D01*
X18657136Y-111397500D01*
X18580714Y-111417977D01*
X18580709Y-111417979D01*
X18528216Y-111448287D01*
X18512188Y-111457540D01*
X14696102Y-115273626D01*
X14643776Y-115295300D01*
X14533006Y-115295300D01*
X14405718Y-115329406D01*
X14405709Y-115329410D01*
X14291585Y-115395300D01*
X14198400Y-115488485D01*
X14132510Y-115602609D01*
X14132506Y-115602618D01*
X14098400Y-115729905D01*
X14098400Y-115729908D01*
X14098400Y-115861692D01*
X14122390Y-115951226D01*
X14123093Y-115953848D01*
X14115700Y-116010000D01*
X14070766Y-116044479D01*
X14051614Y-116047000D01*
X12242268Y-116047000D01*
X12189942Y-116025326D01*
X12170790Y-115992154D01*
X12164992Y-115970514D01*
X12099100Y-115856386D01*
X12005914Y-115763200D01*
X11947584Y-115729523D01*
X11913105Y-115684589D01*
X11920498Y-115628437D01*
X11932254Y-115613115D01*
X12207830Y-115337539D01*
X12260155Y-115315866D01*
X12312481Y-115337540D01*
X12324240Y-115352864D01*
X12371900Y-115435414D01*
X12465086Y-115528600D01*
X12579214Y-115594492D01*
X12706505Y-115628599D01*
X12706506Y-115628600D01*
X12706508Y-115628600D01*
X12838294Y-115628600D01*
X12838294Y-115628599D01*
X12965586Y-115594492D01*
X13079714Y-115528600D01*
X13172900Y-115435414D01*
X13238792Y-115321286D01*
X13272899Y-115193994D01*
X13272900Y-115193994D01*
X13272900Y-115062206D01*
X13272899Y-115062205D01*
X13251274Y-114981500D01*
X13238792Y-114934914D01*
X13172900Y-114820786D01*
X13079714Y-114727600D01*
X12997165Y-114679940D01*
X12962687Y-114635008D01*
X12970080Y-114578855D01*
X12981836Y-114563533D01*
X17148365Y-110397005D01*
X35864000Y-110397005D01*
X35864000Y-110528794D01*
X35898106Y-110656081D01*
X35898110Y-110656090D01*
X35959325Y-110762116D01*
X35964000Y-110770214D01*
X36057186Y-110863400D01*
X36171314Y-110929292D01*
X36298605Y-110963399D01*
X36298606Y-110963400D01*
X36298608Y-110963400D01*
X36430394Y-110963400D01*
X36430394Y-110963399D01*
X36557686Y-110929292D01*
X36671814Y-110863400D01*
X36765000Y-110770214D01*
X36830892Y-110656086D01*
X36864999Y-110528794D01*
X36865000Y-110528794D01*
X36865000Y-110397008D01*
X36831775Y-110273010D01*
X36831775Y-110273008D01*
X36830893Y-110269719D01*
X36830893Y-110269718D01*
X36830892Y-110269714D01*
X36824536Y-110258705D01*
X41955900Y-110258705D01*
X41955900Y-110390494D01*
X41990006Y-110517781D01*
X41990010Y-110517790D01*
X42025520Y-110579294D01*
X42055900Y-110631914D01*
X42149086Y-110725100D01*
X42263214Y-110790992D01*
X42390505Y-110825099D01*
X42390506Y-110825100D01*
X42390508Y-110825100D01*
X42522294Y-110825100D01*
X42522294Y-110825099D01*
X42649586Y-110790992D01*
X42763714Y-110725100D01*
X42856900Y-110631914D01*
X42922792Y-110517786D01*
X42956899Y-110390494D01*
X42956900Y-110390494D01*
X42956900Y-110258706D01*
X42956899Y-110258705D01*
X42929268Y-110155585D01*
X42922792Y-110131414D01*
X42856900Y-110017286D01*
X42763714Y-109924100D01*
X42649590Y-109858210D01*
X42649581Y-109858206D01*
X42522294Y-109824100D01*
X42522292Y-109824100D01*
X42390508Y-109824100D01*
X42390506Y-109824100D01*
X42263218Y-109858206D01*
X42263209Y-109858210D01*
X42149085Y-109924100D01*
X42055900Y-110017285D01*
X41990010Y-110131409D01*
X41990006Y-110131418D01*
X41955900Y-110258705D01*
X36824536Y-110258705D01*
X36765000Y-110155586D01*
X36671814Y-110062400D01*
X36645151Y-110047006D01*
X36557690Y-109996510D01*
X36557681Y-109996506D01*
X36430394Y-109962400D01*
X36430392Y-109962400D01*
X36298608Y-109962400D01*
X36298606Y-109962400D01*
X36171318Y-109996506D01*
X36171309Y-109996510D01*
X36057185Y-110062400D01*
X35964000Y-110155585D01*
X35898110Y-110269709D01*
X35898106Y-110269718D01*
X35864000Y-110397005D01*
X17148365Y-110397005D01*
X19236897Y-108308474D01*
X19289223Y-108286800D01*
X41942564Y-108286800D01*
X41942564Y-108286799D01*
X42018989Y-108266321D01*
X42087511Y-108226760D01*
X42143460Y-108170811D01*
X42936996Y-107377273D01*
X42989322Y-107355600D01*
X43100094Y-107355600D01*
X43100094Y-107355599D01*
X43227386Y-107321492D01*
X43341514Y-107255600D01*
X43434700Y-107162414D01*
X43451564Y-107133205D01*
X54857100Y-107133205D01*
X54857100Y-107264994D01*
X54891206Y-107392281D01*
X54891210Y-107392290D01*
X54957100Y-107506414D01*
X55050286Y-107599600D01*
X55164414Y-107665492D01*
X55291705Y-107699599D01*
X55291706Y-107699600D01*
X55291708Y-107699600D01*
X55423494Y-107699600D01*
X55423494Y-107699599D01*
X55550786Y-107665492D01*
X55664914Y-107599600D01*
X55758100Y-107506414D01*
X55823992Y-107392286D01*
X55858099Y-107264994D01*
X55858100Y-107264994D01*
X55858100Y-107133206D01*
X55858099Y-107133205D01*
X55849385Y-107100685D01*
X55823992Y-107005914D01*
X55758100Y-106891786D01*
X55664914Y-106798600D01*
X55648643Y-106789206D01*
X55550790Y-106732710D01*
X55550781Y-106732706D01*
X55423494Y-106698600D01*
X55423492Y-106698600D01*
X55291708Y-106698600D01*
X55291706Y-106698600D01*
X55164418Y-106732706D01*
X55164409Y-106732710D01*
X55050285Y-106798600D01*
X54957100Y-106891785D01*
X54891210Y-107005909D01*
X54891206Y-107005918D01*
X54857100Y-107133205D01*
X43451564Y-107133205D01*
X43500592Y-107048286D01*
X43534699Y-106920994D01*
X43534700Y-106920994D01*
X43534700Y-106789206D01*
X43534699Y-106789205D01*
X43519561Y-106732710D01*
X43500592Y-106661914D01*
X43434700Y-106547786D01*
X43341514Y-106454600D01*
X43335599Y-106451185D01*
X43227390Y-106388710D01*
X43227381Y-106388706D01*
X43100094Y-106354600D01*
X43100092Y-106354600D01*
X42968308Y-106354600D01*
X42968306Y-106354600D01*
X42841018Y-106388706D01*
X42841009Y-106388710D01*
X42726885Y-106454600D01*
X42633700Y-106547785D01*
X42567810Y-106661909D01*
X42567806Y-106661918D01*
X42533700Y-106789205D01*
X42533700Y-106899976D01*
X42512026Y-106952302D01*
X41800203Y-107664126D01*
X41747877Y-107685800D01*
X37939758Y-107685800D01*
X37887432Y-107664126D01*
X37865758Y-107611800D01*
X37868280Y-107592647D01*
X37900099Y-107473894D01*
X37900100Y-107473894D01*
X37900100Y-107342106D01*
X37900099Y-107342105D01*
X37885664Y-107288232D01*
X37893056Y-107232080D01*
X37904812Y-107216757D01*
X43723165Y-101398405D01*
X49027500Y-101398405D01*
X49027500Y-101530194D01*
X49061606Y-101657481D01*
X49061610Y-101657490D01*
X49110229Y-101741700D01*
X49127500Y-101771614D01*
X49220686Y-101864800D01*
X49334814Y-101930692D01*
X49462105Y-101964799D01*
X49462106Y-101964800D01*
X49462108Y-101964800D01*
X49593894Y-101964800D01*
X49593894Y-101964799D01*
X49721186Y-101930692D01*
X49835314Y-101864800D01*
X49928500Y-101771614D01*
X49994392Y-101657486D01*
X50028499Y-101530194D01*
X50028500Y-101530194D01*
X50028500Y-101398406D01*
X50028499Y-101398405D01*
X50004895Y-101310314D01*
X49994392Y-101271114D01*
X49928500Y-101156986D01*
X49835314Y-101063800D01*
X49748722Y-101013806D01*
X49721190Y-100997910D01*
X49721181Y-100997906D01*
X49593894Y-100963800D01*
X49593892Y-100963800D01*
X49462108Y-100963800D01*
X49462106Y-100963800D01*
X49334818Y-100997906D01*
X49334809Y-100997910D01*
X49220685Y-101063800D01*
X49127500Y-101156985D01*
X49061610Y-101271109D01*
X49061606Y-101271118D01*
X49027500Y-101398405D01*
X43723165Y-101398405D01*
X46156197Y-98965374D01*
X46208523Y-98943700D01*
X46774664Y-98943700D01*
X46774664Y-98943699D01*
X46851089Y-98923221D01*
X46919611Y-98883660D01*
X46975560Y-98827711D01*
X47628260Y-98175011D01*
X47656094Y-98126800D01*
X47667821Y-98106489D01*
X47688299Y-98030064D01*
X47688300Y-98030064D01*
X47688300Y-84051905D01*
X47709974Y-83999579D01*
X47762300Y-83977905D01*
X47814626Y-83999579D01*
X47829065Y-84024607D01*
X47830754Y-84023908D01*
X47832610Y-84028390D01*
X47884971Y-84119081D01*
X47898500Y-84142514D01*
X47991686Y-84235700D01*
X48105814Y-84301592D01*
X48233105Y-84335699D01*
X48233106Y-84335700D01*
X48233108Y-84335700D01*
X48364894Y-84335700D01*
X48364894Y-84335699D01*
X48492186Y-84301592D01*
X48606314Y-84235700D01*
X48699500Y-84142514D01*
X48765392Y-84028386D01*
X48799499Y-83901094D01*
X48799500Y-83901094D01*
X48799500Y-83769306D01*
X48799499Y-83769305D01*
X48765393Y-83642018D01*
X48765392Y-83642014D01*
X48699500Y-83527886D01*
X48621174Y-83449560D01*
X48599500Y-83397234D01*
X48599500Y-72074705D01*
X49861200Y-72074705D01*
X49861200Y-72206494D01*
X49895306Y-72333781D01*
X49895307Y-72333784D01*
X49895308Y-72333786D01*
X49961200Y-72447914D01*
X50054386Y-72541100D01*
X50168514Y-72606992D01*
X50295805Y-72641099D01*
X50295806Y-72641100D01*
X50295808Y-72641100D01*
X50427594Y-72641100D01*
X50427594Y-72641099D01*
X50554886Y-72606992D01*
X50669014Y-72541100D01*
X50762200Y-72447914D01*
X50828092Y-72333786D01*
X50862199Y-72206494D01*
X50862200Y-72206494D01*
X50862200Y-72074706D01*
X50862199Y-72074705D01*
X50858040Y-72059185D01*
X50828092Y-71947414D01*
X50762200Y-71833286D01*
X50669014Y-71740100D01*
X50554890Y-71674210D01*
X50554881Y-71674206D01*
X50427594Y-71640100D01*
X50427592Y-71640100D01*
X50295808Y-71640100D01*
X50295806Y-71640100D01*
X50168518Y-71674206D01*
X50168509Y-71674210D01*
X50054385Y-71740100D01*
X49961200Y-71833285D01*
X49895310Y-71947409D01*
X49895306Y-71947418D01*
X49861200Y-72074705D01*
X48599500Y-72074705D01*
X48599500Y-61181739D01*
X48599500Y-61181738D01*
X48595390Y-61166400D01*
X48579022Y-61105312D01*
X48556556Y-61066400D01*
X48539462Y-61036792D01*
X48539461Y-61036791D01*
X48539460Y-61036789D01*
X34825696Y-47323025D01*
X34804022Y-47270699D01*
X34825694Y-47218376D01*
X37952996Y-44091073D01*
X38005322Y-44069400D01*
X38116094Y-44069400D01*
X38116094Y-44069399D01*
X38243386Y-44035292D01*
X38357514Y-43969400D01*
X38379095Y-43947818D01*
X38431420Y-43926144D01*
X38483746Y-43947817D01*
X42118563Y-47582634D01*
X42140237Y-47634960D01*
X42118563Y-47687286D01*
X42085391Y-47706438D01*
X42057517Y-47713907D01*
X42057509Y-47713910D01*
X41943385Y-47779800D01*
X41850200Y-47872985D01*
X41784310Y-47987109D01*
X41784306Y-47987118D01*
X41750200Y-48114405D01*
X41750200Y-48246194D01*
X41784306Y-48373481D01*
X41784310Y-48373490D01*
X41815842Y-48428105D01*
X41850200Y-48487614D01*
X41943386Y-48580800D01*
X42057514Y-48646692D01*
X42184805Y-48680799D01*
X42184806Y-48680800D01*
X42184808Y-48680800D01*
X42316594Y-48680800D01*
X42316594Y-48680799D01*
X42443886Y-48646692D01*
X42558014Y-48580800D01*
X42651200Y-48487614D01*
X42717092Y-48373486D01*
X42724561Y-48345608D01*
X42759038Y-48300677D01*
X42815190Y-48293283D01*
X42848365Y-48312436D01*
X45877826Y-51341897D01*
X45899500Y-51394223D01*
X45899500Y-51504994D01*
X45933606Y-51632281D01*
X45933610Y-51632290D01*
X45962208Y-51681822D01*
X45999500Y-51746414D01*
X46092686Y-51839600D01*
X46206814Y-51905492D01*
X46334105Y-51939599D01*
X46334106Y-51939600D01*
X46334108Y-51939600D01*
X46465894Y-51939600D01*
X46465894Y-51939599D01*
X46593186Y-51905492D01*
X46707314Y-51839600D01*
X46800500Y-51746414D01*
X46866392Y-51632286D01*
X46900499Y-51504994D01*
X46900500Y-51504994D01*
X46900500Y-51373206D01*
X46900499Y-51373205D01*
X46892188Y-51342189D01*
X46866392Y-51245914D01*
X46800500Y-51131786D01*
X46707314Y-51038600D01*
X46614996Y-50985300D01*
X46593190Y-50972710D01*
X46593181Y-50972706D01*
X46465894Y-50938600D01*
X46465892Y-50938600D01*
X46355123Y-50938600D01*
X46302797Y-50916926D01*
X38924074Y-43538203D01*
X38902400Y-43485877D01*
X38902400Y-43300836D01*
X38902399Y-43300835D01*
X38881922Y-43224414D01*
X38881920Y-43224409D01*
X38842359Y-43155888D01*
X38463211Y-42776740D01*
X38394690Y-42737179D01*
X38394685Y-42737177D01*
X38318264Y-42716700D01*
X38318262Y-42716700D01*
X38133223Y-42716700D01*
X38080897Y-42695026D01*
X37768611Y-42382740D01*
X37725564Y-42357887D01*
X37700090Y-42343179D01*
X37700085Y-42343177D01*
X37623664Y-42322700D01*
X37623662Y-42322700D01*
X26753341Y-42322700D01*
X26701015Y-42301026D01*
X26679341Y-42248700D01*
X26701015Y-42196374D01*
X26716341Y-42184614D01*
X26776814Y-42149700D01*
X26855140Y-42071374D01*
X26907466Y-42049700D01*
X40051164Y-42049700D01*
X40051164Y-42049699D01*
X40127589Y-42029221D01*
X40196111Y-41989660D01*
X40252060Y-41933711D01*
X40948760Y-41237011D01*
X40988322Y-41168488D01*
X41008800Y-41092062D01*
X41008800Y-41012938D01*
X41008800Y-40975366D01*
X41030474Y-40923040D01*
X41108800Y-40844714D01*
X41156495Y-40762102D01*
X41201427Y-40727625D01*
X41257579Y-40735017D01*
X41272906Y-40746777D01*
X48880856Y-48354727D01*
X48902530Y-48407053D01*
X48900012Y-48426193D01*
X48899500Y-48428102D01*
X48899500Y-48559894D01*
X48933606Y-48687181D01*
X48933610Y-48687190D01*
X48985693Y-48777399D01*
X48999500Y-48801314D01*
X49092686Y-48894500D01*
X49206814Y-48960392D01*
X49334105Y-48994499D01*
X49334106Y-48994500D01*
X49334108Y-48994500D01*
X49465894Y-48994500D01*
X49465894Y-48994499D01*
X49593186Y-48960392D01*
X49707314Y-48894500D01*
X49800500Y-48801314D01*
X49866392Y-48687186D01*
X49900499Y-48559894D01*
X49900500Y-48559894D01*
X49900500Y-48428106D01*
X49900499Y-48428105D01*
X49866393Y-48300818D01*
X49866392Y-48300814D01*
X49800500Y-48186686D01*
X49707314Y-48093500D01*
X49665892Y-48069585D01*
X49593190Y-48027610D01*
X49593181Y-48027606D01*
X49465894Y-47993500D01*
X49465892Y-47993500D01*
X49400223Y-47993500D01*
X49347897Y-47971826D01*
X41121311Y-39745240D01*
X41052790Y-39705679D01*
X41052785Y-39705677D01*
X40976364Y-39685200D01*
X40976362Y-39685200D01*
X40083600Y-39685200D01*
X40031274Y-39663526D01*
X40009600Y-39611200D01*
X40009600Y-22698205D01*
X48297500Y-22698205D01*
X48297500Y-22829994D01*
X48331606Y-22957281D01*
X48331607Y-22957284D01*
X48331608Y-22957286D01*
X48397500Y-23071414D01*
X48490686Y-23164600D01*
X48604814Y-23230492D01*
X48732105Y-23264599D01*
X48732106Y-23264600D01*
X48732108Y-23264600D01*
X48863894Y-23264600D01*
X48863894Y-23264599D01*
X48991186Y-23230492D01*
X49105314Y-23164600D01*
X49198500Y-23071414D01*
X49264392Y-22957286D01*
X49298499Y-22829994D01*
X49298500Y-22829994D01*
X49298500Y-22698206D01*
X49298499Y-22698205D01*
X49272269Y-22600311D01*
X49268436Y-22586005D01*
X49498500Y-22586005D01*
X49498500Y-22717794D01*
X49532606Y-22845081D01*
X49532607Y-22845084D01*
X49532608Y-22845086D01*
X49598500Y-22959214D01*
X49691686Y-23052400D01*
X49805814Y-23118292D01*
X49933105Y-23152399D01*
X49933106Y-23152400D01*
X49933108Y-23152400D01*
X50064894Y-23152400D01*
X50064894Y-23152399D01*
X50192186Y-23118292D01*
X50306314Y-23052400D01*
X50399500Y-22959214D01*
X50465392Y-22845086D01*
X50499499Y-22717794D01*
X50499500Y-22717794D01*
X50499500Y-22586006D01*
X50499499Y-22586005D01*
X50495455Y-22570914D01*
X50465392Y-22458714D01*
X50399500Y-22344586D01*
X50306314Y-22251400D01*
X50192190Y-22185510D01*
X50192181Y-22185506D01*
X50064894Y-22151400D01*
X50064892Y-22151400D01*
X49933108Y-22151400D01*
X49933106Y-22151400D01*
X49805818Y-22185506D01*
X49805809Y-22185510D01*
X49691685Y-22251400D01*
X49598500Y-22344585D01*
X49532610Y-22458709D01*
X49532606Y-22458718D01*
X49498500Y-22586005D01*
X49268436Y-22586005D01*
X49264393Y-22570918D01*
X49264392Y-22570914D01*
X49198500Y-22456786D01*
X49105314Y-22363600D01*
X49072379Y-22344585D01*
X48991190Y-22297710D01*
X48991181Y-22297706D01*
X48863894Y-22263600D01*
X48863892Y-22263600D01*
X48732108Y-22263600D01*
X48732106Y-22263600D01*
X48604818Y-22297706D01*
X48604809Y-22297710D01*
X48490685Y-22363600D01*
X48397500Y-22456785D01*
X48331610Y-22570909D01*
X48331606Y-22570918D01*
X48297500Y-22698205D01*
X40009600Y-22698205D01*
X40009600Y-18089936D01*
X40009599Y-18089935D01*
X39989122Y-18013514D01*
X39989120Y-18013509D01*
X39949559Y-17944988D01*
X39596611Y-17592040D01*
X39528090Y-17552479D01*
X39528085Y-17552477D01*
X39451664Y-17532000D01*
X39451662Y-17532000D01*
X29301060Y-17532000D01*
X29248734Y-17510326D01*
X29227060Y-17458000D01*
X29248734Y-17405674D01*
X29286500Y-17387050D01*
X29286207Y-17385956D01*
X29373776Y-17362491D01*
X29418186Y-17350592D01*
X29532314Y-17284700D01*
X29610640Y-17206374D01*
X29662966Y-17184700D01*
X39963634Y-17184700D01*
X40015960Y-17206374D01*
X40094286Y-17284700D01*
X40208414Y-17350592D01*
X40335705Y-17384699D01*
X40335706Y-17384700D01*
X40335708Y-17384700D01*
X40467494Y-17384700D01*
X40467494Y-17384699D01*
X40594786Y-17350592D01*
X40708914Y-17284700D01*
X40802100Y-17191514D01*
X40867992Y-17077386D01*
X40902099Y-16950094D01*
X40902100Y-16950094D01*
X40902100Y-16818306D01*
X40902099Y-16818305D01*
X40867993Y-16691018D01*
X40867992Y-16691014D01*
X40802100Y-16576886D01*
X40749940Y-16524726D01*
X40728266Y-16472400D01*
X40749940Y-16420074D01*
X40802266Y-16398400D01*
X42794934Y-16398400D01*
X42847260Y-16420074D01*
X42925586Y-16498400D01*
X43039714Y-16564292D01*
X43167005Y-16598399D01*
X43167006Y-16598400D01*
X43167008Y-16598400D01*
X43298794Y-16598400D01*
X43298794Y-16598399D01*
X43426086Y-16564292D01*
X43540214Y-16498400D01*
X43633400Y-16405214D01*
X43699292Y-16291086D01*
X43733399Y-16163794D01*
X43733400Y-16163794D01*
X43733400Y-16032006D01*
X43733399Y-16032005D01*
X43706168Y-15930378D01*
X43699292Y-15904714D01*
X43633400Y-15790586D01*
X43540214Y-15697400D01*
X43486848Y-15666589D01*
X43426090Y-15631510D01*
X43426081Y-15631506D01*
X43298794Y-15597400D01*
X43298792Y-15597400D01*
X43167008Y-15597400D01*
X43167006Y-15597400D01*
X43039718Y-15631506D01*
X43039709Y-15631510D01*
X42925585Y-15697400D01*
X42847260Y-15775726D01*
X42794934Y-15797400D01*
X40800666Y-15797400D01*
X40748340Y-15775726D01*
X40726666Y-15723400D01*
X40748340Y-15671074D01*
X40760100Y-15659314D01*
X40800500Y-15618914D01*
X40866392Y-15504786D01*
X40900499Y-15377494D01*
X40900500Y-15377494D01*
X40900500Y-15245706D01*
X40900499Y-15245705D01*
X40897444Y-15234305D01*
X40866392Y-15118414D01*
X40800500Y-15004286D01*
X40716948Y-14920734D01*
X45599500Y-14920734D01*
X45599500Y-16279266D01*
X45602354Y-16309699D01*
X45602354Y-16309701D01*
X45602355Y-16309704D01*
X45647206Y-16437881D01*
X45647207Y-16437883D01*
X45727846Y-16547146D01*
X45727853Y-16547153D01*
X45837116Y-16627792D01*
X45837118Y-16627793D01*
X45965295Y-16672644D01*
X45965301Y-16672646D01*
X45995734Y-16675500D01*
X45995741Y-16675500D01*
X46804258Y-16675500D01*
X46804266Y-16675500D01*
X46834699Y-16672646D01*
X46962882Y-16627793D01*
X47072150Y-16547150D01*
X47152793Y-16437882D01*
X47197646Y-16309699D01*
X47200500Y-16279266D01*
X47200500Y-15246159D01*
X47599500Y-15246159D01*
X47599500Y-15953840D01*
X47630261Y-16108491D01*
X47630264Y-16108501D01*
X47690603Y-16254174D01*
X47690605Y-16254177D01*
X47690606Y-16254179D01*
X47715269Y-16291090D01*
X47773288Y-16377922D01*
X47778211Y-16385289D01*
X47889711Y-16496789D01*
X48020821Y-16584394D01*
X48020826Y-16584396D01*
X48020825Y-16584396D01*
X48125596Y-16627793D01*
X48166503Y-16644737D01*
X48321158Y-16675500D01*
X48321160Y-16675500D01*
X48478840Y-16675500D01*
X48478842Y-16675500D01*
X48633497Y-16644737D01*
X48779179Y-16584394D01*
X48910289Y-16496789D01*
X49021789Y-16385289D01*
X49109394Y-16254179D01*
X49169737Y-16108497D01*
X49200500Y-15953842D01*
X49200500Y-15246158D01*
X49169737Y-15091503D01*
X49135226Y-15008185D01*
X49109396Y-14945825D01*
X49109395Y-14945823D01*
X49109394Y-14945821D01*
X49021789Y-14814711D01*
X48910289Y-14703211D01*
X48905034Y-14699700D01*
X48877842Y-14681530D01*
X48779179Y-14615606D01*
X48779175Y-14615604D01*
X48779173Y-14615603D01*
X48779174Y-14615603D01*
X48633501Y-14555264D01*
X48633491Y-14555261D01*
X48529925Y-14534661D01*
X48478842Y-14524500D01*
X48321158Y-14524500D01*
X48277315Y-14533220D01*
X48166508Y-14555261D01*
X48166498Y-14555264D01*
X48020825Y-14615603D01*
X47889711Y-14703210D01*
X47889710Y-14703212D01*
X47778212Y-14814710D01*
X47778210Y-14814711D01*
X47690603Y-14945825D01*
X47630264Y-15091498D01*
X47630261Y-15091508D01*
X47599500Y-15246159D01*
X47200500Y-15246159D01*
X47200500Y-14920734D01*
X47197646Y-14890301D01*
X47169932Y-14811100D01*
X47152793Y-14762118D01*
X47152792Y-14762116D01*
X47072153Y-14652853D01*
X47072146Y-14652846D01*
X46962883Y-14572207D01*
X46962881Y-14572206D01*
X46834704Y-14527355D01*
X46834705Y-14527355D01*
X46834700Y-14527354D01*
X46834699Y-14527354D01*
X46804266Y-14524500D01*
X45995734Y-14524500D01*
X45965301Y-14527354D01*
X45965299Y-14527354D01*
X45965295Y-14527355D01*
X45837118Y-14572206D01*
X45837116Y-14572207D01*
X45727853Y-14652846D01*
X45727846Y-14652853D01*
X45647207Y-14762116D01*
X45647206Y-14762118D01*
X45602355Y-14890295D01*
X45602354Y-14890299D01*
X45602354Y-14890301D01*
X45599500Y-14920734D01*
X40716948Y-14920734D01*
X40707314Y-14911100D01*
X40670397Y-14889786D01*
X40593190Y-14845210D01*
X40593181Y-14845206D01*
X40465894Y-14811100D01*
X40465892Y-14811100D01*
X40334108Y-14811100D01*
X40334106Y-14811100D01*
X40206818Y-14845206D01*
X40206809Y-14845210D01*
X40129603Y-14889786D01*
X40092603Y-14899700D01*
X27137966Y-14899700D01*
X27085640Y-14878026D01*
X27007314Y-14799700D01*
X26893190Y-14733810D01*
X26893181Y-14733806D01*
X26765894Y-14699700D01*
X26765892Y-14699700D01*
X26634108Y-14699700D01*
X26634106Y-14699700D01*
X26506818Y-14733806D01*
X26506809Y-14733810D01*
X26392685Y-14799700D01*
X26299500Y-14892885D01*
X26233610Y-15007009D01*
X26233606Y-15007018D01*
X26199500Y-15134305D01*
X26199500Y-15266094D01*
X26233606Y-15393381D01*
X26233610Y-15393390D01*
X26295566Y-15500700D01*
X26299500Y-15507514D01*
X26392686Y-15600700D01*
X26475400Y-15648455D01*
X26494208Y-15659314D01*
X26528687Y-15704248D01*
X26521294Y-15760400D01*
X26476360Y-15794879D01*
X26457208Y-15797400D01*
X23239266Y-15797400D01*
X23186940Y-15775726D01*
X23165266Y-15723400D01*
X23186940Y-15671074D01*
X23198700Y-15659314D01*
X23250500Y-15607514D01*
X23316392Y-15493386D01*
X23350499Y-15366094D01*
X23350500Y-15366094D01*
X23350500Y-15234306D01*
X23350499Y-15234305D01*
X23323704Y-15134305D01*
X23316392Y-15107014D01*
X23250500Y-14992886D01*
X23157314Y-14899700D01*
X23145510Y-14892885D01*
X23043190Y-14833810D01*
X23043181Y-14833806D01*
X22915894Y-14799700D01*
X22915892Y-14799700D01*
X22784108Y-14799700D01*
X22784106Y-14799700D01*
X22656818Y-14833806D01*
X22656809Y-14833810D01*
X22542685Y-14899700D01*
X22449496Y-14992890D01*
X22449493Y-14992893D01*
X22447714Y-14995976D01*
X22402777Y-15030449D01*
X22346625Y-15023049D01*
X22331307Y-15011294D01*
X22328201Y-15008188D01*
X22328200Y-15008186D01*
X22235014Y-14915000D01*
X22191342Y-14889786D01*
X22120890Y-14849110D01*
X22120881Y-14849106D01*
X21993594Y-14815000D01*
X21993592Y-14815000D01*
X21861808Y-14815000D01*
X21861806Y-14815000D01*
X21734518Y-14849106D01*
X21734509Y-14849110D01*
X21620385Y-14915000D01*
X21527200Y-15008185D01*
X21461310Y-15122309D01*
X21461306Y-15122318D01*
X21427200Y-15249605D01*
X21427200Y-15381391D01*
X21436626Y-15416572D01*
X21429232Y-15472725D01*
X21384299Y-15507203D01*
X21328146Y-15499809D01*
X21312821Y-15488050D01*
X21122174Y-15297403D01*
X21100500Y-15245077D01*
X21100500Y-15134306D01*
X21100499Y-15134305D01*
X21093186Y-15107014D01*
X21066392Y-15007014D01*
X21000500Y-14892886D01*
X20907314Y-14799700D01*
X20793190Y-14733810D01*
X20793181Y-14733806D01*
X20665894Y-14699700D01*
X20665892Y-14699700D01*
X20534108Y-14699700D01*
X20534106Y-14699700D01*
X20406818Y-14733806D01*
X20406809Y-14733810D01*
X20292685Y-14799700D01*
X20199500Y-14892885D01*
X20133610Y-15007009D01*
X20133606Y-15007018D01*
X20099500Y-15134305D01*
X20099500Y-15266094D01*
X20133606Y-15393381D01*
X20133610Y-15393390D01*
X20195566Y-15500700D01*
X20199500Y-15507514D01*
X20292686Y-15600700D01*
X20406814Y-15666592D01*
X20534105Y-15700699D01*
X20534106Y-15700700D01*
X20644877Y-15700700D01*
X20697203Y-15722374D01*
X22991840Y-18017011D01*
X23047789Y-18072960D01*
X23068069Y-18084668D01*
X23080618Y-18091914D01*
X23115097Y-18136848D01*
X23107704Y-18193000D01*
X23062770Y-18227479D01*
X23043618Y-18230000D01*
X574500Y-18230000D01*
X522174Y-18208326D01*
X500500Y-18156000D01*
X500500Y-2037550D01*
X501129Y-2027918D01*
X517627Y-1902239D01*
X554360Y-1622416D01*
X559379Y-1603693D01*
X701312Y-1261637D01*
X710970Y-1244931D01*
X937027Y-950630D01*
X950626Y-937030D01*
X1244932Y-710969D01*
X1261636Y-701312D01*
X1603694Y-559380D01*
X1622417Y-554360D01*
X2027918Y-501128D01*
X2037550Y-500500D01*
X60762449Y-500500D01*
X60772080Y-501128D01*
G37*
%TD.AperFunction*%
%TA.AperFunction,Conductor*%
G36*
X39373740Y-120787281D02*
G01*
X39385500Y-120802607D01*
X39436600Y-120891114D01*
X39514926Y-120969440D01*
X39536600Y-121021766D01*
X39536600Y-126408764D01*
X39557077Y-126485185D01*
X39557079Y-126485190D01*
X39596640Y-126553711D01*
X49905826Y-136862897D01*
X49927500Y-136915223D01*
X49927500Y-137025994D01*
X49961606Y-137153281D01*
X49961610Y-137153290D01*
X50018774Y-137252300D01*
X50026167Y-137308452D01*
X49991688Y-137353386D01*
X49954688Y-137363300D01*
X48493223Y-137363300D01*
X48440897Y-137341626D01*
X44958474Y-133859203D01*
X44936800Y-133806877D01*
X44936800Y-133696106D01*
X44936799Y-133696105D01*
X44902693Y-133568818D01*
X44902692Y-133568814D01*
X44836800Y-133454686D01*
X44743614Y-133361500D01*
X44629490Y-133295610D01*
X44629481Y-133295606D01*
X44502194Y-133261500D01*
X44502192Y-133261500D01*
X44370408Y-133261500D01*
X44370406Y-133261500D01*
X44243118Y-133295606D01*
X44243109Y-133295610D01*
X44155799Y-133346019D01*
X44099646Y-133353411D01*
X44066473Y-133334259D01*
X43981514Y-133249300D01*
X43867390Y-133183410D01*
X43867381Y-133183406D01*
X43740094Y-133149300D01*
X43740092Y-133149300D01*
X43629323Y-133149300D01*
X43576997Y-133127626D01*
X42045880Y-131596509D01*
X40430511Y-129981140D01*
X40430508Y-129981138D01*
X40430507Y-129981137D01*
X40423713Y-129977215D01*
X40423711Y-129977214D01*
X40361990Y-129941579D01*
X40361985Y-129941577D01*
X40285564Y-129921100D01*
X40285562Y-129921100D01*
X35336886Y-129921100D01*
X35284560Y-129899426D01*
X35262886Y-129847100D01*
X35265407Y-129827948D01*
X35290100Y-129735791D01*
X35290100Y-129604006D01*
X35290099Y-129604005D01*
X35255993Y-129476718D01*
X35255992Y-129476714D01*
X35190100Y-129362586D01*
X35111774Y-129284260D01*
X35090100Y-129231934D01*
X35090100Y-124284105D01*
X36211900Y-124284105D01*
X36211900Y-124415894D01*
X36246006Y-124543181D01*
X36246010Y-124543190D01*
X36285696Y-124611927D01*
X36311900Y-124657314D01*
X36405086Y-124750500D01*
X36519214Y-124816392D01*
X36646505Y-124850499D01*
X36646506Y-124850500D01*
X36646508Y-124850500D01*
X36778294Y-124850500D01*
X36778294Y-124850499D01*
X36905586Y-124816392D01*
X37019714Y-124750500D01*
X37112900Y-124657314D01*
X37178792Y-124543186D01*
X37212899Y-124415894D01*
X37212900Y-124415894D01*
X37212900Y-124284106D01*
X37212899Y-124284105D01*
X37178793Y-124156818D01*
X37178792Y-124156814D01*
X37112900Y-124042686D01*
X37019714Y-123949500D01*
X36966540Y-123918800D01*
X36905590Y-123883610D01*
X36905581Y-123883606D01*
X36778294Y-123849500D01*
X36778292Y-123849500D01*
X36646508Y-123849500D01*
X36646506Y-123849500D01*
X36519218Y-123883606D01*
X36519209Y-123883610D01*
X36405085Y-123949500D01*
X36311900Y-124042685D01*
X36246010Y-124156809D01*
X36246006Y-124156818D01*
X36211900Y-124284105D01*
X35090100Y-124284105D01*
X35090100Y-121448622D01*
X35111773Y-121396297D01*
X35206129Y-121301940D01*
X35258455Y-121280267D01*
X35310781Y-121301941D01*
X35322541Y-121317267D01*
X35368169Y-121396296D01*
X35370200Y-121399814D01*
X35463386Y-121493000D01*
X35577514Y-121558892D01*
X35704805Y-121592999D01*
X35704806Y-121593000D01*
X35704808Y-121593000D01*
X35836594Y-121593000D01*
X35836594Y-121592999D01*
X35963886Y-121558892D01*
X36078014Y-121493000D01*
X36171200Y-121399814D01*
X36237092Y-121285686D01*
X36271199Y-121158394D01*
X36271200Y-121158394D01*
X36271200Y-121026608D01*
X36246507Y-120934452D01*
X36253900Y-120878300D01*
X36298834Y-120843821D01*
X36317986Y-120841300D01*
X37141477Y-120841300D01*
X37193803Y-120862974D01*
X37869726Y-121538897D01*
X37891400Y-121591223D01*
X37891400Y-121701994D01*
X37925506Y-121829281D01*
X37925507Y-121829284D01*
X37925508Y-121829286D01*
X37991400Y-121943414D01*
X38084586Y-122036600D01*
X38198714Y-122102492D01*
X38326005Y-122136599D01*
X38326006Y-122136600D01*
X38326008Y-122136600D01*
X38457794Y-122136600D01*
X38457794Y-122136599D01*
X38585086Y-122102492D01*
X38699214Y-122036600D01*
X38792400Y-121943414D01*
X38858292Y-121829286D01*
X38892399Y-121701994D01*
X38892400Y-121701994D01*
X38892400Y-121570206D01*
X38892399Y-121570205D01*
X38858293Y-121442918D01*
X38858292Y-121442914D01*
X38797065Y-121336867D01*
X38789673Y-121280717D01*
X38808824Y-121247545D01*
X39269089Y-120787280D01*
X39321414Y-120765607D01*
X39373740Y-120787281D01*
G37*
%TD.AperFunction*%
%TA.AperFunction,Conductor*%
G36*
X23271703Y-128340974D02*
G01*
X30075931Y-135145202D01*
X30097605Y-135197528D01*
X30075932Y-135249853D01*
X30060300Y-135265485D01*
X29994410Y-135379609D01*
X29994406Y-135379618D01*
X29960300Y-135506905D01*
X29960300Y-135594877D01*
X29938626Y-135647203D01*
X29886300Y-135668877D01*
X29833974Y-135647203D01*
X23357511Y-129170740D01*
X23348066Y-129165287D01*
X23288990Y-129131179D01*
X23288985Y-129131177D01*
X23212564Y-129110700D01*
X23212562Y-129110700D01*
X21839641Y-129110700D01*
X21787315Y-129089026D01*
X21765641Y-129036700D01*
X21787315Y-128984374D01*
X21802641Y-128972614D01*
X21863114Y-128937700D01*
X21956300Y-128844514D01*
X22022192Y-128730386D01*
X22056299Y-128603094D01*
X22056300Y-128603094D01*
X22056300Y-128471308D01*
X22040530Y-128412452D01*
X22047923Y-128356300D01*
X22092857Y-128321821D01*
X22112009Y-128319300D01*
X23219377Y-128319300D01*
X23271703Y-128340974D01*
G37*
%TD.AperFunction*%
%TA.AperFunction,Conductor*%
G36*
X15778003Y-117091174D02*
G01*
X23233289Y-124546460D01*
X23301812Y-124586022D01*
X23378238Y-124606500D01*
X23457362Y-124606500D01*
X23745614Y-124606500D01*
X23797940Y-124628174D01*
X23819614Y-124680500D01*
X23817093Y-124699651D01*
X23792400Y-124791808D01*
X23792400Y-124923594D01*
X23826506Y-125050881D01*
X23826510Y-125050890D01*
X23892399Y-125165013D01*
X23892400Y-125165014D01*
X23985586Y-125258200D01*
X24099714Y-125324092D01*
X24227005Y-125358199D01*
X24227006Y-125358200D01*
X24227008Y-125358200D01*
X24358794Y-125358200D01*
X24358794Y-125358199D01*
X24486086Y-125324092D01*
X24600214Y-125258200D01*
X24693400Y-125165014D01*
X24741095Y-125082402D01*
X24786027Y-125047925D01*
X24842179Y-125055317D01*
X24857506Y-125067077D01*
X30252489Y-130462060D01*
X30321012Y-130501622D01*
X30397438Y-130522100D01*
X40090877Y-130522100D01*
X40143203Y-130543774D01*
X41983039Y-132383610D01*
X42004713Y-132435936D01*
X41983039Y-132488262D01*
X41961984Y-132502331D01*
X41962014Y-132502383D01*
X41961222Y-132502840D01*
X41959036Y-132504301D01*
X41957817Y-132504805D01*
X41843685Y-132570700D01*
X41765360Y-132649026D01*
X41713034Y-132670700D01*
X31040523Y-132670700D01*
X30988197Y-132649026D01*
X17946411Y-119607240D01*
X17923340Y-119593920D01*
X17877890Y-119567679D01*
X17877885Y-119567677D01*
X17801464Y-119547200D01*
X17801462Y-119547200D01*
X16752123Y-119547200D01*
X16699797Y-119525526D01*
X14592174Y-117417903D01*
X14570500Y-117365577D01*
X14570500Y-117254808D01*
X14545807Y-117162652D01*
X14553200Y-117106500D01*
X14598134Y-117072021D01*
X14617286Y-117069500D01*
X15725677Y-117069500D01*
X15778003Y-117091174D01*
G37*
%TD.AperFunction*%
%TA.AperFunction,Conductor*%
G36*
X19018331Y-112686191D02*
G01*
X19040005Y-112738517D01*
X19039373Y-112748167D01*
X19039000Y-112751002D01*
X19039000Y-112882794D01*
X19073106Y-113010081D01*
X19073110Y-113010090D01*
X19130628Y-113109714D01*
X19139000Y-113124214D01*
X19232186Y-113217400D01*
X19346314Y-113283292D01*
X19473605Y-113317399D01*
X19473606Y-113317400D01*
X19584377Y-113317400D01*
X19636703Y-113339074D01*
X20246240Y-113948611D01*
X20302189Y-114004560D01*
X20370711Y-114044121D01*
X20370712Y-114044121D01*
X20370714Y-114044122D01*
X20408924Y-114054360D01*
X20447135Y-114064599D01*
X20447136Y-114064600D01*
X20447138Y-114064600D01*
X20526262Y-114064600D01*
X20795266Y-114064600D01*
X20847592Y-114086274D01*
X20869266Y-114138600D01*
X20859352Y-114175600D01*
X20841910Y-114205809D01*
X20841906Y-114205818D01*
X20807800Y-114333105D01*
X20807800Y-114464894D01*
X20841906Y-114592181D01*
X20841910Y-114592190D01*
X20907800Y-114706314D01*
X21000986Y-114799500D01*
X21115114Y-114865392D01*
X21242405Y-114899499D01*
X21242406Y-114899500D01*
X21353177Y-114899500D01*
X21405503Y-114921174D01*
X22193240Y-115708911D01*
X22249189Y-115764860D01*
X22317711Y-115804421D01*
X22317712Y-115804421D01*
X22317714Y-115804422D01*
X22355924Y-115814660D01*
X22394135Y-115824899D01*
X22394136Y-115824900D01*
X22394138Y-115824900D01*
X22473262Y-115824900D01*
X32714614Y-115824900D01*
X32766940Y-115846574D01*
X32788614Y-115898900D01*
X32786093Y-115918051D01*
X32773081Y-115966614D01*
X32761400Y-116010208D01*
X32761400Y-116141994D01*
X32795506Y-116269281D01*
X32795510Y-116269290D01*
X32829696Y-116328502D01*
X32861400Y-116383414D01*
X32954586Y-116476600D01*
X33068714Y-116542492D01*
X33196005Y-116576599D01*
X33196006Y-116576600D01*
X33196008Y-116576600D01*
X33327794Y-116576600D01*
X33327794Y-116576599D01*
X33455086Y-116542492D01*
X33569214Y-116476600D01*
X33647540Y-116398274D01*
X33699866Y-116376600D01*
X43546477Y-116376600D01*
X43598803Y-116398274D01*
X43606926Y-116406397D01*
X43628600Y-116458723D01*
X43628600Y-116569494D01*
X43662706Y-116696781D01*
X43662707Y-116696783D01*
X43662708Y-116696786D01*
X43704293Y-116768814D01*
X43705556Y-116771000D01*
X43712949Y-116827152D01*
X43678470Y-116872086D01*
X43641470Y-116882000D01*
X42409336Y-116882000D01*
X42332914Y-116902477D01*
X42332909Y-116902479D01*
X42264388Y-116942040D01*
X38245926Y-120960503D01*
X38193600Y-120982177D01*
X38141274Y-120960503D01*
X37481111Y-120300340D01*
X37412590Y-120260779D01*
X37412585Y-120260777D01*
X37336164Y-120240300D01*
X37336162Y-120240300D01*
X35581862Y-120240300D01*
X35502738Y-120240300D01*
X35426312Y-120260778D01*
X35426311Y-120260778D01*
X35426309Y-120260779D01*
X35426307Y-120260780D01*
X35357792Y-120300337D01*
X34686803Y-120971326D01*
X34634477Y-120993000D01*
X24779523Y-120993000D01*
X24727197Y-120971326D01*
X23767474Y-120011603D01*
X23745800Y-119959277D01*
X23745800Y-119848506D01*
X23745799Y-119848505D01*
X23711693Y-119721218D01*
X23711692Y-119721214D01*
X23645800Y-119607086D01*
X23552614Y-119513900D01*
X23438490Y-119448010D01*
X23438481Y-119448006D01*
X23311194Y-119413900D01*
X23311192Y-119413900D01*
X23179408Y-119413900D01*
X23179406Y-119413900D01*
X23052118Y-119448006D01*
X23052109Y-119448010D01*
X22937985Y-119513900D01*
X22844800Y-119607085D01*
X22778910Y-119721209D01*
X22778906Y-119721218D01*
X22744800Y-119848505D01*
X22744800Y-119980294D01*
X22778906Y-120107581D01*
X22778910Y-120107590D01*
X22814870Y-120169874D01*
X22844800Y-120221714D01*
X22937986Y-120314900D01*
X23052114Y-120380792D01*
X23179405Y-120414899D01*
X23179406Y-120414900D01*
X23290177Y-120414900D01*
X23342503Y-120436574D01*
X24383940Y-121478011D01*
X24439889Y-121533960D01*
X24508411Y-121573521D01*
X24508412Y-121573521D01*
X24508414Y-121573522D01*
X24546624Y-121583760D01*
X24584835Y-121593999D01*
X24584836Y-121594000D01*
X24584838Y-121594000D01*
X34415100Y-121594000D01*
X34467426Y-121615674D01*
X34489100Y-121668000D01*
X34489100Y-129231934D01*
X34467426Y-129284260D01*
X34389100Y-129362585D01*
X34323210Y-129476709D01*
X34323206Y-129476718D01*
X34289100Y-129604005D01*
X34289100Y-129735791D01*
X34313793Y-129827948D01*
X34306400Y-129884100D01*
X34261466Y-129918579D01*
X34242314Y-129921100D01*
X30592123Y-129921100D01*
X30539797Y-129899426D01*
X24835976Y-124195605D01*
X25479300Y-124195605D01*
X25479300Y-124327394D01*
X25513406Y-124454681D01*
X25513410Y-124454690D01*
X25564501Y-124543181D01*
X25579300Y-124568814D01*
X25672486Y-124662000D01*
X25786614Y-124727892D01*
X25913905Y-124761999D01*
X25913906Y-124762000D01*
X25913908Y-124762000D01*
X26045694Y-124762000D01*
X26045694Y-124761999D01*
X26172986Y-124727892D01*
X26287114Y-124662000D01*
X26380300Y-124568814D01*
X26446192Y-124454686D01*
X26480299Y-124327394D01*
X26480300Y-124327394D01*
X26480300Y-124195606D01*
X26480299Y-124195605D01*
X26446193Y-124068318D01*
X26446192Y-124068314D01*
X26380300Y-123954186D01*
X26287114Y-123861000D01*
X26269988Y-123851112D01*
X26172990Y-123795110D01*
X26172981Y-123795106D01*
X26045694Y-123761000D01*
X26045692Y-123761000D01*
X25913908Y-123761000D01*
X25913906Y-123761000D01*
X25786618Y-123795106D01*
X25786609Y-123795110D01*
X25672485Y-123861000D01*
X25579300Y-123954185D01*
X25513410Y-124068309D01*
X25513406Y-124068318D01*
X25479300Y-124195605D01*
X24835976Y-124195605D01*
X24705911Y-124065540D01*
X24637390Y-124025979D01*
X24637385Y-124025977D01*
X24560964Y-124005500D01*
X24560962Y-124005500D01*
X23572923Y-124005500D01*
X23520597Y-123983826D01*
X16065311Y-116528540D01*
X16028868Y-116507500D01*
X15996790Y-116488979D01*
X15996785Y-116488977D01*
X15920364Y-116468500D01*
X15920362Y-116468500D01*
X15310023Y-116468500D01*
X15257697Y-116446826D01*
X15236023Y-116394500D01*
X15257697Y-116342174D01*
X17083672Y-114516199D01*
X18913680Y-112686190D01*
X18966005Y-112664517D01*
X19018331Y-112686191D01*
G37*
%TD.AperFunction*%
%TA.AperFunction,Conductor*%
G36*
X17659103Y-120169874D02*
G01*
X24503224Y-127013995D01*
X24524898Y-127066321D01*
X24503224Y-127118647D01*
X24467691Y-127136173D01*
X24468193Y-127138044D01*
X24336218Y-127173406D01*
X24336209Y-127173410D01*
X24222085Y-127239300D01*
X24128900Y-127332485D01*
X24063010Y-127446609D01*
X24063006Y-127446618D01*
X24036709Y-127544761D01*
X24002231Y-127589694D01*
X23946078Y-127597086D01*
X23912905Y-127577934D01*
X16609497Y-120274526D01*
X16587823Y-120222200D01*
X16609497Y-120169874D01*
X16661823Y-120148200D01*
X17606777Y-120148200D01*
X17659103Y-120169874D01*
G37*
%TD.AperFunction*%
%TA.AperFunction,Conductor*%
G36*
X11793803Y-118445274D02*
G01*
X15567892Y-122219363D01*
X15589566Y-122271689D01*
X15567892Y-122324015D01*
X15534719Y-122343167D01*
X15478218Y-122358306D01*
X15478209Y-122358310D01*
X15364085Y-122424200D01*
X15270900Y-122517385D01*
X15205010Y-122631509D01*
X15205006Y-122631518D01*
X15170900Y-122758805D01*
X15170900Y-122890594D01*
X15205006Y-123017881D01*
X15205007Y-123017884D01*
X15205008Y-123017886D01*
X15270900Y-123132014D01*
X15364086Y-123225200D01*
X15478214Y-123291092D01*
X15605505Y-123325199D01*
X15605506Y-123325200D01*
X15605508Y-123325200D01*
X15737294Y-123325200D01*
X15737294Y-123325199D01*
X15864586Y-123291092D01*
X15978714Y-123225200D01*
X16071900Y-123132014D01*
X16137792Y-123017886D01*
X16152933Y-122961378D01*
X16187409Y-122916448D01*
X16243562Y-122909054D01*
X16276736Y-122928207D01*
X20503294Y-127154765D01*
X20524968Y-127207091D01*
X20503294Y-127259417D01*
X20487969Y-127271177D01*
X20376384Y-127335601D01*
X20298060Y-127413926D01*
X20245734Y-127435600D01*
X16738123Y-127435600D01*
X16685797Y-127413926D01*
X7959541Y-118687670D01*
X7937867Y-118635344D01*
X7959541Y-118583018D01*
X7974863Y-118571260D01*
X8057414Y-118523600D01*
X8135740Y-118445274D01*
X8188066Y-118423600D01*
X11741477Y-118423600D01*
X11793803Y-118445274D01*
G37*
%TD.AperFunction*%
%TA.AperFunction,Conductor*%
G36*
X13396603Y-117911574D02*
G01*
X19215450Y-123730421D01*
X19237124Y-123782747D01*
X19215450Y-123835073D01*
X19191448Y-123851112D01*
X19187115Y-123852906D01*
X19072985Y-123918800D01*
X18979800Y-124011985D01*
X18913910Y-124126109D01*
X18913906Y-124126118D01*
X18879800Y-124253405D01*
X18879800Y-124385194D01*
X18913906Y-124512481D01*
X18915050Y-124515242D01*
X18915049Y-124516748D01*
X18915163Y-124517170D01*
X18915049Y-124517200D01*
X18915048Y-124571880D01*
X18874999Y-124611927D01*
X18818361Y-124611925D01*
X18794356Y-124595885D01*
X12214697Y-118016226D01*
X12193023Y-117963900D01*
X12214697Y-117911574D01*
X12267023Y-117889900D01*
X13344277Y-117889900D01*
X13396603Y-117911574D01*
G37*
%TD.AperFunction*%
%TA.AperFunction,Conductor*%
G36*
X8616106Y-54730843D02*
G01*
X8631432Y-54742603D01*
X39448526Y-85559697D01*
X39470200Y-85612023D01*
X39470200Y-88522472D01*
X39448526Y-88574798D01*
X39424519Y-88590839D01*
X39273101Y-88653559D01*
X39101045Y-88768522D01*
X39101044Y-88768524D01*
X38954724Y-88914844D01*
X38954722Y-88914845D01*
X38846561Y-89076721D01*
X38799469Y-89108187D01*
X38743920Y-89097138D01*
X38732706Y-89087935D01*
X7974511Y-58329740D01*
X7925490Y-58301438D01*
X7905990Y-58290179D01*
X7905985Y-58290177D01*
X7829564Y-58269700D01*
X7829562Y-58269700D01*
X7598966Y-58269700D01*
X7546640Y-58248026D01*
X7468314Y-58169700D01*
X7445430Y-58156488D01*
X7381454Y-58119551D01*
X7346976Y-58074619D01*
X7354369Y-58018466D01*
X7366125Y-58003144D01*
X7826353Y-57542916D01*
X7878678Y-57521243D01*
X7931002Y-57542916D01*
X8018586Y-57630500D01*
X8132714Y-57696392D01*
X8260005Y-57730499D01*
X8260006Y-57730500D01*
X8260008Y-57730500D01*
X8391794Y-57730500D01*
X8391794Y-57730499D01*
X8519086Y-57696392D01*
X8633214Y-57630500D01*
X8726400Y-57537314D01*
X8792292Y-57423186D01*
X8826399Y-57295894D01*
X8826400Y-57295894D01*
X8826400Y-57164106D01*
X8826399Y-57164105D01*
X8792293Y-57036818D01*
X8792292Y-57036814D01*
X8726400Y-56922686D01*
X8633214Y-56829500D01*
X8519090Y-56763610D01*
X8519081Y-56763606D01*
X8391794Y-56729500D01*
X8391792Y-56729500D01*
X8281023Y-56729500D01*
X8228697Y-56707826D01*
X7703974Y-56183103D01*
X7682300Y-56130777D01*
X7682300Y-55058485D01*
X7703974Y-55006159D01*
X7756300Y-54984485D01*
X7793298Y-54994398D01*
X7855814Y-55030492D01*
X7983105Y-55064599D01*
X7983106Y-55064600D01*
X7983108Y-55064600D01*
X8114894Y-55064600D01*
X8114894Y-55064599D01*
X8242186Y-55030492D01*
X8356314Y-54964600D01*
X8449500Y-54871414D01*
X8515021Y-54757927D01*
X8559953Y-54723451D01*
X8616106Y-54730843D01*
G37*
%TD.AperFunction*%
%TD*%
M02*
