M48
; DRILL file KiCad 10.0.6 date 2026-09-25T10:03:13
; FORMAT={-:-/ absolute / metric / decimal}
; #@! TF.CreationDate,2026-09-25T10:03:13-04:00
; #@! TF.GenerationSoftware,Kicad,Pcbnew,10.0.6
; #@! TF.FileFunction,MixedPlating,1,4
FMAT,2
METRIC
; #@! TA.AperFunction,Plated,PTH,ComponentDrill
T1C0.200
; #@! TA.AperFunction,Plated,PTH,ViaDrill
T2C0.300
; #@! TA.AperFunction,Plated,PTH,ComponentDrill
T3C0.300
; #@! TA.AperFunction,Plated,PTH,ComponentDrill
T4C0.600
; #@! TA.AperFunction,Plated,PTH,ComponentDrill
T5C0.750
; #@! TA.AperFunction,Plated,PTH,ComponentDrill
T6C1.000
; #@! TA.AperFunction,NonPlated,NPTH,ComponentDrill
T7C0.500
; #@! TA.AperFunction,NonPlated,NPTH,ComponentDrill
T8C0.650
; #@! TA.AperFunction,NonPlated,NPTH,ComponentDrill
T9C1.500
%
G90
G05
T1
X12.5Y-47.74
X12.5Y-49.14
X13.2Y-47.04
X13.2Y-48.44
X13.2Y-49.84
X13.9Y-47.74
X13.9Y-49.14
X14.6Y-47.04
X14.6Y-48.44
X14.6Y-49.84
X15.3Y-47.74
X15.3Y-49.14
T2
X2.308Y-105.074
X3.61Y-114.243
X3.843Y-115.329
X4.883Y-106.493
X5.843Y-106.492
X6.689Y-116.746
X7.33Y-123.418
X7.7Y-130.6
X7.705Y-112.694
X7.734Y-104.456
X7.855Y-42.002
X7.87Y-40.461
X7.925Y-125.483
X8.016Y-52.08
X8.101Y-118.503
X8.126Y-54.235
X8.245Y-48.487
X8.308Y-60.488
X8.448Y-49.503
X8.561Y-50.755
X9.423Y-116.98
X9.427Y-46.765
X9.472Y-59.695
X9.492Y-104.368
X10.052Y-139.111
X10.362Y-86.11
X10.637Y-131.798
X10.662Y-105.505
X10.803Y-126.087
X10.995Y-122.591
X11.003Y-118.862
X11.056Y-103.626
X11.122Y-109.456
X11.166Y-63.667
X11.196Y-116.763
X11.783Y-6.812
X12.225Y-117.562
X13.998Y-110.634
X14.249Y-122.991
X14.252Y-109.601
X14.521Y-1.427
X14.582Y-103.587
X14.588Y-56.515
X14.722Y-119.386
X15.747Y-55.62
X15.756Y-148.545
X15.961Y-108.224
X15.974Y-124.27
X16.467Y-77.239
X16.577Y-55.929
X16.812Y-127.666
X16.879Y-124.492
X16.921Y-106.693
X17.04Y-16.167
X17.084Y-104.821
X17.359Y-117.01
X17.389Y-55.602
X18.02Y-110.013
X18.021Y-112.376
X18.93Y-60.381
X19.021Y-113.707
X19.037Y-136.023
X19.037Y-143.196
X19.106Y-125.116
X19.4Y-77.945
X19.451Y-132.751
X20.148Y-125.284
X20.233Y-138.406
X20.235Y-141.835
X20.5Y-139.623
X20.544Y-136.637
X20.598Y-110.603
X20.61Y-107.089
X20.721Y-15.322
X21.057Y-104.519
X21.484Y-127.802
X22.017Y-102.992
X22.256Y-122.245
X22.378Y-107.396
X22.463Y-111.39
X22.573Y-136.665
X22.574Y-113.237
X22.636Y-128.638
X22.784Y-118.018
X22.815Y-48.673
X22.929Y-49.466
X23.077Y-15.321
X23.093Y-140.869
X23.181Y-137.77
X23.538Y-131.864
X23.568Y-139.275
X24.706Y-121.599
X24.762Y-136.018
X24.762Y-143.178
X25.269Y-15.304
X25.392Y-46.92
X25.606Y-51.563
X25.612Y-124.35
X25.95Y-40.032
X25.954Y-137.325
X25.989Y-45.261
X26.502Y-105.53
X26.548Y-137.883
X26.551Y-127.069
X26.566Y-116.823
X27.627Y-134.649
X27.776Y-125.468
X27.813Y-139.64
X27.85Y-15.2
X28.197Y-1.242
X28.198Y-12.178
X28.647Y-134.627
X29.067Y-103.991
X29.282Y-16.645
X29.301Y-60.546
X29.973Y-118.622
X30.027Y-103.995
X30.895Y-7.263
X31.642Y-101.172
X33.13Y-103.864
X33.179Y-121.822
X33.71Y-4.786
X33.922Y-7.263
X34.09Y-102.315
X34.33Y-125.084
X34.4Y-110.341
X34.448Y-117.381
X34.7Y-134.634
X35.068Y-131.02
X35.461Y-107.396
X35.649Y-109.555
X36.056Y-74.998
X36.642Y-127.092
X36.73Y-40.645
X36.819Y-104.451
X36.955Y-133.201
X37.626Y-92.959
X38.317Y-136.144
X39.241Y-113.202
X39.245Y-60.801
X39.442Y-114.13
X39.474Y-109.247
X39.701Y-116.961
X39.75Y-75.388
X40.658Y-104.964
X40.768Y-122.328
X41.703Y-111.572
X42.136Y-40.188
X42.313Y-54.11
X42.368Y-135.881
X42.585Y-136.688
X42.736Y-118.631
X42.865Y-52.295
X42.931Y-107.601
X43.311Y-62.515
X43.4Y-64.457
X43.4Y-83.835
X43.485Y-115.886
X43.541Y-142.17
X43.603Y-111.568
X44.003Y-139.449
X44.198Y-67.537
X44.441Y-142.381
X44.988Y-75.954
X45.259Y-134.569
X45.702Y-62.242
X45.788Y-106.49
X46.087Y-139.171
X46.4Y-27.878
X46.4Y-122.121
X46.966Y-50.517
X47.097Y-64.123
X47.547Y-113.281
X47.575Y-140.105
X48.317Y-59.743
X48.415Y-92.947
X48.6Y-142.584
X48.863Y-69.742
X49.286Y-61.005
X49.4Y-36.714
X49.707Y-115.982
X50.216Y-63.578
X50.354Y-75.59
X50.764Y-68.575
X52.113Y-112.818
X52.227Y-139.506
X52.493Y-121.707
X58.413Y-112.818
X58.813Y-121.327
T3
X5.797Y-114.016
X5.797Y-114.866
X5.797Y-115.716
X6.697Y-114.016
X6.697Y-114.866
X6.697Y-115.716
T5
X28.4Y-111.6
X30.4Y-111.6
X46.4Y-15.6
X48.4Y-15.6
T6
X14.89Y-90.9
X17.43Y-90.9
X19.97Y-90.9
X22.51Y-90.9
X25.05Y-90.9
X27.59Y-90.9
X30.13Y-90.9
X32.67Y-90.9
X35.21Y-90.9
X37.75Y-90.9
X40.29Y-90.9
X42.83Y-90.9
X45.37Y-90.9
X47.91Y-90.9
T7
X9.4Y-105.637
T8
X42.51Y-144.692
X48.29Y-144.692
T9
X10.4Y-141.05
T4
X41.08Y-143.642G85X41.08Y-144.743
G05
X41.08Y-148.072G85X41.08Y-148.672
G05
X49.72Y-143.642G85X49.72Y-144.743
G05
X49.72Y-148.072G85X49.72Y-148.672
G05
M30
