0
SECTION
2
ENTITIES
0
LINE
8
Edge.Cuts
10
60.8
20
-0.0
30
0
11
61.318
21
-0.068
31
0
0
LINE
8
Edge.Cuts
10
61.318
20
-0.068
30
0
11
61.8
21
-0.268
31
0
0
LINE
8
Edge.Cuts
10
61.8
20
-0.268
30
0
11
62.214
21
-0.586
31
0
0
LINE
8
Edge.Cuts
10
62.214
20
-0.586
30
0
11
62.532
21
-1.0
31
0
0
LINE
8
Edge.Cuts
10
62.532
20
-1.0
30
0
11
62.732
21
-1.482
31
0
0
LINE
8
Edge.Cuts
10
62.732
20
-1.482
30
0
11
62.8
21
-2.0
31
0
0
LINE
8
Edge.Cuts
10
62.8
20
-2.0
30
0
11
62.8
21
-148.0
31
0
0
LINE
8
Edge.Cuts
10
62.8
20
-148.0
30
0
11
62.732
21
-148.518
31
0
0
LINE
8
Edge.Cuts
10
62.732
20
-148.518
30
0
11
62.532
21
-149.0
31
0
0
LINE
8
Edge.Cuts
10
62.532
20
-149.0
30
0
11
62.214
21
-149.414
31
0
0
LINE
8
Edge.Cuts
10
62.214
20
-149.414
30
0
11
61.8
21
-149.732
31
0
0
LINE
8
Edge.Cuts
10
61.8
20
-149.732
30
0
11
61.318
21
-149.932
31
0
0
LINE
8
Edge.Cuts
10
61.318
20
-149.932
30
0
11
60.8
21
-150.0
31
0
0
LINE
8
Edge.Cuts
10
60.8
20
-150.0
30
0
11
2.0
21
-150.0
31
0
0
LINE
8
Edge.Cuts
10
2.0
20
-150.0
30
0
11
1.482
21
-149.932
31
0
0
LINE
8
Edge.Cuts
10
1.482
20
-149.932
30
0
11
1.0
21
-149.732
31
0
0
LINE
8
Edge.Cuts
10
1.0
20
-149.732
30
0
11
0.586
21
-149.414
31
0
0
LINE
8
Edge.Cuts
10
0.586
20
-149.414
30
0
11
0.268
21
-149.0
31
0
0
LINE
8
Edge.Cuts
10
0.268
20
-149.0
30
0
11
0.068
21
-148.518
31
0
0
LINE
8
Edge.Cuts
10
0.068
20
-148.518
30
0
11
0.0
21
-148.0
31
0
0
LINE
8
Edge.Cuts
10
0.0
20
-148.0
30
0
11
0.0
21
-2.0
31
0
0
LINE
8
Edge.Cuts
10
0.0
20
-2.0
30
0
11
0.068
21
-1.482
31
0
0
LINE
8
Edge.Cuts
10
0.068
20
-1.482
30
0
11
0.268
21
-1.0
31
0
0
LINE
8
Edge.Cuts
10
0.268
20
-1.0
30
0
11
0.586
21
-0.586
31
0
0
LINE
8
Edge.Cuts
10
0.586
20
-0.586
30
0
11
1.0
21
-0.268
31
0
0
LINE
8
Edge.Cuts
10
1.0
20
-0.268
30
0
11
1.482
21
-0.068
31
0
0
LINE
8
Edge.Cuts
10
1.482
20
-0.068
30
0
11
2.0
21
-0.0
31
0
0
LINE
8
Edge.Cuts
10
2.0
20
-0.0
30
0
11
60.8
21
-0.0
31
0
0
ENDSEC
0
EOF
